<svg id="bdbf97ca-e15f-4402-9355-1769e19dd138" data-name="Capa 1" xmlns="http://www.w3.org/2000/svg" viewBox="0 0 420 365"><defs><style>.a70a1ea5-f35e-4f6d-b2a4-a3d988d8eab7{font-size:20.07px;font-family:MyriadPro-Semibold, Myriad Pro;font-weight:600;}.efbebcbf-6720-4b53-8c10-3d10886e37dd{letter-spacing:-0.02em;}.fd9df70a-cc64-4a21-bbe9-6df0285b4c57{font-size:24px;stroke-linejoin:round;stroke-width:4px;font-family:MyriadPro-Bold, Myriad Pro;font-weight:700;}.aa13c267-6dfe-470d-b2bd-da929695beca,.fd9df70a-cc64-4a21-bbe9-6df0285b4c57{stroke:#000;stroke-linecap:round;}.f684d0ff-87d2-4933-ac92-7257a89083df{font-size:18px;font-family:MyriadPro-Regular, Myriad Pro;}.eaeeb9f6-b18c-42bb-a72a-8e249aebb0ba{letter-spacing:-0.01em;}.f1d8991b-f8cc-45ac-8324-2ab9c6d25e9d{fill:#1572b6;}.fff5c197-2083-46fa-9d70-6e87ae1f6486{fill:#34a8db;}.a95e1096-816d-4a04-bccb-418b48b20eb5{fill:#e7e8e9;}.ad29f4b0-57d1-45ab-93f4-425763c392ca{fill:#e4e7e9;}.e8b9f67c-6d74-4aa5-ac78-e5acdf975050{fill:#fdfdfe;}.afd74160-7f4e-4f5b-9d3a-411701d520f1{opacity:0.3;}.aa13c267-6dfe-470d-b2bd-da929695beca{fill:none;stroke-miterlimit:10;stroke-width:5px;}.a361f2aa-9451-4219-ab29-a725b5511d2c{letter-spacing:0em;}.ec448fb1-9bbe-44b8-b816-bf31492e1398{fill:#e34f27;}.fce2c14d-c850-4fc0-b993-329a07bb826b{fill:#f0662a;}.afef89f2-a4d7-46cb-9f2f-2cc1de57b14c{fill:#ebe8e7;}.fbce24d6-a996-4654-8fa8-1ae1e4bc98a3{fill:#ef590c;}.aa7d6b98-6bdb-4ff7-a560-a4c302959de0{fill:#fefdfc;}.a3b3a374-627b-41eb-97b7-61017455c6e6{fill:#fefdfd;}.b199d989-a1dc-4797-88ac-3cb67c41eee7{letter-spacing:-0.01em;}.f3030a82-80c4-44be-a659-8d47ddc86e6f{fill:#8692c1;}.a3c2a466-c668-41b8-91a0-b705e208cba1{fill:#232633;}.b46cfb4c-bc0e-4ce9-8850-14f138ae797a{letter-spacing:0em;}.b42f275f-1a83-4f90-812c-9bb4a7b20b1d{letter-spacing:-0.01em;}.a7ea2f78-8a0b-4f30-9c23-eeee7aa98cff{letter-spacing:-0.03em;}.e564a9d8-da6a-41f7-a6a0-89ff037ec0fe{letter-spacing:0em;}.a23a6adb-f4ed-495f-a54e-37cefb0b1123{fill:#efa001;}.ab1ceeca-cd5f-4854-a8bd-65a9239b0499{fill:#f9bd01;}.b79ffd3f-f66d-4a0b-82eb-236684bff0b9{fill:#ebebea;}.eb9720b3-13d6-41f9-88ee-1d117f3434ad{fill:#fefefd;}</style></defs><title>_</title><text class="a70a1ea5-f35e-4f6d-b2a4-a3d988d8eab7" transform="translate(16.48 26.54)"><tspan class="efbebcbf-6720-4b53-8c10-3d10886e37dd">F</tspan><tspan x="9.89" y="0">lujo</tspan></text><text class="fd9df70a-cc64-4a21-bbe9-6df0285b4c57" transform="translate(336.05 250.77)">+</text><path d="M354.64,258.53H331.33a2.9,2.9,0,0,1-1.95-3.16q0-12.36,0-24.71a2.9,2.9,0,0,1,1.95-3.16h15.59a8.76,8.76,0,0,1,4.93,3c.85.94,1.77,1.8,2.67,2.69a6.67,6.67,0,0,1,2.05,4.94c0,5.73,0,11.47,0,17.21A2.9,2.9,0,0,1,354.64,258.53Zm-7.75-29c-.27,0-.45-.07-.63-.07-4.71,0-9.42,0-14.14,0-.6,0-.8.27-.8.84,0,1.61,0,3.22,0,4.83v20.54c0,.57.05,1,.79,1h21.72c.55,0,.8-.2.8-.77,0-6,0-12,0-18.06,0-.48-.17-.62-.65-.62-2.11,0-4.23,0-6.34,0h-.77Zm6.62,5.73-4.67-4.71v4.71Z"/><text class="f684d0ff-87d2-4933-ac92-7257a89083df" transform="translate(57.38 319.77)">bas<tspan class="eaeeb9f6-b18c-42bb-a72a-8e249aebb0ba" x="26.05" y="0">e</tspan><tspan x="34.85" y="0">.css</tspan></text><path class="f1d8991b-f8cc-45ac-8324-2ab9c6d25e9d" d="M88.21,254.25c4.86,0,9.72,0,14.58,0,.76,0,.86.24.8.9-.79,8.68-1.55,17.35-2.33,26-.12,1.32-.26,2.65-.35,4a.8.8,0,0,1-.7.84q-5.82,1.57-11.63,3.22a1.53,1.53,0,0,1-.85,0C83.91,288.1,80.1,287,76.27,286a.91.91,0,0,1-.79-.95q-1-11.91-2.12-23.82c-.19-2.06-.35-4.13-.56-6.19-.06-.6.07-.81.73-.8C78.42,254.27,83.31,254.25,88.21,254.25Zm-.27,14c-1.24,0-2.47,0-3.71,0-.38,0-.63,0-.58.53.1,1,.17,1.93.23,2.9,0,.47.35.47.69.47l3.54,0v6.06l-2.48-.65c-1.65-.45-1.65-.45-1.85-2.1a8.23,8.23,0,0,1-.11-1c0-.4-.18-.51-.55-.5-.91,0-1.83,0-2.75,0-.54,0-.65.19-.6.68.16,1.56.31,3.12.41,4.68a1,1,0,0,0,.87,1c2.37.63,4.72,1.32,7.07,2v3.2c0,1.12,0,1.11,1,.81,2.59-.72,5.17-1.45,7.76-2.16,1.65-.46,1.62-.44,1.7-2.14s.23-3.47.39-5.2c.21-2.38.45-4.75.67-7.12.14-1.56.26-3.12.4-4.67.21-2.44.44-4.87.67-7.3.06-.63-.09-.9-.8-.89q-5.52,0-11,0c-.62,0-.81.18-.83.81a6.7,6.7,0,0,1-.16,2.71c-2.89,0-5.79,0-8.69,0-.58,0-.79.15-.7.75a17.29,17.29,0,0,1,.24,2.38c0,.69.31.79.92.79,2.81,0,5.61,0,8.42,0,0,.38,0,.76,0,1.13C88,266.42,88.33,267.36,87.94,268.25Z"/><path class="fff5c197-2083-46fa-9d70-6e87ae1f6486" d="M87.94,260.42a6.7,6.7,0,0,0,.16-2.71c0-.63.21-.81.83-.81q5.5,0,11,0c.71,0,.86.26.8.89-.23,2.43-.46,4.86-.67,7.3-.14,1.55-.26,3.11-.4,4.67-.22,2.37-.46,4.74-.67,7.12-.16,1.73-.31,3.47-.39,5.2s-.05,1.68-1.7,2.14c-2.59.71-5.17,1.44-7.76,2.16-1,.3-1,.31-1-.81v-3.2l.19-.08c2.25-.61,4.49-1.28,6.77-1.81.91-.21,1.14-.66,1.2-1.5.19-2.57.45-5.13.68-7.69q.45-5.09.91-10.17c0-.49-.07-.68-.6-.68-3,0-6,0-9,.05Z"/><path class="a95e1096-816d-4a04-bccb-418b48b20eb5" d="M88.31,282.29l-.19.08c-2.35-.66-4.7-1.35-7.07-2a1,1,0,0,1-.87-1c-.1-1.56-.25-3.12-.41-4.68,0-.49.06-.7.6-.68.92,0,1.84,0,2.75,0,.37,0,.55.1.55.5a8.23,8.23,0,0,0,.11,1c.2,1.65.2,1.65,1.85,2.1l2.48.65.19.06Z"/><path class="ad29f4b0-57d1-45ab-93f4-425763c392ca" d="M87.94,260.42l.35.07c0,1.26,0,2.52,0,3.78l-.17.1c-2.81,0-5.61,0-8.42,0-.61,0-.92-.1-.92-.79a17.29,17.29,0,0,0-.24-2.38c-.09-.6.12-.75.7-.75C82.15,260.45,85.05,260.43,87.94,260.42Z"/><path class="fff5c197-2083-46fa-9d70-6e87ae1f6486" d="M88.3,278.32l-.19-.06V272.2s0-.08,0-.12a33.94,33.94,0,0,0,4.16.08c.49,0,.7.12.65.65-.14,1.32-.26,2.64-.36,4,0,.42-.32.44-.6.52Z"/><path class="fff5c197-2083-46fa-9d70-6e87ae1f6486" d="M88.13,264.37l.17-.1c1.54,0,3.08.07,4.62.05.6,0,.78.19.7.77-.1.82-.17,1.65-.22,2.47,0,.54-.25.75-.83.74-1.48,0-3,0-4.44,0l-.19-.08c.39-.89.1-1.83.18-2.75C88.15,265.13,88.13,264.75,88.13,264.37Z"/><path class="ad29f4b0-57d1-45ab-93f4-425763c392ca" d="M87.94,268.25l.19.08a9.11,9.11,0,0,1,0,3.75s0,.08,0,.12l-3.54,0c-.34,0-.66,0-.69-.47-.06-1-.13-1.94-.23-2.9-.05-.49.2-.53.58-.53C85.47,268.28,86.7,268.26,87.94,268.25Z"/><path class="e8b9f67c-6d74-4aa5-ac78-e5acdf975050" d="M88.12,272.08a9.11,9.11,0,0,0,0-3.75c1.48,0,3-.06,4.44,0,.58,0,.79-.2.83-.74,0-.82.12-1.65.22-2.47.08-.58-.1-.77-.7-.77-1.54,0-3.08,0-4.62-.05,0-1.26,0-2.52,0-3.78,3,0,6,0,9-.05.53,0,.65.19.6.68q-.47,5.08-.91,10.17c-.23,2.56-.49,5.12-.68,7.69-.06.84-.29,1.29-1.2,1.5-2.28.53-4.52,1.2-6.77,1.81,0-1.32,0-2.65,0-4l3.67-1c.28-.08.57-.1.6-.52.1-1.33.22-2.65.36-4,0-.53-.16-.64-.65-.65A33.94,33.94,0,0,1,88.12,272.08Z"/><path class="f1d8991b-f8cc-45ac-8324-2ab9c6d25e9d" d="M114.6,297.53H61.79c-3.37-1.22-4.42-3.72-4.41-7.16q.12-28,0-56c0-3.45,1-5.95,4.41-7.17H97.1c4.63.83,8.11,3.48,11.18,6.87,1.92,2.12,4,4.07,6,6.08A15.17,15.17,0,0,1,119,251.38c0,13-.06,26,0,39C119,293.81,118,296.31,114.6,297.53ZM97,231.76c-.61-.06-1-.14-1.42-.14-10.67,0-21.35,0-32,0-1.38,0-1.83.59-1.81,1.89,0,3.65,0,7.29,0,10.93q0,23.28,0,46.54c0,1.29.12,2.22,1.8,2.22q24.6,0,49.2,0c1.24,0,1.82-.44,1.82-1.73q0-20.46,0-40.91c0-1.09-.37-1.42-1.45-1.41-4.79,0-9.58,0-14.37,0H97Zm15,13c-3.52-3.57-7.07-7.15-10.57-10.69v10.69Z"/><g class="afd74160-7f4e-4f5b-9d3a-411701d520f1"><path class="aa13c267-6dfe-470d-b2bd-da929695beca" d="M34.52,118.21c-10.77,11.85-22,32.17-22,61.17C12.5,226,31.9,243.32,43.86,252"/><polygon points="23.96 111.38 48.49 106.95 40.06 130.41 23.96 111.38"/></g><text class="f684d0ff-87d2-4933-ac92-7257a89083df" transform="translate(55.98 159.49)">ind<tspan class="a361f2aa-9451-4219-ab29-a725b5511d2c" x="24.35" y="0">e</tspan><tspan x="33.32" y="0">x.php</tspan></text><path class="ec448fb1-9bbe-44b8-b816-bf31492e1398" d="M86.73,97h14.41c1.09,0,1.13.06,1,1.09l-1.59,17.8c-.36,4-.73,8-1.07,12,0,.5-.24.69-.72.82Q93,130.36,87.26,132a1.59,1.59,0,0,1-.94,0c-3.85-1.08-7.69-2.16-11.55-3.2a.78.78,0,0,1-.68-.84q-.81-9.45-1.65-18.87c-.32-3.64-.66-7.27-1-10.9-.11-1.14-.12-1.14,1-1.14Zm0,18.36,0,5.92c-.94-.11-1.81-.53-2.74-.69s-1.79-.49-1.58-1.77a9.12,9.12,0,0,0-.11-1.15c0-.43-.18-.56-.59-.55-.89,0-1.78,0-2.67,0-.57,0-.71.16-.66.7.16,1.54.3,3.07.41,4.61,0,.6.29.84.88,1,2.37.62,4.72,1.32,7.09,2,0,1,0,2,0,2.94s.25,1.05,1.09.81l2.81-.79c1.79-.49,3.6-.94,5.38-1.48.37-.11,1-.11,1-.68.15-1.2.27-2.4.37-3.61.14-1.61.24-3.23.38-4.85.22-2.52.46-5,.69-7.57.14-1.56.26-3.11.41-4.67s.31-3.34.48-5c.07-.61-.14-.83-.78-.83q-5.47,0-11,0c-.67,0-.91.29-.91.9,0,.89,0,1.78,0,2.67-2.91,0-5.82,0-8.72,0-.3,0-.67-.15-.89.21l1,11.71c.26.3.61.18.92.18Z"/><path class="fce2c14d-c850-4fc0-b993-329a07bb826b" d="M86.73,103.27c0-.89,0-1.78,0-2.67,0-.61.24-.9.91-.9q5.48,0,11,0c.64,0,.85.22.78.83q-.26,2.5-.48,5c-.15,1.56-.27,3.11-.41,4.67-.23,2.53-.47,5.05-.69,7.57-.14,1.62-.24,3.24-.38,4.85-.1,1.21-.22,2.41-.37,3.61-.07.57-.66.57-1,.68-1.78.54-3.59,1-5.38,1.48l-2.81.79c-.84.24-1.08.07-1.09-.81s0-2,0-2.94l0-.08a2.13,2.13,0,0,0,.44,0c2.36-.64,4.72-1.31,7.09-1.94.45-.12.51-.39.54-.77.28-3.19.59-6.36.83-9.55,0-.59.4-1.19,0-1.79-.27-.28-.61-.17-.92-.17h-8v-3.7l0-.07,8.9,0c.43,0,.56-.14.58-.55,0-.86.12-1.72.19-2.57l.06-.26c0-.2.12-.4-.11-.55s-.61-.17-.92-.17Z"/><path class="afef89f2-a4d7-46cb-9f2f-2cc1de57b14c" d="M78.17,115.21l-1-11.71,9.61,0,0,3.82,0,.07c-1.59,0-3.19,0-4.78,0-.45,0-.64.1-.57.59.14,1.05.23,2.11.35,3.16.18.37.51.19.77.19,1.41,0,2.82,0,4.22,0v3.83Z"/><path class="afef89f2-a4d7-46cb-9f2f-2cc1de57b14c" d="M86.73,125.44c-2.37-.66-4.72-1.36-7.09-2-.59-.15-.84-.39-.88-1-.11-1.54-.25-3.07-.41-4.61,0-.54.09-.73.66-.7.89,0,1.78,0,2.67,0,.41,0,.59.12.59.55a9.12,9.12,0,0,1,.11,1.15c-.21,1.28.55,1.6,1.58,1.77s1.8.58,2.74.69a.5.5,0,0,1,0,.12c0,1.31,0,2.61,0,3.92Z"/><path class="fce2c14d-c850-4fc0-b993-329a07bb826b" d="M86.72,121.44a.5.5,0,0,0,0-.12l0-5.92H91.5c-.11,1.47-.24,2.93-.34,4.4,0,.42-.29.51-.62.6Z"/><path class="fbce24d6-a996-4654-8fa8-1ae1e4bc98a3" d="M86.73,103.52l-9.61,0c.22-.36.59-.21.89-.21,2.9,0,5.81,0,8.72,0h8.68c.31,0,.66-.11.92.17Z"/><path class="fbce24d6-a996-4654-8fa8-1ae1e4bc98a3" d="M91.5,115.39H79.09c-.31,0-.66.12-.92-.18l8.55,0c1.28,0,2.55,0,3.82,0C90.86,115.23,91.24,115,91.5,115.39Z"/><path class="aa7d6b98-6bdb-4ff7-a560-a4c302959de0" d="M91.5,115.39c-.26-.35-.64-.16-1-.17-1.27,0-2.54,0-3.82,0v-3.83l8.9-.07c.39.6,0,1.2,0,1.79-.24,3.19-.55,6.36-.83,9.55,0,.38-.09.65-.54.77-2.37.63-4.73,1.3-7.09,1.94a2.13,2.13,0,0,1-.44,0c0-1.31,0-2.61,0-3.92l3.82-1c.33-.09.59-.18.62-.6C91.26,118.32,91.39,116.86,91.5,115.39Z"/><path class="a3b3a374-627b-41eb-97b7-61017455c6e6" d="M86.73,103.52l9.6-.07c.23.15.16.35.11.55l-.06.26c-.07.85-.15,1.71-.19,2.57,0,.41-.15.56-.58.55l-8.9,0C86.72,106.07,86.72,104.79,86.73,103.52Z"/><path class="ec448fb1-9bbe-44b8-b816-bf31492e1398" d="M81.73,111.12c-.12-1.05-.21-2.11-.35-3.16-.07-.49.12-.6.57-.59,1.59,0,3.19,0,4.78,0v3.7Z"/><path class="fbce24d6-a996-4654-8fa8-1ae1e4bc98a3" d="M81.73,111.12h13c.31,0,.65-.11.92.17l-8.9.07c-1.4,0-2.81,0-4.22,0C82.24,111.31,81.91,111.49,81.73,111.12Z"/><path class="afef89f2-a4d7-46cb-9f2f-2cc1de57b14c" d="M96.38,104.26l.06-.26Z"/><path class="ec448fb1-9bbe-44b8-b816-bf31492e1398" d="M113.21,141.79H60.39C57,140.57,56,138.07,56,134.63q.12-28,0-56c0-3.45,1-6,4.41-7.17H95.71c4.62.83,8.1,3.48,11.17,6.87,1.92,2.12,4,4.07,6.05,6.08a15.13,15.13,0,0,1,4.65,11.19c0,13-.06,26,0,39C117.64,138.07,116.58,140.57,113.21,141.79ZM95.64,76c-.61-.06-1-.14-1.42-.14-10.67,0-21.35,0-32,0-1.37,0-1.83.59-1.81,1.89,0,3.65,0,7.29,0,10.93q0,23.26,0,46.54c0,1.29.13,2.22,1.8,2.22q24.6-.06,49.21,0c1.23,0,1.81-.44,1.81-1.73q0-20.46,0-40.91c0-1.09-.37-1.42-1.45-1.41-4.79.05-9.58,0-14.37,0H95.64Zm15,13c-3.52-3.57-7.07-7.15-10.57-10.69V89Z"/><text class="f684d0ff-87d2-4933-ac92-7257a89083df" transform="translate(307.98 160.81)">backen<tspan class="b199d989-a1dc-4797-88ac-3cb67c41eee7" x="54.43" y="0">d</tspan><tspan x="64.4" y="0">.php</tspan></text><path class="f3030a82-80c4-44be-a659-8d47ddc86e6f" d="M336.15,105.21h5.3c.13.18.32.11.49.13a33.08,33.08,0,0,1,8.46,1.74,19.82,19.82,0,0,1,5.27,2.72,9.54,9.54,0,0,1,3.68,5.09V117c-.17.07-.18.25-.22.38a7.23,7.23,0,0,1-1.64,2.92,15.92,15.92,0,0,1-6.77,4.25,36.21,36.21,0,0,1-19.38,1.25,22.88,22.88,0,0,1-9.47-3.89,9.54,9.54,0,0,1-3.18-3.83c-.15-.36-.13-.79-.43-1.08v-2.26s.11-.08.12-.14A9.52,9.52,0,0,1,323,109.1a27,27,0,0,1,10.33-3.5A21.14,21.14,0,0,0,336.15,105.21ZM348,110.83c-.75,0-1.5,0-2.25,0-.47,0-.68.12-.74.6s-.21,1.12-.32,1.68c-.57,2.86-1.12,5.72-1.7,8.57-.09.45,0,.54.43.53a15.32,15.32,0,0,1,1.66,0c.35,0,.51-.1.56-.45.1-.63.25-1.26.35-1.89.06-.42.2-.66.71-.61s1.32,0,2,0a4.93,4.93,0,0,0,4.93-4.07c.53-2.75-.75-4.31-3.55-4.36C349.37,110.82,348.69,110.83,348,110.83Zm-18.86,0v0c-.78,0-1.55,0-2.32,0-.4,0-.57.12-.65.54q-1,5.16-2.05,10.31c-.09.44,0,.55.45.53s1.1,0,1.65,0c.34,0,.51-.08.56-.46.09-.67.26-1.34.38-2,0-.34.18-.49.55-.48.67,0,1.33,0,2,0a4.94,4.94,0,0,0,5.09-4.27c.42-2.43-.69-3.92-3.14-4.12C330.82,110.8,330,110.86,329.14,110.86Zm12.45,8.4a7.19,7.19,0,0,1,.94,0c.43.06.57-.16.63-.54.27-1.65.48-3.32.85-5s-.59-2.64-2.17-2.88a17.08,17.08,0,0,0-2.58-.07c-.39,0-.58-.09-.46-.53s.14-.77.22-1.16c.26-1.27.26-1.27-1-1.27-.31,0-.62,0-.93,0s-.52.1-.59.49c-.3,1.61-.63,3.2-.95,4.8-.37,1.84-.72,3.68-1.11,5.51-.1.48,0,.63.51.6a11.16,11.16,0,0,1,1.53,0c.4,0,.56-.11.64-.53.32-1.76.7-3.51,1-5.26.08-.43.25-.6.69-.57s1,0,1.46,0c.9,0,1.1.26.93,1.14l-.72,3.83c-.08.43-.35,1-.16,1.26S341.21,119.21,341.59,119.26Z"/><path class="a3c2a466-c668-41b8-91a0-b705e208cba1" d="M348,110.83c.69,0,1.37,0,2.06,0,2.8,0,4.08,1.61,3.55,4.36a4.93,4.93,0,0,1-4.93,4.07c-.66,0-1.33,0-2,0s-.65.19-.71.61c-.1.63-.25,1.26-.35,1.89-.05.35-.21.47-.56.45a15.32,15.32,0,0,0-1.66,0c-.41,0-.52-.08-.43-.53.58-2.85,1.13-5.71,1.7-8.57.11-.56.25-1.12.32-1.68s.27-.62.74-.6C346.5,110.85,347.25,110.83,348,110.83Zm.62,2.09c-.29,0-.58,0-.86,0s-.39,0-.43.3c-.19,1.19-.39,2.38-.58,3.57,0,.21,0,.35.25.35a5.87,5.87,0,0,0,2.53-.28,2.91,2.91,0,0,0,1.34-2.93c-.14-.7-.77-1-2.06-1Z"/><path class="a3c2a466-c668-41b8-91a0-b705e208cba1" d="M329.14,110.86c.84,0,1.68-.06,2.51,0,2.45.2,3.56,1.69,3.14,4.12a4.94,4.94,0,0,1-5.09,4.27c-.66,0-1.32,0-2,0-.37,0-.5.14-.55.48-.12.67-.29,1.34-.38,2,0,.38-.22.47-.56.46-.55,0-1.1,0-1.65,0s-.54-.09-.45-.53q1-5.15,2.05-10.31c.08-.42.25-.55.65-.54.77,0,1.54,0,2.32,0Zm.61,2.06a3.68,3.68,0,0,1-.47,0c-.54-.08-.85.08-.89.7s-.23,1.18-.27,1.77-.54,1.36-.08,1.67,1.25.12,1.87,0a2.6,2.6,0,0,0,2.13-3C332,113.25,331.35,112.92,329.75,112.92Z"/><path class="a3c2a466-c668-41b8-91a0-b705e208cba1" d="M341.59,119.26c-.38-.05-1,.21-1.24-.11s.08-.83.16-1.26l.72-3.83c.17-.88,0-1.12-.93-1.14-.49,0-1,0-1.46,0s-.61.14-.69.57c-.33,1.75-.71,3.5-1,5.26-.08.42-.24.55-.64.53a11.16,11.16,0,0,0-1.53,0c-.48,0-.61-.12-.51-.6.39-1.83.74-3.67,1.11-5.51.32-1.6.65-3.19.95-4.8.07-.39.21-.53.59-.49s.62,0,.93,0c1.26,0,1.26,0,1,1.27-.08.39-.13.78-.22,1.16s.07.53.46.53a17.08,17.08,0,0,1,2.58.07c1.58.24,2.55,1.2,2.17,2.88s-.58,3.3-.85,5c-.06.38-.2.6-.63.54A7.19,7.19,0,0,0,341.59,119.26Z"/><path class="f3030a82-80c4-44be-a659-8d47ddc86e6f" d="M348.62,112.92h.19c1.29,0,1.92.31,2.06,1a2.91,2.91,0,0,1-1.34,2.93,5.87,5.87,0,0,1-2.53.28c-.25,0-.29-.14-.25-.35.19-1.19.39-2.38.58-3.57,0-.25.2-.31.43-.3S348.33,112.92,348.62,112.92Z"/><path class="f3030a82-80c4-44be-a659-8d47ddc86e6f" d="M329.75,112.92c1.6,0,2.22.33,2.29,1.2a2.6,2.6,0,0,1-2.13,3c-.62.09-1.43.26-1.87,0s0-1.1.08-1.67.24-1.18.27-1.77.35-.78.89-.7A3.68,3.68,0,0,0,329.75,112.92Z"/><path class="f3030a82-80c4-44be-a659-8d47ddc86e6f" d="M365.21,145.12H312.39C309,143.9,308,141.4,308,138q.12-28,0-56c0-3.44,1-5.94,4.41-7.16h35.32c4.62.83,8.1,3.48,11.17,6.87,1.92,2.12,4,4.07,6.05,6.08A15.12,15.12,0,0,1,369.58,99c0,13-.06,26,0,39C369.64,141.4,368.58,143.9,365.21,145.12ZM347.64,79.35c-.61-.06-1-.14-1.42-.14q-16,0-32,0c-1.37,0-1.83.59-1.81,1.89,0,3.64,0,7.29,0,10.93q0,23.26,0,46.54c0,1.29.13,2.22,1.8,2.21q24.6,0,49.21,0c1.23,0,1.81-.45,1.81-1.73q0-20.46,0-40.92c0-1.09-.37-1.41-1.45-1.4-4.79.05-9.58,0-14.37,0h-1.75Zm15,13L352.07,81.66V92.34Z"/><g class="afd74160-7f4e-4f5b-9d3a-411701d520f1"><line class="aa13c267-6dfe-470d-b2bd-da929695beca" x1="153.96" y1="97.87" x2="124.93" y2="97.87"/><polygon points="148.51 85.4 170.1 97.87 148.51 110.33 148.51 85.4"/></g><g class="afd74160-7f4e-4f5b-9d3a-411701d520f1"><line class="aa13c267-6dfe-470d-b2bd-da929695beca" x1="281.1" y1="102.87" x2="244.92" y2="102.87"/><polygon points="275.37 90.4 296.96 102.87 275.37 115.33 275.37 90.4"/></g><g class="afd74160-7f4e-4f5b-9d3a-411701d520f1"><line class="aa13c267-6dfe-470d-b2bd-da929695beca" x1="342.46" y1="204.51" x2="342.46" y2="168.33"/><polygon points="354.93 198.78 342.46 220.37 330 198.78 354.93 198.78"/></g><g class="afd74160-7f4e-4f5b-9d3a-411701d520f1"><line class="aa13c267-6dfe-470d-b2bd-da929695beca" x1="136.92" y1="119.58" x2="168" y2="119.58"/><polygon points="142.45 132.05 120.87 119.58 142.45 107.12 142.45 132.05"/></g><g class="afd74160-7f4e-4f5b-9d3a-411701d520f1"><line class="aa13c267-6dfe-470d-b2bd-da929695beca" x1="256.92" y1="124.58" x2="288" y2="124.58"/><polygon points="262.45 137.05 240.87 124.58 262.45 112.12 262.45 137.05"/></g><text class="f684d0ff-87d2-4933-ac92-7257a89083df" transform="translate(175.01 162.77)"><tspan class="b46cfb4c-bc0e-4ce9-8850-14f138ae797a">v</tspan><tspan x="8.59" y="0">alid</tspan><tspan class="b46cfb4c-bc0e-4ce9-8850-14f138ae797a" x="35.87" y="0">a</tspan><tspan class="b42f275f-1a83-4f90-812c-9bb4a7b20b1d" x="44.48" y="0">t</tspan><tspan x="50.33" y="0">e</tspan><tspan class="a7ea2f78-8a0b-4f30-9c23-eeee7aa98cff" x="59.35" y="0">F</tspan><tspan x="67.55" y="0">o</tspan><tspan class="e564a9d8-da6a-41f7-a6a0-89ff037ec0fe" x="77.44" y="0">r</tspan><tspan x="83.39" y="0">m.js</tspan></text><path class="a23a6adb-f4ed-495f-a54e-37cefb0b1123" d="M231.6,140.53H178.79c-3.37-1.22-4.42-3.72-4.41-7.16q.12-28,0-56c0-3.45,1-6,4.41-7.17H214.1c4.63.83,8.11,3.48,11.18,6.87,1.92,2.12,4,4.07,6.05,6.08A15.17,15.17,0,0,1,236,94.38c0,13-.06,26,0,39C236,136.81,235,139.31,231.6,140.53ZM214,74.76c-.61-.06-1-.14-1.42-.14-10.67,0-21.35,0-32,0-1.38,0-1.83.59-1.81,1.89,0,3.65,0,7.29,0,10.93q0,23.28,0,46.54c0,1.29.12,2.22,1.8,2.22q24.6,0,49.2,0c1.24,0,1.82-.44,1.82-1.73q0-20.46,0-40.91c0-1.09-.37-1.42-1.45-1.41-4.79,0-9.58,0-14.37,0H214Zm15,13c-3.52-3.57-7.07-7.15-10.57-10.69V87.76Z"/><path class="a23a6adb-f4ed-495f-a54e-37cefb0b1123" d="M190.31,98.18v-.93h30.05a1,1,0,0,1,.64.1v.72c-.1,0-.1.12-.1.21-.17,1.84-.34,3.69-.5,5.53-.33,3.65-.64,7.31-1,11q-.6,6.64-1.19,13.27a.61.61,0,0,1-.53.65c-3.9,1.06-7.79,2.15-11.68,3.23a1.4,1.4,0,0,1-.81,0L202,131l-8.46-2.35c-.23-.07-.43-.08-.46-.43-.19-2.25-.4-4.51-.6-6.76l-.87-9.78c-.33-3.74-.65-7.48-1-11.22A8.61,8.61,0,0,0,190.31,98.18Zm15.35,17.09v6l-.1.07c-1.25-.35-2.5-.71-3.76-1a.56.56,0,0,1-.5-.62c0-.73-.14-1.47-.18-2.2,0-.3-.13-.37-.41-.37-1,0-2.09,0-3.13,0-.36,0-.39.14-.36.43.17,1.77.33,3.54.48,5.32a.36.36,0,0,0,.31.38l7.52,2.07.12,0c0,1.17,0,2.33,0,3.5,0,.3,0,.44.41.33q4.63-1.31,9.3-2.57c.32-.09.49-.27.48-.56,0-.54.1-1.06.12-1.59,0-.9.14-1.8.22-2.7.12-1.36.27-2.72.39-4.07s.21-2.62.32-3.93.28-2.68.4-4,.2-2.8.32-4.19c.16-1.71.33-3.43.51-5.14,0-.45-.08-.63-.58-.62-3.5,0-7,0-10.5,0-1.4,0-1.4,0-1.38,1.4l-.57,0c-2,0-4,0-6,0-.47,0-.72.06-.7.62a15.19,15.19,0,0,1-.17,1.64c-.34,3.75-.67,7.51-1,11.27,0,.4.07.49.46.48h6.48a6.47,6.47,0,0,0,1.39,0Z"/><path class="ab1ceeca-cd5f-4854-a8bd-65a9239b0499" d="M205.66,101.23c0-1.4,0-1.4,1.38-1.4,3.5,0,7,0,10.5,0,.5,0,.62.17.58.62-.18,1.71-.35,3.43-.51,5.14-.12,1.39-.2,2.79-.32,4.19s-.27,2.68-.4,4-.2,2.62-.32,3.93-.27,2.71-.39,4.07c-.08.9-.18,1.8-.22,2.7,0,.53-.15,1.05-.12,1.59,0,.29-.16.47-.48.56q-4.67,1.26-9.3,2.57c-.37.11-.41,0-.41-.33,0-1.17,0-2.33,0-3.5l.29-.11,6-1.66c.48-.14,1.07-.15,1.4-.45s.19-1,.24-1.47c.3-3.25.58-6.51.9-9.77,0-.44-.06-.57-.53-.56-2.77,0-5.55,0-8.33,0v-6.08c1.4.08,2.8.17,4.2.22.36,0,.47.13.5.47.07,1,.18,2,.26,3.07,0,.31.08.49.46.48,1,0,2.06,0,3.09,0,.31,0,.38-.11.35-.39-.08-.75-.14-1.5-.21-2.25-.15-1.73-.29-3.45-.44-5.17,0-.25,0-.45-.39-.45l-7.82,0Z"/><path class="b79ffd3f-f66d-4a0b-82eb-236684bff0b9" d="M205.56,115.2a6.47,6.47,0,0,1-1.39,0h-6.48c-.39,0-.5-.08-.46-.48.35-3.76.68-7.52,1-11.27a15.19,15.19,0,0,0,.17-1.64c0-.56.23-.62.7-.62,2,0,4,0,6,0l.57,0v4.08c-1.08,0-2.16.06-3.24.06-.35,0-.46.1-.48.46-.14,1.71-.3,3.41-.48,5.12,0,.35,0,.43.39.42,1.23,0,2.47,0,3.7,0Z"/><path class="eb9720b3-13d6-41f9-88ee-1d117f3434ad" d="M205.56,115.2c0-1.27,0-2.54,0-3.81l.1,0c2.78,0,5.56,0,8.33,0,.47,0,.57.12.53.56-.32,3.26-.6,6.52-.9,9.77-.05.51.11,1.14-.24,1.47s-.92.31-1.4.45l-6,1.66-.29.11-.12,0,0-4,.1-.07,4-1c.18-.05.26-.12.27-.31.13-1.45.26-2.9.4-4.34,0-.25,0-.38-.32-.37l-4.31,0Z"/><path class="b79ffd3f-f66d-4a0b-82eb-236684bff0b9" d="M205.56,121.36l0,4L198,123.26a.36.36,0,0,1-.31-.38c-.15-1.78-.31-3.55-.48-5.32,0-.29,0-.44.36-.43,1,0,2.09,0,3.13,0,.28,0,.39.07.41.37,0,.73.16,1.47.18,2.2a.56.56,0,0,0,.5.62C203.06,120.65,204.31,121,205.56,121.36Z"/><path class="ab1ceeca-cd5f-4854-a8bd-65a9239b0499" d="M205.66,115.27l4.31,0c.29,0,.34.12.32.37-.14,1.44-.27,2.89-.4,4.34,0,.19-.09.26-.27.31l-4,1Z"/><path class="eb9720b3-13d6-41f9-88ee-1d117f3434ad" d="M205.65,105.27v-4l7.82,0c.36,0,.37.2.39.45.15,1.72.29,3.44.44,5.17.07.75.13,1.5.21,2.25,0,.28,0,.39-.35.39-1,0-2.06,0-3.09,0-.38,0-.44-.17-.46-.48-.08-1-.19-2-.26-3.07,0-.34-.14-.46-.5-.47C208.45,105.44,207.05,105.35,205.65,105.27Z"/><path class="a23a6adb-f4ed-495f-a54e-37cefb0b1123" d="M205.65,111.35l-.1,0c-1.23,0-2.47,0-3.7,0-.34,0-.42-.07-.39-.42.18-1.71.34-3.41.48-5.12,0-.36.13-.46.48-.46,1.08,0,2.16,0,3.24-.06C205.66,107.32,205.65,109.34,205.65,111.35Z"/></svg>