<svg id="b1e10be4-9b39-4180-89f3-5320876bc245" data-name="Capa 1" xmlns="http://www.w3.org/2000/svg" viewBox="0 0 520 350"><defs><style>.b214b8e9-28be-4445-80d5-0067d601058a,.b49c2d3c-14a3-40e0-bc2f-e71ee34fc13f,.e0aa5fc6-0b39-42cb-8e4a-009bcd1fef5e{font-size:18px;font-family:SourceSansPro-Bold, Source Sans Pro;font-weight:700;}.b214b8e9-28be-4445-80d5-0067d601058a,.eff4ef81-104c-4397-a1b3-144e37ca33fe,.f1b50082-bc72-4356-9d27-ce79409ec9e6{fill:#1572b6;}.be7e4dfc-8b9e-4df5-b594-c6d65a881980{letter-spacing:-0.02em;}.fde77d51-5d12-484c-98da-b1ab5d6e5697{letter-spacing:0em;}.b56c5cfe-263a-4605-97a3-bbc1ac435163{letter-spacing:-0.01em;}.ff461e38-82e1-4477-a83f-b5e74c37b0a3{fill:#34a8db;}.e5278336-5a06-451d-9983-53f9758b41c6{fill:#e7e8e9;}.f5193231-45b3-4951-af67-6b7276c482e6{fill:#e4e7e9;}.a0351c43-e2be-49ba-9c6f-558ce36677f7{fill:#fdfdfe;}.bee82165-62d1-4b60-9b3e-81a6df3c0686,.f2c8128d-d1d6-4e61-866e-67d3c67ea1f3{fill:none;stroke-linecap:round;stroke-miterlimit:10;stroke-width:5px;}.f2c8128d-d1d6-4e61-866e-67d3c67ea1f3{stroke:#1572b6;}.b49c2d3c-14a3-40e0-bc2f-e71ee34fc13f,.eae352a3-1582-444c-846d-8a9d5afba96f,.fcadb611-cd9d-4574-884c-93bb07a8ac77{fill:#e34f27;}.b7b16bf6-ce89-457a-b4e7-d4e32255afab{letter-spacing:-0.02em;}.ec3539cb-5baa-47ec-bbe5-66deb68237d9{fill:#f0662a;}.b3cf73f2-fe03-4c9f-b4a4-596a06e03dc2{fill:#ebe8e7;}.b996a42a-cc8b-4ae3-a3a2-4d465228f407{fill:#ef590c;}.a44ff7a6-612e-45e5-a3ea-8517199dbd34{fill:#fefdfc;}.a34eb615-f2a1-4acf-85c4-adb9264c2f3d{fill:#fefdfd;}.bd627c56-51f2-476e-8ddd-a99f82b7f2b3,.e0aa5fc6-0b39-42cb-8e4a-009bcd1fef5e{fill:#8692c1;}.bb601cef-8879-4705-bab2-921e3b4cde41{letter-spacing:-0.01em;}.a32c68fd-cb01-44b5-a6fa-ccfe65de7d35{letter-spacing:-0.03em;}.bd9a4cce-ea9f-451d-81bd-5ffc34cdf6f2{fill:#232633;}.bee82165-62d1-4b60-9b3e-81a6df3c0686{stroke:#e34f27;}.e648b7e6-311c-4b7f-9cb1-18e9ed07ac65,.eae352a3-1582-444c-846d-8a9d5afba96f,.eff4ef81-104c-4397-a1b3-144e37ca33fe{font-size:12px;font-family:SourceSansPro-Regular, Source Sans Pro;}.e648b7e6-311c-4b7f-9cb1-18e9ed07ac65{fill:#5f6ea0;}.a3cd51b7-3049-4d14-9d65-5e21848d1165{letter-spacing:-0.01em;}.baf6c722-fe89-4bb6-931b-cfdac57e966a{letter-spacing:-0.01em;}.e56ddee8-b6db-4e26-b0b2-8dbdbe7f35f7{letter-spacing:0em;}.a37859b0-de65-4800-8e98-a18df95f30da{letter-spacing:-0.02em;}.f0be9786-239d-4a18-8ba4-b9f70b476a76{letter-spacing:-0.02em;}.e41cda02-c93d-4eba-b87e-708b659f655a{letter-spacing:-0.01em;}.f4314a28-16cf-4741-ac22-c65b4cf327f5{letter-spacing:-0.02em;}.eb60845b-8597-4ac8-9e1e-2acd5d6623c6{letter-spacing:-0.02em;}</style></defs><title>_</title><path d="M327.86,172.57H312a2,2,0,0,1-1.33-2.16q0-8.43,0-16.86a2,2,0,0,1,1.33-2.16h10.64a6,6,0,0,1,3.37,2.07c.58.64,1.21,1.23,1.82,1.83a4.57,4.57,0,0,1,1.4,3.37c0,3.92,0,7.83,0,11.75A2,2,0,0,1,327.86,172.57Zm-5.29-19.82a4,4,0,0,0-.43,0h-9.65c-.41,0-.55.18-.54.57,0,1.1,0,2.2,0,3.3v14c0,.39,0,.67.54.67h14.83c.37,0,.55-.13.54-.52q0-6.16,0-12.33c0-.32-.12-.42-.44-.42-1.45,0-2.89,0-4.33,0h-.53Zm4.52,3.92-3.18-3.22v3.22Z"/><text class="b214b8e9-28be-4445-80d5-0067d601058a" transform="translate(48.12 311.62)"><tspan class="be7e4dfc-8b9e-4df5-b594-c6d65a881980">s</tspan><tspan class="fde77d51-5d12-484c-98da-b1ab5d6e5697" x="7.61" y="0">tyle</tspan><tspan class="b56c5cfe-263a-4605-97a3-bbc1ac435163" x="38.36" y="0">.</tspan><tspan x="43.58" y="0">css</tspan></text><path class="f1b50082-bc72-4356-9d27-ce79409ec9e6" d="M78.94,246.11c4.86,0,9.73,0,14.59,0,.75,0,.86.24.8.9Q93.15,260,92,273c-.12,1.33-.26,2.65-.36,4a.78.78,0,0,1-.7.84q-5.82,1.57-11.62,3.22a1.48,1.48,0,0,1-.86,0c-3.81-1.06-7.63-2.13-11.45-3.16a.9.9,0,0,1-.79-1Q65.17,265,64.09,253.09c-.18-2.07-.34-4.13-.55-6.2-.06-.6.07-.8.72-.8C69.16,246.12,74.05,246.11,78.94,246.11Zm-.26,14-3.72,0c-.37,0-.62,0-.57.52.1,1,.16,1.94.23,2.91,0,.47.35.46.69.46l3.54,0v6.07l-2.48-.65c-1.66-.45-1.66-.46-1.85-2.11a7.79,7.79,0,0,1-.12-1c0-.39-.18-.5-.54-.49-.92,0-1.84,0-2.75,0-.54,0-.65.18-.6.67.15,1.56.31,3.12.41,4.68a1,1,0,0,0,.87,1c2.36.64,4.71,1.32,7.07,2v3.2c0,1.11,0,1.1,1,.81,2.58-.73,5.17-1.46,7.76-2.17,1.65-.45,1.61-.44,1.69-2.13s.24-3.47.39-5.21c.21-2.37.46-4.74.67-7.12.15-1.55.26-3.11.4-4.67.22-2.43.44-4.87.68-7.3.06-.62-.1-.89-.81-.89-3.67,0-7.35,0-11,0-.62,0-.81.18-.82.8a6.69,6.69,0,0,1-.16,2.71c-2.9,0-5.79,0-8.69,0-.58,0-.79.14-.7.74a16,16,0,0,1,.23,2.38c0,.7.32.8.93.79,2.8,0,5.61,0,8.42,0,0,.37,0,.75,0,1.13A8.22,8.22,0,0,1,78.68,260.11Z"/><path class="ff461e38-82e1-4477-a83f-b5e74c37b0a3" d="M78.68,252.27a6.69,6.69,0,0,0,.16-2.71c0-.62.2-.81.82-.8,3.67,0,7.35,0,11,0,.71,0,.87.27.81.89-.24,2.43-.46,4.87-.68,7.3-.14,1.56-.25,3.12-.4,4.67-.21,2.38-.46,4.75-.67,7.12-.15,1.74-.3,3.47-.39,5.21s0,1.68-1.69,2.13c-2.59.71-5.18,1.44-7.76,2.17-1,.29-1,.3-1-.81v-3.2l.18-.08c2.26-.62,4.5-1.29,6.77-1.82A1.36,1.36,0,0,0,87,270.84c.19-2.57.44-5.13.67-7.7.3-3.39.6-6.78.92-10.17,0-.49-.07-.68-.6-.67-3,0-6,0-9,0Z"/><path class="e5278336-5a06-451d-9983-53f9758b41c6" d="M79,274.15l-.18.08c-2.36-.67-4.71-1.35-7.07-2a1,1,0,0,1-.87-1c-.1-1.56-.26-3.12-.41-4.68-.05-.49.06-.69.6-.67.91,0,1.83,0,2.75,0,.36,0,.54.1.54.49a7.79,7.79,0,0,0,.12,1c.19,1.65.19,1.66,1.85,2.11l2.48.65.18.05Z"/><path class="f5193231-45b3-4951-af67-6b7276c482e6" d="M78.68,252.27l.35.07c0,1.26,0,2.52,0,3.79l-.17.1c-2.81,0-5.62,0-8.42,0-.61,0-.92-.09-.93-.79a16,16,0,0,0-.23-2.38c-.09-.6.12-.74.7-.74C72.89,252.31,75.78,252.28,78.68,252.27Z"/><path class="ff461e38-82e1-4477-a83f-b5e74c37b0a3" d="M79,270.17l-.18-.05v-6.19A30.56,30.56,0,0,0,83,264c.48,0,.7.12.64.65-.14,1.32-.26,2.65-.36,4,0,.41-.32.44-.6.52Z"/><path class="ff461e38-82e1-4477-a83f-b5e74c37b0a3" d="M78.87,256.23l.17-.1c1.54,0,3.08.07,4.62.05.6,0,.77.18.7.76-.11.82-.17,1.65-.23,2.48,0,.54-.24.75-.82.74-1.49,0-3,0-4.45,0l-.18-.07a8.22,8.22,0,0,0,.17-2.75C78.89,257,78.86,256.6,78.87,256.23Z"/><path class="f5193231-45b3-4951-af67-6b7276c482e6" d="M78.68,260.11l.18.07a8.94,8.94,0,0,1,0,3.75v.12l-3.54,0c-.34,0-.66,0-.69-.46-.07-1-.13-1.94-.23-2.91,0-.49.2-.52.57-.52Z"/><path class="a0351c43-e2be-49ba-9c6f-558ce36677f7" d="M78.85,263.93a8.94,8.94,0,0,0,0-3.75c1.48,0,3-.06,4.45,0,.58,0,.79-.2.82-.74.06-.83.12-1.66.23-2.48.07-.58-.1-.77-.7-.76-1.54,0-3.08,0-4.62-.05,0-1.27,0-2.53,0-3.79,3,0,6,0,9,0,.53,0,.65.18.6.67-.32,3.39-.62,6.78-.92,10.17-.23,2.57-.48,5.13-.67,7.7a1.36,1.36,0,0,1-1.21,1.49c-2.27.53-4.51,1.2-6.77,1.82,0-1.33,0-2.65,0-4l3.67-1c.28-.08.57-.11.6-.52.1-1.33.22-2.66.36-4,.06-.53-.16-.64-.64-.65A30.56,30.56,0,0,1,78.85,263.93Z"/><path class="f1b50082-bc72-4356-9d27-ce79409ec9e6" d="M105.34,289.39H52.53c-3.37-1.22-4.43-3.72-4.41-7.17q.1-28,0-56c0-3.45,1-5.94,4.41-7.16H87.84c4.63.82,8.1,3.48,11.17,6.87,1.92,2.12,4,4.07,6,6.08a15.12,15.12,0,0,1,4.65,11.18c0,13,0,26,0,39C109.78,285.67,108.71,288.16,105.34,289.39ZM87.78,223.62a13.57,13.57,0,0,0-1.43-.14c-10.67,0-21.34,0-32,0-1.37,0-1.82.6-1.81,1.9,0,3.64,0,7.28,0,10.93q0,23.26,0,46.53c0,1.3.13,2.22,1.8,2.22q24.62,0,49.21,0c1.24,0,1.81-.44,1.81-1.72q0-20.46,0-40.92c0-1.09-.38-1.41-1.46-1.4-4.79.05-9.58,0-14.37,0H87.78Zm15,13L92.2,225.92v10.69Z"/><path class="f2c8128d-d1d6-4e61-866e-67d3c67ea1f3" d="M29.47,71.59C18.3,86.75,6.06,114,6.06,153.48c0,60.91,19,84.08,31,95.37"/><polygon class="f1b50082-bc72-4356-9d27-ce79409ec9e6" points="18.18 65.98 42.05 58.8 36.34 83.07 18.18 65.98"/><text class="b49c2d3c-14a3-40e0-bc2f-e71ee34fc13f" transform="translate(48.11 119.34)">ind<tspan class="b7b16bf6-ce89-457a-b4e7-d4e32255afab" x="25.58" y="0">ex</tspan><tspan x="43.58" y="0">.php</tspan></text><path class="fcadb611-cd9d-4574-884c-93bb07a8ac77" d="M78.86,47.64H93.28c1.08,0,1.12,0,1,1.08L92.72,66.53q-.54,6-1.07,12c0,.5-.24.69-.72.82Q85.16,81,79.39,82.59a1.67,1.67,0,0,1-.94,0c-3.84-1.08-7.69-2.16-11.54-3.2a.8.8,0,0,1-.69-.85q-.81-9.44-1.65-18.87c-.32-3.63-.66-7.26-1-10.89-.11-1.14-.12-1.14,1.06-1.14Zm0,18.36,0,5.91c-1-.1-1.82-.52-2.75-.68s-1.79-.5-1.58-1.78a7.57,7.57,0,0,0-.11-1.14c0-.44-.18-.56-.59-.55-.89,0-1.78,0-2.67,0-.57,0-.71.17-.65.71.16,1.53.3,3.07.4,4.61,0,.6.29.83.88,1,2.37.62,4.73,1.31,7.09,2,0,1,0,2,0,2.94s.25,1,1.09.81L82.75,79c1.8-.49,3.6-1,5.38-1.48.37-.12,1-.12,1-.68.15-1.2.27-2.41.37-3.61.14-1.62.24-3.24.38-4.85.22-2.53.47-5,.69-7.57.14-1.56.26-3.12.41-4.68s.32-3.34.49-5c.06-.6-.15-.83-.79-.82q-5.47,0-10.95,0c-.67,0-.91.29-.91.9,0,.89,0,1.78,0,2.67H70.14c-.3,0-.66-.14-.89.21q.52,5.86,1.06,11.72c.26.3.61.17.91.17C73.77,66,76.31,66,78.86,66Z"/><path class="ec3539cb-5baa-47ec-bbe5-66deb68237d9" d="M78.86,53.87c0-.89,0-1.78,0-2.67,0-.61.24-.91.91-.9q5.47,0,10.95,0c.64,0,.85.22.79.82-.17,1.67-.34,3.34-.49,5s-.27,3.12-.41,4.68c-.22,2.52-.47,5-.69,7.57-.14,1.61-.24,3.23-.38,4.85-.1,1.2-.22,2.41-.37,3.61-.07.56-.66.56-1,.68-1.78.53-3.58,1-5.38,1.48l-2.81.79c-.84.23-1.08.06-1.09-.81s0-2,0-2.94V76a1.54,1.54,0,0,0,.43,0c2.37-.65,4.72-1.32,7.09-2,.45-.12.51-.39.55-.77.27-3.18.58-6.36.82-9.54.05-.59.4-1.2,0-1.8-.26-.28-.61-.16-.92-.16h-8V58l0-.06c3,0,5.94,0,8.9,0,.43,0,.57-.15.58-.56,0-.86.13-1.71.19-2.57l.06-.26c.05-.2.12-.4-.1-.54s-.62-.17-.93-.17Z"/><path class="b3cf73f2-fe03-4c9f-b4a4-596a06e03dc2" d="M70.31,65.81q-.54-5.87-1.06-11.72l9.61,0,0,3.83,0,.06c-1.59,0-3.18,0-4.78,0-.45,0-.63.11-.57.6.14,1,.24,2.1.35,3.16.18.37.52.18.78.19,1.4,0,2.81,0,4.22,0v3.83Z"/><path class="b3cf73f2-fe03-4c9f-b4a4-596a06e03dc2" d="M78.86,76c-2.36-.67-4.72-1.36-7.09-2-.59-.16-.84-.39-.88-1-.1-1.54-.24-3.08-.4-4.61-.06-.54.08-.74.65-.71.89,0,1.78,0,2.67,0,.41,0,.59.11.59.55a7.57,7.57,0,0,1,.11,1.14c-.21,1.28.55,1.6,1.58,1.78s1.8.58,2.75.68a.59.59,0,0,0,0,.13c0,1.3,0,2.61,0,3.91Z"/><path class="ec3539cb-5baa-47ec-bbe5-66deb68237d9" d="M78.86,72a.59.59,0,0,1,0-.13c0-2,0-3.94,0-5.91h4.78c-.12,1.46-.25,2.93-.34,4.39,0,.43-.29.51-.62.6Z"/><path class="b996a42a-cc8b-4ae3-a3a2-4d465228f407" d="M78.86,54.11l-9.61,0c.23-.35.59-.21.89-.21h17.4c.31,0,.66-.12.93.17Z"/><path class="b996a42a-cc8b-4ae3-a3a2-4d465228f407" d="M83.64,66H78.86c-2.55,0-5.09,0-7.64,0-.3,0-.65.13-.91-.17l8.55,0c1.27,0,2.54,0,3.81,0C83,65.83,83.37,65.64,83.64,66Z"/><path class="a44ff7a6-612e-45e5-a3ea-8517199dbd34" d="M83.64,66c-.27-.35-.65-.16-1-.17-1.27,0-2.54,0-3.81,0V62l8.89-.07c.39.6,0,1.21,0,1.8-.24,3.18-.55,6.36-.82,9.54,0,.38-.1.65-.55.77-2.37.63-4.72,1.3-7.09,2a1.54,1.54,0,0,1-.43,0c0-1.3,0-2.61,0-3.91L82.68,71c.33-.09.59-.17.62-.6C83.39,68.92,83.52,67.45,83.64,66Z"/><path class="a34eb615-f2a1-4acf-85c4-adb9264c2f3d" d="M78.86,54.11l9.61-.06c.22.14.15.34.1.54l-.06.26c-.06.86-.15,1.71-.19,2.57,0,.41-.15.56-.58.56-3,0-5.93,0-8.9,0C78.85,56.66,78.85,55.39,78.86,54.11Z"/><path class="fcadb611-cd9d-4574-884c-93bb07a8ac77" d="M73.86,61.72c-.11-1.06-.21-2.11-.35-3.16-.06-.49.12-.61.57-.6,1.6,0,3.19,0,4.78,0v3.71Z"/><path class="b996a42a-cc8b-4ae3-a3a2-4d465228f407" d="M73.86,61.72h13c.31,0,.66-.12.92.16L78.86,62c-1.41,0-2.82,0-4.22,0C74.38,61.9,74,62.09,73.86,61.72Z"/><path class="b3cf73f2-fe03-4c9f-b4a4-596a06e03dc2" d="M88.51,54.85l.06-.26Z"/><path class="fcadb611-cd9d-4574-884c-93bb07a8ac77" d="M105.34,92.39H52.53c-3.37-1.22-4.43-3.72-4.41-7.17q.1-28,0-56c0-3.45,1-5.94,4.41-7.16H87.84c4.63.82,8.1,3.48,11.17,6.87,1.92,2.12,4,4.07,6,6.08a15.12,15.12,0,0,1,4.65,11.18c0,13,0,26,0,39C109.78,88.67,108.71,91.16,105.34,92.39ZM87.78,26.62a13.57,13.57,0,0,0-1.43-.14c-10.67,0-21.34,0-32,0-1.37,0-1.82.6-1.81,1.9,0,3.64,0,7.28,0,10.93q0,23.27,0,46.53c0,1.3.13,2.22,1.8,2.22q24.62,0,49.21,0c1.24,0,1.81-.44,1.81-1.72q0-20.46,0-40.92c0-1.09-.38-1.41-1.46-1.4-4.79.05-9.58,0-14.37,0H87.78Zm15,13L92.2,28.92V39.61Z"/><text class="e0aa5fc6-0b39-42cb-8e4a-009bcd1fef5e" transform="translate(195.33 120.67)"><tspan class="bb601cef-8879-4705-bab2-921e3b4cde41">b</tspan><tspan x="10.12" y="0">ac</tspan><tspan class="a32c68fd-cb01-44b5-a6fa-ccfe65de7d35" x="28.01" y="0">k</tspan><tspan x="37.37" y="0">end.php</tspan></text><path class="bd627c56-51f2-476e-8ddd-a99f82b7f2b3" d="M223.5,52.48h5.3c.13.18.32.11.49.13a32.66,32.66,0,0,1,8.46,1.74A19.79,19.79,0,0,1,243,57.06a9.54,9.54,0,0,1,3.67,5.09v2.12c-.16.08-.17.25-.21.39a7.2,7.2,0,0,1-1.65,2.92,15.82,15.82,0,0,1-6.76,4.25,36.34,36.34,0,0,1-19.39,1.25,23.06,23.06,0,0,1-9.47-3.89A9.52,9.52,0,0,1,206,65.36c-.16-.36-.14-.79-.44-1.09V62c.05-.05.11-.08.13-.14a9.57,9.57,0,0,1,4.58-5.52,26.84,26.84,0,0,1,10.33-3.5A21.12,21.12,0,0,0,223.5,52.48Zm11.85,5.62c-.75,0-1.5,0-2.25,0-.47,0-.68.12-.74.59s-.22,1.13-.33,1.69c-.56,2.86-1.11,5.72-1.69,8.57-.1.45,0,.54.43.52s1.11,0,1.66,0c.35,0,.51-.1.56-.45.09-.64.24-1.26.34-1.89.07-.43.21-.66.71-.61.66,0,1.33,0,2,0A4.94,4.94,0,0,0,241,62.46c.53-2.75-.75-4.32-3.56-4.36Zm-18.87,0v0c-.77,0-1.54,0-2.32,0-.4,0-.56.11-.64.54q-1,5.16-2.05,10.31c-.09.43,0,.55.44.53s1.11,0,1.66,0c.34,0,.51-.07.56-.45.09-.67.26-1.34.37-2,.06-.34.19-.5.56-.48.66,0,1.33,0,2,0a5,5,0,0,0,5.09-4.27c.42-2.43-.69-3.92-3.14-4.12C218.17,58.07,217.32,58.13,216.48,58.13Zm12.46,8.4a7,7,0,0,1,.93,0c.44.06.58-.16.64-.54.27-1.65.48-3.32.85-5s-.59-2.64-2.17-2.88a17.08,17.08,0,0,0-2.58-.07c-.39,0-.58-.09-.47-.53s.15-.78.23-1.17c.26-1.26.26-1.26-1-1.26-.31,0-.62,0-.93,0s-.53.1-.6.49c-.29,1.6-.62,3.2-.94,4.8-.37,1.84-.73,3.68-1.11,5.51-.1.48,0,.63.51.6a11,11,0,0,1,1.52,0c.41,0,.57-.12.65-.54.32-1.75.7-3.5,1-5.25.08-.44.25-.6.69-.57s1,0,1.46,0c.9,0,1.1.26.93,1.13l-.72,3.84c-.08.43-.35,1-.17,1.26S228.56,66.48,228.94,66.53Z"/><path class="bd9a4cce-ea9f-451d-81bd-5ffc34cdf6f2" d="M235.35,58.1h2.05c2.81,0,4.09,1.61,3.56,4.36A4.94,4.94,0,0,1,236,66.53c-.66,0-1.33,0-2,0-.5,0-.64.18-.71.61-.1.63-.25,1.25-.34,1.89-.05.35-.21.47-.56.45-.55,0-1.11,0-1.66,0s-.53-.07-.43-.52c.58-2.85,1.13-5.71,1.69-8.57.11-.56.26-1.12.33-1.69s.27-.62.74-.59C233.85,58.12,234.6,58.1,235.35,58.1Zm.61,2.09c-.28,0-.57,0-.85,0s-.39.05-.43.3c-.2,1.19-.39,2.38-.59,3.57,0,.21,0,.35.26.34a5.87,5.87,0,0,0,2.53-.27,2.89,2.89,0,0,0,1.33-2.93c-.14-.7-.76-1-2.05-1Z"/><path class="bd9a4cce-ea9f-451d-81bd-5ffc34cdf6f2" d="M216.48,58.13c.84,0,1.69-.06,2.52,0,2.45.2,3.56,1.69,3.14,4.12a5,5,0,0,1-5.09,4.27c-.66,0-1.33,0-2,0-.37,0-.5.14-.56.48-.11.67-.28,1.34-.37,2,0,.38-.22.47-.56.45-.55,0-1.11,0-1.66,0s-.53-.1-.44-.53q1-5.14,2.05-10.31c.08-.43.24-.55.64-.54.78,0,1.55,0,2.32,0Zm.61,2.06a3.53,3.53,0,0,1-.46,0c-.55-.08-.85.07-.89.7s-.23,1.17-.28,1.76-.53,1.37-.07,1.68,1.24.12,1.87,0a2.59,2.59,0,0,0,2.13-3C219.32,60.51,218.7,60.19,217.09,60.19Z"/><path class="bd9a4cce-ea9f-451d-81bd-5ffc34cdf6f2" d="M228.94,66.53c-.38,0-1,.21-1.25-.11s.09-.83.17-1.26l.72-3.84c.17-.87,0-1.11-.93-1.13-.49,0-1,0-1.46,0s-.61.13-.69.57c-.33,1.75-.71,3.5-1,5.25-.08.42-.24.56-.65.54a11,11,0,0,0-1.52,0c-.48,0-.61-.12-.51-.6.38-1.83.74-3.67,1.11-5.51.32-1.6.65-3.2.94-4.8.07-.39.22-.53.6-.49s.62,0,.93,0c1.26,0,1.26,0,1,1.26-.08.39-.13.79-.23,1.17s.08.53.47.53a17.08,17.08,0,0,1,2.58.07c1.58.24,2.55,1.2,2.17,2.88s-.58,3.3-.85,5c-.06.38-.2.6-.64.54A7,7,0,0,0,228.94,66.53Z"/><path class="bd627c56-51f2-476e-8ddd-a99f82b7f2b3" d="M236,60.19h.2c1.29,0,1.91.31,2.05,1a2.89,2.89,0,0,1-1.33,2.93,5.87,5.87,0,0,1-2.53.27c-.25,0-.29-.13-.26-.34.2-1.19.39-2.38.59-3.57,0-.25.2-.31.43-.3S235.68,60.19,236,60.19Z"/><path class="bd627c56-51f2-476e-8ddd-a99f82b7f2b3" d="M217.09,60.19c1.61,0,2.23.32,2.3,1.2a2.59,2.59,0,0,1-2.13,3c-.63.1-1.43.27-1.87,0s0-1.1.07-1.68.25-1.17.28-1.76.34-.78.89-.7A3.53,3.53,0,0,0,217.09,60.19Z"/><path class="bd627c56-51f2-476e-8ddd-a99f82b7f2b3" d="M252.55,92.39H199.74c-3.37-1.22-4.42-3.72-4.41-7.17q.12-28,0-56c0-3.45,1-5.94,4.41-7.16h35.31c4.63.82,8.11,3.48,11.18,6.87,1.92,2.12,4,4.07,6.05,6.08a15.16,15.16,0,0,1,4.65,11.18c0,13-.06,26,0,39C257,88.67,255.93,91.16,252.55,92.39ZM235,26.62a13.41,13.41,0,0,0-1.42-.14c-10.67,0-21.35,0-32,0-1.38,0-1.83.6-1.81,1.9,0,3.64,0,7.28,0,10.93q0,23.27,0,46.53c0,1.3.12,2.22,1.8,2.22q24.6,0,49.2,0c1.24,0,1.82-.44,1.82-1.72q0-20.46,0-40.92c0-1.09-.37-1.41-1.45-1.4-4.79.05-9.58,0-14.37,0H235Zm15,13L239.42,28.92V39.61Z"/><line class="bee82165-62d1-4b60-9b3e-81a6df3c0686" x1="171.84" y1="52.22" x2="122.76" y2="52.22"/><polygon class="fcadb611-cd9d-4574-884c-93bb07a8ac77" points="165.61 39.76 187.2 52.22 165.61 64.69 165.61 39.76"/><text class="e648b7e6-311c-4b7f-9cb1-18e9ed07ac65" transform="translate(195.33 141.4)">• envía email</text><text class="e648b7e6-311c-4b7f-9cb1-18e9ed07ac65" transform="translate(195.33 159.4)">• c<tspan class="a3cd51b7-3049-4d14-9d65-5e21848d1165" x="11.52" y="0">r</tspan><tspan class="baf6c722-fe89-4bb6-931b-cfdac57e966a" x="15.56" y="0">e</tspan><tspan x="21.35" y="0">a </tspan><tspan class="a3cd51b7-3049-4d14-9d65-5e21848d1165" x="29.8" y="0">r</tspan><tspan class="e56ddee8-b6db-4e26-b0b2-8dbdbe7f35f7" x="33.84" y="0">espue</tspan><tspan class="a37859b0-de65-4800-8e98-a18df95f30da" x="63.96" y="0">s</tspan><tspan class="f0be9786-239d-4a18-8ba4-b9f70b476a76" x="68.75" y="0">t</tspan><tspan x="72.55" y="0">a html</tspan><tspan x="0" y="14.4" xml:space="preserve">   </tspan><tspan class="f0be9786-239d-4a18-8ba4-b9f70b476a76" x="7.2" y="14.4">c</tspan><tspan x="12.42" y="14.4">on d</tspan><tspan class="baf6c722-fe89-4bb6-931b-cfdac57e966a" x="34.55" y="14.4">at</tspan><tspan x="44.32" y="14.4">os enviados</tspan></text><text class="eae352a3-1582-444c-846d-8a9d5afba96f" transform="translate(48.11 141.4)">• e<tspan class="a37859b0-de65-4800-8e98-a18df95f30da" x="12" y="0">s</tspan><tspan x="16.79" y="0">tru</tspan><tspan class="e41cda02-c93d-4eba-b87e-708b659f655a" x="31.54" y="0">c</tspan><tspan x="36.89" y="0">tu</tspan><tspan class="f4314a28-16cf-4741-ac22-c65b4cf327f5" x="47.47" y="0">r</tspan><tspan x="51.35" y="0">a in</tspan><tspan class="e41cda02-c93d-4eba-b87e-708b659f655a" x="69.31" y="0">f</tspan><tspan x="72.7" y="0">o</tspan></text><text class="eff4ef81-104c-4397-a1b3-144e37ca33fe" transform="translate(48.11 334.4)">• e<tspan class="a37859b0-de65-4800-8e98-a18df95f30da" x="12" y="0">s</tspan><tspan x="16.79" y="0">tili</tspan><tspan class="eb60845b-8597-4ac8-9e1e-2acd5d6623c6" x="29.81" y="0">z</tspan><tspan x="34.63" y="0">a la in</tspan><tspan class="a3cd51b7-3049-4d14-9d65-5e21848d1165" x="64.1" y="0">f</tspan><tspan x="67.49" y="0">o</tspan></text><path d="M287.13,128.32h.54v.74a.94.94,0,0,0-.07.22c-.17,1-.33,2.06-.5,3.1-.37,2.29-.75,4.59-1.12,6.89-.13.8-.25,1.6-.41,2.39s-.4.87-1.08.59c-1.08-.44-2.16-.88-3.23-1.34a.43.43,0,0,0-.61.17c-.3.42-.64.81-1,1.21a3.53,3.53,0,0,1-1.22,1.18h-.27a1.68,1.68,0,0,1-.25-.61c0-.83,0-1.67,0-2.5a.91.91,0,0,1,.24-.67q3.33-4.08,6.67-8.17l.12-.2a.34.34,0,0,0-.19.09c-2.79,2.41-5.59,4.81-8.37,7.23a.43.43,0,0,1-.51.09c-1-.41-1.95-.8-2.92-1.22a2.19,2.19,0,0,1-.52-.4V137a4.75,4.75,0,0,1,.69-.66q5.61-3.27,11.24-6.51C285.28,129.29,286.21,128.81,287.13,128.32Z"/></svg>