<svg id="f57a9c96-2784-4e2b-8d34-dcc0766db093" data-name="Capa 1" xmlns="http://www.w3.org/2000/svg" viewBox="0 0 520 350"><defs><style>.ad552d8c-7d03-48d6-90d3-3c993753f5f9{fill:#1572b6;}.b32bf430-9637-4e21-b9ee-9e5f28b67061{fill:#34a8db;}.a5f7aa85-5d40-407b-9135-bc64efbc7239{fill:#e7e8e9;}.b2313696-be31-4093-9417-179f4747aff0{fill:#e4e7e9;}.b50759dd-6c4e-487a-ad75-0f1335737fe2{fill:#fdfdfe;}.e2b4a262-f143-4b19-b146-6e418a60d618,.f390bc9c-1323-4ee9-8850-f13147f6f059{fill:none;stroke-linecap:round;stroke-miterlimit:10;stroke-width:5px;}.e2b4a262-f143-4b19-b146-6e418a60d618{stroke:#1572b6;}.a0ecf452-6d87-445d-9958-f33adcf0a52a{fill:#e34f27;}.b7d4d9a5-3af5-4b7a-b959-0a65807e0e10{fill:#f0662a;}.bc7d66d9-7fe8-47db-8d06-a074cb38d8ac{fill:#ebe8e7;}.e4084e47-fbea-4b26-95fb-3a5d094041ae{fill:#ef590c;}.ec234eb1-a727-4e3b-830d-523e8b06aab2{fill:#fefdfc;}.b2aa20a4-183d-4d9d-b9a6-36129ce8da24{fill:#fefdfd;}.a71f2850-c86a-41c6-b22c-ff2279b5336a{fill:#8692c1;}.ae94886d-768e-45e3-b4a3-75612d708f46{fill:#232633;}.f390bc9c-1323-4ee9-8850-f13147f6f059{stroke:#e34f27;}.b90feb31-d722-4b05-8652-d873fd8d8109{fill:#5f6ea0;}</style></defs><title>_</title><path d="M326.86,172.12H311a2,2,0,0,1-1.33-2.16q0-8.43,0-16.86a2,2,0,0,1,1.33-2.16h10.64A6,6,0,0,1,325,153c.58.64,1.21,1.23,1.82,1.83a4.57,4.57,0,0,1,1.4,3.38c0,3.91,0,7.83,0,11.74A2,2,0,0,1,326.86,172.12Zm-5.29-19.82a4,4,0,0,0-.43,0h-9.65c-.41,0-.55.17-.54.57,0,1.09,0,2.19,0,3.29v14c0,.39,0,.67.54.67h14.83c.37,0,.55-.13.54-.52q0-6.16,0-12.33c0-.33-.12-.43-.44-.42-1.45,0-2.89,0-4.33,0h-.53Zm4.52,3.92L322.91,153v3.22Z"/><path class="ad552d8c-7d03-48d6-90d3-3c993753f5f9" d="M51.91,308.84a5.45,5.45,0,0,1-1.81-.34,5.84,5.84,0,0,1-1.61-.9l1.19-1.66a5.31,5.31,0,0,0,1.17.7,2.85,2.85,0,0,0,1.14.24,1.49,1.49,0,0,0,.86-.2.65.65,0,0,0,.27-.56.6.6,0,0,0-.15-.39,1.83,1.83,0,0,0-.42-.31,3.89,3.89,0,0,0-.58-.26l-.67-.26c-.27-.11-.55-.24-.83-.38a3.52,3.52,0,0,1-.75-.53,2.54,2.54,0,0,1-.56-.74,2.18,2.18,0,0,1-.22-1,2.57,2.57,0,0,1,.25-1.14,2.46,2.46,0,0,1,.69-.88,3.25,3.25,0,0,1,1.08-.56,4.42,4.42,0,0,1,1.4-.21,4.35,4.35,0,0,1,1.8.35,7.16,7.16,0,0,1,1.35.78l-1.18,1.59a4.85,4.85,0,0,0-1-.56,2.4,2.4,0,0,0-.93-.2c-.68,0-1,.23-1,.7a.53.53,0,0,0,.14.37,1.5,1.5,0,0,0,.39.28,3.25,3.25,0,0,0,.56.24l.65.25a7.19,7.19,0,0,1,.86.37,3.32,3.32,0,0,1,.77.51,2.14,2.14,0,0,1,.57.75,2.39,2.39,0,0,1,.22,1,2.63,2.63,0,0,1-.24,1.13,2.45,2.45,0,0,1-.7.91,3.49,3.49,0,0,1-1.15.61A5.12,5.12,0,0,1,51.91,308.84Z"/><path class="ad552d8c-7d03-48d6-90d3-3c993753f5f9" d="M60.34,308.84a3.76,3.76,0,0,1-1.42-.25,2.43,2.43,0,0,1-1-.71,2.75,2.75,0,0,1-.54-1.08,5.7,5.7,0,0,1-.17-1.42v-3.62H56v-2l1.36-.1.31-2.38h2.2v2.38h2.14v2.06H59.91v3.59a1.58,1.58,0,0,0,.31,1.09,1.11,1.11,0,0,0,.84.33,1.72,1.72,0,0,0,.44-.06,2.09,2.09,0,0,0,.4-.12l.42,1.92a8.61,8.61,0,0,1-.85.22A5.34,5.34,0,0,1,60.34,308.84Z"/><path class="ad552d8c-7d03-48d6-90d3-3c993753f5f9" d="M64.78,312.12a4.58,4.58,0,0,1-.7-.05,2.7,2.7,0,0,1-.56-.14l.47-2,.29.07a1.77,1.77,0,0,0,.3,0,1.47,1.47,0,0,0,1-.33,1.91,1.91,0,0,0,.54-.84l.13-.47-3.44-8.69H65.5l1.28,3.83c.13.41.25.82.36,1.24l.34,1.3h.08c.09-.42.19-.85.29-1.27s.21-.85.32-1.27l1.08-3.83h2.54l-3.1,9A11.7,11.7,0,0,1,68,310.2a4,4,0,0,1-.81,1.06,3.18,3.18,0,0,1-1,.64A4.08,4.08,0,0,1,64.78,312.12Z"/><path class="ad552d8c-7d03-48d6-90d3-3c993753f5f9" d="M75.6,308.84a2.65,2.65,0,0,1-1.15-.22,1.85,1.85,0,0,1-.75-.6,2.6,2.6,0,0,1-.4-.94,5.1,5.1,0,0,1-.13-1.23V296h2.65v10a.86.86,0,0,0,.15.58.47.47,0,0,0,.32.16h.15a.45.45,0,0,0,.17,0l.32,2a3.12,3.12,0,0,1-.55.16A4.42,4.42,0,0,1,75.6,308.84Z"/><path class="ad552d8c-7d03-48d6-90d3-3c993753f5f9" d="M82.32,308.84a5,5,0,0,1-1.79-.32,4.15,4.15,0,0,1-1.44-.91,4.49,4.49,0,0,1-1-1.47,5.34,5.34,0,0,1-.34-2,5.06,5.06,0,0,1,.36-2,4.52,4.52,0,0,1,.94-1.48,4.25,4.25,0,0,1,1.34-.93,4.08,4.08,0,0,1,1.57-.32,4,4,0,0,1,1.66.32,3.35,3.35,0,0,1,1.19.9,3.76,3.76,0,0,1,.71,1.36,5.77,5.77,0,0,1,.24,1.7c0,.24,0,.47,0,.69a4.8,4.8,0,0,1-.07.48H80.35a2.18,2.18,0,0,0,.8,1.43,2.49,2.49,0,0,0,1.52.46,3.73,3.73,0,0,0,1.93-.59l.88,1.6a5.8,5.8,0,0,1-1.52.74A5.31,5.31,0,0,1,82.32,308.84Zm-2-5.65h3.23a2,2,0,0,0-.35-1.23,1.32,1.32,0,0,0-1.15-.46,1.58,1.58,0,0,0-1.1.41A2.1,2.1,0,0,0,80.33,303.19Z"/><path class="ad552d8c-7d03-48d6-90d3-3c993753f5f9" d="M89.17,308.84a1.53,1.53,0,0,1-1.14-.48A1.76,1.76,0,0,1,88,306a1.61,1.61,0,0,1,2.29,0,1.79,1.79,0,0,1,0,2.37A1.53,1.53,0,0,1,89.17,308.84Z"/><path class="ad552d8c-7d03-48d6-90d3-3c993753f5f9" d="M96.75,308.84a4.76,4.76,0,0,1-1.74-.32,4.07,4.07,0,0,1-1.39-.9,4.27,4.27,0,0,1-.94-1.47,5.61,5.61,0,0,1-.34-2,5,5,0,0,1,.38-2,4.31,4.31,0,0,1,1-1.47,4.48,4.48,0,0,1,1.48-.91,5,5,0,0,1,1.77-.31,3.69,3.69,0,0,1,1.46.27,4.59,4.59,0,0,1,1.14.68l-1.24,1.71a1.91,1.91,0,0,0-1.2-.52,1.88,1.88,0,0,0-1.53.68,2.88,2.88,0,0,0-.56,1.86,2.78,2.78,0,0,0,.57,1.85,1.76,1.76,0,0,0,1.43.69,2,2,0,0,0,.83-.19,4.61,4.61,0,0,0,.77-.46l1,1.73a4.16,4.16,0,0,1-1.44.82A5.06,5.06,0,0,1,96.75,308.84Z"/><path class="ad552d8c-7d03-48d6-90d3-3c993753f5f9" d="M103.9,308.84a5.4,5.4,0,0,1-1.81-.34,5.56,5.56,0,0,1-1.61-.9l1.19-1.66a5,5,0,0,0,1.16.7,2.88,2.88,0,0,0,1.14.24,1.47,1.47,0,0,0,.86-.2.65.65,0,0,0,.27-.56.6.6,0,0,0-.15-.39,1.75,1.75,0,0,0-.41-.31,4,4,0,0,0-.59-.26l-.66-.26a8.84,8.84,0,0,1-.83-.38,3.34,3.34,0,0,1-.76-.53,2.73,2.73,0,0,1-.56-.74,2.17,2.17,0,0,1-.21-1,2.71,2.71,0,0,1,.24-1.14,2.46,2.46,0,0,1,.69-.88,3.25,3.25,0,0,1,1.08-.56,4.82,4.82,0,0,1,3.21.14,7.85,7.85,0,0,1,1.35.78l-1.19,1.59a4.35,4.35,0,0,0-1-.56,2.4,2.4,0,0,0-.93-.2c-.67,0-1,.23-1,.7a.53.53,0,0,0,.14.37,1.5,1.5,0,0,0,.39.28,3.25,3.25,0,0,0,.56.24l.66.25a7.05,7.05,0,0,1,.85.37,3.61,3.61,0,0,1,.78.51,2.24,2.24,0,0,1,.56.75,2.26,2.26,0,0,1,.22,1,2.63,2.63,0,0,1-.24,1.13,2.45,2.45,0,0,1-.7.91,3.4,3.4,0,0,1-1.15.61A5.06,5.06,0,0,1,103.9,308.84Z"/><path class="ad552d8c-7d03-48d6-90d3-3c993753f5f9" d="M111.87,308.84a5.4,5.4,0,0,1-1.81-.34,5.7,5.7,0,0,1-1.61-.9l1.19-1.66a5.31,5.31,0,0,0,1.17.7,2.83,2.83,0,0,0,1.13.24,1.51,1.51,0,0,0,.87-.2.65.65,0,0,0,.27-.56.56.56,0,0,0-.16-.39,1.75,1.75,0,0,0-.41-.31,3.6,3.6,0,0,0-.59-.26l-.66-.26c-.28-.11-.55-.24-.83-.38a3.58,3.58,0,0,1-.76-.53,2.69,2.69,0,0,1-.55-.74,2.05,2.05,0,0,1-.22-1,2.71,2.71,0,0,1,.24-1.14,2.6,2.6,0,0,1,.7-.88,3.25,3.25,0,0,1,1.08-.56,4.79,4.79,0,0,1,3.2.14,7.16,7.16,0,0,1,1.35.78l-1.19,1.59a4.53,4.53,0,0,0-1-.56,2.41,2.41,0,0,0-.94-.2c-.67,0-1,.23-1,.7a.5.5,0,0,0,.15.37,1.22,1.22,0,0,0,.39.28,3.13,3.13,0,0,0,.55.24l.66.25a8,8,0,0,1,.86.37,3.32,3.32,0,0,1,.77.51,2.24,2.24,0,0,1,.78,1.8,2.78,2.78,0,0,1-.23,1.13,2.56,2.56,0,0,1-.7.91,3.6,3.6,0,0,1-1.15.61A5.12,5.12,0,0,1,111.87,308.84Z"/><path class="ad552d8c-7d03-48d6-90d3-3c993753f5f9" d="M78.94,243.11c4.86,0,9.73,0,14.59,0,.75,0,.86.24.8.9Q93.15,257,92,270c-.12,1.33-.26,2.65-.36,4a.78.78,0,0,1-.7.84q-5.82,1.57-11.62,3.22a1.48,1.48,0,0,1-.86,0c-3.81-1.06-7.63-2.13-11.45-3.16a.9.9,0,0,1-.79-1Q65.17,262,64.09,250.09c-.18-2.07-.34-4.13-.55-6.2-.06-.6.07-.8.72-.8C69.16,243.12,74.05,243.11,78.94,243.11Zm-.26,14-3.72,0c-.37,0-.62,0-.57.52.1,1,.16,1.94.23,2.91,0,.47.35.46.69.46l3.54,0v6.07l-2.48-.65c-1.66-.45-1.66-.46-1.85-2.11a7.79,7.79,0,0,1-.12-1c0-.39-.18-.5-.54-.49-.92,0-1.84,0-2.75,0-.54,0-.65.18-.6.67.15,1.56.31,3.12.41,4.68a1,1,0,0,0,.87,1c2.36.64,4.71,1.32,7.07,2v3.2c0,1.11,0,1.1,1,.81,2.58-.73,5.17-1.46,7.76-2.17,1.65-.45,1.61-.44,1.69-2.13s.24-3.47.39-5.21c.21-2.37.46-4.74.67-7.12.15-1.55.26-3.11.4-4.67.22-2.43.44-4.87.68-7.3.06-.62-.1-.89-.81-.89-3.67,0-7.35,0-11,0-.62,0-.81.18-.82.8a6.69,6.69,0,0,1-.16,2.71c-2.9,0-5.79,0-8.69,0-.58,0-.79.14-.7.74a16,16,0,0,1,.23,2.38c0,.7.32.8.93.79,2.8,0,5.61,0,8.42,0,0,.37,0,.75,0,1.13A8.22,8.22,0,0,1,78.68,257.11Z"/><path class="b32bf430-9637-4e21-b9ee-9e5f28b67061" d="M78.68,249.27a6.69,6.69,0,0,0,.16-2.71c0-.62.2-.81.82-.8,3.67,0,7.35,0,11,0,.71,0,.87.27.81.89-.24,2.43-.46,4.87-.68,7.3-.14,1.56-.25,3.12-.4,4.67-.21,2.38-.46,4.75-.67,7.12-.15,1.74-.3,3.47-.39,5.21s0,1.68-1.69,2.13c-2.59.71-5.18,1.44-7.76,2.17-1,.29-1,.3-1-.81v-3.2l.18-.08c2.26-.62,4.5-1.29,6.77-1.82A1.36,1.36,0,0,0,87,267.84c.19-2.57.44-5.13.67-7.7.3-3.39.6-6.78.92-10.17,0-.49-.07-.68-.6-.67-3,0-6,0-9,0Z"/><path class="a5f7aa85-5d40-407b-9135-bc64efbc7239" d="M79,271.15l-.18.08c-2.36-.67-4.71-1.35-7.07-2a1,1,0,0,1-.87-1c-.1-1.56-.26-3.12-.41-4.68-.05-.49.06-.69.6-.67.91,0,1.83,0,2.75,0,.36,0,.54.1.54.49a7.79,7.79,0,0,0,.12,1c.19,1.65.19,1.66,1.85,2.11l2.48.65.18.05Z"/><path class="b2313696-be31-4093-9417-179f4747aff0" d="M78.68,249.27l.35.07c0,1.26,0,2.52,0,3.79l-.17.1c-2.81,0-5.62,0-8.42,0-.61,0-.92-.09-.93-.79a16,16,0,0,0-.23-2.38c-.09-.6.12-.74.7-.74C72.89,249.31,75.78,249.28,78.68,249.27Z"/><path class="b32bf430-9637-4e21-b9ee-9e5f28b67061" d="M79,267.17l-.18-.05v-6.19A30.56,30.56,0,0,0,83,261c.48,0,.7.12.64.65-.14,1.32-.26,2.65-.36,4,0,.41-.32.44-.6.52Z"/><path class="b32bf430-9637-4e21-b9ee-9e5f28b67061" d="M78.87,253.23l.17-.1c1.54,0,3.08.07,4.62.05.6,0,.77.18.7.76-.11.82-.17,1.65-.23,2.48,0,.54-.24.75-.82.74-1.49,0-3,0-4.45,0l-.18-.07a8.22,8.22,0,0,0,.17-2.75C78.89,254,78.86,253.6,78.87,253.23Z"/><path class="b2313696-be31-4093-9417-179f4747aff0" d="M78.68,257.11l.18.07a8.94,8.94,0,0,1,0,3.75v.12l-3.54,0c-.34,0-.66,0-.69-.46-.07-1-.13-1.94-.23-2.91,0-.49.2-.52.57-.52Z"/><path class="b50759dd-6c4e-487a-ad75-0f1335737fe2" d="M78.85,260.93a8.94,8.94,0,0,0,0-3.75c1.48,0,3-.06,4.45,0,.58,0,.79-.2.82-.74.06-.83.12-1.66.23-2.48.07-.58-.1-.77-.7-.76-1.54,0-3.08,0-4.62-.05,0-1.27,0-2.53,0-3.79,3,0,6,0,9,0,.53,0,.65.18.6.67-.32,3.39-.62,6.78-.92,10.17-.23,2.57-.48,5.13-.67,7.7a1.36,1.36,0,0,1-1.21,1.49c-2.27.53-4.51,1.2-6.77,1.82,0-1.33,0-2.65,0-4l3.67-1c.28-.08.57-.11.6-.52.1-1.33.22-2.66.36-4,.06-.53-.16-.64-.64-.65A30.56,30.56,0,0,1,78.85,260.93Z"/><path class="ad552d8c-7d03-48d6-90d3-3c993753f5f9" d="M105.34,286.39H52.53c-3.37-1.22-4.43-3.72-4.41-7.17q.1-28,0-56c0-3.45,1-5.94,4.41-7.16H87.84c4.63.82,8.1,3.48,11.17,6.87,1.92,2.12,4,4.07,6,6.08a15.12,15.12,0,0,1,4.65,11.18c0,13,0,26,0,39C109.78,282.67,108.71,285.16,105.34,286.39ZM87.78,220.62a13.57,13.57,0,0,0-1.43-.14c-10.67,0-21.34,0-32,0-1.37,0-1.82.6-1.81,1.9,0,3.64,0,7.28,0,10.93q0,23.26,0,46.53c0,1.3.13,2.22,1.8,2.22q24.62,0,49.21,0c1.24,0,1.81-.44,1.81-1.72q0-20.46,0-40.92c0-1.09-.38-1.41-1.46-1.4-4.79.05-9.58,0-14.37,0H87.78Zm15,13L92.2,222.92v10.69Z"/><path class="e2b4a262-f143-4b19-b146-6e418a60d618" d="M29.47,68.59C18.3,83.75,6.06,111,6.06,150.48c0,60.91,19,84.08,31,95.37"/><polygon class="ad552d8c-7d03-48d6-90d3-3c993753f5f9" points="18.18 62.98 42.05 55.8 36.34 80.07 18.18 62.98"/><path class="a0ecf452-6d87-445d-9958-f33adcf0a52a" d="M50.6,106.1a1.59,1.59,0,0,1-1.1-.39,1.27,1.27,0,0,1-.43-1,1.24,1.24,0,0,1,.43-1,1.8,1.8,0,0,1,2.21,0,1.26,1.26,0,0,1,.42,1,1.3,1.3,0,0,1-.42,1A1.6,1.6,0,0,1,50.6,106.1Zm-1.31,10.24v-8.93h2.64v8.93Z"/><path class="a0ecf452-6d87-445d-9958-f33adcf0a52a" d="M54.25,116.34v-8.93h2.16l.18,1.14h.08a7.23,7.23,0,0,1,1.25-1,3.13,3.13,0,0,1,1.61-.4,2.37,2.37,0,0,1,2.11,1,4.62,4.62,0,0,1,.66,2.65v5.54H59.65v-5.2a2.35,2.35,0,0,0-.26-1.33,1,1,0,0,0-.84-.36,1.6,1.6,0,0,0-.86.22,4.93,4.93,0,0,0-.79.64v6Z"/><path class="a0ecf452-6d87-445d-9958-f33adcf0a52a" d="M67.73,116.56a3.37,3.37,0,0,1-1.5-.33,3.12,3.12,0,0,1-1.15-.93,4.46,4.46,0,0,1-.74-1.46,6.94,6.94,0,0,1-.26-2,5.73,5.73,0,0,1,.32-2,4.78,4.78,0,0,1,.82-1.46,3.64,3.64,0,0,1,1.19-.93,3.1,3.1,0,0,1,1.38-.32,2.66,2.66,0,0,1,1.24.25,4.41,4.41,0,0,1,1,.68l-.1-1.37v-3h2.64v12.62H70.36l-.18-.88h-.07a4.2,4.2,0,0,1-1.1.78A2.82,2.82,0,0,1,67.73,116.56Zm.69-2.16a1.66,1.66,0,0,0,.78-.18,2,2,0,0,0,.68-.63v-3.66a2.34,2.34,0,0,0-.74-.45,2.43,2.43,0,0,0-.74-.12,1.43,1.43,0,0,0-1.12.6,3,3,0,0,0-.48,1.88,3.47,3.47,0,0,0,.42,1.94A1.37,1.37,0,0,0,68.42,114.4Z"/><path class="a0ecf452-6d87-445d-9958-f33adcf0a52a" d="M78.86,116.56a4.94,4.94,0,0,1-1.78-.32,4,4,0,0,1-1.44-.92,4.22,4.22,0,0,1-1-1.46,5.34,5.34,0,0,1-.34-2,5.11,5.11,0,0,1,.36-2,4.6,4.6,0,0,1,1-1.47,4,4,0,0,1,1.34-.93,3.82,3.82,0,0,1,1.56-.32,4,4,0,0,1,1.67.32,3.44,3.44,0,0,1,1.19.9,4,4,0,0,1,.71,1.36,6.13,6.13,0,0,1,.23,1.7,4.88,4.88,0,0,1,0,.68,3.13,3.13,0,0,1-.07.49H76.9a2.16,2.16,0,0,0,.8,1.43,2.45,2.45,0,0,0,1.52.46,3.7,3.7,0,0,0,1.92-.59l.89,1.6a6.12,6.12,0,0,1-1.52.74A5.37,5.37,0,0,1,78.86,116.56Zm-2-5.66H80.1a2,2,0,0,0-.34-1.22,1.34,1.34,0,0,0-1.15-.47,1.64,1.64,0,0,0-1.11.42A2,2,0,0,0,76.88,110.9Z"/><path class="a0ecf452-6d87-445d-9958-f33adcf0a52a" d="M83,116.34l2.74-4.64-2.58-4.29H86l.79,1.44c.12.25.24.51.37.77s.25.51.38.76h.08c.09-.25.19-.5.3-.76s.21-.52.31-.77l.61-1.44h2.74L89,112l2.76,4.34H88.88L88,114.86l-.42-.77c-.14-.26-.28-.52-.43-.77H87.1l-.34.76c-.12.26-.23.52-.34.78l-.7,1.48Z"/><path class="a0ecf452-6d87-445d-9958-f33adcf0a52a" d="M94.39,116.56a1.53,1.53,0,0,1-1.14-.48,1.62,1.62,0,0,1-.46-1.18,1.65,1.65,0,0,1,.46-1.2,1.63,1.63,0,0,1,2.29,0,1.69,1.69,0,0,1,.45,1.2,1.65,1.65,0,0,1-.45,1.18A1.53,1.53,0,0,1,94.39,116.56Z"/><path class="a0ecf452-6d87-445d-9958-f33adcf0a52a" d="M98.26,119.65V107.41h2.16l.18.88h.07a5.25,5.25,0,0,1,1.18-.78,3.11,3.11,0,0,1,1.36-.31,3.08,3.08,0,0,1,2.56,1.24,4.23,4.23,0,0,1,.69,1.43,6.76,6.76,0,0,1,.24,1.86,6.08,6.08,0,0,1-.31,2,4.66,4.66,0,0,1-.85,1.52,3.57,3.57,0,0,1-1.2.94,3.16,3.16,0,0,1-1.4.33,2.72,2.72,0,0,1-1.11-.25,3.49,3.49,0,0,1-1-.69l.09,1.42v2.61Zm4.07-5.25a1.43,1.43,0,0,0,1.17-.63,3.28,3.28,0,0,0,.49-2c0-1.61-.52-2.41-1.55-2.41a2.12,2.12,0,0,0-1.53.81v3.65a2,2,0,0,0,.72.45A2.21,2.21,0,0,0,102.33,114.4Z"/><path class="a0ecf452-6d87-445d-9958-f33adcf0a52a" d="M108.58,116.34V103.72h2.64v3.1l-.12,1.6a6.76,6.76,0,0,1,1.17-.84,3.16,3.16,0,0,1,1.58-.38,2.39,2.39,0,0,1,2.12,1,4.7,4.7,0,0,1,.65,2.65v5.54H114v-5.2a2.44,2.44,0,0,0-.26-1.33,1,1,0,0,0-.84-.36,1.61,1.61,0,0,0-.87.22,4.93,4.93,0,0,0-.79.64v6Z"/><path class="a0ecf452-6d87-445d-9958-f33adcf0a52a" d="M118.85,119.65V107.41H121l.18.88h.08a4.84,4.84,0,0,1,1.18-.78,3.06,3.06,0,0,1,1.35-.31,3.08,3.08,0,0,1,2.56,1.24,4.23,4.23,0,0,1,.69,1.43,6.75,6.75,0,0,1,.25,1.86,6.07,6.07,0,0,1-.32,2,4.83,4.83,0,0,1-.84,1.52,3.71,3.71,0,0,1-1.21.94,3.16,3.16,0,0,1-1.4.33,2.72,2.72,0,0,1-1.11-.25,3.49,3.49,0,0,1-1-.69l.09,1.42v2.61Zm4.07-5.25a1.43,1.43,0,0,0,1.17-.63,3.21,3.21,0,0,0,.49-2c0-1.61-.52-2.41-1.55-2.41a2.12,2.12,0,0,0-1.53.81v3.65a2,2,0,0,0,.72.45A2.21,2.21,0,0,0,122.92,114.4Z"/><path class="a0ecf452-6d87-445d-9958-f33adcf0a52a" d="M78.86,44.64H93.28c1.08,0,1.12,0,1,1.08L92.72,63.53q-.54,6-1.07,12c0,.5-.24.69-.72.82Q85.16,78,79.39,79.59a1.67,1.67,0,0,1-.94,0c-3.84-1.08-7.69-2.16-11.54-3.2a.8.8,0,0,1-.69-.85q-.81-9.44-1.65-18.87c-.32-3.63-.66-7.26-1-10.89-.11-1.14-.12-1.14,1.06-1.14Zm0,18.36,0,5.91c-1-.1-1.82-.52-2.75-.68s-1.79-.5-1.58-1.78a7.57,7.57,0,0,0-.11-1.14c0-.44-.18-.56-.59-.55-.89,0-1.78,0-2.67,0-.57,0-.71.17-.65.71.16,1.53.3,3.07.4,4.61,0,.6.29.83.88,1,2.37.62,4.73,1.31,7.09,2,0,1,0,2,0,2.94s.25,1,1.09.81L82.75,76c1.8-.49,3.6-1,5.38-1.48.37-.12,1-.12,1-.68.15-1.2.27-2.41.37-3.61.14-1.62.24-3.24.38-4.85.22-2.53.47-5,.69-7.57.14-1.56.26-3.12.41-4.68s.32-3.34.49-5c.06-.6-.15-.83-.79-.82q-5.47,0-10.95,0c-.67,0-.91.29-.91.9,0,.89,0,1.78,0,2.67H70.14c-.3,0-.66-.14-.89.21q.52,5.86,1.06,11.72c.26.3.61.17.91.17C73.77,63,76.31,63,78.86,63Z"/><path class="b7d4d9a5-3af5-4b7a-b959-0a65807e0e10" d="M78.86,50.87c0-.89,0-1.78,0-2.67,0-.61.24-.91.91-.9q5.47,0,10.95,0c.64,0,.85.22.79.82-.17,1.67-.34,3.34-.49,5s-.27,3.12-.41,4.68c-.22,2.52-.47,5-.69,7.57-.14,1.61-.24,3.23-.38,4.85-.1,1.2-.22,2.41-.37,3.61-.07.56-.66.56-1,.68-1.78.53-3.58,1-5.38,1.48l-2.81.79c-.84.23-1.08.06-1.09-.81s0-2,0-2.94V73a1.54,1.54,0,0,0,.43,0c2.37-.65,4.72-1.32,7.09-2,.45-.12.51-.39.55-.77.27-3.18.58-6.36.82-9.54.05-.59.4-1.2,0-1.8-.26-.28-.61-.16-.92-.16h-8V55l0-.06c3,0,5.94,0,8.9,0,.43,0,.57-.15.58-.56,0-.86.13-1.71.19-2.57l.06-.26c.05-.2.12-.4-.1-.54s-.62-.17-.93-.17Z"/><path class="bc7d66d9-7fe8-47db-8d06-a074cb38d8ac" d="M70.31,62.81q-.54-5.87-1.06-11.72l9.61,0,0,3.83,0,.06c-1.59,0-3.18,0-4.78,0-.45,0-.63.11-.57.6.14,1,.24,2.1.35,3.16.18.37.52.18.78.19,1.4,0,2.81,0,4.22,0v3.83Z"/><path class="bc7d66d9-7fe8-47db-8d06-a074cb38d8ac" d="M78.86,73c-2.36-.67-4.72-1.36-7.09-2-.59-.16-.84-.39-.88-1-.1-1.54-.24-3.08-.4-4.61-.06-.54.08-.74.65-.71.89,0,1.78,0,2.67,0,.41,0,.59.11.59.55a7.57,7.57,0,0,1,.11,1.14c-.21,1.28.55,1.6,1.58,1.78s1.8.58,2.75.68a.59.59,0,0,0,0,.13c0,1.3,0,2.61,0,3.91Z"/><path class="b7d4d9a5-3af5-4b7a-b959-0a65807e0e10" d="M78.86,69a.59.59,0,0,1,0-.13c0-2,0-3.94,0-5.91h4.78c-.12,1.46-.25,2.93-.34,4.39,0,.43-.29.51-.62.6Z"/><path class="e4084e47-fbea-4b26-95fb-3a5d094041ae" d="M78.86,51.11l-9.61,0c.23-.35.59-.21.89-.21h17.4c.31,0,.66-.12.93.17Z"/><path class="e4084e47-fbea-4b26-95fb-3a5d094041ae" d="M83.64,63H78.86c-2.55,0-5.09,0-7.64,0-.3,0-.65.13-.91-.17l8.55,0c1.27,0,2.54,0,3.81,0C83,62.83,83.37,62.64,83.64,63Z"/><path class="ec234eb1-a727-4e3b-830d-523e8b06aab2" d="M83.64,63c-.27-.35-.65-.16-1-.17-1.27,0-2.54,0-3.81,0V59l8.89-.07c.39.6,0,1.21,0,1.8-.24,3.18-.55,6.36-.82,9.54,0,.38-.1.65-.55.77-2.37.63-4.72,1.3-7.09,2a1.54,1.54,0,0,1-.43,0c0-1.3,0-2.61,0-3.91L82.68,68c.33-.09.59-.17.62-.6C83.39,65.92,83.52,64.45,83.64,63Z"/><path class="b2aa20a4-183d-4d9d-b9a6-36129ce8da24" d="M78.86,51.11l9.61-.06c.22.14.15.34.1.54l-.06.26c-.06.86-.15,1.71-.19,2.57,0,.41-.15.56-.58.56-3,0-5.93,0-8.9,0C78.85,53.66,78.85,52.39,78.86,51.11Z"/><path class="a0ecf452-6d87-445d-9958-f33adcf0a52a" d="M73.86,58.72c-.11-1.06-.21-2.11-.35-3.16-.06-.49.12-.61.57-.6,1.6,0,3.19,0,4.78,0v3.71Z"/><path class="e4084e47-fbea-4b26-95fb-3a5d094041ae" d="M73.86,58.72h13c.31,0,.66-.12.92.16L78.86,59c-1.41,0-2.82,0-4.22,0C74.38,58.9,74,59.09,73.86,58.72Z"/><path class="bc7d66d9-7fe8-47db-8d06-a074cb38d8ac" d="M88.51,51.85l.06-.26Z"/><path class="a0ecf452-6d87-445d-9958-f33adcf0a52a" d="M105.34,89.39H52.53c-3.37-1.22-4.43-3.72-4.41-7.17q.1-28,0-56c0-3.45,1-5.94,4.41-7.16H87.84c4.63.82,8.1,3.48,11.17,6.87,1.92,2.12,4,4.07,6,6.08a15.12,15.12,0,0,1,4.65,11.18c0,13,0,26,0,39C109.78,85.67,108.71,88.16,105.34,89.39ZM87.78,23.62a13.57,13.57,0,0,0-1.43-.14c-10.67,0-21.34,0-32,0-1.37,0-1.82.6-1.81,1.9,0,3.64,0,7.28,0,10.93q0,23.27,0,46.53c0,1.3.13,2.22,1.8,2.22q24.62,0,49.21,0c1.24,0,1.81-.44,1.81-1.72q0-20.46,0-40.92c0-1.09-.38-1.41-1.46-1.4-4.79.05-9.58,0-14.37,0H87.78Zm15,13L92.2,25.92V36.61Z"/><path class="a71f2850-c86a-41c6-b22c-ff2279b5336a" d="M201.18,117.88a2.78,2.78,0,0,1-1.2-.29,3.78,3.78,0,0,1-1.12-.88h-.07l-.22,1H196.5V105.05h2.65v3.09l-.08,1.37a4.45,4.45,0,0,1,1.13-.73,3.12,3.12,0,0,1,1.23-.26,3.17,3.17,0,0,1,1.46.33,3.23,3.23,0,0,1,1.11.91,4.19,4.19,0,0,1,.7,1.42,6.76,6.76,0,0,1,.24,1.86,6.18,6.18,0,0,1-.31,2,4.74,4.74,0,0,1-.85,1.52,3.64,3.64,0,0,1-1.21,1A3.11,3.11,0,0,1,201.18,117.88Zm-.61-2.16a1.44,1.44,0,0,0,1.17-.62,3.3,3.3,0,0,0,.48-2c0-1.6-.51-2.41-1.54-2.41a2.09,2.09,0,0,0-1.53.81v3.66a2.16,2.16,0,0,0,.72.45A2.19,2.19,0,0,0,200.57,115.72Z"/><path class="a71f2850-c86a-41c6-b22c-ff2279b5336a" d="M208.87,117.88a3,3,0,0,1-1.11-.2,2.38,2.38,0,0,1-.84-.58,2.77,2.77,0,0,1-.53-.85,2.87,2.87,0,0,1-.19-1.07,2.51,2.51,0,0,1,1.19-2.19,8.85,8.85,0,0,1,3.83-1.07,1.47,1.47,0,0,0-.35-.94,1.37,1.37,0,0,0-1.05-.35,3.24,3.24,0,0,0-1.14.21,9.1,9.1,0,0,0-1.22.6l-1-1.75a8.75,8.75,0,0,1,1.81-.84,6,6,0,0,1,2-.33,3.43,3.43,0,0,1,2.64,1,4.36,4.36,0,0,1,.91,3v5.12h-2.16l-.18-.92h-.07a6.15,6.15,0,0,1-1.21.82A3,3,0,0,1,208.87,117.88Zm.9-2a1.38,1.38,0,0,0,.77-.2,3.49,3.49,0,0,0,.68-.55v-1.57a4.82,4.82,0,0,0-1.94.57,1.11,1.11,0,0,0-.54.91.72.72,0,0,0,.28.63A1.19,1.19,0,0,0,209.77,115.83Z"/><path class="a71f2850-c86a-41c6-b22c-ff2279b5336a" d="M220,117.88a4.76,4.76,0,0,1-1.74-.31,4.09,4.09,0,0,1-1.39-.91,4.27,4.27,0,0,1-.94-1.47,5.36,5.36,0,0,1-.34-2,5,5,0,0,1,.38-2,4.28,4.28,0,0,1,1-1.46,4.46,4.46,0,0,1,1.49-.91,5,5,0,0,1,1.76-.32,3.74,3.74,0,0,1,1.47.27,4.33,4.33,0,0,1,1.14.69l-1.24,1.71a1.91,1.91,0,0,0-1.2-.52,1.85,1.85,0,0,0-1.53.68,2.8,2.8,0,0,0-.56,1.85,2.88,2.88,0,0,0,.56,1.86,1.8,1.8,0,0,0,1.43.68,1.91,1.91,0,0,0,.84-.19,4,4,0,0,0,.77-.46l1,1.73a3.87,3.87,0,0,1-1.44.82A5.06,5.06,0,0,1,220,117.88Z"/><path class="a71f2850-c86a-41c6-b22c-ff2279b5336a" d="M224.51,117.67V105.05h2.57v7.24h.07l2.83-3.55h2.88l-3.13,3.67,3.36,5.26h-2.86l-2-3.48-1.13,1.28v2.2Z"/><path class="a71f2850-c86a-41c6-b22c-ff2279b5336a" d="M237.86,117.88a5,5,0,0,1-1.78-.31,4.07,4.07,0,0,1-2.39-2.39,5.26,5.26,0,0,1-.35-2,4.88,4.88,0,0,1,.37-2,4.74,4.74,0,0,1,.94-1.48,4.06,4.06,0,0,1,1.34-.92,4.11,4.11,0,0,1,3.23,0,3.14,3.14,0,0,1,1.19.9,3.75,3.75,0,0,1,.71,1.36,5.77,5.77,0,0,1,.24,1.7c0,.24,0,.47,0,.68s0,.38-.07.49H235.9a2.23,2.23,0,0,0,.8,1.43,2.54,2.54,0,0,0,1.52.46,3.66,3.66,0,0,0,1.93-.6l.88,1.61a5.78,5.78,0,0,1-1.52.73A5.37,5.37,0,0,1,237.86,117.88Zm-2-5.65h3.23a2,2,0,0,0-.35-1.22,1.32,1.32,0,0,0-1.15-.47,1.68,1.68,0,0,0-1.11.41A2.18,2.18,0,0,0,235.88,112.23Z"/><path class="a71f2850-c86a-41c6-b22c-ff2279b5336a" d="M243.19,117.67v-8.93h2.16l.18,1.13h.07a7.65,7.65,0,0,1,1.26-.94,3.1,3.1,0,0,1,1.6-.41,2.38,2.38,0,0,1,2.12,1,4.58,4.58,0,0,1,.66,2.64v5.55h-2.65v-5.21a2.46,2.46,0,0,0-.26-1.33,1,1,0,0,0-.84-.36,1.6,1.6,0,0,0-.86.23,4.53,4.53,0,0,0-.79.64v6Z"/><path class="a71f2850-c86a-41c6-b22c-ff2279b5336a" d="M256.67,117.88a3.36,3.36,0,0,1-1.5-.32,3.33,3.33,0,0,1-1.15-.93,4.27,4.27,0,0,1-.74-1.46,7,7,0,0,1-.26-2,5.72,5.72,0,0,1,.31-2,5,5,0,0,1,.83-1.47,3.51,3.51,0,0,1,1.19-.92,3.11,3.11,0,0,1,1.38-.33,2.68,2.68,0,0,1,1.24.26,4.09,4.09,0,0,1,.95.68l-.11-1.37v-3h2.65v12.62H259.3l-.18-.88h-.07a4.2,4.2,0,0,1-1.1.78A2.84,2.84,0,0,1,256.67,117.88Zm.69-2.16a1.69,1.69,0,0,0,.78-.18,2,2,0,0,0,.67-.63v-3.65a2,2,0,0,0-.73-.45,2.51,2.51,0,0,0-.74-.13,1.41,1.41,0,0,0-1.12.61,3,3,0,0,0-.48,1.88,3.49,3.49,0,0,0,.42,1.94A1.36,1.36,0,0,0,257.36,115.72Z"/><path class="a71f2850-c86a-41c6-b22c-ff2279b5336a" d="M265.33,117.88a1.52,1.52,0,0,1-1.14-.47,1.62,1.62,0,0,1-.46-1.18,1.65,1.65,0,0,1,.46-1.2,1.59,1.59,0,0,1,2.28,0,1.65,1.65,0,0,1,.46,1.2,1.62,1.62,0,0,1-.46,1.18A1.52,1.52,0,0,1,265.33,117.88Z"/><path class="a71f2850-c86a-41c6-b22c-ff2279b5336a" d="M269.2,121V108.74h2.16l.18.88h.07a5,5,0,0,1,1.18-.78,3.12,3.12,0,0,1,1.36-.32,3.17,3.17,0,0,1,1.46.33,3.11,3.11,0,0,1,1.1.91,4.38,4.38,0,0,1,.69,1.44,6.71,6.71,0,0,1,.24,1.86,6.08,6.08,0,0,1-.31,2,4.68,4.68,0,0,1-.85,1.51,3.61,3.61,0,0,1-1.2,1,3.15,3.15,0,0,1-1.4.32,2.75,2.75,0,0,1-1.12-.24,3.45,3.45,0,0,1-1-.69l.09,1.42V121Zm4.07-5.26a1.44,1.44,0,0,0,1.17-.62,3.3,3.3,0,0,0,.48-2c0-1.6-.51-2.41-1.54-2.41a2.12,2.12,0,0,0-1.53.81v3.66a2.37,2.37,0,0,0,.72.45A2.19,2.19,0,0,0,273.27,115.72Z"/><path class="a71f2850-c86a-41c6-b22c-ff2279b5336a" d="M279.51,117.67V105.05h2.65v3.09l-.13,1.61a7.62,7.62,0,0,1,1.17-.84,3.12,3.12,0,0,1,1.59-.39,2.37,2.37,0,0,1,2.11,1,4.58,4.58,0,0,1,.66,2.64v5.55h-2.65v-5.21a2.37,2.37,0,0,0-.26-1.33,1,1,0,0,0-.83-.36,1.61,1.61,0,0,0-.87.23,4.93,4.93,0,0,0-.79.64v6Z"/><path class="a71f2850-c86a-41c6-b22c-ff2279b5336a" d="M289.79,121V108.74H292l.18.88h.07a5.25,5.25,0,0,1,1.18-.78,3.12,3.12,0,0,1,1.36-.32,3.17,3.17,0,0,1,1.46.33,3.11,3.11,0,0,1,1.1.91,4.38,4.38,0,0,1,.69,1.44,6.71,6.71,0,0,1,.24,1.86,6.08,6.08,0,0,1-.31,2,4.5,4.5,0,0,1-.85,1.51,3.61,3.61,0,0,1-1.2,1,3.15,3.15,0,0,1-1.4.32,2.71,2.71,0,0,1-1.11-.24,3.49,3.49,0,0,1-1-.69l.09,1.42V121Zm4.07-5.26a1.42,1.42,0,0,0,1.17-.62,3.29,3.29,0,0,0,.49-2c0-1.6-.52-2.41-1.55-2.41a2.12,2.12,0,0,0-1.53.81v3.66a2.37,2.37,0,0,0,.72.45A2.19,2.19,0,0,0,293.86,115.72Z"/><path class="a71f2850-c86a-41c6-b22c-ff2279b5336a" d="M223.5,49.48h5.3c.13.18.32.11.49.13a32.66,32.66,0,0,1,8.46,1.74A19.79,19.79,0,0,1,243,54.06a9.54,9.54,0,0,1,3.67,5.09v2.12c-.16.08-.17.25-.21.39a7.2,7.2,0,0,1-1.65,2.92,15.82,15.82,0,0,1-6.76,4.25,36.34,36.34,0,0,1-19.39,1.25,23.06,23.06,0,0,1-9.47-3.89A9.52,9.52,0,0,1,206,62.36c-.16-.36-.14-.79-.44-1.09V59c.05-.05.11-.08.13-.14a9.57,9.57,0,0,1,4.58-5.52,26.84,26.84,0,0,1,10.33-3.5A21.12,21.12,0,0,0,223.5,49.48Zm11.85,5.62c-.75,0-1.5,0-2.25,0-.47,0-.68.12-.74.59s-.22,1.13-.33,1.69c-.56,2.86-1.11,5.72-1.69,8.57-.1.45,0,.54.43.52s1.11,0,1.66,0c.35,0,.51-.1.56-.45.09-.64.24-1.26.34-1.89.07-.43.21-.66.71-.61.66,0,1.33,0,2,0A4.94,4.94,0,0,0,241,59.46c.53-2.75-.75-4.32-3.56-4.36Zm-18.87,0v0c-.77,0-1.54,0-2.32,0-.4,0-.56.11-.64.54q-1,5.16-2.05,10.31c-.09.43,0,.55.44.53s1.11,0,1.66,0c.34,0,.51-.07.56-.45.09-.67.26-1.34.37-2,.06-.34.19-.5.56-.48.66,0,1.33,0,2,0a5,5,0,0,0,5.09-4.27c.42-2.43-.69-3.92-3.14-4.12C218.17,55.07,217.32,55.13,216.48,55.13Zm12.46,8.4a7,7,0,0,1,.93,0c.44.06.58-.16.64-.54.27-1.65.48-3.32.85-5s-.59-2.64-2.17-2.88a17.08,17.08,0,0,0-2.58-.07c-.39,0-.58-.09-.47-.53s.15-.78.23-1.17c.26-1.26.26-1.26-1-1.26-.31,0-.62,0-.93,0s-.53.1-.6.49c-.29,1.6-.62,3.2-.94,4.8-.37,1.84-.73,3.68-1.11,5.51-.1.48,0,.63.51.6a11,11,0,0,1,1.52,0c.41,0,.57-.12.65-.54.32-1.75.7-3.5,1-5.25.08-.44.25-.6.69-.57s1,0,1.46,0c.9,0,1.1.26.93,1.13l-.72,3.84c-.08.43-.35,1-.17,1.26S228.56,63.48,228.94,63.53Z"/><path class="ae94886d-768e-45e3-b4a3-75612d708f46" d="M235.35,55.1h2.05c2.81,0,4.09,1.61,3.56,4.36A4.94,4.94,0,0,1,236,63.53c-.66,0-1.33,0-2,0-.5-.05-.64.18-.71.61-.1.63-.25,1.25-.34,1.89-.05.35-.21.47-.56.45-.55,0-1.11,0-1.66,0s-.53-.07-.43-.52c.58-2.85,1.13-5.71,1.69-8.57.11-.56.26-1.12.33-1.69s.27-.62.74-.59C233.85,55.12,234.6,55.1,235.35,55.1Zm.61,2.09c-.28,0-.57,0-.85,0s-.39.05-.43.3c-.2,1.19-.39,2.38-.59,3.57,0,.21,0,.35.26.34a5.87,5.87,0,0,0,2.53-.27,2.89,2.89,0,0,0,1.33-2.93c-.14-.7-.76-1-2.05-1Z"/><path class="ae94886d-768e-45e3-b4a3-75612d708f46" d="M216.48,55.13c.84,0,1.69-.06,2.52,0,2.45.2,3.56,1.69,3.14,4.12a5,5,0,0,1-5.09,4.27c-.66,0-1.33,0-2,0-.37,0-.5.14-.56.48-.11.67-.28,1.34-.37,2,0,.38-.22.47-.56.45-.55,0-1.11,0-1.66,0s-.53-.1-.44-.53q1-5.14,2.05-10.31c.08-.43.24-.55.64-.54.78,0,1.55,0,2.32,0Zm.61,2.06a3.53,3.53,0,0,1-.46,0c-.55-.08-.85.07-.89.7s-.23,1.17-.28,1.76-.53,1.37-.07,1.68,1.24.12,1.87,0a2.59,2.59,0,0,0,2.13-3C219.32,57.51,218.7,57.19,217.09,57.19Z"/><path class="ae94886d-768e-45e3-b4a3-75612d708f46" d="M228.94,63.53c-.38-.05-1,.21-1.25-.11s.09-.83.17-1.26l.72-3.84c.17-.87,0-1.11-.93-1.13-.49,0-1,0-1.46,0s-.61.13-.69.57c-.33,1.75-.71,3.5-1,5.25-.08.42-.24.56-.65.54a11,11,0,0,0-1.52,0c-.48,0-.61-.12-.51-.6.38-1.83.74-3.67,1.11-5.51.32-1.6.65-3.2.94-4.8.07-.39.22-.53.6-.49s.62,0,.93,0c1.26,0,1.26,0,1,1.26-.08.39-.13.79-.23,1.17s.08.53.47.53a17.08,17.08,0,0,1,2.58.07c1.58.24,2.55,1.2,2.17,2.88s-.58,3.3-.85,5c-.06.38-.2.6-.64.54A7,7,0,0,0,228.94,63.53Z"/><path class="a71f2850-c86a-41c6-b22c-ff2279b5336a" d="M236,57.19h.2c1.29,0,1.91.31,2.05,1a2.89,2.89,0,0,1-1.33,2.93,5.87,5.87,0,0,1-2.53.27c-.25,0-.29-.13-.26-.34.2-1.19.39-2.38.59-3.57,0-.25.2-.31.43-.3S235.68,57.19,236,57.19Z"/><path class="a71f2850-c86a-41c6-b22c-ff2279b5336a" d="M217.09,57.19c1.61,0,2.23.32,2.3,1.2a2.59,2.59,0,0,1-2.13,3c-.63.1-1.43.27-1.87,0s0-1.1.07-1.68.25-1.17.28-1.76.34-.78.89-.7A3.53,3.53,0,0,0,217.09,57.19Z"/><path class="a71f2850-c86a-41c6-b22c-ff2279b5336a" d="M252.55,89.39H199.74c-3.37-1.22-4.42-3.72-4.41-7.17q.12-28,0-56c0-3.45,1-5.94,4.41-7.16h35.31c4.63.82,8.11,3.48,11.18,6.87,1.92,2.12,4,4.07,6.05,6.08a15.16,15.16,0,0,1,4.65,11.18c0,13-.06,26,0,39C257,85.67,255.93,88.16,252.55,89.39ZM235,23.62a13.41,13.41,0,0,0-1.42-.14c-10.67,0-21.35,0-32,0-1.38,0-1.83.6-1.81,1.9,0,3.64,0,7.28,0,10.93q0,23.27,0,46.53c0,1.3.12,2.22,1.8,2.22q24.6,0,49.2,0c1.24,0,1.82-.44,1.82-1.72q0-20.46,0-40.92c0-1.09-.37-1.41-1.45-1.4-4.79.05-9.58,0-14.37,0H235Zm15,13L239.42,25.92V36.61Z"/><line class="f390bc9c-1323-4ee9-8850-f13147f6f059" x1="171.84" y1="49.22" x2="122.76" y2="49.22"/><polygon class="a0ecf452-6d87-445d-9958-f33adcf0a52a" points="165.61 36.76 187.2 49.22 165.61 61.69 165.61 36.76"/><path class="b90feb31-d722-4b05-8652-d873fd8d8109" d="M197.15,136.69a1.26,1.26,0,0,1-.51-.11,1.21,1.21,0,0,1-.43-.29,1.44,1.44,0,0,1-.29-.46,1.55,1.55,0,0,1-.11-.59,1.63,1.63,0,0,1,.11-.59,1.29,1.29,0,0,1,.29-.45,1.39,1.39,0,0,1,.43-.3,1.24,1.24,0,0,1,1,0,1.32,1.32,0,0,1,.44.3,1.29,1.29,0,0,1,.29.45,1.63,1.63,0,0,1,.11.59,1.55,1.55,0,0,1-.11.59,1.44,1.44,0,0,1-.29.46,1.17,1.17,0,0,1-.44.29A1.26,1.26,0,0,1,197.15,136.69Z"/><path class="b90feb31-d722-4b05-8652-d873fd8d8109" d="M204.73,138.54a2.84,2.84,0,0,1-1.1-.21,2.46,2.46,0,0,1-.89-.6,2.69,2.69,0,0,1-.59-.95,3.44,3.44,0,0,1-.22-1.28,3.49,3.49,0,0,1,.22-1.29,3.11,3.11,0,0,1,.59-1,2.74,2.74,0,0,1,.83-.61,2.39,2.39,0,0,1,1-.2,2.46,2.46,0,0,1,1,.19,1.88,1.88,0,0,1,.73.55,2.81,2.81,0,0,1,.45.86,4,4,0,0,1,.15,1.13v.31c0,.1,0,.18,0,.25H202.9a2.34,2.34,0,0,0,.58,1.49,1.83,1.83,0,0,0,1.37.54,2.39,2.39,0,0,0,.77-.12,4.27,4.27,0,0,0,.68-.33l.35.65a5.73,5.73,0,0,1-.86.42A3.14,3.14,0,0,1,204.73,138.54ZM202.89,135H206a2.09,2.09,0,0,0-.38-1.35,1.28,1.28,0,0,0-1.06-.46,1.44,1.44,0,0,0-.59.11,1.49,1.49,0,0,0-.51.36,1.78,1.78,0,0,0-.38.57A2.48,2.48,0,0,0,202.89,135Z"/><path class="b90feb31-d722-4b05-8652-d873fd8d8109" d="M208.31,138.4v-5.83h.82l.08.84h0a4.36,4.36,0,0,1,.88-.7,2,2,0,0,1,1.08-.28,1.59,1.59,0,0,1,1.35.57,2.87,2.87,0,0,1,.42,1.71v3.69h-1v-3.56a2.09,2.09,0,0,0-.27-1.2,1,1,0,0,0-.84-.36,1.44,1.44,0,0,0-.8.22,5.37,5.37,0,0,0-.79.68v4.22Z"/><path class="b90feb31-d722-4b05-8652-d873fd8d8109" d="M216.14,138.4l-2.1-5.83h1l1.1,3.31.27.86.27.86h.05c.09-.28.18-.57.26-.86l.27-.86,1.1-3.31h1l-2.06,5.83Z"/><path class="b90feb31-d722-4b05-8652-d873fd8d8109" d="M220.81,131.53l-.51-.5,1.69-2,.7.66Zm-.33,6.87v-5.83h1v5.83Z"/><path class="b90feb31-d722-4b05-8652-d873fd8d8109" d="M224.78,138.54a1.75,1.75,0,0,1-1.22-.43,1.56,1.56,0,0,1-.49-1.22,1.62,1.62,0,0,1,.86-1.47,6.87,6.87,0,0,1,2.72-.71,3.31,3.31,0,0,0-.05-.55,1.35,1.35,0,0,0-.19-.46.91.91,0,0,0-.37-.33,1.15,1.15,0,0,0-.59-.13,2.34,2.34,0,0,0-.95.19,4.93,4.93,0,0,0-.79.44l-.38-.69a6.46,6.46,0,0,1,1-.51,3.42,3.42,0,0,1,1.3-.24,1.79,1.79,0,0,1,1.55.65,2.89,2.89,0,0,1,.48,1.74v3.58h-.82l-.08-.69h0a5.37,5.37,0,0,1-.9.59A2.26,2.26,0,0,1,224.78,138.54Zm.29-.79a1.57,1.57,0,0,0,.79-.2,3.67,3.67,0,0,0,.79-.58v-1.62a10.56,10.56,0,0,0-1.23.23,3.26,3.26,0,0,0-.8.31,1.15,1.15,0,0,0-.45.42,1,1,0,0,0-.14.51.84.84,0,0,0,.3.72A1.27,1.27,0,0,0,225.07,137.75Z"/><path class="b90feb31-d722-4b05-8652-d873fd8d8109" d="M234.25,138.54a2.84,2.84,0,0,1-1.1-.21,2.46,2.46,0,0,1-.89-.6,2.69,2.69,0,0,1-.59-.95,3.44,3.44,0,0,1-.22-1.28,3.49,3.49,0,0,1,.22-1.29,3.11,3.11,0,0,1,.59-1,2.74,2.74,0,0,1,.83-.61,2.39,2.39,0,0,1,1-.2,2.46,2.46,0,0,1,1,.19,1.88,1.88,0,0,1,.73.55,2.81,2.81,0,0,1,.45.86,4,4,0,0,1,.15,1.13v.31c0,.1,0,.18,0,.25h-3.94a2.34,2.34,0,0,0,.58,1.49,1.83,1.83,0,0,0,1.37.54,2.39,2.39,0,0,0,.77-.12,4.27,4.27,0,0,0,.68-.33l.35.65a5.73,5.73,0,0,1-.86.42A3.14,3.14,0,0,1,234.25,138.54ZM232.41,135h3.12a2.09,2.09,0,0,0-.38-1.35,1.28,1.28,0,0,0-1.06-.46,1.44,1.44,0,0,0-.59.11,1.49,1.49,0,0,0-.51.36,1.78,1.78,0,0,0-.38.57A2.48,2.48,0,0,0,232.41,135Z"/><path class="b90feb31-d722-4b05-8652-d873fd8d8109" d="M237.83,138.4v-5.83h.82l.08.84h0a3.86,3.86,0,0,1,.83-.7,1.8,1.8,0,0,1,1-.28,1.64,1.64,0,0,1,1,.29,1.7,1.7,0,0,1,.56.82,5.19,5.19,0,0,1,.92-.81,1.8,1.8,0,0,1,1-.3,1.58,1.58,0,0,1,1.34.57,2.8,2.8,0,0,1,.44,1.71v3.69h-1v-3.56a2.18,2.18,0,0,0-.26-1.2,1,1,0,0,0-.82-.36,2.15,2.15,0,0,0-1.46.9v4.22h-1v-3.56a2.09,2.09,0,0,0-.27-1.2,1,1,0,0,0-.83-.36,2.15,2.15,0,0,0-1.46.9v4.22Z"/><path class="b90feb31-d722-4b05-8652-d873fd8d8109" d="M249.13,138.54a1.75,1.75,0,0,1-1.22-.43,1.53,1.53,0,0,1-.49-1.22,1.63,1.63,0,0,1,.85-1.47,7,7,0,0,1,2.73-.71,3.31,3.31,0,0,0-.05-.55,1.35,1.35,0,0,0-.19-.46.91.91,0,0,0-.37-.33,1.15,1.15,0,0,0-.59-.13,2.34,2.34,0,0,0-1,.19,4.53,4.53,0,0,0-.79.44l-.39-.69a7.12,7.12,0,0,1,1-.51,3.42,3.42,0,0,1,1.3-.24,1.77,1.77,0,0,1,1.54.65,2.89,2.89,0,0,1,.49,1.74v3.58h-.82l-.09-.69h0a5.37,5.37,0,0,1-.9.59A2.26,2.26,0,0,1,249.13,138.54Zm.29-.79a1.6,1.6,0,0,0,.79-.2A3.67,3.67,0,0,0,251,137v-1.62a10.56,10.56,0,0,0-1.23.23,3.52,3.52,0,0,0-.81.31,1.19,1.19,0,0,0-.44.42,1,1,0,0,0-.14.51.84.84,0,0,0,.3.72A1.27,1.27,0,0,0,249.42,137.75Z"/><path class="b90feb31-d722-4b05-8652-d873fd8d8109" d="M254.33,131.37a.68.68,0,0,1-.48-.18.63.63,0,0,1,0-.92.67.67,0,0,1,.48-.17.68.68,0,0,1,.49.17.63.63,0,0,1,0,.92A.69.69,0,0,1,254.33,131.37Zm-.5,7v-5.83h1v5.83Z"/><path class="b90feb31-d722-4b05-8652-d873fd8d8109" d="M257.83,138.54a.93.93,0,0,1-.81-.33,1.7,1.7,0,0,1-.24-1v-7.36h1v7.44a.47.47,0,0,0,.08.33.24.24,0,0,0,.19.1h.09l.13,0,.13.74a1,1,0,0,1-.23.07A1.62,1.62,0,0,1,257.83,138.54Z"/><path class="b90feb31-d722-4b05-8652-d873fd8d8109" d="M264.55,138.54a2.73,2.73,0,0,1-1.08-.2,2.28,2.28,0,0,1-.87-.59,2.71,2.71,0,0,1-.58-1,3.71,3.71,0,0,1-.21-1.29,3.47,3.47,0,0,1,.23-1.3,2.72,2.72,0,0,1,.61-1,2.64,2.64,0,0,1,.89-.6,2.8,2.8,0,0,1,1.08-.2,2.12,2.12,0,0,1,1,.2,3.47,3.47,0,0,1,.72.48l-.5.65a3.06,3.06,0,0,0-.53-.38,1.46,1.46,0,0,0-.63-.14,1.67,1.67,0,0,0-.74.16,1.6,1.6,0,0,0-.57.47,2.09,2.09,0,0,0-.38.71,3,3,0,0,0-.14.92,3.22,3.22,0,0,0,.13.91,2.23,2.23,0,0,0,.37.7,1.51,1.51,0,0,0,.57.46,1.63,1.63,0,0,0,.73.16,1.6,1.6,0,0,0,.75-.18,2.9,2.9,0,0,0,.62-.41l.43.66a3.19,3.19,0,0,1-.88.55A2.62,2.62,0,0,1,264.55,138.54Z"/><path class="b90feb31-d722-4b05-8652-d873fd8d8109" d="M269.73,138.54a2.59,2.59,0,0,1-1-.2,2.37,2.37,0,0,1-.85-.59,2.9,2.9,0,0,1-.6-1,3.92,3.92,0,0,1,0-2.59,2.85,2.85,0,0,1,.6-1,2.4,2.4,0,0,1,.85-.6,2.75,2.75,0,0,1,2.06,0,2.4,2.4,0,0,1,.85.6,2.85,2.85,0,0,1,.6,1,3.92,3.92,0,0,1,0,2.59,2.9,2.9,0,0,1-.6,1,2.37,2.37,0,0,1-.85.59A2.59,2.59,0,0,1,269.73,138.54Zm0-.81a1.39,1.39,0,0,0,.68-.16,1.58,1.58,0,0,0,.54-.46,2.17,2.17,0,0,0,.34-.7,3.23,3.23,0,0,0,.12-.91,3.31,3.31,0,0,0-.12-.92,2,2,0,0,0-.34-.71,1.51,1.51,0,0,0-.54-.47,1.52,1.52,0,0,0-1.36,0,1.51,1.51,0,0,0-.54.47,2,2,0,0,0-.34.71,3.31,3.31,0,0,0-.12.92,3.23,3.23,0,0,0,.12.91,2.17,2.17,0,0,0,.34.7,1.58,1.58,0,0,0,.54.46A1.39,1.39,0,0,0,269.73,137.73Z"/><path class="b90feb31-d722-4b05-8652-d873fd8d8109" d="M274,138.4v-5.83h.81l.09.84h0a4.66,4.66,0,0,1,.88-.7,2,2,0,0,1,1.08-.28,1.59,1.59,0,0,1,1.35.57,2.87,2.87,0,0,1,.42,1.71v3.69h-1v-3.56a2.18,2.18,0,0,0-.26-1.2,1,1,0,0,0-.84-.36,1.45,1.45,0,0,0-.81.22,5.94,5.94,0,0,0-.79.68v4.22Z"/><path class="b90feb31-d722-4b05-8652-d873fd8d8109" d="M285.29,138.54a2.82,2.82,0,0,1-1.09-.21,2.46,2.46,0,0,1-.89-.6,2.86,2.86,0,0,1-.6-.95,3.66,3.66,0,0,1-.21-1.28,3.49,3.49,0,0,1,.22-1.29,3.11,3.11,0,0,1,.59-1,2.74,2.74,0,0,1,.83-.61,2.39,2.39,0,0,1,1-.2,2.46,2.46,0,0,1,1,.19,1.88,1.88,0,0,1,.73.55,2.81,2.81,0,0,1,.45.86,4,4,0,0,1,.15,1.13v.31c0,.1,0,.18,0,.25h-3.94a2.34,2.34,0,0,0,.58,1.49,1.83,1.83,0,0,0,1.37.54,2.39,2.39,0,0,0,.77-.12,4.73,4.73,0,0,0,.68-.33l.34.65a5.61,5.61,0,0,1-.85.42A3.16,3.16,0,0,1,285.29,138.54ZM283.46,135h3.12a2.09,2.09,0,0,0-.38-1.35,1.28,1.28,0,0,0-1.06-.46,1.52,1.52,0,0,0-.6.11,1.55,1.55,0,0,0-.5.36,1.78,1.78,0,0,0-.38.57A2.48,2.48,0,0,0,283.46,135Z"/><path class="b90feb31-d722-4b05-8652-d873fd8d8109" d="M290.41,138.54a3.18,3.18,0,0,1-1.19-.22,3.9,3.9,0,0,1-1-.58l.49-.66a3.54,3.54,0,0,0,.78.5,2.12,2.12,0,0,0,.93.2,1.23,1.23,0,0,0,.87-.27.84.84,0,0,0,.29-.64.65.65,0,0,0-.12-.4,1.23,1.23,0,0,0-.31-.29,2.5,2.5,0,0,0-.43-.23l-.48-.19-.62-.24a3.09,3.09,0,0,1-.56-.34,1.75,1.75,0,0,1-.4-.46,1.29,1.29,0,0,1-.16-.64,1.58,1.58,0,0,1,.14-.65,1.49,1.49,0,0,1,.4-.53,1.75,1.75,0,0,1,.63-.35,2.75,2.75,0,0,1,.84-.12,2.56,2.56,0,0,1,1,.19,2.94,2.94,0,0,1,.8.46l-.47.63a3.08,3.08,0,0,0-.62-.37,1.71,1.71,0,0,0-.71-.15,1.11,1.11,0,0,0-.81.26.78.78,0,0,0-.26.58.61.61,0,0,0,.11.36,1.05,1.05,0,0,0,.29.26,2.61,2.61,0,0,0,.41.21l.49.18.63.25a2.66,2.66,0,0,1,.57.33,1.63,1.63,0,0,1,.41.49,1.35,1.35,0,0,1,.16.69,1.72,1.72,0,0,1-.13.68,1.69,1.69,0,0,1-.41.55,2.17,2.17,0,0,1-.67.38A2.92,2.92,0,0,1,290.41,138.54Z"/><path class="b90feb31-d722-4b05-8652-d873fd8d8109" d="M295.51,138.54a1.86,1.86,0,0,1-.79-.14,1.36,1.36,0,0,1-.51-.4,1.44,1.44,0,0,1-.29-.61,3.84,3.84,0,0,1-.08-.79v-3.23H293v-.74l.91-.06.12-1.63h.83v1.63h1.57v.8h-1.57v3.24a1.54,1.54,0,0,0,.19.84.82.82,0,0,0,.71.29,1.39,1.39,0,0,0,.33-.05l.33-.11.19.75c-.16,0-.34.11-.52.15A2.74,2.74,0,0,1,295.51,138.54Z"/><path class="b90feb31-d722-4b05-8652-d873fd8d8109" d="M298.23,131.37a.68.68,0,0,1-.48-.18.63.63,0,0,1,0-.92.67.67,0,0,1,.48-.17.72.72,0,0,1,.49.17.63.63,0,0,1,0,.92A.72.72,0,0,1,298.23,131.37Zm-.5,7v-5.83h1v5.83Z"/><path class="b90feb31-d722-4b05-8652-d873fd8d8109" d="M301.72,138.54a.93.93,0,0,1-.8-.33,1.7,1.7,0,0,1-.24-1v-7.36h1v7.44a.47.47,0,0,0,.09.33.23.23,0,0,0,.19.1H302l.13,0,.13.74-.23.07A1.67,1.67,0,0,1,301.72,138.54Z"/><path class="b90feb31-d722-4b05-8652-d873fd8d8109" d="M306,138.54a2.56,2.56,0,0,1-1-.2,2.5,2.5,0,0,1-.86-.59,3.06,3.06,0,0,1-.59-1,3.92,3.92,0,0,1,0-2.59,3,3,0,0,1,.59-1,2.53,2.53,0,0,1,.86-.6,2.56,2.56,0,0,1,1-.2,2.51,2.51,0,0,1,1,.2,2.43,2.43,0,0,1,.86.6,2.85,2.85,0,0,1,.6,1,3.92,3.92,0,0,1,0,2.59,2.9,2.9,0,0,1-.6,1,2.41,2.41,0,0,1-.86.59A2.51,2.51,0,0,1,306,138.54Zm0-.81a1.46,1.46,0,0,0,1.21-.62,2.19,2.19,0,0,0,.35-.7,3.23,3.23,0,0,0,.12-.91,3.31,3.31,0,0,0-.12-.92,2.05,2.05,0,0,0-.35-.71,1.4,1.4,0,0,0-.53-.47,1.55,1.55,0,0,0-1.37,0,1.57,1.57,0,0,0-.53.47,2,2,0,0,0-.34.71,3.31,3.31,0,0,0-.12.92,3.23,3.23,0,0,0,.12.91,2.17,2.17,0,0,0,.34.7,1.65,1.65,0,0,0,.53.46A1.46,1.46,0,0,0,306,137.73Z"/><path class="b90feb31-d722-4b05-8652-d873fd8d8109" d="M315,138.54a2.73,2.73,0,0,1-1.08-.2,2.28,2.28,0,0,1-.87-.59,2.71,2.71,0,0,1-.58-1,3.71,3.71,0,0,1-.21-1.29,3.47,3.47,0,0,1,.23-1.3,2.72,2.72,0,0,1,.61-1,2.59,2.59,0,0,1,.9-.6,2.75,2.75,0,0,1,1.07-.2,2.12,2.12,0,0,1,1,.2,3.47,3.47,0,0,1,.72.48l-.5.65a3.06,3.06,0,0,0-.53-.38,1.46,1.46,0,0,0-.63-.14,1.67,1.67,0,0,0-.74.16,1.6,1.6,0,0,0-.57.47,2.09,2.09,0,0,0-.38.71,3,3,0,0,0-.14.92,3.22,3.22,0,0,0,.13.91,2.23,2.23,0,0,0,.37.7,1.59,1.59,0,0,0,.57.46,1.63,1.63,0,0,0,.73.16,1.6,1.6,0,0,0,.75-.18,2.9,2.9,0,0,0,.62-.41l.43.66a3.29,3.29,0,0,1-.87.55A2.7,2.7,0,0,1,315,138.54Z"/><path class="b90feb31-d722-4b05-8652-d873fd8d8109" d="M319.64,138.54a3.18,3.18,0,0,1-1.19-.22,4.09,4.09,0,0,1-1-.58l.49-.66a3.37,3.37,0,0,0,.79.5,2,2,0,0,0,.92.2,1.23,1.23,0,0,0,.87-.27.84.84,0,0,0,.29-.64.65.65,0,0,0-.12-.4,1.23,1.23,0,0,0-.31-.29A2.18,2.18,0,0,0,320,136l-.47-.19q-.31-.1-.63-.24a3.09,3.09,0,0,1-.56-.34,1.75,1.75,0,0,1-.4-.46,1.29,1.29,0,0,1-.16-.64,1.58,1.58,0,0,1,.14-.65,1.49,1.49,0,0,1,.4-.53,1.75,1.75,0,0,1,.63-.35,2.75,2.75,0,0,1,.84-.12,2.56,2.56,0,0,1,1,.19,2.94,2.94,0,0,1,.8.46l-.47.63a2.82,2.82,0,0,0-.62-.37,1.67,1.67,0,0,0-.71-.15,1.11,1.11,0,0,0-.81.26.78.78,0,0,0-.26.58.61.61,0,0,0,.11.36,1.05,1.05,0,0,0,.29.26,3.13,3.13,0,0,0,.41.21l.49.18.63.25a2.66,2.66,0,0,1,.57.33,1.63,1.63,0,0,1,.41.49,1.35,1.35,0,0,1,.16.69,1.72,1.72,0,0,1-.13.68,1.69,1.69,0,0,1-.41.55,2.06,2.06,0,0,1-.67.38A2.92,2.92,0,0,1,319.64,138.54Z"/><path class="b90feb31-d722-4b05-8652-d873fd8d8109" d="M324.67,138.54a3.18,3.18,0,0,1-1.19-.22,3.9,3.9,0,0,1-1-.58l.49-.66a3.32,3.32,0,0,0,.78.5,2.12,2.12,0,0,0,.93.2,1.23,1.23,0,0,0,.87-.27.84.84,0,0,0,.29-.64.65.65,0,0,0-.12-.4,1.23,1.23,0,0,0-.31-.29A2.5,2.5,0,0,0,325,136l-.48-.19-.62-.24a2.78,2.78,0,0,1-.56-.34,1.75,1.75,0,0,1-.4-.46,1.19,1.19,0,0,1-.16-.64,1.58,1.58,0,0,1,.14-.65,1.49,1.49,0,0,1,.4-.53,1.75,1.75,0,0,1,.63-.35,2.75,2.75,0,0,1,.84-.12,2.56,2.56,0,0,1,1,.19,2.94,2.94,0,0,1,.8.46l-.47.63a3.08,3.08,0,0,0-.62-.37,1.71,1.71,0,0,0-.71-.15,1.11,1.11,0,0,0-.81.26.78.78,0,0,0-.26.58.61.61,0,0,0,.11.36,1.05,1.05,0,0,0,.29.26,2.61,2.61,0,0,0,.41.21l.49.18.63.25a2.66,2.66,0,0,1,.57.33,1.63,1.63,0,0,1,.41.49,1.35,1.35,0,0,1,.16.69,1.72,1.72,0,0,1-.13.68,1.69,1.69,0,0,1-.41.55,2.11,2.11,0,0,1-.68.38A2.82,2.82,0,0,1,324.67,138.54Z"/><path class="b90feb31-d722-4b05-8652-d873fd8d8109" d="M197.15,154.69a1.26,1.26,0,0,1-.51-.11,1.21,1.21,0,0,1-.43-.29,1.44,1.44,0,0,1-.29-.46,1.55,1.55,0,0,1-.11-.59,1.63,1.63,0,0,1,.11-.59,1.29,1.29,0,0,1,.29-.45,1.39,1.39,0,0,1,.43-.3,1.24,1.24,0,0,1,1,0,1.32,1.32,0,0,1,.44.3,1.29,1.29,0,0,1,.29.45,1.63,1.63,0,0,1,.11.59,1.55,1.55,0,0,1-.11.59,1.44,1.44,0,0,1-.29.46,1.17,1.17,0,0,1-.44.29A1.26,1.26,0,0,1,197.15,154.69Z"/><path class="b90feb31-d722-4b05-8652-d873fd8d8109" d="M204.67,156.54a2.73,2.73,0,0,1-1.08-.2,2.28,2.28,0,0,1-.87-.59,2.71,2.71,0,0,1-.58-1,3.71,3.71,0,0,1-.21-1.29,3.47,3.47,0,0,1,.23-1.3,2.72,2.72,0,0,1,.61-1,2.55,2.55,0,0,1,.89-.6,2.8,2.8,0,0,1,1.08-.2,2.12,2.12,0,0,1,1,.2,3.76,3.76,0,0,1,.72.48l-.5.65a2.78,2.78,0,0,0-.54-.38,1.39,1.39,0,0,0-.63-.14,1.66,1.66,0,0,0-.73.16,1.6,1.6,0,0,0-.57.47,2.09,2.09,0,0,0-.38.71,3,3,0,0,0-.14.92,2.9,2.9,0,0,0,.13.91,2.23,2.23,0,0,0,.37.7,1.51,1.51,0,0,0,.57.46,1.63,1.63,0,0,0,.73.16,1.6,1.6,0,0,0,.75-.18,2.9,2.9,0,0,0,.62-.41l.43.66a3.34,3.34,0,0,1-.88.55A2.62,2.62,0,0,1,204.67,156.54Z"/><path class="b90feb31-d722-4b05-8652-d873fd8d8109" d="M207.83,156.4v-5.83h.82l.08,1.05h0a2.63,2.63,0,0,1,.73-.87,1.46,1.46,0,0,1,.93-.32,1.52,1.52,0,0,1,.62.11l-.19.87a1.8,1.8,0,0,0-.27-.07,1.26,1.26,0,0,0-.3,0,1.32,1.32,0,0,0-.77.3,2.37,2.37,0,0,0-.7,1v3.74Z"/><path class="b90feb31-d722-4b05-8652-d873fd8d8109" d="M214.24,156.54a2.87,2.87,0,0,1-1.1-.21,2.42,2.42,0,0,1-.88-.6,2.71,2.71,0,0,1-.6-.95,3.66,3.66,0,0,1-.21-1.28,3.49,3.49,0,0,1,.22-1.29,2.93,2.93,0,0,1,.59-1,2.74,2.74,0,0,1,.83-.61,2.34,2.34,0,0,1,1-.2,2.4,2.4,0,0,1,1,.19,1.81,1.81,0,0,1,.73.55,2.43,2.43,0,0,1,.45.86,3.63,3.63,0,0,1,.16,1.13c0,.11,0,.21,0,.31a.9.9,0,0,1,0,.25h-3.93a2.29,2.29,0,0,0,.58,1.49,1.81,1.81,0,0,0,1.36.54,2.45,2.45,0,0,0,.78-.12,4.17,4.17,0,0,0,.67-.33l.35.65a5.61,5.61,0,0,1-.85.42A3.2,3.2,0,0,1,214.24,156.54ZM212.41,153h3.12a2.09,2.09,0,0,0-.38-1.35,1.29,1.29,0,0,0-1.06-.46,1.52,1.52,0,0,0-.6.11,1.49,1.49,0,0,0-.51.36,2,2,0,0,0-.38.57A2.48,2.48,0,0,0,212.41,153Z"/><path class="b90feb31-d722-4b05-8652-d873fd8d8109" d="M219,156.54a1.75,1.75,0,0,1-1.22-.43,1.53,1.53,0,0,1-.49-1.22,1.63,1.63,0,0,1,.85-1.47,7,7,0,0,1,2.73-.71,2.51,2.51,0,0,0-.06-.55,1.17,1.17,0,0,0-.18-.46.91.91,0,0,0-.37-.33,1.15,1.15,0,0,0-.59-.13,2.34,2.34,0,0,0-1,.19,4.53,4.53,0,0,0-.79.44l-.39-.69a7.12,7.12,0,0,1,1-.51,3.38,3.38,0,0,1,1.3-.24,1.77,1.77,0,0,1,1.54.65,2.89,2.89,0,0,1,.48,1.74v3.58h-.81l-.09-.69h0a5.37,5.37,0,0,1-.9.59A2.29,2.29,0,0,1,219,156.54Zm.28-.79a1.61,1.61,0,0,0,.8-.2,3.93,3.93,0,0,0,.79-.58v-1.62a10.56,10.56,0,0,0-1.23.23,3.52,3.52,0,0,0-.81.31,1.19,1.19,0,0,0-.44.42,1,1,0,0,0-.14.51.84.84,0,0,0,.3.72A1.26,1.26,0,0,0,219.29,155.75Z"/><path class="b90feb31-d722-4b05-8652-d873fd8d8109" d="M226.11,156.4v-5.83h.82l.08,1.05h0a2.73,2.73,0,0,1,.72-.87,1.5,1.5,0,0,1,.93-.32,1.61,1.61,0,0,1,.63.11l-.2.87a1.45,1.45,0,0,0-.26-.07,1.22,1.22,0,0,0-1.07.27,2.38,2.38,0,0,0-.71,1v3.74Z"/><path class="b90feb31-d722-4b05-8652-d873fd8d8109" d="M232.52,156.54a2.87,2.87,0,0,1-1.1-.21,2.46,2.46,0,0,1-.89-.6,2.69,2.69,0,0,1-.59-.95,3.44,3.44,0,0,1-.22-1.28,3.71,3.71,0,0,1,.22-1.29,3.11,3.11,0,0,1,.59-1,2.78,2.78,0,0,1,.84-.61,2.31,2.31,0,0,1,1-.2,2.4,2.4,0,0,1,1,.19,1.88,1.88,0,0,1,.73.55,2.43,2.43,0,0,1,.45.86,4,4,0,0,1,.16,1.13c0,.11,0,.21,0,.31a.9.9,0,0,1,0,.25h-3.94a2.29,2.29,0,0,0,.59,1.49,1.79,1.79,0,0,0,1.36.54,2.35,2.35,0,0,0,.77-.12,4.27,4.27,0,0,0,.68-.33l.35.65a6.11,6.11,0,0,1-.85.42A3.25,3.25,0,0,1,232.52,156.54ZM230.68,153h3.12a2,2,0,0,0-.38-1.35,1.28,1.28,0,0,0-1.06-.46,1.43,1.43,0,0,0-1.1.47,2,2,0,0,0-.38.57A2.48,2.48,0,0,0,230.68,153Z"/><path class="b90feb31-d722-4b05-8652-d873fd8d8109" d="M237.63,156.54a3.18,3.18,0,0,1-1.19-.22,4.09,4.09,0,0,1-1-.58l.49-.66a3.59,3.59,0,0,0,.79.5,2.06,2.06,0,0,0,.93.2,1.22,1.22,0,0,0,.86-.27.84.84,0,0,0,.29-.64.65.65,0,0,0-.12-.4,1.08,1.08,0,0,0-.31-.29A2.08,2.08,0,0,0,238,154l-.48-.19q-.31-.1-.63-.24a3.09,3.09,0,0,1-.56-.34,2,2,0,0,1-.4-.46,1.29,1.29,0,0,1-.15-.64,1.57,1.57,0,0,1,.13-.65,1.61,1.61,0,0,1,.4-.53,1.75,1.75,0,0,1,.63-.35,2.75,2.75,0,0,1,.84-.12,2.53,2.53,0,0,1,1,.19,2.94,2.94,0,0,1,.8.46l-.47.63a2.82,2.82,0,0,0-.62-.37,1.67,1.67,0,0,0-.71-.15,1.11,1.11,0,0,0-.81.26.78.78,0,0,0-.26.58.61.61,0,0,0,.11.36,1.05,1.05,0,0,0,.29.26,3.13,3.13,0,0,0,.41.21l.49.18.63.25a2.66,2.66,0,0,1,.57.33,1.49,1.49,0,0,1,.41.49,1.36,1.36,0,0,1,.17.69,1.72,1.72,0,0,1-.14.68,1.56,1.56,0,0,1-.41.55,2.06,2.06,0,0,1-.67.38A2.92,2.92,0,0,1,237.63,156.54Z"/><path class="b90feb31-d722-4b05-8652-d873fd8d8109" d="M241.13,158.86v-8.29H242l.08.67h0a4.39,4.39,0,0,1,.87-.58,2.31,2.31,0,0,1,1-.23,2.26,2.26,0,0,1,1,.2,2.18,2.18,0,0,1,.72.6,2.9,2.9,0,0,1,.43.94,4.71,4.71,0,0,1,.15,1.23,3.91,3.91,0,0,1-.2,1.33,3.14,3.14,0,0,1-.55,1,2.17,2.17,0,0,1-.81.61,2.24,2.24,0,0,1-1,.21,2.14,2.14,0,0,1-.81-.17,5.25,5.25,0,0,1-.81-.5l0,1v2Zm2.42-3.14a1.35,1.35,0,0,0,.66-.17,1.52,1.52,0,0,0,.53-.45,2.36,2.36,0,0,0,.35-.73,3.63,3.63,0,0,0,.12-1,3.9,3.9,0,0,0-.08-.87,2.1,2.1,0,0,0-.27-.68,1.2,1.2,0,0,0-.48-.44,1.42,1.42,0,0,0-.7-.16,1.52,1.52,0,0,0-.75.21,4.44,4.44,0,0,0-.81.58v3.07a2.57,2.57,0,0,0,.77.47A1.91,1.91,0,0,0,243.55,155.72Z"/><path class="b90feb31-d722-4b05-8652-d873fd8d8109" d="M249.5,156.54a1.58,1.58,0,0,1-1.36-.57,2.81,2.81,0,0,1-.43-1.7v-3.7h1v3.56a2.17,2.17,0,0,0,.25,1.2,1,1,0,0,0,.84.36,1.37,1.37,0,0,0,.8-.23,4.06,4.06,0,0,0,.77-.75v-4.14h1v5.83h-.81l-.09-.91h0a4.07,4.07,0,0,1-.86.77A1.93,1.93,0,0,1,249.5,156.54Z"/><path class="b90feb31-d722-4b05-8652-d873fd8d8109" d="M256.69,156.54a2.84,2.84,0,0,1-1.1-.21,2.46,2.46,0,0,1-.89-.6,2.69,2.69,0,0,1-.59-.95,3.44,3.44,0,0,1-.22-1.28,3.49,3.49,0,0,1,.22-1.29,3.11,3.11,0,0,1,.59-1,2.67,2.67,0,0,1,.84-.61,2.31,2.31,0,0,1,1-.2,2.4,2.4,0,0,1,1,.19,1.88,1.88,0,0,1,.73.55,2.61,2.61,0,0,1,.45.86,4,4,0,0,1,.15,1.13v.31a1.56,1.56,0,0,1,0,.25h-3.94a2.29,2.29,0,0,0,.59,1.49,1.79,1.79,0,0,0,1.36.54,2.39,2.39,0,0,0,.77-.12,4.27,4.27,0,0,0,.68-.33l.35.65a5.73,5.73,0,0,1-.86.42A3.14,3.14,0,0,1,256.69,156.54ZM254.85,153H258a2.09,2.09,0,0,0-.38-1.35,1.28,1.28,0,0,0-1.06-.46,1.44,1.44,0,0,0-.59.11,1.49,1.49,0,0,0-.51.36,1.78,1.78,0,0,0-.38.57A2.48,2.48,0,0,0,254.85,153Z"/><path class="b90feb31-d722-4b05-8652-d873fd8d8109" d="M261.8,156.54a3.18,3.18,0,0,1-1.19-.22,4.09,4.09,0,0,1-1-.58l.49-.66a3.59,3.59,0,0,0,.79.5,2,2,0,0,0,.92.2,1.23,1.23,0,0,0,.87-.27.84.84,0,0,0,.29-.64.65.65,0,0,0-.12-.4,1.23,1.23,0,0,0-.31-.29,2.18,2.18,0,0,0-.43-.23l-.47-.19q-.32-.1-.63-.24a3.09,3.09,0,0,1-.56-.34,1.75,1.75,0,0,1-.4-.46,1.29,1.29,0,0,1-.15-.64,1.57,1.57,0,0,1,.13-.65,1.49,1.49,0,0,1,.4-.53,1.75,1.75,0,0,1,.63-.35,2.75,2.75,0,0,1,.84-.12,2.56,2.56,0,0,1,1,.19,2.94,2.94,0,0,1,.8.46l-.47.63a2.82,2.82,0,0,0-.62-.37,1.67,1.67,0,0,0-.71-.15,1.11,1.11,0,0,0-.81.26.78.78,0,0,0-.26.58.61.61,0,0,0,.11.36,1.05,1.05,0,0,0,.29.26,3.13,3.13,0,0,0,.41.21l.49.18.63.25a2.66,2.66,0,0,1,.57.33,1.49,1.49,0,0,1,.41.49,1.35,1.35,0,0,1,.16.69,1.72,1.72,0,0,1-.13.68,1.56,1.56,0,0,1-.41.55,2.06,2.06,0,0,1-.67.38A2.92,2.92,0,0,1,261.8,156.54Z"/><path class="b90feb31-d722-4b05-8652-d873fd8d8109" d="M266.9,156.54a1.89,1.89,0,0,1-.79-.14,1.36,1.36,0,0,1-.51-.4,1.43,1.43,0,0,1-.28-.61,3.24,3.24,0,0,1-.09-.79v-3.23h-.86v-.74l.91-.06.12-1.63h.83v1.63h1.57v.8h-1.57v3.24a1.45,1.45,0,0,0,.2.84.79.79,0,0,0,.7.29,1.39,1.39,0,0,0,.33-.05l.33-.11.19.75c-.16,0-.33.11-.52.15A2.74,2.74,0,0,1,266.9,156.54Z"/><path class="b90feb31-d722-4b05-8652-d873fd8d8109" d="M270.21,156.54a1.77,1.77,0,0,1-1.22-.43,1.55,1.55,0,0,1-.48-1.22,1.61,1.61,0,0,1,.85-1.47,7,7,0,0,1,2.72-.71,2.5,2.5,0,0,0-.05-.55,1.35,1.35,0,0,0-.19-.46.89.89,0,0,0-.36-.33,1.21,1.21,0,0,0-.6-.13,2.29,2.29,0,0,0-.94.19,5,5,0,0,0-.8.44l-.38-.69a6.16,6.16,0,0,1,1-.51,3.37,3.37,0,0,1,1.29-.24,1.79,1.79,0,0,1,1.55.65,2.89,2.89,0,0,1,.48,1.74v3.58h-.82l-.08-.69h0a5.37,5.37,0,0,1-.9.59A2.26,2.26,0,0,1,270.21,156.54Zm.29-.79a1.57,1.57,0,0,0,.79-.2,3.67,3.67,0,0,0,.79-.58v-1.62a11.43,11.43,0,0,0-1.23.23,3.26,3.26,0,0,0-.8.31,1.19,1.19,0,0,0-.44.42.89.89,0,0,0-.14.51.84.84,0,0,0,.3.72A1.23,1.23,0,0,0,270.5,155.75Z"/><path class="b90feb31-d722-4b05-8652-d873fd8d8109" d="M277.32,156.4v-8.54h1v2.33l0,1.19a5.39,5.39,0,0,1,.88-.67,2,2,0,0,1,1.07-.28,1.59,1.59,0,0,1,1.35.57,2.87,2.87,0,0,1,.42,1.71v3.69h-1v-3.56a2.18,2.18,0,0,0-.26-1.2,1,1,0,0,0-.84-.36,1.45,1.45,0,0,0-.81.22,5.94,5.94,0,0,0-.79.68v4.22Z"/><path class="b90feb31-d722-4b05-8652-d873fd8d8109" d="M285.68,156.54a1.89,1.89,0,0,1-.79-.14,1.36,1.36,0,0,1-.51-.4,1.43,1.43,0,0,1-.28-.61,3.24,3.24,0,0,1-.09-.79v-3.23h-.86v-.74l.91-.06.12-1.63H285v1.63h1.57v.8H285v3.24a1.45,1.45,0,0,0,.2.84.79.79,0,0,0,.7.29,1.39,1.39,0,0,0,.33-.05l.33-.11.19.75c-.16,0-.33.11-.52.15A2.74,2.74,0,0,1,285.68,156.54Z"/><path class="b90feb31-d722-4b05-8652-d873fd8d8109" d="M287.9,156.4v-5.83h.82l.08.84h0a3.64,3.64,0,0,1,.83-.7,1.8,1.8,0,0,1,1-.28,1.64,1.64,0,0,1,1.05.29,1.7,1.7,0,0,1,.56.82,5.52,5.52,0,0,1,.91-.81,1.84,1.84,0,0,1,1-.3,1.56,1.56,0,0,1,1.33.57,2.73,2.73,0,0,1,.44,1.71v3.69h-1v-3.56a2.09,2.09,0,0,0-.27-1.2.92.92,0,0,0-.81-.36,2.18,2.18,0,0,0-1.47.9v4.22h-1v-3.56a2.18,2.18,0,0,0-.26-1.2,1,1,0,0,0-.83-.36,2.18,2.18,0,0,0-1.47.9v4.22Z"/><path class="b90feb31-d722-4b05-8652-d873fd8d8109" d="M298.89,156.54a.93.93,0,0,1-.8-.33,1.7,1.7,0,0,1-.24-1v-7.36h1v7.44a.47.47,0,0,0,.09.33.23.23,0,0,0,.19.1h.09l.12,0,.14.74-.23.07A1.67,1.67,0,0,1,298.89,156.54Z"/><path class="b90feb31-d722-4b05-8652-d873fd8d8109" d="M205.82,171a2.81,2.81,0,0,1-1.08-.21,2.28,2.28,0,0,1-.87-.59,2.71,2.71,0,0,1-.58-1,3.71,3.71,0,0,1-.21-1.29,3.47,3.47,0,0,1,.23-1.3,2.87,2.87,0,0,1,.61-1,2.71,2.71,0,0,1,2-.8,2.16,2.16,0,0,1,1,.2,3.76,3.76,0,0,1,.72.48l-.51.65a2.31,2.31,0,0,0-.53-.37,1.33,1.33,0,0,0-.63-.15,1.74,1.74,0,0,0-.73.16,1.55,1.55,0,0,0-.58.47,2.09,2.09,0,0,0-.38.71,3,3,0,0,0-.14.92,2.9,2.9,0,0,0,.14.91,2.21,2.21,0,0,0,.36.7,1.68,1.68,0,0,0,.57.46,1.66,1.66,0,0,0,.73.16,1.72,1.72,0,0,0,.75-.17,3.07,3.07,0,0,0,.62-.42l.43.66a3.05,3.05,0,0,1-.87.55A2.67,2.67,0,0,1,205.82,171Z"/><path class="b90feb31-d722-4b05-8652-d873fd8d8109" d="M211,171a2.52,2.52,0,0,1-1-.21,2.41,2.41,0,0,1-.86-.59,2.73,2.73,0,0,1-.59-1,3.76,3.76,0,0,1,0-2.59,2.69,2.69,0,0,1,.59-1,2.57,2.57,0,0,1,.86-.6,2.51,2.51,0,0,1,1-.2,2.56,2.56,0,0,1,1,.2,2.67,2.67,0,0,1,.86.6,3,3,0,0,1,.59,1,3.92,3.92,0,0,1,0,2.59,3.06,3.06,0,0,1-.59,1,2.5,2.5,0,0,1-.86.59A2.56,2.56,0,0,1,211,171Zm0-.82a1.46,1.46,0,0,0,.69-.16,1.65,1.65,0,0,0,.53-.46,2.17,2.17,0,0,0,.34-.7,3.23,3.23,0,0,0,.12-.91,3.31,3.31,0,0,0-.12-.92,2,2,0,0,0-.34-.71,1.57,1.57,0,0,0-.53-.47,1.59,1.59,0,0,0-.69-.16,1.55,1.55,0,0,0-.68.16,1.4,1.4,0,0,0-.53.47,2.05,2.05,0,0,0-.35.71,3.31,3.31,0,0,0-.12.92,3.23,3.23,0,0,0,.12.91,2.19,2.19,0,0,0,.35.7,1.46,1.46,0,0,0,.53.46A1.42,1.42,0,0,0,211,170.13Z"/><path class="b90feb31-d722-4b05-8652-d873fd8d8109" d="M215.24,170.8V165h.81l.09.84h0a4.71,4.71,0,0,1,.89-.7,2,2,0,0,1,1.07-.28,1.57,1.57,0,0,1,1.35.57,2.89,2.89,0,0,1,.43,1.71v3.69h-1v-3.56a2.18,2.18,0,0,0-.26-1.2,1,1,0,0,0-.84-.36,1.47,1.47,0,0,0-.81.22,5.94,5.94,0,0,0-.79.68v4.22Z"/><path class="b90feb31-d722-4b05-8652-d873fd8d8109" d="M226.19,171a2.15,2.15,0,0,1-1.75-.8,3.43,3.43,0,0,1-.66-2.25,3.7,3.7,0,0,1,.21-1.28,3.17,3.17,0,0,1,.56-1,2.62,2.62,0,0,1,.8-.61,2.31,2.31,0,0,1,1-.21,1.87,1.87,0,0,1,.88.18,3.47,3.47,0,0,1,.76.49l0-1v-2.24h1v8.54h-.81l-.08-.68h0a3.65,3.65,0,0,1-.8.58A2,2,0,0,1,226.19,171Zm.22-.83a1.61,1.61,0,0,0,.77-.2,2.6,2.6,0,0,0,.72-.61v-3a2.37,2.37,0,0,0-.72-.48,1.86,1.86,0,0,0-.7-.14,1.45,1.45,0,0,0-.65.16,1.81,1.81,0,0,0-.54.46,2.43,2.43,0,0,0-.36.7,3.28,3.28,0,0,0-.13.91,2.79,2.79,0,0,0,.42,1.65A1.39,1.39,0,0,0,226.41,170.12Z"/><path class="b90feb31-d722-4b05-8652-d873fd8d8109" d="M232.21,171a1.76,1.76,0,0,1-1.22-.44,1.56,1.56,0,0,1-.49-1.22,1.63,1.63,0,0,1,.85-1.47,7,7,0,0,1,2.73-.71,3.31,3.31,0,0,0-.05-.55,1.35,1.35,0,0,0-.19-.46.91.91,0,0,0-.37-.33,1.15,1.15,0,0,0-.59-.13,2.52,2.52,0,0,0-.95.19,4.53,4.53,0,0,0-.79.44l-.39-.69a7.12,7.12,0,0,1,1-.51,3.42,3.42,0,0,1,1.3-.24,1.77,1.77,0,0,1,1.54.65,2.83,2.83,0,0,1,.49,1.74v3.58h-.82l-.09-.69h0a4.81,4.81,0,0,1-.9.59A2.27,2.27,0,0,1,232.21,171Zm.29-.8a1.7,1.7,0,0,0,.79-.19,4.14,4.14,0,0,0,.79-.59v-1.62a10.56,10.56,0,0,0-1.23.23,3.52,3.52,0,0,0-.81.31,1.19,1.19,0,0,0-.44.42,1,1,0,0,0-.14.51.84.84,0,0,0,.3.72A1.27,1.27,0,0,0,232.5,170.15Z"/><path class="b90feb31-d722-4b05-8652-d873fd8d8109" d="M238.58,171a1.86,1.86,0,0,1-.79-.15,1.27,1.27,0,0,1-.51-.4,1.32,1.32,0,0,1-.28-.61,3.24,3.24,0,0,1-.09-.79v-3.23h-.86V165L237,165l.12-1.63h.83V165h1.57v.8h-1.57V169a1.54,1.54,0,0,0,.19.84.82.82,0,0,0,.71.29,1.39,1.39,0,0,0,.33,0,1.6,1.6,0,0,0,.33-.11l.19.75a4,4,0,0,1-.52.15A2.77,2.77,0,0,1,238.58,171Z"/><path class="b90feb31-d722-4b05-8652-d873fd8d8109" d="M242.9,171a2.6,2.6,0,0,1-1-.21,2.5,2.5,0,0,1-.86-.59,3.06,3.06,0,0,1-.59-1,3.92,3.92,0,0,1,0-2.59,3,3,0,0,1,.59-1,2.67,2.67,0,0,1,.86-.6,2.59,2.59,0,0,1,1-.2,2.51,2.51,0,0,1,1,.2,2.57,2.57,0,0,1,.86.6,2.85,2.85,0,0,1,.6,1,3.92,3.92,0,0,1,0,2.59,2.9,2.9,0,0,1-.6,1,2.41,2.41,0,0,1-.86.59A2.52,2.52,0,0,1,242.9,171Zm0-.82a1.42,1.42,0,0,0,.68-.16,1.58,1.58,0,0,0,.54-.46,2.4,2.4,0,0,0,.34-.7,3.23,3.23,0,0,0,.12-.91,3.31,3.31,0,0,0-.12-.92,2.23,2.23,0,0,0-.34-.71,1.51,1.51,0,0,0-.54-.47,1.55,1.55,0,0,0-.68-.16,1.59,1.59,0,0,0-.69.16,1.57,1.57,0,0,0-.53.47,2,2,0,0,0-.34.71,3.31,3.31,0,0,0-.12.92,3.23,3.23,0,0,0,.12.91,2.17,2.17,0,0,0,.34.7,1.65,1.65,0,0,0,.53.46A1.46,1.46,0,0,0,242.9,170.13Z"/><path class="b90feb31-d722-4b05-8652-d873fd8d8109" d="M248.66,171a3.19,3.19,0,0,1-1.19-.23,3.9,3.9,0,0,1-1-.58l.49-.66a3.54,3.54,0,0,0,.78.5,2.12,2.12,0,0,0,.93.2,1.23,1.23,0,0,0,.87-.27.84.84,0,0,0,.29-.64.65.65,0,0,0-.12-.4,1.23,1.23,0,0,0-.31-.29,2.18,2.18,0,0,0-.43-.23l-.48-.19-.62-.24a3.09,3.09,0,0,1-.56-.34,1.75,1.75,0,0,1-.4-.46,1.29,1.29,0,0,1-.16-.64,1.58,1.58,0,0,1,.14-.65,1.49,1.49,0,0,1,.4-.53,1.91,1.91,0,0,1,.63-.35,2.75,2.75,0,0,1,.84-.12,2.56,2.56,0,0,1,1,.19,2.94,2.94,0,0,1,.8.46l-.47.63a3.08,3.08,0,0,0-.62-.37,1.67,1.67,0,0,0-.71-.15,1.11,1.11,0,0,0-.81.26.78.78,0,0,0-.26.58.61.61,0,0,0,.11.36,1.05,1.05,0,0,0,.29.26,2.25,2.25,0,0,0,.41.21l.49.18.63.25a2.66,2.66,0,0,1,.57.33,1.63,1.63,0,0,1,.41.49,1.37,1.37,0,0,1,.16.7,1.67,1.67,0,0,1-.13.67,1.69,1.69,0,0,1-.41.55,2.17,2.17,0,0,1-.67.38A2.91,2.91,0,0,1,248.66,171Z"/><path class="b90feb31-d722-4b05-8652-d873fd8d8109" d="M256.93,171a2.7,2.7,0,0,1-1.1-.22,2.46,2.46,0,0,1-.89-.6,2.6,2.6,0,0,1-.59-.95,3.44,3.44,0,0,1-.22-1.28,3.71,3.71,0,0,1,.22-1.29,3.11,3.11,0,0,1,.59-1,2.49,2.49,0,0,1,.84-.6,2.18,2.18,0,0,1,1-.21,2.4,2.4,0,0,1,1,.19,1.88,1.88,0,0,1,.73.55,2.43,2.43,0,0,1,.45.86,4,4,0,0,1,.16,1.13c0,.11,0,.21,0,.31a1.56,1.56,0,0,1,0,.25H255.1a2.29,2.29,0,0,0,.59,1.49,1.79,1.79,0,0,0,1.36.54,2.39,2.39,0,0,0,.77-.12,4.27,4.27,0,0,0,.68-.33l.35.65a6.11,6.11,0,0,1-.85.42A3.24,3.24,0,0,1,256.93,171Zm-1.84-3.53h3.12a2.11,2.11,0,0,0-.38-1.35,1.28,1.28,0,0,0-1.06-.46,1.43,1.43,0,0,0-1.1.47,1.78,1.78,0,0,0-.38.57A2.48,2.48,0,0,0,255.09,167.42Z"/><path class="b90feb31-d722-4b05-8652-d873fd8d8109" d="M260.52,170.8V165h.81l.09.84h0a4.66,4.66,0,0,1,.88-.7,2,2,0,0,1,1.08-.28,1.59,1.59,0,0,1,1.35.57,2.89,2.89,0,0,1,.42,1.71v3.69h-1v-3.56a2.18,2.18,0,0,0-.26-1.2,1,1,0,0,0-.84-.36,1.45,1.45,0,0,0-.81.22,5.37,5.37,0,0,0-.79.68v4.22Z"/><path class="b90feb31-d722-4b05-8652-d873fd8d8109" d="M268.34,170.8l-2.1-5.83h1l1.1,3.31.27.86c.1.29.19.58.27.86H269l.27-.86c.08-.28.17-.57.26-.86l1.1-3.31h1l-2.07,5.83Z"/><path class="b90feb31-d722-4b05-8652-d873fd8d8109" d="M273.19,163.77a.71.71,0,0,1-.49-.18.63.63,0,0,1,0-.92.7.7,0,0,1,.49-.17.67.67,0,0,1,.48.17.63.63,0,0,1,0,.92A.68.68,0,0,1,273.19,163.77Zm-.51,7V165h1v5.83Z"/><path class="b90feb31-d722-4b05-8652-d873fd8d8109" d="M277,171a1.76,1.76,0,0,1-1.22-.44,1.55,1.55,0,0,1-.48-1.22,1.61,1.61,0,0,1,.85-1.47,6.92,6.92,0,0,1,2.72-.71,3.31,3.31,0,0,0-.05-.55,1.35,1.35,0,0,0-.19-.46,1,1,0,0,0-.36-.33,1.21,1.21,0,0,0-.6-.13,2.56,2.56,0,0,0-.95.19,4.93,4.93,0,0,0-.79.44l-.38-.69a6.46,6.46,0,0,1,1-.51,3.46,3.46,0,0,1,1.3-.24,1.79,1.79,0,0,1,1.55.65,2.89,2.89,0,0,1,.48,1.74v3.58H279l-.08-.69h0a4.81,4.81,0,0,1-.9.59A2.27,2.27,0,0,1,277,171Zm.29-.8a1.67,1.67,0,0,0,.79-.19,4.14,4.14,0,0,0,.79-.59v-1.62a10.56,10.56,0,0,0-1.23.23,3.26,3.26,0,0,0-.8.31,1.15,1.15,0,0,0-.45.42,1,1,0,0,0-.13.51.82.82,0,0,0,.3.72A1.23,1.23,0,0,0,277.27,170.15Z"/><path class="b90feb31-d722-4b05-8652-d873fd8d8109" d="M283.67,171a2.15,2.15,0,0,1-1.75-.8,3.43,3.43,0,0,1-.66-2.25,3.7,3.7,0,0,1,.21-1.28,3.17,3.17,0,0,1,.56-1,2.62,2.62,0,0,1,.8-.61,2.31,2.31,0,0,1,1-.21,1.87,1.87,0,0,1,.88.18,3.47,3.47,0,0,1,.76.49l-.05-1v-2.24h1v8.54h-.82l-.08-.68h0a3.65,3.65,0,0,1-.8.58A2,2,0,0,1,283.67,171Zm.22-.83a1.61,1.61,0,0,0,.77-.2,2.6,2.6,0,0,0,.72-.61v-3a2.47,2.47,0,0,0-.71-.48,2,2,0,0,0-.71-.14,1.45,1.45,0,0,0-.65.16,1.78,1.78,0,0,0-.53.46,2,2,0,0,0-.36.7,2.94,2.94,0,0,0-.14.91,2.79,2.79,0,0,0,.42,1.65A1.39,1.39,0,0,0,283.89,170.12Z"/><path class="b90feb31-d722-4b05-8652-d873fd8d8109" d="M290.61,171a2.6,2.6,0,0,1-1-.21,2.46,2.46,0,0,1-.85-.59,2.9,2.9,0,0,1-.6-1,3.92,3.92,0,0,1,0-2.59,2.85,2.85,0,0,1,.6-1,2.63,2.63,0,0,1,.85-.6,2.75,2.75,0,0,1,2.06,0,2.67,2.67,0,0,1,.86.6,3,3,0,0,1,.59,1,3.92,3.92,0,0,1,0,2.59,3.06,3.06,0,0,1-.59,1,2.5,2.5,0,0,1-.86.59A2.6,2.6,0,0,1,290.61,171Zm0-.82a1.39,1.39,0,0,0,.68-.16,1.58,1.58,0,0,0,.54-.46,2.17,2.17,0,0,0,.34-.7,3.23,3.23,0,0,0,.12-.91,3.31,3.31,0,0,0-.12-.92,2,2,0,0,0-.34-.71,1.47,1.47,0,0,0-1.22-.63,1.55,1.55,0,0,0-.68.16,1.51,1.51,0,0,0-.54.47,2.23,2.23,0,0,0-.34.71,3.31,3.31,0,0,0-.12.92,3.23,3.23,0,0,0,.12.91,2.4,2.4,0,0,0,.34.7,1.58,1.58,0,0,0,.54.46A1.42,1.42,0,0,0,290.61,170.13Z"/><path class="b90feb31-d722-4b05-8652-d873fd8d8109" d="M296.37,171a3.23,3.23,0,0,1-1.19-.23,4.09,4.09,0,0,1-1-.58l.49-.66a3.59,3.59,0,0,0,.79.5,2.09,2.09,0,0,0,.93.2,1.22,1.22,0,0,0,.86-.27.84.84,0,0,0,.29-.64.65.65,0,0,0-.12-.4,1.08,1.08,0,0,0-.31-.29,2.08,2.08,0,0,0-.42-.23l-.48-.19q-.32-.1-.63-.24a3.48,3.48,0,0,1-.56-.34,2,2,0,0,1-.4-.46,1.29,1.29,0,0,1-.15-.64,1.57,1.57,0,0,1,.13-.65,1.61,1.61,0,0,1,.4-.53,1.91,1.91,0,0,1,.63-.35,2.75,2.75,0,0,1,.84-.12,2.53,2.53,0,0,1,1,.19,2.94,2.94,0,0,1,.8.46l-.47.63a2.82,2.82,0,0,0-.62-.37,1.64,1.64,0,0,0-.71-.15,1.12,1.12,0,0,0-.81.26.77.77,0,0,0-.25.58.61.61,0,0,0,.1.36,1.22,1.22,0,0,0,.29.26,2.06,2.06,0,0,0,.42.21l.48.18.63.25a2.66,2.66,0,0,1,.57.33,1.66,1.66,0,0,1,.42.49,1.48,1.48,0,0,1,.16.7,1.67,1.67,0,0,1-.14.67,1.56,1.56,0,0,1-.41.55,2.06,2.06,0,0,1-.67.38A2.91,2.91,0,0,1,296.37,171Z"/><path class="a0ecf452-6d87-445d-9958-f33adcf0a52a" d="M49.94,136.69a1.27,1.27,0,0,1-.52-.11,1.1,1.1,0,0,1-.42-.29,1.47,1.47,0,0,1-.3-.46,1.55,1.55,0,0,1-.1-.59,1.63,1.63,0,0,1,.1-.59,1.31,1.31,0,0,1,.3-.45,1.25,1.25,0,0,1,.42-.3,1.3,1.3,0,0,1,1.46.3,1.29,1.29,0,0,1,.29.45,1.44,1.44,0,0,1,.11.59,1.38,1.38,0,0,1-.11.59,1.44,1.44,0,0,1-.29.46,1.13,1.13,0,0,1-.43.29A1.26,1.26,0,0,1,49.94,136.69Z"/><path class="a0ecf452-6d87-445d-9958-f33adcf0a52a" d="M57.51,138.54a2.87,2.87,0,0,1-1.1-.21,2.42,2.42,0,0,1-.88-.6,2.71,2.71,0,0,1-.6-.95,3.65,3.65,0,0,1-.22-1.28,3.49,3.49,0,0,1,.23-1.29,2.78,2.78,0,0,1,.59-1,2.74,2.74,0,0,1,.83-.61,2.34,2.34,0,0,1,1-.2,2.4,2.4,0,0,1,1,.19,1.81,1.81,0,0,1,.73.55,2.43,2.43,0,0,1,.45.86,3.63,3.63,0,0,1,.16,1.13c0,.11,0,.21,0,.31a.9.9,0,0,1,0,.25H55.69a2.29,2.29,0,0,0,.58,1.49,1.81,1.81,0,0,0,1.36.54,2.45,2.45,0,0,0,.78-.12,4.17,4.17,0,0,0,.67-.33l.35.65a6.11,6.11,0,0,1-.85.42A3.2,3.2,0,0,1,57.51,138.54ZM55.67,135h3.12a2.09,2.09,0,0,0-.37-1.35,1.29,1.29,0,0,0-1.06-.46,1.52,1.52,0,0,0-.6.11,1.49,1.49,0,0,0-.51.36,2,2,0,0,0-.38.57A2.8,2.8,0,0,0,55.67,135Z"/><path class="a0ecf452-6d87-445d-9958-f33adcf0a52a" d="M62.62,138.54a3.13,3.13,0,0,1-1.18-.22,4,4,0,0,1-1-.58l.49-.66a3.59,3.59,0,0,0,.79.5,2.12,2.12,0,0,0,.93.2,1.22,1.22,0,0,0,.86-.27.84.84,0,0,0,.29-.64.65.65,0,0,0-.12-.4,1.08,1.08,0,0,0-.31-.29A2.08,2.08,0,0,0,63,136l-.48-.19a6.62,6.62,0,0,1-.62-.24,2.78,2.78,0,0,1-.56-.34,1.58,1.58,0,0,1-.4-.46,1.19,1.19,0,0,1-.16-.64,1.58,1.58,0,0,1,.14-.65,1.46,1.46,0,0,1,.39-.53,1.93,1.93,0,0,1,.63-.35,2.75,2.75,0,0,1,.84-.12,2.61,2.61,0,0,1,1,.19,3.1,3.1,0,0,1,.8.46l-.47.63a2.89,2.89,0,0,0-.63-.37,1.64,1.64,0,0,0-.71-.15,1.1,1.1,0,0,0-.8.26.75.75,0,0,0-.26.58.61.61,0,0,0,.1.36,1.22,1.22,0,0,0,.29.26,2.74,2.74,0,0,0,.42.21L63,135l.63.25a2.24,2.24,0,0,1,.57.33,1.66,1.66,0,0,1,.42.49,1.35,1.35,0,0,1,.16.69,1.72,1.72,0,0,1-.14.68,1.56,1.56,0,0,1-.41.55,2.06,2.06,0,0,1-.67.38A2.88,2.88,0,0,1,62.62,138.54Z"/><path class="a0ecf452-6d87-445d-9958-f33adcf0a52a" d="M67.72,138.54a1.81,1.81,0,0,1-.78-.14,1.39,1.39,0,0,1-.52-.4,1.56,1.56,0,0,1-.28-.61,3.25,3.25,0,0,1-.08-.79v-3.23h-.87v-.74l.91-.06.12-1.63h.83v1.63h1.57v.8H67.05v3.24a1.53,1.53,0,0,0,.2.84.8.8,0,0,0,.7.29,1.4,1.4,0,0,0,.34-.05,2,2,0,0,0,.32-.11l.19.75c-.16,0-.33.11-.52.15A2.67,2.67,0,0,1,67.72,138.54Z"/><path class="a0ecf452-6d87-445d-9958-f33adcf0a52a" d="M69.94,138.4v-5.83h.82l.08,1.05h0a2.63,2.63,0,0,1,.73-.87,1.46,1.46,0,0,1,.93-.32,1.56,1.56,0,0,1,.62.11l-.19.87a1.8,1.8,0,0,0-.27-.07,1.26,1.26,0,0,0-.3,0,1.32,1.32,0,0,0-.77.3,2.37,2.37,0,0,0-.7,1v3.74Z"/><path class="a0ecf452-6d87-445d-9958-f33adcf0a52a" d="M75.81,138.54a1.58,1.58,0,0,1-1.36-.57,2.88,2.88,0,0,1-.43-1.7v-3.7h1v3.56a2.07,2.07,0,0,0,.26,1.2,1,1,0,0,0,.83.36,1.4,1.4,0,0,0,.81-.23,4.05,4.05,0,0,0,.76-.75v-4.14h1v5.83h-.82l-.08-.91h0a4.07,4.07,0,0,1-.86.77A1.93,1.93,0,0,1,75.81,138.54Z"/><path class="a0ecf452-6d87-445d-9958-f33adcf0a52a" d="M82.94,138.54a2.8,2.8,0,0,1-1.08-.2,2.28,2.28,0,0,1-.87-.59,2.86,2.86,0,0,1-.58-1,3.71,3.71,0,0,1-.21-1.29,3.47,3.47,0,0,1,.23-1.3,2.87,2.87,0,0,1,.61-1,2.59,2.59,0,0,1,.9-.6,2.75,2.75,0,0,1,1.07-.2,2.16,2.16,0,0,1,1,.2,3.76,3.76,0,0,1,.72.48l-.51.65a2.72,2.72,0,0,0-.53-.38,1.46,1.46,0,0,0-.63-.14,1.6,1.6,0,0,0-.73.16,1.55,1.55,0,0,0-.58.47,2.09,2.09,0,0,0-.38.71,3,3,0,0,0-.14.92,2.9,2.9,0,0,0,.14.91,2.21,2.21,0,0,0,.36.7,1.68,1.68,0,0,0,.57.46,1.66,1.66,0,0,0,.73.16,1.6,1.6,0,0,0,.75-.18,2.67,2.67,0,0,0,.62-.41l.43.66a3.29,3.29,0,0,1-.87.55A2.67,2.67,0,0,1,82.94,138.54Z"/><path class="a0ecf452-6d87-445d-9958-f33adcf0a52a" d="M87.82,138.54a1.81,1.81,0,0,1-.78-.14,1.39,1.39,0,0,1-.52-.4,1.56,1.56,0,0,1-.28-.61,3.25,3.25,0,0,1-.08-.79v-3.23h-.87v-.74l.91-.06.12-1.63h.83v1.63h1.57v.8H87.15v3.24a1.53,1.53,0,0,0,.2.84.8.8,0,0,0,.7.29,1.4,1.4,0,0,0,.34-.05,2,2,0,0,0,.32-.11l.19.75c-.16,0-.33.11-.52.15A2.67,2.67,0,0,1,87.82,138.54Z"/><path class="a0ecf452-6d87-445d-9958-f33adcf0a52a" d="M91.75,138.54a1.57,1.57,0,0,1-1.36-.57,2.81,2.81,0,0,1-.43-1.7v-3.7h1v3.56a2.17,2.17,0,0,0,.25,1.2,1,1,0,0,0,.84.36,1.37,1.37,0,0,0,.8-.23,4.06,4.06,0,0,0,.77-.75v-4.14h1v5.83h-.81l-.09-.91h0a4.07,4.07,0,0,1-.86.77A1.93,1.93,0,0,1,91.75,138.54Z"/><path class="a0ecf452-6d87-445d-9958-f33adcf0a52a" d="M96.57,138.4v-5.83h.82l.08,1.05h0a2.73,2.73,0,0,1,.72-.87,1.5,1.5,0,0,1,.93-.32,1.57,1.57,0,0,1,.63.11l-.19.87a1.8,1.8,0,0,0-.27-.07,1.26,1.26,0,0,0-.3,0,1.3,1.3,0,0,0-.77.3,2.37,2.37,0,0,0-.7,1v3.74Z"/><path class="a0ecf452-6d87-445d-9958-f33adcf0a52a" d="M101.79,138.54a1.77,1.77,0,0,1-1.22-.43,1.55,1.55,0,0,1-.48-1.22,1.61,1.61,0,0,1,.85-1.47,7,7,0,0,1,2.72-.71,2.5,2.5,0,0,0,0-.55,1.35,1.35,0,0,0-.19-.46.89.89,0,0,0-.36-.33,1.21,1.21,0,0,0-.6-.13,2.29,2.29,0,0,0-.94.19,5,5,0,0,0-.8.44l-.38-.69a6.16,6.16,0,0,1,1-.51,3.37,3.37,0,0,1,1.29-.24,1.79,1.79,0,0,1,1.55.65,2.89,2.89,0,0,1,.48,1.74v3.58h-.82l-.08-.69h0a5.37,5.37,0,0,1-.9.59A2.26,2.26,0,0,1,101.79,138.54Zm.29-.79a1.57,1.57,0,0,0,.79-.2,3.67,3.67,0,0,0,.79-.58v-1.62a11.43,11.43,0,0,0-1.23.23,3.26,3.26,0,0,0-.8.31,1.19,1.19,0,0,0-.44.42.89.89,0,0,0-.14.51.84.84,0,0,0,.3.72A1.23,1.23,0,0,0,102.08,137.75Z"/><path class="a0ecf452-6d87-445d-9958-f33adcf0a52a" d="M109.4,131.37a.72.72,0,0,1-.49-.18.65.65,0,0,1,0-.92.79.79,0,0,1,1,0,.65.65,0,0,1,0,.92A.72.72,0,0,1,109.4,131.37Zm-.5,7v-5.83h1v5.83Z"/><path class="a0ecf452-6d87-445d-9958-f33adcf0a52a" d="M111.85,138.4v-5.83h.81l.09.84h0a4.41,4.41,0,0,1,.89-.7,2,2,0,0,1,1.07-.28,1.57,1.57,0,0,1,1.35.57,2.87,2.87,0,0,1,.43,1.71v3.69h-1v-3.56a2.18,2.18,0,0,0-.26-1.2,1,1,0,0,0-.84-.36,1.47,1.47,0,0,0-.81.22,5.94,5.94,0,0,0-.79.68v4.22Z"/><path class="a0ecf452-6d87-445d-9958-f33adcf0a52a" d="M118.58,138.4v-5h-.79v-.74l.79-.06v-.93a2.16,2.16,0,0,1,.42-1.41,1.52,1.52,0,0,1,1.29-.52,2.24,2.24,0,0,1,.52.06,3,3,0,0,1,.45.13l-.22.76a1.54,1.54,0,0,0-.66-.14c-.54,0-.82.37-.82,1.12v.93h1.24v.8h-1.24v5Z"/><path class="a0ecf452-6d87-445d-9958-f33adcf0a52a" d="M124.06,138.54a2.51,2.51,0,0,1-1-.2,2.41,2.41,0,0,1-.86-.59,2.73,2.73,0,0,1-.59-1,3.76,3.76,0,0,1,0-2.59,2.69,2.69,0,0,1,.59-1,2.43,2.43,0,0,1,.86-.6,2.51,2.51,0,0,1,1-.2,2.56,2.56,0,0,1,1,.2,2.53,2.53,0,0,1,.86.6,2.83,2.83,0,0,1,.59,1,3.92,3.92,0,0,1,0,2.59,2.88,2.88,0,0,1-.59,1,2.5,2.5,0,0,1-.86.59A2.56,2.56,0,0,1,124.06,138.54Zm0-.81a1.46,1.46,0,0,0,.69-.16,1.55,1.55,0,0,0,.53-.46,2.17,2.17,0,0,0,.34-.7,3.23,3.23,0,0,0,.12-.91,3.31,3.31,0,0,0-.12-.92,2,2,0,0,0-.34-.71,1.48,1.48,0,0,0-.53-.47,1.55,1.55,0,0,0-1.37,0,1.4,1.4,0,0,0-.53.47,2.05,2.05,0,0,0-.35.71,3.31,3.31,0,0,0-.12.92,3.23,3.23,0,0,0,.12.91,2.19,2.19,0,0,0,.35.7,1.46,1.46,0,0,0,1.21.62Z"/><path class="ad552d8c-7d03-48d6-90d3-3c993753f5f9" d="M49.94,329.69a1.27,1.27,0,0,1-.52-.11,1.1,1.1,0,0,1-.42-.29,1.47,1.47,0,0,1-.3-.46,1.55,1.55,0,0,1-.1-.59,1.63,1.63,0,0,1,.1-.59,1.31,1.31,0,0,1,.3-.45,1.25,1.25,0,0,1,.42-.3,1.3,1.3,0,0,1,1.46.3,1.29,1.29,0,0,1,.29.45,1.44,1.44,0,0,1,.11.59,1.38,1.38,0,0,1-.11.59,1.44,1.44,0,0,1-.29.46,1.13,1.13,0,0,1-.43.29A1.26,1.26,0,0,1,49.94,329.69Z"/><path class="ad552d8c-7d03-48d6-90d3-3c993753f5f9" d="M57.51,331.54a2.87,2.87,0,0,1-1.1-.21,2.42,2.42,0,0,1-.88-.6,2.71,2.71,0,0,1-.6-1,3.65,3.65,0,0,1-.22-1.28,3.49,3.49,0,0,1,.23-1.29,2.78,2.78,0,0,1,.59-1,2.74,2.74,0,0,1,.83-.61,2.34,2.34,0,0,1,1-.2,2.4,2.4,0,0,1,1,.19,1.81,1.81,0,0,1,.73.55,2.43,2.43,0,0,1,.45.86,3.63,3.63,0,0,1,.16,1.13c0,.11,0,.21,0,.31a.9.9,0,0,1,0,.25H55.69a2.29,2.29,0,0,0,.58,1.49,1.81,1.81,0,0,0,1.36.54,2.45,2.45,0,0,0,.78-.12,4.17,4.17,0,0,0,.67-.33l.35.65a6.11,6.11,0,0,1-.85.42A3.2,3.2,0,0,1,57.51,331.54ZM55.67,328h3.12a2.09,2.09,0,0,0-.37-1.35,1.29,1.29,0,0,0-1.06-.46,1.52,1.52,0,0,0-.6.11,1.49,1.49,0,0,0-.51.36,2,2,0,0,0-.38.57A2.8,2.8,0,0,0,55.67,328Z"/><path class="ad552d8c-7d03-48d6-90d3-3c993753f5f9" d="M62.62,331.54a3.13,3.13,0,0,1-1.18-.22,4,4,0,0,1-1-.58l.49-.66a3.59,3.59,0,0,0,.79.5,2.12,2.12,0,0,0,.93.2,1.22,1.22,0,0,0,.86-.27.84.84,0,0,0,.29-.64.65.65,0,0,0-.12-.4,1.08,1.08,0,0,0-.31-.29A2.08,2.08,0,0,0,63,329l-.48-.19a6.62,6.62,0,0,1-.62-.24,2.78,2.78,0,0,1-.56-.34,1.58,1.58,0,0,1-.4-.46,1.19,1.19,0,0,1-.16-.64,1.58,1.58,0,0,1,.14-.65,1.46,1.46,0,0,1,.39-.53,1.93,1.93,0,0,1,.63-.35,2.75,2.75,0,0,1,.84-.12,2.61,2.61,0,0,1,1,.19,3.1,3.1,0,0,1,.8.46l-.47.63a2.89,2.89,0,0,0-.63-.37,1.64,1.64,0,0,0-.71-.15,1.1,1.1,0,0,0-.8.26.75.75,0,0,0-.26.58.61.61,0,0,0,.1.36,1.22,1.22,0,0,0,.29.26,2.74,2.74,0,0,0,.42.21L63,328l.63.25a2.24,2.24,0,0,1,.57.33,1.66,1.66,0,0,1,.42.49,1.35,1.35,0,0,1,.16.69,1.72,1.72,0,0,1-.14.68,1.56,1.56,0,0,1-.41.55,2.06,2.06,0,0,1-.67.38A2.88,2.88,0,0,1,62.62,331.54Z"/><path class="ad552d8c-7d03-48d6-90d3-3c993753f5f9" d="M67.72,331.54a1.81,1.81,0,0,1-.78-.14,1.39,1.39,0,0,1-.52-.4,1.56,1.56,0,0,1-.28-.61,3.25,3.25,0,0,1-.08-.79v-3.23h-.87v-.74l.91-.06.12-1.63h.83v1.63h1.57v.8H67.05v3.24a1.53,1.53,0,0,0,.2.84.8.8,0,0,0,.7.29,1.4,1.4,0,0,0,.34-.05,2,2,0,0,0,.32-.11l.19.75c-.16.05-.33.11-.52.15A2.67,2.67,0,0,1,67.72,331.54Z"/><path class="ad552d8c-7d03-48d6-90d3-3c993753f5f9" d="M70.45,324.37a.69.69,0,0,1-.49-.18.63.63,0,0,1,0-.92.68.68,0,0,1,.49-.17.67.67,0,0,1,.48.17.63.63,0,0,1,0,.92A.68.68,0,0,1,70.45,324.37Zm-.51,7v-5.83h1v5.83Z"/><path class="ad552d8c-7d03-48d6-90d3-3c993753f5f9" d="M73.94,331.54a.93.93,0,0,1-.81-.33,1.71,1.71,0,0,1-.23-1v-7.36h1v7.44a.53.53,0,0,0,.08.33.25.25,0,0,0,.2.1h.09l.12,0,.13.74a1.14,1.14,0,0,1-.22.07A1.67,1.67,0,0,1,73.94,331.54Z"/><path class="ad552d8c-7d03-48d6-90d3-3c993753f5f9" d="M76.46,324.37a.71.71,0,0,1-.49-.18.63.63,0,0,1,0-.92.7.7,0,0,1,.49-.17.67.67,0,0,1,.48.17.63.63,0,0,1,0,.92A.68.68,0,0,1,76.46,324.37Zm-.5,7v-5.83h1v5.83Z"/><path class="ad552d8c-7d03-48d6-90d3-3c993753f5f9" d="M78.29,331.4v-.53l3.08-4.5H78.63v-.8h4v.53l-3.08,4.5h3.17v.8Z"/><path class="ad552d8c-7d03-48d6-90d3-3c993753f5f9" d="M85.08,331.54a1.75,1.75,0,0,1-1.22-.43,1.53,1.53,0,0,1-.49-1.22,1.63,1.63,0,0,1,.85-1.47,7,7,0,0,1,2.73-.71,2.51,2.51,0,0,0-.06-.55,1.34,1.34,0,0,0-.18-.46.91.91,0,0,0-.37-.33,1.15,1.15,0,0,0-.59-.13,2.3,2.3,0,0,0-1,.19,4.53,4.53,0,0,0-.79.44l-.39-.69a6.6,6.6,0,0,1,1-.51,3.38,3.38,0,0,1,1.3-.24,1.77,1.77,0,0,1,1.54.65,2.89,2.89,0,0,1,.48,1.74v3.58h-.81l-.09-.69h0a5.37,5.37,0,0,1-.9.59A2.29,2.29,0,0,1,85.08,331.54Zm.28-.79a1.61,1.61,0,0,0,.8-.2A3.93,3.93,0,0,0,87,330v-1.62a10.56,10.56,0,0,0-1.23.23,3.35,3.35,0,0,0-.81.31,1.19,1.19,0,0,0-.44.42,1,1,0,0,0-.14.51.84.84,0,0,0,.3.72A1.26,1.26,0,0,0,85.36,330.75Z"/><path class="ad552d8c-7d03-48d6-90d3-3c993753f5f9" d="M93.22,331.54a.93.93,0,0,1-.8-.33,1.7,1.7,0,0,1-.24-1v-7.36h1v7.44a.47.47,0,0,0,.09.33.23.23,0,0,0,.19.1h.09l.13,0,.13.74-.23.07A1.67,1.67,0,0,1,93.22,331.54Z"/><path class="ad552d8c-7d03-48d6-90d3-3c993753f5f9" d="M96.58,331.54a1.72,1.72,0,0,1-1.21-.43,1.53,1.53,0,0,1-.49-1.22,1.61,1.61,0,0,1,.85-1.47,7,7,0,0,1,2.73-.71,2.51,2.51,0,0,0-.06-.55,1.18,1.18,0,0,0-.19-.46.89.89,0,0,0-.36-.33,1.19,1.19,0,0,0-.6-.13,2.29,2.29,0,0,0-.94.19,5,5,0,0,0-.8.44l-.38-.69a6.16,6.16,0,0,1,1-.51,3.37,3.37,0,0,1,1.29-.24,1.79,1.79,0,0,1,1.55.65,2.89,2.89,0,0,1,.48,1.74v3.58h-.82l-.08-.69h0a5.72,5.72,0,0,1-.89.59A2.33,2.33,0,0,1,96.58,331.54Zm.29-.79a1.55,1.55,0,0,0,.79-.2,4,4,0,0,0,.8-.58v-1.62a11.2,11.2,0,0,0-1.24.23,3.26,3.26,0,0,0-.8.31,1.19,1.19,0,0,0-.44.42.89.89,0,0,0-.14.51.84.84,0,0,0,.3.72A1.23,1.23,0,0,0,96.87,330.75Z"/><path class="ad552d8c-7d03-48d6-90d3-3c993753f5f9" d="M104.19,324.37a.68.68,0,0,1-.48-.18.63.63,0,0,1,0-.92.67.67,0,0,1,.48-.17.72.72,0,0,1,.49.17.63.63,0,0,1,0,.92A.72.72,0,0,1,104.19,324.37Zm-.5,7v-5.83h1v5.83Z"/><path class="ad552d8c-7d03-48d6-90d3-3c993753f5f9" d="M106.64,331.4v-5.83h.82l.08.84h0a4.36,4.36,0,0,1,.88-.7,2,2,0,0,1,1.07-.28,1.57,1.57,0,0,1,1.35.57,2.8,2.8,0,0,1,.43,1.71v3.69h-1v-3.56a2.09,2.09,0,0,0-.26-1.2,1,1,0,0,0-.84-.36,1.44,1.44,0,0,0-.8.22,5.38,5.38,0,0,0-.8.68v4.22Z"/><path class="ad552d8c-7d03-48d6-90d3-3c993753f5f9" d="M113.37,331.4v-5h-.79v-.74l.79-.06v-.93a2.16,2.16,0,0,1,.42-1.41,1.52,1.52,0,0,1,1.29-.52,2.24,2.24,0,0,1,.52.06,3,3,0,0,1,.45.13l-.22.76a1.54,1.54,0,0,0-.66-.14c-.54,0-.82.37-.82,1.12v.93h1.24v.8h-1.24v5Z"/><path class="ad552d8c-7d03-48d6-90d3-3c993753f5f9" d="M118.85,331.54a2.51,2.51,0,0,1-1-.2,2.41,2.41,0,0,1-.86-.59,2.73,2.73,0,0,1-.59-1,3.76,3.76,0,0,1,0-2.59,2.69,2.69,0,0,1,.59-1,2.43,2.43,0,0,1,.86-.6,2.51,2.51,0,0,1,1-.2,2.56,2.56,0,0,1,1,.2,2.53,2.53,0,0,1,.86.6,2.83,2.83,0,0,1,.59,1,3.92,3.92,0,0,1,0,2.59,2.88,2.88,0,0,1-.59,1,2.5,2.5,0,0,1-.86.59A2.56,2.56,0,0,1,118.85,331.54Zm0-.81a1.46,1.46,0,0,0,.69-.16,1.55,1.55,0,0,0,.53-.46,2.17,2.17,0,0,0,.34-.7,3.23,3.23,0,0,0,.12-.91,3.31,3.31,0,0,0-.12-.92,2,2,0,0,0-.34-.71,1.48,1.48,0,0,0-.53-.47,1.55,1.55,0,0,0-1.37,0,1.4,1.4,0,0,0-.53.47,2.05,2.05,0,0,0-.35.71,3.31,3.31,0,0,0-.12.92,3.23,3.23,0,0,0,.12.91,2.19,2.19,0,0,0,.35.7,1.46,1.46,0,0,0,1.21.62Z"/><path d="M351,126.87h.54v.75a1.66,1.66,0,0,0-.06.21c-.17,1-.34,2.07-.5,3.1-.38,2.3-.75,4.59-1.13,6.89-.13.8-.25,1.6-.4,2.4s-.4.86-1.08.58c-1.08-.44-2.17-.87-3.24-1.33a.41.41,0,0,0-.6.16c-.31.42-.64.82-1,1.22a3.82,3.82,0,0,1-1.22,1.18h-.27a2.05,2.05,0,0,1-.26-.62c0-.83,0-1.66,0-2.5a1,1,0,0,1,.24-.67q3.35-4.08,6.67-8.17a1.37,1.37,0,0,0,.13-.2.38.38,0,0,0-.2.1l-8.37,7.22a.4.4,0,0,1-.5.09l-2.93-1.21a3.2,3.2,0,0,1-.51-.4v-.14a4.29,4.29,0,0,1,.69-.66q5.61-3.27,11.24-6.51C349.14,127.84,350.07,127.37,351,126.87Z"/><path class="ad552d8c-7d03-48d6-90d3-3c993753f5f9" d="M373.38,126.86c2.27,0,4.54,0,6.81,0,.35,0,.4.11.37.42-.37,4-.72,8.1-1.09,12.15-.05.62-.12,1.24-.16,1.86a.37.37,0,0,1-.33.39l-5.43,1.5a.65.65,0,0,1-.39,0c-1.78-.5-3.57-1-5.35-1.48a.42.42,0,0,1-.37-.45c-.32-3.7-.66-7.41-1-11.11-.09-1-.16-1.93-.26-2.89,0-.28,0-.38.34-.38C368.81,126.87,371.1,126.86,373.38,126.86Zm-.12,6.54h-1.74c-.17,0-.29,0-.27.24.05.45.08.9.11,1.36,0,.22.16.21.32.21l1.66,0v2.83l-1.16-.31c-.77-.21-.77-.21-.87-1,0-.15-.05-.3-.05-.45s-.08-.24-.25-.23c-.43,0-.86,0-1.29,0-.25,0-.3.09-.28.32.08.73.15,1.45.19,2.18a.45.45,0,0,0,.41.47l3.3.93v1.49c0,.52,0,.52.49.38l3.62-1c.77-.21.75-.21.79-1s.11-1.62.18-2.43c.1-1.11.21-2.21.31-3.32.07-.73.12-1.46.19-2.18.1-1.14.21-2.27.32-3.41,0-.29-.05-.42-.38-.41-1.71,0-3.43,0-5.14,0-.29,0-.38.08-.39.37a3.2,3.2,0,0,1-.07,1.27H369.2c-.27,0-.37.06-.33.34a7,7,0,0,1,.11,1.11c0,.33.15.38.43.37,1.31,0,2.62,0,3.93,0,0,.18,0,.36,0,.53A4.3,4.3,0,0,1,373.26,133.4Z"/><path class="b32bf430-9637-4e21-b9ee-9e5f28b67061" d="M373.26,129.74a3.2,3.2,0,0,0,.07-1.27c0-.29.1-.37.39-.37,1.71,0,3.43,0,5.14,0,.33,0,.4.12.38.41-.11,1.14-.22,2.27-.32,3.41-.07.72-.12,1.45-.19,2.18-.1,1.11-.21,2.21-.31,3.32-.07.81-.14,1.62-.18,2.43s0,.79-.79,1l-3.62,1c-.49.14-.49.14-.49-.38V140l.09,0c1.05-.29,2.09-.6,3.16-.85.42-.1.53-.3.56-.7.09-1.19.21-2.39.31-3.59.14-1.58.28-3.16.43-4.75,0-.22,0-.31-.28-.31-1.4,0-2.79,0-4.19,0Z"/><path class="a5f7aa85-5d40-407b-9135-bc64efbc7239" d="M373.43,140l-.09,0-3.3-.93a.45.45,0,0,1-.41-.47c0-.73-.11-1.45-.19-2.18,0-.23,0-.33.28-.32.43,0,.86,0,1.29,0,.17,0,.25,0,.25.23s0,.3.05.45c.1.77.1.77.87,1l1.16.31.08,0Z"/><path class="b2313696-be31-4093-9417-179f4747aff0" d="M373.26,129.74l.16,0v1.77l-.08,0c-1.31,0-2.62,0-3.93,0-.28,0-.42,0-.43-.37a7,7,0,0,0-.11-1.11c0-.28.06-.35.33-.34Z"/><path class="b32bf430-9637-4e21-b9ee-9e5f28b67061" d="M373.42,138.09l-.08,0v-2.89a13.93,13.93,0,0,0,1.94,0c.23,0,.33.05.3.3-.06.62-.12,1.24-.17,1.86,0,.19-.14.2-.27.24Z"/><path class="b32bf430-9637-4e21-b9ee-9e5f28b67061" d="M373.34,131.58l.08,0c.72,0,1.44,0,2.16,0,.28,0,.36.09.33.36s-.08.77-.11,1.15-.11.35-.38.35c-.69,0-1.39,0-2.08,0l-.08,0a4.3,4.3,0,0,0,.08-1.29C373.35,131.94,373.34,131.76,373.34,131.58Z"/><path class="b2313696-be31-4093-9417-179f4747aff0" d="M373.26,133.4l.08,0a4.3,4.3,0,0,1,0,1.75v.06l-1.66,0c-.16,0-.3,0-.32-.21,0-.46-.06-.91-.11-1.36,0-.23.1-.24.27-.24Z"/><path class="b50759dd-6c4e-487a-ad75-0f1335737fe2" d="M373.34,135.18a4.3,4.3,0,0,0,0-1.75c.69,0,1.39,0,2.08,0,.27,0,.37-.09.38-.35s.06-.77.11-1.15-.05-.36-.33-.36c-.72,0-1.44,0-2.16,0v-1.77c1.4,0,2.79,0,4.19,0,.25,0,.3.09.28.31-.15,1.59-.29,3.17-.43,4.75-.1,1.2-.22,2.4-.31,3.59,0,.4-.14.6-.56.7-1.07.25-2.11.56-3.16.85v-1.86l1.72-.47c.13,0,.26-.05.27-.24,0-.62.11-1.24.17-1.86,0-.25-.07-.3-.3-.3A13.93,13.93,0,0,1,373.34,135.18Z"/><path d="M357.89,138.92v-3.14H355v-1h2.93v-3.14h1.05v3.14h2.93v1h-2.93v3.14Z"/></svg>