<svg id="a17d537b-f59f-4b77-8aeb-7211ef6c11ac" data-name="Capa 1" xmlns="http://www.w3.org/2000/svg" viewBox="0 0 520 350"><defs><style>.a80c4615-d589-4fb4-bf88-63d50b7e3dc3,.b6803893-937b-4dea-a416-20f9de3b7fe3,.bc223bab-7efa-4b7e-87c2-26dd3fdcb483,.e68ab932-310e-474e-a3db-0423d4db4db3{font-size:18px;font-family:SourceSansPro-Bold, Source Sans Pro;font-weight:700;}.b6803893-937b-4dea-a416-20f9de3b7fe3,.baca18ab-e26b-4dcb-9e8b-6f083d66f3a7,.f4092b2e-56d4-4e46-bb88-ce2e65f51611{fill:#1572b6;}.b6b23aa2-bc28-4454-a3de-fbd96cabda44{letter-spacing:-0.02em;}.fc7b6f4d-8899-4d4b-8195-f7d015f83246{letter-spacing:0em;}.ba2193aa-2a05-4d0d-8ff5-71b72c76050a{letter-spacing:-0.01em;}.f0c43368-0114-494a-bf9c-293abbcb596d{fill:#34a8db;}.f2313766-0689-4bef-ad62-a8eb12e0cdbb{fill:#e7e8e9;}.e5a9d8e0-7de4-46c2-9311-dba95ca43279{fill:#e4e7e9;}.ba934238-2278-4795-a674-1e6135db5fe2{fill:#fdfdfe;}.a3fc373a-0b42-4b6b-bb62-171d5b0e6b9c,.b6716fa6-dbda-4421-beb7-a8d7da1c44e4,.fa7620bc-ca75-4bd5-9836-839f60b3abe9{fill:none;stroke-linecap:round;stroke-miterlimit:10;stroke-width:5px;}.a3fc373a-0b42-4b6b-bb62-171d5b0e6b9c{stroke:#1572b6;}.aad01180-24f3-43c0-8e90-e8f178226972,.b1bc69e6-b796-4ae6-ba33-bac077995da9,.bc223bab-7efa-4b7e-87c2-26dd3fdcb483{fill:#e34f27;}.b6c5a8e9-c500-4d4d-bcf4-a60626829cc6{letter-spacing:-0.02em;}.a2e74dee-dcf0-4caf-bae4-344dfebaa94e{fill:#f0662a;}.a3a64988-1ee1-4846-8bbd-55a1bad85433{fill:#ebe8e7;}.fd00f04d-abdf-4ba0-9612-19a6fc99e1be{fill:#ef590c;}.b4fc9fd4-83e0-4bcb-bd03-b960f5d78908{fill:#fefdfc;}.e118bd8f-1ad3-48d5-bebd-da18dfa94f11{fill:#fefdfd;}.a80c4615-d589-4fb4-bf88-63d50b7e3dc3,.ace1caac-afe3-4da3-857a-81745849f0bc{fill:#8692c1;}.e1e55943-326e-4874-a566-672000d2f289{fill:#232633;}.b6716fa6-dbda-4421-beb7-a8d7da1c44e4{stroke:#e34f27;}.fa7620bc-ca75-4bd5-9836-839f60b3abe9{stroke:#8692c1;}.afdaa708-2125-4aac-9775-0d9771431abb,.b739fcd3-8048-4599-acf5-252de61da5b9,.e68ab932-310e-474e-a3db-0423d4db4db3{fill:#efa001;}.a39c4905-505e-48df-8415-d1d5f5954471{letter-spacing:-0.02em;}.b61e904c-923f-473c-823a-18ca2c1caa5e{letter-spacing:-0.02em;}.b4db74e8-5e6f-4852-aaf8-25630f6d65f1{letter-spacing:0em;}.b73f225b-66d9-404b-9f3c-90b711c1b6fb{letter-spacing:0.04em;}.ba474dbb-8331-4d7e-adb4-e98225d177ab{fill:#f9bd01;}.eea88a6a-e32e-41ae-a7a6-ae15a0065dee{fill:#ebebea;}.b4dcf384-cfc7-4521-afbd-df6c93047ae0{fill:#fefefd;}.afdaa708-2125-4aac-9775-0d9771431abb,.b1bc69e6-b796-4ae6-ba33-bac077995da9,.baca18ab-e26b-4dcb-9e8b-6f083d66f3a7,.e827a839-909e-4abc-92ad-71c3b5c305d3{font-size:12px;font-family:SourceSansPro-Regular, Source Sans Pro;}.edd732e0-7c9f-4710-b40c-7c73e102f3b3{letter-spacing:-0.01em;}.bb3eda83-27ff-48be-9da7-fe21fe34bebd{letter-spacing:0em;}.e827a839-909e-4abc-92ad-71c3b5c305d3{fill:#5f6ea0;}.e742b28e-5d37-4616-967d-8d5959ced04a{letter-spacing:-0.01em;}.a3325602-b524-4cd8-b98d-61d961920db8{letter-spacing:-0.01em;}.a05ac2aa-0dd3-4392-9f4d-6ef2389f4ad7{letter-spacing:0em;}.b5c36e31-3c9d-45de-bf8b-efa61632856f{letter-spacing:-0.02em;}.bf8b11af-1436-4859-abe0-a6e8cb570a57{letter-spacing:-0.02em;}.a38b09b8-7e8d-47c0-a6a6-b12ec7c2830b{letter-spacing:-0.02em;}.a2a17d75-6888-4dcc-8570-438ae90bf02f{letter-spacing:-0.01em;}.b80c983d-bc6d-4098-802b-a382ec2c9b58{letter-spacing:-0.02em;}.a780b8fd-a566-4c52-9cbb-b985260db0e5{letter-spacing:-0.02em;}.bea5b7ed-578a-4bd1-984e-25f46c5978cf{letter-spacing:-0.02em;}.b31b6c38-ff79-4af6-8a85-98b1498c3490{letter-spacing:-0.02em;}.f935d198-7295-477f-95d5-272a27575cb7{letter-spacing:-0.01em;}.aa9406ca-7211-441b-8564-d4bb59a19941{letter-spacing:-0.01em;}.ee13d82a-d784-49a6-9c3d-91d910e3980a{letter-spacing:-0.03em;}</style></defs><title>_</title><text class="b6803893-937b-4dea-a416-20f9de3b7fe3" transform="translate(48.12 311.62)"><tspan class="b6b23aa2-bc28-4454-a3de-fbd96cabda44">s</tspan><tspan class="fc7b6f4d-8899-4d4b-8195-f7d015f83246" x="7.61" y="0">tyle</tspan><tspan class="ba2193aa-2a05-4d0d-8ff5-71b72c76050a" x="38.36" y="0">.</tspan><tspan x="43.58" y="0">css</tspan></text><path class="f4092b2e-56d4-4e46-bb88-ce2e65f51611" d="M78.94,246.11c4.86,0,9.73,0,14.59,0,.75,0,.86.24.8.9Q93.15,260,92,273c-.12,1.33-.26,2.65-.36,4a.78.78,0,0,1-.7.84q-5.82,1.57-11.62,3.22a1.48,1.48,0,0,1-.86,0c-3.81-1.06-7.63-2.13-11.45-3.16a.9.9,0,0,1-.79-1Q65.17,265,64.09,253.09c-.18-2.07-.34-4.13-.55-6.2-.06-.6.07-.8.72-.8C69.16,246.12,74.05,246.11,78.94,246.11Zm-.26,14-3.72,0c-.37,0-.62,0-.57.52.1,1,.16,1.94.23,2.91,0,.47.35.46.69.46l3.54,0v6.07l-2.48-.65c-1.66-.45-1.66-.46-1.85-2.11a7.79,7.79,0,0,1-.12-1c0-.39-.18-.5-.54-.49-.92,0-1.84,0-2.75,0-.54,0-.65.18-.6.67.15,1.56.31,3.12.41,4.68a1,1,0,0,0,.87,1c2.36.64,4.71,1.32,7.07,2v3.2c0,1.11,0,1.1,1,.81,2.58-.73,5.17-1.46,7.76-2.17,1.65-.45,1.61-.44,1.69-2.13s.24-3.47.39-5.21c.21-2.37.46-4.74.67-7.12.15-1.55.26-3.11.4-4.67.22-2.43.44-4.86.68-7.3.06-.62-.1-.89-.81-.89-3.67,0-7.35,0-11,0-.62,0-.81.18-.82.8a6.69,6.69,0,0,1-.16,2.71c-2.9,0-5.79,0-8.69,0-.58,0-.79.14-.7.74a16,16,0,0,1,.23,2.38c0,.7.32.8.93.79,2.8,0,5.61,0,8.42,0,0,.37,0,.75,0,1.13A8.22,8.22,0,0,1,78.68,260.11Z"/><path class="f0c43368-0114-494a-bf9c-293abbcb596d" d="M78.68,252.27a6.69,6.69,0,0,0,.16-2.71c0-.62.2-.81.82-.8,3.67,0,7.35,0,11,0,.71,0,.87.27.81.89-.24,2.44-.46,4.87-.68,7.3-.14,1.56-.25,3.12-.4,4.67-.21,2.38-.46,4.75-.67,7.12-.15,1.74-.3,3.47-.39,5.21s0,1.68-1.69,2.13c-2.59.71-5.18,1.44-7.76,2.17-1,.29-1,.3-1-.81v-3.2l.18-.08c2.26-.62,4.5-1.29,6.77-1.82A1.36,1.36,0,0,0,87,270.84c.19-2.57.44-5.13.67-7.7.3-3.39.6-6.78.92-10.17,0-.49-.07-.68-.6-.67-3,0-6,0-9,0Z"/><path class="f2313766-0689-4bef-ad62-a8eb12e0cdbb" d="M79,274.15l-.18.08c-2.36-.67-4.71-1.35-7.07-2a1,1,0,0,1-.87-1c-.1-1.56-.26-3.12-.41-4.68-.05-.49.06-.69.6-.67.91,0,1.83,0,2.75,0,.36,0,.54.1.54.49a7.79,7.79,0,0,0,.12,1c.19,1.65.19,1.66,1.85,2.11l2.48.65.18.05Z"/><path class="e5a9d8e0-7de4-46c2-9311-dba95ca43279" d="M78.68,252.27l.35.07c0,1.26,0,2.52,0,3.79l-.17.1c-2.81,0-5.62,0-8.42,0-.61,0-.92-.09-.93-.79a16,16,0,0,0-.23-2.38c-.09-.6.12-.74.7-.74C72.89,252.31,75.78,252.28,78.68,252.27Z"/><path class="f0c43368-0114-494a-bf9c-293abbcb596d" d="M79,270.17l-.18-.05v-6.19A30.56,30.56,0,0,0,83,264c.48,0,.7.12.64.65-.14,1.32-.26,2.65-.36,4,0,.41-.32.44-.6.52Z"/><path class="f0c43368-0114-494a-bf9c-293abbcb596d" d="M78.87,256.23l.17-.1c1.54,0,3.08.07,4.62.05.6,0,.77.18.7.76-.11.82-.17,1.65-.23,2.48,0,.54-.24.75-.82.74-1.49,0-3,0-4.45,0l-.18-.07a8.22,8.22,0,0,0,.17-2.75C78.89,257,78.86,256.6,78.87,256.23Z"/><path class="e5a9d8e0-7de4-46c2-9311-dba95ca43279" d="M78.68,260.11l.18.07a8.94,8.94,0,0,1,0,3.75v.12l-3.54,0c-.34,0-.66,0-.69-.46-.07-1-.13-1.94-.23-2.91,0-.49.2-.52.57-.52Z"/><path class="ba934238-2278-4795-a674-1e6135db5fe2" d="M78.85,263.93a8.94,8.94,0,0,0,0-3.75c1.48,0,3-.06,4.45,0,.58,0,.79-.2.82-.74.06-.83.12-1.66.23-2.48.07-.58-.1-.77-.7-.76-1.54,0-3.08,0-4.62-.05,0-1.27,0-2.53,0-3.79,3,0,6,0,9,0,.53,0,.65.18.6.67-.32,3.39-.62,6.78-.92,10.17-.23,2.57-.48,5.13-.67,7.7a1.36,1.36,0,0,1-1.21,1.49c-2.27.53-4.51,1.2-6.77,1.82,0-1.33,0-2.65,0-4l3.67-1c.28-.08.57-.11.6-.52.1-1.33.22-2.66.36-4,.06-.53-.16-.64-.64-.65A30.56,30.56,0,0,1,78.85,263.93Z"/><path class="f4092b2e-56d4-4e46-bb88-ce2e65f51611" d="M105.34,289.39H52.53c-3.37-1.22-4.43-3.72-4.41-7.17q.1-28,0-56c0-3.45,1-5.94,4.41-7.16H87.84c4.63.82,8.1,3.48,11.17,6.87,1.92,2.12,4,4.07,6,6.08a15.12,15.12,0,0,1,4.65,11.18c0,13,0,26,0,39C109.78,285.67,108.71,288.17,105.34,289.39ZM87.78,223.62a13.57,13.57,0,0,0-1.43-.14c-10.67,0-21.34,0-32,0-1.37,0-1.82.6-1.81,1.9,0,3.64,0,7.28,0,10.93q0,23.26,0,46.53c0,1.3.13,2.22,1.8,2.22q24.62,0,49.21,0c1.24,0,1.81-.45,1.81-1.73q0-20.46,0-40.92c0-1.09-.38-1.41-1.46-1.4-4.79.05-9.58,0-14.37,0H87.78Zm15,13L92.2,225.92v10.69Z"/><path class="a3fc373a-0b42-4b6b-bb62-171d5b0e6b9c" d="M29.47,71.59C18.3,86.75,6.06,114,6.06,153.48c0,60.91,19,84.08,31,95.37"/><polygon class="f4092b2e-56d4-4e46-bb88-ce2e65f51611" points="18.18 65.98 42.05 58.8 36.34 83.07 18.18 65.98"/><text class="bc223bab-7efa-4b7e-87c2-26dd3fdcb483" transform="translate(48.11 119.34)">ind<tspan class="b6c5a8e9-c500-4d4d-bcf4-a60626829cc6" x="25.58" y="0">ex</tspan><tspan x="43.58" y="0">.php</tspan></text><path class="aad01180-24f3-43c0-8e90-e8f178226972" d="M78.86,47.64H93.28c1.08,0,1.12,0,1,1.08L92.72,66.53q-.54,6-1.07,12c0,.5-.24.69-.72.82Q85.16,81,79.39,82.59a1.67,1.67,0,0,1-.94,0c-3.84-1.08-7.69-2.16-11.54-3.2a.8.8,0,0,1-.69-.85q-.81-9.44-1.65-18.87c-.32-3.63-.66-7.26-1-10.89-.11-1.14-.12-1.14,1.06-1.14Zm0,18.36,0,5.91c-1-.1-1.82-.52-2.75-.68s-1.79-.5-1.58-1.78a7.57,7.57,0,0,0-.11-1.14c0-.44-.18-.56-.59-.55-.89,0-1.78,0-2.67,0-.57,0-.71.17-.65.71.16,1.53.3,3.07.4,4.61,0,.6.29.83.88,1,2.37.62,4.73,1.31,7.09,2,0,1,0,2,0,2.94s.25,1,1.09.81L82.75,79c1.8-.49,3.6-1,5.38-1.48.37-.11,1-.12,1-.68.15-1.2.27-2.41.37-3.61.14-1.62.24-3.24.38-4.85.22-2.53.47-5,.69-7.57.14-1.56.26-3.12.41-4.67s.32-3.35.49-5c.06-.6-.15-.83-.79-.82q-5.47,0-10.95,0c-.67,0-.91.29-.91.9,0,.89,0,1.78,0,2.67H70.14c-.3,0-.66-.14-.89.21q.52,5.86,1.06,11.72c.26.3.61.17.91.17C73.77,66,76.31,66,78.86,66Z"/><path class="a2e74dee-dcf0-4caf-bae4-344dfebaa94e" d="M78.86,53.87c0-.89,0-1.78,0-2.67,0-.61.24-.91.91-.9q5.47,0,10.95,0c.64,0,.85.22.79.82-.17,1.67-.34,3.34-.49,5s-.27,3.11-.41,4.67c-.22,2.52-.47,5-.69,7.57-.14,1.61-.24,3.23-.38,4.85-.1,1.2-.22,2.41-.37,3.61-.07.56-.66.57-1,.68-1.78.53-3.58,1-5.38,1.48l-2.81.79c-.84.23-1.08.06-1.09-.81s0-2,0-2.94V76a1.54,1.54,0,0,0,.43,0c2.37-.65,4.72-1.32,7.09-2,.45-.12.51-.39.55-.77.27-3.18.58-6.36.82-9.54.05-.59.4-1.2,0-1.79-.26-.29-.61-.17-.92-.17h-8V58l0-.06c3,0,5.94,0,8.9,0,.43,0,.57-.15.58-.56,0-.86.13-1.71.19-2.57l.06-.26c.05-.2.12-.4-.1-.54s-.62-.17-.93-.17Z"/><path class="a3a64988-1ee1-4846-8bbd-55a1bad85433" d="M70.31,65.81q-.54-5.87-1.06-11.72l9.61,0,0,3.83,0,.06c-1.59,0-3.18,0-4.78,0-.45,0-.63.11-.57.6.14,1,.24,2.1.35,3.16.18.37.52.18.78.19,1.4,0,2.81,0,4.22,0v3.83Z"/><path class="a3a64988-1ee1-4846-8bbd-55a1bad85433" d="M78.86,76c-2.36-.67-4.72-1.36-7.09-2-.59-.16-.84-.39-.88-1-.1-1.54-.24-3.08-.4-4.61-.06-.54.08-.74.65-.71.89,0,1.78,0,2.67,0,.41,0,.59.11.59.55a7.57,7.57,0,0,1,.11,1.14c-.21,1.28.55,1.6,1.58,1.78s1.8.58,2.75.68a.59.59,0,0,0,0,.13c0,1.3,0,2.61,0,3.91Z"/><path class="a2e74dee-dcf0-4caf-bae4-344dfebaa94e" d="M78.86,72a.59.59,0,0,1,0-.13c0-2,0-3.94,0-5.91h4.78c-.12,1.46-.25,2.93-.34,4.39,0,.43-.29.52-.62.6Z"/><path class="fd00f04d-abdf-4ba0-9612-19a6fc99e1be" d="M78.86,54.11l-9.61,0c.23-.35.59-.21.89-.21h17.4c.31,0,.66-.12.93.17Z"/><path class="fd00f04d-abdf-4ba0-9612-19a6fc99e1be" d="M83.64,66H78.86c-2.55,0-5.09,0-7.64,0-.3,0-.65.13-.91-.17l8.55,0c1.27,0,2.54,0,3.81,0C83,65.83,83.37,65.64,83.64,66Z"/><path class="b4fc9fd4-83e0-4bcb-bd03-b960f5d78908" d="M83.64,66c-.27-.35-.65-.16-1-.17-1.27,0-2.54,0-3.81,0V62l8.89-.06c.39.59,0,1.2,0,1.79-.24,3.18-.55,6.36-.82,9.54,0,.38-.1.65-.55.77-2.37.63-4.72,1.3-7.09,2a1.54,1.54,0,0,1-.43,0c0-1.3,0-2.61,0-3.91L82.68,71c.33-.08.59-.17.62-.6C83.39,68.92,83.52,67.45,83.64,66Z"/><path class="e118bd8f-1ad3-48d5-bebd-da18dfa94f11" d="M78.86,54.11l9.61-.06c.22.14.15.34.1.54l-.06.26c-.06.86-.15,1.71-.19,2.57,0,.41-.15.56-.58.56-3,0-5.93,0-8.9,0C78.85,56.66,78.85,55.39,78.86,54.11Z"/><path class="aad01180-24f3-43c0-8e90-e8f178226972" d="M73.86,61.72c-.11-1.06-.21-2.11-.35-3.16-.06-.49.12-.61.57-.6,1.6,0,3.19,0,4.78,0v3.71Z"/><path class="fd00f04d-abdf-4ba0-9612-19a6fc99e1be" d="M73.86,61.72h13c.31,0,.66-.12.92.17L78.86,62c-1.41,0-2.82,0-4.22,0C74.38,61.9,74,62.09,73.86,61.72Z"/><path class="a3a64988-1ee1-4846-8bbd-55a1bad85433" d="M88.51,54.85l.06-.26Z"/><path class="aad01180-24f3-43c0-8e90-e8f178226972" d="M105.34,92.39H52.53c-3.37-1.22-4.43-3.72-4.41-7.17q.1-28,0-56c0-3.45,1-5.94,4.41-7.16H87.84c4.63.82,8.1,3.48,11.17,6.87,1.92,2.12,4,4.07,6,6.08a15.12,15.12,0,0,1,4.65,11.18c0,13,0,26,0,39C109.78,88.67,108.71,91.17,105.34,92.39ZM87.78,26.62a13.57,13.57,0,0,0-1.43-.14c-10.67,0-21.34,0-32,0-1.37,0-1.82.6-1.81,1.9,0,3.64,0,7.28,0,10.93q0,23.27,0,46.53c0,1.3.13,2.22,1.8,2.22q24.62,0,49.21,0c1.24,0,1.81-.45,1.81-1.73q0-20.46,0-40.92c0-1.09-.38-1.41-1.46-1.4-4.79.05-9.58,0-14.37,0H87.78Zm15,13L92.2,28.92V39.61Z"/><path class="ace1caac-afe3-4da3-857a-81745849f0bc" d="M359.5,52.48h5.3c.13.18.32.11.49.13a32.66,32.66,0,0,1,8.46,1.74A20.09,20.09,0,0,1,379,57.06a9.54,9.54,0,0,1,3.67,5.09v2.12c-.16.08-.17.25-.21.39a7.2,7.2,0,0,1-1.65,2.92,15.82,15.82,0,0,1-6.76,4.25,36.34,36.34,0,0,1-19.39,1.25,23.06,23.06,0,0,1-9.47-3.89A9.52,9.52,0,0,1,342,65.36c-.16-.36-.14-.79-.44-1.09V62a.35.35,0,0,0,.13-.14,9.57,9.57,0,0,1,4.58-5.52,26.83,26.83,0,0,1,10.33-3.49A22.86,22.86,0,0,0,359.5,52.48Zm11.85,5.62c-.75,0-1.5,0-2.25,0-.47,0-.68.12-.74.59s-.22,1.13-.33,1.69c-.56,2.86-1.11,5.72-1.69,8.57-.1.45,0,.54.43.52s1.11,0,1.66,0c.35,0,.51-.1.56-.45.09-.64.24-1.26.34-1.89.07-.43.21-.66.71-.61.66,0,1.33,0,2,0A4.94,4.94,0,0,0,377,62.46c.53-2.75-.75-4.32-3.56-4.36Zm-18.87,0v0c-.77,0-1.54,0-2.32,0-.4,0-.56.11-.64.54q-1,5.16-2,10.31c-.09.43,0,.55.44.53s1.11,0,1.66,0c.34,0,.51-.07.56-.45.09-.67.26-1.34.37-2,.06-.34.19-.5.56-.48.66,0,1.33,0,2,0a5,5,0,0,0,5.09-4.27c.42-2.43-.69-3.92-3.14-4.12C354.17,58.07,353.32,58.13,352.48,58.13Zm12.46,8.4a7,7,0,0,1,.93,0c.44.06.58-.16.64-.54.27-1.65.48-3.32.85-5s-.59-2.64-2.17-2.88a17.08,17.08,0,0,0-2.58-.07c-.39,0-.58-.09-.47-.53s.15-.78.23-1.17c.26-1.26.26-1.26-1-1.26-.31,0-.62,0-.93,0s-.53.1-.6.49c-.29,1.6-.62,3.2-.94,4.8-.37,1.84-.73,3.68-1.11,5.51-.1.48,0,.63.51.6a11,11,0,0,1,1.52,0c.41,0,.57-.12.65-.54.32-1.75.7-3.5,1-5.25.08-.43.25-.6.69-.57s1,0,1.46,0c.9,0,1.1.26.93,1.13l-.72,3.84c-.08.43-.35,1-.17,1.26S364.56,66.48,364.94,66.53Z"/><path class="e1e55943-326e-4874-a566-672000d2f289" d="M371.35,58.1h2c2.81,0,4.09,1.61,3.56,4.36A4.94,4.94,0,0,1,372,66.53c-.66,0-1.33,0-2,0-.5,0-.64.18-.71.61-.1.63-.25,1.25-.34,1.89-.05.35-.21.47-.56.45-.55,0-1.11,0-1.66,0s-.53-.07-.43-.52c.58-2.85,1.13-5.71,1.69-8.57.11-.56.26-1.12.33-1.69s.27-.62.74-.59C369.85,58.12,370.6,58.1,371.35,58.1Zm.61,2.09c-.28,0-.57,0-.85,0s-.39.05-.43.3c-.2,1.19-.39,2.38-.59,3.57,0,.21,0,.35.26.34a5.87,5.87,0,0,0,2.53-.27,2.89,2.89,0,0,0,1.33-2.93c-.14-.7-.76-1-2-1Z"/><path class="e1e55943-326e-4874-a566-672000d2f289" d="M352.48,58.13c.84,0,1.69-.06,2.52,0,2.45.2,3.56,1.69,3.14,4.12a5,5,0,0,1-5.09,4.27c-.66,0-1.33,0-2,0-.37,0-.5.14-.56.48-.11.67-.28,1.34-.37,2-.05.38-.22.47-.56.45-.55,0-1.11,0-1.66,0s-.53-.1-.44-.53q1-5.14,2-10.31c.08-.43.24-.55.64-.54.78,0,1.55,0,2.32,0Zm.61,2.06a3.53,3.53,0,0,1-.46,0c-.55-.08-.85.07-.89.7s-.23,1.17-.28,1.76-.53,1.37-.07,1.68,1.24.12,1.87,0a2.58,2.58,0,0,0,2.13-3C355.32,60.51,354.7,60.19,353.09,60.19Z"/><path class="e1e55943-326e-4874-a566-672000d2f289" d="M364.94,66.53c-.38,0-1,.21-1.25-.11s.09-.83.17-1.26l.72-3.84c.17-.87,0-1.11-.93-1.13-.49,0-1,0-1.46,0s-.61.14-.69.57c-.33,1.75-.71,3.5-1,5.25-.08.42-.24.56-.65.54a11,11,0,0,0-1.52,0c-.48,0-.61-.12-.51-.6.38-1.83.74-3.67,1.11-5.51.32-1.6.65-3.2.94-4.8.07-.39.22-.53.6-.49s.62,0,.93,0c1.26,0,1.26,0,1,1.26-.08.39-.13.79-.23,1.17s.08.53.47.53a17.08,17.08,0,0,1,2.58.07c1.58.24,2.55,1.2,2.17,2.88s-.58,3.3-.85,5c-.06.38-.2.6-.64.54A7,7,0,0,0,364.94,66.53Z"/><path class="ace1caac-afe3-4da3-857a-81745849f0bc" d="M372,60.19h.2c1.29,0,1.91.31,2,1a2.89,2.89,0,0,1-1.33,2.93,5.87,5.87,0,0,1-2.53.27c-.25,0-.29-.13-.26-.34.2-1.19.39-2.38.59-3.57,0-.25.2-.31.43-.3S371.68,60.19,372,60.19Z"/><path class="ace1caac-afe3-4da3-857a-81745849f0bc" d="M353.09,60.19c1.61,0,2.23.32,2.3,1.2a2.58,2.58,0,0,1-2.13,3c-.63.1-1.43.27-1.87,0s0-1.1.07-1.68.25-1.17.28-1.76.34-.78.89-.7A3.53,3.53,0,0,0,353.09,60.19Z"/><path class="ace1caac-afe3-4da3-857a-81745849f0bc" d="M388.55,92.39H335.74c-3.37-1.22-4.42-3.72-4.41-7.17q.12-28,0-56c0-3.45,1-5.94,4.41-7.16h35.31c4.63.82,8.11,3.48,11.18,6.87,1.92,2.12,4,4.07,6,6.08a15.16,15.16,0,0,1,4.65,11.18c0,13-.06,26,0,39C393,88.67,391.93,91.17,388.55,92.39ZM371,26.62a13.41,13.41,0,0,0-1.42-.14c-10.67,0-21.35,0-32,0-1.38,0-1.83.6-1.81,1.9,0,3.64,0,7.28,0,10.93q0,23.27,0,46.53c0,1.3.12,2.22,1.8,2.22q24.6,0,49.2,0c1.24,0,1.82-.45,1.82-1.73q0-20.46,0-40.92c0-1.09-.37-1.41-1.45-1.4-4.79.05-9.58,0-14.37,0H371Zm15,13L375.42,28.92V39.61Z"/><line class="b6716fa6-dbda-4421-beb7-a8d7da1c44e4" x1="304.84" y1="52.22" x2="255.76" y2="52.22"/><polygon class="aad01180-24f3-43c0-8e90-e8f178226972" points="298.61 39.76 320.2 52.22 298.61 64.69 298.61 39.76"/><line class="fa7620bc-ca75-4bd5-9836-839f60b3abe9" x1="266.34" y1="73.94" x2="309.1" y2="73.94"/><polygon class="ace1caac-afe3-4da3-857a-81745849f0bc" points="272.32 86.4 250.73 73.94 272.32 61.47 272.32 86.4"/><line class="b6716fa6-dbda-4421-beb7-a8d7da1c44e4" x1="156.07" y1="52.22" x2="121.42" y2="52.22"/><polygon class="aad01180-24f3-43c0-8e90-e8f178226972" points="150.4 39.76 171.99 52.22 150.4 64.69 150.4 39.76"/><line class="fa7620bc-ca75-4bd5-9836-839f60b3abe9" x1="133.59" y1="73.94" x2="163.28" y2="73.94"/><polygon class="ace1caac-afe3-4da3-857a-81745849f0bc" points="139.06 86.4 117.48 73.94 139.06 61.47 139.06 86.4"/><text class="e68ab932-310e-474e-a3db-0423d4db4db3" transform="translate(168.22 120.62)"><tspan class="a39c4905-505e-48df-8415-d1d5f5954471">v</tspan><tspan x="9.05" y="0">alid</tspan><tspan class="b61e904c-923f-473c-823a-18ca2c1caa5e" x="38.97" y="0">at</tspan><tspan x="54.7" y="0">e</tspan><tspan class="b61e904c-923f-473c-823a-18ca2c1caa5e" x="64.03" y="0">F</tspan><tspan class="b4db74e8-5e6f-4852-aaf8-25630f6d65f1" x="73.13" y="0">orm</tspan><tspan class="b73f225b-66d9-404b-9f3c-90b711c1b6fb" x="105.71" y="0">.</tspan><tspan x="111.76" y="0">js</tspan></text><path class="b739fcd3-8048-4599-acf5-252de61da5b9" d="M234.45,92.39H181.63c-3.37-1.22-4.42-3.72-4.41-7.17q.12-28,0-56c0-3.45,1-5.94,4.41-7.16H217c4.62.82,8.1,3.48,11.17,6.87,1.92,2.12,4,4.07,6,6.08a15.12,15.12,0,0,1,4.65,11.18c0,13-.06,26,0,39C238.88,88.67,237.82,91.17,234.45,92.39ZM216.88,26.62a13.41,13.41,0,0,0-1.42-.14c-10.67,0-21.35,0-32,0-1.37,0-1.83.6-1.81,1.9,0,3.64,0,7.28,0,10.93q0,23.27,0,46.53c0,1.3.13,2.22,1.8,2.22q24.6,0,49.21,0c1.23,0,1.81-.45,1.81-1.73q0-20.46,0-40.92c0-1.09-.37-1.41-1.45-1.4-4.79.05-9.58,0-14.37,0h-1.75Zm15,13L221.31,28.92V39.61Z"/><path class="b739fcd3-8048-4599-acf5-252de61da5b9" d="M193.15,50v-.93h30a1,1,0,0,1,.64.1v.72c-.1,0-.09.13-.1.21q-.26,2.78-.5,5.53c-.32,3.66-.64,7.31-1,11-.39,4.42-.8,8.84-1.18,13.27a.61.61,0,0,1-.54.64q-5.85,1.61-11.68,3.24a1.49,1.49,0,0,1-.81,0c-1.07-.31-2.14-.6-3.21-.89l-8.47-2.36c-.22-.06-.43-.08-.46-.42-.18-2.26-.4-4.51-.6-6.77-.29-3.26-.57-6.52-.86-9.78-.34-3.74-.66-7.48-1-11.22A8.91,8.91,0,0,0,193.15,50ZM208.5,67.12v6l-.1.06c-1.25-.34-2.5-.7-3.75-1a.57.57,0,0,1-.51-.62c0-.74-.13-1.47-.18-2.21,0-.29-.13-.37-.4-.36-1.05,0-2.1,0-3.14,0-.36,0-.39.15-.36.43.17,1.77.33,3.55.49,5.32,0,.22.08.33.3.39l7.52,2.06.13.06c0,1.16,0,2.33,0,3.5,0,.3,0,.43.41.33l9.3-2.58c.33-.09.49-.26.48-.56a14,14,0,0,1,.13-1.58c0-.9.13-1.81.21-2.71.13-1.35.27-2.71.39-4.07s.21-2.62.33-3.93.27-2.68.39-4,.2-2.79.33-4.18c.15-1.72.32-3.43.5-5.15,0-.45-.08-.62-.58-.62-3.5,0-7,0-10.5,0-1.4,0-1.4,0-1.38,1.4l-.56,0c-2,0-4,0-6,0-.48,0-.72.06-.71.62a15,15,0,0,1-.16,1.63c-.34,3.76-.67,7.52-1,11.27,0,.4.07.49.46.49,2.16,0,4.32,0,6.48,0a7.16,7.16,0,0,0,1.39,0Z"/><path class="ba474dbb-8331-4d7e-adb4-e98225d177ab" d="M208.5,53.08c0-1.4,0-1.4,1.38-1.4,3.5,0,7,0,10.5,0,.5,0,.63.17.58.62-.18,1.72-.35,3.43-.5,5.15-.13,1.39-.21,2.79-.33,4.18s-.27,2.68-.39,4-.21,2.62-.33,3.93-.26,2.72-.39,4.07c-.08.9-.17,1.81-.21,2.71a14,14,0,0,0-.13,1.58c0,.3-.15.47-.48.56l-9.3,2.58c-.37.1-.41,0-.41-.33,0-1.17,0-2.34,0-3.5a1.62,1.62,0,0,1,.28-.11l6-1.67a3.5,3.5,0,0,0,1.4-.44c.36-.33.19-1,.24-1.47.3-3.26.59-6.52.9-9.77,0-.45-.06-.57-.53-.57-2.77,0-5.55,0-8.32,0V57.13c1.4.07,2.8.16,4.21.21.36,0,.46.14.49.47.07,1,.18,2,.26,3.07,0,.32.08.49.47.48,1,0,2.05,0,3.08,0,.31,0,.39-.11.36-.39q-.12-1.12-.21-2.25l-.45-5.17c0-.25,0-.45-.39-.45l-7.81,0Z"/><path class="eea88a6a-e32e-41ae-a7a6-ae15a0065dee" d="M208.4,67.06a7.16,7.16,0,0,1-1.39,0c-2.16,0-4.32,0-6.48,0-.39,0-.49-.09-.46-.49.36-3.75.69-7.51,1-11.27a15,15,0,0,0,.16-1.63c0-.56.23-.63.71-.62,2,0,4,0,6,0l.56,0v.05c0,1.33,0,2.67,0,4v0c-1.08,0-2.16.07-3.24.07-.35,0-.45.1-.48.45-.14,1.71-.29,3.42-.47,5.12,0,.36.05.43.38.43,1.24,0,2.47,0,3.71,0Z"/><path class="b4dcf384-cfc7-4521-afbd-df6c93047ae0" d="M208.4,67.06V63.24l.1,0c2.77,0,5.55,0,8.32,0,.47,0,.57.12.53.57-.31,3.25-.6,6.51-.9,9.77,0,.5.12,1.14-.24,1.47a3.5,3.5,0,0,1-1.4.44l-6,1.67a1.62,1.62,0,0,0-.28.11l-.13-.06,0-4,.1-.06,4-1c.18,0,.26-.12.27-.3.13-1.45.27-2.9.4-4.35,0-.25,0-.37-.32-.37l-4.31,0Z"/><path class="eea88a6a-e32e-41ae-a7a6-ae15a0065dee" d="M208.4,73.21l0,4-7.52-2.06c-.22-.06-.28-.17-.3-.39-.16-1.77-.32-3.55-.49-5.32,0-.28,0-.44.36-.43,1,0,2.09,0,3.14,0,.27,0,.39.07.4.36,0,.74.16,1.47.18,2.21a.57.57,0,0,0,.51.62C205.9,72.51,207.15,72.87,208.4,73.21Z"/><path class="ba474dbb-8331-4d7e-adb4-e98225d177ab" d="M208.5,67.12l4.31,0c.29,0,.35.12.32.37-.13,1.45-.27,2.9-.4,4.35,0,.18-.09.25-.27.3l-4,1Z"/><path class="b4dcf384-cfc7-4521-afbd-df6c93047ae0" d="M208.49,57.13c0-1.33,0-2.67,0-4l7.81,0c.36,0,.37.2.39.45l.45,5.17q.09,1.13.21,2.25c0,.28-.05.4-.36.39-1,0-2.06,0-3.08,0-.39,0-.45-.16-.47-.48-.08-1-.19-2-.26-3.07,0-.33-.13-.46-.49-.47C211.29,57.29,209.89,57.2,208.49,57.13Z"/><path class="b739fcd3-8048-4599-acf5-252de61da5b9" d="M208.5,63.21l-.1,0c-1.24,0-2.47,0-3.71,0-.33,0-.42-.07-.38-.43.18-1.7.33-3.41.47-5.12,0-.35.13-.45.48-.45,1.08,0,2.16,0,3.24-.07Z"/><text class="b1bc69e6-b796-4ae6-ba33-bac077995da9" transform="translate(168.22 173.4)">2) envía la d<tspan class="edd732e0-7c9f-4710-b40c-7c73e102f3b3" x="59.69" y="0">at</tspan><tspan x="69.46" y="0">os al </tspan><tspan class="edd732e0-7c9f-4710-b40c-7c73e102f3b3" x="94.89" y="0">b</tspan><tspan class="bb3eda83-27ff-48be-9da7-fe21fe34bebd" x="101.36" y="0">ac</tspan><tspan class="b61e904c-923f-473c-823a-18ca2c1caa5e" x="112.88" y="0">k</tspan><tspan x="118.61" y="0">end</tspan></text><text class="e827a839-909e-4abc-92ad-71c3b5c305d3" transform="translate(168.22 194.4)">3) imprime en ind<tspan class="e742b28e-5d37-4616-967d-8d5959ced04a" x="88.07" y="0">e</tspan><tspan x="93.93" y="0">x la</tspan><tspan x="0" y="14.4" xml:space="preserve">     </tspan><tspan class="a3325602-b524-4cd8-b98d-61d961920db8" x="12" y="14.4">r</tspan><tspan class="a05ac2aa-0dd3-4392-9f4d-6ef2389f4ad7" x="16.04" y="14.4">espue</tspan><tspan class="b5c36e31-3c9d-45de-bf8b-efa61632856f" x="46.16" y="14.4">s</tspan><tspan class="bf8b11af-1436-4859-abe0-a6e8cb570a57" x="50.95" y="14.4">t</tspan><tspan x="54.75" y="14.4" xml:space="preserve">a  del </tspan><tspan class="edd732e0-7c9f-4710-b40c-7c73e102f3b3" x="83.67" y="14.4">b</tspan><tspan x="90.14" y="14.4">ac</tspan><tspan class="a38b09b8-7e8d-47c0-a6a6-b12ec7c2830b" x="101.66" y="14.4">k</tspan><tspan x="107.39" y="14.4">end</tspan></text><text class="b1bc69e6-b796-4ae6-ba33-bac077995da9" transform="translate(48.11 141.4)">• e<tspan class="b5c36e31-3c9d-45de-bf8b-efa61632856f" x="12" y="0">s</tspan><tspan x="16.79" y="0">tru</tspan><tspan class="a2a17d75-6888-4dcc-8570-438ae90bf02f" x="31.54" y="0">c</tspan><tspan x="36.89" y="0">tu</tspan><tspan class="b80c983d-bc6d-4098-802b-a382ec2c9b58" x="47.47" y="0">r</tspan><tspan x="51.35" y="0">a in</tspan><tspan class="a2a17d75-6888-4dcc-8570-438ae90bf02f" x="69.31" y="0">f</tspan><tspan x="72.7" y="0">o</tspan></text><text class="baca18ab-e26b-4dcb-9e8b-6f083d66f3a7" transform="translate(48.11 334.4)">• e<tspan class="b5c36e31-3c9d-45de-bf8b-efa61632856f" x="12" y="0">s</tspan><tspan x="16.79" y="0">tili</tspan><tspan class="a780b8fd-a566-4c52-9cbb-b985260db0e5" x="29.81" y="0">z</tspan><tspan x="34.63" y="0">a la in</tspan><tspan class="a3325602-b524-4cd8-b98d-61d961920db8" x="64.1" y="0">f</tspan><tspan x="67.49" y="0">o</tspan></text><text class="afdaa708-2125-4aac-9775-0d9771431abb" transform="translate(167.22 141.4)">1) <tspan class="bea5b7ed-578a-4bd1-984e-25f46c5978cf" x="12" y="0">v</tspan><tspan x="17.36" y="0">alida que los </tspan><tspan class="a2a17d75-6888-4dcc-8570-438ae90bf02f" x="83.06" y="0">c</tspan><tspan x="88.42" y="0">ampos</tspan><tspan x="0" y="14.4" xml:space="preserve">     no e</tspan><tspan class="b31b6c38-ff79-4af6-8a85-98b1498c3490" x="33.42" y="14.4">s</tspan><tspan class="f935d198-7295-477f-95d5-272a27575cb7" x="38.21" y="14.4">t</tspan><tspan x="42.1" y="14.4">en </tspan><tspan class="b5c36e31-3c9d-45de-bf8b-efa61632856f" x="57.01" y="14.4">v</tspan><tspan class="bb3eda83-27ff-48be-9da7-fe21fe34bebd" x="62.38" y="14.4">acios</tspan></text><path d="M433.75,215.44H417.84a2,2,0,0,1-1.33-2.16q0-8.43,0-16.86a2,2,0,0,1,1.33-2.16h10.64a5.92,5.92,0,0,1,3.36,2.07c.58.64,1.21,1.23,1.83,1.83a4.57,4.57,0,0,1,1.4,3.37c0,3.92,0,7.83,0,11.75A2,2,0,0,1,433.75,215.44Zm-5.29-19.82c-.19,0-.31,0-.43,0h-9.65c-.41,0-.55.18-.55.57,0,1.1,0,2.2,0,3.3q0,7,0,14c0,.39,0,.67.55.67H433.2c.38,0,.55-.14.55-.53,0-4.1,0-8.21,0-12.32,0-.33-.11-.43-.44-.43-1.44,0-2.88,0-4.33,0h-.52Zm4.52,3.92-3.19-3.22v3.22Z"/><text class="a80c4615-d589-4fb4-bf88-63d50b7e3dc3" transform="translate(331.06 120.98)"><tspan class="aa9406ca-7211-441b-8564-d4bb59a19941">b</tspan><tspan x="10.12" y="0">ac</tspan><tspan class="ee13d82a-d784-49a6-9c3d-91d910e3980a" x="28.01" y="0">k</tspan><tspan x="37.37" y="0">end.php</tspan></text><text class="e827a839-909e-4abc-92ad-71c3b5c305d3" transform="translate(331.06 141.72)">• envía email <tspan class="bf8b11af-1436-4859-abe0-a6e8cb570a57" x="65.93" y="0">c</tspan><tspan x="71.15" y="0">on e</tspan><tspan class="b5c36e31-3c9d-45de-bf8b-efa61632856f" x="92.57" y="0">s</tspan><tspan x="97.35" y="0">tilo css</tspan></text><text class="e827a839-909e-4abc-92ad-71c3b5c305d3" transform="translate(331.06 208.72)">• c<tspan class="a3325602-b524-4cd8-b98d-61d961920db8" x="11.52" y="0">r</tspan><tspan class="edd732e0-7c9f-4710-b40c-7c73e102f3b3" x="15.56" y="0">e</tspan><tspan x="21.35" y="0">a </tspan><tspan class="a3325602-b524-4cd8-b98d-61d961920db8" x="29.8" y="0">r</tspan><tspan class="a05ac2aa-0dd3-4392-9f4d-6ef2389f4ad7" x="33.84" y="0">espue</tspan><tspan class="b5c36e31-3c9d-45de-bf8b-efa61632856f" x="63.96" y="0">s</tspan><tspan class="bf8b11af-1436-4859-abe0-a6e8cb570a57" x="68.75" y="0">t</tspan><tspan x="72.55" y="0">a</tspan></text><path d="M482.88,130.19h.54v.74c0,.08-.05.15-.07.22-.16,1-.33,2.07-.5,3.1-.37,2.29-.75,4.59-1.12,6.89-.13.8-.25,1.6-.41,2.39s-.4.87-1.07.59c-1.09-.44-2.17-.87-3.24-1.34a.43.43,0,0,0-.61.17c-.3.42-.64.82-1,1.21a3.62,3.62,0,0,1-1.21,1.19H474a1.65,1.65,0,0,1-.26-.62c0-.83,0-1.67,0-2.5a.91.91,0,0,1,.24-.67l6.67-8.17c.05-.06.08-.13.13-.2a.37.37,0,0,0-.2.09l-8.37,7.23a.4.4,0,0,1-.5.09c-1-.41-2-.8-2.93-1.22a2.41,2.41,0,0,1-.52-.4v-.13a4.75,4.75,0,0,1,.69-.66q5.61-3.27,11.25-6.51C481,131.16,482,130.68,482.88,130.19Z"/><path class="f4092b2e-56d4-4e46-bb88-ce2e65f51611" d="M505.26,130.18c2.27,0,4.54,0,6.81,0,.36,0,.41.11.38.42q-.56,6.07-1.09,12.15c-.06.62-.12,1.23-.17,1.85a.37.37,0,0,1-.32.4q-2.72.73-5.43,1.5a.78.78,0,0,1-.4,0c-1.78-.5-3.56-1-5.35-1.48a.42.42,0,0,1-.36-.45q-.49-5.55-1-11.11c-.08-1-.16-1.93-.26-2.9,0-.28,0-.37.34-.37Zm-.12,6.53h-1.73c-.18,0-.29,0-.27.25.05.45.08.9.11,1.35,0,.22.16.22.32.22h1.65v2.83l-1.16-.3c-.77-.21-.77-.21-.86-1a3.44,3.44,0,0,1-.05-.45c0-.19-.09-.24-.26-.24-.43,0-.85,0-1.28,0-.25,0-.31.09-.28.32.07.72.14,1.45.19,2.18a.46.46,0,0,0,.4.47c1.11.29,2.21.61,3.31.92v1.5c0,.52,0,.51.48.38l3.62-1c.77-.21.76-.2.8-1s.11-1.62.18-2.43c.09-1.11.21-2.22.31-3.33.07-.72.12-1.45.19-2.17.1-1.14.2-2.28.31-3.41,0-.29,0-.42-.37-.42-1.72,0-3.43,0-5.15,0-.29,0-.38.09-.38.38a3.21,3.21,0,0,1-.08,1.27h-4.05c-.27,0-.37.07-.33.35a10.43,10.43,0,0,1,.11,1.11c0,.32.14.37.43.37,1.31,0,2.62,0,3.93,0a4.69,4.69,0,0,1,0,.53A3.68,3.68,0,0,1,505.14,136.71Z"/><path class="f0c43368-0114-494a-bf9c-293abbcb596d" d="M505.14,133.06a3.21,3.21,0,0,0,.08-1.27c0-.29.09-.38.38-.38,1.72,0,3.43,0,5.15,0,.33,0,.4.13.37.42-.11,1.13-.21,2.27-.31,3.41-.07.72-.12,1.45-.19,2.17-.1,1.11-.22,2.22-.31,3.33-.07.81-.15,1.62-.18,2.43s0,.78-.8,1l-3.62,1c-.48.13-.48.14-.48-.38v-1.5l.08,0c1.05-.29,2.1-.6,3.16-.85a.64.64,0,0,0,.57-.7c.08-1.2.2-2.39.31-3.59.14-1.58.28-3.17.43-4.75,0-.23,0-.31-.28-.31l-4.19,0Z"/><path class="f2313766-0689-4bef-ad62-a8eb12e0cdbb" d="M505.31,143.27l-.08,0c-1.1-.31-2.2-.63-3.31-.92a.46.46,0,0,1-.4-.47c0-.73-.12-1.46-.19-2.18,0-.23,0-.33.28-.32.43,0,.85,0,1.28,0,.17,0,.26.05.26.24a3.44,3.44,0,0,0,.05.45c.09.77.09.77.86,1l1.16.3.09,0Z"/><path class="e5a9d8e0-7de4-46c2-9311-dba95ca43279" d="M505.14,133.06l.17,0v1.76l-.08.05c-1.31,0-2.62,0-3.93,0-.29,0-.43,0-.43-.37a10.43,10.43,0,0,0-.11-1.11c0-.28.06-.35.33-.35Z"/><path class="f0c43368-0114-494a-bf9c-293abbcb596d" d="M505.31,141.41l-.09,0V138.5a18.13,18.13,0,0,0,1.95,0c.22,0,.33.05.3.3-.07.62-.12,1.23-.17,1.85,0,.2-.15.21-.28.25Z"/><path class="f0c43368-0114-494a-bf9c-293abbcb596d" d="M505.23,134.9l.08-.05c.72,0,1.44,0,2.16,0,.28,0,.36.08.32.36s-.08.77-.1,1.15-.12.35-.39.35c-.69,0-1.38,0-2.07,0l-.09,0a3.68,3.68,0,0,0,.08-1.28A4.69,4.69,0,0,0,505.23,134.9Z"/><path class="e5a9d8e0-7de4-46c2-9311-dba95ca43279" d="M505.14,136.71l.09,0a4.13,4.13,0,0,1,0,1.75v.05h-1.65c-.16,0-.31,0-.32-.22,0-.45-.06-.9-.11-1.35,0-.23.09-.25.27-.25Z"/><path class="ba934238-2278-4795-a674-1e6135db5fe2" d="M505.22,138.5a4.13,4.13,0,0,0,0-1.75c.69,0,1.38,0,2.07,0,.27,0,.37-.1.39-.35s.05-.77.1-1.15,0-.36-.32-.36c-.72,0-1.44,0-2.16,0v-1.76l4.19,0c.24,0,.3.08.28.31-.15,1.58-.29,3.17-.43,4.75-.11,1.2-.23,2.39-.31,3.59a.64.64,0,0,1-.57.7c-1.06.25-2.11.56-3.16.85v-1.86l1.71-.47c.13,0,.27-.05.28-.25.05-.62.1-1.23.17-1.85,0-.25-.08-.3-.3-.3A18.13,18.13,0,0,1,505.22,138.5Z"/><path d="M489.78,142.23v-3.14h-2.93v-1h2.93V135h1v3.14h2.93v1h-2.93v3.14Z"/><text class="e827a839-909e-4abc-92ad-71c3b5c305d3" transform="translate(331.06 170.72)">• envía email <tspan class="bf8b11af-1436-4859-abe0-a6e8cb570a57" x="65.93" y="0">c</tspan><tspan x="71.15" y="0">on e</tspan><tspan class="b5c36e31-3c9d-45de-bf8b-efa61632856f" x="92.57" y="0">s</tspan><tspan x="97.35" y="0">tilo css</tspan><tspan x="0" y="14.4" xml:space="preserve">  (</tspan><tspan class="a3325602-b524-4cd8-b98d-61d961920db8" x="8.44" y="14.4">r</tspan><tspan x="12.48" y="14.4">es</tspan><tspan class="edd732e0-7c9f-4710-b40c-7c73e102f3b3" x="23.46" y="14.4">p</tspan><tspan x="29.95" y="14.4">aldo al </tspan><tspan class="a3325602-b524-4cd8-b98d-61d961920db8" x="66.13" y="14.4">r</tspan><tspan x="70.17" y="14.4">emi</tspan><tspan class="edd732e0-7c9f-4710-b40c-7c73e102f3b3" x="89.03" y="14.4">t</tspan><tspan x="92.91" y="14.4">en</tspan><tspan class="edd732e0-7c9f-4710-b40c-7c73e102f3b3" x="105.43" y="14.4">t</tspan><tspan x="109.32" y="14.4">e)</tspan></text><path d="M482.88,159.19h.54v.74c0,.08-.05.15-.07.22-.16,1-.33,2.07-.5,3.1-.37,2.29-.75,4.59-1.12,6.89-.13.8-.25,1.6-.41,2.39s-.4.87-1.07.59c-1.09-.44-2.17-.87-3.24-1.34a.43.43,0,0,0-.61.17c-.3.42-.64.82-1,1.21a3.62,3.62,0,0,1-1.21,1.19H474a1.65,1.65,0,0,1-.26-.62c0-.83,0-1.67,0-2.5a.91.91,0,0,1,.24-.67l6.67-8.17c.05-.06.08-.13.13-.2a.37.37,0,0,0-.2.09l-8.37,7.23a.4.4,0,0,1-.5.09c-1-.41-2-.8-2.93-1.22a2.41,2.41,0,0,1-.52-.4v-.13a4.75,4.75,0,0,1,.69-.66q5.61-3.27,11.25-6.51C481,160.16,482,159.68,482.88,159.19Z"/><path class="f4092b2e-56d4-4e46-bb88-ce2e65f51611" d="M505.26,159.18c2.27,0,4.54,0,6.81,0,.36,0,.41.11.38.42q-.56,6.07-1.09,12.15c-.06.62-.12,1.23-.17,1.85a.37.37,0,0,1-.32.4q-2.72.73-5.43,1.5a.78.78,0,0,1-.4,0c-1.78-.5-3.56-1-5.35-1.48a.42.42,0,0,1-.36-.45q-.49-5.55-1-11.11c-.08-1-.16-1.93-.26-2.9,0-.28,0-.37.34-.37Zm-.12,6.53h-1.73c-.18,0-.29,0-.27.25.05.45.08.9.11,1.35,0,.22.16.22.32.22h1.65v2.83l-1.16-.3c-.77-.21-.77-.21-.86-1a3.44,3.44,0,0,1-.05-.45c0-.19-.09-.24-.26-.24-.43,0-.85,0-1.28,0-.25,0-.31.09-.28.32.07.72.14,1.45.19,2.18a.46.46,0,0,0,.4.47c1.11.29,2.21.61,3.31.92v1.5c0,.52,0,.51.48.38l3.62-1c.77-.21.76-.2.8-1s.11-1.62.18-2.43c.09-1.11.21-2.22.31-3.33.07-.72.12-1.45.19-2.17.1-1.14.2-2.28.31-3.41,0-.29,0-.42-.37-.42-1.72,0-3.43,0-5.15,0-.29,0-.38.09-.38.38a3.21,3.21,0,0,1-.08,1.27h-4.05c-.27,0-.37.07-.33.35a10.43,10.43,0,0,1,.11,1.11c0,.32.14.37.43.37,1.31,0,2.62,0,3.93,0a4.69,4.69,0,0,1,0,.53A3.68,3.68,0,0,1,505.14,165.71Z"/><path class="f0c43368-0114-494a-bf9c-293abbcb596d" d="M505.14,162.06a3.21,3.21,0,0,0,.08-1.27c0-.29.09-.38.38-.38,1.72,0,3.43,0,5.15,0,.33,0,.4.13.37.42-.11,1.13-.21,2.27-.31,3.41-.07.72-.12,1.45-.19,2.17-.1,1.11-.22,2.22-.31,3.33-.07.81-.15,1.62-.18,2.43s0,.78-.8,1l-3.62,1c-.48.13-.48.14-.48-.38v-1.5l.08,0c1.05-.29,2.1-.6,3.16-.85a.64.64,0,0,0,.57-.7c.08-1.2.2-2.39.31-3.59.14-1.58.28-3.17.43-4.75,0-.23,0-.31-.28-.31l-4.19,0Z"/><path class="f2313766-0689-4bef-ad62-a8eb12e0cdbb" d="M505.31,172.27l-.08,0c-1.1-.31-2.2-.63-3.31-.92a.46.46,0,0,1-.4-.47c0-.73-.12-1.46-.19-2.18,0-.23,0-.33.28-.32.43,0,.85,0,1.28,0,.17,0,.26.05.26.24a3.44,3.44,0,0,0,.05.45c.09.77.09.77.86,1l1.16.3.09,0Z"/><path class="e5a9d8e0-7de4-46c2-9311-dba95ca43279" d="M505.14,162.06l.17,0v1.76l-.08.05c-1.31,0-2.62,0-3.93,0-.29,0-.43,0-.43-.37a10.43,10.43,0,0,0-.11-1.11c0-.28.06-.35.33-.35Z"/><path class="f0c43368-0114-494a-bf9c-293abbcb596d" d="M505.31,170.41l-.09,0V167.5a18.13,18.13,0,0,0,1.95,0c.22,0,.33.05.3.3-.07.62-.12,1.23-.17,1.85,0,.2-.15.21-.28.25Z"/><path class="f0c43368-0114-494a-bf9c-293abbcb596d" d="M505.23,163.9l.08-.05c.72,0,1.44,0,2.16,0,.28,0,.36.08.32.36s-.08.77-.1,1.15-.12.35-.39.35c-.69,0-1.38,0-2.07,0l-.09,0a3.68,3.68,0,0,0,.08-1.28A4.69,4.69,0,0,0,505.23,163.9Z"/><path class="e5a9d8e0-7de4-46c2-9311-dba95ca43279" d="M505.14,165.71l.09,0a4.13,4.13,0,0,1,0,1.75v.05h-1.65c-.16,0-.31,0-.32-.22,0-.45-.06-.9-.11-1.35,0-.23.09-.25.27-.25Z"/><path class="ba934238-2278-4795-a674-1e6135db5fe2" d="M505.22,167.5a4.13,4.13,0,0,0,0-1.75c.69,0,1.38,0,2.07,0,.27,0,.37-.1.39-.35s.05-.77.1-1.15,0-.36-.32-.36c-.72,0-1.44,0-2.16,0v-1.76l4.19,0c.24,0,.3.08.28.31-.15,1.58-.29,3.17-.43,4.75-.11,1.2-.23,2.39-.31,3.59a.64.64,0,0,1-.57.7c-1.06.25-2.11.56-3.16.85v-1.86l1.71-.47c.13,0,.27-.05.28-.25.05-.62.1-1.23.17-1.85,0-.25-.08-.3-.3-.3A18.13,18.13,0,0,1,505.22,167.5Z"/><path d="M489.78,171.23v-3.14h-2.93v-1h2.93V164h1v3.14h2.93v1h-2.93v3.14Z"/></svg>