<svg id="fedf5e32-3dfb-445b-a24b-d4de7657a730" data-name="Capa 1" xmlns="http://www.w3.org/2000/svg" viewBox="0 0 422 365"><defs><style>.e2c3e674-0ea8-4342-a65a-2293cb883a9c{font-size:20.07px;font-family:MyriadPro-Semibold, Myriad Pro;font-weight:600;}.a8875895-34fc-4ead-8df0-2e877448682a{letter-spacing:-0.02em;}.b345b276-055b-45d2-bc1a-38d195f336b0{font-size:18px;font-family:MyriadPro-Regular, Myriad Pro;}.a45ef561-44fb-40ff-b747-58f49aa065c6{letter-spacing:0em;}.b09523ed-f64a-450e-a559-30561595b3a3{letter-spacing:-0.01em;}.b3c2abef-c1d3-440c-b10e-6205986d02d9{fill:#e34f27;}.b7f888a2-646a-4714-ac77-f16c1a1f5023{fill:#f0662a;}.e076b49c-d265-41a3-bcc9-fd8da0a6a268{fill:#ebe8e7;}.b3d3beed-b63b-442d-8c53-7ea97c9577d1{fill:#ef590c;}.a0696b12-14e1-4489-acbc-b41dc321844d{fill:#fefdfc;}.a479988b-19af-497d-af79-09d8d4f45a79{fill:#fefdfd;}.a7110637-6181-4ec7-8cb3-b373922f4292{fill:#1572b6;}.fb60d56b-0cb6-41e1-b352-4bb0d13af41d{fill:#34a8db;}.bce196f5-9f37-412f-bab2-e5290e5112bf{fill:#e7e8e9;}.f2a6bb1e-5069-4722-b372-4a84e3e8e66e{fill:#e4e7e9;}.e5de1dd8-fc3a-479f-b085-0491f9be8b90{fill:#fdfdfe;}.ade24cbe-4574-4e17-8f6e-1f314503c2bc{letter-spacing:-0.01em;}.a3df731b-2bf9-4daa-80fd-754d59fc1685{fill:#8692c1;}.f4a2f421-70d7-4e48-880d-3ab152684ab9{fill:#232633;}.b5337c9c-f33e-4fc3-ae91-bda8848104f8,.b708781d-0811-461a-b767-aa76b80760f6{fill:none;stroke-linecap:round;stroke-miterlimit:10;stroke-width:5px;}.b5337c9c-f33e-4fc3-ae91-bda8848104f8{stroke:#16a334;}.a0c2891e-6b07-4f04-9628-6f5110c30dc4{fill:#16a334;}.aec6cfad-6693-4134-9560-d61c1a34f113{opacity:0.3;}.b708781d-0811-461a-b767-aa76b80760f6{stroke:#000;}</style></defs><title>_</title><text class="e2c3e674-0ea8-4342-a65a-2293cb883a9c" transform="translate(15.48 26.54)"><tspan class="a8875895-34fc-4ead-8df0-2e877448682a">F</tspan><tspan x="9.89" y="0">lujo</tspan></text><text class="b345b276-055b-45d2-bc1a-38d195f336b0" transform="translate(72.98 160.99)">ind<tspan class="a45ef561-44fb-40ff-b747-58f49aa065c6" x="24.35" y="0">e</tspan><tspan x="33.32" y="0">x.php</tspan></text><text class="b345b276-055b-45d2-bc1a-38d195f336b0" transform="translate(75.38 318.27)">bas<tspan class="b09523ed-f64a-450e-a559-30561595b3a3" x="26.05" y="0">e</tspan><tspan x="34.85" y="0">.css</tspan></text><path class="b3c2abef-c1d3-440c-b10e-6205986d02d9" d="M103.73,98.54h14.41c1.09,0,1.13.06,1,1.09l-1.59,17.8c-.36,4-.73,8-1.07,12,0,.5-.24.69-.72.82q-5.77,1.56-11.54,3.19a1.59,1.59,0,0,1-.94,0c-3.85-1.08-7.69-2.16-11.55-3.2a.78.78,0,0,1-.68-.84q-.81-9.45-1.65-18.87c-.32-3.64-.66-7.27-1-10.9-.11-1.14-.12-1.14,1-1.14Zm0,18.36,0,5.92c-.94-.11-1.81-.53-2.74-.69s-1.79-.49-1.58-1.77a9.12,9.12,0,0,0-.11-1.15c0-.43-.18-.56-.59-.55-.89,0-1.78,0-2.67,0-.57,0-.71.16-.66.7.16,1.54.3,3.07.41,4.61,0,.6.29.84.88,1,2.37.62,4.72,1.32,7.09,2,0,1,0,2,0,2.94s.25,1.05,1.09.81l2.81-.79c1.79-.49,3.6-.94,5.38-1.48.37-.11,1-.11,1-.68.15-1.2.27-2.4.37-3.61.14-1.61.24-3.23.38-4.85.22-2.52.46-5,.69-7.57.14-1.56.26-3.11.41-4.67s.31-3.34.48-5c.07-.61-.14-.83-.78-.83q-5.47,0-11,0c-.67,0-.91.29-.91.9,0,.89,0,1.78,0,2.67-2.91,0-5.82,0-8.72,0-.3,0-.67-.15-.89.21l1,11.71c.26.3.61.18.92.18Z"/><path class="b7f888a2-646a-4714-ac77-f16c1a1f5023" d="M103.73,104.77c0-.89,0-1.78,0-2.67,0-.61.24-.9.91-.9q5.48,0,11,0c.64,0,.85.22.78.83q-.26,2.5-.48,5c-.15,1.56-.27,3.11-.41,4.67-.23,2.53-.47,5.05-.69,7.57-.14,1.62-.24,3.24-.38,4.85-.1,1.21-.22,2.41-.37,3.61-.07.57-.66.57-1,.68-1.78.54-3.59,1-5.38,1.48l-2.81.79c-.84.24-1.08.07-1.09-.81s0-2,0-2.94l0-.08a2.13,2.13,0,0,0,.44,0c2.36-.64,4.72-1.31,7.09-1.94.45-.12.51-.39.54-.77.28-3.19.59-6.36.83-9.55,0-.59.4-1.19,0-1.79-.27-.28-.61-.17-.92-.17h-8v-3.7l0-.07,8.9,0c.43,0,.56-.14.58-.55,0-.86.12-1.72.19-2.57l.06-.26c0-.2.12-.4-.11-.55s-.61-.17-.92-.17Z"/><path class="e076b49c-d265-41a3-bcc9-fd8da0a6a268" d="M95.17,116.71l-1-11.71,9.61,0,0,3.82,0,.07c-1.59,0-3.19,0-4.78,0-.45,0-.64.1-.57.59.14,1.05.23,2.11.35,3.16.18.37.51.19.77.19,1.41,0,2.82,0,4.22,0v3.83Z"/><path class="e076b49c-d265-41a3-bcc9-fd8da0a6a268" d="M103.73,126.94c-2.37-.66-4.72-1.36-7.09-2-.59-.15-.84-.39-.88-1-.11-1.54-.25-3.07-.41-4.61,0-.54.09-.73.66-.7.89,0,1.78,0,2.67,0,.41,0,.59.12.59.55a9.12,9.12,0,0,1,.11,1.15c-.21,1.28.55,1.6,1.58,1.77s1.8.58,2.74.69a.5.5,0,0,1,0,.12c0,1.31,0,2.61,0,3.92Z"/><path class="b7f888a2-646a-4714-ac77-f16c1a1f5023" d="M103.72,122.94a.5.5,0,0,0,0-.12l0-5.92h4.77c-.11,1.47-.24,2.93-.34,4.4,0,.42-.29.51-.62.6Z"/><path class="b3d3beed-b63b-442d-8c53-7ea97c9577d1" d="M103.73,105l-9.61,0c.22-.36.59-.21.89-.21,2.9,0,5.81,0,8.72,0h8.68c.31,0,.66-.11.92.17Z"/><path class="b3d3beed-b63b-442d-8c53-7ea97c9577d1" d="M108.5,116.89H96.09c-.31,0-.66.12-.92-.18l8.55,0c1.28,0,2.55,0,3.82,0C107.86,116.73,108.24,116.54,108.5,116.89Z"/><path class="a0696b12-14e1-4489-acbc-b41dc321844d" d="M108.5,116.89c-.26-.35-.64-.16-1-.17-1.27,0-2.54,0-3.82,0v-3.83l8.9-.07c.39.6,0,1.2,0,1.79-.24,3.19-.55,6.36-.83,9.55,0,.38-.09.65-.54.77-2.37.63-4.73,1.3-7.09,1.94a2.13,2.13,0,0,1-.44,0c0-1.31,0-2.61,0-3.92l3.82-1c.33-.09.59-.18.62-.6C108.26,119.82,108.39,118.36,108.5,116.89Z"/><path class="a479988b-19af-497d-af79-09d8d4f45a79" d="M103.73,105l9.6-.07c.23.15.16.35.11.55l-.06.26c-.07.85-.15,1.71-.19,2.57,0,.41-.15.56-.58.55l-8.9,0C103.72,107.57,103.72,106.29,103.73,105Z"/><path class="b3c2abef-c1d3-440c-b10e-6205986d02d9" d="M98.73,112.62c-.12-1.05-.21-2.11-.35-3.16-.07-.49.12-.6.57-.59,1.59,0,3.19,0,4.78,0v3.7Z"/><path class="b3d3beed-b63b-442d-8c53-7ea97c9577d1" d="M98.73,112.62h13c.31,0,.65-.11.92.17l-8.9.07c-1.4,0-2.81,0-4.22,0C99.24,112.81,98.91,113,98.73,112.62Z"/><path class="e076b49c-d265-41a3-bcc9-fd8da0a6a268" d="M113.38,105.76l.06-.26Z"/><path class="b3c2abef-c1d3-440c-b10e-6205986d02d9" d="M130.21,143.29H77.39C74,142.07,73,139.57,73,136.13q.12-28,0-56c0-3.45,1-6,4.41-7.17h35.32c4.62.83,8.1,3.48,11.17,6.87,1.92,2.12,4,4.07,6.05,6.08a15.13,15.13,0,0,1,4.65,11.19c0,13-.06,26,0,39C134.64,139.57,133.58,142.07,130.21,143.29ZM112.64,77.52c-.61-.06-1-.14-1.42-.14-10.67,0-21.35,0-32,0-1.37,0-1.83.59-1.81,1.89,0,3.65,0,7.29,0,10.93q0,23.26,0,46.54c0,1.29.13,2.22,1.8,2.22q24.6-.06,49.21,0c1.23,0,1.81-.44,1.81-1.73q0-20.46,0-40.91c0-1.09-.37-1.42-1.45-1.41-4.79.05-9.58,0-14.37,0h-1.75Zm15,13c-3.52-3.57-7.07-7.15-10.57-10.69V90.52Z"/><path class="a7110637-6181-4ec7-8cb3-b373922f4292" d="M106.21,252.75c4.86,0,9.72,0,14.58,0,.76,0,.86.24.8.9-.79,8.68-1.55,17.35-2.33,26-.12,1.32-.26,2.65-.35,4a.8.8,0,0,1-.7.84q-5.82,1.57-11.63,3.22a1.53,1.53,0,0,1-.85,0c-3.82-1.07-7.63-2.14-11.46-3.17a.91.91,0,0,1-.79-.95q-1-11.91-2.12-23.82c-.19-2.06-.35-4.13-.56-6.19-.06-.6.07-.81.73-.8C96.42,252.77,101.31,252.75,106.21,252.75Zm-.27,14c-1.24,0-2.47,0-3.71,0-.38,0-.63,0-.58.53.1,1,.17,1.93.23,2.9,0,.47.35.47.69.47l3.54,0v6.06l-2.48-.65c-1.65-.45-1.65-.45-1.85-2.1a8.23,8.23,0,0,1-.11-1c0-.4-.18-.51-.55-.5-.91,0-1.83,0-2.75,0-.54,0-.65.19-.6.68.16,1.56.31,3.12.41,4.68a1,1,0,0,0,.87,1c2.37.63,4.72,1.32,7.07,2v3.2c0,1.12,0,1.11,1,.81,2.59-.72,5.17-1.45,7.76-2.16,1.65-.46,1.62-.44,1.7-2.14s.23-3.47.39-5.2c.21-2.38.45-4.75.67-7.12.14-1.56.26-3.12.4-4.67.21-2.44.44-4.87.67-7.3.06-.63-.09-.9-.8-.89q-5.52,0-11,0c-.62,0-.81.18-.83.81a6.7,6.7,0,0,1-.16,2.71c-2.89,0-5.79,0-8.69,0-.58,0-.79.15-.7.75a17.29,17.29,0,0,1,.24,2.38c0,.69.31.79.92.79,2.81,0,5.61,0,8.42,0,0,.38,0,.76,0,1.13C106,264.92,106.33,265.86,105.94,266.75Z"/><path class="fb60d56b-0cb6-41e1-b352-4bb0d13af41d" d="M105.94,258.92a6.7,6.7,0,0,0,.16-2.71c0-.63.21-.81.83-.81q5.5,0,11,0c.71,0,.86.26.8.89-.23,2.43-.46,4.86-.67,7.3-.14,1.55-.26,3.11-.4,4.67-.22,2.37-.46,4.74-.67,7.12-.16,1.73-.31,3.47-.39,5.2s-.05,1.68-1.7,2.14c-2.59.71-5.17,1.44-7.76,2.16-1,.3-1,.31-1-.81v-3.2l.19-.08c2.25-.61,4.49-1.28,6.77-1.81.91-.21,1.14-.66,1.2-1.5.19-2.57.45-5.13.68-7.69q.45-5.09.91-10.17c0-.49-.07-.68-.6-.68-3,0-6,0-9,.05Z"/><path class="bce196f5-9f37-412f-bab2-e5290e5112bf" d="M106.31,280.79l-.19.08c-2.35-.66-4.7-1.35-7.07-2a1,1,0,0,1-.87-1c-.1-1.56-.25-3.12-.41-4.68,0-.49.06-.7.6-.68.92,0,1.84,0,2.75,0,.37,0,.55.1.55.5a8.23,8.23,0,0,0,.11,1c.2,1.65.2,1.65,1.85,2.1l2.48.65.19.06Z"/><path class="f2a6bb1e-5069-4722-b372-4a84e3e8e66e" d="M105.94,258.92l.35.07c0,1.26,0,2.52,0,3.78l-.17.1c-2.81,0-5.61,0-8.42,0-.61,0-.92-.1-.92-.79a17.29,17.29,0,0,0-.24-2.38c-.09-.6.12-.75.7-.75C100.15,259,103.05,258.93,105.94,258.92Z"/><path class="fb60d56b-0cb6-41e1-b352-4bb0d13af41d" d="M106.3,276.82l-.19-.06V270.7s0-.08,0-.12a33.94,33.94,0,0,0,4.16.08c.49,0,.7.12.65.65-.14,1.32-.26,2.64-.36,4,0,.42-.32.44-.6.52Z"/><path class="fb60d56b-0cb6-41e1-b352-4bb0d13af41d" d="M106.13,262.87l.17-.1c1.54,0,3.08.07,4.62.05.6,0,.78.19.7.77-.1.82-.17,1.65-.22,2.47,0,.54-.25.75-.83.74-1.48,0-3,0-4.44,0l-.19-.08c.39-.89.1-1.83.18-2.75C106.15,263.63,106.13,263.25,106.13,262.87Z"/><path class="f2a6bb1e-5069-4722-b372-4a84e3e8e66e" d="M105.94,266.75l.19.08a9.11,9.11,0,0,1,0,3.75s0,.08,0,.12l-3.54,0c-.34,0-.66,0-.69-.47-.06-1-.13-1.94-.23-2.9-.05-.49.2-.53.58-.53C103.47,266.78,104.7,266.76,105.94,266.75Z"/><path class="e5de1dd8-fc3a-479f-b085-0491f9be8b90" d="M106.12,270.58a9.11,9.11,0,0,0,0-3.75c1.48,0,3-.06,4.44,0,.58,0,.79-.2.83-.74,0-.82.12-1.65.22-2.47.08-.58-.1-.77-.7-.77-1.54,0-3.08,0-4.62-.05,0-1.26,0-2.52,0-3.78,3,0,6,0,9-.05.53,0,.65.19.6.68q-.47,5.08-.91,10.17c-.23,2.56-.49,5.12-.68,7.69-.06.84-.29,1.29-1.2,1.5-2.28.53-4.52,1.2-6.77,1.81,0-1.32,0-2.65,0-4l3.67-1c.28-.08.57-.1.6-.52.1-1.33.22-2.65.36-4,0-.53-.16-.64-.65-.65A33.94,33.94,0,0,1,106.12,270.58Z"/><path class="a7110637-6181-4ec7-8cb3-b373922f4292" d="M132.6,296H79.79c-3.37-1.22-4.42-3.72-4.41-7.16q.12-28,0-56c0-3.45,1-5.95,4.41-7.17H115.1c4.63.83,8.11,3.48,11.18,6.87,1.92,2.12,4,4.07,6.05,6.08A15.17,15.17,0,0,1,137,249.88c0,13-.06,26,0,39C137,292.31,136,294.81,132.6,296ZM115,230.26c-.61-.06-1-.14-1.42-.14-10.67,0-21.35,0-32,0-1.38,0-1.83.59-1.81,1.89,0,3.65,0,7.29,0,10.93q0,23.28,0,46.54c0,1.29.12,2.22,1.8,2.22q24.6,0,49.2,0c1.24,0,1.82-.44,1.82-1.73q0-20.46,0-40.91c0-1.09-.37-1.42-1.45-1.41-4.79,0-9.58,0-14.37,0H115Zm15,13c-3.52-3.57-7.07-7.15-10.57-10.69v10.69Z"/><text class="b345b276-055b-45d2-bc1a-38d195f336b0" transform="translate(251.98 162.31)">backen<tspan class="ade24cbe-4574-4e17-8f6e-1f314503c2bc" x="54.43" y="0">d</tspan><tspan x="64.4" y="0">.php</tspan></text><path class="a3df731b-2bf9-4daa-80fd-754d59fc1685" d="M280.15,106.71h5.3c.13.18.32.11.49.13a33.08,33.08,0,0,1,8.46,1.74,19.82,19.82,0,0,1,5.27,2.72,9.54,9.54,0,0,1,3.68,5.09v2.12c-.17.07-.18.25-.22.38a7.23,7.23,0,0,1-1.64,2.92,15.92,15.92,0,0,1-6.77,4.25,36.21,36.21,0,0,1-19.38,1.25,22.88,22.88,0,0,1-9.47-3.89,9.54,9.54,0,0,1-3.18-3.83c-.15-.36-.13-.79-.43-1.08v-2.26s.11-.08.12-.14A9.52,9.52,0,0,1,267,110.6a27,27,0,0,1,10.33-3.5A21.14,21.14,0,0,0,280.15,106.71ZM292,112.33c-.75,0-1.5,0-2.25,0-.47,0-.68.12-.74.6s-.21,1.12-.32,1.68c-.57,2.86-1.12,5.72-1.7,8.57-.09.45,0,.54.43.53a15.32,15.32,0,0,1,1.66,0c.35,0,.51-.1.56-.45.1-.63.25-1.26.35-1.89.06-.42.2-.66.71-.61s1.32,0,2,0a4.93,4.93,0,0,0,4.93-4.07c.53-2.75-.75-4.31-3.55-4.36C293.37,112.32,292.69,112.33,292,112.33Zm-18.86,0v0c-.78,0-1.55,0-2.32,0-.4,0-.57.12-.65.54q-1,5.16-2.05,10.31c-.09.44,0,.55.45.53s1.1,0,1.65,0c.34,0,.51-.08.56-.46.09-.67.26-1.34.38-2,0-.34.18-.49.55-.48.67,0,1.33,0,2,0a4.94,4.94,0,0,0,5.09-4.27c.42-2.43-.69-3.92-3.14-4.12C274.82,112.3,274,112.36,273.14,112.36Zm12.45,8.4a7.19,7.19,0,0,1,.94,0c.43.06.57-.16.63-.54.27-1.65.48-3.32.85-5s-.59-2.64-2.17-2.88a17.08,17.08,0,0,0-2.58-.07c-.39,0-.58-.09-.46-.53s.14-.77.22-1.16c.26-1.27.26-1.27-1-1.27-.31,0-.62,0-.93,0s-.52.1-.59.49c-.3,1.61-.63,3.2-.95,4.8-.37,1.84-.72,3.68-1.11,5.51-.1.48,0,.63.51.6a11.16,11.16,0,0,1,1.53,0c.4,0,.56-.11.64-.53.32-1.76.7-3.51,1-5.26.08-.43.25-.6.69-.57s1,0,1.46,0c.9,0,1.1.26.93,1.14l-.72,3.83c-.08.43-.35,1-.16,1.26S285.21,120.71,285.59,120.76Z"/><path class="f4a2f421-70d7-4e48-880d-3ab152684ab9" d="M292,112.33c.69,0,1.37,0,2.06,0,2.8,0,4.08,1.61,3.55,4.36a4.93,4.93,0,0,1-4.93,4.07c-.66,0-1.33,0-2,0s-.65.19-.71.61c-.1.63-.25,1.26-.35,1.89-.05.35-.21.47-.56.45a15.32,15.32,0,0,0-1.66,0c-.41,0-.52-.08-.43-.53.58-2.85,1.13-5.71,1.7-8.57.11-.56.25-1.12.32-1.68s.27-.62.74-.6C290.5,112.35,291.25,112.33,292,112.33Zm.62,2.09c-.29,0-.58,0-.86,0s-.39,0-.43.3c-.19,1.19-.39,2.38-.58,3.57,0,.21,0,.35.25.35a5.87,5.87,0,0,0,2.53-.28,2.91,2.91,0,0,0,1.34-2.93c-.14-.7-.77-1-2.06-1Z"/><path class="f4a2f421-70d7-4e48-880d-3ab152684ab9" d="M273.14,112.36c.84,0,1.68-.06,2.51,0,2.45.2,3.56,1.69,3.14,4.12a4.94,4.94,0,0,1-5.09,4.27c-.66,0-1.32,0-2,0-.37,0-.5.14-.55.48-.12.67-.29,1.34-.38,2,0,.38-.22.47-.56.46-.55,0-1.1,0-1.65,0s-.54-.09-.45-.53q1-5.15,2.05-10.31c.08-.42.25-.55.65-.54.77,0,1.54,0,2.32,0Zm.61,2.06a3.68,3.68,0,0,1-.47,0c-.54-.08-.85.08-.89.7s-.23,1.18-.27,1.77-.54,1.36-.08,1.67,1.25.12,1.87,0a2.6,2.6,0,0,0,2.13-3C276,114.75,275.35,114.42,273.75,114.42Z"/><path class="f4a2f421-70d7-4e48-880d-3ab152684ab9" d="M285.59,120.76c-.38-.05-1,.21-1.24-.11s.08-.83.16-1.26l.72-3.83c.17-.88,0-1.12-.93-1.14-.49,0-1,0-1.46,0s-.61.14-.69.57c-.33,1.75-.71,3.5-1,5.26-.08.42-.24.55-.64.53a11.16,11.16,0,0,0-1.53,0c-.48,0-.61-.12-.51-.6.39-1.83.74-3.67,1.11-5.51.32-1.6.65-3.19.95-4.8.07-.39.21-.53.59-.49s.62,0,.93,0c1.26,0,1.26,0,1,1.27-.08.39-.13.78-.22,1.16s.07.53.46.53a17.08,17.08,0,0,1,2.58.07c1.58.24,2.55,1.2,2.17,2.88s-.58,3.3-.85,5c-.06.38-.2.6-.63.54A7.19,7.19,0,0,0,285.59,120.76Z"/><path class="a3df731b-2bf9-4daa-80fd-754d59fc1685" d="M292.62,114.42h.19c1.29,0,1.92.31,2.06,1a2.91,2.91,0,0,1-1.34,2.93,5.87,5.87,0,0,1-2.53.28c-.25,0-.29-.14-.25-.35.19-1.19.39-2.38.58-3.57,0-.25.2-.31.43-.3S292.33,114.42,292.62,114.42Z"/><path class="a3df731b-2bf9-4daa-80fd-754d59fc1685" d="M273.75,114.42c1.6,0,2.22.33,2.29,1.2a2.6,2.6,0,0,1-2.13,3c-.62.09-1.43.26-1.87,0s0-1.1.08-1.67.24-1.18.27-1.77.35-.78.89-.7A3.68,3.68,0,0,0,273.75,114.42Z"/><path class="a3df731b-2bf9-4daa-80fd-754d59fc1685" d="M309.21,146.62H256.39C253,145.4,252,142.9,252,139.45q.12-28,0-56c0-3.44,1-5.94,4.41-7.16h35.32c4.62.83,8.1,3.48,11.17,6.87,1.92,2.12,4,4.07,6.05,6.08a15.12,15.12,0,0,1,4.65,11.18c0,13-.06,26,0,39C313.64,142.9,312.58,145.4,309.21,146.62ZM291.64,80.85c-.61-.06-1-.14-1.42-.14q-16,0-32,0c-1.37,0-1.83.59-1.81,1.89,0,3.64,0,7.29,0,10.93q0,23.26,0,46.54c0,1.29.13,2.22,1.8,2.21q24.6,0,49.21,0c1.23,0,1.81-.45,1.81-1.73q0-20.46,0-40.92c0-1.09-.37-1.41-1.45-1.4-4.79.05-9.58,0-14.37,0h-1.75Zm15,13L296.07,83.16V93.84Z"/><line class="b5337c9c-f33e-4fc3-ae91-bda8848104f8" x1="219.29" y1="115.37" x2="145.93" y2="115.37"/><polygon class="a0c2891e-6b07-4f04-9628-6f5110c30dc4" points="212.13 102.9 233.72 115.37 212.13 127.83 212.13 102.9"/><g class="aec6cfad-6693-4134-9560-d61c1a34f113"><path class="b708781d-0811-461a-b767-aa76b80760f6" d="M52.52,116.71c-10.77,11.85-22,32.17-22,61.17,0,46.59,19.4,63.94,31.36,72.58"/><polygon points="41.96 109.88 66.49 105.45 58.06 128.91 41.96 109.88"/></g></svg>