<svg id="ef957955-456d-4cce-814e-67d609bdb904" data-name="Capa 1" xmlns="http://www.w3.org/2000/svg" viewBox="0 0 420 365"><defs><style>.f3fd3c55-4f99-47c3-a714-3db614a85872{font-size:20.07px;font-family:MyriadPro-Semibold, Myriad Pro;font-weight:600;}.aa4e610f-9ccb-42b7-a186-bfb2254f87c3{letter-spacing:-0.02em;}.bf5c7743-ba4e-4800-831d-933f8d74a001{font-size:18px;font-family:MyriadPro-Regular, Myriad Pro;}.a14391d4-3683-4caa-9fdc-0d185979313d{letter-spacing:-0.01em;}.a6c6670e-d2ab-4991-81e0-a63be9c4caeb{fill:#1572b6;}.b39f1405-3032-4994-9caf-7e6a470ef141{fill:#34a8db;}.abc0291a-90bd-48cf-9602-633296c12b3a{fill:#e7e8e9;}.a8b04ec8-48fc-408c-9dcd-5de454634f14{fill:#e4e7e9;}.b5b15ce4-f5fb-48fd-8566-97f44aa10a49{fill:#fdfdfe;}.e0b86277-4028-4306-9eec-5bc3886bb51b{opacity:0.3;}.be339149-ceaa-47f8-aa53-85d52dcae0c4,.fac76c8c-3700-4c13-86b0-62236b9efaeb{fill:none;stroke-linecap:round;stroke-miterlimit:10;stroke-width:5px;}.fac76c8c-3700-4c13-86b0-62236b9efaeb{stroke:#000;}.e3da5e8b-28a7-4f81-b2e5-d473e45e7189{letter-spacing:0em;}.b1af20f7-097b-40a2-ba91-bbc03a49c2f0{fill:#e34f27;}.a39c3280-1c48-40cb-a7e5-c79e432a9cef{fill:#f0662a;}.bc08475f-b874-4ca6-a653-3e786fb1fc0e{fill:#ebe8e7;}.a136c2b2-736c-42ca-9775-4cfe0602ba47{fill:#ef590c;}.b91374d2-c66a-4665-bc4e-cbbb4b265113{fill:#fefdfc;}.ed147f12-607e-4285-a56d-f756b24cc82a{fill:#fefdfd;}.ae147fd4-016c-4ce3-b14c-d3d1ccf0c1fe{letter-spacing:-0.01em;}.b0f04c8a-b0d8-4c36-81a2-67f1d98f7ae5{fill:#8692c1;}.e3f1f0c3-2283-49b1-8dc5-cbda90c48857{fill:#232633;}.be339149-ceaa-47f8-aa53-85d52dcae0c4{stroke:#16a334;}.a0f72de9-47f7-468c-9038-0397de3e4246{fill:#16a334;}.ff857ddc-88a8-4b54-8876-804475f6139e{letter-spacing:0em;}.b59c135e-3203-4040-b01f-71b6edc3774a{letter-spacing:-0.01em;}.e162289f-edda-4de5-9126-d190d68cca45{letter-spacing:-0.03em;}.be61962b-85ad-40df-b51e-5aedf50fb17c{letter-spacing:0em;}.ec1290fc-2ecf-44bf-bb48-b59a230b7d54{fill:#efa001;}.e3ca3cf1-1642-4a7b-8dfd-c0b91c47bfb2{fill:#f9bd01;}.e129e7f4-cc23-4188-8ddc-a7a0c2989abd{fill:#ebebea;}.bd0ad782-ed84-4f22-a908-64880f0aed29{fill:#fefefd;}</style></defs><title>_</title><text class="f3fd3c55-4f99-47c3-a714-3db614a85872" transform="translate(16.48 26.54)"><tspan class="aa4e610f-9ccb-42b7-a186-bfb2254f87c3">F</tspan><tspan x="9.89" y="0">lujo</tspan></text><text class="bf5c7743-ba4e-4800-831d-933f8d74a001" transform="translate(55.38 323.77)">bas<tspan class="a14391d4-3683-4caa-9fdc-0d185979313d" x="26.05" y="0">e</tspan><tspan x="34.85" y="0">.css</tspan></text><path class="a6c6670e-d2ab-4991-81e0-a63be9c4caeb" d="M86.21,258.25c4.86,0,9.72,0,14.58,0,.76,0,.86.24.8.9-.79,8.68-1.55,17.35-2.33,26-.12,1.32-.26,2.65-.35,4a.8.8,0,0,1-.7.84q-5.82,1.57-11.63,3.22a1.53,1.53,0,0,1-.85,0C81.91,292.1,78.1,291,74.27,290a.91.91,0,0,1-.79-.95q-1-11.91-2.12-23.82c-.19-2.06-.35-4.13-.56-6.19-.06-.6.07-.81.73-.8C76.42,258.27,81.31,258.25,86.21,258.25Zm-.27,14c-1.24,0-2.47,0-3.71,0-.38,0-.63,0-.58.53.1,1,.17,1.93.23,2.9,0,.47.35.47.69.47l3.54,0v6.06l-2.48-.65c-1.65-.45-1.65-.45-1.85-2.1a8.23,8.23,0,0,1-.11-1c0-.4-.18-.51-.55-.5-.91,0-1.83,0-2.75,0-.54,0-.65.19-.6.68.16,1.56.31,3.12.41,4.68a1,1,0,0,0,.87,1c2.37.63,4.72,1.32,7.07,2v3.2c0,1.12,0,1.11,1,.81,2.59-.72,5.17-1.45,7.76-2.16,1.65-.46,1.62-.44,1.7-2.14s.23-3.47.39-5.2c.21-2.38.45-4.75.67-7.12.14-1.56.26-3.12.4-4.67.21-2.44.44-4.87.67-7.3.06-.63-.09-.9-.8-.89q-5.52,0-11,0c-.62,0-.81.18-.83.81a6.7,6.7,0,0,1-.16,2.71c-2.89,0-5.79,0-8.69,0-.58,0-.79.15-.7.75a17.29,17.29,0,0,1,.24,2.38c0,.69.31.79.92.79,2.81,0,5.61,0,8.42,0,0,.38,0,.76,0,1.13C86,270.42,86.33,271.36,85.94,272.25Z"/><path class="b39f1405-3032-4994-9caf-7e6a470ef141" d="M85.94,264.42a6.7,6.7,0,0,0,.16-2.71c0-.63.21-.81.83-.81q5.5,0,11,0c.71,0,.86.26.8.89-.23,2.43-.46,4.86-.67,7.3-.14,1.55-.26,3.11-.4,4.67-.22,2.37-.46,4.74-.67,7.12-.16,1.73-.31,3.47-.39,5.2s-.05,1.68-1.7,2.14c-2.59.71-5.17,1.44-7.76,2.16-1,.3-1,.31-1-.81v-3.2l.19-.08c2.25-.61,4.49-1.28,6.77-1.81.91-.21,1.14-.66,1.2-1.5.19-2.57.45-5.13.68-7.69q.45-5.09.91-10.17c0-.49-.07-.68-.6-.68-3,0-6,0-9,.05Z"/><path class="abc0291a-90bd-48cf-9602-633296c12b3a" d="M86.31,286.29l-.19.08c-2.35-.66-4.7-1.35-7.07-2a1,1,0,0,1-.87-1c-.1-1.56-.25-3.12-.41-4.68,0-.49.06-.7.6-.68.92,0,1.84,0,2.75,0,.37,0,.55.1.55.5a8.23,8.23,0,0,0,.11,1c.2,1.65.2,1.65,1.85,2.1l2.48.65.19.06Z"/><path class="a8b04ec8-48fc-408c-9dcd-5de454634f14" d="M85.94,264.42l.35.07c0,1.26,0,2.52,0,3.78l-.17.1c-2.81,0-5.61,0-8.42,0-.61,0-.92-.1-.92-.79a17.29,17.29,0,0,0-.24-2.38c-.09-.6.12-.75.7-.75C80.15,264.45,83.05,264.43,85.94,264.42Z"/><path class="b39f1405-3032-4994-9caf-7e6a470ef141" d="M86.3,282.32l-.19-.06V276.2s0-.08,0-.12a33.94,33.94,0,0,0,4.16.08c.49,0,.7.12.65.65-.14,1.32-.26,2.64-.36,4,0,.42-.32.44-.6.52Z"/><path class="b39f1405-3032-4994-9caf-7e6a470ef141" d="M86.13,268.37l.17-.1c1.54,0,3.08.07,4.62.05.6,0,.78.19.7.77-.1.82-.17,1.65-.22,2.47,0,.54-.25.75-.83.74-1.48,0-3,0-4.44,0l-.19-.08c.39-.89.1-1.83.18-2.75C86.15,269.13,86.13,268.75,86.13,268.37Z"/><path class="a8b04ec8-48fc-408c-9dcd-5de454634f14" d="M85.94,272.25l.19.08a9.11,9.11,0,0,1,0,3.75s0,.08,0,.12l-3.54,0c-.34,0-.66,0-.69-.47-.06-1-.13-1.94-.23-2.9-.05-.49.2-.53.58-.53C83.47,272.28,84.7,272.26,85.94,272.25Z"/><path class="b5b15ce4-f5fb-48fd-8566-97f44aa10a49" d="M86.12,276.08a9.11,9.11,0,0,0,0-3.75c1.48,0,3-.06,4.44,0,.58,0,.79-.2.83-.74,0-.82.12-1.65.22-2.47.08-.58-.1-.77-.7-.77-1.54,0-3.08,0-4.62-.05,0-1.26,0-2.52,0-3.78,3,0,6,0,9-.05.53,0,.65.19.6.68q-.47,5.08-.91,10.17c-.23,2.56-.49,5.12-.68,7.69-.06.84-.29,1.29-1.2,1.5-2.28.53-4.52,1.2-6.77,1.81,0-1.32,0-2.65,0-4l3.67-1c.28-.08.57-.1.6-.52.1-1.33.22-2.65.36-4,0-.53-.16-.64-.65-.65A33.94,33.94,0,0,1,86.12,276.08Z"/><path class="a6c6670e-d2ab-4991-81e0-a63be9c4caeb" d="M112.6,301.53H59.79c-3.37-1.22-4.42-3.72-4.41-7.16q.12-28,0-56c0-3.45,1-5.95,4.41-7.17H95.1c4.63.83,8.11,3.48,11.18,6.87,1.92,2.12,4,4.07,6,6.08A15.17,15.17,0,0,1,117,255.38c0,13-.06,26,0,39C117,297.81,116,300.31,112.6,301.53ZM95,235.76c-.61-.06-1-.14-1.42-.14-10.67,0-21.35,0-32,0-1.38,0-1.83.59-1.81,1.89,0,3.65,0,7.29,0,10.93q0,23.28,0,46.54c0,1.29.12,2.22,1.8,2.22q24.6,0,49.2,0c1.24,0,1.82-.44,1.82-1.73q0-20.46,0-40.91c0-1.09-.37-1.42-1.45-1.41-4.79,0-9.58,0-14.37,0H95Zm15,13c-3.52-3.57-7.07-7.15-10.57-10.69v10.69Z"/><g class="e0b86277-4028-4306-9eec-5bc3886bb51b"><path class="fac76c8c-3700-4c13-86b0-62236b9efaeb" d="M32.52,122.21c-10.77,11.85-22,32.17-22,61.17C10.5,230,29.9,247.32,41.86,256"/><polygon points="21.96 115.38 46.49 110.95 38.06 134.41 21.96 115.38"/></g><text class="bf5c7743-ba4e-4800-831d-933f8d74a001" transform="translate(53.98 163.49)">ind<tspan class="e3da5e8b-28a7-4f81-b2e5-d473e45e7189" x="24.35" y="0">e</tspan><tspan x="33.32" y="0">x.php</tspan></text><path class="b1af20f7-097b-40a2-ba91-bbc03a49c2f0" d="M84.73,101H99.14c1.09,0,1.13.06,1,1.09l-1.59,17.8c-.36,4-.73,8-1.07,12,0,.5-.24.69-.72.82Q91,134.36,85.26,136a1.59,1.59,0,0,1-.94,0c-3.85-1.08-7.69-2.16-11.55-3.2a.78.78,0,0,1-.68-.84q-.81-9.45-1.65-18.87c-.32-3.64-.66-7.27-1-10.9-.11-1.14-.12-1.14,1-1.14Zm0,18.36,0,5.92c-.94-.11-1.81-.53-2.74-.69s-1.79-.49-1.58-1.77a9.12,9.12,0,0,0-.11-1.15c0-.43-.18-.56-.59-.55-.89,0-1.78,0-2.67,0-.57,0-.71.16-.66.7.16,1.54.3,3.07.41,4.61,0,.6.29.84.88,1,2.37.62,4.72,1.32,7.09,2,0,1,0,2,0,2.94s.25,1.05,1.09.81l2.81-.79c1.79-.49,3.6-.94,5.38-1.48.37-.11,1-.11,1-.68.15-1.2.27-2.4.37-3.61.14-1.61.24-3.23.38-4.85.22-2.52.46-5,.69-7.57.14-1.56.26-3.11.41-4.67s.31-3.34.48-5c.07-.61-.14-.83-.78-.83q-5.47,0-11,0c-.67,0-.91.29-.91.9,0,.89,0,1.78,0,2.67-2.91,0-5.82,0-8.72,0-.3,0-.67-.15-.89.21l1,11.71c.26.3.61.18.92.18Z"/><path class="a39c3280-1c48-40cb-a7e5-c79e432a9cef" d="M84.73,107.27c0-.89,0-1.78,0-2.67,0-.61.24-.9.91-.9q5.48,0,11,0c.64,0,.85.22.78.83q-.26,2.5-.48,5c-.15,1.56-.27,3.11-.41,4.67-.23,2.53-.47,5.05-.69,7.57-.14,1.62-.24,3.24-.38,4.85-.1,1.21-.22,2.41-.37,3.61-.07.57-.66.57-1,.68-1.78.54-3.59,1-5.38,1.48l-2.81.79c-.84.24-1.08.07-1.09-.81s0-2,0-2.94l0-.08a2.13,2.13,0,0,0,.44,0c2.36-.64,4.72-1.31,7.09-1.94.45-.12.51-.39.54-.77.28-3.19.59-6.36.83-9.55,0-.59.4-1.19,0-1.79-.27-.28-.61-.17-.92-.17h-8v-3.7l0-.07,8.9,0c.43,0,.56-.14.58-.55,0-.86.12-1.72.19-2.57l.06-.26c0-.2.12-.4-.11-.55s-.61-.17-.92-.17Z"/><path class="bc08475f-b874-4ca6-a653-3e786fb1fc0e" d="M76.17,119.21l-1-11.71,9.61,0,0,3.82,0,.07c-1.59,0-3.19,0-4.78,0-.45,0-.64.1-.57.59.14,1.05.23,2.11.35,3.16.18.37.51.19.77.19,1.41,0,2.82,0,4.22,0v3.83Z"/><path class="bc08475f-b874-4ca6-a653-3e786fb1fc0e" d="M84.73,129.44c-2.37-.66-4.72-1.36-7.09-2-.59-.15-.84-.39-.88-1-.11-1.54-.25-3.07-.41-4.61,0-.54.09-.73.66-.7.89,0,1.78,0,2.67,0,.41,0,.59.12.59.55a9.12,9.12,0,0,1,.11,1.15c-.21,1.28.55,1.6,1.58,1.77s1.8.58,2.74.69a.5.5,0,0,1,0,.12c0,1.31,0,2.61,0,3.92Z"/><path class="a39c3280-1c48-40cb-a7e5-c79e432a9cef" d="M84.72,125.44a.5.5,0,0,0,0-.12l0-5.92H89.5c-.11,1.47-.24,2.93-.34,4.4,0,.42-.29.51-.62.6Z"/><path class="a136c2b2-736c-42ca-9775-4cfe0602ba47" d="M84.73,107.52l-9.61,0c.22-.36.59-.21.89-.21,2.9,0,5.81,0,8.72,0h8.68c.31,0,.66-.11.92.17Z"/><path class="a136c2b2-736c-42ca-9775-4cfe0602ba47" d="M89.5,119.39H77.09c-.31,0-.66.12-.92-.18l8.55,0c1.28,0,2.55,0,3.82,0C88.86,119.23,89.24,119,89.5,119.39Z"/><path class="b91374d2-c66a-4665-bc4e-cbbb4b265113" d="M89.5,119.39c-.26-.35-.64-.16-1-.17-1.27,0-2.54,0-3.82,0v-3.83l8.9-.07c.39.6,0,1.2,0,1.79-.24,3.19-.55,6.36-.83,9.55,0,.38-.09.65-.54.77-2.37.63-4.73,1.3-7.09,1.94a2.13,2.13,0,0,1-.44,0c0-1.31,0-2.61,0-3.92l3.82-1c.33-.09.59-.18.62-.6C89.26,122.32,89.39,120.86,89.5,119.39Z"/><path class="ed147f12-607e-4285-a56d-f756b24cc82a" d="M84.73,107.52l9.6-.07c.23.15.16.35.11.55l-.06.26c-.07.85-.15,1.71-.19,2.57,0,.41-.15.56-.58.55l-8.9,0C84.72,110.07,84.72,108.79,84.73,107.52Z"/><path class="b1af20f7-097b-40a2-ba91-bbc03a49c2f0" d="M79.73,115.12c-.12-1.05-.21-2.11-.35-3.16-.07-.49.12-.6.57-.59,1.59,0,3.19,0,4.78,0v3.7Z"/><path class="a136c2b2-736c-42ca-9775-4cfe0602ba47" d="M79.73,115.12h13c.31,0,.65-.11.92.17l-8.9.07c-1.4,0-2.81,0-4.22,0C80.24,115.31,79.91,115.49,79.73,115.12Z"/><path class="bc08475f-b874-4ca6-a653-3e786fb1fc0e" d="M94.38,108.26l.06-.26Z"/><path class="b1af20f7-097b-40a2-ba91-bbc03a49c2f0" d="M111.21,145.79H58.39C55,144.57,54,142.07,54,138.63q.12-28,0-56c0-3.45,1-6,4.41-7.17H93.71c4.62.83,8.1,3.48,11.17,6.87,1.92,2.12,4,4.07,6.05,6.08a15.13,15.13,0,0,1,4.65,11.19c0,13-.06,26,0,39C115.64,142.07,114.58,144.57,111.21,145.79ZM93.64,80c-.61-.06-1-.14-1.42-.14-10.67,0-21.35,0-32,0-1.37,0-1.83.59-1.81,1.89,0,3.65,0,7.29,0,10.93q0,23.26,0,46.54c0,1.29.13,2.22,1.8,2.22q24.6-.06,49.21,0c1.23,0,1.81-.44,1.81-1.73q0-20.46,0-40.91c0-1.09-.37-1.42-1.45-1.41-4.79.05-9.58,0-14.37,0H93.64Zm15,13c-3.52-3.57-7.07-7.15-10.57-10.69V93Z"/><text class="bf5c7743-ba4e-4800-831d-933f8d74a001" transform="translate(305.98 164.81)">backen<tspan class="ae147fd4-016c-4ce3-b14c-d3d1ccf0c1fe" x="54.43" y="0">d</tspan><tspan x="64.4" y="0">.php</tspan></text><path class="b0f04c8a-b0d8-4c36-81a2-67f1d98f7ae5" d="M334.15,109.21h5.3c.13.18.32.11.49.13a33.08,33.08,0,0,1,8.46,1.74,19.82,19.82,0,0,1,5.27,2.72,9.54,9.54,0,0,1,3.68,5.09V121c-.17.07-.18.25-.22.38a7.23,7.23,0,0,1-1.64,2.92,15.92,15.92,0,0,1-6.77,4.25,36.21,36.21,0,0,1-19.38,1.25,22.88,22.88,0,0,1-9.47-3.89,9.54,9.54,0,0,1-3.18-3.83c-.15-.36-.13-.79-.43-1.08v-2.26s.11-.08.12-.14A9.52,9.52,0,0,1,321,113.1a27,27,0,0,1,10.33-3.5A21.14,21.14,0,0,0,334.15,109.21ZM346,114.83c-.75,0-1.5,0-2.25,0-.47,0-.68.12-.74.6s-.21,1.12-.32,1.68c-.57,2.86-1.12,5.72-1.7,8.57-.09.45,0,.54.43.53a15.32,15.32,0,0,1,1.66,0c.35,0,.51-.1.56-.45.1-.63.25-1.26.35-1.89.06-.42.2-.66.71-.61s1.32,0,2,0a4.93,4.93,0,0,0,4.93-4.07c.53-2.75-.75-4.31-3.55-4.36C347.37,114.82,346.69,114.83,346,114.83Zm-18.86,0v0c-.78,0-1.55,0-2.32,0-.4,0-.57.12-.65.54q-1,5.16-2.05,10.31c-.09.44,0,.55.45.53s1.1,0,1.65,0c.34,0,.51-.08.56-.46.09-.67.26-1.34.38-2,0-.34.18-.49.55-.48.67,0,1.33,0,2,0a4.94,4.94,0,0,0,5.09-4.27c.42-2.43-.69-3.92-3.14-4.12C328.82,114.8,328,114.86,327.14,114.86Zm12.45,8.4a7.19,7.19,0,0,1,.94,0c.43.06.57-.16.63-.54.27-1.65.48-3.32.85-5s-.59-2.64-2.17-2.88a17.08,17.08,0,0,0-2.58-.07c-.39,0-.58-.09-.46-.53s.14-.77.22-1.16c.26-1.27.26-1.27-1-1.27-.31,0-.62,0-.93,0s-.52.1-.59.49c-.3,1.61-.63,3.2-.95,4.8-.37,1.84-.72,3.68-1.11,5.51-.1.48,0,.63.51.6a11.16,11.16,0,0,1,1.53,0c.4,0,.56-.11.64-.53.32-1.76.7-3.51,1-5.26.08-.43.25-.6.69-.57s1,0,1.46,0c.9,0,1.1.26.93,1.14l-.72,3.83c-.08.43-.35,1-.16,1.26S339.21,123.21,339.59,123.26Z"/><path class="e3f1f0c3-2283-49b1-8dc5-cbda90c48857" d="M346,114.83c.69,0,1.37,0,2.06,0,2.8,0,4.08,1.61,3.55,4.36a4.93,4.93,0,0,1-4.93,4.07c-.66,0-1.33,0-2,0s-.65.19-.71.61c-.1.63-.25,1.26-.35,1.89-.05.35-.21.47-.56.45a15.32,15.32,0,0,0-1.66,0c-.41,0-.52-.08-.43-.53.58-2.85,1.13-5.71,1.7-8.57.11-.56.25-1.12.32-1.68s.27-.62.74-.6C344.5,114.85,345.25,114.83,346,114.83Zm.62,2.09c-.29,0-.58,0-.86,0s-.39,0-.43.3c-.19,1.19-.39,2.38-.58,3.57,0,.21,0,.35.25.35a5.87,5.87,0,0,0,2.53-.28,2.91,2.91,0,0,0,1.34-2.93c-.14-.7-.77-1-2.06-1Z"/><path class="e3f1f0c3-2283-49b1-8dc5-cbda90c48857" d="M327.14,114.86c.84,0,1.68-.06,2.51,0,2.45.2,3.56,1.69,3.14,4.12a4.94,4.94,0,0,1-5.09,4.27c-.66,0-1.32,0-2,0-.37,0-.5.14-.55.48-.12.67-.29,1.34-.38,2,0,.38-.22.47-.56.46-.55,0-1.1,0-1.65,0s-.54-.09-.45-.53q1-5.15,2.05-10.31c.08-.42.25-.55.65-.54.77,0,1.54,0,2.32,0Zm.61,2.06a3.68,3.68,0,0,1-.47,0c-.54-.08-.85.08-.89.7s-.23,1.18-.27,1.77-.54,1.36-.08,1.67,1.25.12,1.87,0a2.6,2.6,0,0,0,2.13-3C330,117.25,329.35,116.92,327.75,116.92Z"/><path class="e3f1f0c3-2283-49b1-8dc5-cbda90c48857" d="M339.59,123.26c-.38-.05-1,.21-1.24-.11s.08-.83.16-1.26l.72-3.83c.17-.88,0-1.12-.93-1.14-.49,0-1,0-1.46,0s-.61.14-.69.57c-.33,1.75-.71,3.5-1,5.26-.08.42-.24.55-.64.53a11.16,11.16,0,0,0-1.53,0c-.48,0-.61-.12-.51-.6.39-1.83.74-3.67,1.11-5.51.32-1.6.65-3.19.95-4.8.07-.39.21-.53.59-.49s.62,0,.93,0c1.26,0,1.26,0,1,1.27-.08.39-.13.78-.22,1.16s.07.53.46.53a17.08,17.08,0,0,1,2.58.07c1.58.24,2.55,1.2,2.17,2.88s-.58,3.3-.85,5c-.06.38-.2.6-.63.54A7.19,7.19,0,0,0,339.59,123.26Z"/><path class="b0f04c8a-b0d8-4c36-81a2-67f1d98f7ae5" d="M346.62,116.92h.19c1.29,0,1.92.31,2.06,1a2.91,2.91,0,0,1-1.34,2.93,5.87,5.87,0,0,1-2.53.28c-.25,0-.29-.14-.25-.35.19-1.19.39-2.38.58-3.57,0-.25.2-.31.43-.3S346.33,116.92,346.62,116.92Z"/><path class="b0f04c8a-b0d8-4c36-81a2-67f1d98f7ae5" d="M327.75,116.92c1.6,0,2.22.33,2.29,1.2a2.6,2.6,0,0,1-2.13,3c-.62.09-1.43.26-1.87,0s0-1.1.08-1.67.24-1.18.27-1.77.35-.78.89-.7A3.68,3.68,0,0,0,327.75,116.92Z"/><path class="b0f04c8a-b0d8-4c36-81a2-67f1d98f7ae5" d="M363.21,149.12H310.39C307,147.9,306,145.4,306,142q.12-28,0-56c0-3.44,1-5.94,4.41-7.16h35.32c4.62.83,8.1,3.48,11.17,6.87,1.92,2.12,4,4.07,6.05,6.08A15.12,15.12,0,0,1,367.58,103c0,13-.06,26,0,39C367.64,145.4,366.58,147.9,363.21,149.12ZM345.64,83.35c-.61-.06-1-.14-1.42-.14q-16,0-32,0c-1.37,0-1.83.59-1.81,1.89,0,3.64,0,7.29,0,10.93q0,23.26,0,46.54c0,1.29.13,2.22,1.8,2.21q24.6,0,49.21,0c1.23,0,1.81-.45,1.81-1.73q0-20.46,0-40.92c0-1.09-.37-1.41-1.45-1.4-4.79.05-9.58,0-14.37,0h-1.75Zm15,13L350.07,85.66V96.34Z"/><g class="e0b86277-4028-4306-9eec-5bc3886bb51b"><line class="fac76c8c-3700-4c13-86b0-62236b9efaeb" x1="151.96" y1="101.87" x2="122.93" y2="101.87"/><polygon points="146.51 89.4 168.1 101.87 146.51 114.33 146.51 89.4"/></g><line class="be339149-ceaa-47f8-aa53-85d52dcae0c4" x1="277.1" y1="113.87" x2="240.92" y2="113.87"/><polygon class="a0f72de9-47f7-468c-9038-0397de3e4246" points="271.37 101.4 292.96 113.87 271.37 126.33 271.37 101.4"/><g class="e0b86277-4028-4306-9eec-5bc3886bb51b"><line class="fac76c8c-3700-4c13-86b0-62236b9efaeb" x1="134.92" y1="123.58" x2="166" y2="123.58"/><polygon points="140.45 136.05 118.87 123.58 140.45 111.12 140.45 136.05"/></g><text class="bf5c7743-ba4e-4800-831d-933f8d74a001" transform="translate(173.01 166.77)"><tspan class="ff857ddc-88a8-4b54-8876-804475f6139e">v</tspan><tspan x="8.59" y="0">alid</tspan><tspan class="ff857ddc-88a8-4b54-8876-804475f6139e" x="35.87" y="0">a</tspan><tspan class="b59c135e-3203-4040-b01f-71b6edc3774a" x="44.48" y="0">t</tspan><tspan x="50.33" y="0">e</tspan><tspan class="e162289f-edda-4de5-9126-d190d68cca45" x="59.35" y="0">F</tspan><tspan x="67.55" y="0">o</tspan><tspan class="be61962b-85ad-40df-b51e-5aedf50fb17c" x="77.44" y="0">r</tspan><tspan x="83.39" y="0">m.js</tspan></text><path class="ec1290fc-2ecf-44bf-bb48-b59a230b7d54" d="M229.6,144.53H176.79c-3.37-1.22-4.42-3.72-4.41-7.16q.12-28,0-56c0-3.45,1-6,4.41-7.17H212.1c4.63.83,8.11,3.48,11.18,6.87,1.92,2.12,4,4.07,6.05,6.08A15.17,15.17,0,0,1,234,98.38c0,13-.06,26,0,39C234,140.81,233,143.31,229.6,144.53ZM212,78.76c-.61-.06-1-.14-1.42-.14-10.67,0-21.35,0-32,0-1.38,0-1.83.59-1.81,1.89,0,3.65,0,7.29,0,10.93q0,23.28,0,46.54c0,1.29.12,2.22,1.8,2.22q24.6,0,49.2,0c1.24,0,1.82-.44,1.82-1.73q0-20.46,0-40.91c0-1.09-.37-1.42-1.45-1.41-4.79,0-9.58,0-14.37,0H212Zm15,13c-3.52-3.57-7.07-7.15-10.57-10.69V91.76Z"/><path class="ec1290fc-2ecf-44bf-bb48-b59a230b7d54" d="M188.31,102.18v-.93h30.05a1,1,0,0,1,.64.1v.72c-.1,0-.1.12-.1.21-.17,1.84-.34,3.69-.5,5.53-.33,3.65-.64,7.31-1,11q-.6,6.64-1.19,13.27a.61.61,0,0,1-.53.65c-3.9,1.06-7.79,2.15-11.68,3.23a1.4,1.4,0,0,1-.81,0L200,135l-8.46-2.35c-.23-.07-.43-.08-.46-.43-.19-2.25-.4-4.51-.6-6.76l-.87-9.78c-.33-3.74-.65-7.48-1-11.22A8.61,8.61,0,0,0,188.31,102.18Zm15.35,17.09v6l-.1.07c-1.25-.35-2.5-.71-3.76-1a.56.56,0,0,1-.5-.62c0-.73-.14-1.47-.18-2.2,0-.3-.13-.37-.41-.37-1,0-2.09,0-3.13,0-.36,0-.39.14-.36.43.17,1.77.33,3.54.48,5.32a.36.36,0,0,0,.31.38l7.52,2.07.12,0c0,1.17,0,2.33,0,3.5,0,.3,0,.44.41.33q4.63-1.31,9.3-2.57c.32-.09.49-.27.48-.56,0-.54.1-1.06.12-1.59,0-.9.14-1.8.22-2.7.12-1.36.27-2.72.39-4.07s.21-2.62.32-3.93.28-2.68.4-4,.2-2.8.32-4.19c.16-1.71.33-3.43.51-5.14,0-.45-.08-.63-.58-.62-3.5,0-7,0-10.5,0-1.4,0-1.4,0-1.38,1.4l-.57,0c-2,0-4,0-6,0-.47,0-.72.06-.7.62a15.19,15.19,0,0,1-.17,1.64c-.34,3.75-.67,7.51-1,11.27,0,.4.07.49.46.48h6.48a6.47,6.47,0,0,0,1.39,0Z"/><path class="e3ca3cf1-1642-4a7b-8dfd-c0b91c47bfb2" d="M203.66,105.23c0-1.4,0-1.4,1.38-1.4,3.5,0,7,0,10.5,0,.5,0,.62.17.58.62-.18,1.71-.35,3.43-.51,5.14-.12,1.39-.2,2.79-.32,4.19s-.27,2.68-.4,4-.2,2.62-.32,3.93-.27,2.71-.39,4.07c-.08.9-.18,1.8-.22,2.7,0,.53-.15,1-.12,1.59,0,.29-.16.47-.48.56q-4.67,1.26-9.3,2.57c-.37.11-.41,0-.41-.33,0-1.17,0-2.33,0-3.5l.29-.11,6-1.66c.48-.14,1.07-.15,1.4-.45s.19-1,.24-1.47c.3-3.25.58-6.51.9-9.77,0-.44-.06-.57-.53-.56-2.77,0-5.55,0-8.33,0v-6.08c1.4.08,2.8.17,4.2.22.36,0,.47.13.5.47.07,1,.18,2,.26,3.07,0,.31.08.49.46.48,1,0,2.06,0,3.09,0,.31,0,.38-.11.35-.39-.08-.75-.14-1.5-.21-2.25-.15-1.73-.29-3.45-.44-5.17,0-.25,0-.45-.39-.45l-7.82,0Z"/><path class="e129e7f4-cc23-4188-8ddc-a7a0c2989abd" d="M203.56,119.2a6.47,6.47,0,0,1-1.39,0h-6.48c-.39,0-.5-.08-.46-.48.35-3.76.68-7.52,1-11.27a15.19,15.19,0,0,0,.17-1.64c0-.56.23-.62.7-.62,2,0,4,0,6,0l.57,0v4.08c-1.08,0-2.16.06-3.24.06-.35,0-.46.1-.48.46-.14,1.71-.3,3.41-.48,5.12,0,.35,0,.43.39.42,1.23,0,2.47,0,3.7,0Z"/><path class="bd0ad782-ed84-4f22-a908-64880f0aed29" d="M203.56,119.2c0-1.27,0-2.54,0-3.81l.1,0c2.78,0,5.56,0,8.33,0,.47,0,.57.12.53.56-.32,3.26-.6,6.52-.9,9.77-.05.51.11,1.14-.24,1.47s-.92.31-1.4.45l-6,1.66-.29.11-.12,0,0-4,.1-.07,4-1c.18-.05.26-.12.27-.31.13-1.45.26-2.9.4-4.34,0-.25,0-.38-.32-.37l-4.31,0Z"/><path class="e129e7f4-cc23-4188-8ddc-a7a0c2989abd" d="M203.56,125.36l0,4L196,127.26a.36.36,0,0,1-.31-.38c-.15-1.78-.31-3.55-.48-5.32,0-.29,0-.44.36-.43,1,0,2.09,0,3.13,0,.28,0,.39.07.41.37,0,.73.16,1.47.18,2.2a.56.56,0,0,0,.5.62C201.06,124.65,202.31,125,203.56,125.36Z"/><path class="e3ca3cf1-1642-4a7b-8dfd-c0b91c47bfb2" d="M203.66,119.27l4.31,0c.29,0,.34.12.32.37-.14,1.44-.27,2.89-.4,4.34,0,.19-.09.26-.27.31l-4,1Z"/><path class="bd0ad782-ed84-4f22-a908-64880f0aed29" d="M203.65,109.27v-4l7.82,0c.36,0,.37.2.39.45.15,1.72.29,3.44.44,5.17.07.75.13,1.5.21,2.25,0,.28,0,.39-.35.39-1,0-2.06,0-3.09,0-.38,0-.44-.17-.46-.48-.08-1-.19-2-.26-3.07,0-.34-.14-.46-.5-.47C206.45,109.44,205.05,109.35,203.65,109.27Z"/><path class="ec1290fc-2ecf-44bf-bb48-b59a230b7d54" d="M203.65,115.35l-.1,0c-1.23,0-2.47,0-3.7,0-.34,0-.42-.07-.39-.42.18-1.71.34-3.41.48-5.12,0-.36.13-.46.48-.46,1.08,0,2.16,0,3.24-.06C203.66,111.32,203.65,113.34,203.65,115.35Z"/></svg>