<svg id="ae296d3f-9d33-4856-b812-736dae3c17de" data-name="Capa 1" xmlns="http://www.w3.org/2000/svg" viewBox="0 0 520 350"><defs><style>.b272c30a-368a-458d-88f4-ee470822a9c4,.ec5dcc4c-c5fc-4eba-97d2-6af18e8df00d,.f0c644e3-48b9-4b2d-84f0-554554c972ea{font-size:18px;font-family:SourceSansPro-Bold, Source Sans Pro;font-weight:700;}.ae0c971b-4533-4843-b196-ddace304c43f,.b2075d9b-b288-4190-9c63-95d7fbc3b609,.f0c644e3-48b9-4b2d-84f0-554554c972ea{fill:#1572b6;}.f17e5606-8904-46b0-b52e-6259806fa1ed{letter-spacing:-0.02em;}.ec7ac1e2-ff93-4d80-a264-d7d5de495750{letter-spacing:0em;}.f4d1abc4-5df2-49f0-972a-d3b587ff0fe2{letter-spacing:-0.01em;}.bd67f888-908a-4984-b3ab-bc4c1259ae19{fill:#34a8db;}.b6e29c98-d3c8-41a2-9184-31ccc1fc0bca{fill:#e7e8e9;}.b7f2fe4a-7116-4cc2-b3c5-24d401ef8f3a{fill:#e4e7e9;}.b5699d67-5bc0-491a-9e48-210f9b91ab12{fill:#fdfdfe;}.a4f0ecc0-aa92-4056-8216-03f4c245d33f,.b09617dd-eda2-4233-b2dc-8a722cd1dd64{fill:none;stroke-linecap:round;stroke-miterlimit:10;stroke-width:5px;}.b09617dd-eda2-4233-b2dc-8a722cd1dd64{stroke:#1572b6;}.aa91ac37-3b12-4fdf-96b6-24684a836f5c,.b272c30a-368a-458d-88f4-ee470822a9c4,.f0ba7c31-b0fb-4154-8006-ea0e008d18b1{fill:#e34f27;}.ab7a1d73-ac66-4dcf-980e-d8030f3a9d4b{letter-spacing:-0.02em;}.ba8ef4cb-01bc-4f42-825b-d061d3b390f5{fill:#f0662a;}.abe6d26b-4414-4469-b5d8-6db95092ece9{fill:#ebe8e7;}.bce6702c-aff9-4028-876b-b3c07914c7ab{fill:#ef590c;}.a07d1c45-8989-4188-9de0-3bd79de38ee6{fill:#fefdfc;}.fa4400be-4945-4856-8244-31a5eb39c92c{fill:#fefdfd;}.a6bb54d7-7644-4d9f-a7ed-4aa360a2db3a,.ec5dcc4c-c5fc-4eba-97d2-6af18e8df00d{fill:#8692c1;}.a961bb70-90f6-42ed-bf41-387312a0c442{letter-spacing:-0.01em;}.a9504c6a-1cef-49c5-a50d-b810f8474187{letter-spacing:-0.03em;}.bf4933f7-647d-4498-a845-6ed146b22951{fill:#232633;}.a4f0ecc0-aa92-4056-8216-03f4c245d33f{stroke:#e34f27;}.aa91ac37-3b12-4fdf-96b6-24684a836f5c,.ae0c971b-4533-4843-b196-ddace304c43f,.bd3b54f4-9c29-4c7f-9090-49269c45f91f{font-size:12px;font-family:SourceSansPro-Regular, Source Sans Pro;}.bd3b54f4-9c29-4c7f-9090-49269c45f91f{fill:#5f6ea0;}.ab1cf4bd-8be9-41f8-9e65-5f74b52b3de5{letter-spacing:-0.02em;}.f7a93c31-169b-47dd-baef-df036fbebe01{letter-spacing:-0.02em;}.e92e657d-9958-4065-a11b-7e38a69339b1{letter-spacing:-0.01em;}.e345eda5-60e7-4885-99d1-7f2adbc005f1{letter-spacing:-0.01em;}.fd357dcf-a62a-4105-b06c-7eb77e3ae865{letter-spacing:0em;}.e6eaaab9-94ff-4210-96df-690417498345{letter-spacing:-0.01em;}.b2becb74-e5a0-4503-afd2-e4c8c5e75baa{letter-spacing:-0.02em;}.f382bba5-7e5f-4b19-ad12-7045965d047d{letter-spacing:-0.02em;}</style></defs><title>_</title><path d="M326.86,221.12H311a2,2,0,0,1-1.33-2.16q0-8.43,0-16.86a2,2,0,0,1,1.33-2.16h10.64A6,6,0,0,1,325,202c.58.64,1.21,1.23,1.82,1.83a4.57,4.57,0,0,1,1.4,3.38c0,3.91,0,7.83,0,11.74A2,2,0,0,1,326.86,221.12Zm-5.29-19.82a4,4,0,0,0-.43,0h-9.65c-.41,0-.55.17-.54.57,0,1.09,0,2.19,0,3.29v14c0,.39,0,.67.54.67h14.83c.37,0,.55-.13.54-.52q0-6.16,0-12.33c0-.33-.12-.43-.44-.42-1.45,0-2.89,0-4.33,0h-.53Zm4.52,3.92L322.91,202v3.22Z"/><text class="f0c644e3-48b9-4b2d-84f0-554554c972ea" transform="translate(48.12 308.62)"><tspan class="f17e5606-8904-46b0-b52e-6259806fa1ed">s</tspan><tspan class="ec7ac1e2-ff93-4d80-a264-d7d5de495750" x="7.61" y="0">tyle</tspan><tspan class="f4d1abc4-5df2-49f0-972a-d3b587ff0fe2" x="38.36" y="0">.</tspan><tspan x="43.58" y="0">css</tspan></text><path class="b2075d9b-b288-4190-9c63-95d7fbc3b609" d="M78.94,243.11c4.86,0,9.73,0,14.59,0,.75,0,.86.24.8.9Q93.15,257,92,270c-.12,1.33-.26,2.65-.36,4a.78.78,0,0,1-.7.84q-5.82,1.57-11.62,3.22a1.48,1.48,0,0,1-.86,0c-3.81-1.06-7.63-2.13-11.45-3.16a.9.9,0,0,1-.79-1Q65.17,262,64.09,250.09c-.18-2.07-.34-4.13-.55-6.2-.06-.6.07-.8.72-.8C69.16,243.12,74.05,243.11,78.94,243.11Zm-.26,14-3.72,0c-.37,0-.62,0-.57.52.1,1,.16,1.94.23,2.91,0,.47.35.46.69.46l3.54,0v6.07l-2.48-.65c-1.66-.45-1.66-.46-1.85-2.11a7.79,7.79,0,0,1-.12-1c0-.39-.18-.5-.54-.49-.92,0-1.84,0-2.75,0-.54,0-.65.18-.6.67.15,1.56.31,3.12.41,4.68a1,1,0,0,0,.87,1c2.36.64,4.71,1.32,7.07,2v3.2c0,1.11,0,1.1,1,.81,2.58-.73,5.17-1.46,7.76-2.17,1.65-.45,1.61-.44,1.69-2.13s.24-3.47.39-5.21c.21-2.37.46-4.74.67-7.12.15-1.55.26-3.11.4-4.67.22-2.43.44-4.87.68-7.3.06-.62-.1-.89-.81-.89-3.67,0-7.35,0-11,0-.62,0-.81.18-.82.8a6.69,6.69,0,0,1-.16,2.71c-2.9,0-5.79,0-8.69,0-.58,0-.79.14-.7.74a16,16,0,0,1,.23,2.38c0,.7.32.8.93.79,2.8,0,5.61,0,8.42,0,0,.37,0,.75,0,1.13A8.22,8.22,0,0,1,78.68,257.11Z"/><path class="bd67f888-908a-4984-b3ab-bc4c1259ae19" d="M78.68,249.27a6.69,6.69,0,0,0,.16-2.71c0-.62.2-.81.82-.8,3.67,0,7.35,0,11,0,.71,0,.87.27.81.89-.24,2.43-.46,4.87-.68,7.3-.14,1.56-.25,3.12-.4,4.67-.21,2.38-.46,4.75-.67,7.12-.15,1.74-.3,3.47-.39,5.21s0,1.68-1.69,2.13c-2.59.71-5.18,1.44-7.76,2.17-1,.29-1,.3-1-.81v-3.2l.18-.08c2.26-.62,4.5-1.29,6.77-1.82A1.36,1.36,0,0,0,87,267.84c.19-2.57.44-5.13.67-7.7.3-3.39.6-6.78.92-10.17,0-.49-.07-.68-.6-.67-3,0-6,0-9,0Z"/><path class="b6e29c98-d3c8-41a2-9184-31ccc1fc0bca" d="M79,271.15l-.18.08c-2.36-.67-4.71-1.35-7.07-2a1,1,0,0,1-.87-1c-.1-1.56-.26-3.12-.41-4.68-.05-.49.06-.69.6-.67.91,0,1.83,0,2.75,0,.36,0,.54.1.54.49a7.79,7.79,0,0,0,.12,1c.19,1.65.19,1.66,1.85,2.11l2.48.65.18.05Z"/><path class="b7f2fe4a-7116-4cc2-b3c5-24d401ef8f3a" d="M78.68,249.27l.35.07c0,1.26,0,2.52,0,3.79l-.17.1c-2.81,0-5.62,0-8.42,0-.61,0-.92-.09-.93-.79a16,16,0,0,0-.23-2.38c-.09-.6.12-.74.7-.74C72.89,249.31,75.78,249.28,78.68,249.27Z"/><path class="bd67f888-908a-4984-b3ab-bc4c1259ae19" d="M79,267.17l-.18-.05v-6.19A30.56,30.56,0,0,0,83,261c.48,0,.7.12.64.65-.14,1.32-.26,2.65-.36,4,0,.41-.32.44-.6.52Z"/><path class="bd67f888-908a-4984-b3ab-bc4c1259ae19" d="M78.87,253.23l.17-.1c1.54,0,3.08.07,4.62.05.6,0,.77.18.7.76-.11.82-.17,1.65-.23,2.48,0,.54-.24.75-.82.74-1.49,0-3,0-4.45,0l-.18-.07a8.22,8.22,0,0,0,.17-2.75C78.89,254,78.86,253.6,78.87,253.23Z"/><path class="b7f2fe4a-7116-4cc2-b3c5-24d401ef8f3a" d="M78.68,257.11l.18.07a8.94,8.94,0,0,1,0,3.75v.12l-3.54,0c-.34,0-.66,0-.69-.46-.07-1-.13-1.94-.23-2.91,0-.49.2-.52.57-.52Z"/><path class="b5699d67-5bc0-491a-9e48-210f9b91ab12" d="M78.85,260.93a8.94,8.94,0,0,0,0-3.75c1.48,0,3-.06,4.45,0,.58,0,.79-.2.82-.74.06-.83.12-1.66.23-2.48.07-.58-.1-.77-.7-.76-1.54,0-3.08,0-4.62-.05,0-1.27,0-2.53,0-3.79,3,0,6,0,9,0,.53,0,.65.18.6.67-.32,3.39-.62,6.78-.92,10.17-.23,2.57-.48,5.13-.67,7.7a1.36,1.36,0,0,1-1.21,1.49c-2.27.53-4.51,1.2-6.77,1.82,0-1.33,0-2.65,0-4l3.67-1c.28-.08.57-.11.6-.52.1-1.33.22-2.66.36-4,.06-.53-.16-.64-.64-.65A30.56,30.56,0,0,1,78.85,260.93Z"/><path class="b2075d9b-b288-4190-9c63-95d7fbc3b609" d="M105.34,286.39H52.53c-3.37-1.22-4.43-3.72-4.41-7.17q.1-28,0-56c0-3.45,1-5.94,4.41-7.16H87.84c4.63.82,8.1,3.48,11.17,6.87,1.92,2.12,4,4.07,6,6.08a15.12,15.12,0,0,1,4.65,11.18c0,13,0,26,0,39C109.78,282.67,108.71,285.16,105.34,286.39ZM87.78,220.62a13.57,13.57,0,0,0-1.43-.14c-10.67,0-21.34,0-32,0-1.37,0-1.82.6-1.81,1.9,0,3.64,0,7.28,0,10.93q0,23.26,0,46.53c0,1.3.13,2.22,1.8,2.22q24.62,0,49.21,0c1.24,0,1.81-.44,1.81-1.72q0-20.46,0-40.92c0-1.09-.38-1.41-1.46-1.4-4.79.05-9.58,0-14.37,0H87.78Zm15,13L92.2,222.92v10.69Z"/><path class="b09617dd-eda2-4233-b2dc-8a722cd1dd64" d="M29.47,68.59C18.3,83.75,6.06,111,6.06,150.48c0,60.91,19,84.08,31,95.37"/><polygon class="b2075d9b-b288-4190-9c63-95d7fbc3b609" points="18.18 62.98 42.05 55.8 36.34 80.07 18.18 62.98"/><text class="b272c30a-368a-458d-88f4-ee470822a9c4" transform="translate(48.11 116.34)">ind<tspan class="ab7a1d73-ac66-4dcf-980e-d8030f3a9d4b" x="25.58" y="0">ex</tspan><tspan x="43.58" y="0">.php</tspan></text><path class="f0ba7c31-b0fb-4154-8006-ea0e008d18b1" d="M78.86,44.64H93.28c1.08,0,1.12,0,1,1.08L92.72,63.53q-.54,6-1.07,12c0,.5-.24.69-.72.82Q85.16,78,79.39,79.59a1.67,1.67,0,0,1-.94,0c-3.84-1.08-7.69-2.16-11.54-3.2a.8.8,0,0,1-.69-.85q-.81-9.44-1.65-18.87c-.32-3.63-.66-7.26-1-10.89-.11-1.14-.12-1.14,1.06-1.14Zm0,18.36,0,5.91c-1-.1-1.82-.52-2.75-.68s-1.79-.5-1.58-1.78a7.57,7.57,0,0,0-.11-1.14c0-.44-.18-.56-.59-.55-.89,0-1.78,0-2.67,0-.57,0-.71.17-.65.71.16,1.53.3,3.07.4,4.61,0,.6.29.83.88,1,2.37.62,4.73,1.31,7.09,2,0,1,0,2,0,2.94s.25,1,1.09.81L82.75,76c1.8-.49,3.6-1,5.38-1.48.37-.12,1-.12,1-.68.15-1.2.27-2.41.37-3.61.14-1.62.24-3.24.38-4.85.22-2.53.47-5,.69-7.57.14-1.56.26-3.12.41-4.68s.32-3.34.49-5c.06-.6-.15-.83-.79-.82q-5.47,0-10.95,0c-.67,0-.91.29-.91.9,0,.89,0,1.78,0,2.67H70.14c-.3,0-.66-.14-.89.21q.52,5.86,1.06,11.72c.26.3.61.17.91.17C73.77,63,76.31,63,78.86,63Z"/><path class="ba8ef4cb-01bc-4f42-825b-d061d3b390f5" d="M78.86,50.87c0-.89,0-1.78,0-2.67,0-.61.24-.91.91-.9q5.47,0,10.95,0c.64,0,.85.22.79.82-.17,1.67-.34,3.34-.49,5s-.27,3.12-.41,4.68c-.22,2.52-.47,5-.69,7.57-.14,1.61-.24,3.23-.38,4.85-.1,1.2-.22,2.41-.37,3.61-.07.56-.66.56-1,.68-1.78.53-3.58,1-5.38,1.48l-2.81.79c-.84.23-1.08.06-1.09-.81s0-2,0-2.94V73a1.54,1.54,0,0,0,.43,0c2.37-.65,4.72-1.32,7.09-2,.45-.12.51-.39.55-.77.27-3.18.58-6.36.82-9.54.05-.59.4-1.2,0-1.8-.26-.28-.61-.16-.92-.16h-8V55l0-.06c3,0,5.94,0,8.9,0,.43,0,.57-.15.58-.56,0-.86.13-1.71.19-2.57l.06-.26c.05-.2.12-.4-.1-.54s-.62-.17-.93-.17Z"/><path class="abe6d26b-4414-4469-b5d8-6db95092ece9" d="M70.31,62.81q-.54-5.87-1.06-11.72l9.61,0,0,3.83,0,.06c-1.59,0-3.18,0-4.78,0-.45,0-.63.11-.57.6.14,1,.24,2.1.35,3.16.18.37.52.18.78.19,1.4,0,2.81,0,4.22,0v3.83Z"/><path class="abe6d26b-4414-4469-b5d8-6db95092ece9" d="M78.86,73c-2.36-.67-4.72-1.36-7.09-2-.59-.16-.84-.39-.88-1-.1-1.54-.24-3.08-.4-4.61-.06-.54.08-.74.65-.71.89,0,1.78,0,2.67,0,.41,0,.59.11.59.55a7.57,7.57,0,0,1,.11,1.14c-.21,1.28.55,1.6,1.58,1.78s1.8.58,2.75.68a.59.59,0,0,0,0,.13c0,1.3,0,2.61,0,3.91Z"/><path class="ba8ef4cb-01bc-4f42-825b-d061d3b390f5" d="M78.86,69a.59.59,0,0,1,0-.13c0-2,0-3.94,0-5.91h4.78c-.12,1.46-.25,2.93-.34,4.39,0,.43-.29.51-.62.6Z"/><path class="bce6702c-aff9-4028-876b-b3c07914c7ab" d="M78.86,51.11l-9.61,0c.23-.35.59-.21.89-.21h17.4c.31,0,.66-.12.93.17Z"/><path class="bce6702c-aff9-4028-876b-b3c07914c7ab" d="M83.64,63H78.86c-2.55,0-5.09,0-7.64,0-.3,0-.65.13-.91-.17l8.55,0c1.27,0,2.54,0,3.81,0C83,62.83,83.37,62.64,83.64,63Z"/><path class="a07d1c45-8989-4188-9de0-3bd79de38ee6" d="M83.64,63c-.27-.35-.65-.16-1-.17-1.27,0-2.54,0-3.81,0V59l8.89-.07c.39.6,0,1.21,0,1.8-.24,3.18-.55,6.36-.82,9.54,0,.38-.1.65-.55.77-2.37.63-4.72,1.3-7.09,2a1.54,1.54,0,0,1-.43,0c0-1.3,0-2.61,0-3.91L82.68,68c.33-.09.59-.17.62-.6C83.39,65.92,83.52,64.45,83.64,63Z"/><path class="fa4400be-4945-4856-8244-31a5eb39c92c" d="M78.86,51.11l9.61-.06c.22.14.15.34.1.54l-.06.26c-.06.86-.15,1.71-.19,2.57,0,.41-.15.56-.58.56-3,0-5.93,0-8.9,0C78.85,53.66,78.85,52.39,78.86,51.11Z"/><path class="f0ba7c31-b0fb-4154-8006-ea0e008d18b1" d="M73.86,58.72c-.11-1.06-.21-2.11-.35-3.16-.06-.49.12-.61.57-.6,1.6,0,3.19,0,4.78,0v3.71Z"/><path class="bce6702c-aff9-4028-876b-b3c07914c7ab" d="M73.86,58.72h13c.31,0,.66-.12.92.16L78.86,59c-1.41,0-2.82,0-4.22,0C74.38,58.9,74,59.09,73.86,58.72Z"/><path class="abe6d26b-4414-4469-b5d8-6db95092ece9" d="M88.51,51.85l.06-.26Z"/><path class="f0ba7c31-b0fb-4154-8006-ea0e008d18b1" d="M105.34,89.39H52.53c-3.37-1.22-4.43-3.72-4.41-7.17q.1-28,0-56c0-3.45,1-5.94,4.41-7.16H87.84c4.63.82,8.1,3.48,11.17,6.87,1.92,2.12,4,4.07,6,6.08a15.12,15.12,0,0,1,4.65,11.18c0,13,0,26,0,39C109.78,85.67,108.71,88.16,105.34,89.39ZM87.78,23.62a13.57,13.57,0,0,0-1.43-.14c-10.67,0-21.34,0-32,0-1.37,0-1.82.6-1.81,1.9,0,3.64,0,7.28,0,10.93q0,23.27,0,46.53c0,1.3.13,2.22,1.8,2.22q24.62,0,49.21,0c1.24,0,1.81-.44,1.81-1.72q0-20.46,0-40.92c0-1.09-.38-1.41-1.46-1.4-4.79.05-9.58,0-14.37,0H87.78Zm15,13L92.2,25.92V36.61Z"/><text class="ec5dcc4c-c5fc-4eba-97d2-6af18e8df00d" transform="translate(195.33 117.67)"><tspan class="a961bb70-90f6-42ed-bf41-387312a0c442">b</tspan><tspan x="10.12" y="0">ac</tspan><tspan class="a9504c6a-1cef-49c5-a50d-b810f8474187" x="28.01" y="0">k</tspan><tspan x="37.37" y="0">end.php</tspan></text><path class="a6bb54d7-7644-4d9f-a7ed-4aa360a2db3a" d="M223.5,49.48h5.3c.13.18.32.11.49.13a32.66,32.66,0,0,1,8.46,1.74A19.79,19.79,0,0,1,243,54.06a9.54,9.54,0,0,1,3.67,5.09v2.12c-.16.08-.17.25-.21.39a7.2,7.2,0,0,1-1.65,2.92,15.82,15.82,0,0,1-6.76,4.25,36.34,36.34,0,0,1-19.39,1.25,23.06,23.06,0,0,1-9.47-3.89A9.52,9.52,0,0,1,206,62.36c-.16-.36-.14-.79-.44-1.09V59c.05-.05.11-.08.13-.14a9.57,9.57,0,0,1,4.58-5.52,26.84,26.84,0,0,1,10.33-3.5A21.12,21.12,0,0,0,223.5,49.48Zm11.85,5.62c-.75,0-1.5,0-2.25,0-.47,0-.68.12-.74.59s-.22,1.13-.33,1.69c-.56,2.86-1.11,5.72-1.69,8.57-.1.45,0,.54.43.52s1.11,0,1.66,0c.35,0,.51-.1.56-.45.09-.64.24-1.26.34-1.89.07-.43.21-.66.71-.61.66,0,1.33,0,2,0A4.94,4.94,0,0,0,241,59.46c.53-2.75-.75-4.32-3.56-4.36Zm-18.87,0v0c-.77,0-1.54,0-2.32,0-.4,0-.56.11-.64.54q-1,5.16-2.05,10.31c-.09.43,0,.55.44.53s1.11,0,1.66,0c.34,0,.51-.07.56-.45.09-.67.26-1.34.37-2,.06-.34.19-.5.56-.48.66,0,1.33,0,2,0a5,5,0,0,0,5.09-4.27c.42-2.43-.69-3.92-3.14-4.12C218.17,55.07,217.32,55.13,216.48,55.13Zm12.46,8.4a7,7,0,0,1,.93,0c.44.06.58-.16.64-.54.27-1.65.48-3.32.85-5s-.59-2.64-2.17-2.88a17.08,17.08,0,0,0-2.58-.07c-.39,0-.58-.09-.47-.53s.15-.78.23-1.17c.26-1.26.26-1.26-1-1.26-.31,0-.62,0-.93,0s-.53.1-.6.49c-.29,1.6-.62,3.2-.94,4.8-.37,1.84-.73,3.68-1.11,5.51-.1.48,0,.63.51.6a11,11,0,0,1,1.52,0c.41,0,.57-.12.65-.54.32-1.75.7-3.5,1-5.25.08-.44.25-.6.69-.57s1,0,1.46,0c.9,0,1.1.26.93,1.13l-.72,3.84c-.08.43-.35,1-.17,1.26S228.56,63.48,228.94,63.53Z"/><path class="bf4933f7-647d-4498-a845-6ed146b22951" d="M235.35,55.1h2.05c2.81,0,4.09,1.61,3.56,4.36A4.94,4.94,0,0,1,236,63.53c-.66,0-1.33,0-2,0-.5-.05-.64.18-.71.61-.1.63-.25,1.25-.34,1.89-.05.35-.21.47-.56.45-.55,0-1.11,0-1.66,0s-.53-.07-.43-.52c.58-2.85,1.13-5.71,1.69-8.57.11-.56.26-1.12.33-1.69s.27-.62.74-.59C233.85,55.12,234.6,55.1,235.35,55.1Zm.61,2.09c-.28,0-.57,0-.85,0s-.39.05-.43.3c-.2,1.19-.39,2.38-.59,3.57,0,.21,0,.35.26.34a5.87,5.87,0,0,0,2.53-.27,2.89,2.89,0,0,0,1.33-2.93c-.14-.7-.76-1-2.05-1Z"/><path class="bf4933f7-647d-4498-a845-6ed146b22951" d="M216.48,55.13c.84,0,1.69-.06,2.52,0,2.45.2,3.56,1.69,3.14,4.12a5,5,0,0,1-5.09,4.27c-.66,0-1.33,0-2,0-.37,0-.5.14-.56.48-.11.67-.28,1.34-.37,2,0,.38-.22.47-.56.45-.55,0-1.11,0-1.66,0s-.53-.1-.44-.53q1-5.14,2.05-10.31c.08-.43.24-.55.64-.54.78,0,1.55,0,2.32,0Zm.61,2.06a3.53,3.53,0,0,1-.46,0c-.55-.08-.85.07-.89.7s-.23,1.17-.28,1.76-.53,1.37-.07,1.68,1.24.12,1.87,0a2.59,2.59,0,0,0,2.13-3C219.32,57.51,218.7,57.19,217.09,57.19Z"/><path class="bf4933f7-647d-4498-a845-6ed146b22951" d="M228.94,63.53c-.38-.05-1,.21-1.25-.11s.09-.83.17-1.26l.72-3.84c.17-.87,0-1.11-.93-1.13-.49,0-1,0-1.46,0s-.61.13-.69.57c-.33,1.75-.71,3.5-1,5.25-.08.42-.24.56-.65.54a11,11,0,0,0-1.52,0c-.48,0-.61-.12-.51-.6.38-1.83.74-3.67,1.11-5.51.32-1.6.65-3.2.94-4.8.07-.39.22-.53.6-.49s.62,0,.93,0c1.26,0,1.26,0,1,1.26-.08.39-.13.79-.23,1.17s.08.53.47.53a17.08,17.08,0,0,1,2.58.07c1.58.24,2.55,1.2,2.17,2.88s-.58,3.3-.85,5c-.06.38-.2.6-.64.54A7,7,0,0,0,228.94,63.53Z"/><path class="a6bb54d7-7644-4d9f-a7ed-4aa360a2db3a" d="M236,57.19h.2c1.29,0,1.91.31,2.05,1a2.89,2.89,0,0,1-1.33,2.93,5.87,5.87,0,0,1-2.53.27c-.25,0-.29-.13-.26-.34.2-1.19.39-2.38.59-3.57,0-.25.2-.31.43-.3S235.68,57.19,236,57.19Z"/><path class="a6bb54d7-7644-4d9f-a7ed-4aa360a2db3a" d="M217.09,57.19c1.61,0,2.23.32,2.3,1.2a2.59,2.59,0,0,1-2.13,3c-.63.1-1.43.27-1.87,0s0-1.1.07-1.68.25-1.17.28-1.76.34-.78.89-.7A3.53,3.53,0,0,0,217.09,57.19Z"/><path class="a6bb54d7-7644-4d9f-a7ed-4aa360a2db3a" d="M252.55,89.39H199.74c-3.37-1.22-4.42-3.72-4.41-7.17q.12-28,0-56c0-3.45,1-5.94,4.41-7.16h35.31c4.63.82,8.11,3.48,11.18,6.87,1.92,2.12,4,4.07,6.05,6.08a15.16,15.16,0,0,1,4.65,11.18c0,13-.06,26,0,39C257,85.67,255.93,88.16,252.55,89.39ZM235,23.62a13.41,13.41,0,0,0-1.42-.14c-10.67,0-21.35,0-32,0-1.38,0-1.83.6-1.81,1.9,0,3.64,0,7.28,0,10.93q0,23.27,0,46.53c0,1.3.12,2.22,1.8,2.22q24.6,0,49.2,0c1.24,0,1.82-.44,1.82-1.72q0-20.46,0-40.92c0-1.09-.37-1.41-1.45-1.4-4.79.05-9.58,0-14.37,0H235Zm15,13L239.42,25.92V36.61Z"/><line class="a4f0ecc0-aa92-4056-8216-03f4c245d33f" x1="171.84" y1="49.22" x2="122.76" y2="49.22"/><polygon class="f0ba7c31-b0fb-4154-8006-ea0e008d18b1" points="165.61 36.76 187.2 49.22 165.61 61.69 165.61 36.76"/><text class="bd3b54f4-9c29-4c7f-9090-49269c45f91f" transform="translate(195.33 138.4)">• envía email <tspan class="ab1cf4bd-8be9-41f8-9e65-5f74b52b3de5" x="65.93" y="0">c</tspan><tspan x="71.15" y="0">on e</tspan><tspan class="f7a93c31-169b-47dd-baef-df036fbebe01" x="92.57" y="0">s</tspan><tspan x="97.35" y="0">tilo css</tspan></text><text class="bd3b54f4-9c29-4c7f-9090-49269c45f91f" transform="translate(195.33 205.4)">• c<tspan class="e92e657d-9958-4065-a11b-7e38a69339b1" x="11.52" y="0">r</tspan><tspan class="e345eda5-60e7-4885-99d1-7f2adbc005f1" x="15.56" y="0">e</tspan><tspan x="21.35" y="0">a </tspan><tspan class="e92e657d-9958-4065-a11b-7e38a69339b1" x="29.8" y="0">r</tspan><tspan class="fd357dcf-a62a-4105-b06c-7eb77e3ae865" x="33.84" y="0">espue</tspan><tspan class="f7a93c31-169b-47dd-baef-df036fbebe01" x="63.96" y="0">s</tspan><tspan class="ab1cf4bd-8be9-41f8-9e65-5f74b52b3de5" x="68.75" y="0">t</tspan><tspan x="72.55" y="0">a html</tspan><tspan x="0" y="14.4" xml:space="preserve">   </tspan><tspan class="ab1cf4bd-8be9-41f8-9e65-5f74b52b3de5" x="7.2" y="14.4">c</tspan><tspan x="12.42" y="14.4">on d</tspan><tspan class="e345eda5-60e7-4885-99d1-7f2adbc005f1" x="34.55" y="14.4">at</tspan><tspan x="44.32" y="14.4">os enviados</tspan></text><text class="aa91ac37-3b12-4fdf-96b6-24684a836f5c" transform="translate(48.11 138.4)">• e<tspan class="f7a93c31-169b-47dd-baef-df036fbebe01" x="12" y="0">s</tspan><tspan x="16.79" y="0">tru</tspan><tspan class="e6eaaab9-94ff-4210-96df-690417498345" x="31.54" y="0">c</tspan><tspan x="36.89" y="0">tu</tspan><tspan class="b2becb74-e5a0-4503-afd2-e4c8c5e75baa" x="47.47" y="0">r</tspan><tspan x="51.35" y="0">a in</tspan><tspan class="e6eaaab9-94ff-4210-96df-690417498345" x="69.31" y="0">f</tspan><tspan x="72.7" y="0">o</tspan></text><text class="ae0c971b-4533-4843-b196-ddace304c43f" transform="translate(48.11 331.4)">• e<tspan class="f7a93c31-169b-47dd-baef-df036fbebe01" x="12" y="0">s</tspan><tspan x="16.79" y="0">tili</tspan><tspan class="f382bba5-7e5f-4b19-ad12-7045965d047d" x="29.81" y="0">z</tspan><tspan x="34.63" y="0">a la in</tspan><tspan class="e92e657d-9958-4065-a11b-7e38a69339b1" x="64.1" y="0">f</tspan><tspan x="67.49" y="0">o</tspan></text><path d="M351,126.87h.54v.75a1.66,1.66,0,0,0-.06.21c-.17,1-.34,2.07-.5,3.1-.38,2.3-.75,4.59-1.13,6.89-.13.8-.25,1.6-.4,2.4s-.4.86-1.08.58c-1.08-.44-2.17-.87-3.24-1.33a.41.41,0,0,0-.6.16c-.31.42-.64.82-1,1.22a3.82,3.82,0,0,1-1.22,1.18h-.27a2.05,2.05,0,0,1-.26-.62c0-.83,0-1.66,0-2.5a1,1,0,0,1,.24-.67q3.35-4.08,6.67-8.17a1.37,1.37,0,0,0,.13-.2.38.38,0,0,0-.2.1l-8.37,7.22a.4.4,0,0,1-.5.09l-2.93-1.21a3.2,3.2,0,0,1-.51-.4v-.14a4.29,4.29,0,0,1,.69-.66q5.61-3.27,11.24-6.51C349.14,127.84,350.07,127.37,351,126.87Z"/><path class="b2075d9b-b288-4190-9c63-95d7fbc3b609" d="M373.38,126.86c2.27,0,4.54,0,6.81,0,.35,0,.4.11.37.42-.37,4-.72,8.1-1.09,12.15-.05.62-.12,1.24-.16,1.86a.37.37,0,0,1-.33.39l-5.43,1.5a.65.65,0,0,1-.39,0c-1.78-.5-3.57-1-5.35-1.48a.42.42,0,0,1-.37-.45c-.32-3.7-.66-7.41-1-11.11-.09-1-.16-1.93-.26-2.89,0-.28,0-.38.34-.38C368.81,126.87,371.1,126.86,373.38,126.86Zm-.12,6.54h-1.74c-.17,0-.29,0-.27.24.05.45.08.9.11,1.36,0,.22.16.21.32.21l1.66,0v2.83l-1.16-.31c-.77-.21-.77-.21-.87-1,0-.15-.05-.3-.05-.45s-.08-.24-.25-.23c-.43,0-.86,0-1.29,0-.25,0-.3.09-.28.32.08.73.15,1.45.19,2.18a.45.45,0,0,0,.41.47l3.3.93v1.49c0,.52,0,.52.49.38l3.62-1c.77-.21.75-.21.79-1s.11-1.62.18-2.43c.1-1.11.21-2.21.31-3.32.07-.73.12-1.46.19-2.18.1-1.14.21-2.27.32-3.41,0-.29-.05-.42-.38-.41-1.71,0-3.43,0-5.14,0-.29,0-.38.08-.39.37a3.2,3.2,0,0,1-.07,1.27H369.2c-.27,0-.37.06-.33.34a7,7,0,0,1,.11,1.11c0,.33.15.38.43.37,1.31,0,2.62,0,3.93,0,0,.18,0,.36,0,.53A4.3,4.3,0,0,1,373.26,133.4Z"/><path class="bd67f888-908a-4984-b3ab-bc4c1259ae19" d="M373.26,129.74a3.2,3.2,0,0,0,.07-1.27c0-.29.1-.37.39-.37,1.71,0,3.43,0,5.14,0,.33,0,.4.12.38.41-.11,1.14-.22,2.27-.32,3.41-.07.72-.12,1.45-.19,2.18-.1,1.11-.21,2.21-.31,3.32-.07.81-.14,1.62-.18,2.43s0,.79-.79,1l-3.62,1c-.49.14-.49.14-.49-.38V140l.09,0c1.05-.29,2.09-.6,3.16-.85.42-.1.53-.3.56-.7.09-1.19.21-2.39.31-3.59.14-1.58.28-3.16.43-4.75,0-.22,0-.31-.28-.31-1.4,0-2.79,0-4.19,0Z"/><path class="b6e29c98-d3c8-41a2-9184-31ccc1fc0bca" d="M373.43,140l-.09,0-3.3-.93a.45.45,0,0,1-.41-.47c0-.73-.11-1.45-.19-2.18,0-.23,0-.33.28-.32.43,0,.86,0,1.29,0,.17,0,.25,0,.25.23s0,.3.05.45c.1.77.1.77.87,1l1.16.31.08,0Z"/><path class="b7f2fe4a-7116-4cc2-b3c5-24d401ef8f3a" d="M373.26,129.74l.16,0v1.77l-.08,0c-1.31,0-2.62,0-3.93,0-.28,0-.42,0-.43-.37a7,7,0,0,0-.11-1.11c0-.28.06-.35.33-.34Z"/><path class="bd67f888-908a-4984-b3ab-bc4c1259ae19" d="M373.42,138.09l-.08,0v-2.89a13.93,13.93,0,0,0,1.94,0c.23,0,.33.05.3.3-.06.62-.12,1.24-.17,1.86,0,.19-.14.2-.27.24Z"/><path class="bd67f888-908a-4984-b3ab-bc4c1259ae19" d="M373.34,131.58l.08,0c.72,0,1.44,0,2.16,0,.28,0,.36.09.33.36s-.08.77-.11,1.15-.11.35-.38.35c-.69,0-1.39,0-2.08,0l-.08,0a4.3,4.3,0,0,0,.08-1.29C373.35,131.94,373.34,131.76,373.34,131.58Z"/><path class="b7f2fe4a-7116-4cc2-b3c5-24d401ef8f3a" d="M373.26,133.4l.08,0a4.3,4.3,0,0,1,0,1.75v.06l-1.66,0c-.16,0-.3,0-.32-.21,0-.46-.06-.91-.11-1.36,0-.23.1-.24.27-.24Z"/><path class="b5699d67-5bc0-491a-9e48-210f9b91ab12" d="M373.34,135.18a4.3,4.3,0,0,0,0-1.75c.69,0,1.39,0,2.08,0,.27,0,.37-.09.38-.35s.06-.77.11-1.15-.05-.36-.33-.36c-.72,0-1.44,0-2.16,0v-1.77c1.4,0,2.79,0,4.19,0,.25,0,.3.09.28.31-.15,1.59-.29,3.17-.43,4.75-.1,1.2-.22,2.4-.31,3.59,0,.4-.14.6-.56.7-1.07.25-2.11.56-3.16.85v-1.86l1.72-.47c.13,0,.26-.05.27-.24,0-.62.11-1.24.17-1.86,0-.25-.07-.3-.3-.3A13.93,13.93,0,0,1,373.34,135.18Z"/><path d="M357.89,138.92v-3.14H355v-1h2.93v-3.14h1.05v3.14h2.93v1h-2.93v3.14Z"/><text class="bd3b54f4-9c29-4c7f-9090-49269c45f91f" transform="translate(195.33 167.4)">• envía email <tspan class="ab1cf4bd-8be9-41f8-9e65-5f74b52b3de5" x="65.93" y="0">c</tspan><tspan x="71.15" y="0">on e</tspan><tspan class="f7a93c31-169b-47dd-baef-df036fbebe01" x="92.57" y="0">s</tspan><tspan x="97.35" y="0">tilo css</tspan><tspan x="0" y="14.4" xml:space="preserve">  (</tspan><tspan class="e92e657d-9958-4065-a11b-7e38a69339b1" x="8.44" y="14.4">r</tspan><tspan x="12.48" y="14.4">es</tspan><tspan class="e345eda5-60e7-4885-99d1-7f2adbc005f1" x="23.46" y="14.4">p</tspan><tspan x="29.95" y="14.4">aldo al </tspan><tspan class="e92e657d-9958-4065-a11b-7e38a69339b1" x="66.13" y="14.4">r</tspan><tspan x="70.17" y="14.4">emi</tspan><tspan class="e345eda5-60e7-4885-99d1-7f2adbc005f1" x="89.03" y="14.4">t</tspan><tspan x="92.91" y="14.4">en</tspan><tspan class="e345eda5-60e7-4885-99d1-7f2adbc005f1" x="105.43" y="14.4">t</tspan><tspan x="109.32" y="14.4">e)</tspan></text><path d="M351,155.87h.54v.75a1.66,1.66,0,0,0-.06.21c-.17,1-.34,2.07-.5,3.1-.38,2.3-.75,4.59-1.13,6.89-.13.8-.25,1.6-.4,2.4s-.4.86-1.08.58c-1.08-.44-2.17-.87-3.24-1.33a.41.41,0,0,0-.6.16c-.31.42-.64.82-1,1.22a3.82,3.82,0,0,1-1.22,1.18h-.27a2.05,2.05,0,0,1-.26-.62c0-.83,0-1.66,0-2.5a1,1,0,0,1,.24-.67q3.35-4.08,6.67-8.17a1.37,1.37,0,0,0,.13-.2.38.38,0,0,0-.2.1l-8.37,7.22a.4.4,0,0,1-.5.09l-2.93-1.21a3.2,3.2,0,0,1-.51-.4v-.14a4.29,4.29,0,0,1,.69-.66q5.61-3.27,11.24-6.51C349.14,156.84,350.07,156.37,351,155.87Z"/><path class="b2075d9b-b288-4190-9c63-95d7fbc3b609" d="M373.38,155.86c2.27,0,4.54,0,6.81,0,.35,0,.4.11.37.42-.37,4-.72,8.1-1.09,12.15-.05.62-.12,1.24-.16,1.86a.37.37,0,0,1-.33.39l-5.43,1.5a.65.65,0,0,1-.39,0c-1.78-.5-3.57-1-5.35-1.48a.42.42,0,0,1-.37-.45c-.32-3.7-.66-7.41-1-11.11-.09-1-.16-1.93-.26-2.89,0-.28,0-.38.34-.38C368.81,155.87,371.1,155.86,373.38,155.86Zm-.12,6.54h-1.74c-.17,0-.29,0-.27.24.05.45.08.9.11,1.36,0,.22.16.21.32.21l1.66,0v2.83l-1.16-.31c-.77-.21-.77-.21-.87-1,0-.15-.05-.3-.05-.45s-.08-.24-.25-.23c-.43,0-.86,0-1.29,0-.25,0-.3.09-.28.32.08.73.15,1.45.19,2.18a.45.45,0,0,0,.41.47l3.3.93v1.49c0,.52,0,.52.49.38l3.62-1c.77-.21.75-.21.79-1s.11-1.62.18-2.43c.1-1.11.21-2.21.31-3.32.07-.73.12-1.46.19-2.18.1-1.14.21-2.27.32-3.41,0-.29-.05-.42-.38-.41-1.71,0-3.43,0-5.14,0-.29,0-.38.08-.39.37a3.2,3.2,0,0,1-.07,1.27H369.2c-.27,0-.37.06-.33.34a7,7,0,0,1,.11,1.11c0,.33.15.38.43.37,1.31,0,2.62,0,3.93,0,0,.18,0,.36,0,.53A4.3,4.3,0,0,1,373.26,162.4Z"/><path class="bd67f888-908a-4984-b3ab-bc4c1259ae19" d="M373.26,158.74a3.2,3.2,0,0,0,.07-1.27c0-.29.1-.37.39-.37,1.71,0,3.43,0,5.14,0,.33,0,.4.12.38.41-.11,1.14-.22,2.27-.32,3.41-.07.72-.12,1.45-.19,2.18-.1,1.11-.21,2.21-.31,3.32-.07.81-.14,1.62-.18,2.43s0,.79-.79,1l-3.62,1c-.49.14-.49.14-.49-.38V169l.09,0c1.05-.29,2.09-.6,3.16-.85.42-.1.53-.3.56-.7.09-1.19.21-2.39.31-3.59.14-1.58.28-3.16.43-4.75,0-.22,0-.31-.28-.31-1.4,0-2.79,0-4.19,0Z"/><path class="b6e29c98-d3c8-41a2-9184-31ccc1fc0bca" d="M373.43,169l-.09,0-3.3-.93a.45.45,0,0,1-.41-.47c0-.73-.11-1.45-.19-2.18,0-.23,0-.33.28-.32.43,0,.86,0,1.29,0,.17,0,.25,0,.25.23s0,.3.05.45c.1.77.1.77.87,1l1.16.31.08,0Z"/><path class="b7f2fe4a-7116-4cc2-b3c5-24d401ef8f3a" d="M373.26,158.74l.16,0v1.77l-.08,0c-1.31,0-2.62,0-3.93,0-.28,0-.42,0-.43-.37a7,7,0,0,0-.11-1.11c0-.28.06-.35.33-.34Z"/><path class="bd67f888-908a-4984-b3ab-bc4c1259ae19" d="M373.42,167.09l-.08,0v-2.89a13.93,13.93,0,0,0,1.94,0c.23,0,.33.05.3.3-.06.62-.12,1.24-.17,1.86,0,.19-.14.2-.27.24Z"/><path class="bd67f888-908a-4984-b3ab-bc4c1259ae19" d="M373.34,160.58l.08,0c.72,0,1.44,0,2.16,0,.28,0,.36.09.33.36s-.08.77-.11,1.15-.11.35-.38.35c-.69,0-1.39,0-2.08,0l-.08,0a4.3,4.3,0,0,0,.08-1.29C373.35,160.94,373.34,160.76,373.34,160.58Z"/><path class="b7f2fe4a-7116-4cc2-b3c5-24d401ef8f3a" d="M373.26,162.4l.08,0a4.3,4.3,0,0,1,0,1.75v.06l-1.66,0c-.16,0-.3,0-.32-.21,0-.46-.06-.91-.11-1.36,0-.23.1-.24.27-.24Z"/><path class="b5699d67-5bc0-491a-9e48-210f9b91ab12" d="M373.34,164.18a4.3,4.3,0,0,0,0-1.75c.69,0,1.39,0,2.08,0,.27,0,.37-.09.38-.35s.06-.77.11-1.15-.05-.36-.33-.36c-.72,0-1.44,0-2.16,0v-1.77c1.4,0,2.79,0,4.19,0,.25,0,.3.09.28.31-.15,1.59-.29,3.17-.43,4.75-.1,1.2-.22,2.4-.31,3.59,0,.4-.14.6-.56.7-1.07.25-2.11.56-3.16.85v-1.86l1.72-.47c.13,0,.26-.05.27-.24,0-.62.11-1.24.17-1.86,0-.25-.07-.3-.3-.3A13.93,13.93,0,0,1,373.34,164.18Z"/><path d="M357.89,167.92v-3.14H355v-1h2.93v-3.14h1.05v3.14h2.93v1h-2.93v3.14Z"/></svg>