<svg id="bf8bd9b0-38d6-4631-9594-21a4e676faa8" data-name="Capa 1" xmlns="http://www.w3.org/2000/svg" viewBox="0 0 520 350"><defs><style>.a32023b6-77ea-4d7e-813c-7eedc73a503a,.bdd2dc3a-e211-4728-aca7-22287a0b3773,.bfef54b9-4ef3-4cb9-9efe-83dc034f63eb,.fb0a6c66-27d8-4f3a-924f-fd8a2c378184{font-size:18px;font-family:SourceSansPro-Bold, Source Sans Pro;font-weight:700;}.b4af89de-7b56-4c7c-80f4-d441898ec318,.bdd48f4a-1594-43b6-88b1-40ed010b0d7e,.fb0a6c66-27d8-4f3a-924f-fd8a2c378184{fill:#1572b6;}.a6c82a0e-88b2-45c5-ad0d-392f1e962159{letter-spacing:-0.02em;}.e5b94cab-518b-4e6d-91a4-99125285b56b{letter-spacing:0em;}.f26ec75b-0ec3-48e7-a452-506dc6802b28{letter-spacing:-0.01em;}.e35b4de1-c73a-4324-ae9a-bee5d8f6e9cc{fill:#34a8db;}.f6b6a8a2-80d6-4c35-a05b-fafebb0514c1{fill:#e7e8e9;}.a4db2684-68fc-415b-8749-1b5c7edc8ce1{fill:#e4e7e9;}.a653700d-f8d0-4dff-a864-e946e4f3a90a{fill:#fdfdfe;}.a1d0c6b9-bace-4c1b-b04f-8646751b1286,.a497ee05-7a61-4060-a7e0-08f40e7f8502,.a60dc8ee-10c4-467b-aa7b-e2afd53fd0ce,.b130157c-d813-49a4-97f3-a774f6242725,.fa4689aa-412a-4d1c-add1-4ee1a5ffaa0e{fill:none;stroke-linecap:round;stroke-miterlimit:10;}.a60dc8ee-10c4-467b-aa7b-e2afd53fd0ce{stroke:#1572b6;}.a497ee05-7a61-4060-a7e0-08f40e7f8502,.a60dc8ee-10c4-467b-aa7b-e2afd53fd0ce,.fa4689aa-412a-4d1c-add1-4ee1a5ffaa0e{stroke-width:5px;}.a32023b6-77ea-4d7e-813c-7eedc73a503a,.bf16d407-2144-4169-9593-4c782c99c718,.f932aedb-cc7b-40f8-98aa-b68ed339d048{fill:#e34f27;}.f6712187-615f-4a49-8fe3-b47c86d007ca{letter-spacing:-0.02em;}.f0024013-f302-4257-aaf4-f13af272f145{fill:#f0662a;}.ef47daad-4ae5-47b8-947d-2b9a219e22f8{fill:#ebe8e7;}.ef1dc994-133e-4dcf-b771-9696862f71db{fill:#ef590c;}.b2344cc8-85f1-41d5-b118-3d71e62fbdc9{fill:#fefdfc;}.a84b6a14-6d26-4dfa-aeae-9d12b8c84121{fill:#fefdfd;}.a652a5b6-bd82-47a2-b275-46228ef12362,.bdd2dc3a-e211-4728-aca7-22287a0b3773{fill:#8692c1;}.bdc402d4-632e-4776-93b9-c652e8708dbb{letter-spacing:-0.01em;}.fc516850-2eca-4afb-a4b8-889529c988c2{letter-spacing:-0.03em;}.a5d1b348-ef5e-474b-b4bd-0f04e8b187ec{fill:#232633;}.fa4689aa-412a-4d1c-add1-4ee1a5ffaa0e{stroke:#e34f27;}.a1d0c6b9-bace-4c1b-b04f-8646751b1286,.a497ee05-7a61-4060-a7e0-08f40e7f8502{stroke:#8692c1;}.a1d0c6b9-bace-4c1b-b04f-8646751b1286,.b130157c-d813-49a4-97f3-a774f6242725{stroke-width:2px;}.bfef54b9-4ef3-4cb9-9efe-83dc034f63eb,.e718c895-65f3-4aa4-b102-aa4c3ea45bb8{fill:#efa001;}.f2ab79a2-fe05-406d-915c-b2d865bb3888{letter-spacing:-0.02em;}.a8a07e75-a0e7-4d2d-a55b-b0eaf9b12d8a{letter-spacing:-0.02em;}.f838576e-e831-49c4-aa1b-92f543130215{letter-spacing:0em;}.ac18ba6f-1412-4598-8af5-24795b2c22d8{letter-spacing:0.04em;}.b994d08c-b044-441d-a251-2c41e0f4e123{fill:#f9bd01;}.e0846681-93c5-42db-aed0-2249094f25c8{fill:#ebebea;}.ff72daf6-2596-456d-bbe3-6f05f42358ee{fill:#fefefd;}.b4af89de-7b56-4c7c-80f4-d441898ec318,.e01d2493-e1db-406f-a340-82297ab81c26,.f932aedb-cc7b-40f8-98aa-b68ed339d048{font-size:12px;font-family:SourceSansPro-Regular, Source Sans Pro;}.bbd96ef6-5890-4fd9-b7e9-0f3e1b8b3b1c{letter-spacing:-0.01em;}.e35510c1-36ae-4d36-b635-7174a28c6511{letter-spacing:-0.01em;}.e03d57e1-4c15-4f07-9b54-34637436cbc0{letter-spacing:-0.02em;}.a3afa9db-a7cd-43e1-8d7f-de8f44696e82{letter-spacing:0em;}.a9cafc42-867e-4175-a9d8-bf0b6b10bdaf{letter-spacing:0em;}.e01d2493-e1db-406f-a340-82297ab81c26{fill:#5f6ea0;}.b625aa4e-e07d-40c5-b393-201da652016a{letter-spacing:-0.01em;}.f4a24fef-a6f9-4103-af76-e1d26e59d2f7{letter-spacing:-0.02em;}.f9c09378-ae41-4512-9db8-a008c81ec7c3{letter-spacing:-0.02em;}.ab9aa78e-7ca8-4c57-97be-df8f09114e59{letter-spacing:-0.01em;}.ae0042d7-b42f-4052-8591-3963a04d2fa7{letter-spacing:0em;}.f22aa6a6-d343-4bbd-bea6-6156b5d2149e{letter-spacing:-0.02em;}.bed17a99-41e6-4b0f-9496-3e1c0387a6a4{letter-spacing:-0.01em;}.a998dcfd-c04c-4f32-9297-b73ad90d0a84{letter-spacing:-0.02em;}.fd797dca-78b7-4723-b977-2354fbd5f50d{letter-spacing:-0.02em;}.b130157c-d813-49a4-97f3-a774f6242725{stroke:#000;}</style></defs><title>_</title><text class="fb0a6c66-27d8-4f3a-924f-fd8a2c378184" transform="translate(48.12 311.62)"><tspan class="a6c82a0e-88b2-45c5-ad0d-392f1e962159">s</tspan><tspan class="e5b94cab-518b-4e6d-91a4-99125285b56b" x="7.61" y="0">tyle</tspan><tspan class="f26ec75b-0ec3-48e7-a452-506dc6802b28" x="38.36" y="0">.</tspan><tspan x="43.58" y="0">css</tspan></text><path class="bdd48f4a-1594-43b6-88b1-40ed010b0d7e" d="M78.94,246.11c4.86,0,9.73,0,14.59,0,.75,0,.86.24.8.9Q93.15,260,92,273c-.12,1.33-.26,2.65-.36,4a.78.78,0,0,1-.7.84q-5.82,1.57-11.62,3.22a1.48,1.48,0,0,1-.86,0c-3.81-1.06-7.63-2.13-11.45-3.16a.9.9,0,0,1-.79-1Q65.17,265,64.09,253.09c-.18-2.07-.34-4.13-.55-6.2-.06-.6.07-.8.72-.8C69.16,246.12,74.05,246.11,78.94,246.11Zm-.26,14-3.72,0c-.37,0-.62,0-.57.52.1,1,.16,1.94.23,2.91,0,.47.35.46.69.46l3.54,0v6.07l-2.48-.65c-1.66-.45-1.66-.46-1.85-2.11a7.79,7.79,0,0,1-.12-1c0-.39-.18-.5-.54-.49-.92,0-1.84,0-2.75,0-.54,0-.65.18-.6.67.15,1.56.31,3.12.41,4.68a1,1,0,0,0,.87,1c2.36.64,4.71,1.32,7.07,2v3.2c0,1.11,0,1.1,1,.81,2.58-.73,5.17-1.46,7.76-2.17,1.65-.45,1.61-.44,1.69-2.13s.24-3.47.39-5.21c.21-2.37.46-4.74.67-7.12.15-1.55.26-3.11.4-4.67.22-2.43.44-4.86.68-7.3.06-.62-.1-.89-.81-.89-3.67,0-7.35,0-11,0-.62,0-.81.18-.82.8a6.69,6.69,0,0,1-.16,2.71c-2.9,0-5.79,0-8.69,0-.58,0-.79.14-.7.74a16,16,0,0,1,.23,2.38c0,.7.32.8.93.79,2.8,0,5.61,0,8.42,0,0,.37,0,.75,0,1.13A8.22,8.22,0,0,1,78.68,260.11Z"/><path class="e35b4de1-c73a-4324-ae9a-bee5d8f6e9cc" d="M78.68,252.27a6.69,6.69,0,0,0,.16-2.71c0-.62.2-.81.82-.8,3.67,0,7.35,0,11,0,.71,0,.87.27.81.89-.24,2.44-.46,4.87-.68,7.3-.14,1.56-.25,3.12-.4,4.67-.21,2.38-.46,4.75-.67,7.12-.15,1.74-.3,3.47-.39,5.21s0,1.68-1.69,2.13c-2.59.71-5.18,1.44-7.76,2.17-1,.29-1,.3-1-.81v-3.2l.18-.08c2.26-.62,4.5-1.29,6.77-1.82A1.36,1.36,0,0,0,87,270.84c.19-2.57.44-5.13.67-7.7.3-3.39.6-6.78.92-10.17,0-.49-.07-.68-.6-.67-3,0-6,0-9,0Z"/><path class="f6b6a8a2-80d6-4c35-a05b-fafebb0514c1" d="M79,274.15l-.18.08c-2.36-.67-4.71-1.35-7.07-2a1,1,0,0,1-.87-1c-.1-1.56-.26-3.12-.41-4.68-.05-.49.06-.69.6-.67.91,0,1.83,0,2.75,0,.36,0,.54.1.54.49a7.79,7.79,0,0,0,.12,1c.19,1.65.19,1.66,1.85,2.11l2.48.65.18.05Z"/><path class="a4db2684-68fc-415b-8749-1b5c7edc8ce1" d="M78.68,252.27l.35.07c0,1.26,0,2.52,0,3.79l-.17.1c-2.81,0-5.62,0-8.42,0-.61,0-.92-.09-.93-.79a16,16,0,0,0-.23-2.38c-.09-.6.12-.74.7-.74C72.89,252.31,75.78,252.28,78.68,252.27Z"/><path class="e35b4de1-c73a-4324-ae9a-bee5d8f6e9cc" d="M79,270.17l-.18-.05v-6.19A30.56,30.56,0,0,0,83,264c.48,0,.7.12.64.65-.14,1.32-.26,2.65-.36,4,0,.41-.32.44-.6.52Z"/><path class="e35b4de1-c73a-4324-ae9a-bee5d8f6e9cc" d="M78.87,256.23l.17-.1c1.54,0,3.08.07,4.62.05.6,0,.77.18.7.76-.11.82-.17,1.65-.23,2.48,0,.54-.24.75-.82.74-1.49,0-3,0-4.45,0l-.18-.07a8.22,8.22,0,0,0,.17-2.75C78.89,257,78.86,256.6,78.87,256.23Z"/><path class="a4db2684-68fc-415b-8749-1b5c7edc8ce1" d="M78.68,260.11l.18.07a8.94,8.94,0,0,1,0,3.75v.12l-3.54,0c-.34,0-.66,0-.69-.46-.07-1-.13-1.94-.23-2.91,0-.49.2-.52.57-.52Z"/><path class="a653700d-f8d0-4dff-a864-e946e4f3a90a" d="M78.85,263.93a8.94,8.94,0,0,0,0-3.75c1.48,0,3-.06,4.45,0,.58,0,.79-.2.82-.74.06-.83.12-1.66.23-2.48.07-.58-.1-.77-.7-.76-1.54,0-3.08,0-4.62-.05,0-1.27,0-2.53,0-3.79,3,0,6,0,9,0,.53,0,.65.18.6.67-.32,3.39-.62,6.78-.92,10.17-.23,2.57-.48,5.13-.67,7.7a1.36,1.36,0,0,1-1.21,1.49c-2.27.53-4.51,1.2-6.77,1.82,0-1.33,0-2.65,0-4l3.67-1c.28-.08.57-.11.6-.52.1-1.33.22-2.66.36-4,.06-.53-.16-.64-.64-.65A30.56,30.56,0,0,1,78.85,263.93Z"/><path class="bdd48f4a-1594-43b6-88b1-40ed010b0d7e" d="M105.34,289.39H52.53c-3.37-1.22-4.43-3.72-4.41-7.17q.1-28,0-56c0-3.45,1-5.94,4.41-7.16H87.84c4.63.82,8.1,3.48,11.17,6.87,1.92,2.12,4,4.07,6,6.08a15.12,15.12,0,0,1,4.65,11.18c0,13,0,26,0,39C109.78,285.67,108.71,288.17,105.34,289.39ZM87.78,223.62a13.57,13.57,0,0,0-1.43-.14c-10.67,0-21.34,0-32,0-1.37,0-1.82.6-1.81,1.9,0,3.64,0,7.28,0,10.93q0,23.26,0,46.53c0,1.3.13,2.22,1.8,2.22q24.62,0,49.21,0c1.24,0,1.81-.45,1.81-1.73q0-20.46,0-40.92c0-1.09-.38-1.41-1.46-1.4-4.79.05-9.58,0-14.37,0H87.78Zm15,13L92.2,225.92v10.69Z"/><path class="a60dc8ee-10c4-467b-aa7b-e2afd53fd0ce" d="M29.47,71.59C18.3,86.75,6.06,114,6.06,153.48c0,60.91,19,84.08,31,95.37"/><polygon class="bdd48f4a-1594-43b6-88b1-40ed010b0d7e" points="18.18 65.98 42.05 58.8 36.34 83.07 18.18 65.98"/><text class="a32023b6-77ea-4d7e-813c-7eedc73a503a" transform="translate(38.99 119.34)">ind<tspan class="f6712187-615f-4a49-8fe3-b47c86d007ca" x="25.58" y="0">ex</tspan><tspan x="43.58" y="0">.php</tspan></text><path class="bf16d407-2144-4169-9593-4c782c99c718" d="M78.86,47.64H93.28c1.08,0,1.12,0,1,1.08L92.72,66.53q-.54,6-1.07,12c0,.5-.24.69-.72.82Q85.16,81,79.39,82.59a1.67,1.67,0,0,1-.94,0c-3.84-1.08-7.69-2.16-11.54-3.2a.8.8,0,0,1-.69-.85q-.81-9.44-1.65-18.87c-.32-3.63-.66-7.26-1-10.89-.11-1.14-.12-1.14,1.06-1.14Zm0,18.36,0,5.91c-1-.1-1.82-.52-2.75-.68s-1.79-.5-1.58-1.78a7.57,7.57,0,0,0-.11-1.14c0-.44-.18-.56-.59-.55-.89,0-1.78,0-2.67,0-.57,0-.71.17-.65.71.16,1.53.3,3.07.4,4.61,0,.6.29.83.88,1,2.37.62,4.73,1.31,7.09,2,0,1,0,2,0,2.94s.25,1,1.09.81L82.75,79c1.8-.49,3.6-1,5.38-1.48.37-.11,1-.12,1-.68.15-1.2.27-2.41.37-3.61.14-1.62.24-3.24.38-4.85.22-2.53.47-5,.69-7.57.14-1.56.26-3.12.41-4.67s.32-3.35.49-5c.06-.6-.15-.83-.79-.82q-5.47,0-10.95,0c-.67,0-.91.29-.91.9,0,.89,0,1.78,0,2.67H70.14c-.3,0-.66-.14-.89.21q.52,5.86,1.06,11.72c.26.3.61.17.91.17C73.77,66,76.31,66,78.86,66Z"/><path class="f0024013-f302-4257-aaf4-f13af272f145" d="M78.86,53.87c0-.89,0-1.78,0-2.67,0-.61.24-.91.91-.9q5.47,0,10.95,0c.64,0,.85.22.79.82-.17,1.67-.34,3.34-.49,5s-.27,3.11-.41,4.67c-.22,2.52-.47,5-.69,7.57-.14,1.61-.24,3.23-.38,4.85-.1,1.2-.22,2.41-.37,3.61-.07.56-.66.57-1,.68-1.78.53-3.58,1-5.38,1.48l-2.81.79c-.84.23-1.08.06-1.09-.81s0-2,0-2.94V76a1.54,1.54,0,0,0,.43,0c2.37-.65,4.72-1.32,7.09-2,.45-.12.51-.39.55-.77.27-3.18.58-6.36.82-9.54.05-.59.4-1.2,0-1.79-.26-.29-.61-.17-.92-.17h-8V58l0-.06c3,0,5.94,0,8.9,0,.43,0,.57-.15.58-.56,0-.86.13-1.71.19-2.57l.06-.26c.05-.2.12-.4-.1-.54s-.62-.17-.93-.17Z"/><path class="ef47daad-4ae5-47b8-947d-2b9a219e22f8" d="M70.31,65.81q-.54-5.87-1.06-11.72l9.61,0,0,3.83,0,.06c-1.59,0-3.18,0-4.78,0-.45,0-.63.11-.57.6.14,1,.24,2.1.35,3.16.18.37.52.18.78.19,1.4,0,2.81,0,4.22,0v3.83Z"/><path class="ef47daad-4ae5-47b8-947d-2b9a219e22f8" d="M78.86,76c-2.36-.67-4.72-1.36-7.09-2-.59-.16-.84-.39-.88-1-.1-1.54-.24-3.08-.4-4.61-.06-.54.08-.74.65-.71.89,0,1.78,0,2.67,0,.41,0,.59.11.59.55a7.57,7.57,0,0,1,.11,1.14c-.21,1.28.55,1.6,1.58,1.78s1.8.58,2.75.68a.59.59,0,0,0,0,.13c0,1.3,0,2.61,0,3.91Z"/><path class="f0024013-f302-4257-aaf4-f13af272f145" d="M78.86,72a.59.59,0,0,1,0-.13c0-2,0-3.94,0-5.91h4.78c-.12,1.46-.25,2.93-.34,4.39,0,.43-.29.52-.62.6Z"/><path class="ef1dc994-133e-4dcf-b771-9696862f71db" d="M78.86,54.11l-9.61,0c.23-.35.59-.21.89-.21h17.4c.31,0,.66-.12.93.17Z"/><path class="ef1dc994-133e-4dcf-b771-9696862f71db" d="M83.64,66H78.86c-2.55,0-5.09,0-7.64,0-.3,0-.65.13-.91-.17l8.55,0c1.27,0,2.54,0,3.81,0C83,65.83,83.37,65.64,83.64,66Z"/><path class="b2344cc8-85f1-41d5-b118-3d71e62fbdc9" d="M83.64,66c-.27-.35-.65-.16-1-.17-1.27,0-2.54,0-3.81,0V62l8.89-.06c.39.59,0,1.2,0,1.79-.24,3.18-.55,6.36-.82,9.54,0,.38-.1.65-.55.77-2.37.63-4.72,1.3-7.09,2a1.54,1.54,0,0,1-.43,0c0-1.3,0-2.61,0-3.91L82.68,71c.33-.08.59-.17.62-.6C83.39,68.92,83.52,67.45,83.64,66Z"/><path class="a84b6a14-6d26-4dfa-aeae-9d12b8c84121" d="M78.86,54.11l9.61-.06c.22.14.15.34.1.54l-.06.26c-.06.86-.15,1.71-.19,2.57,0,.41-.15.56-.58.56-3,0-5.93,0-8.9,0C78.85,56.66,78.85,55.39,78.86,54.11Z"/><path class="bf16d407-2144-4169-9593-4c782c99c718" d="M73.86,61.72c-.11-1.06-.21-2.11-.35-3.16-.06-.49.12-.61.57-.6,1.6,0,3.19,0,4.78,0v3.71Z"/><path class="ef1dc994-133e-4dcf-b771-9696862f71db" d="M73.86,61.72h13c.31,0,.66-.12.92.17L78.86,62c-1.41,0-2.82,0-4.22,0C74.38,61.9,74,62.09,73.86,61.72Z"/><path class="ef47daad-4ae5-47b8-947d-2b9a219e22f8" d="M88.51,54.85l.06-.26Z"/><path class="bf16d407-2144-4169-9593-4c782c99c718" d="M105.34,92.39H52.53c-3.37-1.22-4.43-3.72-4.41-7.17q.1-28,0-56c0-3.45,1-5.94,4.41-7.16H87.84c4.63.82,8.1,3.48,11.17,6.87,1.92,2.12,4,4.07,6,6.08a15.12,15.12,0,0,1,4.65,11.18c0,13,0,26,0,39C109.78,88.67,108.71,91.17,105.34,92.39ZM87.78,26.62a13.57,13.57,0,0,0-1.43-.14c-10.67,0-21.34,0-32,0-1.37,0-1.82.6-1.81,1.9,0,3.64,0,7.28,0,10.93q0,23.27,0,46.53c0,1.3.13,2.22,1.8,2.22q24.62,0,49.21,0c1.24,0,1.81-.45,1.81-1.73q0-20.46,0-40.92c0-1.09-.38-1.41-1.46-1.4-4.79.05-9.58,0-14.37,0H87.78Zm15,13L92.2,28.92V39.61Z"/><text class="bdd2dc3a-e211-4728-aca7-22287a0b3773" transform="translate(350.33 120.67)"><tspan class="bdc402d4-632e-4776-93b9-c652e8708dbb">b</tspan><tspan x="10.12" y="0">ac</tspan><tspan class="fc516850-2eca-4afb-a4b8-889529c988c2" x="28.01" y="0">k</tspan><tspan x="37.37" y="0">end.php</tspan></text><path class="a652a5b6-bd82-47a2-b275-46228ef12362" d="M378.5,52.48h5.3c.13.18.32.11.49.13a32.66,32.66,0,0,1,8.46,1.74A20.09,20.09,0,0,1,398,57.06a9.54,9.54,0,0,1,3.67,5.09v2.12c-.16.08-.17.25-.21.39a7.2,7.2,0,0,1-1.65,2.92,15.82,15.82,0,0,1-6.76,4.25,36.34,36.34,0,0,1-19.39,1.25,23.06,23.06,0,0,1-9.47-3.89A9.52,9.52,0,0,1,361,65.36c-.16-.36-.14-.79-.44-1.09V62a.35.35,0,0,0,.13-.14,9.57,9.57,0,0,1,4.58-5.52,26.83,26.83,0,0,1,10.33-3.49A22.86,22.86,0,0,0,378.5,52.48Zm11.85,5.62c-.75,0-1.5,0-2.25,0-.47,0-.68.12-.74.59s-.22,1.13-.33,1.69c-.56,2.86-1.11,5.72-1.69,8.57-.1.45,0,.54.43.52s1.11,0,1.66,0c.35,0,.51-.1.56-.45.09-.64.24-1.26.34-1.89.07-.43.21-.66.71-.61.66,0,1.33,0,2,0A4.94,4.94,0,0,0,396,62.46c.53-2.75-.75-4.32-3.56-4.36Zm-18.87,0v0c-.77,0-1.54,0-2.32,0-.4,0-.56.11-.64.54q-1,5.16-2,10.31c-.09.43,0,.55.44.53s1.11,0,1.66,0c.34,0,.51-.07.56-.45.09-.67.26-1.34.37-2,.06-.34.19-.5.56-.48.66,0,1.33,0,2,0a5,5,0,0,0,5.09-4.27c.42-2.43-.69-3.92-3.14-4.12C373.17,58.07,372.32,58.13,371.48,58.13Zm12.46,8.4a7,7,0,0,1,.93,0c.44.06.58-.16.64-.54.27-1.65.48-3.32.85-5s-.59-2.64-2.17-2.88a17.08,17.08,0,0,0-2.58-.07c-.39,0-.58-.09-.47-.53s.15-.78.23-1.17c.26-1.26.26-1.26-1-1.26-.31,0-.62,0-.93,0s-.53.1-.6.49c-.29,1.6-.62,3.2-.94,4.8-.37,1.84-.73,3.68-1.11,5.51-.1.48,0,.63.51.6a11,11,0,0,1,1.52,0c.41,0,.57-.12.65-.54.32-1.75.7-3.5,1-5.25.08-.43.25-.6.69-.57s1,0,1.46,0c.9,0,1.1.26.93,1.13l-.72,3.84c-.08.43-.35,1-.17,1.26S383.56,66.48,383.94,66.53Z"/><path class="a5d1b348-ef5e-474b-b4bd-0f04e8b187ec" d="M390.35,58.1h2c2.81,0,4.09,1.61,3.56,4.36A4.94,4.94,0,0,1,391,66.53c-.66,0-1.33,0-2,0-.5,0-.64.18-.71.61-.1.63-.25,1.25-.34,1.89-.05.35-.21.47-.56.45-.55,0-1.11,0-1.66,0s-.53-.07-.43-.52c.58-2.85,1.13-5.71,1.69-8.57.11-.56.26-1.12.33-1.69s.27-.62.74-.59C388.85,58.12,389.6,58.1,390.35,58.1Zm.61,2.09c-.28,0-.57,0-.85,0s-.39.05-.43.3c-.2,1.19-.39,2.38-.59,3.57,0,.21,0,.35.26.34a5.87,5.87,0,0,0,2.53-.27,2.89,2.89,0,0,0,1.33-2.93c-.14-.7-.76-1-2-1Z"/><path class="a5d1b348-ef5e-474b-b4bd-0f04e8b187ec" d="M371.48,58.13c.84,0,1.69-.06,2.52,0,2.45.2,3.56,1.69,3.14,4.12a5,5,0,0,1-5.09,4.27c-.66,0-1.33,0-2,0-.37,0-.5.14-.56.48-.11.67-.28,1.34-.37,2-.05.38-.22.47-.56.45-.55,0-1.11,0-1.66,0s-.53-.1-.44-.53q1-5.14,2-10.31c.08-.43.24-.55.64-.54.78,0,1.55,0,2.32,0Zm.61,2.06a3.53,3.53,0,0,1-.46,0c-.55-.08-.85.07-.89.7s-.23,1.17-.28,1.76-.53,1.37-.07,1.68,1.24.12,1.87,0a2.58,2.58,0,0,0,2.13-3C374.32,60.51,373.7,60.19,372.09,60.19Z"/><path class="a5d1b348-ef5e-474b-b4bd-0f04e8b187ec" d="M383.94,66.53c-.38,0-1,.21-1.25-.11s.09-.83.17-1.26l.72-3.84c.17-.87,0-1.11-.93-1.13-.49,0-1,0-1.46,0s-.61.14-.69.57c-.33,1.75-.71,3.5-1,5.25-.08.42-.24.56-.65.54a11,11,0,0,0-1.52,0c-.48,0-.61-.12-.51-.6.38-1.83.74-3.67,1.11-5.51.32-1.6.65-3.2.94-4.8.07-.39.22-.53.6-.49s.62,0,.93,0c1.26,0,1.26,0,1,1.26-.08.39-.13.79-.23,1.17s.08.53.47.53a17.08,17.08,0,0,1,2.58.07c1.58.24,2.55,1.2,2.17,2.88s-.58,3.3-.85,5c-.06.38-.2.6-.64.54A7,7,0,0,0,383.94,66.53Z"/><path class="a652a5b6-bd82-47a2-b275-46228ef12362" d="M391,60.19h.2c1.29,0,1.91.31,2,1a2.89,2.89,0,0,1-1.33,2.93,5.87,5.87,0,0,1-2.53.27c-.25,0-.29-.13-.26-.34.2-1.19.39-2.38.59-3.57,0-.25.2-.31.43-.3S390.68,60.19,391,60.19Z"/><path class="a652a5b6-bd82-47a2-b275-46228ef12362" d="M372.09,60.19c1.61,0,2.23.32,2.3,1.2a2.58,2.58,0,0,1-2.13,3c-.63.1-1.43.27-1.87,0s0-1.1.07-1.68.25-1.17.28-1.76.34-.78.89-.7A3.53,3.53,0,0,0,372.09,60.19Z"/><path class="a652a5b6-bd82-47a2-b275-46228ef12362" d="M407.55,92.39H354.74c-3.37-1.22-4.42-3.72-4.41-7.17q.12-28,0-56c0-3.45,1-5.94,4.41-7.16h35.31c4.63.82,8.11,3.48,11.18,6.87,1.92,2.12,4,4.07,6,6.08a15.16,15.16,0,0,1,4.65,11.18c0,13-.06,26,0,39C412,88.67,410.93,91.17,407.55,92.39ZM390,26.62a13.41,13.41,0,0,0-1.42-.14c-10.67,0-21.35,0-32,0-1.38,0-1.83.6-1.81,1.9,0,3.64,0,7.28,0,10.93q0,23.27,0,46.53c0,1.3.12,2.22,1.8,2.22q24.6,0,49.2,0c1.24,0,1.82-.45,1.82-1.73q0-20.46,0-40.92c0-1.09-.37-1.41-1.45-1.4-4.79.05-9.58,0-14.37,0H390Zm15,13L394.42,28.92V39.61Z"/><line class="fa4689aa-412a-4d1c-add1-4ee1a5ffaa0e" x1="326.84" y1="52.22" x2="277.76" y2="52.22"/><polygon class="bf16d407-2144-4169-9593-4c782c99c718" points="320.61 39.76 342.2 52.22 320.61 64.69 320.61 39.76"/><line class="a1d0c6b9-bace-4c1b-b04f-8646751b1286" x1="423.03" y1="220.48" x2="423.03" y2="160.19"/><polygon class="a652a5b6-bd82-47a2-b275-46228ef12362" points="428.01 216.42 423.03 225.06 418.04 216.42 428.01 216.42"/><line class="a1d0c6b9-bace-4c1b-b04f-8646751b1286" x1="433.03" y1="166.07" x2="433.03" y2="226.35"/><polygon class="a652a5b6-bd82-47a2-b275-46228ef12362" points="428.04 170.12 433.02 161.48 438.01 170.12 428.04 170.12"/><line class="a497ee05-7a61-4060-a7e0-08f40e7f8502" x1="288.34" y1="73.94" x2="331.1" y2="73.94"/><polygon class="a652a5b6-bd82-47a2-b275-46228ef12362" points="294.32 86.4 272.73 73.94 294.32 61.47 294.32 86.4"/><line class="fa4689aa-412a-4d1c-add1-4ee1a5ffaa0e" x1="171.84" y1="52.22" x2="122.76" y2="52.22"/><polygon class="bf16d407-2144-4169-9593-4c782c99c718" points="165.61 39.76 187.2 52.22 165.61 64.69 165.61 39.76"/><line class="a497ee05-7a61-4060-a7e0-08f40e7f8502" x1="133.34" y1="73.94" x2="176.1" y2="73.94"/><polygon class="a652a5b6-bd82-47a2-b275-46228ef12362" points="139.32 86.4 117.73 73.94 139.32 61.47 139.32 86.4"/><text class="bfef54b9-4ef3-4cb9-9efe-83dc034f63eb" transform="translate(199.22 120.62)"><tspan class="f2ab79a2-fe05-406d-915c-b2d865bb3888">v</tspan><tspan x="9.05" y="0">alid</tspan><tspan class="a8a07e75-a0e7-4d2d-a55b-b0eaf9b12d8a" x="38.97" y="0">at</tspan><tspan x="54.7" y="0">e</tspan><tspan class="a8a07e75-a0e7-4d2d-a55b-b0eaf9b12d8a" x="64.03" y="0">F</tspan><tspan class="f838576e-e831-49c4-aa1b-92f543130215" x="73.13" y="0">orm</tspan><tspan class="ac18ba6f-1412-4598-8af5-24795b2c22d8" x="105.71" y="0">.</tspan><tspan x="111.76" y="0">js</tspan></text><path class="e718c895-65f3-4aa4-b102-aa4c3ea45bb8" d="M256.45,92.39H203.63c-3.37-1.22-4.42-3.72-4.41-7.17q.12-28,0-56c0-3.45,1-5.94,4.41-7.16H239c4.62.82,8.1,3.48,11.17,6.87,1.92,2.12,4,4.07,6.05,6.08a15.12,15.12,0,0,1,4.65,11.18c0,13-.06,26,0,39C260.88,88.67,259.82,91.17,256.45,92.39ZM238.88,26.62a13.41,13.41,0,0,0-1.42-.14c-10.67,0-21.35,0-32,0-1.37,0-1.83.6-1.81,1.9,0,3.64,0,7.28,0,10.93q0,23.27,0,46.53c0,1.3.13,2.22,1.8,2.22q24.6,0,49.21,0c1.23,0,1.81-.45,1.81-1.73q0-20.46,0-40.92c0-1.09-.37-1.41-1.45-1.4-4.79.05-9.58,0-14.37,0h-1.75Zm15,13L243.31,28.92V39.61Z"/><path class="e718c895-65f3-4aa4-b102-aa4c3ea45bb8" d="M215.15,50v-.93h30a1,1,0,0,1,.64.1v.72c-.1,0-.09.13-.1.21q-.26,2.78-.5,5.53c-.32,3.66-.64,7.31-1,11-.39,4.42-.8,8.84-1.18,13.27a.61.61,0,0,1-.54.64q-5.85,1.61-11.68,3.24a1.49,1.49,0,0,1-.81,0c-1.07-.31-2.14-.6-3.21-.89l-8.47-2.36c-.22-.06-.43-.08-.46-.42-.18-2.26-.4-4.51-.6-6.77-.29-3.26-.57-6.52-.86-9.78-.34-3.74-.66-7.48-1-11.22A8.91,8.91,0,0,0,215.15,50ZM230.5,67.12v6l-.1.06c-1.25-.34-2.5-.7-3.75-1a.57.57,0,0,1-.51-.62c0-.74-.13-1.47-.18-2.21,0-.29-.13-.37-.4-.36-1.05,0-2.1,0-3.14,0-.36,0-.39.15-.36.43.17,1.77.33,3.55.49,5.32,0,.22.08.33.3.39l7.52,2.06.13.06c0,1.16,0,2.33,0,3.5,0,.3,0,.43.41.33l9.3-2.58c.33-.09.49-.26.48-.56a14,14,0,0,1,.13-1.58c0-.9.13-1.81.21-2.71.13-1.35.27-2.71.39-4.07s.21-2.62.33-3.93.27-2.68.39-4,.2-2.79.33-4.18c.15-1.72.32-3.43.5-5.15,0-.45-.08-.62-.58-.62-3.5,0-7,0-10.5,0-1.4,0-1.4,0-1.38,1.4l-.56,0c-2,0-4,0-6,0-.48,0-.72.06-.71.62a15,15,0,0,1-.16,1.63c-.34,3.76-.67,7.52-1,11.27,0,.4.07.49.46.49,2.16,0,4.32,0,6.48,0a7.16,7.16,0,0,0,1.39,0Z"/><path class="b994d08c-b044-441d-a251-2c41e0f4e123" d="M230.5,53.08c0-1.4,0-1.4,1.38-1.4,3.5,0,7,0,10.5,0,.5,0,.63.17.58.62-.18,1.72-.35,3.43-.5,5.15-.13,1.39-.21,2.79-.33,4.18s-.27,2.68-.39,4-.21,2.62-.33,3.93-.26,2.72-.39,4.07c-.08.9-.17,1.81-.21,2.71a14,14,0,0,0-.13,1.58c0,.3-.15.47-.48.56l-9.3,2.58c-.37.1-.41,0-.41-.33,0-1.17,0-2.34,0-3.5a1.62,1.62,0,0,1,.28-.11l6-1.67a3.5,3.5,0,0,0,1.4-.44c.36-.33.19-1,.24-1.47.3-3.26.59-6.52.9-9.77,0-.45-.06-.57-.53-.57-2.77,0-5.55,0-8.32,0V57.13c1.4.07,2.8.16,4.21.21.36,0,.46.14.49.47.07,1,.18,2,.26,3.07,0,.32.08.49.47.48,1,0,2.05,0,3.08,0,.31,0,.39-.11.36-.39q-.12-1.12-.21-2.25l-.45-5.17c0-.25,0-.45-.39-.45l-7.81,0Z"/><path class="e0846681-93c5-42db-aed0-2249094f25c8" d="M230.4,67.06a7.16,7.16,0,0,1-1.39,0c-2.16,0-4.32,0-6.48,0-.39,0-.49-.09-.46-.49.36-3.75.69-7.51,1-11.27a15,15,0,0,0,.16-1.63c0-.56.23-.63.71-.62,2,0,4,0,6,0l.56,0v.05c0,1.33,0,2.67,0,4v0c-1.08,0-2.16.07-3.24.07-.35,0-.45.1-.48.45-.14,1.71-.29,3.42-.47,5.12,0,.36.05.43.38.43,1.24,0,2.47,0,3.71,0Z"/><path class="ff72daf6-2596-456d-bbe3-6f05f42358ee" d="M230.4,67.06V63.24l.1,0c2.77,0,5.55,0,8.32,0,.47,0,.57.12.53.57-.31,3.25-.6,6.51-.9,9.77,0,.5.12,1.14-.24,1.47a3.5,3.5,0,0,1-1.4.44l-6,1.67a1.62,1.62,0,0,0-.28.11l-.13-.06,0-4,.1-.06,4-1c.18,0,.26-.12.27-.3.13-1.45.27-2.9.4-4.35,0-.25,0-.37-.32-.37l-4.31,0Z"/><path class="e0846681-93c5-42db-aed0-2249094f25c8" d="M230.4,73.21l0,4-7.52-2.06c-.22-.06-.28-.17-.3-.39-.16-1.77-.32-3.55-.49-5.32,0-.28,0-.44.36-.43,1,0,2.09,0,3.14,0,.27,0,.39.07.4.36,0,.74.16,1.47.18,2.21a.57.57,0,0,0,.51.62C227.9,72.51,229.15,72.87,230.4,73.21Z"/><path class="b994d08c-b044-441d-a251-2c41e0f4e123" d="M230.5,67.12l4.31,0c.29,0,.35.12.32.37-.13,1.45-.27,2.9-.4,4.35,0,.18-.09.25-.27.3l-4,1Z"/><path class="ff72daf6-2596-456d-bbe3-6f05f42358ee" d="M230.49,57.13c0-1.33,0-2.67,0-4l7.81,0c.36,0,.37.2.39.45l.45,5.17q.09,1.13.21,2.25c0,.28-.05.4-.36.39-1,0-2.06,0-3.08,0-.39,0-.45-.16-.47-.48-.08-1-.19-2-.26-3.07,0-.33-.13-.46-.49-.47C233.29,57.29,231.89,57.2,230.49,57.13Z"/><path class="e718c895-65f3-4aa4-b102-aa4c3ea45bb8" d="M230.5,63.21l-.1,0c-1.24,0-2.47,0-3.71,0-.33,0-.42-.07-.38-.43.18-1.7.33-3.41.47-5.12,0-.35.13-.45.48-.45,1.08,0,2.16,0,3.24-.07Z"/><text class="f932aedb-cc7b-40f8-98aa-b68ed339d048" transform="translate(350.33 141.4)">• c<tspan class="bbd96ef6-5890-4fd9-b7e9-0f3e1b8b3b1c" x="11.52" y="0">r</tspan><tspan class="e35510c1-36ae-4d36-b635-7174a28c6511" x="15.56" y="0">e</tspan><tspan x="21.35" y="0">a/bor</tspan><tspan class="e03d57e1-4c15-4f07-9b54-34637436cbc0" x="48.9" y="0">r</tspan><tspan x="52.78" y="0">a a</tspan><tspan class="bbd96ef6-5890-4fd9-b7e9-0f3e1b8b3b1c" x="67.27" y="0">r</tspan><tspan class="a3afa9db-a7cd-43e1-8d7f-de8f44696e82" x="71.31" y="0">chi</tspan><tspan class="a9cafc42-867e-4175-a9d8-bf0b6b10bdaf" x="86.27" y="0">v</tspan><tspan x="91.82" y="0">os</tspan></text><text class="e01d2493-e1db-406f-a340-82297ab81c26" transform="translate(350.33 155.4)">• c<tspan class="bbd96ef6-5890-4fd9-b7e9-0f3e1b8b3b1c" x="11.52" y="0">r</tspan><tspan class="e35510c1-36ae-4d36-b635-7174a28c6511" x="15.56" y="0">e</tspan><tspan x="21.35" y="0">a </tspan><tspan class="b625aa4e-e07d-40c5-b393-201da652016a" x="29.8" y="0">r</tspan><tspan x="33.84" y="0">espue</tspan><tspan class="f4a24fef-a6f9-4103-af76-e1d26e59d2f7" x="63.96" y="0">s</tspan><tspan class="f9c09378-ae41-4512-9db8-a008c81ec7c3" x="68.75" y="0">t</tspan><tspan x="72.55" y="0">a</tspan></text><text class="f932aedb-cc7b-40f8-98aa-b68ed339d048" transform="translate(199.22 141.4)">1) envía la d<tspan class="e35510c1-36ae-4d36-b635-7174a28c6511" x="59.69" y="0">at</tspan><tspan x="69.46" y="0">os al </tspan><tspan class="e35510c1-36ae-4d36-b635-7174a28c6511" x="94.89" y="0">b</tspan><tspan class="a3afa9db-a7cd-43e1-8d7f-de8f44696e82" x="101.36" y="0">ac</tspan><tspan class="a8a07e75-a0e7-4d2d-a55b-b0eaf9b12d8a" x="112.88" y="0">k</tspan><tspan x="118.61" y="0">end</tspan></text><text class="e01d2493-e1db-406f-a340-82297ab81c26" transform="translate(199.22 160.4)">2) imprime en ind<tspan class="ab9aa78e-7ca8-4c57-97be-df8f09114e59" x="88.07" y="0">e</tspan><tspan x="93.93" y="0">x la</tspan><tspan x="0" y="14.4" xml:space="preserve">     </tspan><tspan class="bbd96ef6-5890-4fd9-b7e9-0f3e1b8b3b1c" x="12" y="14.4">r</tspan><tspan class="ae0042d7-b42f-4052-8591-3963a04d2fa7" x="16.04" y="14.4">espue</tspan><tspan class="f4a24fef-a6f9-4103-af76-e1d26e59d2f7" x="46.16" y="14.4">s</tspan><tspan class="f9c09378-ae41-4512-9db8-a008c81ec7c3" x="50.95" y="14.4">t</tspan><tspan x="54.75" y="14.4" xml:space="preserve">a  del </tspan><tspan class="e35510c1-36ae-4d36-b635-7174a28c6511" x="83.67" y="14.4">b</tspan><tspan x="90.14" y="14.4">ac</tspan><tspan class="f22aa6a6-d343-4bbd-bea6-6156b5d2149e" x="101.66" y="14.4">k</tspan><tspan x="107.39" y="14.4">end</tspan></text><text class="f932aedb-cc7b-40f8-98aa-b68ed339d048" transform="translate(39.33 141.4)">• e<tspan class="f4a24fef-a6f9-4103-af76-e1d26e59d2f7" x="12" y="0">s</tspan><tspan x="16.79" y="0">tru</tspan><tspan class="bed17a99-41e6-4b0f-9496-3e1c0387a6a4" x="31.54" y="0">c</tspan><tspan x="36.89" y="0">tu</tspan><tspan class="a998dcfd-c04c-4f32-9297-b73ad90d0a84" x="47.47" y="0">r</tspan><tspan x="51.35" y="0">a in</tspan><tspan class="bed17a99-41e6-4b0f-9496-3e1c0387a6a4" x="69.31" y="0">f</tspan><tspan x="72.7" y="0">o</tspan></text><text class="b4af89de-7b56-4c7c-80f4-d441898ec318" transform="translate(41.94 334.4)">• e<tspan class="f4a24fef-a6f9-4103-af76-e1d26e59d2f7" x="12" y="0">s</tspan><tspan x="16.79" y="0">tili</tspan><tspan class="fd797dca-78b7-4723-b977-2354fbd5f50d" x="29.81" y="0">z</tspan><tspan x="34.63" y="0">a la in</tspan><tspan class="bbd96ef6-5890-4fd9-b7e9-0f3e1b8b3b1c" x="64.1" y="0">f</tspan><tspan x="67.49" y="0">o</tspan></text><path d="M335.72,291.47H318.9a2.1,2.1,0,0,1-1.4-2.28q0-8.91,0-17.81a2.1,2.1,0,0,1,1.4-2.28h11.25a6.25,6.25,0,0,1,3.55,2.19c.61.67,1.28,1.29,1.93,1.93a4.82,4.82,0,0,1,1.48,3.56c0,4.14,0,8.27,0,12.41A2.09,2.09,0,0,1,335.72,291.47Zm-5.59-20.93c-.2,0-.33-.05-.46-.05H319.48c-.44,0-.58.19-.58.61,0,1.16,0,2.32,0,3.48q0,7.4,0,14.81c0,.41,0,.71.58.71h15.66c.39,0,.58-.14.58-.55q0-6.51,0-13c0-.35-.12-.45-.47-.45-1.52,0-3,0-4.57,0h-.55Zm4.77,4.13-3.37-3.4v3.4Z"/><path d="M366.05,291.47H349.24a2.1,2.1,0,0,1-1.41-2.28q0-8.91,0-17.81a2.1,2.1,0,0,1,1.41-2.28h11.24a6.28,6.28,0,0,1,3.56,2.19c.61.67,1.27,1.29,1.92,1.93a4.82,4.82,0,0,1,1.48,3.56c0,4.14,0,8.27,0,12.41A2.09,2.09,0,0,1,366.05,291.47Zm-5.59-20.93c-.2,0-.32-.05-.45-.05h-10.2c-.43,0-.58.19-.57.61,0,1.16,0,2.32,0,3.48v14.81c0,.41,0,.71.57.71h15.66c.4,0,.58-.14.58-.55q0-6.51,0-13c0-.35-.12-.45-.46-.45-1.53,0-3,0-4.58,0h-.55Zm4.77,4.13-3.36-3.4v3.4Z"/><path d="M396.38,291.47H379.57a2.09,2.09,0,0,1-1.4-2.28q0-8.91,0-17.81a2.09,2.09,0,0,1,1.4-2.28h11.24a6.28,6.28,0,0,1,3.56,2.19c.61.67,1.28,1.29,1.92,1.93a4.79,4.79,0,0,1,1.48,3.56c0,4.14,0,8.27,0,12.41A2.1,2.1,0,0,1,396.38,291.47Zm-5.59-20.93c-.19,0-.32-.05-.45-.05H380.15c-.44,0-.59.19-.58.61,0,1.16,0,2.32,0,3.48,0,4.93,0,9.87,0,14.81,0,.41,0,.71.57.71h15.67c.39,0,.57-.14.57-.55v-13c0-.35-.11-.45-.46-.45-1.52,0-3.05,0-4.57,0h-.56Zm4.78,4.13-3.37-3.4v3.4Z"/><path d="M426.72,291.47H409.9a2.1,2.1,0,0,1-1.4-2.28q0-8.91,0-17.81a2.1,2.1,0,0,1,1.4-2.28h11.25a6.25,6.25,0,0,1,3.55,2.19c.61.67,1.28,1.29,1.93,1.93a4.82,4.82,0,0,1,1.48,3.56c0,4.14,0,8.27,0,12.41A2.09,2.09,0,0,1,426.72,291.47Zm-5.59-20.93c-.2,0-.33-.05-.46-.05H410.48c-.44,0-.58.19-.58.61,0,1.16,0,2.32,0,3.48q0,7.4,0,14.81c0,.41,0,.71.58.71h15.66c.39,0,.58-.14.58-.55q0-6.51,0-13c0-.35-.12-.45-.47-.45-1.52,0-3,0-4.57,0h-.55Zm4.77,4.13-3.37-3.4v3.4Z"/><rect class="b130157c-d813-49a4-97f3-a774f6242725" x="306.56" y="231.35" width="131" height="93"/><path d="M335.71,262.14H318.9a2.08,2.08,0,0,1-1.4-2.28q0-8.9,0-17.81a2.09,2.09,0,0,1,1.4-2.28h11.24A6.24,6.24,0,0,1,333.7,242c.61.67,1.28,1.29,1.93,1.93a4.82,4.82,0,0,1,1.48,3.56c0,4.14,0,8.28,0,12.41A2.08,2.08,0,0,1,335.71,262.14Zm-5.59-20.93c-.19,0-.32-.05-.45-.05H319.48c-.44,0-.58.18-.58.6,0,1.16,0,2.32,0,3.48q0,7.41,0,14.81c0,.41,0,.71.58.71h15.66c.39,0,.58-.15.58-.55q0-6.52,0-13c0-.35-.12-.45-.47-.45-1.52,0-3.05,0-4.57,0h-.56Zm4.78,4.13-3.37-3.4v3.4Z"/><path d="M366.05,262.14H349.24a2.09,2.09,0,0,1-1.41-2.28q0-8.9,0-17.81a2.1,2.1,0,0,1,1.41-2.28h11.24A6.22,6.22,0,0,1,364,242c.61.67,1.28,1.29,1.93,1.93a4.82,4.82,0,0,1,1.48,3.56c0,4.14,0,8.28,0,12.41A2.08,2.08,0,0,1,366.05,262.14Zm-5.59-20.93c-.2,0-.33-.05-.46-.05H349.81c-.44,0-.58.18-.58.6,0,1.16,0,2.32,0,3.48v14.81c0,.41,0,.71.57.71h15.66c.4,0,.58-.15.58-.55q0-6.52,0-13c0-.35-.12-.45-.46-.45-1.53,0-3,0-4.58,0h-.55Zm4.77,4.13-3.36-3.4v3.4Z"/><path d="M396.38,262.14H379.57a2.08,2.08,0,0,1-1.4-2.28q0-8.9,0-17.81a2.09,2.09,0,0,1,1.4-2.28h11.24a6.28,6.28,0,0,1,3.56,2.19c.61.67,1.28,1.29,1.92,1.93a4.79,4.79,0,0,1,1.48,3.56c0,4.14,0,8.28,0,12.41A2.1,2.1,0,0,1,396.38,262.14Zm-5.59-20.93c-.19,0-.32-.05-.45-.05h-10.2c-.43,0-.58.18-.57.6,0,1.16,0,2.32,0,3.48v14.81c0,.41,0,.71.57.71H395.8c.4,0,.58-.15.58-.55v-13c0-.35-.12-.45-.46-.45-1.52,0-3.05,0-4.57,0h-.56Zm4.78,4.13-3.37-3.4v3.4Z"/><path d="M426.71,262.14H409.9a2.08,2.08,0,0,1-1.4-2.28q0-8.9,0-17.81a2.09,2.09,0,0,1,1.4-2.28h11.24A6.24,6.24,0,0,1,424.7,242c.61.67,1.28,1.29,1.93,1.93a4.82,4.82,0,0,1,1.48,3.56c0,4.14,0,8.28,0,12.41A2.08,2.08,0,0,1,426.71,262.14Zm-5.59-20.93c-.19,0-.32-.05-.45-.05H410.48c-.44,0-.58.18-.58.6,0,1.16,0,2.32,0,3.48q0,7.41,0,14.81c0,.41,0,.71.58.71h15.66c.39,0,.58-.15.58-.55q0-6.52,0-13c0-.35-.12-.45-.47-.45-1.52,0-3.05,0-4.57,0h-.56Zm4.78,4.13-3.37-3.4v3.4Z"/></svg>