<svg id="acd05871-4eaf-4641-bb86-973dce104bff" data-name="Capa 1" xmlns="http://www.w3.org/2000/svg" viewBox="0 0 520 350"><defs><style>.ac4a0058-a926-4142-876d-20a087831bbe{fill:#1572b6;}.a657e589-df97-4c94-a67e-37de670cfc54{fill:#34a8db;}.b9ab20fc-f237-4013-927e-0ea8b141bce8{fill:#e7e8e9;}.b5411ecd-5c5d-46f1-aa38-814b1b715920{fill:#e4e7e9;}.ac68029f-a825-4989-bc3d-56dd7a812c98{fill:#fdfdfe;}.aaaf20f5-18c3-44b1-9636-79a4f03f122e,.ab7f9dad-6740-4f54-ba6f-56fbcebcb0ea,.b67f449e-a6ff-4a77-80e9-7729c85d8855,.b9b1b781-72c1-43ff-84c3-85633f8e3fd8,.ea78671b-a4ee-46c0-92b4-11619eec0697{fill:none;stroke-linecap:round;stroke-miterlimit:10;}.aaaf20f5-18c3-44b1-9636-79a4f03f122e{stroke:#1572b6;}.aaaf20f5-18c3-44b1-9636-79a4f03f122e,.b67f449e-a6ff-4a77-80e9-7729c85d8855,.ea78671b-a4ee-46c0-92b4-11619eec0697{stroke-width:5px;}.eff5d3b7-570d-4918-bbe3-bbcf3b13f250{fill:#e34f27;}.a311db72-b040-4986-9151-7ebeb585a944{fill:#f0662a;}.fba2d383-4753-4f0b-a3ac-2c35bebbc160{fill:#ebe8e7;}.aec1444b-7a8f-42bf-b7bd-1805d3810e09{fill:#ef590c;}.ba470e06-09a9-41aa-b0ad-124eba60dad3{fill:#fefdfc;}.e5d799da-808e-4330-831e-f8d46c28ed8f{fill:#fefdfd;}.aedd1488-50be-497b-b5be-b5f40589e7ab{fill:#8692c1;}.e381ccab-4f5c-47df-9c09-660c5f033821{fill:#232633;}.ea78671b-a4ee-46c0-92b4-11619eec0697{stroke:#e34f27;}.ab7f9dad-6740-4f54-ba6f-56fbcebcb0ea,.b67f449e-a6ff-4a77-80e9-7729c85d8855{stroke:#8692c1;}.ab7f9dad-6740-4f54-ba6f-56fbcebcb0ea,.b9b1b781-72c1-43ff-84c3-85633f8e3fd8{stroke-width:2px;}.ef9a981c-3120-409c-87ab-71a70aa71cc0{fill:#efa001;}.adc63225-17b0-471d-8d58-38a7ea4c829a{fill:#f9bd01;}.e8632955-219b-40a2-8c03-a632f84b2230{fill:#ebebea;}.a0a0d053-cade-49cb-aa89-5609bbdbf559{fill:#fefefd;}.a871fd55-f4a7-4e31-8559-265e2e47d6eb{fill:#5f6ea0;}.b9b1b781-72c1-43ff-84c3-85633f8e3fd8{stroke:#000;}</style></defs><title>_</title><path class="ac4a0058-a926-4142-876d-20a087831bbe" d="M51.91,311.84a5.45,5.45,0,0,1-1.81-.34,5.84,5.84,0,0,1-1.61-.9l1.19-1.66a5.31,5.31,0,0,0,1.17.7,2.85,2.85,0,0,0,1.14.24,1.49,1.49,0,0,0,.86-.2.65.65,0,0,0,.27-.56.6.6,0,0,0-.15-.39,1.83,1.83,0,0,0-.42-.31,3.89,3.89,0,0,0-.58-.26l-.67-.26c-.27-.11-.55-.24-.83-.38a3.52,3.52,0,0,1-.75-.53,2.54,2.54,0,0,1-.56-.74,2.18,2.18,0,0,1-.22-1,2.57,2.57,0,0,1,.25-1.14,2.46,2.46,0,0,1,.69-.88,3.25,3.25,0,0,1,1.08-.56,4.42,4.42,0,0,1,1.4-.21,4.35,4.35,0,0,1,1.8.35,7.16,7.16,0,0,1,1.35.78l-1.18,1.59a4.85,4.85,0,0,0-1-.56,2.4,2.4,0,0,0-.93-.2c-.68,0-1,.23-1,.7a.53.53,0,0,0,.14.37,1.5,1.5,0,0,0,.39.28,3.25,3.25,0,0,0,.56.24l.65.25a7.19,7.19,0,0,1,.86.37,3.32,3.32,0,0,1,.77.51,2.14,2.14,0,0,1,.57.75,2.39,2.39,0,0,1,.22,1,2.63,2.63,0,0,1-.24,1.13,2.45,2.45,0,0,1-.7.91,3.49,3.49,0,0,1-1.15.61A5.12,5.12,0,0,1,51.91,311.84Z"/><path class="ac4a0058-a926-4142-876d-20a087831bbe" d="M60.34,311.84a3.76,3.76,0,0,1-1.42-.25,2.43,2.43,0,0,1-1-.71,2.75,2.75,0,0,1-.54-1.08,5.7,5.7,0,0,1-.17-1.42v-3.62H56v-2l1.36-.1.31-2.38h2.2v2.38h2.14v2.06H59.91v3.59a1.58,1.58,0,0,0,.31,1.09,1.11,1.11,0,0,0,.84.33,1.72,1.72,0,0,0,.44-.06,2.09,2.09,0,0,0,.4-.12l.42,1.92a8.61,8.61,0,0,1-.85.22A5.34,5.34,0,0,1,60.34,311.84Z"/><path class="ac4a0058-a926-4142-876d-20a087831bbe" d="M64.78,315.12a4.58,4.58,0,0,1-.7-.05,2.7,2.7,0,0,1-.56-.14l.47-2,.29.07a1.77,1.77,0,0,0,.3,0,1.47,1.47,0,0,0,1-.33,1.91,1.91,0,0,0,.54-.84l.13-.47-3.44-8.69H65.5l1.28,3.83c.13.41.25.82.36,1.24l.34,1.3h.08c.09-.42.19-.85.29-1.27s.21-.85.32-1.27l1.08-3.83h2.54l-3.1,9A11.7,11.7,0,0,1,68,313.2a4,4,0,0,1-.81,1.06,3.18,3.18,0,0,1-1,.64A4.08,4.08,0,0,1,64.78,315.12Z"/><path class="ac4a0058-a926-4142-876d-20a087831bbe" d="M75.6,311.84a2.65,2.65,0,0,1-1.15-.22,1.85,1.85,0,0,1-.75-.6,2.6,2.6,0,0,1-.4-.94,5.1,5.1,0,0,1-.13-1.23V299h2.65v10a.86.86,0,0,0,.15.58.47.47,0,0,0,.32.16h.15a.45.45,0,0,0,.17,0l.32,2a3.12,3.12,0,0,1-.55.16A4.42,4.42,0,0,1,75.6,311.84Z"/><path class="ac4a0058-a926-4142-876d-20a087831bbe" d="M82.32,311.84a5,5,0,0,1-1.79-.32,4.15,4.15,0,0,1-1.44-.91,4.49,4.49,0,0,1-1-1.47,5.34,5.34,0,0,1-.34-2,5.06,5.06,0,0,1,.36-2,4.52,4.52,0,0,1,.94-1.48,4.25,4.25,0,0,1,1.34-.93,4.08,4.08,0,0,1,1.57-.32,4,4,0,0,1,1.66.32,3.35,3.35,0,0,1,1.19.9,3.76,3.76,0,0,1,.71,1.36,5.77,5.77,0,0,1,.24,1.7c0,.24,0,.47,0,.69a4.8,4.8,0,0,1-.07.48H80.35a2.18,2.18,0,0,0,.8,1.43,2.49,2.49,0,0,0,1.52.46,3.73,3.73,0,0,0,1.93-.59l.88,1.6a5.8,5.8,0,0,1-1.52.74A5.31,5.31,0,0,1,82.32,311.84Zm-2-5.65h3.23a2,2,0,0,0-.35-1.23,1.32,1.32,0,0,0-1.15-.46,1.58,1.58,0,0,0-1.1.41A2.1,2.1,0,0,0,80.33,306.19Z"/><path class="ac4a0058-a926-4142-876d-20a087831bbe" d="M89.17,311.84a1.53,1.53,0,0,1-1.14-.48A1.76,1.76,0,0,1,88,309a1.61,1.61,0,0,1,2.29,0,1.79,1.79,0,0,1,0,2.37A1.53,1.53,0,0,1,89.17,311.84Z"/><path class="ac4a0058-a926-4142-876d-20a087831bbe" d="M96.75,311.84a4.76,4.76,0,0,1-1.74-.32,4.07,4.07,0,0,1-1.39-.9,4.27,4.27,0,0,1-.94-1.47,5.61,5.61,0,0,1-.34-2,5,5,0,0,1,.38-2,4.31,4.31,0,0,1,1-1.47,4.48,4.48,0,0,1,1.48-.91,5,5,0,0,1,1.77-.31,3.69,3.69,0,0,1,1.46.27,4.59,4.59,0,0,1,1.14.68l-1.24,1.71a1.91,1.91,0,0,0-1.2-.52,1.88,1.88,0,0,0-1.53.68,2.88,2.88,0,0,0-.56,1.86,2.78,2.78,0,0,0,.57,1.85,1.76,1.76,0,0,0,1.43.69,2,2,0,0,0,.83-.19,4.61,4.61,0,0,0,.77-.46l1,1.73a4.16,4.16,0,0,1-1.44.82A5.06,5.06,0,0,1,96.75,311.84Z"/><path class="ac4a0058-a926-4142-876d-20a087831bbe" d="M103.9,311.84a5.4,5.4,0,0,1-1.81-.34,5.56,5.56,0,0,1-1.61-.9l1.19-1.66a5,5,0,0,0,1.16.7,2.88,2.88,0,0,0,1.14.24,1.47,1.47,0,0,0,.86-.2.65.65,0,0,0,.27-.56.6.6,0,0,0-.15-.39,1.75,1.75,0,0,0-.41-.31,4,4,0,0,0-.59-.26l-.66-.26a8.84,8.84,0,0,1-.83-.38,3.34,3.34,0,0,1-.76-.53,2.73,2.73,0,0,1-.56-.74,2.17,2.17,0,0,1-.21-1,2.71,2.71,0,0,1,.24-1.14,2.46,2.46,0,0,1,.69-.88,3.25,3.25,0,0,1,1.08-.56,4.82,4.82,0,0,1,3.21.14,7.85,7.85,0,0,1,1.35.78l-1.19,1.59a4.35,4.35,0,0,0-1-.56,2.4,2.4,0,0,0-.93-.2c-.67,0-1,.23-1,.7a.53.53,0,0,0,.14.37,1.5,1.5,0,0,0,.39.28,3.25,3.25,0,0,0,.56.24l.66.25a7.05,7.05,0,0,1,.85.37,3.61,3.61,0,0,1,.78.51,2.24,2.24,0,0,1,.56.75,2.26,2.26,0,0,1,.22,1,2.63,2.63,0,0,1-.24,1.13,2.45,2.45,0,0,1-.7.91,3.4,3.4,0,0,1-1.15.61A5.06,5.06,0,0,1,103.9,311.84Z"/><path class="ac4a0058-a926-4142-876d-20a087831bbe" d="M111.87,311.84a5.4,5.4,0,0,1-1.81-.34,5.7,5.7,0,0,1-1.61-.9l1.19-1.66a5.31,5.31,0,0,0,1.17.7,2.83,2.83,0,0,0,1.13.24,1.51,1.51,0,0,0,.87-.2.65.65,0,0,0,.27-.56.56.56,0,0,0-.16-.39,1.75,1.75,0,0,0-.41-.31,3.6,3.6,0,0,0-.59-.26l-.66-.26c-.28-.11-.55-.24-.83-.38a3.58,3.58,0,0,1-.76-.53,2.69,2.69,0,0,1-.55-.74,2.05,2.05,0,0,1-.22-1,2.71,2.71,0,0,1,.24-1.14,2.6,2.6,0,0,1,.7-.88,3.25,3.25,0,0,1,1.08-.56,4.79,4.79,0,0,1,3.2.14,7.16,7.16,0,0,1,1.35.78l-1.19,1.59a4.53,4.53,0,0,0-1-.56,2.41,2.41,0,0,0-.94-.2c-.67,0-1,.23-1,.7a.5.5,0,0,0,.15.37,1.22,1.22,0,0,0,.39.28,3.13,3.13,0,0,0,.55.24l.66.25a8,8,0,0,1,.86.37,3.32,3.32,0,0,1,.77.51,2.24,2.24,0,0,1,.78,1.8,2.78,2.78,0,0,1-.23,1.13,2.56,2.56,0,0,1-.7.91,3.6,3.6,0,0,1-1.15.61A5.12,5.12,0,0,1,111.87,311.84Z"/><path class="ac4a0058-a926-4142-876d-20a087831bbe" d="M78.94,246.11c4.86,0,9.73,0,14.59,0,.75,0,.86.24.8.9Q93.15,260,92,273c-.12,1.33-.26,2.65-.36,4a.78.78,0,0,1-.7.84q-5.82,1.57-11.62,3.22a1.48,1.48,0,0,1-.86,0c-3.81-1.06-7.63-2.13-11.45-3.16a.9.9,0,0,1-.79-1Q65.17,265,64.09,253.09c-.18-2.07-.34-4.13-.55-6.2-.06-.6.07-.8.72-.8C69.16,246.12,74.05,246.11,78.94,246.11Zm-.26,14-3.72,0c-.37,0-.62,0-.57.52.1,1,.16,1.94.23,2.91,0,.47.35.46.69.46l3.54,0v6.07l-2.48-.65c-1.66-.45-1.66-.46-1.85-2.11a7.79,7.79,0,0,1-.12-1c0-.39-.18-.5-.54-.49-.92,0-1.84,0-2.75,0-.54,0-.65.18-.6.67.15,1.56.31,3.12.41,4.68a1,1,0,0,0,.87,1c2.36.64,4.71,1.32,7.07,2v3.2c0,1.11,0,1.1,1,.81,2.58-.73,5.17-1.46,7.76-2.17,1.65-.45,1.61-.44,1.69-2.13s.24-3.47.39-5.21c.21-2.37.46-4.74.67-7.12.15-1.55.26-3.11.4-4.67.22-2.43.44-4.86.68-7.3.06-.62-.1-.89-.81-.89-3.67,0-7.35,0-11,0-.62,0-.81.18-.82.8a6.69,6.69,0,0,1-.16,2.71c-2.9,0-5.79,0-8.69,0-.58,0-.79.14-.7.74a16,16,0,0,1,.23,2.38c0,.7.32.8.93.79,2.8,0,5.61,0,8.42,0,0,.37,0,.75,0,1.13A8.22,8.22,0,0,1,78.68,260.11Z"/><path class="a657e589-df97-4c94-a67e-37de670cfc54" d="M78.68,252.27a6.69,6.69,0,0,0,.16-2.71c0-.62.2-.81.82-.8,3.67,0,7.35,0,11,0,.71,0,.87.27.81.89-.24,2.44-.46,4.87-.68,7.3-.14,1.56-.25,3.12-.4,4.67-.21,2.38-.46,4.75-.67,7.12-.15,1.74-.3,3.47-.39,5.21s0,1.68-1.69,2.13c-2.59.71-5.18,1.44-7.76,2.17-1,.29-1,.3-1-.81v-3.2l.18-.08c2.26-.62,4.5-1.29,6.77-1.82A1.36,1.36,0,0,0,87,270.84c.19-2.57.44-5.13.67-7.7.3-3.39.6-6.78.92-10.17,0-.49-.07-.68-.6-.67-3,0-6,0-9,0Z"/><path class="b9ab20fc-f237-4013-927e-0ea8b141bce8" d="M79,274.15l-.18.08c-2.36-.67-4.71-1.35-7.07-2a1,1,0,0,1-.87-1c-.1-1.56-.26-3.12-.41-4.68-.05-.49.06-.69.6-.67.91,0,1.83,0,2.75,0,.36,0,.54.1.54.49a7.79,7.79,0,0,0,.12,1c.19,1.65.19,1.66,1.85,2.11l2.48.65.18.05Z"/><path class="b5411ecd-5c5d-46f1-aa38-814b1b715920" d="M78.68,252.27l.35.07c0,1.26,0,2.52,0,3.79l-.17.1c-2.81,0-5.62,0-8.42,0-.61,0-.92-.09-.93-.79a16,16,0,0,0-.23-2.38c-.09-.6.12-.74.7-.74C72.89,252.31,75.78,252.28,78.68,252.27Z"/><path class="a657e589-df97-4c94-a67e-37de670cfc54" d="M79,270.17l-.18-.05v-6.19A30.56,30.56,0,0,0,83,264c.48,0,.7.12.64.65-.14,1.32-.26,2.65-.36,4,0,.41-.32.44-.6.52Z"/><path class="a657e589-df97-4c94-a67e-37de670cfc54" d="M78.87,256.23l.17-.1c1.54,0,3.08.07,4.62.05.6,0,.77.18.7.76-.11.82-.17,1.65-.23,2.48,0,.54-.24.75-.82.74-1.49,0-3,0-4.45,0l-.18-.07a8.22,8.22,0,0,0,.17-2.75C78.89,257,78.86,256.6,78.87,256.23Z"/><path class="b5411ecd-5c5d-46f1-aa38-814b1b715920" d="M78.68,260.11l.18.07a8.94,8.94,0,0,1,0,3.75v.12l-3.54,0c-.34,0-.66,0-.69-.46-.07-1-.13-1.94-.23-2.91,0-.49.2-.52.57-.52Z"/><path class="ac68029f-a825-4989-bc3d-56dd7a812c98" d="M78.85,263.93a8.94,8.94,0,0,0,0-3.75c1.48,0,3-.06,4.45,0,.58,0,.79-.2.82-.74.06-.83.12-1.66.23-2.48.07-.58-.1-.77-.7-.76-1.54,0-3.08,0-4.62-.05,0-1.27,0-2.53,0-3.79,3,0,6,0,9,0,.53,0,.65.18.6.67-.32,3.39-.62,6.78-.92,10.17-.23,2.57-.48,5.13-.67,7.7a1.36,1.36,0,0,1-1.21,1.49c-2.27.53-4.51,1.2-6.77,1.82,0-1.33,0-2.65,0-4l3.67-1c.28-.08.57-.11.6-.52.1-1.33.22-2.66.36-4,.06-.53-.16-.64-.64-.65A30.56,30.56,0,0,1,78.85,263.93Z"/><path class="ac4a0058-a926-4142-876d-20a087831bbe" d="M105.34,289.39H52.53c-3.37-1.22-4.43-3.72-4.41-7.17q.1-28,0-56c0-3.45,1-5.94,4.41-7.16H87.84c4.63.82,8.1,3.48,11.17,6.87,1.92,2.12,4,4.07,6,6.08a15.12,15.12,0,0,1,4.65,11.18c0,13,0,26,0,39C109.78,285.67,108.71,288.17,105.34,289.39ZM87.78,223.62a13.57,13.57,0,0,0-1.43-.14c-10.67,0-21.34,0-32,0-1.37,0-1.82.6-1.81,1.9,0,3.64,0,7.28,0,10.93q0,23.26,0,46.53c0,1.3.13,2.22,1.8,2.22q24.62,0,49.21,0c1.24,0,1.81-.45,1.81-1.73q0-20.46,0-40.92c0-1.09-.38-1.41-1.46-1.4-4.79.05-9.58,0-14.37,0H87.78Zm15,13L92.2,225.92v10.69Z"/><path class="aaaf20f5-18c3-44b1-9636-79a4f03f122e" d="M29.47,71.59C18.3,86.75,6.06,114,6.06,153.48c0,60.91,19,84.08,31,95.37"/><polygon class="ac4a0058-a926-4142-876d-20a087831bbe" points="18.18 65.98 42.05 58.8 36.34 83.07 18.18 65.98"/><path class="eff5d3b7-570d-4918-bbe3-bbcf3b13f250" d="M41.48,109.1a1.57,1.57,0,0,1-1.1-.39,1.27,1.27,0,0,1-.43-1,1.24,1.24,0,0,1,.43-1,1.62,1.62,0,0,1,1.1-.38,1.6,1.6,0,0,1,1.1.38,1.24,1.24,0,0,1,.43,1,1.27,1.27,0,0,1-.43,1A1.56,1.56,0,0,1,41.48,109.1Zm-1.32,10.24v-8.93h2.65v8.93Z"/><path class="eff5d3b7-570d-4918-bbe3-bbcf3b13f250" d="M45.13,119.34v-8.93h2.16l.18,1.14h.07a7.71,7.71,0,0,1,1.26-1,3.09,3.09,0,0,1,1.6-.4,2.38,2.38,0,0,1,2.12,1,4.62,4.62,0,0,1,.66,2.65v5.54H50.53v-5.2a2.44,2.44,0,0,0-.26-1.33,1,1,0,0,0-.84-.36,1.6,1.6,0,0,0-.86.22,4.53,4.53,0,0,0-.79.64v6Z"/><path class="eff5d3b7-570d-4918-bbe3-bbcf3b13f250" d="M58.61,119.56a3.37,3.37,0,0,1-1.5-.33A3,3,0,0,1,56,118.3a4.27,4.27,0,0,1-.74-1.46,6.6,6.6,0,0,1-.26-2,5.74,5.74,0,0,1,.31-2,4.8,4.8,0,0,1,.83-1.46,3.54,3.54,0,0,1,1.19-.93,3.1,3.1,0,0,1,1.38-.32,2.69,2.69,0,0,1,1.24.25,4.41,4.41,0,0,1,1,.68l-.11-1.37v-3H63.4v12.62H61.24l-.18-.88H61a4.2,4.2,0,0,1-1.1.78A2.85,2.85,0,0,1,58.61,119.56Zm.69-2.16a1.72,1.72,0,0,0,.78-.18,2,2,0,0,0,.67-.63v-3.66a2.3,2.3,0,0,0-.73-.45,2.48,2.48,0,0,0-.74-.12,1.43,1.43,0,0,0-1.12.6,3,3,0,0,0-.48,1.88,3.47,3.47,0,0,0,.42,1.94A1.37,1.37,0,0,0,59.3,117.4Z"/><path class="eff5d3b7-570d-4918-bbe3-bbcf3b13f250" d="M69.74,119.56a5,5,0,0,1-1.79-.32,4.18,4.18,0,0,1-1.44-.92,4.34,4.34,0,0,1-1-1.46,5.34,5.34,0,0,1-.34-2,5.11,5.11,0,0,1,.36-2,4.58,4.58,0,0,1,.94-1.47,4.09,4.09,0,0,1,1.34-.93,4.23,4.23,0,0,1,3.23,0,3.35,3.35,0,0,1,1.19.9,3.68,3.68,0,0,1,.71,1.36,5.77,5.77,0,0,1,.24,1.7,4.88,4.88,0,0,1,0,.68c0,.22,0,.38-.07.49H67.77a2.2,2.2,0,0,0,.8,1.43,2.5,2.5,0,0,0,1.53.46A3.73,3.73,0,0,0,72,117l.88,1.6a5.8,5.8,0,0,1-1.52.74A5.31,5.31,0,0,1,69.74,119.56Zm-2-5.66H71a2.07,2.07,0,0,0-.34-1.22,1.36,1.36,0,0,0-1.16-.47,1.59,1.59,0,0,0-1.1.42A2,2,0,0,0,67.76,113.9Z"/><path class="eff5d3b7-570d-4918-bbe3-bbcf3b13f250" d="M73.86,119.34l2.73-4.64L74,110.41h2.84l.8,1.44.36.77.39.76h.07l.31-.76c.11-.26.21-.52.31-.77l.61-1.44h2.73L79.85,115l2.76,4.34H79.76l-.86-1.48c-.15-.25-.29-.51-.43-.77s-.27-.52-.42-.77H78l-.34.76c-.12.26-.24.52-.35.78l-.7,1.48Z"/><path class="eff5d3b7-570d-4918-bbe3-bbcf3b13f250" d="M85.27,119.56a1.5,1.5,0,0,1-1.14-.48,1.62,1.62,0,0,1-.46-1.18,1.65,1.65,0,0,1,.46-1.2,1.62,1.62,0,0,1,2.28,0,1.65,1.65,0,0,1,.46,1.2,1.62,1.62,0,0,1-.46,1.18A1.5,1.5,0,0,1,85.27,119.56Z"/><path class="eff5d3b7-570d-4918-bbe3-bbcf3b13f250" d="M89.14,122.65V110.41H91.3l.18.88h.07a5,5,0,0,1,1.18-.78,3.11,3.11,0,0,1,1.36-.31,3.08,3.08,0,0,1,2.56,1.24,4.23,4.23,0,0,1,.69,1.43,6.76,6.76,0,0,1,.24,1.86,6.08,6.08,0,0,1-.31,2,4.85,4.85,0,0,1-.85,1.52,3.61,3.61,0,0,1-1.21.94,3.12,3.12,0,0,1-1.39.33,2.76,2.76,0,0,1-1.12-.25,3.45,3.45,0,0,1-1-.69l.09,1.42v2.61Zm4.07-5.25a1.46,1.46,0,0,0,1.17-.63,3.29,3.29,0,0,0,.48-2c0-1.61-.51-2.41-1.54-2.41a2.12,2.12,0,0,0-1.53.81v3.65a2,2,0,0,0,.72.45A2.21,2.21,0,0,0,93.21,117.4Z"/><path class="eff5d3b7-570d-4918-bbe3-bbcf3b13f250" d="M99.45,119.34V106.72h2.65v3.1l-.13,1.6a7.62,7.62,0,0,1,1.17-.84,3.22,3.22,0,0,1,1.59-.38,2.37,2.37,0,0,1,2.11,1,4.62,4.62,0,0,1,.66,2.65v5.54h-2.65v-5.2a2.35,2.35,0,0,0-.26-1.33,1,1,0,0,0-.83-.36,1.61,1.61,0,0,0-.87.22,4.93,4.93,0,0,0-.79.64v6Z"/><path class="eff5d3b7-570d-4918-bbe3-bbcf3b13f250" d="M109.73,122.65V110.41h2.16l.18.88h.07a5,5,0,0,1,1.18-.78,3.11,3.11,0,0,1,1.36-.31,3.08,3.08,0,0,1,2.56,1.24,4.23,4.23,0,0,1,.69,1.43,6.76,6.76,0,0,1,.24,1.86,6.08,6.08,0,0,1-.31,2,4.66,4.66,0,0,1-.85,1.52,3.57,3.57,0,0,1-1.2.94,3.16,3.16,0,0,1-1.4.33,2.8,2.8,0,0,1-1.12-.25,3.59,3.59,0,0,1-1-.69l.09,1.42v2.61Zm4.07-5.25a1.44,1.44,0,0,0,1.17-.63,3.28,3.28,0,0,0,.49-2c0-1.61-.52-2.41-1.55-2.41a2.12,2.12,0,0,0-1.53.81v3.65a2,2,0,0,0,.72.45A2.21,2.21,0,0,0,113.8,117.4Z"/><path class="eff5d3b7-570d-4918-bbe3-bbcf3b13f250" d="M78.86,47.64H93.28c1.08,0,1.12,0,1,1.08L92.72,66.53q-.54,6-1.07,12c0,.5-.24.69-.72.82Q85.16,81,79.39,82.59a1.67,1.67,0,0,1-.94,0c-3.84-1.08-7.69-2.16-11.54-3.2a.8.8,0,0,1-.69-.85q-.81-9.44-1.65-18.87c-.32-3.63-.66-7.26-1-10.89-.11-1.14-.12-1.14,1.06-1.14Zm0,18.36,0,5.91c-1-.1-1.82-.52-2.75-.68s-1.79-.5-1.58-1.78a7.57,7.57,0,0,0-.11-1.14c0-.44-.18-.56-.59-.55-.89,0-1.78,0-2.67,0-.57,0-.71.17-.65.71.16,1.53.3,3.07.4,4.61,0,.6.29.83.88,1,2.37.62,4.73,1.31,7.09,2,0,1,0,2,0,2.94s.25,1,1.09.81L82.75,79c1.8-.49,3.6-1,5.38-1.48.37-.11,1-.12,1-.68.15-1.2.27-2.41.37-3.61.14-1.62.24-3.24.38-4.85.22-2.53.47-5,.69-7.57.14-1.56.26-3.12.41-4.67s.32-3.35.49-5c.06-.6-.15-.83-.79-.82q-5.47,0-10.95,0c-.67,0-.91.29-.91.9,0,.89,0,1.78,0,2.67H70.14c-.3,0-.66-.14-.89.21q.52,5.86,1.06,11.72c.26.3.61.17.91.17C73.77,66,76.31,66,78.86,66Z"/><path class="a311db72-b040-4986-9151-7ebeb585a944" d="M78.86,53.87c0-.89,0-1.78,0-2.67,0-.61.24-.91.91-.9q5.47,0,10.95,0c.64,0,.85.22.79.82-.17,1.67-.34,3.34-.49,5s-.27,3.11-.41,4.67c-.22,2.52-.47,5-.69,7.57-.14,1.61-.24,3.23-.38,4.85-.1,1.2-.22,2.41-.37,3.61-.07.56-.66.57-1,.68-1.78.53-3.58,1-5.38,1.48l-2.81.79c-.84.23-1.08.06-1.09-.81s0-2,0-2.94V76a1.54,1.54,0,0,0,.43,0c2.37-.65,4.72-1.32,7.09-2,.45-.12.51-.39.55-.77.27-3.18.58-6.36.82-9.54.05-.59.4-1.2,0-1.79-.26-.29-.61-.17-.92-.17h-8V58l0-.06c3,0,5.94,0,8.9,0,.43,0,.57-.15.58-.56,0-.86.13-1.71.19-2.57l.06-.26c.05-.2.12-.4-.1-.54s-.62-.17-.93-.17Z"/><path class="fba2d383-4753-4f0b-a3ac-2c35bebbc160" d="M70.31,65.81q-.54-5.87-1.06-11.72l9.61,0,0,3.83,0,.06c-1.59,0-3.18,0-4.78,0-.45,0-.63.11-.57.6.14,1,.24,2.1.35,3.16.18.37.52.18.78.19,1.4,0,2.81,0,4.22,0v3.83Z"/><path class="fba2d383-4753-4f0b-a3ac-2c35bebbc160" d="M78.86,76c-2.36-.67-4.72-1.36-7.09-2-.59-.16-.84-.39-.88-1-.1-1.54-.24-3.08-.4-4.61-.06-.54.08-.74.65-.71.89,0,1.78,0,2.67,0,.41,0,.59.11.59.55a7.57,7.57,0,0,1,.11,1.14c-.21,1.28.55,1.6,1.58,1.78s1.8.58,2.75.68a.59.59,0,0,0,0,.13c0,1.3,0,2.61,0,3.91Z"/><path class="a311db72-b040-4986-9151-7ebeb585a944" d="M78.86,72a.59.59,0,0,1,0-.13c0-2,0-3.94,0-5.91h4.78c-.12,1.46-.25,2.93-.34,4.39,0,.43-.29.52-.62.6Z"/><path class="aec1444b-7a8f-42bf-b7bd-1805d3810e09" d="M78.86,54.11l-9.61,0c.23-.35.59-.21.89-.21h17.4c.31,0,.66-.12.93.17Z"/><path class="aec1444b-7a8f-42bf-b7bd-1805d3810e09" d="M83.64,66H78.86c-2.55,0-5.09,0-7.64,0-.3,0-.65.13-.91-.17l8.55,0c1.27,0,2.54,0,3.81,0C83,65.83,83.37,65.64,83.64,66Z"/><path class="ba470e06-09a9-41aa-b0ad-124eba60dad3" d="M83.64,66c-.27-.35-.65-.16-1-.17-1.27,0-2.54,0-3.81,0V62l8.89-.06c.39.59,0,1.2,0,1.79-.24,3.18-.55,6.36-.82,9.54,0,.38-.1.65-.55.77-2.37.63-4.72,1.3-7.09,2a1.54,1.54,0,0,1-.43,0c0-1.3,0-2.61,0-3.91L82.68,71c.33-.08.59-.17.62-.6C83.39,68.92,83.52,67.45,83.64,66Z"/><path class="e5d799da-808e-4330-831e-f8d46c28ed8f" d="M78.86,54.11l9.61-.06c.22.14.15.34.1.54l-.06.26c-.06.86-.15,1.71-.19,2.57,0,.41-.15.56-.58.56-3,0-5.93,0-8.9,0C78.85,56.66,78.85,55.39,78.86,54.11Z"/><path class="eff5d3b7-570d-4918-bbe3-bbcf3b13f250" d="M73.86,61.72c-.11-1.06-.21-2.11-.35-3.16-.06-.49.12-.61.57-.6,1.6,0,3.19,0,4.78,0v3.71Z"/><path class="aec1444b-7a8f-42bf-b7bd-1805d3810e09" d="M73.86,61.72h13c.31,0,.66-.12.92.17L78.86,62c-1.41,0-2.82,0-4.22,0C74.38,61.9,74,62.09,73.86,61.72Z"/><path class="fba2d383-4753-4f0b-a3ac-2c35bebbc160" d="M88.51,54.85l.06-.26Z"/><path class="eff5d3b7-570d-4918-bbe3-bbcf3b13f250" d="M105.34,92.39H52.53c-3.37-1.22-4.43-3.72-4.41-7.17q.1-28,0-56c0-3.45,1-5.94,4.41-7.16H87.84c4.63.82,8.1,3.48,11.17,6.87,1.92,2.12,4,4.07,6,6.08a15.12,15.12,0,0,1,4.65,11.18c0,13,0,26,0,39C109.78,88.67,108.71,91.17,105.34,92.39ZM87.78,26.62a13.57,13.57,0,0,0-1.43-.14c-10.67,0-21.34,0-32,0-1.37,0-1.82.6-1.81,1.9,0,3.64,0,7.28,0,10.93q0,23.27,0,46.53c0,1.3.13,2.22,1.8,2.22q24.62,0,49.21,0c1.24,0,1.81-.45,1.81-1.73q0-20.46,0-40.92c0-1.09-.38-1.41-1.46-1.4-4.79.05-9.58,0-14.37,0H87.78Zm15,13L92.2,28.92V39.61Z"/><path class="aedd1488-50be-497b-b5be-b5f40589e7ab" d="M350.58,120.67l2.74-4.65-2.58-4.28h2.85l.79,1.44c.12.25.24.51.37.76s.25.52.39.77h.07c.09-.25.2-.51.3-.77s.21-.51.31-.76l.61-1.44h2.74l-2.59,4.59,2.75,4.34h-2.84l-.87-1.48-.42-.77q-.21-.4-.42-.78h-.08c-.1.25-.22.51-.34.77s-.23.52-.34.78l-.7,1.48Z"/><path class="aedd1488-50be-497b-b5be-b5f40589e7ab" d="M360.75,120.67V108.05h2.65v3.09l-.13,1.61a7.62,7.62,0,0,1,1.17-.84,3.1,3.1,0,0,1,1.59-.39,2.37,2.37,0,0,1,2.11,1,4.58,4.58,0,0,1,.66,2.64v5.55h-2.65v-5.21a2.46,2.46,0,0,0-.26-1.33,1,1,0,0,0-.84-.36,1.6,1.6,0,0,0-.86.23,4.93,4.93,0,0,0-.79.64v6Z"/><path class="aedd1488-50be-497b-b5be-b5f40589e7ab" d="M371,120.67v-8.93h2.16l.18,1.56h.07a3.47,3.47,0,0,1,1.17-1.34,2.55,2.55,0,0,1,1.37-.44,3.44,3.44,0,0,1,.62,0,1.89,1.89,0,0,1,.44.13l-.43,2.29c-.17,0-.32-.08-.47-.11a3.49,3.49,0,0,0-.5,0,1.89,1.89,0,0,0-1.06.37,2.62,2.62,0,0,0-.9,1.27v5.19Z"/><path class="aedd1488-50be-497b-b5be-b5f40589e7ab" d="M378.14,120.88a1.52,1.52,0,0,1-1.14-.47,1.62,1.62,0,0,1-.46-1.18A1.65,1.65,0,0,1,377,118a1.59,1.59,0,0,1,2.28,0,1.65,1.65,0,0,1,.46,1.2,1.62,1.62,0,0,1-.46,1.18A1.52,1.52,0,0,1,378.14,120.88Z"/><path class="aedd1488-50be-497b-b5be-b5f40589e7ab" d="M382,124V111.74h2.16l.18.88h.07a5,5,0,0,1,1.18-.78,3.12,3.12,0,0,1,1.36-.32,3.17,3.17,0,0,1,1.46.33,3.11,3.11,0,0,1,1.1.91,4.38,4.38,0,0,1,.69,1.44,6.71,6.71,0,0,1,.24,1.86,6.08,6.08,0,0,1-.31,2,4.68,4.68,0,0,1-.85,1.51,3.64,3.64,0,0,1-1.21,1,3.11,3.11,0,0,1-1.39.32,2.75,2.75,0,0,1-1.12-.24,3.45,3.45,0,0,1-1-.69l.09,1.42V124Zm4.07-5.26a1.44,1.44,0,0,0,1.17-.62,3.3,3.3,0,0,0,.48-2c0-1.6-.51-2.41-1.54-2.41a2.12,2.12,0,0,0-1.53.81v3.66a2.37,2.37,0,0,0,.72.45A2.19,2.19,0,0,0,386.08,118.72Z"/><path class="aedd1488-50be-497b-b5be-b5f40589e7ab" d="M392.32,120.67V108.05H395v3.09l-.13,1.61a7.62,7.62,0,0,1,1.17-.84,3.12,3.12,0,0,1,1.59-.39,2.37,2.37,0,0,1,2.11,1,4.58,4.58,0,0,1,.66,2.64v5.55h-2.65v-5.21a2.37,2.37,0,0,0-.26-1.33,1,1,0,0,0-.83-.36,1.61,1.61,0,0,0-.87.23,4.93,4.93,0,0,0-.79.64v6Z"/><path class="aedd1488-50be-497b-b5be-b5f40589e7ab" d="M402.6,124V111.74h2.16l.18.88H405a5,5,0,0,1,1.18-.78,3.12,3.12,0,0,1,1.36-.32,3.17,3.17,0,0,1,1.46.33,3.11,3.11,0,0,1,1.1.91,4.38,4.38,0,0,1,.69,1.44,6.71,6.71,0,0,1,.24,1.86,6.08,6.08,0,0,1-.31,2,4.5,4.5,0,0,1-.85,1.51,3.61,3.61,0,0,1-1.2,1,3.15,3.15,0,0,1-1.4.32,2.71,2.71,0,0,1-1.11-.24,3.49,3.49,0,0,1-1-.69l.09,1.42V124Zm4.07-5.26a1.43,1.43,0,0,0,1.17-.62,3.29,3.29,0,0,0,.49-2c0-1.6-.52-2.41-1.55-2.41a2.12,2.12,0,0,0-1.53.81v3.66a2.37,2.37,0,0,0,.72.45A2.19,2.19,0,0,0,406.67,118.72Z"/><path class="aedd1488-50be-497b-b5be-b5f40589e7ab" d="M378.5,52.48h5.3c.13.18.32.11.49.13a32.66,32.66,0,0,1,8.46,1.74A20.09,20.09,0,0,1,398,57.06a9.54,9.54,0,0,1,3.67,5.09v2.12c-.16.08-.17.25-.21.39a7.2,7.2,0,0,1-1.65,2.92,15.82,15.82,0,0,1-6.76,4.25,36.34,36.34,0,0,1-19.39,1.25,23.06,23.06,0,0,1-9.47-3.89A9.52,9.52,0,0,1,361,65.36c-.16-.36-.14-.79-.44-1.09V62a.35.35,0,0,0,.13-.14,9.57,9.57,0,0,1,4.58-5.52,26.83,26.83,0,0,1,10.33-3.49A22.86,22.86,0,0,0,378.5,52.48Zm11.85,5.62c-.75,0-1.5,0-2.25,0-.47,0-.68.12-.74.59s-.22,1.13-.33,1.69c-.56,2.86-1.11,5.72-1.69,8.57-.1.45,0,.54.43.52s1.11,0,1.66,0c.35,0,.51-.1.56-.45.09-.64.24-1.26.34-1.89.07-.43.21-.66.71-.61.66,0,1.33,0,2,0A4.94,4.94,0,0,0,396,62.46c.53-2.75-.75-4.32-3.56-4.36Zm-18.87,0v0c-.77,0-1.54,0-2.32,0-.4,0-.56.11-.64.54q-1,5.16-2,10.31c-.09.43,0,.55.44.53s1.11,0,1.66,0c.34,0,.51-.07.56-.45.09-.67.26-1.34.37-2,.06-.34.19-.5.56-.48.66,0,1.33,0,2,0a5,5,0,0,0,5.09-4.27c.42-2.43-.69-3.92-3.14-4.12C373.17,58.07,372.32,58.13,371.48,58.13Zm12.46,8.4a7,7,0,0,1,.93,0c.44.06.58-.16.64-.54.27-1.65.48-3.32.85-5s-.59-2.64-2.17-2.88a17.08,17.08,0,0,0-2.58-.07c-.39,0-.58-.09-.47-.53s.15-.78.23-1.17c.26-1.26.26-1.26-1-1.26-.31,0-.62,0-.93,0s-.53.1-.6.49c-.29,1.6-.62,3.2-.94,4.8-.37,1.84-.73,3.68-1.11,5.51-.1.48,0,.63.51.6a11,11,0,0,1,1.52,0c.41,0,.57-.12.65-.54.32-1.75.7-3.5,1-5.25.08-.43.25-.6.69-.57s1,0,1.46,0c.9,0,1.1.26.93,1.13l-.72,3.84c-.08.43-.35,1-.17,1.26S383.56,66.48,383.94,66.53Z"/><path class="e381ccab-4f5c-47df-9c09-660c5f033821" d="M390.35,58.1h2c2.81,0,4.09,1.61,3.56,4.36A4.94,4.94,0,0,1,391,66.53c-.66,0-1.33,0-2,0-.5,0-.64.18-.71.61-.1.63-.25,1.25-.34,1.89-.05.35-.21.47-.56.45-.55,0-1.11,0-1.66,0s-.53-.07-.43-.52c.58-2.85,1.13-5.71,1.69-8.57.11-.56.26-1.12.33-1.69s.27-.62.74-.59C388.85,58.12,389.6,58.1,390.35,58.1Zm.61,2.09c-.28,0-.57,0-.85,0s-.39.05-.43.3c-.2,1.19-.39,2.38-.59,3.57,0,.21,0,.35.26.34a5.87,5.87,0,0,0,2.53-.27,2.89,2.89,0,0,0,1.33-2.93c-.14-.7-.76-1-2-1Z"/><path class="e381ccab-4f5c-47df-9c09-660c5f033821" d="M371.48,58.13c.84,0,1.69-.06,2.52,0,2.45.2,3.56,1.69,3.14,4.12a5,5,0,0,1-5.09,4.27c-.66,0-1.33,0-2,0-.37,0-.5.14-.56.48-.11.67-.28,1.34-.37,2-.05.38-.22.47-.56.45-.55,0-1.11,0-1.66,0s-.53-.1-.44-.53q1-5.14,2-10.31c.08-.43.24-.55.64-.54.78,0,1.55,0,2.32,0Zm.61,2.06a3.53,3.53,0,0,1-.46,0c-.55-.08-.85.07-.89.7s-.23,1.17-.28,1.76-.53,1.37-.07,1.68,1.24.12,1.87,0a2.58,2.58,0,0,0,2.13-3C374.32,60.51,373.7,60.19,372.09,60.19Z"/><path class="e381ccab-4f5c-47df-9c09-660c5f033821" d="M383.94,66.53c-.38,0-1,.21-1.25-.11s.09-.83.17-1.26l.72-3.84c.17-.87,0-1.11-.93-1.13-.49,0-1,0-1.46,0s-.61.14-.69.57c-.33,1.75-.71,3.5-1,5.25-.08.42-.24.56-.65.54a11,11,0,0,0-1.52,0c-.48,0-.61-.12-.51-.6.38-1.83.74-3.67,1.11-5.51.32-1.6.65-3.2.94-4.8.07-.39.22-.53.6-.49s.62,0,.93,0c1.26,0,1.26,0,1,1.26-.08.39-.13.79-.23,1.17s.08.53.47.53a17.08,17.08,0,0,1,2.58.07c1.58.24,2.55,1.2,2.17,2.88s-.58,3.3-.85,5c-.06.38-.2.6-.64.54A7,7,0,0,0,383.94,66.53Z"/><path class="aedd1488-50be-497b-b5be-b5f40589e7ab" d="M391,60.19h.2c1.29,0,1.91.31,2,1a2.89,2.89,0,0,1-1.33,2.93,5.87,5.87,0,0,1-2.53.27c-.25,0-.29-.13-.26-.34.2-1.19.39-2.38.59-3.57,0-.25.2-.31.43-.3S390.68,60.19,391,60.19Z"/><path class="aedd1488-50be-497b-b5be-b5f40589e7ab" d="M372.09,60.19c1.61,0,2.23.32,2.3,1.2a2.58,2.58,0,0,1-2.13,3c-.63.1-1.43.27-1.87,0s0-1.1.07-1.68.25-1.17.28-1.76.34-.78.89-.7A3.53,3.53,0,0,0,372.09,60.19Z"/><path class="aedd1488-50be-497b-b5be-b5f40589e7ab" d="M407.55,92.39H354.74c-3.37-1.22-4.42-3.72-4.41-7.17q.12-28,0-56c0-3.45,1-5.94,4.41-7.16h35.31c4.63.82,8.11,3.48,11.18,6.87,1.92,2.12,4,4.07,6,6.08a15.16,15.16,0,0,1,4.65,11.18c0,13-.06,26,0,39C412,88.67,410.93,91.17,407.55,92.39ZM390,26.62a13.41,13.41,0,0,0-1.42-.14c-10.67,0-21.35,0-32,0-1.38,0-1.83.6-1.81,1.9,0,3.64,0,7.28,0,10.93q0,23.27,0,46.53c0,1.3.12,2.22,1.8,2.22q24.6,0,49.2,0c1.24,0,1.82-.45,1.82-1.73q0-20.46,0-40.92c0-1.09-.37-1.41-1.45-1.4-4.79.05-9.58,0-14.37,0H390Zm15,13L394.42,28.92V39.61Z"/><line class="ea78671b-a4ee-46c0-92b4-11619eec0697" x1="326.84" y1="52.22" x2="277.76" y2="52.22"/><polygon class="eff5d3b7-570d-4918-bbe3-bbcf3b13f250" points="320.61 39.76 342.2 52.22 320.61 64.69 320.61 39.76"/><line class="ab7f9dad-6740-4f54-ba6f-56fbcebcb0ea" x1="423.03" y1="220.48" x2="423.03" y2="160.19"/><polygon class="aedd1488-50be-497b-b5be-b5f40589e7ab" points="428.01 216.42 423.03 225.06 418.04 216.42 428.01 216.42"/><line class="ab7f9dad-6740-4f54-ba6f-56fbcebcb0ea" x1="433.03" y1="166.07" x2="433.03" y2="226.35"/><polygon class="aedd1488-50be-497b-b5be-b5f40589e7ab" points="428.04 170.12 433.02 161.48 438.01 170.12 428.04 170.12"/><line class="b67f449e-a6ff-4a77-80e9-7729c85d8855" x1="288.34" y1="73.94" x2="331.1" y2="73.94"/><polygon class="aedd1488-50be-497b-b5be-b5f40589e7ab" points="294.32 86.4 272.73 73.94 294.32 61.47 294.32 86.4"/><line class="ea78671b-a4ee-46c0-92b4-11619eec0697" x1="171.84" y1="52.22" x2="122.76" y2="52.22"/><polygon class="eff5d3b7-570d-4918-bbe3-bbcf3b13f250" points="165.61 39.76 187.2 52.22 165.61 64.69 165.61 39.76"/><line class="b67f449e-a6ff-4a77-80e9-7729c85d8855" x1="133.34" y1="73.94" x2="176.1" y2="73.94"/><polygon class="aedd1488-50be-497b-b5be-b5f40589e7ab" points="139.32 86.4 117.73 73.94 139.32 61.47 139.32 86.4"/><path class="ef9a981c-3120-409c-87ab-71a70aa71cc0" d="M202.64,120.84a2.77,2.77,0,0,1-1.1-.21,2.5,2.5,0,0,1-.84-.57,2.53,2.53,0,0,1-.53-.86,2.81,2.81,0,0,1-.19-1.06,2.51,2.51,0,0,1,1.19-2.2,8.86,8.86,0,0,1,3.83-1.06,1.47,1.47,0,0,0-.35-.94,1.33,1.33,0,0,0-1.05-.36,3.3,3.3,0,0,0-1.15.22,8.44,8.44,0,0,0-1.21.6l-1-1.75a9.25,9.25,0,0,1,1.8-.85,6.32,6.32,0,0,1,2-.32,3.45,3.45,0,0,1,2.64,1,4.39,4.39,0,0,1,.91,3.05v5.11h-2.16l-.18-.91h-.07a6.09,6.09,0,0,1-1.21.81A3.06,3.06,0,0,1,202.64,120.84Zm.9-2a1.51,1.51,0,0,0,.78-.2A3.92,3.92,0,0,0,205,118v-1.57a4.9,4.9,0,0,0-1.94.58,1.08,1.08,0,0,0-.54.9.74.74,0,0,0,.28.64A1.18,1.18,0,0,0,203.54,118.79Z"/><path class="ef9a981c-3120-409c-87ab-71a70aa71cc0" d="M209.36,124.15a4.82,4.82,0,0,1-.93-.07,3.84,3.84,0,0,1-.64-.18l.47-1.94.34.08a1.37,1.37,0,0,0,.36,0,.78.78,0,0,0,.73-.34,2.18,2.18,0,0,0,.21-1.1V111.7h2.64v8.87a6.23,6.23,0,0,1-.15,1.39,3.08,3.08,0,0,1-.52,1.13,2.69,2.69,0,0,1-1,.77A3.63,3.63,0,0,1,209.36,124.15Zm1.87-13.77a1.57,1.57,0,0,1-1.1-.39,1.25,1.25,0,0,1-.43-1,1.27,1.27,0,0,1,.43-1,1.61,1.61,0,0,1,1.1-.37,1.63,1.63,0,0,1,1.1.37,1.31,1.31,0,0,1,.43,1,1.29,1.29,0,0,1-.43,1A1.59,1.59,0,0,1,211.23,110.38Z"/><path class="ef9a981c-3120-409c-87ab-71a70aa71cc0" d="M217.13,120.84a2.77,2.77,0,0,1-1.1-.21,2.5,2.5,0,0,1-.84-.57,2.53,2.53,0,0,1-.53-.86,2.81,2.81,0,0,1-.19-1.06,2.49,2.49,0,0,1,1.19-2.2,8.86,8.86,0,0,1,3.83-1.06,1.47,1.47,0,0,0-.35-.94,1.33,1.33,0,0,0-1-.36,3.3,3.3,0,0,0-1.15.22,8.44,8.44,0,0,0-1.21.6l-1-1.75a9.62,9.62,0,0,1,1.81-.85,6.32,6.32,0,0,1,2-.32,3.45,3.45,0,0,1,2.64,1,4.39,4.39,0,0,1,.91,3.05v5.11H220l-.18-.91h-.08a5.76,5.76,0,0,1-1.2.81A3.06,3.06,0,0,1,217.13,120.84Zm.9-2a1.51,1.51,0,0,0,.78-.2,3.92,3.92,0,0,0,.68-.56v-1.57a4.9,4.9,0,0,0-1.94.58,1.08,1.08,0,0,0-.54.9.74.74,0,0,0,.28.64A1.18,1.18,0,0,0,218,118.79Z"/><path class="ef9a981c-3120-409c-87ab-71a70aa71cc0" d="M223.45,120.62l2.74-4.64-2.58-4.28h2.85l.79,1.43c.12.26.24.51.37.77s.25.51.38.77h.08c.09-.26.19-.51.3-.77s.21-.51.31-.77l.61-1.43H232l-2.6,4.59,2.76,4.33h-2.85l-.86-1.47q-.21-.37-.42-.78c-.14-.26-.28-.52-.43-.77h-.07c-.11.25-.22.51-.34.76s-.23.52-.34.79l-.7,1.47Z"/><path class="ef9a981c-3120-409c-87ab-71a70aa71cc0" d="M232.67,123.14v-1.49h8.56v1.49Z"/><path class="ef9a981c-3120-409c-87ab-71a70aa71cc0" d="M242.62,123.93V111.7h2.16l.18.88H245a5.07,5.07,0,0,1,1.18-.79,3.11,3.11,0,0,1,1.36-.31,3.3,3.3,0,0,1,1.46.32,3.25,3.25,0,0,1,1.1.92,4.33,4.33,0,0,1,.69,1.43,6.76,6.76,0,0,1,.24,1.86,6.18,6.18,0,0,1-.31,2,4.79,4.79,0,0,1-.85,1.51,3.57,3.57,0,0,1-1.2.94,3.16,3.16,0,0,1-1.4.33,2.75,2.75,0,0,1-1.12-.24,3.7,3.7,0,0,1-1-.7l.09,1.43v2.6Zm4.07-5.25a1.47,1.47,0,0,0,1.17-.62,3.32,3.32,0,0,0,.48-2c0-1.61-.51-2.41-1.54-2.41a2.12,2.12,0,0,0-1.53.81v3.65a2,2,0,0,0,.72.45A2,2,0,0,0,246.69,118.68Z"/><path class="ef9a981c-3120-409c-87ab-71a70aa71cc0" d="M256.77,120.84a4.39,4.39,0,0,1-1.64-.32,4.16,4.16,0,0,1-1.39-.9,4.33,4.33,0,0,1-1-1.47,5.68,5.68,0,0,1,0-4,4.33,4.33,0,0,1,1-1.47,4.19,4.19,0,0,1,1.39-.91,4.38,4.38,0,0,1,1.64-.31,4.33,4.33,0,0,1,1.63.31,4.25,4.25,0,0,1,1.38.91,4.33,4.33,0,0,1,1,1.47,5.68,5.68,0,0,1,0,4,4.33,4.33,0,0,1-1,1.47,4.22,4.22,0,0,1-1.38.9A4.34,4.34,0,0,1,256.77,120.84Zm0-2.14A1.33,1.33,0,0,0,258,118a3.5,3.5,0,0,0,.42-1.85,3.56,3.56,0,0,0-.42-1.86,1.44,1.44,0,0,0-2.45,0,3.66,3.66,0,0,0-.41,1.86,3.6,3.6,0,0,0,.41,1.85A1.33,1.33,0,0,0,256.77,118.7Z"/><path class="ef9a981c-3120-409c-87ab-71a70aa71cc0" d="M265.46,120.84a5.4,5.4,0,0,1-1.81-.34,5.84,5.84,0,0,1-1.61-.9l1.19-1.66a5.31,5.31,0,0,0,1.17.7,2.83,2.83,0,0,0,1.13.24,1.51,1.51,0,0,0,.87-.2.65.65,0,0,0,.27-.56.6.6,0,0,0-.15-.39,1.83,1.83,0,0,0-.42-.31,3.89,3.89,0,0,0-.58-.26l-.67-.26c-.28-.11-.55-.24-.83-.38a3.28,3.28,0,0,1-.75-.53,2.54,2.54,0,0,1-.56-.74,2.05,2.05,0,0,1-.22-1,2.57,2.57,0,0,1,.25-1.14,2.46,2.46,0,0,1,.69-.88,3.25,3.25,0,0,1,1.08-.56,4.42,4.42,0,0,1,1.4-.21,4.35,4.35,0,0,1,1.8.35,7.16,7.16,0,0,1,1.35.78l-1.19,1.59a4.53,4.53,0,0,0-.95-.56,2.41,2.41,0,0,0-.94-.2c-.67,0-1,.23-1,.7a.49.49,0,0,0,.14.37,1.5,1.5,0,0,0,.39.28,3.25,3.25,0,0,0,.56.24l.65.25a8,8,0,0,1,.86.37,3.32,3.32,0,0,1,.77.51,2.24,2.24,0,0,1,.78,1.8,2.63,2.63,0,0,1-.23,1.13,2.56,2.56,0,0,1-.7.91,3.49,3.49,0,0,1-1.15.61A5.12,5.12,0,0,1,265.46,120.84Z"/><path class="ef9a981c-3120-409c-87ab-71a70aa71cc0" d="M273.89,120.84a3.72,3.72,0,0,1-1.42-.25,2.43,2.43,0,0,1-1-.71,2.75,2.75,0,0,1-.54-1.08,5.7,5.7,0,0,1-.17-1.42v-3.62h-1.23v-2l1.37-.1.31-2.38h2.19v2.38h2.15v2.06h-2.15v3.59a1.58,1.58,0,0,0,.32,1.09,1.11,1.11,0,0,0,.84.33,1.72,1.72,0,0,0,.44-.06,2.09,2.09,0,0,0,.4-.12l.42,1.92a8.61,8.61,0,0,1-.85.22A5.34,5.34,0,0,1,273.89,120.84Z"/><path class="ef9a981c-3120-409c-87ab-71a70aa71cc0" d="M278.64,120.84a1.5,1.5,0,0,1-1.14-.48,1.76,1.76,0,0,1,0-2.37,1.5,1.5,0,0,1,1.14-.48,1.51,1.51,0,0,1,1.14.48,1.76,1.76,0,0,1,0,2.37A1.51,1.51,0,0,1,278.64,120.84Z"/><path class="ef9a981c-3120-409c-87ab-71a70aa71cc0" d="M282.63,124.15a4.71,4.71,0,0,1-.92-.07,3.84,3.84,0,0,1-.64-.18l.47-1.94.34.08a1.37,1.37,0,0,0,.36,0,.78.78,0,0,0,.73-.34,2.19,2.19,0,0,0,.2-1.1V111.7h2.65v8.87a6.23,6.23,0,0,1-.15,1.39,3.08,3.08,0,0,1-.52,1.13,2.69,2.69,0,0,1-1,.77A3.65,3.65,0,0,1,282.63,124.15Zm1.88-13.77a1.57,1.57,0,0,1-1.1-.39,1.25,1.25,0,0,1-.43-1,1.27,1.27,0,0,1,.43-1,1.61,1.61,0,0,1,1.1-.37,1.58,1.58,0,0,1,1.09.37,1.28,1.28,0,0,1,.44,1,1.26,1.26,0,0,1-.44,1A1.55,1.55,0,0,1,284.51,110.38Z"/><path class="ef9a981c-3120-409c-87ab-71a70aa71cc0" d="M290.79,120.84a5.4,5.4,0,0,1-1.81-.34,5.56,5.56,0,0,1-1.61-.9l1.19-1.66a4.89,4.89,0,0,0,1.17.7,2.83,2.83,0,0,0,1.13.24,1.47,1.47,0,0,0,.86-.2.65.65,0,0,0,.27-.56.6.6,0,0,0-.15-.39,1.75,1.75,0,0,0-.41-.31,4,4,0,0,0-.59-.26l-.66-.26a8.84,8.84,0,0,1-.83-.38,3.34,3.34,0,0,1-.76-.53,2.73,2.73,0,0,1-.56-.74,2.17,2.17,0,0,1-.21-1,2.71,2.71,0,0,1,.24-1.14,2.46,2.46,0,0,1,.69-.88,3.25,3.25,0,0,1,1.08-.56,4.82,4.82,0,0,1,3.21.14,7.85,7.85,0,0,1,1.35.78l-1.19,1.59a4.53,4.53,0,0,0-.95-.56,2.48,2.48,0,0,0-.94-.2c-.67,0-1,.23-1,.7a.5.5,0,0,0,.15.37,1.29,1.29,0,0,0,.38.28,3.63,3.63,0,0,0,.56.24l.66.25a7.05,7.05,0,0,1,.85.37,3.38,3.38,0,0,1,.78.51,2.24,2.24,0,0,1,.56.75,2.26,2.26,0,0,1,.22,1,2.78,2.78,0,0,1-.23,1.13,2.48,2.48,0,0,1-.71.91,3.4,3.4,0,0,1-1.15.61A5,5,0,0,1,290.79,120.84Z"/><path class="ef9a981c-3120-409c-87ab-71a70aa71cc0" d="M256.45,92.39H203.63c-3.37-1.22-4.42-3.72-4.41-7.17q.12-28,0-56c0-3.45,1-5.94,4.41-7.16H239c4.62.82,8.1,3.48,11.17,6.87,1.92,2.12,4,4.07,6.05,6.08a15.12,15.12,0,0,1,4.65,11.18c0,13-.06,26,0,39C260.88,88.67,259.82,91.17,256.45,92.39ZM238.88,26.62a13.41,13.41,0,0,0-1.42-.14c-10.67,0-21.35,0-32,0-1.37,0-1.83.6-1.81,1.9,0,3.64,0,7.28,0,10.93q0,23.27,0,46.53c0,1.3.13,2.22,1.8,2.22q24.6,0,49.21,0c1.23,0,1.81-.45,1.81-1.73q0-20.46,0-40.92c0-1.09-.37-1.41-1.45-1.4-4.79.05-9.58,0-14.37,0h-1.75Zm15,13L243.31,28.92V39.61Z"/><path class="ef9a981c-3120-409c-87ab-71a70aa71cc0" d="M215.15,50v-.93h30a1,1,0,0,1,.64.1v.72c-.1,0-.09.13-.1.21q-.26,2.78-.5,5.53c-.32,3.66-.64,7.31-1,11-.39,4.42-.8,8.84-1.18,13.27a.61.61,0,0,1-.54.64q-5.85,1.61-11.68,3.24a1.49,1.49,0,0,1-.81,0c-1.07-.31-2.14-.6-3.21-.89l-8.47-2.36c-.22-.06-.43-.08-.46-.42-.18-2.26-.4-4.51-.6-6.77-.29-3.26-.57-6.52-.86-9.78-.34-3.74-.66-7.48-1-11.22A8.91,8.91,0,0,0,215.15,50ZM230.5,67.12v6l-.1.06c-1.25-.34-2.5-.7-3.75-1a.57.57,0,0,1-.51-.62c0-.74-.13-1.47-.18-2.21,0-.29-.13-.37-.4-.36-1.05,0-2.1,0-3.14,0-.36,0-.39.15-.36.43.17,1.77.33,3.55.49,5.32,0,.22.08.33.3.39l7.52,2.06.13.06c0,1.16,0,2.33,0,3.5,0,.3,0,.43.41.33l9.3-2.58c.33-.09.49-.26.48-.56a14,14,0,0,1,.13-1.58c0-.9.13-1.81.21-2.71.13-1.35.27-2.71.39-4.07s.21-2.62.33-3.93.27-2.68.39-4,.2-2.79.33-4.18c.15-1.72.32-3.43.5-5.15,0-.45-.08-.62-.58-.62-3.5,0-7,0-10.5,0-1.4,0-1.4,0-1.38,1.4l-.56,0c-2,0-4,0-6,0-.48,0-.72.06-.71.62a15,15,0,0,1-.16,1.63c-.34,3.76-.67,7.52-1,11.27,0,.4.07.49.46.49,2.16,0,4.32,0,6.48,0a7.16,7.16,0,0,0,1.39,0Z"/><path class="adc63225-17b0-471d-8d58-38a7ea4c829a" d="M230.5,53.08c0-1.4,0-1.4,1.38-1.4,3.5,0,7,0,10.5,0,.5,0,.63.17.58.62-.18,1.72-.35,3.43-.5,5.15-.13,1.39-.21,2.79-.33,4.18s-.27,2.68-.39,4-.21,2.62-.33,3.93-.26,2.72-.39,4.07c-.08.9-.17,1.81-.21,2.71a14,14,0,0,0-.13,1.58c0,.3-.15.47-.48.56l-9.3,2.58c-.37.1-.41,0-.41-.33,0-1.17,0-2.34,0-3.5a1.62,1.62,0,0,1,.28-.11l6-1.67a3.5,3.5,0,0,0,1.4-.44c.36-.33.19-1,.24-1.47.3-3.26.59-6.52.9-9.77,0-.45-.06-.57-.53-.57-2.77,0-5.55,0-8.32,0V57.13c1.4.07,2.8.16,4.21.21.36,0,.46.14.49.47.07,1,.18,2,.26,3.07,0,.32.08.49.47.48,1,0,2.05,0,3.08,0,.31,0,.39-.11.36-.39q-.12-1.12-.21-2.25l-.45-5.17c0-.25,0-.45-.39-.45l-7.81,0Z"/><path class="e8632955-219b-40a2-8c03-a632f84b2230" d="M230.4,67.06a7.16,7.16,0,0,1-1.39,0c-2.16,0-4.32,0-6.48,0-.39,0-.49-.09-.46-.49.36-3.75.69-7.51,1-11.27a15,15,0,0,0,.16-1.63c0-.56.23-.63.71-.62,2,0,4,0,6,0l.56,0v.05c0,1.33,0,2.67,0,4v0c-1.08,0-2.16.07-3.24.07-.35,0-.45.1-.48.45-.14,1.71-.29,3.42-.47,5.12,0,.36.05.43.38.43,1.24,0,2.47,0,3.71,0Z"/><path class="a0a0d053-cade-49cb-aa89-5609bbdbf559" d="M230.4,67.06V63.24l.1,0c2.77,0,5.55,0,8.32,0,.47,0,.57.12.53.57-.31,3.25-.6,6.51-.9,9.77,0,.5.12,1.14-.24,1.47a3.5,3.5,0,0,1-1.4.44l-6,1.67a1.62,1.62,0,0,0-.28.11l-.13-.06,0-4,.1-.06,4-1c.18,0,.26-.12.27-.3.13-1.45.27-2.9.4-4.35,0-.25,0-.37-.32-.37l-4.31,0Z"/><path class="e8632955-219b-40a2-8c03-a632f84b2230" d="M230.4,73.21l0,4-7.52-2.06c-.22-.06-.28-.17-.3-.39-.16-1.77-.32-3.55-.49-5.32,0-.28,0-.44.36-.43,1,0,2.09,0,3.14,0,.27,0,.39.07.4.36,0,.74.16,1.47.18,2.21a.57.57,0,0,0,.51.62C227.9,72.51,229.15,72.87,230.4,73.21Z"/><path class="adc63225-17b0-471d-8d58-38a7ea4c829a" d="M230.5,67.12l4.31,0c.29,0,.35.12.32.37-.13,1.45-.27,2.9-.4,4.35,0,.18-.09.25-.27.3l-4,1Z"/><path class="a0a0d053-cade-49cb-aa89-5609bbdbf559" d="M230.49,57.13c0-1.33,0-2.67,0-4l7.81,0c.36,0,.37.2.39.45l.45,5.17q.09,1.13.21,2.25c0,.28-.05.4-.36.39-1,0-2.06,0-3.08,0-.39,0-.45-.16-.47-.48-.08-1-.19-2-.26-3.07,0-.33-.13-.46-.49-.47C233.29,57.29,231.89,57.2,230.49,57.13Z"/><path class="ef9a981c-3120-409c-87ab-71a70aa71cc0" d="M230.5,63.21l-.1,0c-1.24,0-2.47,0-3.71,0-.33,0-.42-.07-.38-.43.18-1.7.33-3.41.47-5.12,0-.35.13-.45.48-.45,1.08,0,2.16,0,3.24-.07Z"/><path class="eff5d3b7-570d-4918-bbe3-bbcf3b13f250" d="M352.15,139.69a1.26,1.26,0,0,1-.51-.11,1.13,1.13,0,0,1-.43-.29,1.44,1.44,0,0,1-.29-.46,1.36,1.36,0,0,1-.11-.58,1.46,1.46,0,0,1,.11-.6,1.37,1.37,0,0,1,.72-.75,1.24,1.24,0,0,1,1,0,1.43,1.43,0,0,1,.73.75,1.64,1.64,0,0,1,.11.6,1.54,1.54,0,0,1-.11.58,1.31,1.31,0,0,1-.3.46,1.06,1.06,0,0,1-.43.29A1.26,1.26,0,0,1,352.15,139.69Z"/><path class="eff5d3b7-570d-4918-bbe3-bbcf3b13f250" d="M359.67,141.54a2.82,2.82,0,0,1-1.09-.2,2.44,2.44,0,0,1-.87-.59,2.85,2.85,0,0,1-.57-1,3.71,3.71,0,0,1-.21-1.29,3.31,3.31,0,0,1,.23-1.3,2.81,2.81,0,0,1,.61-1,2.59,2.59,0,0,1,.89-.6,2.8,2.8,0,0,1,1.08-.2,2.12,2.12,0,0,1,1,.2,3.76,3.76,0,0,1,.72.48l-.5.65a2.36,2.36,0,0,0-.54-.37,1.33,1.33,0,0,0-.63-.15,1.63,1.63,0,0,0-.73.16,1.74,1.74,0,0,0-.58.47,2.17,2.17,0,0,0-.37.71,3,3,0,0,0-.14.92,2.9,2.9,0,0,0,.13.91,2.12,2.12,0,0,0,.37.7,1.51,1.51,0,0,0,.57.46,1.63,1.63,0,0,0,.73.16,1.72,1.72,0,0,0,.75-.17,3.38,3.38,0,0,0,.62-.42l.43.66a3.1,3.1,0,0,1-.88.55A2.62,2.62,0,0,1,359.67,141.54Z"/><path class="eff5d3b7-570d-4918-bbe3-bbcf3b13f250" d="M362.83,141.4v-5.83h.82l.08,1.05h0a2.73,2.73,0,0,1,.73-.87,1.45,1.45,0,0,1,.92-.32,1.77,1.77,0,0,1,.63.11l-.19.87a1.8,1.8,0,0,0-.27-.07,1.26,1.26,0,0,0-.3,0,1.3,1.3,0,0,0-.77.3,2.37,2.37,0,0,0-.7,1v3.74Z"/><path class="eff5d3b7-570d-4918-bbe3-bbcf3b13f250" d="M369.24,141.54a2.7,2.7,0,0,1-1.1-.21,2.52,2.52,0,0,1-.89-.59,2.73,2.73,0,0,1-.59-1,3.61,3.61,0,0,1-.22-1.28,3.49,3.49,0,0,1,.23-1.29,2.91,2.91,0,0,1,.58-1,2.7,2.7,0,0,1,.84-.6,2.32,2.32,0,0,1,1-.21,2.4,2.4,0,0,1,1,.19,1.91,1.91,0,0,1,.73.55,2.43,2.43,0,0,1,.45.86,3.67,3.67,0,0,1,.16,1.13c0,.11,0,.21,0,.31a1,1,0,0,1,0,.26h-3.93a2.28,2.28,0,0,0,.58,1.48,1.81,1.81,0,0,0,1.36.54,2.35,2.35,0,0,0,.77-.12,3.89,3.89,0,0,0,.68-.33l.35.65a5.17,5.17,0,0,1-.85.42A3,3,0,0,1,369.24,141.54ZM367.4,138h3.12a2.11,2.11,0,0,0-.37-1.35,1.31,1.31,0,0,0-1.07-.46,1.52,1.52,0,0,0-.59.12,1.46,1.46,0,0,0-.51.35,2,2,0,0,0-.38.57A2.8,2.8,0,0,0,367.4,138Z"/><path class="eff5d3b7-570d-4918-bbe3-bbcf3b13f250" d="M374,141.54a1.74,1.74,0,0,1-1.21-.43,1.51,1.51,0,0,1-.49-1.22,1.61,1.61,0,0,1,.85-1.47,7,7,0,0,1,2.73-.71,2.35,2.35,0,0,0-.06-.54,1.32,1.32,0,0,0-.18-.47.91.91,0,0,0-.37-.33,1.15,1.15,0,0,0-.59-.13,2.48,2.48,0,0,0-.95.19,4.53,4.53,0,0,0-.79.44l-.39-.69a6.6,6.6,0,0,1,1-.51,3.37,3.37,0,0,1,1.29-.24,1.77,1.77,0,0,1,1.55.65,2.9,2.9,0,0,1,.48,1.75v3.57h-.81l-.09-.69h0a4.81,4.81,0,0,1-.9.59A2.3,2.3,0,0,1,374,141.54Zm.29-.79a1.65,1.65,0,0,0,.79-.19,4.17,4.17,0,0,0,.8-.59v-1.62a10.56,10.56,0,0,0-1.23.23,3.35,3.35,0,0,0-.81.31,1.19,1.19,0,0,0-.44.42,1,1,0,0,0-.14.51.84.84,0,0,0,.3.72A1.23,1.23,0,0,0,374.29,140.75Z"/><path class="eff5d3b7-570d-4918-bbe3-bbcf3b13f250" d="M377.84,143.32l3.21-10.44h.72l-3.21,10.44Z"/><path class="eff5d3b7-570d-4918-bbe3-bbcf3b13f250" d="M385.49,141.54a2.08,2.08,0,0,1-.85-.19,3.27,3.27,0,0,1-.82-.55h0l-.09.6h-.79v-8.54h1v2.33l0,1.05a4.19,4.19,0,0,1,.86-.58,2.06,2.06,0,0,1,1-.23,2.26,2.26,0,0,1,1,.21,2,2,0,0,1,.73.6,2.86,2.86,0,0,1,.44.93,4.63,4.63,0,0,1,.15,1.22,3.91,3.91,0,0,1-.21,1.33,3,3,0,0,1-.55,1,2.22,2.22,0,0,1-.8.61A2.13,2.13,0,0,1,385.49,141.54Zm-.17-.82a1.54,1.54,0,0,0,.67-.16,1.52,1.52,0,0,0,.52-.46,2.16,2.16,0,0,0,.35-.73,3.25,3.25,0,0,0,.13-1,4.6,4.6,0,0,0-.08-.87,1.91,1.91,0,0,0-.28-.68,1.24,1.24,0,0,0-.47-.44,1.58,1.58,0,0,0-.71-.16,2.47,2.47,0,0,0-1.56.79v3.07a2.46,2.46,0,0,0,.77.47A2,2,0,0,0,385.32,140.72Z"/><path class="eff5d3b7-570d-4918-bbe3-bbcf3b13f250" d="M391.81,141.54a2.51,2.51,0,0,1-1-.2,2.41,2.41,0,0,1-.86-.59,2.9,2.9,0,0,1-.6-1,3.92,3.92,0,0,1,0-2.59,3,3,0,0,1,.6-1,2.57,2.57,0,0,1,.86-.6,2.51,2.51,0,0,1,1-.2,2.59,2.59,0,0,1,1,.2,2.67,2.67,0,0,1,.86.6,3.11,3.11,0,0,1,.59,1,3.92,3.92,0,0,1,0,2.59,3.06,3.06,0,0,1-.59,1,2.5,2.5,0,0,1-.86.59A2.59,2.59,0,0,1,391.81,141.54Zm0-.81a1.46,1.46,0,0,0,.69-.16,1.65,1.65,0,0,0,.53-.46,2.08,2.08,0,0,0,.34-.7,3.23,3.23,0,0,0,.12-.91,3.31,3.31,0,0,0-.12-.92,2.13,2.13,0,0,0-.34-.71,1.68,1.68,0,0,0-.53-.47,1.46,1.46,0,0,0-.69-.16,1.42,1.42,0,0,0-.68.16,1.61,1.61,0,0,0-.54.47,2.34,2.34,0,0,0-.34.71,3.31,3.31,0,0,0-.12.92,3.23,3.23,0,0,0,.12.91,2.28,2.28,0,0,0,.34.7,1.58,1.58,0,0,0,.54.46A1.42,1.42,0,0,0,391.81,140.73Z"/><path class="eff5d3b7-570d-4918-bbe3-bbcf3b13f250" d="M396.05,141.4v-5.83h.81l.09,1.05h0a2.87,2.87,0,0,1,.73-.87,1.46,1.46,0,0,1,.93-.32,1.71,1.71,0,0,1,.62.11l-.19.87a1.45,1.45,0,0,0-.26-.07,1.26,1.26,0,0,0-.3,0,1.32,1.32,0,0,0-.78.3,2.46,2.46,0,0,0-.7,1v3.74Z"/><path class="eff5d3b7-570d-4918-bbe3-bbcf3b13f250" d="M400.21,141.4v-5.83H401l.08,1.05h0a2.73,2.73,0,0,1,.73-.87,1.45,1.45,0,0,1,.92-.32,1.77,1.77,0,0,1,.63.11l-.19.87a1.8,1.8,0,0,0-.27-.07,1.26,1.26,0,0,0-.3,0,1.3,1.3,0,0,0-.77.3,2.37,2.37,0,0,0-.7,1v3.74Z"/><path class="eff5d3b7-570d-4918-bbe3-bbcf3b13f250" d="M405.43,141.54a1.74,1.74,0,0,1-1.21-.43,1.51,1.51,0,0,1-.49-1.22,1.61,1.61,0,0,1,.85-1.47,7,7,0,0,1,2.73-.71,2.35,2.35,0,0,0-.06-.54,1.32,1.32,0,0,0-.18-.47.91.91,0,0,0-.37-.33,1.17,1.17,0,0,0-.59-.13,2.48,2.48,0,0,0-.95.19,4.53,4.53,0,0,0-.79.44l-.39-.69a6.16,6.16,0,0,1,1-.51,3.37,3.37,0,0,1,1.29-.24,1.77,1.77,0,0,1,1.55.65,2.9,2.9,0,0,1,.48,1.75v3.57h-.81l-.09-.69h0a5.16,5.16,0,0,1-.9.59A2.3,2.3,0,0,1,405.43,141.54Zm.29-.79a1.65,1.65,0,0,0,.79-.19,4.17,4.17,0,0,0,.8-.59v-1.62a10.56,10.56,0,0,0-1.23.23,3.35,3.35,0,0,0-.81.31,1.19,1.19,0,0,0-.44.42,1,1,0,0,0-.14.51.84.84,0,0,0,.3.72A1.23,1.23,0,0,0,405.72,140.75Z"/><path class="eff5d3b7-570d-4918-bbe3-bbcf3b13f250" d="M413.88,141.54a1.77,1.77,0,0,1-1.22-.43,1.54,1.54,0,0,1-.48-1.22,1.61,1.61,0,0,1,.85-1.47,6.92,6.92,0,0,1,2.72-.71,3.1,3.1,0,0,0-.05-.54,1.33,1.33,0,0,0-.19-.47,1,1,0,0,0-.36-.33,1.21,1.21,0,0,0-.6-.13,2.56,2.56,0,0,0-.95.19,4.93,4.93,0,0,0-.79.44l-.38-.69a6.46,6.46,0,0,1,1-.51,3.46,3.46,0,0,1,1.3-.24,1.79,1.79,0,0,1,1.55.65,2.9,2.9,0,0,1,.48,1.75v3.57h-.82l-.08-.69h0a4.81,4.81,0,0,1-.9.59A2.26,2.26,0,0,1,413.88,141.54Zm.29-.79a1.67,1.67,0,0,0,.79-.19,4.14,4.14,0,0,0,.79-.59v-1.62a10.56,10.56,0,0,0-1.23.23,3.26,3.26,0,0,0-.8.31,1.23,1.23,0,0,0-.45.42,1,1,0,0,0-.13.51.84.84,0,0,0,.3.72A1.23,1.23,0,0,0,414.17,140.75Z"/><path class="eff5d3b7-570d-4918-bbe3-bbcf3b13f250" d="M418.59,141.4v-5.83h.81l.09,1.05h0a2.73,2.73,0,0,1,.73-.87,1.46,1.46,0,0,1,.93-.32,1.71,1.71,0,0,1,.62.11l-.19.87a1.71,1.71,0,0,0-.26-.07,1.26,1.26,0,0,0-.3,0,1.32,1.32,0,0,0-.78.3,2.37,2.37,0,0,0-.7,1v3.74Z"/><path class="eff5d3b7-570d-4918-bbe3-bbcf3b13f250" d="M424.93,141.54a2.8,2.8,0,0,1-1.08-.2,2.44,2.44,0,0,1-.87-.59,2.85,2.85,0,0,1-.57-1,3.71,3.71,0,0,1-.21-1.29,3.31,3.31,0,0,1,.23-1.3,2.81,2.81,0,0,1,.61-1,2.59,2.59,0,0,1,.89-.6,2.8,2.8,0,0,1,1.08-.2,2.12,2.12,0,0,1,1,.2,3.76,3.76,0,0,1,.72.48l-.5.65a2.36,2.36,0,0,0-.54-.37,1.33,1.33,0,0,0-.63-.15,1.63,1.63,0,0,0-.73.16,1.65,1.65,0,0,0-.58.47,2.17,2.17,0,0,0-.37.71,2.69,2.69,0,0,0-.14.92,2.9,2.9,0,0,0,.13.91,2.12,2.12,0,0,0,.37.7,1.51,1.51,0,0,0,.57.46,1.6,1.6,0,0,0,.73.16,1.72,1.72,0,0,0,.75-.17,3.38,3.38,0,0,0,.62-.42l.43.66a3.25,3.25,0,0,1-.88.55A2.63,2.63,0,0,1,424.93,141.54Z"/><path class="eff5d3b7-570d-4918-bbe3-bbcf3b13f250" d="M428.1,141.4v-8.54h1v2.33l0,1.2a5.41,5.41,0,0,1,.87-.68,2,2,0,0,1,1.07-.28,1.57,1.57,0,0,1,1.35.57,2.82,2.82,0,0,1,.43,1.71v3.69h-1v-3.56a2.09,2.09,0,0,0-.27-1.2,1,1,0,0,0-.84-.36,1.44,1.44,0,0,0-.8.22,5.94,5.94,0,0,0-.8.68v4.22Z"/><path class="eff5d3b7-570d-4918-bbe3-bbcf3b13f250" d="M435.13,134.37a.68.68,0,0,1-.48-.18.63.63,0,0,1,0-.92.72.72,0,0,1,.48-.17.73.73,0,0,1,.49.17.63.63,0,0,1,0,.92A.69.69,0,0,1,435.13,134.37Zm-.5,7v-5.83h1v5.83Z"/><path class="eff5d3b7-570d-4918-bbe3-bbcf3b13f250" d="M438.84,141.4l-2.1-5.83h1l1.11,3.31q.12.44.27.87l.27.85h0l.27-.85c.09-.29.17-.58.26-.87l1.11-3.31h1L440,141.4Z"/><path class="eff5d3b7-570d-4918-bbe3-bbcf3b13f250" d="M445.41,141.54a2.52,2.52,0,0,1-1-.2,2.5,2.5,0,0,1-.86-.59,2.88,2.88,0,0,1-.59-1,3.92,3.92,0,0,1,0-2.59,2.93,2.93,0,0,1,.59-1,2.67,2.67,0,0,1,.86-.6,2.73,2.73,0,0,1,2.05,0,2.67,2.67,0,0,1,.86.6,2.78,2.78,0,0,1,.59,1,3.76,3.76,0,0,1,0,2.59,2.73,2.73,0,0,1-.59,1,2.57,2.57,0,0,1-1.88.79Zm0-.81a1.46,1.46,0,0,0,1.21-.62,1.91,1.91,0,0,0,.34-.7,3.23,3.23,0,0,0,.12-.91,3.31,3.31,0,0,0-.12-.92,2,2,0,0,0-.34-.71,1.49,1.49,0,0,0-.53-.47,1.55,1.55,0,0,0-1.37,0,1.49,1.49,0,0,0-.53.47,2,2,0,0,0-.34.71,3.31,3.31,0,0,0-.12.92,3.23,3.23,0,0,0,.12.91,1.91,1.91,0,0,0,.34.7,1.46,1.46,0,0,0,1.22.62Z"/><path class="eff5d3b7-570d-4918-bbe3-bbcf3b13f250" d="M451.17,141.54a3.15,3.15,0,0,1-1.19-.22,3.69,3.69,0,0,1-1-.58l.5-.66a3.32,3.32,0,0,0,.78.5,2.12,2.12,0,0,0,.93.2,1.26,1.26,0,0,0,.87-.27.83.83,0,0,0,.28-.64.65.65,0,0,0-.12-.4,1.18,1.18,0,0,0-.3-.29,2.5,2.5,0,0,0-.43-.23l-.48-.19c-.21-.07-.41-.15-.62-.24a2.78,2.78,0,0,1-.56-.34,1.58,1.58,0,0,1-.4-.46,1.19,1.19,0,0,1-.16-.64,1.58,1.58,0,0,1,.14-.65,1.38,1.38,0,0,1,.4-.53,1.91,1.91,0,0,1,.63-.35,2.66,2.66,0,0,1,.84-.12,2.59,2.59,0,0,1,1,.19,3.42,3.42,0,0,1,.8.46l-.47.63a2.89,2.89,0,0,0-.63-.37,1.63,1.63,0,0,0-.7-.15,1.11,1.11,0,0,0-.81.26.78.78,0,0,0-.26.58.61.61,0,0,0,.11.36.88.88,0,0,0,.28.26,3.29,3.29,0,0,0,.42.21l.49.18.63.25a2.66,2.66,0,0,1,.57.33,1.78,1.78,0,0,1,.41.49,1.37,1.37,0,0,1,.16.7,1.71,1.71,0,0,1-.14.67,1.45,1.45,0,0,1-.41.55,1.81,1.81,0,0,1-.67.38A2.82,2.82,0,0,1,451.17,141.54Z"/><path class="a871fd55-f4a7-4e31-8559-265e2e47d6eb" d="M352.15,153.69a1.26,1.26,0,0,1-.51-.11,1.13,1.13,0,0,1-.43-.29,1.44,1.44,0,0,1-.29-.46,1.36,1.36,0,0,1-.11-.58,1.46,1.46,0,0,1,.11-.6,1.37,1.37,0,0,1,.72-.75,1.24,1.24,0,0,1,1,0,1.43,1.43,0,0,1,.73.75,1.64,1.64,0,0,1,.11.6,1.54,1.54,0,0,1-.11.58,1.31,1.31,0,0,1-.3.46,1.06,1.06,0,0,1-.43.29A1.26,1.26,0,0,1,352.15,153.69Z"/><path class="a871fd55-f4a7-4e31-8559-265e2e47d6eb" d="M359.67,155.54a2.82,2.82,0,0,1-1.09-.2,2.44,2.44,0,0,1-.87-.59,2.85,2.85,0,0,1-.57-1,3.71,3.71,0,0,1-.21-1.29,3.31,3.31,0,0,1,.23-1.3,2.81,2.81,0,0,1,.61-1,2.59,2.59,0,0,1,.89-.6,2.8,2.8,0,0,1,1.08-.2,2.12,2.12,0,0,1,1,.2,3.76,3.76,0,0,1,.72.48l-.5.65a2.36,2.36,0,0,0-.54-.37,1.33,1.33,0,0,0-.63-.15,1.63,1.63,0,0,0-.73.16,1.74,1.74,0,0,0-.58.47,2.17,2.17,0,0,0-.37.71,3,3,0,0,0-.14.92,2.9,2.9,0,0,0,.13.91,2.12,2.12,0,0,0,.37.7,1.51,1.51,0,0,0,.57.46,1.63,1.63,0,0,0,.73.16,1.72,1.72,0,0,0,.75-.17,3.38,3.38,0,0,0,.62-.42l.43.66a3.1,3.1,0,0,1-.88.55A2.62,2.62,0,0,1,359.67,155.54Z"/><path class="a871fd55-f4a7-4e31-8559-265e2e47d6eb" d="M362.83,155.4v-5.83h.82l.08,1.05h0a2.73,2.73,0,0,1,.73-.87,1.45,1.45,0,0,1,.92-.32,1.77,1.77,0,0,1,.63.11l-.19.87a1.8,1.8,0,0,0-.27-.07,1.26,1.26,0,0,0-.3,0,1.3,1.3,0,0,0-.77.3,2.37,2.37,0,0,0-.7,1v3.74Z"/><path class="a871fd55-f4a7-4e31-8559-265e2e47d6eb" d="M369.24,155.54a2.7,2.7,0,0,1-1.1-.21,2.52,2.52,0,0,1-.89-.59,2.73,2.73,0,0,1-.59-1,3.61,3.61,0,0,1-.22-1.28,3.49,3.49,0,0,1,.23-1.29,2.91,2.91,0,0,1,.58-1,2.7,2.7,0,0,1,.84-.6,2.32,2.32,0,0,1,1-.21,2.4,2.4,0,0,1,1,.19,1.91,1.91,0,0,1,.73.55,2.43,2.43,0,0,1,.45.86,3.67,3.67,0,0,1,.16,1.13c0,.11,0,.21,0,.31a1,1,0,0,1,0,.26h-3.93a2.28,2.28,0,0,0,.58,1.48,1.81,1.81,0,0,0,1.36.54,2.35,2.35,0,0,0,.77-.12,3.89,3.89,0,0,0,.68-.33l.35.65a5.17,5.17,0,0,1-.85.42A3,3,0,0,1,369.24,155.54ZM367.4,152h3.12a2.11,2.11,0,0,0-.37-1.35,1.31,1.31,0,0,0-1.07-.46,1.52,1.52,0,0,0-.59.12,1.46,1.46,0,0,0-.51.35,2,2,0,0,0-.38.57A2.8,2.8,0,0,0,367.4,152Z"/><path class="a871fd55-f4a7-4e31-8559-265e2e47d6eb" d="M374,155.54a1.74,1.74,0,0,1-1.21-.43,1.51,1.51,0,0,1-.49-1.22,1.61,1.61,0,0,1,.85-1.47,7,7,0,0,1,2.73-.71,2.35,2.35,0,0,0-.06-.54,1.32,1.32,0,0,0-.18-.47.91.91,0,0,0-.37-.33,1.15,1.15,0,0,0-.59-.13,2.48,2.48,0,0,0-.95.19,4.53,4.53,0,0,0-.79.44l-.39-.69a6.6,6.6,0,0,1,1-.51,3.37,3.37,0,0,1,1.29-.24,1.77,1.77,0,0,1,1.55.65,2.9,2.9,0,0,1,.48,1.75v3.57h-.81l-.09-.69h0a4.81,4.81,0,0,1-.9.59A2.3,2.3,0,0,1,374,155.54Zm.29-.79a1.65,1.65,0,0,0,.79-.19,4.17,4.17,0,0,0,.8-.59v-1.62a10.56,10.56,0,0,0-1.23.23,3.35,3.35,0,0,0-.81.31,1.19,1.19,0,0,0-.44.42,1,1,0,0,0-.14.51.84.84,0,0,0,.3.72A1.23,1.23,0,0,0,374.29,154.75Z"/><path class="a871fd55-f4a7-4e31-8559-265e2e47d6eb" d="M381.11,155.4v-5.83h.81l.09,1.05h0a3,3,0,0,1,.73-.87,1.48,1.48,0,0,1,.93-.32,1.81,1.81,0,0,1,.63.11l-.2.87a1.45,1.45,0,0,0-.26-.07,1.26,1.26,0,0,0-.3,0,1.32,1.32,0,0,0-.78.3,2.46,2.46,0,0,0-.7,1v3.74Z"/><path class="a871fd55-f4a7-4e31-8559-265e2e47d6eb" d="M387.52,155.54a2.66,2.66,0,0,1-1.1-.21,2.43,2.43,0,0,1-.89-.59,2.73,2.73,0,0,1-.59-1,3.4,3.4,0,0,1-.22-1.28,3.49,3.49,0,0,1,.22-1.29,3.11,3.11,0,0,1,.59-1,2.49,2.49,0,0,1,.84-.6,2.32,2.32,0,0,1,1-.21,2.4,2.4,0,0,1,1,.19,2,2,0,0,1,.73.55,2.61,2.61,0,0,1,.45.86,4,4,0,0,1,.16,1.13c0,.11,0,.21,0,.31a1.86,1.86,0,0,1,0,.26h-3.94a2.29,2.29,0,0,0,.59,1.48,1.79,1.79,0,0,0,1.36.54,2.39,2.39,0,0,0,.77-.12,4.27,4.27,0,0,0,.68-.33l.35.65a4.91,4.91,0,0,1-.86.42A2.91,2.91,0,0,1,387.52,155.54ZM385.68,152h3.12a2.11,2.11,0,0,0-.38-1.35,1.28,1.28,0,0,0-1.06-.46,1.48,1.48,0,0,0-.59.12,1.46,1.46,0,0,0-.51.35,1.78,1.78,0,0,0-.38.57A2.48,2.48,0,0,0,385.68,152Z"/><path class="a871fd55-f4a7-4e31-8559-265e2e47d6eb" d="M392.63,155.54a3.18,3.18,0,0,1-1.19-.22,3.79,3.79,0,0,1-1-.58l.49-.66a3.59,3.59,0,0,0,.79.5,2.06,2.06,0,0,0,.93.2,1.22,1.22,0,0,0,.86-.27.84.84,0,0,0,.29-.64.65.65,0,0,0-.12-.4,1.23,1.23,0,0,0-.31-.29A2.18,2.18,0,0,0,393,153l-.47-.19q-.32-.1-.63-.24a3.09,3.09,0,0,1-.56-.34,1.75,1.75,0,0,1-.4-.46,1.29,1.29,0,0,1-.15-.64,1.57,1.57,0,0,1,.13-.65,1.49,1.49,0,0,1,.4-.53,1.91,1.91,0,0,1,.63-.35,2.75,2.75,0,0,1,.84-.12,2.53,2.53,0,0,1,1,.19,3.23,3.23,0,0,1,.8.46l-.47.63a2.82,2.82,0,0,0-.62-.37,1.67,1.67,0,0,0-.71-.15,1.11,1.11,0,0,0-.81.26.78.78,0,0,0-.26.58.61.61,0,0,0,.11.36.92.92,0,0,0,.29.26,3.13,3.13,0,0,0,.41.21l.49.18.63.25a2.66,2.66,0,0,1,.57.33,1.49,1.49,0,0,1,.41.49,1.37,1.37,0,0,1,.16.7,1.7,1.7,0,0,1-.13.67,1.56,1.56,0,0,1-.41.55,1.89,1.89,0,0,1-.67.38A2.92,2.92,0,0,1,392.63,155.54Z"/><path class="a871fd55-f4a7-4e31-8559-265e2e47d6eb" d="M396.13,157.86v-8.29H397l.08.67h0a4.36,4.36,0,0,1,.87-.57,2.13,2.13,0,0,1,1-.24,2.26,2.26,0,0,1,1,.21,2.07,2.07,0,0,1,.72.6,2.85,2.85,0,0,1,.43.93,4.71,4.71,0,0,1,.15,1.23,3.91,3.91,0,0,1-.2,1.33,3.14,3.14,0,0,1-.55,1,2.17,2.17,0,0,1-.81.61,2.1,2.1,0,0,1-1,.21,2,2,0,0,1-.81-.17,4.57,4.57,0,0,1-.81-.5l0,1v2Zm2.42-3.14a1.46,1.46,0,0,0,.66-.16,1.55,1.55,0,0,0,.53-.46,2.36,2.36,0,0,0,.35-.73,3.63,3.63,0,0,0,.12-1,3.9,3.9,0,0,0-.08-.87,2.1,2.1,0,0,0-.27-.68,1.2,1.2,0,0,0-.48-.44,1.52,1.52,0,0,0-1.45.05,4.44,4.44,0,0,0-.81.58v3.07a2.57,2.57,0,0,0,.77.47A1.91,1.91,0,0,0,398.55,154.72Z"/><path class="a871fd55-f4a7-4e31-8559-265e2e47d6eb" d="M404.5,155.54a1.57,1.57,0,0,1-1.36-.57,2.81,2.81,0,0,1-.43-1.7v-3.7h1v3.56a2.17,2.17,0,0,0,.25,1.2,1,1,0,0,0,.84.36,1.37,1.37,0,0,0,.8-.23,4.06,4.06,0,0,0,.77-.75v-4.14h1v5.83h-.81l-.09-.91h0a3.82,3.82,0,0,1-.86.77A1.93,1.93,0,0,1,404.5,155.54Z"/><path class="a871fd55-f4a7-4e31-8559-265e2e47d6eb" d="M411.69,155.54a2.66,2.66,0,0,1-1.1-.21,2.43,2.43,0,0,1-.89-.59,2.73,2.73,0,0,1-.59-1,3.4,3.4,0,0,1-.22-1.28,3.49,3.49,0,0,1,.22-1.29,3.11,3.11,0,0,1,.59-1,2.55,2.55,0,0,1,.83-.6,2.4,2.4,0,0,1,1-.21,2.46,2.46,0,0,1,1,.19,2,2,0,0,1,.73.55,2.81,2.81,0,0,1,.45.86,4,4,0,0,1,.15,1.13v.31c0,.1,0,.18,0,.26h-3.94a2.34,2.34,0,0,0,.58,1.48,1.83,1.83,0,0,0,1.37.54,2.39,2.39,0,0,0,.77-.12,4.27,4.27,0,0,0,.68-.33l.35.65a4.91,4.91,0,0,1-.86.42A2.91,2.91,0,0,1,411.69,155.54ZM409.85,152H413a2.11,2.11,0,0,0-.38-1.35,1.28,1.28,0,0,0-1.06-.46,1.53,1.53,0,0,0-1.1.47,1.78,1.78,0,0,0-.38.57A2.48,2.48,0,0,0,409.85,152Z"/><path class="a871fd55-f4a7-4e31-8559-265e2e47d6eb" d="M416.8,155.54a3.18,3.18,0,0,1-1.19-.22,3.63,3.63,0,0,1-1-.58l.49-.66a3.54,3.54,0,0,0,.78.5,2.12,2.12,0,0,0,.93.2,1.23,1.23,0,0,0,.87-.27.84.84,0,0,0,.29-.64.65.65,0,0,0-.12-.4,1.23,1.23,0,0,0-.31-.29,2.18,2.18,0,0,0-.43-.23l-.48-.19-.62-.24a3.09,3.09,0,0,1-.56-.34,1.75,1.75,0,0,1-.4-.46,1.29,1.29,0,0,1-.16-.64,1.58,1.58,0,0,1,.14-.65,1.49,1.49,0,0,1,.4-.53,1.91,1.91,0,0,1,.63-.35,2.75,2.75,0,0,1,.84-.12,2.56,2.56,0,0,1,1,.19,3.23,3.23,0,0,1,.8.46l-.47.63a3.08,3.08,0,0,0-.62-.37,1.67,1.67,0,0,0-.71-.15,1.11,1.11,0,0,0-.81.26.78.78,0,0,0-.26.58.61.61,0,0,0,.11.36.92.92,0,0,0,.29.26,3.13,3.13,0,0,0,.41.21l.49.18.63.25a2.66,2.66,0,0,1,.57.33,1.63,1.63,0,0,1,.41.49,1.37,1.37,0,0,1,.16.7,1.54,1.54,0,0,1-.54,1.22,2,2,0,0,1-.67.38A2.92,2.92,0,0,1,416.8,155.54Z"/><path class="a871fd55-f4a7-4e31-8559-265e2e47d6eb" d="M421.9,155.54a1.89,1.89,0,0,1-.79-.14,1.27,1.27,0,0,1-.51-.4,1.32,1.32,0,0,1-.28-.61,3.24,3.24,0,0,1-.09-.79v-3.23h-.86v-.74l.91-.06.12-1.63h.83v1.63h1.57v.8h-1.57v3.24a1.54,1.54,0,0,0,.19.84.82.82,0,0,0,.71.29,1,1,0,0,0,.33-.05,1.6,1.6,0,0,0,.33-.11l.19.75a4,4,0,0,1-.52.15A2.74,2.74,0,0,1,421.9,155.54Z"/><path class="a871fd55-f4a7-4e31-8559-265e2e47d6eb" d="M425.21,155.54a1.77,1.77,0,0,1-1.22-.43,1.54,1.54,0,0,1-.48-1.22,1.61,1.61,0,0,1,.85-1.47,6.92,6.92,0,0,1,2.72-.71,3.1,3.1,0,0,0-.05-.54,1.33,1.33,0,0,0-.19-.47,1,1,0,0,0-.36-.33,1.21,1.21,0,0,0-.6-.13,2.56,2.56,0,0,0-.95.19,5.4,5.4,0,0,0-.79.44l-.38-.69a6.46,6.46,0,0,1,1-.51,3.46,3.46,0,0,1,1.3-.24,1.79,1.79,0,0,1,1.55.65,2.9,2.9,0,0,1,.48,1.75v3.57h-.82l-.08-.69h0a4.81,4.81,0,0,1-.9.59A2.26,2.26,0,0,1,425.21,155.54Zm.29-.79a1.67,1.67,0,0,0,.79-.19,4.14,4.14,0,0,0,.79-.59v-1.62a10.56,10.56,0,0,0-1.23.23,3.26,3.26,0,0,0-.8.31,1.23,1.23,0,0,0-.45.42,1,1,0,0,0-.13.51.84.84,0,0,0,.3.72A1.23,1.23,0,0,0,425.5,154.75Z"/><path class="eff5d3b7-570d-4918-bbe3-bbcf3b13f250" d="M200.17,141.4v-.82h1.75V135h-1.39v-.64a5.87,5.87,0,0,0,.92-.23,5.07,5.07,0,0,0,.7-.33h.76v6.83h1.58v.82Z"/><path class="eff5d3b7-570d-4918-bbe3-bbcf3b13f250" d="M206.25,143.51l-.61-.28a9.12,9.12,0,0,0,1-2.47,10.85,10.85,0,0,0,0-5.39,9.06,9.06,0,0,0-1-2.46l.61-.29a11.22,11.22,0,0,1,1.17,2.54,10.29,10.29,0,0,1,0,5.82A11,11,0,0,1,206.25,143.51Z"/><path class="eff5d3b7-570d-4918-bbe3-bbcf3b13f250" d="M214.57,141.54a2.7,2.7,0,0,1-1.1-.21,2.52,2.52,0,0,1-.89-.59,2.73,2.73,0,0,1-.59-1,3.61,3.61,0,0,1-.22-1.28,3.49,3.49,0,0,1,.23-1.29,2.91,2.91,0,0,1,.58-1,2.7,2.7,0,0,1,.84-.6,2.32,2.32,0,0,1,1-.21,2.4,2.4,0,0,1,1,.19,1.91,1.91,0,0,1,.73.55,2.43,2.43,0,0,1,.45.86,3.67,3.67,0,0,1,.16,1.13c0,.11,0,.21,0,.31a1,1,0,0,1,0,.26h-3.93a2.28,2.28,0,0,0,.58,1.48,1.81,1.81,0,0,0,1.36.54,2.35,2.35,0,0,0,.77-.12,3.89,3.89,0,0,0,.68-.33l.35.65a5.17,5.17,0,0,1-.85.42A3,3,0,0,1,214.57,141.54ZM212.73,138h3.12a2.11,2.11,0,0,0-.37-1.35,1.3,1.3,0,0,0-1.06-.46,1.53,1.53,0,0,0-.6.12,1.46,1.46,0,0,0-.51.35,2,2,0,0,0-.38.57A2.8,2.8,0,0,0,212.73,138Z"/><path class="eff5d3b7-570d-4918-bbe3-bbcf3b13f250" d="M218.16,141.4v-5.83H219l.09.84h0a5.15,5.15,0,0,1,.89-.7,2,2,0,0,1,1.07-.28,1.57,1.57,0,0,1,1.35.57,2.89,2.89,0,0,1,.43,1.71v3.69h-1v-3.56a2.18,2.18,0,0,0-.26-1.2,1,1,0,0,0-.84-.36,1.47,1.47,0,0,0-.81.22,5.94,5.94,0,0,0-.79.68v4.22Z"/><path class="eff5d3b7-570d-4918-bbe3-bbcf3b13f250" d="M226,141.4l-2.1-5.83h1l1.11,3.31c.08.29.18.58.27.87l.27.85h0c.08-.28.17-.57.26-.85s.18-.58.26-.87l1.11-3.31h1l-2.06,5.83Z"/><path class="eff5d3b7-570d-4918-bbe3-bbcf3b13f250" d="M230.65,134.53l-.5-.5,1.69-2,.7.66Zm-.32,6.87v-5.83h1v5.83Z"/><path class="eff5d3b7-570d-4918-bbe3-bbcf3b13f250" d="M234.62,141.54a1.72,1.72,0,0,1-1.21-.43,1.51,1.51,0,0,1-.49-1.22,1.61,1.61,0,0,1,.85-1.47,7,7,0,0,1,2.73-.71,2.35,2.35,0,0,0-.06-.54,1.16,1.16,0,0,0-.19-.47.89.89,0,0,0-.36-.33,1.19,1.19,0,0,0-.6-.13,2.47,2.47,0,0,0-.94.19,5,5,0,0,0-.8.44l-.38-.69a6.16,6.16,0,0,1,1-.51,3.37,3.37,0,0,1,1.29-.24,1.79,1.79,0,0,1,1.55.65,2.9,2.9,0,0,1,.48,1.75v3.57h-.82l-.08-.69h0a5.09,5.09,0,0,1-.89.59A2.33,2.33,0,0,1,234.62,141.54Zm.29-.79a1.65,1.65,0,0,0,.79-.19,4.51,4.51,0,0,0,.8-.59v-1.62a11.2,11.2,0,0,0-1.24.23,3.43,3.43,0,0,0-.8.31,1.19,1.19,0,0,0-.44.42.89.89,0,0,0-.14.51.84.84,0,0,0,.3.72A1.23,1.23,0,0,0,234.91,140.75Z"/><path class="eff5d3b7-570d-4918-bbe3-bbcf3b13f250" d="M242.77,141.54a.93.93,0,0,1-.8-.33,1.67,1.67,0,0,1-.24-1v-7.37h1v7.44a.53.53,0,0,0,.08.33.26.26,0,0,0,.2.1h.09l.12,0,.13.74a1,1,0,0,1-.22.07A1.67,1.67,0,0,1,242.77,141.54Z"/><path class="eff5d3b7-570d-4918-bbe3-bbcf3b13f250" d="M246.13,141.54a1.77,1.77,0,0,1-1.22-.43,1.54,1.54,0,0,1-.48-1.22,1.61,1.61,0,0,1,.85-1.47,6.92,6.92,0,0,1,2.72-.71,3.1,3.1,0,0,0-.05-.54,1.33,1.33,0,0,0-.19-.47,1,1,0,0,0-.36-.33,1.21,1.21,0,0,0-.6-.13,2.56,2.56,0,0,0-1,.19,4.93,4.93,0,0,0-.79.44l-.38-.69a6.46,6.46,0,0,1,1-.51,3.46,3.46,0,0,1,1.3-.24,1.79,1.79,0,0,1,1.55.65,2.9,2.9,0,0,1,.48,1.75v3.57h-.82l-.08-.69h0a4.81,4.81,0,0,1-.9.59A2.26,2.26,0,0,1,246.13,141.54Zm.29-.79a1.67,1.67,0,0,0,.79-.19A4.14,4.14,0,0,0,248,140v-1.62a10.56,10.56,0,0,0-1.23.23,3.26,3.26,0,0,0-.8.31,1.23,1.23,0,0,0-.45.42,1,1,0,0,0-.13.51.84.84,0,0,0,.3.72A1.23,1.23,0,0,0,246.42,140.75Z"/><path class="eff5d3b7-570d-4918-bbe3-bbcf3b13f250" d="M255.23,141.54a2.16,2.16,0,0,1-1.76-.79,3.41,3.41,0,0,1-.65-2.25,3.48,3.48,0,0,1,.21-1.28,3.15,3.15,0,0,1,.55-1,2.55,2.55,0,0,1,.81-.61,2.24,2.24,0,0,1,1-.21,2,2,0,0,1,.87.18,3.89,3.89,0,0,1,.76.49l-.05-1v-2.24h1v8.54h-.82l-.08-.68h0a3.65,3.65,0,0,1-.8.58A2,2,0,0,1,255.23,141.54Zm.21-.82a1.61,1.61,0,0,0,.77-.2,2.6,2.6,0,0,0,.72-.61v-3a2.34,2.34,0,0,0-.71-.48,2,2,0,0,0-.71-.14,1.37,1.37,0,0,0-.65.17,1.61,1.61,0,0,0-.53.45,2,2,0,0,0-.36.7,3,3,0,0,0-.14.92,2.78,2.78,0,0,0,.42,1.64A1.4,1.4,0,0,0,255.44,140.72Z"/><path class="eff5d3b7-570d-4918-bbe3-bbcf3b13f250" d="M261.24,141.54a1.75,1.75,0,0,1-1.22-.43,1.54,1.54,0,0,1-.48-1.22,1.61,1.61,0,0,1,.85-1.47,6.92,6.92,0,0,1,2.72-.71,3.1,3.1,0,0,0-.05-.54,1.33,1.33,0,0,0-.19-.47.91.91,0,0,0-.37-.33,1.15,1.15,0,0,0-.59-.13,2.56,2.56,0,0,0-1,.19,4.93,4.93,0,0,0-.79.44l-.38-.69a6.46,6.46,0,0,1,1-.51,3.42,3.42,0,0,1,1.3-.24,1.79,1.79,0,0,1,1.55.65,2.9,2.9,0,0,1,.48,1.75v3.57h-.82l-.08-.69h0a4.81,4.81,0,0,1-.9.59A2.26,2.26,0,0,1,261.24,141.54Zm.29-.79a1.67,1.67,0,0,0,.79-.19,4.14,4.14,0,0,0,.79-.59v-1.62a10.56,10.56,0,0,0-1.23.23,3.26,3.26,0,0,0-.8.31,1.15,1.15,0,0,0-.45.42,1,1,0,0,0-.13.51.84.84,0,0,0,.29.72A1.29,1.29,0,0,0,261.53,140.75Z"/><path class="eff5d3b7-570d-4918-bbe3-bbcf3b13f250" d="M267.61,141.54a1.81,1.81,0,0,1-.78-.14,1.23,1.23,0,0,1-.52-.4,1.43,1.43,0,0,1-.28-.61,3.24,3.24,0,0,1-.09-.79v-3.23h-.86v-.74l.91-.06.12-1.63h.83v1.63h1.57v.8h-1.57v3.24a1.45,1.45,0,0,0,.2.84.79.79,0,0,0,.7.29,1,1,0,0,0,.33-.05,1.6,1.6,0,0,0,.33-.11l.19.75a3.55,3.55,0,0,1-.52.15A2.74,2.74,0,0,1,267.61,141.54Z"/><path class="eff5d3b7-570d-4918-bbe3-bbcf3b13f250" d="M271.93,141.54a2.59,2.59,0,0,1-1-.2,2.37,2.37,0,0,1-.85-.59,2.9,2.9,0,0,1-.6-1,3.92,3.92,0,0,1,0-2.59,3,3,0,0,1,.6-1,2.53,2.53,0,0,1,.85-.6,2.75,2.75,0,0,1,2.06,0,2.53,2.53,0,0,1,.85.6,3,3,0,0,1,.6,1,3.92,3.92,0,0,1,0,2.59,2.9,2.9,0,0,1-.6,1,2.37,2.37,0,0,1-.85.59A2.59,2.59,0,0,1,271.93,141.54Zm0-.81a1.39,1.39,0,0,0,.68-.16,1.58,1.58,0,0,0,.54-.46,2.08,2.08,0,0,0,.34-.7,3.23,3.23,0,0,0,.12-.91,3.31,3.31,0,0,0-.12-.92,2.13,2.13,0,0,0-.34-.71,1.61,1.61,0,0,0-.54-.47,1.39,1.39,0,0,0-.68-.16,1.42,1.42,0,0,0-.68.16,1.61,1.61,0,0,0-.54.47,2.13,2.13,0,0,0-.34.71,3.31,3.31,0,0,0-.12.92,3.23,3.23,0,0,0,.12.91,2.08,2.08,0,0,0,.34.7,1.58,1.58,0,0,0,.54.46A1.42,1.42,0,0,0,271.93,140.73Z"/><path class="eff5d3b7-570d-4918-bbe3-bbcf3b13f250" d="M277.69,141.54a3.18,3.18,0,0,1-1.19-.22,3.79,3.79,0,0,1-1-.58l.49-.66a3.59,3.59,0,0,0,.79.5,2.06,2.06,0,0,0,.93.2,1.22,1.22,0,0,0,.86-.27.84.84,0,0,0,.29-.64.65.65,0,0,0-.12-.4,1.08,1.08,0,0,0-.31-.29A2.08,2.08,0,0,0,278,139l-.48-.19q-.32-.1-.63-.24a3.09,3.09,0,0,1-.56-.34,2,2,0,0,1-.4-.46,1.29,1.29,0,0,1-.15-.64,1.57,1.57,0,0,1,.13-.65,1.61,1.61,0,0,1,.4-.53,1.91,1.91,0,0,1,.63-.35,2.75,2.75,0,0,1,.84-.12,2.53,2.53,0,0,1,1,.19,3.23,3.23,0,0,1,.8.46l-.47.63a2.82,2.82,0,0,0-.62-.37,1.67,1.67,0,0,0-.71-.15,1.11,1.11,0,0,0-.81.26.78.78,0,0,0-.26.58.61.61,0,0,0,.11.36.92.92,0,0,0,.29.26,3.13,3.13,0,0,0,.41.21l.49.18.63.25a2.66,2.66,0,0,1,.57.33,1.66,1.66,0,0,1,.42.49,1.48,1.48,0,0,1,.16.7,1.71,1.71,0,0,1-.14.67,1.56,1.56,0,0,1-.41.55,1.89,1.89,0,0,1-.67.38A2.92,2.92,0,0,1,277.69,141.54Z"/><path class="eff5d3b7-570d-4918-bbe3-bbcf3b13f250" d="M284.94,141.54a1.75,1.75,0,0,1-1.22-.43,1.54,1.54,0,0,1-.48-1.22,1.61,1.61,0,0,1,.85-1.47,6.92,6.92,0,0,1,2.72-.71,3.1,3.1,0,0,0-.05-.54,1.33,1.33,0,0,0-.19-.47,1,1,0,0,0-.36-.33,1.21,1.21,0,0,0-.6-.13,2.56,2.56,0,0,0-.95.19,4.93,4.93,0,0,0-.79.44l-.38-.69a6.46,6.46,0,0,1,1-.51,3.46,3.46,0,0,1,1.3-.24,1.79,1.79,0,0,1,1.55.65,2.9,2.9,0,0,1,.48,1.75v3.57H287l-.08-.69h0a4.81,4.81,0,0,1-.9.59A2.26,2.26,0,0,1,284.94,141.54Zm.29-.79a1.67,1.67,0,0,0,.79-.19,4.14,4.14,0,0,0,.79-.59v-1.62a10.56,10.56,0,0,0-1.23.23,3.26,3.26,0,0,0-.8.31,1.15,1.15,0,0,0-.45.42,1,1,0,0,0-.13.51.82.82,0,0,0,.3.72A1.23,1.23,0,0,0,285.23,140.75Z"/><path class="eff5d3b7-570d-4918-bbe3-bbcf3b13f250" d="M290.69,141.54a.93.93,0,0,1-.81-.33,1.67,1.67,0,0,1-.24-1v-7.37h1v7.44a.53.53,0,0,0,.08.33.24.24,0,0,0,.19.1H291l.13,0,.13.74a1,1,0,0,1-.23.07A1.62,1.62,0,0,1,290.69,141.54Z"/><path class="eff5d3b7-570d-4918-bbe3-bbcf3b13f250" d="M297.68,141.54a2,2,0,0,1-.84-.19,3,3,0,0,1-.82-.55h0l-.08.6h-.8v-8.54h1v2.33l0,1.05a4.55,4.55,0,0,1,.87-.58,2.06,2.06,0,0,1,1-.23,2.25,2.25,0,0,1,1,.21,2,2,0,0,1,.73.6,2.86,2.86,0,0,1,.44.93,4.63,4.63,0,0,1,.15,1.22,4.18,4.18,0,0,1-.2,1.33,3.2,3.2,0,0,1-.55,1,2.25,2.25,0,0,1-.81.61A2.1,2.1,0,0,1,297.68,141.54Zm-.16-.82a1.49,1.49,0,0,0,.66-.16,1.65,1.65,0,0,0,.53-.46,2.36,2.36,0,0,0,.35-.73,3.63,3.63,0,0,0,.12-1,3.9,3.9,0,0,0-.08-.87,2.1,2.1,0,0,0-.27-.68,1.26,1.26,0,0,0-.48-.44,1.54,1.54,0,0,0-.7-.16,2.45,2.45,0,0,0-1.56.79v3.07a2.42,2.42,0,0,0,.76.47A2,2,0,0,0,297.52,140.72Z"/><path class="eff5d3b7-570d-4918-bbe3-bbcf3b13f250" d="M302.92,141.54a1.75,1.75,0,0,1-1.22-.43,1.51,1.51,0,0,1-.49-1.22,1.63,1.63,0,0,1,.85-1.47,7,7,0,0,1,2.73-.71,2.35,2.35,0,0,0-.06-.54,1.32,1.32,0,0,0-.18-.47.91.91,0,0,0-.37-.33,1.15,1.15,0,0,0-.59-.13,2.48,2.48,0,0,0-.95.19,4.53,4.53,0,0,0-.79.44l-.39-.69a6.6,6.6,0,0,1,1-.51,3.37,3.37,0,0,1,1.29-.24,1.77,1.77,0,0,1,1.55.65,2.9,2.9,0,0,1,.48,1.75v3.57H305l-.09-.69h0a4.81,4.81,0,0,1-.9.59A2.29,2.29,0,0,1,302.92,141.54Zm.28-.79a1.71,1.71,0,0,0,.8-.19,4.47,4.47,0,0,0,.79-.59v-1.62a10.56,10.56,0,0,0-1.23.23,3.35,3.35,0,0,0-.81.31,1.19,1.19,0,0,0-.44.42,1,1,0,0,0-.14.51.84.84,0,0,0,.3.72A1.26,1.26,0,0,0,303.2,140.75Z"/><path class="eff5d3b7-570d-4918-bbe3-bbcf3b13f250" d="M309.92,141.54a2.8,2.8,0,0,1-1.08-.2,2.44,2.44,0,0,1-.87-.59,2.85,2.85,0,0,1-.57-1,3.71,3.71,0,0,1-.21-1.29,3.31,3.31,0,0,1,.23-1.3,2.81,2.81,0,0,1,.61-1,2.59,2.59,0,0,1,.89-.6,2.8,2.8,0,0,1,1.08-.2,2.12,2.12,0,0,1,1,.2,3.76,3.76,0,0,1,.72.48l-.51.65a2.11,2.11,0,0,0-.53-.37,1.33,1.33,0,0,0-.63-.15,1.63,1.63,0,0,0-.73.16,1.65,1.65,0,0,0-.58.47,2.4,2.4,0,0,0-.38.71,3,3,0,0,0-.13.92,2.9,2.9,0,0,0,.13.91,2.12,2.12,0,0,0,.37.7,1.56,1.56,0,0,0,.56.46,1.67,1.67,0,0,0,.74.16,1.72,1.72,0,0,0,.75-.17,3.75,3.75,0,0,0,.62-.42l.43.66a3.25,3.25,0,0,1-.88.55A2.67,2.67,0,0,1,309.92,141.54Z"/><path class="eff5d3b7-570d-4918-bbe3-bbcf3b13f250" d="M313.09,141.4v-8.54h1v5.78h0l2.48-3.07h1.09l-1.95,2.34,2.22,3.49h-1.08l-1.71-2.81-1.09,1.28v1.53Z"/><path class="eff5d3b7-570d-4918-bbe3-bbcf3b13f250" d="M321.18,141.54a2.7,2.7,0,0,1-1.1-.21,2.43,2.43,0,0,1-.89-.59,2.73,2.73,0,0,1-.59-1,3.4,3.4,0,0,1-.22-1.28,3.71,3.71,0,0,1,.22-1.29,3.11,3.11,0,0,1,.59-1,2.59,2.59,0,0,1,.84-.6,2.32,2.32,0,0,1,1-.21,2.4,2.4,0,0,1,1,.19,2,2,0,0,1,.73.55,2.43,2.43,0,0,1,.45.86,4,4,0,0,1,.16,1.13c0,.11,0,.21,0,.31a1,1,0,0,1,0,.26h-3.94a2.29,2.29,0,0,0,.59,1.48,1.79,1.79,0,0,0,1.36.54,2.35,2.35,0,0,0,.77-.12,4.27,4.27,0,0,0,.68-.33l.35.65a5.17,5.17,0,0,1-.85.42A3,3,0,0,1,321.18,141.54ZM319.34,138h3.12a2.05,2.05,0,0,0-.38-1.35,1.28,1.28,0,0,0-1.06-.46,1.48,1.48,0,0,0-.59.12,1.46,1.46,0,0,0-.51.35,2,2,0,0,0-.38.57A2.48,2.48,0,0,0,319.34,138Z"/><path class="eff5d3b7-570d-4918-bbe3-bbcf3b13f250" d="M324.77,141.4v-5.83h.81l.09.84h0a5.1,5.1,0,0,1,.88-.7,2,2,0,0,1,1.08-.28A1.59,1.59,0,0,1,329,136a2.89,2.89,0,0,1,.42,1.71v3.69h-1v-3.56a2.18,2.18,0,0,0-.26-1.2,1,1,0,0,0-.84-.36,1.45,1.45,0,0,0-.81.22,5.94,5.94,0,0,0-.79.68v4.22Z"/><path class="eff5d3b7-570d-4918-bbe3-bbcf3b13f250" d="M333.32,141.54a2.17,2.17,0,0,1-1.76-.79,3.47,3.47,0,0,1-.65-2.25,3.7,3.7,0,0,1,.21-1.28,3.17,3.17,0,0,1,.56-1,2.62,2.62,0,0,1,.8-.61,2.31,2.31,0,0,1,1-.21,2,2,0,0,1,.88.18,3.56,3.56,0,0,1,.75.49l0-1v-2.24h1v8.54h-.81l-.09-.68h0a3.9,3.9,0,0,1-.8.58A2,2,0,0,1,333.32,141.54Zm.22-.82a1.61,1.61,0,0,0,.77-.2,2.6,2.6,0,0,0,.72-.61v-3a2.37,2.37,0,0,0-.72-.48,1.9,1.9,0,0,0-.7-.14,1.34,1.34,0,0,0-.65.17,1.55,1.55,0,0,0-.54.45,2.43,2.43,0,0,0-.36.7,3,3,0,0,0-.13.92,2.78,2.78,0,0,0,.42,1.64A1.39,1.39,0,0,0,333.54,140.72Z"/><path class="a871fd55-f4a7-4e31-8559-265e2e47d6eb" d="M199.7,160.4v-.59c.58-.57,1.09-1.09,1.54-1.56a14.86,14.86,0,0,0,1.13-1.29,6.42,6.42,0,0,0,.69-1.09,2.19,2.19,0,0,0,.24-1,1.6,1.6,0,0,0-.36-1.08,1.35,1.35,0,0,0-1.09-.42,1.58,1.58,0,0,0-.89.27,3.49,3.49,0,0,0-.74.65l-.57-.56a4.19,4.19,0,0,1,1-.85,2.56,2.56,0,0,1,1.3-.32,2.27,2.27,0,0,1,1.68.62,2.22,2.22,0,0,1,.61,1.64,2.8,2.8,0,0,1-.23,1.08,6,6,0,0,1-.65,1.13,13.73,13.73,0,0,1-1,1.21c-.38.42-.8.87-1.26,1.34l.65-.05.64,0h2.22v.85Z"/><path class="a871fd55-f4a7-4e31-8559-265e2e47d6eb" d="M206.25,162.51l-.61-.28a9.12,9.12,0,0,0,1-2.47,10.85,10.85,0,0,0,0-5.39,9.06,9.06,0,0,0-1-2.46l.61-.29a11.22,11.22,0,0,1,1.17,2.54,10.29,10.29,0,0,1,0,5.82A11,11,0,0,1,206.25,162.51Z"/><path class="a871fd55-f4a7-4e31-8559-265e2e47d6eb" d="M212.71,153.37a.72.72,0,0,1-.49-.18.65.65,0,0,1,0-.92.79.79,0,0,1,1,0,.65.65,0,0,1,0,.92A.72.72,0,0,1,212.71,153.37Zm-.5,7v-5.83h1v5.83Z"/><path class="a871fd55-f4a7-4e31-8559-265e2e47d6eb" d="M215.16,160.4v-5.83H216l.09.84h0a4.22,4.22,0,0,1,.84-.7,1.78,1.78,0,0,1,1-.28,1.66,1.66,0,0,1,1.05.29,1.73,1.73,0,0,1,.55.82,5.56,5.56,0,0,1,.92-.81,1.83,1.83,0,0,1,1-.3,1.57,1.57,0,0,1,1.34.57,2.82,2.82,0,0,1,.44,1.71v3.69h-1v-3.56a2.09,2.09,0,0,0-.27-1.2.94.94,0,0,0-.81-.36,2.18,2.18,0,0,0-1.47.9v4.22h-1v-3.56a2.09,2.09,0,0,0-.27-1.2.94.94,0,0,0-.82-.36,2.18,2.18,0,0,0-1.47.9v4.22Z"/><path class="a871fd55-f4a7-4e31-8559-265e2e47d6eb" d="M225.11,162.86v-8.29h.81l.09.67h0a5,5,0,0,1,.87-.57,2.19,2.19,0,0,1,1-.24,2.26,2.26,0,0,1,1,.21,1.9,1.9,0,0,1,.72.6,2.86,2.86,0,0,1,.44.93,4.71,4.71,0,0,1,.15,1.23,3.91,3.91,0,0,1-.21,1.33,3,3,0,0,1-.55,1,2.22,2.22,0,0,1-.8.61,2.16,2.16,0,0,1-1,.21,1.93,1.93,0,0,1-.81-.17,4,4,0,0,1-.81-.5l0,1v2Zm2.41-3.14a1.46,1.46,0,0,0,.66-.16,1.55,1.55,0,0,0,.53-.46,2.16,2.16,0,0,0,.35-.73,3.25,3.25,0,0,0,.13-1,3.88,3.88,0,0,0-.09-.87,1.73,1.73,0,0,0-.27-.68,1.2,1.2,0,0,0-.48-.44,1.51,1.51,0,0,0-.7-.16,1.52,1.52,0,0,0-.75.21,4.44,4.44,0,0,0-.81.58v3.07a2.7,2.7,0,0,0,.77.47A2,2,0,0,0,227.52,159.72Z"/><path class="a871fd55-f4a7-4e31-8559-265e2e47d6eb" d="M231.77,160.4v-5.83h.81l.09,1.05h0a2.87,2.87,0,0,1,.73-.87,1.46,1.46,0,0,1,.93-.32,1.71,1.71,0,0,1,.62.11l-.19.87a1.45,1.45,0,0,0-.26-.07,1.26,1.26,0,0,0-.3,0,1.32,1.32,0,0,0-.78.3,2.46,2.46,0,0,0-.7,1v3.74Z"/><path class="a871fd55-f4a7-4e31-8559-265e2e47d6eb" d="M236.44,153.37a.69.69,0,0,1-.49-.18.63.63,0,0,1,0-.92.73.73,0,0,1,.49-.17.72.72,0,0,1,.48.17.63.63,0,0,1,0,.92A.68.68,0,0,1,236.44,153.37Zm-.51,7v-5.83h1v5.83Z"/><path class="a871fd55-f4a7-4e31-8559-265e2e47d6eb" d="M238.88,160.4v-5.83h.82l.08.84h0a4.17,4.17,0,0,1,.83-.7,1.8,1.8,0,0,1,1-.28,1.64,1.64,0,0,1,1.05.29,1.75,1.75,0,0,1,.56.82,5.19,5.19,0,0,1,.92-.81,1.78,1.78,0,0,1,1-.3,1.58,1.58,0,0,1,1.34.57,2.82,2.82,0,0,1,.44,1.71v3.69h-1v-3.56a2.18,2.18,0,0,0-.26-1.2,1,1,0,0,0-.82-.36,2.15,2.15,0,0,0-1.46.9v4.22h-1v-3.56a2.18,2.18,0,0,0-.26-1.2,1,1,0,0,0-.83-.36,2.15,2.15,0,0,0-1.46.9v4.22Z"/><path class="a871fd55-f4a7-4e31-8559-265e2e47d6eb" d="M251.2,160.54a2.66,2.66,0,0,1-1.1-.21,2.43,2.43,0,0,1-.89-.59,2.73,2.73,0,0,1-.59-1,3.4,3.4,0,0,1-.22-1.28,3.49,3.49,0,0,1,.22-1.29,3.11,3.11,0,0,1,.59-1,2.55,2.55,0,0,1,.83-.6,2.4,2.4,0,0,1,1-.21,2.46,2.46,0,0,1,1,.19,2,2,0,0,1,.73.55,2.81,2.81,0,0,1,.45.86,4,4,0,0,1,.15,1.13v.31c0,.1,0,.18,0,.26h-3.94a2.34,2.34,0,0,0,.58,1.48,1.83,1.83,0,0,0,1.37.54,2.39,2.39,0,0,0,.77-.12,4.27,4.27,0,0,0,.68-.33l.35.65a4.91,4.91,0,0,1-.86.42A2.91,2.91,0,0,1,251.2,160.54ZM249.36,157h3.12a2.11,2.11,0,0,0-.38-1.35,1.28,1.28,0,0,0-1.06-.46,1.53,1.53,0,0,0-1.1.47,1.78,1.78,0,0,0-.38.57A2.48,2.48,0,0,0,249.36,157Z"/><path class="a871fd55-f4a7-4e31-8559-265e2e47d6eb" d="M259.55,160.54a2.7,2.7,0,0,1-1.1-.21,2.43,2.43,0,0,1-.89-.59,2.73,2.73,0,0,1-.59-1,3.4,3.4,0,0,1-.22-1.28,3.71,3.71,0,0,1,.22-1.29,3.11,3.11,0,0,1,.59-1,2.59,2.59,0,0,1,.84-.6,2.32,2.32,0,0,1,1-.21,2.4,2.4,0,0,1,1,.19,2,2,0,0,1,.73.55,2.43,2.43,0,0,1,.45.86,4,4,0,0,1,.16,1.13c0,.11,0,.21,0,.31a1,1,0,0,1,0,.26h-3.94a2.29,2.29,0,0,0,.59,1.48,1.79,1.79,0,0,0,1.36.54,2.35,2.35,0,0,0,.77-.12,4.27,4.27,0,0,0,.68-.33l.35.65a5.17,5.17,0,0,1-.85.42A3,3,0,0,1,259.55,160.54ZM257.71,157h3.12a2.05,2.05,0,0,0-.38-1.35,1.28,1.28,0,0,0-1.06-.46,1.48,1.48,0,0,0-.59.12,1.46,1.46,0,0,0-.51.35,2,2,0,0,0-.38.57A2.48,2.48,0,0,0,257.71,157Z"/><path class="a871fd55-f4a7-4e31-8559-265e2e47d6eb" d="M263.14,160.4v-5.83H264l.09.84h0a5.1,5.1,0,0,1,.88-.7,2,2,0,0,1,1.08-.28,1.59,1.59,0,0,1,1.35.57,2.89,2.89,0,0,1,.42,1.71v3.69h-1v-3.56a2.18,2.18,0,0,0-.26-1.2,1,1,0,0,0-.84-.36,1.45,1.45,0,0,0-.81.22,5.94,5.94,0,0,0-.79.68v4.22Z"/><path class="a871fd55-f4a7-4e31-8559-265e2e47d6eb" d="M272.61,153.37a.69.69,0,0,1-.49-.18.63.63,0,0,1,0-.92.73.73,0,0,1,.49-.17.72.72,0,0,1,.48.17.63.63,0,0,1,0,.92A.68.68,0,0,1,272.61,153.37Zm-.51,7v-5.83h1v5.83Z"/><path class="a871fd55-f4a7-4e31-8559-265e2e47d6eb" d="M275.05,160.4v-5.83h.82l.08.84h0a4.74,4.74,0,0,1,.88-.7,2,2,0,0,1,1.08-.28,1.56,1.56,0,0,1,1.34.57,2.82,2.82,0,0,1,.43,1.71v3.69h-1v-3.56a2.09,2.09,0,0,0-.27-1.2,1,1,0,0,0-.84-.36,1.44,1.44,0,0,0-.8.22,5.37,5.37,0,0,0-.79.68v4.22Z"/><path class="a871fd55-f4a7-4e31-8559-265e2e47d6eb" d="M283.61,160.54a2.16,2.16,0,0,1-1.76-.79,3.47,3.47,0,0,1-.65-2.25,3.7,3.7,0,0,1,.21-1.28,3.15,3.15,0,0,1,.55-1,2.66,2.66,0,0,1,.81-.61,2.24,2.24,0,0,1,1-.21,2,2,0,0,1,.87.18,3.89,3.89,0,0,1,.76.49l-.05-1v-2.24h1v8.54h-.82l-.08-.68h0a3.58,3.58,0,0,1-.79.58A2.08,2.08,0,0,1,283.61,160.54Zm.22-.82a1.57,1.57,0,0,0,.76-.2,2.6,2.6,0,0,0,.72-.61v-3a2.34,2.34,0,0,0-.71-.48,1.9,1.9,0,0,0-.7-.14,1.41,1.41,0,0,0-.66.17,1.61,1.61,0,0,0-.53.45,2.43,2.43,0,0,0-.36.7,3,3,0,0,0-.13.92,2.78,2.78,0,0,0,.42,1.64A1.37,1.37,0,0,0,283.83,159.72Z"/><path class="a871fd55-f4a7-4e31-8559-265e2e47d6eb" d="M290.64,160.54a2.7,2.7,0,0,1-1.1-.21,2.4,2.4,0,0,1-.88-.59,2.75,2.75,0,0,1-.6-1,3.61,3.61,0,0,1-.22-1.28,3.49,3.49,0,0,1,.23-1.29,2.78,2.78,0,0,1,.59-1,2.55,2.55,0,0,1,.83-.6,2.32,2.32,0,0,1,1-.21,2.4,2.4,0,0,1,1,.19,1.91,1.91,0,0,1,.73.55,2.43,2.43,0,0,1,.45.86,3.67,3.67,0,0,1,.16,1.13c0,.11,0,.21,0,.31a1,1,0,0,1,0,.26h-3.93a2.28,2.28,0,0,0,.58,1.48,1.81,1.81,0,0,0,1.36.54,2.45,2.45,0,0,0,.78-.12,4.17,4.17,0,0,0,.67-.33l.35.65a5.17,5.17,0,0,1-.85.42A3,3,0,0,1,290.64,160.54ZM288.8,157h3.12a2.11,2.11,0,0,0-.37-1.35,1.3,1.3,0,0,0-1.06-.46,1.53,1.53,0,0,0-.6.12,1.46,1.46,0,0,0-.51.35,2,2,0,0,0-.38.57A2.8,2.8,0,0,0,288.8,157Z"/><path class="a871fd55-f4a7-4e31-8559-265e2e47d6eb" d="M293.33,160.4l1.91-3.05-1.77-2.78h1.07l.78,1.28c.09.16.18.33.28.49s.19.33.3.49H296l.26-.49.26-.49.71-1.28h1l-1.76,2.89,1.89,2.94h-1.06l-.86-1.36c-.1-.17-.2-.35-.31-.52s-.21-.35-.32-.52h-.05l-.3.51c-.1.17-.19.35-.29.53l-.79,1.36Z"/><path class="a871fd55-f4a7-4e31-8559-265e2e47d6eb" d="M302.94,160.54a.93.93,0,0,1-.8-.33,1.67,1.67,0,0,1-.24-1v-7.37h1v7.44a.53.53,0,0,0,.08.33.25.25,0,0,0,.2.1h.09l.12,0,.13.74a1,1,0,0,1-.22.07A1.67,1.67,0,0,1,302.94,160.54Z"/><path class="a871fd55-f4a7-4e31-8559-265e2e47d6eb" d="M306.3,160.54a1.77,1.77,0,0,1-1.22-.43,1.54,1.54,0,0,1-.48-1.22,1.61,1.61,0,0,1,.85-1.47,6.92,6.92,0,0,1,2.72-.71,3.1,3.1,0,0,0-.05-.54,1.33,1.33,0,0,0-.19-.47,1,1,0,0,0-.36-.33,1.21,1.21,0,0,0-.6-.13,2.56,2.56,0,0,0-1,.19,4.93,4.93,0,0,0-.79.44l-.38-.69a6.46,6.46,0,0,1,1-.51,3.46,3.46,0,0,1,1.3-.24,1.79,1.79,0,0,1,1.55.65,2.9,2.9,0,0,1,.48,1.75v3.57h-.82l-.08-.69h0a4.81,4.81,0,0,1-.9.59A2.26,2.26,0,0,1,306.3,160.54Zm.29-.79a1.67,1.67,0,0,0,.79-.19,4.14,4.14,0,0,0,.79-.59v-1.62a10.56,10.56,0,0,0-1.23.23,3.26,3.26,0,0,0-.8.31,1.23,1.23,0,0,0-.45.42,1,1,0,0,0-.13.51.84.84,0,0,0,.3.72A1.23,1.23,0,0,0,306.59,159.75Z"/><path class="a871fd55-f4a7-4e31-8559-265e2e47d6eb" d="M212.21,174.8V169H213l.09,1.06h0a2.79,2.79,0,0,1,.73-.88,1.46,1.46,0,0,1,.93-.32,1.52,1.52,0,0,1,.62.12l-.19.86a1.45,1.45,0,0,0-.26-.07,1.26,1.26,0,0,0-.3,0,1.32,1.32,0,0,0-.78.3,2.46,2.46,0,0,0-.7,1.05v3.74Z"/><path class="a871fd55-f4a7-4e31-8559-265e2e47d6eb" d="M218.62,175a2.84,2.84,0,0,1-1.1-.21,2.59,2.59,0,0,1-.89-.6,2.73,2.73,0,0,1-.59-1,3.4,3.4,0,0,1-.22-1.28,3.49,3.49,0,0,1,.22-1.29,3.23,3.23,0,0,1,.59-1,2.55,2.55,0,0,1,.83-.6,2.4,2.4,0,0,1,1-.21,2.46,2.46,0,0,1,1,.19,2,2,0,0,1,.73.55,2.81,2.81,0,0,1,.45.86,4,4,0,0,1,.15,1.13v.31c0,.1,0,.18,0,.26h-3.94a2.29,2.29,0,0,0,.59,1.48,1.79,1.79,0,0,0,1.36.54,2.39,2.39,0,0,0,.77-.12,4.27,4.27,0,0,0,.68-.33l.35.65a4.91,4.91,0,0,1-.86.42A2.91,2.91,0,0,1,218.62,175Zm-1.84-3.53h3.12a2.11,2.11,0,0,0-.38-1.35,1.28,1.28,0,0,0-1.06-.46,1.53,1.53,0,0,0-1.1.47,1.9,1.9,0,0,0-.38.57A2.48,2.48,0,0,0,216.78,171.42Z"/><path class="a871fd55-f4a7-4e31-8559-265e2e47d6eb" d="M223.73,175a3.19,3.19,0,0,1-1.19-.23,3.79,3.79,0,0,1-1-.58l.49-.66a4,4,0,0,0,.78.51,2.27,2.27,0,0,0,.93.19,1.23,1.23,0,0,0,.87-.27.84.84,0,0,0,.29-.64.65.65,0,0,0-.12-.4,1.23,1.23,0,0,0-.31-.29,2.18,2.18,0,0,0-.43-.23l-.48-.19-.62-.24a3.09,3.09,0,0,1-.56-.34,1.75,1.75,0,0,1-.4-.46,1.29,1.29,0,0,1-.16-.64,1.58,1.58,0,0,1,.14-.65,1.49,1.49,0,0,1,.4-.53A1.91,1.91,0,0,1,223,169a2.75,2.75,0,0,1,.84-.12,2.56,2.56,0,0,1,1,.19,3,3,0,0,1,.8.47l-.47.62a2.82,2.82,0,0,0-.62-.37,1.67,1.67,0,0,0-.71-.15,1.11,1.11,0,0,0-.81.26.78.78,0,0,0-.26.58.61.61,0,0,0,.11.36.92.92,0,0,0,.29.26,2.25,2.25,0,0,0,.41.21l.49.18.63.25a2.66,2.66,0,0,1,.57.33,1.76,1.76,0,0,1,.41.49,1.37,1.37,0,0,1,.16.7,1.67,1.67,0,0,1-.13.67,1.69,1.69,0,0,1-.41.55,1.89,1.89,0,0,1-.67.38A2.91,2.91,0,0,1,223.73,175Z"/><path class="a871fd55-f4a7-4e31-8559-265e2e47d6eb" d="M227.23,177.26V169h.82l.08.67h0a4.36,4.36,0,0,1,.87-.57,2.13,2.13,0,0,1,1-.24,2.26,2.26,0,0,1,1,.21,2.07,2.07,0,0,1,.72.6,2.85,2.85,0,0,1,.43.93,4.71,4.71,0,0,1,.15,1.23,4.18,4.18,0,0,1-.2,1.33,3.14,3.14,0,0,1-.55,1,2.41,2.41,0,0,1-.81.62,2.24,2.24,0,0,1-1,.21,2,2,0,0,1-.81-.18,4.24,4.24,0,0,1-.81-.5l0,1v2Zm2.42-3.14a1.49,1.49,0,0,0,.66-.16,1.65,1.65,0,0,0,.53-.46,2.36,2.36,0,0,0,.35-.73,3.58,3.58,0,0,0,.12-1,3.9,3.9,0,0,0-.08-.87,2.1,2.1,0,0,0-.27-.68,1.34,1.34,0,0,0-.48-.44,1.52,1.52,0,0,0-1.45.05,3.82,3.82,0,0,0-.81.59v3.06a2.57,2.57,0,0,0,.77.47A1.91,1.91,0,0,0,229.65,174.12Z"/><path class="a871fd55-f4a7-4e31-8559-265e2e47d6eb" d="M235.6,175a1.58,1.58,0,0,1-1.36-.58,2.79,2.79,0,0,1-.43-1.7V169h1v3.56a2.17,2.17,0,0,0,.25,1.2,1,1,0,0,0,.84.36,1.37,1.37,0,0,0,.8-.23,4.06,4.06,0,0,0,.77-.75V169h1v5.83h-.81l-.09-.91h0a3.82,3.82,0,0,1-.86.77A2,2,0,0,1,235.6,175Z"/><path class="a871fd55-f4a7-4e31-8559-265e2e47d6eb" d="M242.79,175a2.84,2.84,0,0,1-1.1-.21,2.59,2.59,0,0,1-.89-.6,2.73,2.73,0,0,1-.59-1,3.4,3.4,0,0,1-.22-1.28,3.49,3.49,0,0,1,.22-1.29,3.23,3.23,0,0,1,.59-1,2.55,2.55,0,0,1,.83-.6,2.4,2.4,0,0,1,1-.21,2.46,2.46,0,0,1,1,.19,2,2,0,0,1,.73.55,2.81,2.81,0,0,1,.45.86,4,4,0,0,1,.15,1.13v.31c0,.1,0,.18,0,.26H241a2.34,2.34,0,0,0,.58,1.48,1.83,1.83,0,0,0,1.37.54,2.39,2.39,0,0,0,.77-.12,4.27,4.27,0,0,0,.68-.33l.35.65a4.91,4.91,0,0,1-.86.42A2.91,2.91,0,0,1,242.79,175ZM241,171.42h3.12a2.11,2.11,0,0,0-.38-1.35,1.28,1.28,0,0,0-1.06-.46,1.53,1.53,0,0,0-1.1.47,1.9,1.9,0,0,0-.38.57A2.48,2.48,0,0,0,241,171.42Z"/><path class="a871fd55-f4a7-4e31-8559-265e2e47d6eb" d="M247.9,175a3.19,3.19,0,0,1-1.19-.23,3.63,3.63,0,0,1-1-.58l.49-.66a4,4,0,0,0,.78.51,2.27,2.27,0,0,0,.93.19,1.23,1.23,0,0,0,.87-.27.84.84,0,0,0,.29-.64.65.65,0,0,0-.12-.4,1.23,1.23,0,0,0-.31-.29,2.18,2.18,0,0,0-.43-.23l-.48-.19-.62-.24a3.09,3.09,0,0,1-.56-.34,1.75,1.75,0,0,1-.4-.46,1.29,1.29,0,0,1-.16-.64,1.58,1.58,0,0,1,.14-.65,1.49,1.49,0,0,1,.4-.53,1.91,1.91,0,0,1,.63-.35,2.75,2.75,0,0,1,.84-.12,2.56,2.56,0,0,1,1,.19,3,3,0,0,1,.8.47l-.47.62a3.08,3.08,0,0,0-.62-.37,1.67,1.67,0,0,0-.71-.15,1.11,1.11,0,0,0-.81.26.78.78,0,0,0-.26.58.61.61,0,0,0,.11.36.92.92,0,0,0,.29.26,2.25,2.25,0,0,0,.41.21l.49.18.63.25a2.66,2.66,0,0,1,.57.33,1.76,1.76,0,0,1,.41.49,1.37,1.37,0,0,1,.16.7,1.67,1.67,0,0,1-.13.67,1.69,1.69,0,0,1-.41.55,2,2,0,0,1-.67.38A2.91,2.91,0,0,1,247.9,175Z"/><path class="a871fd55-f4a7-4e31-8559-265e2e47d6eb" d="M253,175a1.86,1.86,0,0,1-.79-.15,1.34,1.34,0,0,1-.51-.39,1.41,1.41,0,0,1-.28-.62,3.24,3.24,0,0,1-.09-.79v-3.23h-.86V169l.91-.06.12-1.63h.83V169h1.57v.8h-1.57V173a1.54,1.54,0,0,0,.19.84.82.82,0,0,0,.71.29,1,1,0,0,0,.33,0l.33-.1.19.74a4,4,0,0,1-.52.15A2.77,2.77,0,0,1,253,175Z"/><path class="a871fd55-f4a7-4e31-8559-265e2e47d6eb" d="M256.31,175a1.77,1.77,0,0,1-1.22-.44,1.54,1.54,0,0,1-.48-1.22,1.61,1.61,0,0,1,.85-1.47,6.92,6.92,0,0,1,2.72-.71,3.1,3.1,0,0,0-.05-.54,1.33,1.33,0,0,0-.19-.47,1,1,0,0,0-.36-.33,1.21,1.21,0,0,0-.6-.13,2.56,2.56,0,0,0-1,.19,4.93,4.93,0,0,0-.79.44l-.38-.69a7.49,7.49,0,0,1,1-.51,3.46,3.46,0,0,1,1.3-.24,1.79,1.79,0,0,1,1.55.65,2.9,2.9,0,0,1,.48,1.75v3.57h-.82l-.08-.69h0a4.81,4.81,0,0,1-.9.59A2.27,2.27,0,0,1,256.31,175Zm.29-.8a1.67,1.67,0,0,0,.79-.19,4.14,4.14,0,0,0,.79-.59v-1.62A10.56,10.56,0,0,0,257,172a3.26,3.26,0,0,0-.8.31,1.23,1.23,0,0,0-.45.42,1,1,0,0,0-.13.51.84.84,0,0,0,.3.72A1.23,1.23,0,0,0,256.6,174.15Z"/><path class="a871fd55-f4a7-4e31-8559-265e2e47d6eb" d="M267.81,175a2.17,2.17,0,0,1-1.76-.8,3.41,3.41,0,0,1-.65-2.25,3.48,3.48,0,0,1,.21-1.28,3.15,3.15,0,0,1,.55-1A2.55,2.55,0,0,1,267,169a2.24,2.24,0,0,1,1-.21,2,2,0,0,1,.87.18,3.89,3.89,0,0,1,.76.49l-.05-1v-2.24h1v8.54h-.82l-.08-.68h0a3.65,3.65,0,0,1-.8.58A2,2,0,0,1,267.81,175Zm.21-.83a1.61,1.61,0,0,0,.77-.2,2.6,2.6,0,0,0,.72-.61v-3a2.34,2.34,0,0,0-.71-.48,2,2,0,0,0-.71-.14,1.37,1.37,0,0,0-.65.17,1.61,1.61,0,0,0-.53.45,2,2,0,0,0-.36.7,3,3,0,0,0-.13.92,2.78,2.78,0,0,0,.41,1.64A1.4,1.4,0,0,0,268,174.12Z"/><path class="a871fd55-f4a7-4e31-8559-265e2e47d6eb" d="M274.84,175a2.87,2.87,0,0,1-1.1-.21,2.69,2.69,0,0,1-.89-.6,2.73,2.73,0,0,1-.59-1,3.61,3.61,0,0,1-.22-1.28,3.49,3.49,0,0,1,.23-1.29,3,3,0,0,1,.58-1,2.7,2.7,0,0,1,.84-.6,2.32,2.32,0,0,1,1-.21,2.4,2.4,0,0,1,1,.19,1.91,1.91,0,0,1,.73.55,2.43,2.43,0,0,1,.45.86,3.67,3.67,0,0,1,.16,1.13c0,.11,0,.21,0,.31a1,1,0,0,1,0,.26H273a2.23,2.23,0,0,0,.58,1.48,1.81,1.81,0,0,0,1.36.54,2.35,2.35,0,0,0,.77-.12,3.89,3.89,0,0,0,.68-.33l.35.65a5.17,5.17,0,0,1-.85.42A3,3,0,0,1,274.84,175ZM273,171.42h3.12a2.11,2.11,0,0,0-.37-1.35,1.31,1.31,0,0,0-1.07-.46,1.48,1.48,0,0,0-.59.12,1.46,1.46,0,0,0-.51.35,2.1,2.1,0,0,0-.38.57A2.8,2.8,0,0,0,273,171.42Z"/><path class="a871fd55-f4a7-4e31-8559-265e2e47d6eb" d="M279.47,175a.93.93,0,0,1-.8-.34,1.67,1.67,0,0,1-.24-1v-7.37h1v7.44a.47.47,0,0,0,.09.33.23.23,0,0,0,.19.1h.09l.12,0,.14.74a.78.78,0,0,1-.23.07A1.58,1.58,0,0,1,279.47,175Z"/><path class="a871fd55-f4a7-4e31-8559-265e2e47d6eb" d="M286.47,175a2.1,2.1,0,0,1-.85-.2,3.27,3.27,0,0,1-.82-.55h0l-.08.6h-.79v-8.54h1v2.33l0,1a4.19,4.19,0,0,1,.86-.58,2.06,2.06,0,0,1,1-.23,2.26,2.26,0,0,1,1,.21,1.9,1.9,0,0,1,.72.6,2.69,2.69,0,0,1,.45.93,4.63,4.63,0,0,1,.15,1.22,3.91,3.91,0,0,1-.21,1.33,3,3,0,0,1-.55,1,2.37,2.37,0,0,1-.8.62A2.31,2.31,0,0,1,286.47,175Zm-.17-.83A1.46,1.46,0,0,0,287,174a1.55,1.55,0,0,0,.53-.46,2.16,2.16,0,0,0,.35-.73,3.21,3.21,0,0,0,.13-1,3.88,3.88,0,0,0-.09-.87,1.73,1.73,0,0,0-.27-.68,1.2,1.2,0,0,0-.48-.44,1.51,1.51,0,0,0-.7-.16,2.44,2.44,0,0,0-1.56.8v3.06a2.54,2.54,0,0,0,.76.47A2.11,2.11,0,0,0,286.3,174.12Z"/><path class="a871fd55-f4a7-4e31-8559-265e2e47d6eb" d="M291.7,175a1.76,1.76,0,0,1-1.22-.44,1.54,1.54,0,0,1-.48-1.22,1.61,1.61,0,0,1,.85-1.47,6.92,6.92,0,0,1,2.72-.71,3.1,3.1,0,0,0-.05-.54,1.33,1.33,0,0,0-.19-.47.91.91,0,0,0-.37-.33,1.15,1.15,0,0,0-.59-.13,2.56,2.56,0,0,0-.95.19,4.93,4.93,0,0,0-.79.44l-.38-.69a7.49,7.49,0,0,1,1-.51,3.42,3.42,0,0,1,1.3-.24,1.79,1.79,0,0,1,1.55.65,2.9,2.9,0,0,1,.48,1.75v3.57h-.82l-.08-.69h0a4.81,4.81,0,0,1-.9.59A2.27,2.27,0,0,1,291.7,175Zm.29-.8a1.67,1.67,0,0,0,.79-.19,4.14,4.14,0,0,0,.79-.59v-1.62a10.56,10.56,0,0,0-1.23.23,3.26,3.26,0,0,0-.8.31,1.15,1.15,0,0,0-.45.42,1,1,0,0,0-.13.51.84.84,0,0,0,.29.72A1.29,1.29,0,0,0,292,174.15Z"/><path class="a871fd55-f4a7-4e31-8559-265e2e47d6eb" d="M298.71,175a2.74,2.74,0,0,1-1.08-.21,2.28,2.28,0,0,1-.87-.59,2.71,2.71,0,0,1-.58-1,3.71,3.71,0,0,1-.21-1.29,3.51,3.51,0,0,1,.23-1.3,2.81,2.81,0,0,1,.61-1,2.71,2.71,0,0,1,2-.8,2.12,2.12,0,0,1,1,.2,3.47,3.47,0,0,1,.72.48l-.5.65a2.54,2.54,0,0,0-.53-.37,1.33,1.33,0,0,0-.63-.15,1.82,1.82,0,0,0-.74.16,1.71,1.71,0,0,0-.57.47,2.19,2.19,0,0,0-.38.71,3,3,0,0,0-.14.92,3.22,3.22,0,0,0,.13.91,2.12,2.12,0,0,0,.37.7,1.51,1.51,0,0,0,.57.46,1.63,1.63,0,0,0,.73.16,1.72,1.72,0,0,0,.75-.17,3.38,3.38,0,0,0,.62-.42l.43.66a3,3,0,0,1-.88.55A2.62,2.62,0,0,1,298.71,175Z"/><path class="a871fd55-f4a7-4e31-8559-265e2e47d6eb" d="M301.88,174.8v-8.54h1V172h0l2.49-3.07h1.09l-2,2.34,2.22,3.49h-1.08l-1.7-2.81-1.09,1.28v1.53Z"/><path class="a871fd55-f4a7-4e31-8559-265e2e47d6eb" d="M310,175a2.87,2.87,0,0,1-1.1-.21,2.55,2.55,0,0,1-.88-.6,2.75,2.75,0,0,1-.6-1,3.62,3.62,0,0,1-.21-1.28,3.49,3.49,0,0,1,.22-1.29,3,3,0,0,1,.59-1,2.55,2.55,0,0,1,.83-.6,2.35,2.35,0,0,1,1-.21,2.4,2.4,0,0,1,1,.19,1.91,1.91,0,0,1,.73.55,2.43,2.43,0,0,1,.45.86,3.67,3.67,0,0,1,.16,1.13c0,.11,0,.21,0,.31a1,1,0,0,1,0,.26h-3.93a2.28,2.28,0,0,0,.58,1.48,1.81,1.81,0,0,0,1.36.54,2.45,2.45,0,0,0,.78-.12,4.17,4.17,0,0,0,.67-.33l.35.65a4.81,4.81,0,0,1-.85.42A3,3,0,0,1,310,175Zm-1.83-3.53h3.12a2.11,2.11,0,0,0-.38-1.35,1.29,1.29,0,0,0-1.06-.46,1.53,1.53,0,0,0-.6.12,1.46,1.46,0,0,0-.51.35,2.1,2.1,0,0,0-.38.57A2.48,2.48,0,0,0,308.13,171.42Z"/><path class="a871fd55-f4a7-4e31-8559-265e2e47d6eb" d="M313.55,174.8V169h.82l.08.84h0a4.74,4.74,0,0,1,.88-.7,2,2,0,0,1,1.07-.28,1.57,1.57,0,0,1,1.35.57,2.82,2.82,0,0,1,.43,1.71v3.69h-1v-3.56A2.09,2.09,0,0,0,317,170a1,1,0,0,0-.84-.36,1.37,1.37,0,0,0-.8.23,4.71,4.71,0,0,0-.8.67v4.22Z"/><path class="a871fd55-f4a7-4e31-8559-265e2e47d6eb" d="M322.11,175a2.15,2.15,0,0,1-1.76-.8,3.41,3.41,0,0,1-.66-2.25,3.7,3.7,0,0,1,.21-1.28,3.17,3.17,0,0,1,.56-1,2.55,2.55,0,0,1,.81-.61,2.24,2.24,0,0,1,1-.21,2,2,0,0,1,.87.18,3.89,3.89,0,0,1,.76.49l-.05-1v-2.24h1v8.54H324l-.08-.68h0a3.65,3.65,0,0,1-.8.58A2,2,0,0,1,322.11,175Zm.21-.83a1.61,1.61,0,0,0,.77-.2,2.6,2.6,0,0,0,.72-.61v-3a2.47,2.47,0,0,0-.71-.48,2,2,0,0,0-.71-.14,1.34,1.34,0,0,0-.65.17,1.61,1.61,0,0,0-.53.45,2,2,0,0,0-.36.7,3,3,0,0,0-.14.92,2.78,2.78,0,0,0,.42,1.64A1.39,1.39,0,0,0,322.32,174.12Z"/><path class="eff5d3b7-570d-4918-bbe3-bbcf3b13f250" d="M41.16,139.69a1.27,1.27,0,0,1-.52-.11,1.1,1.1,0,0,1-.42-.29,1.31,1.31,0,0,1-.3-.46,1.54,1.54,0,0,1-.11-.58,1.64,1.64,0,0,1,.11-.6,1.19,1.19,0,0,1,.3-.45,1.25,1.25,0,0,1,.42-.3,1.27,1.27,0,0,1,.52-.11,1.34,1.34,0,0,1,.51.11,1.37,1.37,0,0,1,.72.75,1.46,1.46,0,0,1,.11.6,1.36,1.36,0,0,1-.11.58,1.44,1.44,0,0,1-.29.46,1.13,1.13,0,0,1-.43.29A1.34,1.34,0,0,1,41.16,139.69Z"/><path class="eff5d3b7-570d-4918-bbe3-bbcf3b13f250" d="M48.73,141.54a2.7,2.7,0,0,1-1.1-.21,2.52,2.52,0,0,1-.89-.59,2.73,2.73,0,0,1-.59-1,3.61,3.61,0,0,1-.22-1.28,3.49,3.49,0,0,1,.23-1.29,2.91,2.91,0,0,1,.58-1,2.7,2.7,0,0,1,.84-.6,2.32,2.32,0,0,1,1-.21,2.4,2.4,0,0,1,1,.19,1.91,1.91,0,0,1,.73.55,2.43,2.43,0,0,1,.45.86,3.67,3.67,0,0,1,.16,1.13c0,.11,0,.21,0,.31a1,1,0,0,1,0,.26H46.91a2.28,2.28,0,0,0,.58,1.48,1.81,1.81,0,0,0,1.36.54,2.35,2.35,0,0,0,.77-.12,3.89,3.89,0,0,0,.68-.33l.35.65a5.17,5.17,0,0,1-.85.42A3,3,0,0,1,48.73,141.54ZM46.89,138H50a2.11,2.11,0,0,0-.37-1.35,1.31,1.31,0,0,0-1.07-.46,1.52,1.52,0,0,0-.59.12,1.46,1.46,0,0,0-.51.35,2,2,0,0,0-.38.57A2.8,2.8,0,0,0,46.89,138Z"/><path class="eff5d3b7-570d-4918-bbe3-bbcf3b13f250" d="M53.84,141.54a3.22,3.22,0,0,1-1.19-.22,3.79,3.79,0,0,1-1-.58l.49-.66a3.59,3.59,0,0,0,.79.5,2.12,2.12,0,0,0,.93.2,1.22,1.22,0,0,0,.86-.27.84.84,0,0,0,.29-.64.65.65,0,0,0-.12-.4,1.08,1.08,0,0,0-.31-.29,2.08,2.08,0,0,0-.42-.23l-.48-.19q-.31-.1-.63-.24a3,3,0,0,1-.55-.34,1.79,1.79,0,0,1-.41-.46,1.29,1.29,0,0,1-.15-.64,1.44,1.44,0,0,1,.14-.65,1.46,1.46,0,0,1,.39-.53,1.91,1.91,0,0,1,.63-.35,2.75,2.75,0,0,1,.84-.12,2.61,2.61,0,0,1,1,.19,3.35,3.35,0,0,1,.79.46l-.46.63a2.89,2.89,0,0,0-.63-.37,1.64,1.64,0,0,0-.71-.15,1.14,1.14,0,0,0-.81.26.77.77,0,0,0-.25.58.61.61,0,0,0,.1.36,1,1,0,0,0,.29.26,2.74,2.74,0,0,0,.42.21l.48.18.63.25a2.66,2.66,0,0,1,.57.33,1.66,1.66,0,0,1,.42.49,1.48,1.48,0,0,1,.16.7,1.71,1.71,0,0,1-.14.67,1.56,1.56,0,0,1-.41.55,1.89,1.89,0,0,1-.67.38A2.88,2.88,0,0,1,53.84,141.54Z"/><path class="eff5d3b7-570d-4918-bbe3-bbcf3b13f250" d="M58.94,141.54a1.81,1.81,0,0,1-.78-.14,1.23,1.23,0,0,1-.52-.4,1.43,1.43,0,0,1-.28-.61,3.24,3.24,0,0,1-.09-.79v-3.23h-.86v-.74l.91-.06.12-1.63h.83v1.63h1.57v.8H58.27v3.24a1.53,1.53,0,0,0,.2.84.79.79,0,0,0,.7.29,1.08,1.08,0,0,0,.34-.05,1.51,1.51,0,0,0,.32-.11l.19.75a3.55,3.55,0,0,1-.52.15A2.67,2.67,0,0,1,58.94,141.54Z"/><path class="eff5d3b7-570d-4918-bbe3-bbcf3b13f250" d="M61.16,141.4v-5.83H62l.08,1.05h0a2.84,2.84,0,0,1,.72-.87,1.5,1.5,0,0,1,.93-.32,1.77,1.77,0,0,1,.63.11l-.19.87a1.8,1.8,0,0,0-.27-.07,1.26,1.26,0,0,0-.3,0,1.3,1.3,0,0,0-.77.3,2.37,2.37,0,0,0-.7,1v3.74Z"/><path class="eff5d3b7-570d-4918-bbe3-bbcf3b13f250" d="M67,141.54a1.58,1.58,0,0,1-1.36-.57,2.81,2.81,0,0,1-.43-1.7v-3.7h1v3.56a2.07,2.07,0,0,0,.26,1.2,1,1,0,0,0,.83.36,1.37,1.37,0,0,0,.8-.23,3.79,3.79,0,0,0,.77-.75v-4.14h1v5.83h-.82l-.08-.91h0a3.82,3.82,0,0,1-.86.77A1.93,1.93,0,0,1,67,141.54Z"/><path class="eff5d3b7-570d-4918-bbe3-bbcf3b13f250" d="M74.16,141.54a2.73,2.73,0,0,1-1.08-.2,2.28,2.28,0,0,1-.87-.59,2.71,2.71,0,0,1-.58-1,3.71,3.71,0,0,1-.21-1.29,3.51,3.51,0,0,1,.23-1.3,3,3,0,0,1,.61-1,2.71,2.71,0,0,1,2-.8,2.12,2.12,0,0,1,1,.2,3.22,3.22,0,0,1,.72.48l-.5.65a2.54,2.54,0,0,0-.53-.37,1.33,1.33,0,0,0-.63-.15,1.67,1.67,0,0,0-.74.16,1.71,1.71,0,0,0-.57.47,2.19,2.19,0,0,0-.38.71,3,3,0,0,0-.14.92,3.22,3.22,0,0,0,.13.91,2.12,2.12,0,0,0,.37.7,1.68,1.68,0,0,0,.57.46,1.63,1.63,0,0,0,.73.16,1.72,1.72,0,0,0,.75-.17,3.07,3.07,0,0,0,.62-.42l.43.66a3.05,3.05,0,0,1-.87.55A2.67,2.67,0,0,1,74.16,141.54Z"/><path class="eff5d3b7-570d-4918-bbe3-bbcf3b13f250" d="M79,141.54a1.81,1.81,0,0,1-.78-.14,1.23,1.23,0,0,1-.52-.4,1.43,1.43,0,0,1-.28-.61,3.25,3.25,0,0,1-.08-.79v-3.23h-.87v-.74l.91-.06.12-1.63h.83v1.63h1.57v.8H78.37v3.24a1.53,1.53,0,0,0,.2.84.79.79,0,0,0,.7.29,1,1,0,0,0,.34-.05,1.51,1.51,0,0,0,.32-.11l.19.75a3.55,3.55,0,0,1-.52.15A2.67,2.67,0,0,1,79,141.54Z"/><path class="eff5d3b7-570d-4918-bbe3-bbcf3b13f250" d="M83,141.54A1.6,1.6,0,0,1,81.6,141a2.88,2.88,0,0,1-.42-1.7v-3.7h1v3.56a2.16,2.16,0,0,0,.26,1.2,1,1,0,0,0,.84.36,1.37,1.37,0,0,0,.8-.23,4.06,4.06,0,0,0,.77-.75v-4.14h1v5.83H85l-.09-.91h0a4,4,0,0,1-.86.77A2,2,0,0,1,83,141.54Z"/><path class="eff5d3b7-570d-4918-bbe3-bbcf3b13f250" d="M87.79,141.4v-5.83h.82l.08,1.05h0a2.84,2.84,0,0,1,.72-.87,1.5,1.5,0,0,1,.93-.32,1.81,1.81,0,0,1,.63.11l-.2.87a1.45,1.45,0,0,0-.26-.07,1.22,1.22,0,0,0-1.07.27,2.38,2.38,0,0,0-.71,1v3.74Z"/><path class="eff5d3b7-570d-4918-bbe3-bbcf3b13f250" d="M93,141.54a1.77,1.77,0,0,1-1.22-.43,1.54,1.54,0,0,1-.48-1.22,1.61,1.61,0,0,1,.85-1.47,6.92,6.92,0,0,1,2.72-.71,3.1,3.1,0,0,0,0-.54,1.33,1.33,0,0,0-.19-.47,1,1,0,0,0-.36-.33,1.21,1.21,0,0,0-.6-.13,2.56,2.56,0,0,0-1,.19,4.93,4.93,0,0,0-.79.44l-.38-.69a6.46,6.46,0,0,1,1-.51,3.46,3.46,0,0,1,1.3-.24,1.79,1.79,0,0,1,1.55.65,2.9,2.9,0,0,1,.48,1.75v3.57h-.82l-.08-.69h0a4.81,4.81,0,0,1-.9.59A2.26,2.26,0,0,1,93,141.54Zm.29-.79a1.67,1.67,0,0,0,.79-.19,4.14,4.14,0,0,0,.79-.59v-1.62a10.56,10.56,0,0,0-1.23.23,3.26,3.26,0,0,0-.8.31,1.23,1.23,0,0,0-.45.42,1,1,0,0,0-.13.51.84.84,0,0,0,.3.72A1.23,1.23,0,0,0,93.3,140.75Z"/><path class="eff5d3b7-570d-4918-bbe3-bbcf3b13f250" d="M100.62,134.37a.71.71,0,0,1-.49-.18.63.63,0,0,1,0-.92.75.75,0,0,1,.49-.17.72.72,0,0,1,.48.17.63.63,0,0,1,0,.92A.68.68,0,0,1,100.62,134.37Zm-.5,7v-5.83h1v5.83Z"/><path class="eff5d3b7-570d-4918-bbe3-bbcf3b13f250" d="M103.07,141.4v-5.83h.81l.09.84h0a5.1,5.1,0,0,1,.88-.7,2,2,0,0,1,1.08-.28,1.57,1.57,0,0,1,1.35.57,2.89,2.89,0,0,1,.43,1.71v3.69h-1v-3.56a2.18,2.18,0,0,0-.26-1.2,1,1,0,0,0-.84-.36,1.47,1.47,0,0,0-.81.22,5.94,5.94,0,0,0-.79.68v4.22Z"/><path class="eff5d3b7-570d-4918-bbe3-bbcf3b13f250" d="M109.8,141.4v-5H109v-.74l.79-.06v-.92a2.22,2.22,0,0,1,.41-1.42,1.58,1.58,0,0,1,1.29-.52,2.26,2.26,0,0,1,.53.06,2.15,2.15,0,0,1,.45.14l-.22.75a1.74,1.74,0,0,0-.66-.14c-.54,0-.82.37-.82,1.13v.92H112v.8h-1.24v5Z"/><path class="eff5d3b7-570d-4918-bbe3-bbcf3b13f250" d="M115.28,141.54a2.51,2.51,0,0,1-1-.2,2.41,2.41,0,0,1-.86-.59,2.73,2.73,0,0,1-.59-1,3.76,3.76,0,0,1,0-2.59,2.78,2.78,0,0,1,.59-1,2.57,2.57,0,0,1,.86-.6,2.51,2.51,0,0,1,1-.2,2.56,2.56,0,0,1,1,.2,2.67,2.67,0,0,1,.86.6,2.93,2.93,0,0,1,.59,1,3.92,3.92,0,0,1,0,2.59,2.88,2.88,0,0,1-.59,1,2.5,2.5,0,0,1-.86.59A2.56,2.56,0,0,1,115.28,141.54Zm0-.81a1.46,1.46,0,0,0,.69-.16,1.65,1.65,0,0,0,.53-.46,2.08,2.08,0,0,0,.34-.7,3.23,3.23,0,0,0,.12-.91,3.31,3.31,0,0,0-.12-.92,2.13,2.13,0,0,0-.34-.71,1.68,1.68,0,0,0-.53-.47,1.55,1.55,0,0,0-1.37,0,1.49,1.49,0,0,0-.53.47,2.14,2.14,0,0,0-.35.71,3.31,3.31,0,0,0-.12.92,3.23,3.23,0,0,0,.12.91,2.09,2.09,0,0,0,.35.7,1.46,1.46,0,0,0,1.21.62Z"/><path class="ac4a0058-a926-4142-876d-20a087831bbe" d="M43.76,332.69a1.26,1.26,0,0,1-.51-.11,1.13,1.13,0,0,1-.43-.29,1.44,1.44,0,0,1-.29-.46,1.36,1.36,0,0,1-.11-.58,1.46,1.46,0,0,1,.11-.6,1.37,1.37,0,0,1,.72-.75,1.24,1.24,0,0,1,1,0,1.43,1.43,0,0,1,.73.75,1.64,1.64,0,0,1,.11.6,1.54,1.54,0,0,1-.11.58,1.31,1.31,0,0,1-.3.46,1.06,1.06,0,0,1-.43.29A1.26,1.26,0,0,1,43.76,332.69Z"/><path class="ac4a0058-a926-4142-876d-20a087831bbe" d="M51.33,334.54a2.65,2.65,0,0,1-1.09-.21,2.43,2.43,0,0,1-.89-.59,2.9,2.9,0,0,1-.6-1,3.62,3.62,0,0,1-.21-1.28,3.49,3.49,0,0,1,.22-1.29,2.93,2.93,0,0,1,.59-1,2.55,2.55,0,0,1,.83-.6,2.35,2.35,0,0,1,1-.21,2.4,2.4,0,0,1,1,.19,1.94,1.94,0,0,1,.74.55,2.81,2.81,0,0,1,.45.86,4,4,0,0,1,.15,1.13v.31c0,.1,0,.18,0,.26H49.51a2.28,2.28,0,0,0,.58,1.48,1.81,1.81,0,0,0,1.36.54,2.45,2.45,0,0,0,.78-.12,4.73,4.73,0,0,0,.68-.33l.34.65a4.81,4.81,0,0,1-.85.42A3,3,0,0,1,51.33,334.54ZM49.5,331h3.12a2.11,2.11,0,0,0-.38-1.35,1.29,1.29,0,0,0-1.06-.46,1.53,1.53,0,0,0-.6.12,1.66,1.66,0,0,0-.51.35,1.94,1.94,0,0,0-.37.57A2.48,2.48,0,0,0,49.5,331Z"/><path class="ac4a0058-a926-4142-876d-20a087831bbe" d="M56.45,334.54a3.15,3.15,0,0,1-1.19-.22,3.69,3.69,0,0,1-1-.58l.5-.66a3.32,3.32,0,0,0,.78.5,2.12,2.12,0,0,0,.93.2,1.24,1.24,0,0,0,.87-.27.83.83,0,0,0,.28-.64.65.65,0,0,0-.12-.4,1.18,1.18,0,0,0-.3-.29,2.5,2.5,0,0,0-.43-.23l-.48-.19c-.21-.07-.41-.15-.62-.24a2.78,2.78,0,0,1-.56-.34,1.75,1.75,0,0,1-.4-.46,1.19,1.19,0,0,1-.16-.64,1.58,1.58,0,0,1,.14-.65,1.38,1.38,0,0,1,.4-.53,1.91,1.91,0,0,1,.63-.35,2.66,2.66,0,0,1,.84-.12,2.59,2.59,0,0,1,1,.19,3.42,3.42,0,0,1,.8.46l-.47.63a3.08,3.08,0,0,0-.62-.37,1.71,1.71,0,0,0-.71-.15,1.11,1.11,0,0,0-.81.26.78.78,0,0,0-.26.58.61.61,0,0,0,.11.36.92.92,0,0,0,.29.26,2.61,2.61,0,0,0,.41.21l.49.18.63.25a2.66,2.66,0,0,1,.57.33,1.78,1.78,0,0,1,.41.49,1.37,1.37,0,0,1,.16.7,1.55,1.55,0,0,1-.14.67,1.53,1.53,0,0,1-.4.55,1.94,1.94,0,0,1-.68.38A2.82,2.82,0,0,1,56.45,334.54Z"/><path class="ac4a0058-a926-4142-876d-20a087831bbe" d="M61.55,334.54a1.83,1.83,0,0,1-.79-.14,1.37,1.37,0,0,1-.52-.4,1.56,1.56,0,0,1-.28-.61,3.84,3.84,0,0,1-.08-.79v-3.23H59v-.74l.92-.06.12-1.63h.83v1.63h1.57v.8H60.88v3.24a1.54,1.54,0,0,0,.19.84.8.8,0,0,0,.7.29,1,1,0,0,0,.34-.05,1.33,1.33,0,0,0,.32-.11l.2.75a3.69,3.69,0,0,1-.53.15A2.57,2.57,0,0,1,61.55,334.54Z"/><path class="ac4a0058-a926-4142-876d-20a087831bbe" d="M64.27,327.37a.72.72,0,0,1-.49-.18.65.65,0,0,1,0-.92.79.79,0,0,1,1,0,.65.65,0,0,1,0,.92A.72.72,0,0,1,64.27,327.37Zm-.5,7v-5.83h1v5.83Z"/><path class="ac4a0058-a926-4142-876d-20a087831bbe" d="M67.76,334.54a.93.93,0,0,1-.8-.33,1.67,1.67,0,0,1-.24-1v-7.37h1v7.44a.47.47,0,0,0,.09.33.23.23,0,0,0,.19.1h.09l.12,0,.14.74-.23.07A1.67,1.67,0,0,1,67.76,334.54Z"/><path class="ac4a0058-a926-4142-876d-20a087831bbe" d="M70.28,327.37a.68.68,0,0,1-.48-.18.63.63,0,0,1,0-.92.72.72,0,0,1,.48-.17.75.75,0,0,1,.49.17.63.63,0,0,1,0,.92A.71.71,0,0,1,70.28,327.37Zm-.5,7v-5.83h1v5.83Z"/><path class="ac4a0058-a926-4142-876d-20a087831bbe" d="M72.12,334.4v-.53l3.07-4.5H72.45v-.8h4v.53l-3.07,4.5h3.16v.8Z"/><path class="ac4a0058-a926-4142-876d-20a087831bbe" d="M78.9,334.54a1.75,1.75,0,0,1-1.22-.43,1.54,1.54,0,0,1-.49-1.22,1.62,1.62,0,0,1,.86-1.47,6.87,6.87,0,0,1,2.72-.71,3.1,3.1,0,0,0,0-.54,1.33,1.33,0,0,0-.19-.47.91.91,0,0,0-.37-.33,1.15,1.15,0,0,0-.59-.13,2.52,2.52,0,0,0-.95.19,4.93,4.93,0,0,0-.79.44l-.38-.69a6.46,6.46,0,0,1,1-.51,3.42,3.42,0,0,1,1.3-.24,1.79,1.79,0,0,1,1.55.65,2.9,2.9,0,0,1,.48,1.75v3.57H81l-.08-.69h0a4.81,4.81,0,0,1-.9.59A2.26,2.26,0,0,1,78.9,334.54Zm.29-.79a1.67,1.67,0,0,0,.79-.19,4.14,4.14,0,0,0,.79-.59v-1.62a10.56,10.56,0,0,0-1.23.23,3.26,3.26,0,0,0-.8.31,1.15,1.15,0,0,0-.45.42,1,1,0,0,0-.14.51.84.84,0,0,0,.3.72A1.27,1.27,0,0,0,79.19,333.75Z"/><path class="ac4a0058-a926-4142-876d-20a087831bbe" d="M87.05,334.54a.93.93,0,0,1-.81-.33,1.67,1.67,0,0,1-.24-1v-7.37h1v7.44a.47.47,0,0,0,.08.33.24.24,0,0,0,.19.1h.09l.13,0,.13.74a1,1,0,0,1-.23.07A1.62,1.62,0,0,1,87.05,334.54Z"/><path class="ac4a0058-a926-4142-876d-20a087831bbe" d="M90.41,334.54a1.75,1.75,0,0,1-1.22-.43,1.51,1.51,0,0,1-.49-1.22,1.63,1.63,0,0,1,.85-1.47,7,7,0,0,1,2.73-.71,2.35,2.35,0,0,0-.06-.54,1.15,1.15,0,0,0-.18-.47.91.91,0,0,0-.37-.33,1.15,1.15,0,0,0-.59-.13,2.52,2.52,0,0,0-1,.19,4.53,4.53,0,0,0-.79.44l-.39-.69a7.12,7.12,0,0,1,1-.51,3.38,3.38,0,0,1,1.3-.24,1.77,1.77,0,0,1,1.54.65,2.9,2.9,0,0,1,.48,1.75v3.57h-.81l-.09-.69h0a4.81,4.81,0,0,1-.9.59A2.29,2.29,0,0,1,90.41,334.54Zm.28-.79a1.71,1.71,0,0,0,.8-.19,4.47,4.47,0,0,0,.79-.59v-1.62a10.56,10.56,0,0,0-1.23.23,3.52,3.52,0,0,0-.81.31,1.19,1.19,0,0,0-.44.42,1,1,0,0,0-.14.51.84.84,0,0,0,.3.72A1.26,1.26,0,0,0,90.69,333.75Z"/><path class="ac4a0058-a926-4142-876d-20a087831bbe" d="M98,327.37a.68.68,0,0,1-.48-.18.63.63,0,0,1,0-.92.72.72,0,0,1,.48-.17.73.73,0,0,1,.49.17.63.63,0,0,1,0,.92A.69.69,0,0,1,98,327.37Zm-.5,7v-5.83h1v5.83Z"/><path class="ac4a0058-a926-4142-876d-20a087831bbe" d="M100.46,334.4v-5.83h.82l.08.84h0a4.74,4.74,0,0,1,.88-.7,2,2,0,0,1,1.07-.28,1.57,1.57,0,0,1,1.35.57,2.82,2.82,0,0,1,.43,1.71v3.69h-1v-3.56a2.09,2.09,0,0,0-.27-1.2,1,1,0,0,0-.84-.36,1.44,1.44,0,0,0-.8.22,5.37,5.37,0,0,0-.79.68v4.22Z"/><path class="ac4a0058-a926-4142-876d-20a087831bbe" d="M107.2,334.4v-5h-.8v-.74l.8-.06v-.92a2.16,2.16,0,0,1,.41-1.42,1.55,1.55,0,0,1,1.29-.52,2.18,2.18,0,0,1,.52.06,2.15,2.15,0,0,1,.45.14l-.21.75a1.74,1.74,0,0,0-.66-.14c-.55,0-.82.37-.82,1.13v.92h1.24v.8h-1.24v5Z"/><path class="ac4a0058-a926-4142-876d-20a087831bbe" d="M112.68,334.54a2.59,2.59,0,0,1-1-.2,2.5,2.5,0,0,1-.86-.59,3.06,3.06,0,0,1-.59-1,3.92,3.92,0,0,1,0-2.59,3.11,3.11,0,0,1,.59-1,2.67,2.67,0,0,1,.86-.6,2.75,2.75,0,0,1,2.06,0,2.63,2.63,0,0,1,.85.6,3,3,0,0,1,.6,1,3.92,3.92,0,0,1,0,2.59,2.9,2.9,0,0,1-.6,1,2.46,2.46,0,0,1-.85.59A2.59,2.59,0,0,1,112.68,334.54Zm0-.81a1.42,1.42,0,0,0,.68-.16,1.58,1.58,0,0,0,.54-.46,2.28,2.28,0,0,0,.34-.7,3.23,3.23,0,0,0,.12-.91,3.31,3.31,0,0,0-.12-.92,2.34,2.34,0,0,0-.34-.71,1.61,1.61,0,0,0-.54-.47,1.42,1.42,0,0,0-.68-.16,1.39,1.39,0,0,0-.68.16,1.61,1.61,0,0,0-.54.47,2.13,2.13,0,0,0-.34.71,3.31,3.31,0,0,0-.12.92,3.23,3.23,0,0,0,.12.91,2.08,2.08,0,0,0,.34.7,1.58,1.58,0,0,0,.54.46A1.39,1.39,0,0,0,112.68,333.73Z"/><path d="M335.72,291.47H318.9a2.1,2.1,0,0,1-1.4-2.28q0-8.91,0-17.81a2.1,2.1,0,0,1,1.4-2.28h11.25a6.25,6.25,0,0,1,3.55,2.19c.61.67,1.28,1.29,1.93,1.93a4.82,4.82,0,0,1,1.48,3.56c0,4.14,0,8.27,0,12.41A2.09,2.09,0,0,1,335.72,291.47Zm-5.59-20.93c-.2,0-.33-.05-.46-.05H319.48c-.44,0-.58.19-.58.61,0,1.16,0,2.32,0,3.48q0,7.4,0,14.81c0,.41,0,.71.58.71h15.66c.39,0,.58-.14.58-.55q0-6.51,0-13c0-.35-.12-.45-.47-.45-1.52,0-3,0-4.57,0h-.55Zm4.77,4.13-3.37-3.4v3.4Z"/><path d="M366.05,291.47H349.24a2.1,2.1,0,0,1-1.41-2.28q0-8.91,0-17.81a2.1,2.1,0,0,1,1.41-2.28h11.24a6.28,6.28,0,0,1,3.56,2.19c.61.67,1.27,1.29,1.92,1.93a4.82,4.82,0,0,1,1.48,3.56c0,4.14,0,8.27,0,12.41A2.09,2.09,0,0,1,366.05,291.47Zm-5.59-20.93c-.2,0-.32-.05-.45-.05h-10.2c-.43,0-.58.19-.57.61,0,1.16,0,2.32,0,3.48v14.81c0,.41,0,.71.57.71h15.66c.4,0,.58-.14.58-.55q0-6.51,0-13c0-.35-.12-.45-.46-.45-1.53,0-3,0-4.58,0h-.55Zm4.77,4.13-3.36-3.4v3.4Z"/><path d="M396.38,291.47H379.57a2.09,2.09,0,0,1-1.4-2.28q0-8.91,0-17.81a2.09,2.09,0,0,1,1.4-2.28h11.24a6.28,6.28,0,0,1,3.56,2.19c.61.67,1.28,1.29,1.92,1.93a4.79,4.79,0,0,1,1.48,3.56c0,4.14,0,8.27,0,12.41A2.1,2.1,0,0,1,396.38,291.47Zm-5.59-20.93c-.19,0-.32-.05-.45-.05H380.15c-.44,0-.59.19-.58.61,0,1.16,0,2.32,0,3.48,0,4.93,0,9.87,0,14.81,0,.41,0,.71.57.71h15.67c.39,0,.57-.14.57-.55v-13c0-.35-.11-.45-.46-.45-1.52,0-3.05,0-4.57,0h-.56Zm4.78,4.13-3.37-3.4v3.4Z"/><path d="M426.72,291.47H409.9a2.1,2.1,0,0,1-1.4-2.28q0-8.91,0-17.81a2.1,2.1,0,0,1,1.4-2.28h11.25a6.25,6.25,0,0,1,3.55,2.19c.61.67,1.28,1.29,1.93,1.93a4.82,4.82,0,0,1,1.48,3.56c0,4.14,0,8.27,0,12.41A2.09,2.09,0,0,1,426.72,291.47Zm-5.59-20.93c-.2,0-.33-.05-.46-.05H410.48c-.44,0-.58.19-.58.61,0,1.16,0,2.32,0,3.48q0,7.4,0,14.81c0,.41,0,.71.58.71h15.66c.39,0,.58-.14.58-.55q0-6.51,0-13c0-.35-.12-.45-.47-.45-1.52,0-3,0-4.57,0h-.55Zm4.77,4.13-3.37-3.4v3.4Z"/><rect class="b9b1b781-72c1-43ff-84c3-85633f8e3fd8" x="306.56" y="231.35" width="131" height="93"/><path d="M335.71,262.14H318.9a2.08,2.08,0,0,1-1.4-2.28q0-8.9,0-17.81a2.09,2.09,0,0,1,1.4-2.28h11.24A6.24,6.24,0,0,1,333.7,242c.61.67,1.28,1.29,1.93,1.93a4.82,4.82,0,0,1,1.48,3.56c0,4.14,0,8.28,0,12.41A2.08,2.08,0,0,1,335.71,262.14Zm-5.59-20.93c-.19,0-.32-.05-.45-.05H319.48c-.44,0-.58.18-.58.6,0,1.16,0,2.32,0,3.48q0,7.41,0,14.81c0,.41,0,.71.58.71h15.66c.39,0,.58-.15.58-.55q0-6.52,0-13c0-.35-.12-.45-.47-.45-1.52,0-3.05,0-4.57,0h-.56Zm4.78,4.13-3.37-3.4v3.4Z"/><path d="M366.05,262.14H349.24a2.09,2.09,0,0,1-1.41-2.28q0-8.9,0-17.81a2.1,2.1,0,0,1,1.41-2.28h11.24A6.22,6.22,0,0,1,364,242c.61.67,1.28,1.29,1.93,1.93a4.82,4.82,0,0,1,1.48,3.56c0,4.14,0,8.28,0,12.41A2.08,2.08,0,0,1,366.05,262.14Zm-5.59-20.93c-.2,0-.33-.05-.46-.05H349.81c-.44,0-.58.18-.58.6,0,1.16,0,2.32,0,3.48v14.81c0,.41,0,.71.57.71h15.66c.4,0,.58-.15.58-.55q0-6.52,0-13c0-.35-.12-.45-.46-.45-1.53,0-3,0-4.58,0h-.55Zm4.77,4.13-3.36-3.4v3.4Z"/><path d="M396.38,262.14H379.57a2.08,2.08,0,0,1-1.4-2.28q0-8.9,0-17.81a2.09,2.09,0,0,1,1.4-2.28h11.24a6.28,6.28,0,0,1,3.56,2.19c.61.67,1.28,1.29,1.92,1.93a4.79,4.79,0,0,1,1.48,3.56c0,4.14,0,8.28,0,12.41A2.1,2.1,0,0,1,396.38,262.14Zm-5.59-20.93c-.19,0-.32-.05-.45-.05h-10.2c-.43,0-.58.18-.57.6,0,1.16,0,2.32,0,3.48v14.81c0,.41,0,.71.57.71H395.8c.4,0,.58-.15.58-.55v-13c0-.35-.12-.45-.46-.45-1.52,0-3.05,0-4.57,0h-.56Zm4.78,4.13-3.37-3.4v3.4Z"/><path d="M426.71,262.14H409.9a2.08,2.08,0,0,1-1.4-2.28q0-8.9,0-17.81a2.09,2.09,0,0,1,1.4-2.28h11.24A6.24,6.24,0,0,1,424.7,242c.61.67,1.28,1.29,1.93,1.93a4.82,4.82,0,0,1,1.48,3.56c0,4.14,0,8.28,0,12.41A2.08,2.08,0,0,1,426.71,262.14Zm-5.59-20.93c-.19,0-.32-.05-.45-.05H410.48c-.44,0-.58.18-.58.6,0,1.16,0,2.32,0,3.48q0,7.41,0,14.81c0,.41,0,.71.58.71h15.66c.39,0,.58-.15.58-.55q0-6.52,0-13c0-.35-.12-.45-.47-.45-1.52,0-3.05,0-4.57,0h-.56Zm4.78,4.13-3.37-3.4v3.4Z"/></svg>