<svg id="a298bdb6-149a-4152-bfd6-03023933ea3a" data-name="Capa 1" xmlns="http://www.w3.org/2000/svg" viewBox="0 0 420 365"><defs><style>.a82d14c2-6665-4e60-ab36-b68fad42ae61{font-size:20.07px;font-family:MyriadPro-Semibold, Myriad Pro;font-weight:600;}.af4cebe8-bca9-4250-a237-f8343893b63f{letter-spacing:-0.02em;}.b7bd51d6-3268-4e6d-a1ea-873e4b106aa8{font-size:18px;font-family:MyriadPro-Regular, Myriad Pro;}.a3cca272-0718-465b-90c0-a13a57a6b87e{letter-spacing:-0.01em;}.aae5554e-e4ec-4576-bebe-c7042e9530a9{fill:#1572b6;}.f6958a2e-5cc7-4f0b-8d5b-ac25b00e2dc8{fill:#34a8db;}.f356a362-410f-400a-9fc6-ef5f4e62b1ae{fill:#e7e8e9;}.e455d21c-396a-470d-a956-810e380fc31c{fill:#e4e7e9;}.a9201d39-1b2c-4531-831f-f21d2983e0a5{fill:#fdfdfe;}.e0be9504-f242-49c0-94e5-038069c36030{opacity:0.3;}.f1717d2a-9dc3-4f6e-b55a-bcae8ea1b0c7{fill:none;stroke:#000;stroke-linecap:round;stroke-miterlimit:10;stroke-width:5px;}.fb0c8d23-c461-4035-af32-495ecb53816a{letter-spacing:0em;}.e910a50b-981b-491e-9364-3a42b31b73d1{fill:#e34f27;}.e522c5ed-fa5d-442b-9ec4-57219f9ec4ed{fill:#f0662a;}.a30b4f8c-1173-47fb-9e27-af792c9f4443{fill:#ebe8e7;}.a810c6b7-1748-4228-909f-1ba30eee9f43{fill:#ef590c;}.e3649966-65e5-4ffd-8c0a-09b71136daef{fill:#fefdfc;}.ffaf8265-84be-418a-9259-1c5546480ea2{fill:#fefdfd;}.b9332ef0-1fa0-42e0-ae16-fd305778ea39{letter-spacing:-0.01em;}.a4279362-fac2-4bbf-89b1-200c4d4ae24e{fill:#8692c1;}.ed84f915-e76c-48e2-aa9b-9d10f2be2c43{fill:#232633;}.b8310278-1399-411d-8334-04929b442f6f{letter-spacing:0em;}.bbe0be64-ef85-4e85-bfed-320ddc3be070{letter-spacing:-0.01em;}.f23b2550-d981-4f21-bff3-bbef23ac3b04{letter-spacing:-0.03em;}.a5f215c2-3d5c-4c01-9eba-2511a181a31c{letter-spacing:0em;}.b8c5de90-c9ba-400a-9f61-66123e4da034{fill:#efa001;}.e42b8a08-7b7e-4526-a1fd-ecd7fa1107fb{fill:#f9bd01;}.a311f84f-5c86-43d5-a3a1-0f2af5dd3a54{fill:#ebebea;}.fb9406d5-a08e-4067-aee4-805015cc56f5{fill:#fefefd;}</style></defs><title>_</title><text class="a82d14c2-6665-4e60-ab36-b68fad42ae61" transform="translate(16.48 26.54)"><tspan class="af4cebe8-bca9-4250-a237-f8343893b63f">F</tspan><tspan x="9.89" y="0">lujo</tspan></text><text class="b7bd51d6-3268-4e6d-a1ea-873e4b106aa8" transform="translate(54.38 322.77)">bas<tspan class="a3cca272-0718-465b-90c0-a13a57a6b87e" x="26.05" y="0">e</tspan><tspan x="34.85" y="0">.css</tspan></text><path class="aae5554e-e4ec-4576-bebe-c7042e9530a9" d="M85.21,257.25c4.86,0,9.72,0,14.58,0,.76,0,.86.24.8.9-.79,8.68-1.55,17.35-2.33,26-.12,1.32-.26,2.65-.35,4a.8.8,0,0,1-.7.84q-5.82,1.57-11.63,3.22a1.53,1.53,0,0,1-.85,0C80.91,291.1,77.1,290,73.27,289a.91.91,0,0,1-.79-.95q-1-11.91-2.12-23.82c-.19-2.06-.35-4.13-.56-6.19-.06-.6.07-.81.73-.8C75.42,257.27,80.31,257.25,85.21,257.25Zm-.27,14c-1.24,0-2.47,0-3.71,0-.38,0-.63,0-.58.53.1,1,.17,1.93.23,2.9,0,.47.35.47.69.47l3.54,0v6.06l-2.48-.65c-1.65-.45-1.65-.45-1.85-2.1a8.23,8.23,0,0,1-.11-1c0-.4-.18-.51-.55-.5-.91,0-1.83,0-2.75,0-.54,0-.65.19-.6.68.16,1.56.31,3.12.41,4.68a1,1,0,0,0,.87,1c2.37.63,4.72,1.32,7.07,2v3.2c0,1.12,0,1.11,1,.81,2.59-.72,5.17-1.45,7.76-2.16,1.65-.46,1.62-.44,1.7-2.14s.23-3.47.39-5.2c.21-2.38.45-4.75.67-7.12.14-1.56.26-3.12.4-4.67.21-2.44.44-4.87.67-7.3.06-.63-.09-.9-.8-.89q-5.52,0-11,0c-.62,0-.81.18-.83.81a6.7,6.7,0,0,1-.16,2.71c-2.89,0-5.79,0-8.69,0-.58,0-.79.15-.7.75a17.29,17.29,0,0,1,.24,2.38c0,.69.31.79.92.79,2.81,0,5.61,0,8.42,0,0,.38,0,.76,0,1.13C85,269.42,85.33,270.36,84.94,271.25Z"/><path class="f6958a2e-5cc7-4f0b-8d5b-ac25b00e2dc8" d="M84.94,263.42a6.7,6.7,0,0,0,.16-2.71c0-.63.21-.81.83-.81q5.5,0,11,0c.71,0,.86.26.8.89-.23,2.43-.46,4.86-.67,7.3-.14,1.55-.26,3.11-.4,4.67-.22,2.37-.46,4.74-.67,7.12-.16,1.73-.31,3.47-.39,5.2s-.05,1.68-1.7,2.14c-2.59.71-5.17,1.44-7.76,2.16-1,.3-1,.31-1-.81v-3.2l.19-.08c2.25-.61,4.49-1.28,6.77-1.81.91-.21,1.14-.66,1.2-1.5.19-2.57.45-5.13.68-7.69q.45-5.09.91-10.17c0-.49-.07-.68-.6-.68-3,0-6,0-9,.05Z"/><path class="f356a362-410f-400a-9fc6-ef5f4e62b1ae" d="M85.31,285.29l-.19.08c-2.35-.66-4.7-1.35-7.07-2a1,1,0,0,1-.87-1c-.1-1.56-.25-3.12-.41-4.68,0-.49.06-.7.6-.68.92,0,1.84,0,2.75,0,.37,0,.55.1.55.5a8.23,8.23,0,0,0,.11,1c.2,1.65.2,1.65,1.85,2.1l2.48.65.19.06Z"/><path class="e455d21c-396a-470d-a956-810e380fc31c" d="M84.94,263.42l.35.07c0,1.26,0,2.52,0,3.78l-.17.1c-2.81,0-5.61,0-8.42,0-.61,0-.92-.1-.92-.79a17.29,17.29,0,0,0-.24-2.38c-.09-.6.12-.75.7-.75C79.15,263.45,82.05,263.43,84.94,263.42Z"/><path class="f6958a2e-5cc7-4f0b-8d5b-ac25b00e2dc8" d="M85.3,281.32l-.19-.06V275.2s0-.08,0-.12a33.94,33.94,0,0,0,4.16.08c.49,0,.7.12.65.65-.14,1.32-.26,2.64-.36,4,0,.42-.32.44-.6.52Z"/><path class="f6958a2e-5cc7-4f0b-8d5b-ac25b00e2dc8" d="M85.13,267.37l.17-.1c1.54,0,3.08.07,4.62.05.6,0,.78.19.7.77-.1.82-.17,1.65-.22,2.47,0,.54-.25.75-.83.74-1.48,0-3,0-4.44,0l-.19-.08c.39-.89.1-1.83.18-2.75C85.15,268.13,85.13,267.75,85.13,267.37Z"/><path class="e455d21c-396a-470d-a956-810e380fc31c" d="M84.94,271.25l.19.08a9.11,9.11,0,0,1,0,3.75s0,.08,0,.12l-3.54,0c-.34,0-.66,0-.69-.47-.06-1-.13-1.94-.23-2.9-.05-.49.2-.53.58-.53C82.47,271.28,83.7,271.26,84.94,271.25Z"/><path class="a9201d39-1b2c-4531-831f-f21d2983e0a5" d="M85.12,275.08a9.11,9.11,0,0,0,0-3.75c1.48,0,3-.06,4.44,0,.58,0,.79-.2.83-.74,0-.82.12-1.65.22-2.47.08-.58-.1-.77-.7-.77-1.54,0-3.08,0-4.62-.05,0-1.26,0-2.52,0-3.78,3,0,6,0,9-.05.53,0,.65.19.6.68q-.47,5.08-.91,10.17c-.23,2.56-.49,5.12-.68,7.69-.06.84-.29,1.29-1.2,1.5-2.28.53-4.52,1.2-6.77,1.81,0-1.32,0-2.65,0-4l3.67-1c.28-.08.57-.1.6-.52.1-1.33.22-2.65.36-4,0-.53-.16-.64-.65-.65A33.94,33.94,0,0,1,85.12,275.08Z"/><path class="aae5554e-e4ec-4576-bebe-c7042e9530a9" d="M111.6,300.53H58.79c-3.37-1.22-4.42-3.72-4.41-7.16q.12-28,0-56c0-3.45,1-5.95,4.41-7.17H94.1c4.63.83,8.11,3.48,11.18,6.87,1.92,2.12,4,4.07,6,6.08A15.17,15.17,0,0,1,116,254.38c0,13-.06,26,0,39C116,296.81,115,299.31,111.6,300.53ZM94,234.76c-.61-.06-1-.14-1.42-.14-10.67,0-21.35,0-32,0-1.38,0-1.83.59-1.81,1.89,0,3.65,0,7.29,0,10.93q0,23.28,0,46.54c0,1.29.12,2.22,1.8,2.22q24.6,0,49.2,0c1.24,0,1.82-.44,1.82-1.73q0-20.46,0-40.91c0-1.09-.37-1.42-1.45-1.41-4.79,0-9.58,0-14.37,0H94Zm15,13c-3.52-3.57-7.07-7.15-10.57-10.69v10.69Z"/><g class="e0be9504-f242-49c0-94e5-038069c36030"><path class="f1717d2a-9dc3-4f6e-b55a-bcae8ea1b0c7" d="M31.52,121.21c-10.77,11.85-22,32.17-22,61.17C9.5,229,28.9,246.32,40.86,255"/><polygon points="20.96 114.38 45.49 109.95 37.06 133.41 20.96 114.38"/></g><text class="b7bd51d6-3268-4e6d-a1ea-873e4b106aa8" transform="translate(52.98 162.49)">ind<tspan class="fb0c8d23-c461-4035-af32-495ecb53816a" x="24.35" y="0">e</tspan><tspan x="33.32" y="0">x.php</tspan></text><path class="e910a50b-981b-491e-9364-3a42b31b73d1" d="M83.73,100H98.14c1.09,0,1.13.06,1,1.09l-1.59,17.8c-.36,4-.73,8-1.07,12,0,.5-.24.69-.72.82Q90,133.36,84.26,135a1.59,1.59,0,0,1-.94,0c-3.85-1.08-7.69-2.16-11.55-3.2a.78.78,0,0,1-.68-.84q-.81-9.45-1.65-18.87c-.32-3.64-.66-7.27-1-10.9-.11-1.14-.12-1.14,1-1.14Zm0,18.36,0,5.92c-.94-.11-1.81-.53-2.74-.69s-1.79-.49-1.58-1.77a9.12,9.12,0,0,0-.11-1.15c0-.43-.18-.56-.59-.55-.89,0-1.78,0-2.67,0-.57,0-.71.16-.66.7.16,1.54.3,3.07.41,4.61,0,.6.29.84.88,1,2.37.62,4.72,1.32,7.09,2,0,1,0,2,0,2.94s.25,1.05,1.09.81l2.81-.79c1.79-.49,3.6-.94,5.38-1.48.37-.11,1-.11,1-.68.15-1.2.27-2.4.37-3.61.14-1.61.24-3.23.38-4.85.22-2.52.46-5,.69-7.57.14-1.56.26-3.11.41-4.67s.31-3.34.48-5c.07-.61-.14-.83-.78-.83q-5.47,0-11,0c-.67,0-.91.29-.91.9,0,.89,0,1.78,0,2.67-2.91,0-5.82,0-8.72,0-.3,0-.67-.15-.89.21l1,11.71c.26.3.61.18.92.18Z"/><path class="e522c5ed-fa5d-442b-9ec4-57219f9ec4ed" d="M83.73,106.27c0-.89,0-1.78,0-2.67,0-.61.24-.9.91-.9q5.48,0,11,0c.64,0,.85.22.78.83q-.26,2.5-.48,5c-.15,1.56-.27,3.11-.41,4.67-.23,2.53-.47,5.05-.69,7.57-.14,1.62-.24,3.24-.38,4.85-.1,1.21-.22,2.41-.37,3.61-.07.57-.66.57-1,.68-1.78.54-3.59,1-5.38,1.48l-2.81.79c-.84.24-1.08.07-1.09-.81s0-2,0-2.94l0-.08a2.13,2.13,0,0,0,.44,0c2.36-.64,4.72-1.31,7.09-1.94.45-.12.51-.39.54-.77.28-3.19.59-6.36.83-9.55,0-.59.4-1.19,0-1.79-.27-.28-.61-.17-.92-.17h-8v-3.7l0-.07,8.9,0c.43,0,.56-.14.58-.55,0-.86.12-1.72.19-2.57l.06-.26c0-.2.12-.4-.11-.55s-.61-.17-.92-.17Z"/><path class="a30b4f8c-1173-47fb-9e27-af792c9f4443" d="M75.17,118.21l-1-11.71,9.61,0,0,3.82,0,.07c-1.59,0-3.19,0-4.78,0-.45,0-.64.1-.57.59.14,1.05.23,2.11.35,3.16.18.37.51.19.77.19,1.41,0,2.82,0,4.22,0v3.83Z"/><path class="a30b4f8c-1173-47fb-9e27-af792c9f4443" d="M83.73,128.44c-2.37-.66-4.72-1.36-7.09-2-.59-.15-.84-.39-.88-1-.11-1.54-.25-3.07-.41-4.61,0-.54.09-.73.66-.7.89,0,1.78,0,2.67,0,.41,0,.59.12.59.55a9.12,9.12,0,0,1,.11,1.15c-.21,1.28.55,1.6,1.58,1.77s1.8.58,2.74.69a.5.5,0,0,1,0,.12c0,1.31,0,2.61,0,3.92Z"/><path class="e522c5ed-fa5d-442b-9ec4-57219f9ec4ed" d="M83.72,124.44a.5.5,0,0,0,0-.12l0-5.92H88.5c-.11,1.47-.24,2.93-.34,4.4,0,.42-.29.51-.62.6Z"/><path class="a810c6b7-1748-4228-909f-1ba30eee9f43" d="M83.73,106.52l-9.61,0c.22-.36.59-.21.89-.21,2.9,0,5.81,0,8.72,0h8.68c.31,0,.66-.11.92.17Z"/><path class="a810c6b7-1748-4228-909f-1ba30eee9f43" d="M88.5,118.39H76.09c-.31,0-.66.12-.92-.18l8.55,0c1.28,0,2.55,0,3.82,0C87.86,118.23,88.24,118,88.5,118.39Z"/><path class="e3649966-65e5-4ffd-8c0a-09b71136daef" d="M88.5,118.39c-.26-.35-.64-.16-1-.17-1.27,0-2.54,0-3.82,0v-3.83l8.9-.07c.39.6,0,1.2,0,1.79-.24,3.19-.55,6.36-.83,9.55,0,.38-.09.65-.54.77-2.37.63-4.73,1.3-7.09,1.94a2.13,2.13,0,0,1-.44,0c0-1.31,0-2.61,0-3.92l3.82-1c.33-.09.59-.18.62-.6C88.26,121.32,88.39,119.86,88.5,118.39Z"/><path class="ffaf8265-84be-418a-9259-1c5546480ea2" d="M83.73,106.52l9.6-.07c.23.15.16.35.11.55l-.06.26c-.07.85-.15,1.71-.19,2.57,0,.41-.15.56-.58.55l-8.9,0C83.72,109.07,83.72,107.79,83.73,106.52Z"/><path class="e910a50b-981b-491e-9364-3a42b31b73d1" d="M78.73,114.12c-.12-1.05-.21-2.11-.35-3.16-.07-.49.12-.6.57-.59,1.59,0,3.19,0,4.78,0v3.7Z"/><path class="a810c6b7-1748-4228-909f-1ba30eee9f43" d="M78.73,114.12h13c.31,0,.65-.11.92.17l-8.9.07c-1.4,0-2.81,0-4.22,0C79.24,114.31,78.91,114.49,78.73,114.12Z"/><path class="a30b4f8c-1173-47fb-9e27-af792c9f4443" d="M93.38,107.26l.06-.26Z"/><path class="e910a50b-981b-491e-9364-3a42b31b73d1" d="M110.21,144.79H57.39C54,143.57,53,141.07,53,137.63q.12-28,0-56c0-3.45,1-6,4.41-7.17H92.71c4.62.83,8.1,3.48,11.17,6.87,1.92,2.12,4,4.07,6.05,6.08a15.13,15.13,0,0,1,4.65,11.19c0,13-.06,26,0,39C114.64,141.07,113.58,143.57,110.21,144.79ZM92.64,79c-.61-.06-1-.14-1.42-.14-10.67,0-21.35,0-32,0-1.37,0-1.83.59-1.81,1.89,0,3.65,0,7.29,0,10.93q0,23.26,0,46.54c0,1.29.13,2.22,1.8,2.22q24.6-.06,49.21,0c1.23,0,1.81-.44,1.81-1.73q0-20.46,0-40.91c0-1.09-.37-1.42-1.45-1.41-4.79.05-9.58,0-14.37,0H92.64Zm15,13c-3.52-3.57-7.07-7.15-10.57-10.69V92Z"/><text class="b7bd51d6-3268-4e6d-a1ea-873e4b106aa8" transform="translate(304.98 163.81)">backen<tspan class="b9332ef0-1fa0-42e0-ae16-fd305778ea39" x="54.43" y="0">d</tspan><tspan x="64.4" y="0">.php</tspan></text><path class="a4279362-fac2-4bbf-89b1-200c4d4ae24e" d="M333.15,108.21h5.3c.13.18.32.11.49.13a33.08,33.08,0,0,1,8.46,1.74,19.82,19.82,0,0,1,5.27,2.72,9.54,9.54,0,0,1,3.68,5.09V120c-.17.07-.18.25-.22.38a7.23,7.23,0,0,1-1.64,2.92,15.92,15.92,0,0,1-6.77,4.25,36.21,36.21,0,0,1-19.38,1.25,22.88,22.88,0,0,1-9.47-3.89,9.54,9.54,0,0,1-3.18-3.83c-.15-.36-.13-.79-.43-1.08v-2.26s.11-.08.12-.14A9.52,9.52,0,0,1,320,112.1a27,27,0,0,1,10.33-3.5A21.14,21.14,0,0,0,333.15,108.21ZM345,113.83c-.75,0-1.5,0-2.25,0-.47,0-.68.12-.74.6s-.21,1.12-.32,1.68c-.57,2.86-1.12,5.72-1.7,8.57-.09.45,0,.54.43.53a15.32,15.32,0,0,1,1.66,0c.35,0,.51-.1.56-.45.1-.63.25-1.26.35-1.89.06-.42.2-.66.71-.61s1.32,0,2,0a4.93,4.93,0,0,0,4.93-4.07c.53-2.75-.75-4.31-3.55-4.36C346.37,113.82,345.69,113.83,345,113.83Zm-18.86,0v0c-.78,0-1.55,0-2.32,0-.4,0-.57.12-.65.54q-1,5.16-2.05,10.31c-.09.44,0,.55.45.53s1.1,0,1.65,0c.34,0,.51-.08.56-.46.09-.67.26-1.34.38-2,0-.34.18-.49.55-.48.67,0,1.33,0,2,0a4.94,4.94,0,0,0,5.09-4.27c.42-2.43-.69-3.92-3.14-4.12C327.82,113.8,327,113.86,326.14,113.86Zm12.45,8.4a7.19,7.19,0,0,1,.94,0c.43.06.57-.16.63-.54.27-1.65.48-3.32.85-5s-.59-2.64-2.17-2.88a17.08,17.08,0,0,0-2.58-.07c-.39,0-.58-.09-.46-.53s.14-.77.22-1.16c.26-1.27.26-1.27-1-1.27-.31,0-.62,0-.93,0s-.52.1-.59.49c-.3,1.61-.63,3.2-.95,4.8-.37,1.84-.72,3.68-1.11,5.51-.1.48,0,.63.51.6a11.16,11.16,0,0,1,1.53,0c.4,0,.56-.11.64-.53.32-1.76.7-3.51,1-5.26.08-.43.25-.6.69-.57s1,0,1.46,0c.9,0,1.1.26.93,1.14l-.72,3.83c-.08.43-.35,1-.16,1.26S338.21,122.21,338.59,122.26Z"/><path class="ed84f915-e76c-48e2-aa9b-9d10f2be2c43" d="M345,113.83c.69,0,1.37,0,2.06,0,2.8,0,4.08,1.61,3.55,4.36a4.93,4.93,0,0,1-4.93,4.07c-.66,0-1.33,0-2,0s-.65.19-.71.61c-.1.63-.25,1.26-.35,1.89-.05.35-.21.47-.56.45a15.32,15.32,0,0,0-1.66,0c-.41,0-.52-.08-.43-.53.58-2.85,1.13-5.71,1.7-8.57.11-.56.25-1.12.32-1.68s.27-.62.74-.6C343.5,113.85,344.25,113.83,345,113.83Zm.62,2.09c-.29,0-.58,0-.86,0s-.39,0-.43.3c-.19,1.19-.39,2.38-.58,3.57,0,.21,0,.35.25.35a5.87,5.87,0,0,0,2.53-.28,2.91,2.91,0,0,0,1.34-2.93c-.14-.7-.77-1-2.06-1Z"/><path class="ed84f915-e76c-48e2-aa9b-9d10f2be2c43" d="M326.14,113.86c.84,0,1.68-.06,2.51,0,2.45.2,3.56,1.69,3.14,4.12a4.94,4.94,0,0,1-5.09,4.27c-.66,0-1.32,0-2,0-.37,0-.5.14-.55.48-.12.67-.29,1.34-.38,2,0,.38-.22.47-.56.46-.55,0-1.1,0-1.65,0s-.54-.09-.45-.53q1-5.15,2.05-10.31c.08-.42.25-.55.65-.54.77,0,1.54,0,2.32,0Zm.61,2.06a3.68,3.68,0,0,1-.47,0c-.54-.08-.85.08-.89.7s-.23,1.18-.27,1.77-.54,1.36-.08,1.67,1.25.12,1.87,0a2.6,2.6,0,0,0,2.13-3C329,116.25,328.35,115.92,326.75,115.92Z"/><path class="ed84f915-e76c-48e2-aa9b-9d10f2be2c43" d="M338.59,122.26c-.38-.05-1,.21-1.24-.11s.08-.83.16-1.26l.72-3.83c.17-.88,0-1.12-.93-1.14-.49,0-1,0-1.46,0s-.61.14-.69.57c-.33,1.75-.71,3.5-1,5.26-.08.42-.24.55-.64.53a11.16,11.16,0,0,0-1.53,0c-.48,0-.61-.12-.51-.6.39-1.83.74-3.67,1.11-5.51.32-1.6.65-3.19.95-4.8.07-.39.21-.53.59-.49s.62,0,.93,0c1.26,0,1.26,0,1,1.27-.08.39-.13.78-.22,1.16s.07.53.46.53a17.08,17.08,0,0,1,2.58.07c1.58.24,2.55,1.2,2.17,2.88s-.58,3.3-.85,5c-.06.38-.2.6-.63.54A7.19,7.19,0,0,0,338.59,122.26Z"/><path class="a4279362-fac2-4bbf-89b1-200c4d4ae24e" d="M345.62,115.92h.19c1.29,0,1.92.31,2.06,1a2.91,2.91,0,0,1-1.34,2.93,5.87,5.87,0,0,1-2.53.28c-.25,0-.29-.14-.25-.35.19-1.19.39-2.38.58-3.57,0-.25.2-.31.43-.3S345.33,115.92,345.62,115.92Z"/><path class="a4279362-fac2-4bbf-89b1-200c4d4ae24e" d="M326.75,115.92c1.6,0,2.22.33,2.29,1.2a2.6,2.6,0,0,1-2.13,3c-.62.09-1.43.26-1.87,0s0-1.1.08-1.67.24-1.18.27-1.77.35-.78.89-.7A3.68,3.68,0,0,0,326.75,115.92Z"/><path class="a4279362-fac2-4bbf-89b1-200c4d4ae24e" d="M362.21,148.12H309.39C306,146.9,305,144.4,305,141q.12-28,0-56c0-3.44,1-5.94,4.41-7.16h35.32c4.62.83,8.1,3.48,11.17,6.87,1.92,2.12,4,4.07,6.05,6.08A15.12,15.12,0,0,1,366.58,102c0,13-.06,26,0,39C366.64,144.4,365.58,146.9,362.21,148.12ZM344.64,82.35c-.61-.06-1-.14-1.42-.14q-16,0-32,0c-1.37,0-1.83.59-1.81,1.89,0,3.64,0,7.29,0,10.93q0,23.26,0,46.54c0,1.29.13,2.22,1.8,2.21q24.6,0,49.21,0c1.23,0,1.81-.45,1.81-1.73q0-20.46,0-40.92c0-1.09-.37-1.41-1.45-1.4-4.79.05-9.58,0-14.37,0h-1.75Zm15,13L349.07,84.66V95.34Z"/><g class="e0be9504-f242-49c0-94e5-038069c36030"><line class="f1717d2a-9dc3-4f6e-b55a-bcae8ea1b0c7" x1="150.96" y1="100.87" x2="121.93" y2="100.87"/><polygon points="145.51 88.4 167.1 100.87 145.51 113.33 145.51 88.4"/></g><g class="e0be9504-f242-49c0-94e5-038069c36030"><line class="f1717d2a-9dc3-4f6e-b55a-bcae8ea1b0c7" x1="278.1" y1="105.87" x2="241.92" y2="105.87"/><polygon points="272.37 93.4 293.96 105.87 272.37 118.33 272.37 93.4"/></g><g class="e0be9504-f242-49c0-94e5-038069c36030"><line class="f1717d2a-9dc3-4f6e-b55a-bcae8ea1b0c7" x1="133.92" y1="122.58" x2="165" y2="122.58"/><polygon points="139.45 135.05 117.87 122.58 139.45 110.12 139.45 135.05"/></g><g class="e0be9504-f242-49c0-94e5-038069c36030"><line class="f1717d2a-9dc3-4f6e-b55a-bcae8ea1b0c7" x1="253.92" y1="127.58" x2="285" y2="127.58"/><polygon points="259.45 140.05 237.87 127.58 259.45 115.12 259.45 140.05"/></g><text class="b7bd51d6-3268-4e6d-a1ea-873e4b106aa8" transform="translate(172.01 165.77)"><tspan class="b8310278-1399-411d-8334-04929b442f6f">v</tspan><tspan x="8.59" y="0">alid</tspan><tspan class="b8310278-1399-411d-8334-04929b442f6f" x="35.87" y="0">a</tspan><tspan class="bbe0be64-ef85-4e85-bfed-320ddc3be070" x="44.48" y="0">t</tspan><tspan x="50.33" y="0">e</tspan><tspan class="f23b2550-d981-4f21-bff3-bbef23ac3b04" x="59.35" y="0">F</tspan><tspan x="67.55" y="0">o</tspan><tspan class="a5f215c2-3d5c-4c01-9eba-2511a181a31c" x="77.44" y="0">r</tspan><tspan x="83.39" y="0">m.js</tspan></text><path class="b8c5de90-c9ba-400a-9f61-66123e4da034" d="M228.6,143.53H175.79c-3.37-1.22-4.42-3.72-4.41-7.16q.12-28,0-56c0-3.45,1-6,4.41-7.17H211.1c4.63.83,8.11,3.48,11.18,6.87,1.92,2.12,4,4.07,6.05,6.08A15.17,15.17,0,0,1,233,97.38c0,13-.06,26,0,39C233,139.81,232,142.31,228.6,143.53ZM211,77.76c-.61-.06-1-.14-1.42-.14-10.67,0-21.35,0-32,0-1.38,0-1.83.59-1.81,1.89,0,3.65,0,7.29,0,10.93q0,23.28,0,46.54c0,1.29.12,2.22,1.8,2.22q24.6,0,49.2,0c1.24,0,1.82-.44,1.82-1.73q0-20.46,0-40.91c0-1.09-.37-1.42-1.45-1.41-4.79,0-9.58,0-14.37,0H211Zm15,13c-3.52-3.57-7.07-7.15-10.57-10.69V90.76Z"/><path class="b8c5de90-c9ba-400a-9f61-66123e4da034" d="M187.31,101.18v-.93h30.05a1,1,0,0,1,.64.1v.72c-.1,0-.1.12-.1.21-.17,1.84-.34,3.69-.5,5.53-.33,3.65-.64,7.31-1,11q-.6,6.64-1.19,13.27a.61.61,0,0,1-.53.65c-3.9,1.06-7.79,2.15-11.68,3.23a1.4,1.4,0,0,1-.81,0L199,134l-8.46-2.35c-.23-.07-.43-.08-.46-.43-.19-2.25-.4-4.51-.6-6.76l-.87-9.78c-.33-3.74-.65-7.48-1-11.22A8.61,8.61,0,0,0,187.31,101.18Zm15.35,17.09v6l-.1.07c-1.25-.35-2.5-.71-3.76-1a.56.56,0,0,1-.5-.62c0-.73-.14-1.47-.18-2.2,0-.3-.13-.37-.41-.37-1,0-2.09,0-3.13,0-.36,0-.39.14-.36.43.17,1.77.33,3.54.48,5.32a.36.36,0,0,0,.31.38l7.52,2.07.12,0c0,1.17,0,2.33,0,3.5,0,.3,0,.44.41.33q4.63-1.31,9.3-2.57c.32-.09.49-.27.48-.56,0-.54.1-1.06.12-1.59,0-.9.14-1.8.22-2.7.12-1.36.27-2.72.39-4.07s.21-2.62.32-3.93.28-2.68.4-4,.2-2.8.32-4.19c.16-1.71.33-3.43.51-5.14,0-.45-.08-.63-.58-.62-3.5,0-7,0-10.5,0-1.4,0-1.4,0-1.38,1.4l-.57,0c-2,0-4,0-6,0-.47,0-.72.06-.7.62a15.19,15.19,0,0,1-.17,1.64c-.34,3.75-.67,7.51-1,11.27,0,.4.07.49.46.48h6.48a6.47,6.47,0,0,0,1.39,0Z"/><path class="e42b8a08-7b7e-4526-a1fd-ecd7fa1107fb" d="M202.66,104.23c0-1.4,0-1.4,1.38-1.4,3.5,0,7,0,10.5,0,.5,0,.62.17.58.62-.18,1.71-.35,3.43-.51,5.14-.12,1.39-.2,2.79-.32,4.19s-.27,2.68-.4,4-.2,2.62-.32,3.93-.27,2.71-.39,4.07c-.08.9-.18,1.8-.22,2.7,0,.53-.15,1-.12,1.59,0,.29-.16.47-.48.56q-4.67,1.26-9.3,2.57c-.37.11-.41,0-.41-.33,0-1.17,0-2.33,0-3.5l.29-.11,6-1.66c.48-.14,1.07-.15,1.4-.45s.19-1,.24-1.47c.3-3.25.58-6.51.9-9.77,0-.44-.06-.57-.53-.56-2.77,0-5.55,0-8.33,0v-6.08c1.4.08,2.8.17,4.2.22.36,0,.47.13.5.47.07,1,.18,2,.26,3.07,0,.31.08.49.46.48,1,0,2.06,0,3.09,0,.31,0,.38-.11.35-.39-.08-.75-.14-1.5-.21-2.25-.15-1.73-.29-3.45-.44-5.17,0-.25,0-.45-.39-.45l-7.82,0Z"/><path class="a311f84f-5c86-43d5-a3a1-0f2af5dd3a54" d="M202.56,118.2a6.47,6.47,0,0,1-1.39,0h-6.48c-.39,0-.5-.08-.46-.48.35-3.76.68-7.52,1-11.27a15.19,15.19,0,0,0,.17-1.64c0-.56.23-.62.7-.62,2,0,4,0,6,0l.57,0v4.08c-1.08,0-2.16.06-3.24.06-.35,0-.46.1-.48.46-.14,1.71-.3,3.41-.48,5.12,0,.35,0,.43.39.42,1.23,0,2.47,0,3.7,0Z"/><path class="fb9406d5-a08e-4067-aee4-805015cc56f5" d="M202.56,118.2c0-1.27,0-2.54,0-3.81l.1,0c2.78,0,5.56,0,8.33,0,.47,0,.57.12.53.56-.32,3.26-.6,6.52-.9,9.77-.05.51.11,1.14-.24,1.47s-.92.31-1.4.45l-6,1.66-.29.11-.12,0,0-4,.1-.07,4-1c.18-.05.26-.12.27-.31.13-1.45.26-2.9.4-4.34,0-.25,0-.38-.32-.37l-4.31,0Z"/><path class="a311f84f-5c86-43d5-a3a1-0f2af5dd3a54" d="M202.56,124.36l0,4L195,126.26a.36.36,0,0,1-.31-.38c-.15-1.78-.31-3.55-.48-5.32,0-.29,0-.44.36-.43,1,0,2.09,0,3.13,0,.28,0,.39.07.41.37,0,.73.16,1.47.18,2.2a.56.56,0,0,0,.5.62C200.06,123.65,201.31,124,202.56,124.36Z"/><path class="e42b8a08-7b7e-4526-a1fd-ecd7fa1107fb" d="M202.66,118.27l4.31,0c.29,0,.34.12.32.37-.14,1.44-.27,2.89-.4,4.34,0,.19-.09.26-.27.31l-4,1Z"/><path class="fb9406d5-a08e-4067-aee4-805015cc56f5" d="M202.65,108.27v-4l7.82,0c.36,0,.37.2.39.45.15,1.72.29,3.44.44,5.17.07.75.13,1.5.21,2.25,0,.28,0,.39-.35.39-1,0-2.06,0-3.09,0-.38,0-.44-.17-.46-.48-.08-1-.19-2-.26-3.07,0-.34-.14-.46-.5-.47C205.45,108.44,204.05,108.35,202.65,108.27Z"/><path class="b8c5de90-c9ba-400a-9f61-66123e4da034" d="M202.65,114.35l-.1,0c-1.23,0-2.47,0-3.7,0-.34,0-.42-.07-.39-.42.18-1.71.34-3.41.48-5.12,0-.36.13-.46.48-.46,1.08,0,2.16,0,3.24-.06C202.66,110.32,202.65,112.34,202.65,114.35Z"/></svg>