<svg id="f2b45c4c-0415-4979-b34b-88ecc2256394" data-name="Capa 1" xmlns="http://www.w3.org/2000/svg" viewBox="0 0 520 350"><defs><style>.a2b962a7-013f-4ec1-a4dd-20e4b7745842,.b3613f47-ec15-4bfe-ba85-903e3789d231,.fc02601b-6ba6-4a67-8eaa-1484f79ad617{font-size:18px;font-family:SourceSansPro-Bold, Source Sans Pro;font-weight:700;}.a2b962a7-013f-4ec1-a4dd-20e4b7745842,.a7211163-2c38-455a-8c09-34237d6cf729,.af6e93de-2753-46aa-8ff9-f768e251fe9e{fill:#1572b6;}.a07324a6-bf06-4ae3-8438-9f01829f7596{letter-spacing:-0.02em;}.f3e0ac9a-b316-4903-9556-8d8a76ec6a92{letter-spacing:0em;}.a77313b8-b3a5-4984-8782-e9397ac8f1c8{letter-spacing:-0.01em;}.a8871faf-d262-44ee-a0a1-de468b27433c{fill:#34a8db;}.bd62c8b4-8635-4339-9804-e3c76f831a44{fill:#e7e8e9;}.aa3a24b4-c91e-4559-a3ca-5e50d6b5d2b7{fill:#e4e7e9;}.b1be0874-be24-4947-8d32-55ecb8809f08{fill:#fdfdfe;}.bff44ecb-3969-4ffd-a63a-ae3e307580c0,.eace6bb6-8bde-4a4d-91cc-47c3d2c3d530{fill:none;stroke-linecap:round;stroke-miterlimit:10;stroke-width:5px;}.eace6bb6-8bde-4a4d-91cc-47c3d2c3d530{stroke:#1572b6;}.b3613f47-ec15-4bfe-ba85-903e3789d231,.ebcaf163-89af-4c17-88f4-e4b9ebd3b063,.fbb2f8e2-3015-4109-9fa0-6e9181d1cab9{fill:#e34f27;}.a1fc7a15-3bc6-48ed-a553-8780dc5b5137{letter-spacing:-0.02em;}.e200a493-ae4f-4d59-9c03-0c91ca3d5f64{fill:#f0662a;}.b0414fe9-f7ec-48bc-9064-26fc2662ebc8{fill:#ebe8e7;}.f0ab474c-a1cc-433e-b033-ac4162b3ca83{fill:#ef590c;}.e226512b-772f-4db8-8623-78e9a7b1a2a6{fill:#fefdfc;}.e5913115-3448-42f6-a3bc-da5b9df65d8d{fill:#fefdfd;}.fc02601b-6ba6-4a67-8eaa-1484f79ad617,.ff469b59-0580-4465-82a2-1aee7af7ae6b{fill:#8692c1;}.ad0b61dc-5f22-4365-84a3-22fe7431297e{letter-spacing:-0.01em;}.fce988f3-319e-44ce-8bd9-5c39ac654c97{letter-spacing:-0.03em;}.b1b6293a-fc17-4832-9197-a89d57ff9c22{fill:#232633;}.bff44ecb-3969-4ffd-a63a-ae3e307580c0{stroke:#e34f27;}.af6e93de-2753-46aa-8ff9-f768e251fe9e,.b57505b5-936d-40b7-9820-1a14172b0099,.fbb2f8e2-3015-4109-9fa0-6e9181d1cab9{font-size:12px;font-family:SourceSansPro-Regular, Source Sans Pro;}.b57505b5-936d-40b7-9820-1a14172b0099{fill:#5f6ea0;}.a87f7c6e-79b7-403c-b5eb-b612b7e4a3a7{letter-spacing:-0.01em;}.a13f93a2-70d0-4997-b511-501ca166560c{letter-spacing:-0.01em;}.a67b9fe3-a626-4ff2-a154-10b7c0deb28a{letter-spacing:0em;}.e3f20531-7288-4879-89c4-9b4d81a81afe{letter-spacing:-0.02em;}.a631e839-8ef1-4a4a-b3c3-6a301ae6a911{letter-spacing:-0.02em;}.b5f9afe5-85e2-47cc-a69b-193b23925f25{letter-spacing:-0.01em;}.e41c53df-e3d4-448a-9f33-ce0d5ed4fec8{letter-spacing:-0.02em;}.ac4254b7-f930-40a9-8183-459d18e4a106{letter-spacing:-0.02em;}</style></defs><title>_</title><path d="M328.55,156.18H312.63A2,2,0,0,1,311.3,154q0-8.43,0-16.86a2,2,0,0,1,1.33-2.16h10.64a5.92,5.92,0,0,1,3.37,2.07c.58.64,1.21,1.23,1.82,1.83a4.57,4.57,0,0,1,1.4,3.37c0,3.92,0,7.84,0,11.75A2,2,0,0,1,328.55,156.18Zm-5.29-19.82c-.19,0-.31,0-.43,0h-9.65c-.42,0-.55.18-.55.57,0,1.1,0,2.2,0,3.3q0,7,0,14c0,.39,0,.67.54.67H328c.37,0,.55-.14.55-.52q0-6.16,0-12.33c0-.33-.11-.43-.44-.43-1.44,0-2.89,0-4.33,0h-.52Zm4.52,3.92-3.19-3.22v3.22Z"/><text class="a2b962a7-013f-4ec1-a4dd-20e4b7745842" transform="translate(48.12 311.62)"><tspan class="a07324a6-bf06-4ae3-8438-9f01829f7596">s</tspan><tspan class="f3e0ac9a-b316-4903-9556-8d8a76ec6a92" x="7.61" y="0">tyle</tspan><tspan class="a77313b8-b3a5-4984-8782-e9397ac8f1c8" x="38.36" y="0">.</tspan><tspan x="43.58" y="0">css</tspan></text><path class="a7211163-2c38-455a-8c09-34237d6cf729" d="M78.94,246.11c4.86,0,9.73,0,14.59,0,.75,0,.86.24.8.9Q93.15,260,92,273c-.12,1.33-.26,2.65-.36,4a.78.78,0,0,1-.7.84q-5.82,1.57-11.62,3.22a1.48,1.48,0,0,1-.86,0c-3.81-1.06-7.63-2.13-11.45-3.16a.9.9,0,0,1-.79-1Q65.17,265,64.09,253.09c-.18-2.07-.34-4.13-.55-6.2-.06-.6.07-.8.72-.8C69.16,246.12,74.05,246.11,78.94,246.11Zm-.26,14-3.72,0c-.37,0-.62,0-.57.52.1,1,.16,1.94.23,2.91,0,.47.35.46.69.46l3.54,0v6.07l-2.48-.65c-1.66-.45-1.66-.46-1.85-2.11a7.79,7.79,0,0,1-.12-1c0-.39-.18-.5-.54-.49-.92,0-1.84,0-2.75,0-.54,0-.65.18-.6.67.15,1.56.31,3.12.41,4.68a1,1,0,0,0,.87,1c2.36.64,4.71,1.32,7.07,2v3.2c0,1.11,0,1.1,1,.81,2.58-.73,5.17-1.46,7.76-2.17,1.65-.45,1.61-.44,1.69-2.13s.24-3.47.39-5.21c.21-2.37.46-4.74.67-7.12.15-1.55.26-3.11.4-4.67.22-2.43.44-4.87.68-7.3.06-.62-.1-.89-.81-.89-3.67,0-7.35,0-11,0-.62,0-.81.18-.82.8a6.69,6.69,0,0,1-.16,2.71c-2.9,0-5.79,0-8.69,0-.58,0-.79.14-.7.74a16,16,0,0,1,.23,2.38c0,.7.32.8.93.79,2.8,0,5.61,0,8.42,0,0,.37,0,.75,0,1.13A8.22,8.22,0,0,1,78.68,260.11Z"/><path class="a8871faf-d262-44ee-a0a1-de468b27433c" d="M78.68,252.27a6.69,6.69,0,0,0,.16-2.71c0-.62.2-.81.82-.8,3.67,0,7.35,0,11,0,.71,0,.87.27.81.89-.24,2.43-.46,4.87-.68,7.3-.14,1.56-.25,3.12-.4,4.67-.21,2.38-.46,4.75-.67,7.12-.15,1.74-.3,3.47-.39,5.21s0,1.68-1.69,2.13c-2.59.71-5.18,1.44-7.76,2.17-1,.29-1,.3-1-.81v-3.2l.18-.08c2.26-.62,4.5-1.29,6.77-1.82A1.36,1.36,0,0,0,87,270.84c.19-2.57.44-5.13.67-7.7.3-3.39.6-6.78.92-10.17,0-.49-.07-.68-.6-.67-3,0-6,0-9,0Z"/><path class="bd62c8b4-8635-4339-9804-e3c76f831a44" d="M79,274.15l-.18.08c-2.36-.67-4.71-1.35-7.07-2a1,1,0,0,1-.87-1c-.1-1.56-.26-3.12-.41-4.68-.05-.49.06-.69.6-.67.91,0,1.83,0,2.75,0,.36,0,.54.1.54.49a7.79,7.79,0,0,0,.12,1c.19,1.65.19,1.66,1.85,2.11l2.48.65.18.05Z"/><path class="aa3a24b4-c91e-4559-a3ca-5e50d6b5d2b7" d="M78.68,252.27l.35.07c0,1.26,0,2.52,0,3.79l-.17.1c-2.81,0-5.62,0-8.42,0-.61,0-.92-.09-.93-.79a16,16,0,0,0-.23-2.38c-.09-.6.12-.74.7-.74C72.89,252.31,75.78,252.28,78.68,252.27Z"/><path class="a8871faf-d262-44ee-a0a1-de468b27433c" d="M79,270.17l-.18-.05v-6.19A30.56,30.56,0,0,0,83,264c.48,0,.7.12.64.65-.14,1.32-.26,2.65-.36,4,0,.41-.32.44-.6.52Z"/><path class="a8871faf-d262-44ee-a0a1-de468b27433c" d="M78.87,256.23l.17-.1c1.54,0,3.08.07,4.62.05.6,0,.77.18.7.76-.11.82-.17,1.65-.23,2.48,0,.54-.24.75-.82.74-1.49,0-3,0-4.45,0l-.18-.07a8.22,8.22,0,0,0,.17-2.75C78.89,257,78.86,256.6,78.87,256.23Z"/><path class="aa3a24b4-c91e-4559-a3ca-5e50d6b5d2b7" d="M78.68,260.11l.18.07a8.94,8.94,0,0,1,0,3.75v.12l-3.54,0c-.34,0-.66,0-.69-.46-.07-1-.13-1.94-.23-2.91,0-.49.2-.52.57-.52Z"/><path class="b1be0874-be24-4947-8d32-55ecb8809f08" d="M78.85,263.93a8.94,8.94,0,0,0,0-3.75c1.48,0,3-.06,4.45,0,.58,0,.79-.2.82-.74.06-.83.12-1.66.23-2.48.07-.58-.1-.77-.7-.76-1.54,0-3.08,0-4.62-.05,0-1.27,0-2.53,0-3.79,3,0,6,0,9,0,.53,0,.65.18.6.67-.32,3.39-.62,6.78-.92,10.17-.23,2.57-.48,5.13-.67,7.7a1.36,1.36,0,0,1-1.21,1.49c-2.27.53-4.51,1.2-6.77,1.82,0-1.33,0-2.65,0-4l3.67-1c.28-.08.57-.11.6-.52.1-1.33.22-2.66.36-4,.06-.53-.16-.64-.64-.65A30.56,30.56,0,0,1,78.85,263.93Z"/><path class="a7211163-2c38-455a-8c09-34237d6cf729" d="M105.34,289.39H52.53c-3.37-1.22-4.43-3.72-4.41-7.17q.1-28,0-56c0-3.45,1-5.94,4.41-7.16H87.84c4.63.82,8.1,3.48,11.17,6.87,1.92,2.12,4,4.07,6,6.08a15.12,15.12,0,0,1,4.65,11.18c0,13,0,26,0,39C109.78,285.67,108.71,288.16,105.34,289.39ZM87.78,223.62a13.57,13.57,0,0,0-1.43-.14c-10.67,0-21.34,0-32,0-1.37,0-1.82.6-1.81,1.9,0,3.64,0,7.28,0,10.93q0,23.26,0,46.53c0,1.3.13,2.22,1.8,2.22q24.62,0,49.21,0c1.24,0,1.81-.44,1.81-1.72q0-20.46,0-40.92c0-1.09-.38-1.41-1.46-1.4-4.79.05-9.58,0-14.37,0H87.78Zm15,13L92.2,225.92v10.69Z"/><path class="eace6bb6-8bde-4a4d-91cc-47c3d2c3d530" d="M29.47,71.59C18.3,86.75,6.06,114,6.06,153.48c0,60.91,19,84.08,31,95.37"/><polygon class="a7211163-2c38-455a-8c09-34237d6cf729" points="18.18 65.98 42.05 58.8 36.34 83.07 18.18 65.98"/><text class="b3613f47-ec15-4bfe-ba85-903e3789d231" transform="translate(48.11 119.34)">ind<tspan class="a1fc7a15-3bc6-48ed-a553-8780dc5b5137" x="25.58" y="0">ex</tspan><tspan x="43.58" y="0">.php</tspan></text><path class="ebcaf163-89af-4c17-88f4-e4b9ebd3b063" d="M78.86,47.64H93.28c1.08,0,1.12,0,1,1.08L92.72,66.53q-.54,6-1.07,12c0,.5-.24.69-.72.82Q85.16,81,79.39,82.59a1.67,1.67,0,0,1-.94,0c-3.84-1.08-7.69-2.16-11.54-3.2a.8.8,0,0,1-.69-.85q-.81-9.44-1.65-18.87c-.32-3.63-.66-7.26-1-10.89-.11-1.14-.12-1.14,1.06-1.14Zm0,18.36,0,5.91c-1-.1-1.82-.52-2.75-.68s-1.79-.5-1.58-1.78a7.57,7.57,0,0,0-.11-1.14c0-.44-.18-.56-.59-.55-.89,0-1.78,0-2.67,0-.57,0-.71.17-.65.71.16,1.53.3,3.07.4,4.61,0,.6.29.83.88,1,2.37.62,4.73,1.31,7.09,2,0,1,0,2,0,2.94s.25,1,1.09.81L82.75,79c1.8-.49,3.6-1,5.38-1.48.37-.12,1-.12,1-.68.15-1.2.27-2.41.37-3.61.14-1.62.24-3.24.38-4.85.22-2.53.47-5,.69-7.57.14-1.56.26-3.12.41-4.68s.32-3.34.49-5c.06-.6-.15-.83-.79-.82q-5.47,0-10.95,0c-.67,0-.91.29-.91.9,0,.89,0,1.78,0,2.67H70.14c-.3,0-.66-.14-.89.21q.52,5.86,1.06,11.72c.26.3.61.17.91.17C73.77,66,76.31,66,78.86,66Z"/><path class="e200a493-ae4f-4d59-9c03-0c91ca3d5f64" d="M78.86,53.87c0-.89,0-1.78,0-2.67,0-.61.24-.91.91-.9q5.47,0,10.95,0c.64,0,.85.22.79.82-.17,1.67-.34,3.34-.49,5s-.27,3.12-.41,4.68c-.22,2.52-.47,5-.69,7.57-.14,1.61-.24,3.23-.38,4.85-.1,1.2-.22,2.41-.37,3.61-.07.56-.66.56-1,.68-1.78.53-3.58,1-5.38,1.48l-2.81.79c-.84.23-1.08.06-1.09-.81s0-2,0-2.94V76a1.54,1.54,0,0,0,.43,0c2.37-.65,4.72-1.32,7.09-2,.45-.12.51-.39.55-.77.27-3.18.58-6.36.82-9.54.05-.59.4-1.2,0-1.8-.26-.28-.61-.16-.92-.16h-8V58l0-.06c3,0,5.94,0,8.9,0,.43,0,.57-.15.58-.56,0-.86.13-1.71.19-2.57l.06-.26c.05-.2.12-.4-.1-.54s-.62-.17-.93-.17Z"/><path class="b0414fe9-f7ec-48bc-9064-26fc2662ebc8" d="M70.31,65.81q-.54-5.87-1.06-11.72l9.61,0,0,3.83,0,.06c-1.59,0-3.18,0-4.78,0-.45,0-.63.11-.57.6.14,1,.24,2.1.35,3.16.18.37.52.18.78.19,1.4,0,2.81,0,4.22,0v3.83Z"/><path class="b0414fe9-f7ec-48bc-9064-26fc2662ebc8" d="M78.86,76c-2.36-.67-4.72-1.36-7.09-2-.59-.16-.84-.39-.88-1-.1-1.54-.24-3.08-.4-4.61-.06-.54.08-.74.65-.71.89,0,1.78,0,2.67,0,.41,0,.59.11.59.55a7.57,7.57,0,0,1,.11,1.14c-.21,1.28.55,1.6,1.58,1.78s1.8.58,2.75.68a.59.59,0,0,0,0,.13c0,1.3,0,2.61,0,3.91Z"/><path class="e200a493-ae4f-4d59-9c03-0c91ca3d5f64" d="M78.86,72a.59.59,0,0,1,0-.13c0-2,0-3.94,0-5.91h4.78c-.12,1.46-.25,2.93-.34,4.39,0,.43-.29.51-.62.6Z"/><path class="f0ab474c-a1cc-433e-b033-ac4162b3ca83" d="M78.86,54.11l-9.61,0c.23-.35.59-.21.89-.21h17.4c.31,0,.66-.12.93.17Z"/><path class="f0ab474c-a1cc-433e-b033-ac4162b3ca83" d="M83.64,66H78.86c-2.55,0-5.09,0-7.64,0-.3,0-.65.13-.91-.17l8.55,0c1.27,0,2.54,0,3.81,0C83,65.83,83.37,65.64,83.64,66Z"/><path class="e226512b-772f-4db8-8623-78e9a7b1a2a6" d="M83.64,66c-.27-.35-.65-.16-1-.17-1.27,0-2.54,0-3.81,0V62l8.89-.07c.39.6,0,1.21,0,1.8-.24,3.18-.55,6.36-.82,9.54,0,.38-.1.65-.55.77-2.37.63-4.72,1.3-7.09,2a1.54,1.54,0,0,1-.43,0c0-1.3,0-2.61,0-3.91L82.68,71c.33-.09.59-.17.62-.6C83.39,68.92,83.52,67.45,83.64,66Z"/><path class="e5913115-3448-42f6-a3bc-da5b9df65d8d" d="M78.86,54.11l9.61-.06c.22.14.15.34.1.54l-.06.26c-.06.86-.15,1.71-.19,2.57,0,.41-.15.56-.58.56-3,0-5.93,0-8.9,0C78.85,56.66,78.85,55.39,78.86,54.11Z"/><path class="ebcaf163-89af-4c17-88f4-e4b9ebd3b063" d="M73.86,61.72c-.11-1.06-.21-2.11-.35-3.16-.06-.49.12-.61.57-.6,1.6,0,3.19,0,4.78,0v3.71Z"/><path class="f0ab474c-a1cc-433e-b033-ac4162b3ca83" d="M73.86,61.72h13c.31,0,.66-.12.92.16L78.86,62c-1.41,0-2.82,0-4.22,0C74.38,61.9,74,62.09,73.86,61.72Z"/><path class="b0414fe9-f7ec-48bc-9064-26fc2662ebc8" d="M88.51,54.85l.06-.26Z"/><path class="ebcaf163-89af-4c17-88f4-e4b9ebd3b063" d="M105.34,92.39H52.53c-3.37-1.22-4.43-3.72-4.41-7.17q.1-28,0-56c0-3.45,1-5.94,4.41-7.16H87.84c4.63.82,8.1,3.48,11.17,6.87,1.92,2.12,4,4.07,6,6.08a15.12,15.12,0,0,1,4.65,11.18c0,13,0,26,0,39C109.78,88.67,108.71,91.16,105.34,92.39ZM87.78,26.62a13.57,13.57,0,0,0-1.43-.14c-10.67,0-21.34,0-32,0-1.37,0-1.82.6-1.81,1.9,0,3.64,0,7.28,0,10.93q0,23.27,0,46.53c0,1.3.13,2.22,1.8,2.22q24.62,0,49.21,0c1.24,0,1.81-.44,1.81-1.72q0-20.46,0-40.92c0-1.09-.38-1.41-1.46-1.4-4.79.05-9.58,0-14.37,0H87.78Zm15,13L92.2,28.92V39.61Z"/><text class="fc02601b-6ba6-4a67-8eaa-1484f79ad617" transform="translate(195.33 120.67)"><tspan class="ad0b61dc-5f22-4365-84a3-22fe7431297e">b</tspan><tspan x="10.12" y="0">ac</tspan><tspan class="fce988f3-319e-44ce-8bd9-5c39ac654c97" x="28.01" y="0">k</tspan><tspan x="37.37" y="0">end.php</tspan></text><path class="ff469b59-0580-4465-82a2-1aee7af7ae6b" d="M223.5,52.48h5.3c.13.18.32.11.49.13a32.66,32.66,0,0,1,8.46,1.74A19.79,19.79,0,0,1,243,57.06a9.54,9.54,0,0,1,3.67,5.09v2.12c-.16.08-.17.25-.21.39a7.2,7.2,0,0,1-1.65,2.92,15.82,15.82,0,0,1-6.76,4.25,36.34,36.34,0,0,1-19.39,1.25,23.06,23.06,0,0,1-9.47-3.89A9.52,9.52,0,0,1,206,65.36c-.16-.36-.14-.79-.44-1.09V62c.05-.05.11-.08.13-.14a9.57,9.57,0,0,1,4.58-5.52,26.84,26.84,0,0,1,10.33-3.5A21.12,21.12,0,0,0,223.5,52.48Zm11.85,5.62c-.75,0-1.5,0-2.25,0-.47,0-.68.12-.74.59s-.22,1.13-.33,1.69c-.56,2.86-1.11,5.72-1.69,8.57-.1.45,0,.54.43.52s1.11,0,1.66,0c.35,0,.51-.1.56-.45.09-.64.24-1.26.34-1.89.07-.43.21-.66.71-.61.66,0,1.33,0,2,0A4.94,4.94,0,0,0,241,62.46c.53-2.75-.75-4.32-3.56-4.36Zm-18.87,0v0c-.77,0-1.54,0-2.32,0-.4,0-.56.11-.64.54q-1,5.16-2.05,10.31c-.09.43,0,.55.44.53s1.11,0,1.66,0c.34,0,.51-.07.56-.45.09-.67.26-1.34.37-2,.06-.34.19-.5.56-.48.66,0,1.33,0,2,0a5,5,0,0,0,5.09-4.27c.42-2.43-.69-3.92-3.14-4.12C218.17,58.07,217.32,58.13,216.48,58.13Zm12.46,8.4a7,7,0,0,1,.93,0c.44.06.58-.16.64-.54.27-1.65.48-3.32.85-5s-.59-2.64-2.17-2.88a17.08,17.08,0,0,0-2.58-.07c-.39,0-.58-.09-.47-.53s.15-.78.23-1.17c.26-1.26.26-1.26-1-1.26-.31,0-.62,0-.93,0s-.53.1-.6.49c-.29,1.6-.62,3.2-.94,4.8-.37,1.84-.73,3.68-1.11,5.51-.1.48,0,.63.51.6a11,11,0,0,1,1.52,0c.41,0,.57-.12.65-.54.32-1.75.7-3.5,1-5.25.08-.44.25-.6.69-.57s1,0,1.46,0c.9,0,1.1.26.93,1.13l-.72,3.84c-.08.43-.35,1-.17,1.26S228.56,66.48,228.94,66.53Z"/><path class="b1b6293a-fc17-4832-9197-a89d57ff9c22" d="M235.35,58.1h2.05c2.81,0,4.09,1.61,3.56,4.36A4.94,4.94,0,0,1,236,66.53c-.66,0-1.33,0-2,0-.5,0-.64.18-.71.61-.1.63-.25,1.25-.34,1.89-.05.35-.21.47-.56.45-.55,0-1.11,0-1.66,0s-.53-.07-.43-.52c.58-2.85,1.13-5.71,1.69-8.57.11-.56.26-1.12.33-1.69s.27-.62.74-.59C233.85,58.12,234.6,58.1,235.35,58.1Zm.61,2.09c-.28,0-.57,0-.85,0s-.39.05-.43.3c-.2,1.19-.39,2.38-.59,3.57,0,.21,0,.35.26.34a5.87,5.87,0,0,0,2.53-.27,2.89,2.89,0,0,0,1.33-2.93c-.14-.7-.76-1-2.05-1Z"/><path class="b1b6293a-fc17-4832-9197-a89d57ff9c22" d="M216.48,58.13c.84,0,1.69-.06,2.52,0,2.45.2,3.56,1.69,3.14,4.12a5,5,0,0,1-5.09,4.27c-.66,0-1.33,0-2,0-.37,0-.5.14-.56.48-.11.67-.28,1.34-.37,2,0,.38-.22.47-.56.45-.55,0-1.11,0-1.66,0s-.53-.1-.44-.53q1-5.14,2.05-10.31c.08-.43.24-.55.64-.54.78,0,1.55,0,2.32,0Zm.61,2.06a3.53,3.53,0,0,1-.46,0c-.55-.08-.85.07-.89.7s-.23,1.17-.28,1.76-.53,1.37-.07,1.68,1.24.12,1.87,0a2.59,2.59,0,0,0,2.13-3C219.32,60.51,218.7,60.19,217.09,60.19Z"/><path class="b1b6293a-fc17-4832-9197-a89d57ff9c22" d="M228.94,66.53c-.38,0-1,.21-1.25-.11s.09-.83.17-1.26l.72-3.84c.17-.87,0-1.11-.93-1.13-.49,0-1,0-1.46,0s-.61.13-.69.57c-.33,1.75-.71,3.5-1,5.25-.08.42-.24.56-.65.54a11,11,0,0,0-1.52,0c-.48,0-.61-.12-.51-.6.38-1.83.74-3.67,1.11-5.51.32-1.6.65-3.2.94-4.8.07-.39.22-.53.6-.49s.62,0,.93,0c1.26,0,1.26,0,1,1.26-.08.39-.13.79-.23,1.17s.08.53.47.53a17.08,17.08,0,0,1,2.58.07c1.58.24,2.55,1.2,2.17,2.88s-.58,3.3-.85,5c-.06.38-.2.6-.64.54A7,7,0,0,0,228.94,66.53Z"/><path class="ff469b59-0580-4465-82a2-1aee7af7ae6b" d="M236,60.19h.2c1.29,0,1.91.31,2.05,1a2.89,2.89,0,0,1-1.33,2.93,5.87,5.87,0,0,1-2.53.27c-.25,0-.29-.13-.26-.34.2-1.19.39-2.38.59-3.57,0-.25.2-.31.43-.3S235.68,60.19,236,60.19Z"/><path class="ff469b59-0580-4465-82a2-1aee7af7ae6b" d="M217.09,60.19c1.61,0,2.23.32,2.3,1.2a2.59,2.59,0,0,1-2.13,3c-.63.1-1.43.27-1.87,0s0-1.1.07-1.68.25-1.17.28-1.76.34-.78.89-.7A3.53,3.53,0,0,0,217.09,60.19Z"/><path class="ff469b59-0580-4465-82a2-1aee7af7ae6b" d="M252.55,92.39H199.74c-3.37-1.22-4.42-3.72-4.41-7.17q.12-28,0-56c0-3.45,1-5.94,4.41-7.16h35.31c4.63.82,8.11,3.48,11.18,6.87,1.92,2.12,4,4.07,6.05,6.08a15.16,15.16,0,0,1,4.65,11.18c0,13-.06,26,0,39C257,88.67,255.93,91.16,252.55,92.39ZM235,26.62a13.41,13.41,0,0,0-1.42-.14c-10.67,0-21.35,0-32,0-1.38,0-1.83.6-1.81,1.9,0,3.64,0,7.28,0,10.93q0,23.27,0,46.53c0,1.3.12,2.22,1.8,2.22q24.6,0,49.2,0c1.24,0,1.82-.44,1.82-1.72q0-20.46,0-40.92c0-1.09-.37-1.41-1.45-1.4-4.79.05-9.58,0-14.37,0H235Zm15,13L239.42,28.92V39.61Z"/><line class="bff44ecb-3969-4ffd-a63a-ae3e307580c0" x1="171.84" y1="52.22" x2="122.76" y2="52.22"/><polygon class="ebcaf163-89af-4c17-88f4-e4b9ebd3b063" points="165.61 39.76 187.2 52.22 165.61 64.69 165.61 39.76"/><text class="b57505b5-936d-40b7-9820-1a14172b0099" transform="translate(195.33 141.4)">• c<tspan class="a87f7c6e-79b7-403c-b5eb-b612b7e4a3a7" x="11.52" y="0">r</tspan><tspan class="a13f93a2-70d0-4997-b511-501ca166560c" x="15.56" y="0">e</tspan><tspan x="21.35" y="0">a </tspan><tspan class="a87f7c6e-79b7-403c-b5eb-b612b7e4a3a7" x="29.8" y="0">r</tspan><tspan class="a67b9fe3-a626-4ff2-a154-10b7c0deb28a" x="33.84" y="0">espue</tspan><tspan class="e3f20531-7288-4879-89c4-9b4d81a81afe" x="63.96" y="0">s</tspan><tspan class="a631e839-8ef1-4a4a-b3c3-6a301ae6a911" x="68.75" y="0">t</tspan><tspan x="72.55" y="0">a html</tspan><tspan x="0" y="14.4" xml:space="preserve">   </tspan><tspan class="a631e839-8ef1-4a4a-b3c3-6a301ae6a911" x="7.2" y="14.4">c</tspan><tspan x="12.42" y="14.4">on d</tspan><tspan class="a13f93a2-70d0-4997-b511-501ca166560c" x="34.55" y="14.4">at</tspan><tspan x="44.32" y="14.4">os enviados</tspan></text><text class="fbb2f8e2-3015-4109-9fa0-6e9181d1cab9" transform="translate(48.11 141.4)">• e<tspan class="e3f20531-7288-4879-89c4-9b4d81a81afe" x="12" y="0">s</tspan><tspan x="16.79" y="0">tru</tspan><tspan class="b5f9afe5-85e2-47cc-a69b-193b23925f25" x="31.54" y="0">c</tspan><tspan x="36.89" y="0">tu</tspan><tspan class="e41c53df-e3d4-448a-9f33-ce0d5ed4fec8" x="47.47" y="0">r</tspan><tspan x="51.35" y="0">a in</tspan><tspan class="b5f9afe5-85e2-47cc-a69b-193b23925f25" x="69.31" y="0">f</tspan><tspan x="72.7" y="0">o</tspan></text><text class="af6e93de-2753-46aa-8ff9-f768e251fe9e" transform="translate(48.11 334.4)">• e<tspan class="e3f20531-7288-4879-89c4-9b4d81a81afe" x="12" y="0">s</tspan><tspan x="16.79" y="0">tili</tspan><tspan class="ac4254b7-f930-40a9-8183-459d18e4a106" x="29.81" y="0">z</tspan><tspan x="34.63" y="0">a la in</tspan><tspan class="a87f7c6e-79b7-403c-b5eb-b612b7e4a3a7" x="64.1" y="0">f</tspan><tspan x="67.49" y="0">o</tspan></text></svg>