<svg id="ff37d1a2-9166-4fa1-b4ae-9d3d8db656bd" data-name="Capa 1" xmlns="http://www.w3.org/2000/svg" viewBox="0 0 100 100"><defs><style>.ec57193c-9e7b-400d-892c-db73d06c3a17{fill:#e34f27;}.b310dee2-4ac3-4a92-8815-bdc4b573a9f4{fill:#f0662a;}.a76c4ca1-c69a-47cd-845c-70aa8d242881{fill:#ebe8e7;}.a9e5fcdd-996b-44c3-a20f-434223b03e6a{fill:#ef590c;}.b2dc93b2-cff5-4b49-bed7-dfe884b11bfe{fill:#fefdfc;}.a7928988-1981-4c2b-9f8a-b59dc58b0121{fill:#fefdfd;}</style></defs><title>_</title><path class="ec57193c-9e7b-400d-892c-db73d06c3a17" d="M49.8,0H91c3.09,0,3.22.16,3,3.1q-2.28,25.41-4.54,50.84c-1,11.46-2.07,22.92-3.05,34.39a2.29,2.29,0,0,1-2.06,2.35q-16.5,4.47-33,9.13a4.7,4.7,0,0,1-2.68,0c-11-3.09-21.95-6.17-33-9.13a2.27,2.27,0,0,1-2-2.43Q11.39,61.3,9,34.36,7.62,18.81,6.13,3.26C5.83,0,5.79,0,9.14,0Zm0,52.42q0,8.46-.07,16.9c-2.7-.3-5.18-1.5-7.83-1.95-3-.51-5.12-1.42-4.53-5.08.17-1-.3-2.18-.3-3.27s-.51-1.6-1.68-1.57c-2.54.07-5.09.12-7.62,0-1.63-.09-2,.47-1.88,2,.46,4.37.86,8.76,1.15,13.15.12,1.73.84,2.39,2.51,2.83,6.78,1.78,13.5,3.75,20.24,5.65,0,2.8,0,5.6,0,8.39,0,2.51.7,3,3.1,2.33,2.68-.76,5.35-1.52,8-2.26,5.12-1.4,10.27-2.7,15.35-4.23C77.32,85,79,85,79.21,83.37c.43-3.42.76-6.86,1.05-10.29.4-4.62.69-9.24,1.09-13.86.63-7.21,1.32-14.41,2-21.62.4-4.44.75-8.89,1.16-13.33Q85.14,17.1,85.87,10c.18-1.73-.41-2.37-2.24-2.36Q68,7.71,52.36,7.6c-1.91,0-2.6.82-2.59,2.56,0,2.55,0,5.09,0,7.63-8.3,0-16.6,0-24.89,0-.87,0-1.9-.41-2.56.6l3,33.46c.74.85,1.73.49,2.62.5Q38.88,52.44,49.79,52.42Z"/><path class="b310dee2-4ac3-4a92-8815-bdc4b573a9f4" d="M49.79,17.79c0-2.54,0-5.08,0-7.63,0-1.74.68-2.57,2.59-2.56q15.63.11,31.27,0c1.83,0,2.42.63,2.24,2.36q-.74,7.16-1.39,14.32c-.41,4.44-.76,8.89-1.16,13.33-.65,7.21-1.34,14.41-2,21.62-.4,4.62-.69,9.24-1.09,13.86C80,76.51,79.64,80,79.21,83.37,79,85,77.32,85,76.26,85.32,71.18,86.85,66,88.15,60.91,89.55c-2.69.74-5.36,1.5-8,2.26-2.4.67-3.08.18-3.1-2.33,0-2.79,0-5.59,0-8.39l0-.24a5.18,5.18,0,0,0,1.25,0c6.74-1.85,13.47-3.75,20.23-5.56,1.28-.34,1.47-1.11,1.56-2.19.79-9.09,1.67-18.17,2.36-27.26.13-1.68,1.14-3.42,0-5.12-.76-.81-1.75-.47-2.63-.47q-11.39,0-22.76,0V29.6l0-.19c8.48,0,16.95,0,25.42.12,1.22,0,1.6-.41,1.65-1.59.11-2.45.35-4.89.54-7.34l.17-.73c.15-.57.34-1.15-.3-1.57-.76-.81-1.75-.47-2.63-.48C66.32,17.79,58.05,17.8,49.79,17.79Z"/><path class="a76c4ca1-c69a-47cd-845c-70aa8d242881" d="M25.37,51.89l-3-33.46,27.45.06,0,10.92,0,.19c-4.55,0-9.09,0-13.64-.11-1.3,0-1.81.3-1.63,1.69.39,3,.67,6,1,9,.51,1.06,1.47.53,2.21.55,4,.09,8,.09,12.05.12V51.81Z"/><path class="a76c4ca1-c69a-47cd-845c-70aa8d242881" d="M49.78,81.09c-6.74-1.9-13.46-3.87-20.24-5.65-1.67-.44-2.39-1.1-2.51-2.83-.29-4.39-.69-8.78-1.15-13.15-.16-1.55.25-2.11,1.88-2,2.53.13,5.08.08,7.62,0,1.17,0,1.68.34,1.68,1.57s.47,2.22.3,3.27c-.59,3.66,1.58,4.57,4.53,5.08,2.65.45,5.13,1.65,7.83,1.95l.06.35,0,11.18Z"/><path class="b310dee2-4ac3-4a92-8815-bdc4b573a9f4" d="M49.78,69.67l-.06-.35q0-8.44.07-16.9l13.64,0c-.33,4.18-.7,8.36-1,12.54-.08,1.23-.82,1.47-1.77,1.73C57,67.64,53.41,68.66,49.78,69.67Z"/><path class="a9e5fcdd-996b-44c3-a20f-434223b03e6a" d="M49.79,18.49l-27.45-.06c.66-1,1.69-.59,2.56-.6,8.29,0,16.59,0,24.89,0s16.53,0,24.8,0c.88,0,1.87-.33,2.63.48Z"/><path class="a9e5fcdd-996b-44c3-a20f-434223b03e6a" d="M63.43,52.4l-13.64,0q-10.9,0-21.8,0c-.89,0-1.88.35-2.62-.5l24.41-.08c3.63,0,7.27,0,10.9.11C61.59,51.94,62.67,51.41,63.43,52.4Z"/><path class="b2dc93b2-cff5-4b49-bed7-dfe884b11bfe" d="M63.43,52.4c-.76-1-1.84-.46-2.75-.48-3.63-.1-7.27-.08-10.9-.11V40.87l25.4-.19c1.11,1.7.1,3.44,0,5.12-.69,9.09-1.57,18.17-2.36,27.26-.09,1.08-.28,1.85-1.56,2.19C64.47,77.06,57.74,79,51,80.81a5.18,5.18,0,0,1-1.25,0l0-11.18c3.63-1,7.26-2,10.9-3,1-.26,1.69-.5,1.77-1.73C62.73,60.76,63.1,56.58,63.43,52.4Z"/><path class="a7928988-1981-4c2b-9f8a-b59dc58b0121" d="M49.79,18.49l27.43-.19c.64.42.45,1,.3,1.57l-.17.73c-.19,2.45-.43,4.89-.54,7.34,0,1.18-.43,1.6-1.65,1.59-8.47-.08-16.94-.09-25.42-.12C49.76,25.77,49.77,22.13,49.79,18.49Z"/><path class="ec57193c-9e7b-400d-892c-db73d06c3a17" d="M35.52,40.2c-.33-3-.61-6-1-9-.18-1.39.33-1.72,1.63-1.69,4.55.09,9.09.08,13.64.11V40.18Z"/><path class="a9e5fcdd-996b-44c3-a20f-434223b03e6a" d="M35.52,40.2l14.27,0q11.37,0,22.76,0c.88,0,1.87-.34,2.63.47l-25.4.19c-4,0-8,0-12.05-.12C37,40.73,36,41.26,35.52,40.2Z"/><path class="a76c4ca1-c69a-47cd-845c-70aa8d242881" d="M77.35,20.6l.17-.73Z"/></svg>