<svg id="a71faf90-08e9-48c7-9b4d-bad493dde527" data-name="Capa 1" xmlns="http://www.w3.org/2000/svg" viewBox="0 0 100 100"><defs><style>.bec1136b-161d-44f7-bf70-b05342e9ee04{fill:#8692c1;}.a7d78f11-6055-4516-a9d3-ea64ba46a2c8{fill:#232633;}</style></defs><title>_</title><path class="bec1136b-161d-44f7-bf70-b05342e9ee04" d="M43.55,24h12.9c.31.43.78.28,1.19.31a80.92,80.92,0,0,1,20.59,4.23,49.12,49.12,0,0,1,12.83,6.62A23.32,23.32,0,0,1,100,47.55v5.16c-.41.19-.43.61-.53.95a17.37,17.37,0,0,1-4,7.09C91,65.79,85.23,68.89,79,71.1c-15.42,5.48-31.19,6.15-47.17,3-8.3-1.61-16.16-4.38-23-9.47a23,23,0,0,1-7.73-9.32C.68,54.48.73,53.44,0,52.71V47.23c.11-.11.27-.21.31-.34C2,40.74,6.29,36.7,11.46,33.46c7.7-4.81,16.26-7.13,25.14-8.51C38.91,24.59,41.28,24.68,43.55,24ZM72.39,37.68c-1.83,0-3.66.06-5.48,0-1.13-.06-1.66.28-1.8,1.45-.17,1.38-.52,2.74-.79,4.11-1.37,7-2.7,13.9-4.13,20.84-.22,1.1.06,1.32,1.06,1.28,1.34,0,2.69-.06,4,0,.86.05,1.24-.23,1.37-1.1.23-1.53.59-3,.84-4.59.16-1,.49-1.6,1.72-1.49,1.61.14,3.23,0,4.84,0a12,12,0,0,0,12-9.9c1.28-6.69-1.82-10.5-8.65-10.61C75.72,37.66,74.06,37.68,72.39,37.68Zm-45.91.07v-.07c-1.88,0-3.76,0-5.64,0-1,0-1.38.27-1.58,1.3q-2.42,12.57-5,25.11c-.22,1,.06,1.32,1.08,1.27,1.34-.07,2.69,0,4,0,.83,0,1.24-.18,1.37-1.11.21-1.64.63-3.26.9-4.9.14-.83.46-1.2,1.36-1.16,1.61.07,3.22,0,4.84,0A12,12,0,0,0,40.24,47.81c1-5.92-1.67-9.53-7.64-10C30.58,37.61,28.52,37.75,26.48,37.75ZM56.8,58.2a18.71,18.71,0,0,1,2.27,0c1.06.14,1.39-.38,1.54-1.31.65-4,1.17-8.08,2.07-12s-1.43-6.41-5.28-7a41,41,0,0,0-6.27-.17c-1,0-1.41-.23-1.14-1.28s.36-1.9.55-2.85c.63-3.07.64-3.07-2.44-3.07-.75,0-1.51.05-2.25,0-.93-.07-1.29.25-1.46,1.21-.71,3.9-1.53,7.79-2.3,11.68-.9,4.47-1.76,9-2.7,13.41-.25,1.17.08,1.53,1.24,1.45a28.71,28.71,0,0,1,3.71,0c1,.06,1.38-.27,1.57-1.3.78-4.27,1.71-8.52,2.51-12.79.19-1.05.61-1.46,1.68-1.38s2.36,0,3.55,0c2.2,0,2.67.63,2.27,2.75Q55,50.2,54.16,54.86c-.19,1.06-.85,2.51-.4,3.07C54.37,58.71,55.87,58.08,56.8,58.2Z"/><path class="a7d78f11-6055-4516-a9d3-ea64ba46a2c8" d="M72.39,37.68c1.67,0,3.33,0,5,0,6.83.11,9.93,3.92,8.65,10.61a12,12,0,0,1-12,9.9c-1.61,0-3.23.11-4.84,0-1.23-.11-1.56.46-1.72,1.49-.25,1.54-.61,3.06-.84,4.59-.13.87-.51,1.15-1.37,1.1-1.34-.07-2.69-.06-4,0-1,0-1.28-.18-1.06-1.28,1.43-6.94,2.76-13.89,4.13-20.84.27-1.37.62-2.73.79-4.11.14-1.17.67-1.51,1.8-1.45C68.73,37.74,70.56,37.68,72.39,37.68Zm1.49,5.09c-.69,0-1.39,0-2.08,0s-1,.12-1,.73q-.72,4.35-1.42,8.7c-.09.5,0,.85.62.83,2.07-.05,4.18.27,6.16-.67,2.2-1,3.77-4.45,3.24-7.13-.34-1.71-1.85-2.45-5-2.46Z"/><path class="a7d78f11-6055-4516-a9d3-ea64ba46a2c8" d="M26.48,37.75c2,0,4.1-.14,6.12,0,6,.5,8.67,4.11,7.64,10A12,12,0,0,1,27.86,58.2c-1.62,0-3.23,0-4.84,0-.9,0-1.22.33-1.36,1.16-.27,1.64-.69,3.26-.9,4.9-.13.93-.54,1.14-1.37,1.11-1.34,0-2.69-.07-4,0-1,.05-1.3-.22-1.08-1.27q2.55-12.54,5-25.11c.2-1,.6-1.33,1.58-1.3,1.88,0,3.76,0,5.64,0Zm1.48,5a8.37,8.37,0,0,1-1.12,0c-1.33-.17-2.08.19-2.17,1.73s-.56,2.84-.67,4.28-1.31,3.32-.18,4.08,3,.29,4.55.06c3.41-.51,5.45-3.47,5.18-7.22C33.39,43.56,31.88,42.77,28,42.77Z"/><path class="a7d78f11-6055-4516-a9d3-ea64ba46a2c8" d="M56.8,58.2c-.93-.12-2.43.51-3-.27-.45-.56.21-2,.4-3.07q.87-4.66,1.76-9.33c.4-2.12-.07-2.71-2.27-2.75-1.19,0-2.37.06-3.55,0s-1.49.33-1.68,1.38c-.8,4.27-1.73,8.52-2.51,12.79-.19,1-.57,1.36-1.57,1.3a28.71,28.71,0,0,0-3.71,0c-1.16.08-1.49-.28-1.24-1.45.94-4.46,1.8-8.94,2.7-13.41.77-3.89,1.59-7.78,2.3-11.68.17-1,.53-1.28,1.46-1.21.74.07,1.5,0,2.25,0,3.08,0,3.07,0,2.44,3.07-.19.95-.31,1.91-.55,2.85s.18,1.29,1.14,1.28a41,41,0,0,1,6.27.17c3.85.59,6.2,2.91,5.28,7s-1.42,8-2.07,12c-.15.93-.48,1.45-1.54,1.31A18.71,18.71,0,0,0,56.8,58.2Z"/><path class="bec1136b-161d-44f7-bf70-b05342e9ee04" d="M73.88,42.77h.49c3.14,0,4.65.75,5,2.46.53,2.68-1,6.09-3.24,7.13C74.14,53.3,72,53,70,53c-.61,0-.71-.33-.62-.83q.7-4.35,1.42-8.7c.09-.61.49-.75,1-.73S73.19,42.77,73.88,42.77Z"/><path class="bec1136b-161d-44f7-bf70-b05342e9ee04" d="M28,42.77c3.92,0,5.43.79,5.59,2.92.27,3.75-1.77,6.71-5.18,7.22-1.52.23-3.49.65-4.55-.06s.07-2.67.18-4.08.6-2.85.67-4.28.84-1.9,2.17-1.73A8.37,8.37,0,0,0,28,42.77Z"/></svg>