<svg id="b9f7b631-6d78-4b78-a01a-798c3ce410cd" data-name="Capa 1" xmlns="http://www.w3.org/2000/svg" viewBox="0 0 470 100"><defs><style>.b5292243-bac4-4b13-8233-828c83c91820{fill:#f07;}</style></defs><title>_</title><path class="b5292243-bac4-4b13-8233-828c83c91820" d="M65,41.11h1.39V43a5.32,5.32,0,0,0-.16.57c-.44,2.64-.86,5.29-1.29,7.94L62,69.21c-.34,2.05-.65,4.1-1,6.14s-1,2.23-2.77,1.51c-2.77-1.13-5.56-2.24-8.31-3.43a1.07,1.07,0,0,0-1.55.43C47.59,74.93,46.73,76,45.88,77s-1.71,2.4-3.12,3h-.69a4.74,4.74,0,0,1-.67-1.57c-.07-2.14,0-4.28,0-6.42A2.4,2.4,0,0,1,42,70.29q8.56-10.47,17.11-21a4.45,4.45,0,0,0,.33-.51,1,1,0,0,0-.5.25Q48.17,58.32,37.43,67.59a1.06,1.06,0,0,1-1.29.24c-2.49-1.06-5-2-7.51-3.12a7,7,0,0,1-1.32-1v-.34a10.07,10.07,0,0,1,1.77-1.69q14.4-8.4,28.84-16.71C60.24,43.61,62.63,42.39,65,41.11Z"/><path d="M87.57,100H12.43c-4.79-1.74-6.29-5.29-6.27-10.19q.16-39.81,0-79.62c0-4.9,1.48-8.45,6.27-10.19H62.67c6.58,1.18,11.53,5,15.9,9.78,2.73,3,5.71,5.79,8.6,8.65a21.55,21.55,0,0,1,6.62,15.91c0,18.49-.08,37,0,55.46C93.88,94.71,92.36,98.26,87.57,100Zm-25-93.57c-.87-.09-1.44-.2-2-.2-15.19,0-30.37,0-45.56,0-1.95,0-2.6.84-2.58,2.69.06,5.19,0,10.37,0,15.56q0,33.09,0,66.2c0,1.84.18,3.16,2.56,3.15q35-.06,70,0c1.76,0,2.58-.62,2.58-2.46q0-29.1,0-58.2c0-1.55-.53-2-2.06-2-6.82.07-13.63,0-20.45,0H62.58ZM83.92,24.92l-15-15.2v15.2Z"/><path d="M103.85,67.46V38.8H99V34h29.65V45.53h-4.73V38.8H109.62V50.12H122V54.9H109.62V67.46h4.89v4.78H99V67.46Z"/><path d="M153.7,67.6v4.64h-9.12V69a11.9,11.9,0,0,1-8.47,3.68,9.22,9.22,0,0,1-6.3-2.36,7.7,7.7,0,0,1-2.68-6A7.78,7.78,0,0,1,130,58.12a10.17,10.17,0,0,1,6.86-2.45,13.13,13.13,0,0,1,7.22,2.25V55.29a10.2,10.2,0,0,0-.38-3.14,4.07,4.07,0,0,0-1.8-2,7,7,0,0,0-3.7-.88,6,6,0,0,0-5.68,3.14l-5-1.32Q130.81,44.9,139,44.9a14.91,14.91,0,0,1,5.18.81,7.64,7.64,0,0,1,3.26,2.09,6.92,6.92,0,0,1,1.44,2.76,21.32,21.32,0,0,1,.37,4.73V67.6Zm-9.65-5.25a11,11,0,0,0-6.84-2.64A5.35,5.35,0,0,0,133.58,61a4.15,4.15,0,0,0-1.45,3.27,4.22,4.22,0,0,0,1.28,3.14,4.73,4.73,0,0,0,3.47,1.26,10.32,10.32,0,0,0,7.17-3.19Z"/><path d="M165.82,45.64v3.22q5-3.63,9.17-3.63a7.15,7.15,0,0,1,4.28,1.22,5.67,5.67,0,0,1,2.21,3,19.35,19.35,0,0,1,.52,5.18v13h4.48v4.64h-9.7V54.85c0-2-.3-3.33-.91-4a3,3,0,0,0-2.22-.92q-3.47,0-7.83,3.38V67.6h4.59v4.64H155.92V67.6h4.68V50.28h-4.68V45.64Z"/><path d="M188.38,50.28V45.64h3.46V41.55l5.22-4.78v8.87H202v4.64h-4.92V63.2A12.17,12.17,0,0,0,197.4,67c.23.49.8.73,1.72.73a7.73,7.73,0,0,0,2.86-.55V72a11.84,11.84,0,0,1-4,.72,6.5,6.5,0,0,1-3.88-1.06A4.51,4.51,0,0,1,192.22,69a27.28,27.28,0,0,1-.38-5.5V50.28Z"/><path d="M232.81,67.6v4.64h-9.13V69a11.87,11.87,0,0,1-8.46,3.68,9.22,9.22,0,0,1-6.3-2.36,8.12,8.12,0,0,1,.16-12.2,10.17,10.17,0,0,1,6.86-2.45,13.13,13.13,0,0,1,7.22,2.25V55.29a10.2,10.2,0,0,0-.38-3.14,4.07,4.07,0,0,0-1.8-2,7,7,0,0,0-3.7-.88,6,6,0,0,0-5.69,3.14l-5-1.32q3.33-6.21,11.49-6.21a14.91,14.91,0,0,1,5.18.81,7.64,7.64,0,0,1,3.26,2.09A6.92,6.92,0,0,1,228,50.56a21.32,21.32,0,0,1,.37,4.73V67.6Zm-9.65-5.25a11,11,0,0,0-6.84-2.64A5.35,5.35,0,0,0,212.69,61a4.15,4.15,0,0,0-1.45,3.27,4.25,4.25,0,0,0,1.27,3.14A4.77,4.77,0,0,0,216,68.64a10.32,10.32,0,0,0,7.17-3.19Z"/><path d="M235.83,72.24V63.12h4.67V64a4.34,4.34,0,0,0,2,3.07,7.23,7.23,0,0,0,4.19,1.21,8,8,0,0,0,4-.88A2.7,2.7,0,0,0,252.26,65,2.38,2.38,0,0,0,251,62.73a17.09,17.09,0,0,0-5-1.31c-3.66-.62-6.28-1.62-7.84-3A6.81,6.81,0,0,1,235.86,53a7.11,7.11,0,0,1,2.55-5.57,9.88,9.88,0,0,1,6.74-2.24,12.89,12.89,0,0,1,6.48,1.55V45.64h4.64v8.82h-4.64V52.84a6.88,6.88,0,0,0-6.15-3.27,6,6,0,0,0-3.4.89,2.74,2.74,0,0,0-1.33,2.38A2.07,2.07,0,0,0,242,54.91a24.15,24.15,0,0,0,5.26,1.2,27.41,27.41,0,0,1,5.86,1.41,7.34,7.34,0,0,1,3.28,2.69,7.53,7.53,0,0,1,1.31,4.39,7,7,0,0,1-2.85,5.89,13.48,13.48,0,0,1-14.33.25v1.5Z"/><path d="M261,50.28V45.64h3.46V41.55l5.22-4.78v8.87h4.92v4.64h-4.92V63.2A12.05,12.05,0,0,0,270,67c.23.49.8.73,1.71.73a7.69,7.69,0,0,0,2.86-.55V72a11.8,11.8,0,0,1-4,.72,6.49,6.49,0,0,1-3.87-1.06A4.47,4.47,0,0,1,264.85,69a26.35,26.35,0,0,1-.39-5.5V50.28Z"/><path d="M282.24,67.6V50.28h-4.12V45.64h9.34v22h4.12v4.64H278.12V67.6Zm-.74-31a3.1,3.1,0,0,1,.89-2.2,3,3,0,0,1,2.27-.93,3.08,3.08,0,0,1,2.22.9,3.13,3.13,0,0,1,0,4.47,3.06,3.06,0,0,1-2.22.92,3,3,0,0,1-2.24-.93A3.1,3.1,0,0,1,281.5,36.6Z"/><path d="M319.91,45.64V55.7h-4.67a6.3,6.3,0,0,0-2.35-4.43,7.38,7.38,0,0,0-4.63-1.54,7.25,7.25,0,0,0-5.71,2.49,9.47,9.47,0,0,0-2.2,6.53,11,11,0,0,0,2.09,6.63,7,7,0,0,0,6,2.87q5.5,0,8-5.22l4.32,2Q317.19,73,308.26,73a12.27,12.27,0,0,1-9.94-4.32,15,15,0,0,1-3.63-9.94,13.4,13.4,0,0,1,4-9.94,12.58,12.58,0,0,1,9.12-3.91,11.08,11.08,0,0,1,7.47,2.61V45.64Z"/><path class="b5292243-bac4-4b13-8233-828c83c91820" d="M342,67.46V38.8h-4.83V34h29.64V45.53H362V38.8H347.72V50.12h12.34V54.9H347.72V67.46h4.89v4.78H337.12V67.46Z"/><path class="b5292243-bac4-4b13-8233-828c83c91820" d="M364.79,58.94a13.46,13.46,0,0,1,4.06-10.1,13.71,13.71,0,0,1,9.92-3.94,13.86,13.86,0,0,1,9.87,3.89,13.33,13.33,0,0,1,4.12,10.15,13.38,13.38,0,0,1-4.11,10.17,13.84,13.84,0,0,1-9.88,3.9,13.64,13.64,0,0,1-14-14.07Zm5.52,0a8.85,8.85,0,0,0,2.46,6.45,8.4,8.4,0,0,0,12,0,9.65,9.65,0,0,0,0-12.87,8.09,8.09,0,0,0-6-2.53,7.92,7.92,0,0,0-6.07,2.59A9.06,9.06,0,0,0,370.31,58.93Z"/><path class="b5292243-bac4-4b13-8233-828c83c91820" d="M401.5,67.6V50.28h-5.36V45.64h9.53v6a10.56,10.56,0,0,1,2.45-3.87,7.75,7.75,0,0,1,3.31-2,18.19,18.19,0,0,1,4.77-.49h1.37V50.5h-1a16.75,16.75,0,0,0-5.95.8,5.33,5.33,0,0,0-2.91,2.9c-.64,1.4-.95,3.92-.95,7.54V67.6h5.8v4.64H396.14V67.6Z"/><path class="b5292243-bac4-4b13-8233-828c83c91820" d="M424.61,67.6V50.28h-4.43V45.64h9.65V49q4.71-3.77,9.24-3.76a6.26,6.26,0,0,1,6.28,4.15q5.19-4.16,9.67-4.15a7.35,7.35,0,0,1,4.25,1.14,5.6,5.6,0,0,1,2.24,2.88,17.6,17.6,0,0,1,.58,5.16V67.6h4.64v4.64h-9.86V55.34a17.3,17.3,0,0,0-.21-3.26,2.62,2.62,0,0,0-1-1.56,3.34,3.34,0,0,0-2-.62q-3.36,0-7.62,3.43V67.6h4.56v4.64h-9.78V54.85a7.25,7.25,0,0,0-.75-3.78,2.81,2.81,0,0,0-2.56-1.17q-3,0-7.62,3.43V67.6h4.67v4.64H419.85V67.6Z"/></svg>