<svg id="fbc2a769-03fc-4b80-a44d-287629eb6429" data-name="Capa 1" xmlns="http://www.w3.org/2000/svg" viewBox="0 0 100 100"><defs><style>.afc72d1e-ee99-4b28-b6d6-290235aadc36{fill:#0172a3;}.bf3b149b-7db8-46eb-9577-c63108d9b6a2{fill:#015c8e;}.a8ad3dfe-7b33-4316-b722-04f222c708d9{fill:#ebebea;}.af352ad4-f291-4f69-a361-f96c6a4173dd{fill:#fefefd;}</style></defs><title>_</title><path class="afc72d1e-ee99-4b28-b6d6-290235aadc36" d="M49.46,19.58c0-3.23,0-6.46,0-9.69,0-1.31.44-1.78,1.77-1.78q17.67.06,35.33,0c1.42,0,1.78.63,1.66,1.86-.44,4.63-.89,9.25-1.31,13.88-.3,3.38-.55,6.77-.84,10.16-.44,5.16-.91,10.32-1.35,15.49-.4,4.75-.75,9.5-1.16,14.25-.43,5-.89,10.09-1.35,15.13,0,.18,0,.36-.06.54-.4,4.61-.41,4.57-4.84,5.83-8.55,2.44-17.09,4.88-25.61,7.42-1.7.51-1.91,0-1.88-1.51.07-3.65,0-7.3,0-11,1.49-.11,3-.25,4.46-.35,7.44-.49,10.13-3.14,10.37-10.62.16-4.95,0-9.91,0-14.87,0-1.86,0-3.71,0-5.56,0-.59-.12-1.29.59-1.54s1,.44,1.42.86.92.94,1.36,1.42c.62.7,1.3.92,2,.12.92-1.13,2.69-1.71,2.44-3.62,0-.14-.23-.26-.37-.37-3.45-2.77-6.21-6.25-9.41-9.28-1.17-1.11-1.84-1.31-3-.1-3.19,3.23-6.49,6.34-9.75,9.5q0-10.32,0-20.63c.89,0,1.78,0,2.67.1,2.92.26,4.4,1.89,4.23,4.83-.08,1.46.63,2,1.89,2,1.61,0,3.23-.13,4.84-.07,1.29,0,1.63-.58,1.66-1.74a9,9,0,0,0-6.42-9.46A30.05,30.05,0,0,0,49.46,19.58Z"/><path class="afc72d1e-ee99-4b28-b6d6-290235aadc36" d="M49.36,54.36c.81-.77,1.24-1.6.4-2.62,0-1.4.05-2.81.08-4.21a4.23,4.23,0,0,1,.4.34c2.55,2.93,2.54,2.92,5.25.27.43-.42.83-1.24,1.6-.82.61.33.31,1.08.31,1.64q0,9.15,0,18.29c0,5.88-1.7,7.42-7.6,6.92q0-8.81,0-17.62C49.81,55.8,50,55,49.36,54.36Z"/><path class="bf3b149b-7db8-46eb-9577-c63108d9b6a2" d="M49.84,47.53c0,1.4-.05,2.81-.08,4.21-2.5-2.53-2.89-2.54-5.54-.2-.42.37-.77,1.16-1.39.93s-.29-1-.29-1.6c0-6.56,0-13.12,0-19.68,0-4.4,1.12-5.63,5.46-6,.59,0,1.18,0,1.78,0q0,10.32,0,20.63A1.19,1.19,0,0,0,49.84,47.53Z"/><path class="bf3b149b-7db8-46eb-9577-c63108d9b6a2" d="M92,0Q49.72,0,7.44,0C7.09,0,5.86-.11,5.71.34a.82.82,0,0,0,0,.22c.09,2.32.53,4.58.73,6.88q.74,8.47,1.46,16.93T9.33,41.3q.72,8.48,1.45,16.94c.83,9.76,1.7,19.52,2.49,29.29.09,1.22.67,1.58,1.68,1.89q16.22,4.88,32.39,9.84c.61.18,1.3.19,1.76.74h1.44c5.31-1.92,10.79-3.31,16.18-5q9.5-2.92,19-5.65a1.7,1.7,0,0,0,1.47-1.81c.91-12,1.87-24.07,2.81-36.1Q91.91,27.72,93.77,4c0-.64-.23-1.45.54-1.92V.24A6.17,6.17,0,0,0,92,0ZM88.2,10c-.44,4.63-.89,9.25-1.31,13.88-.3,3.38-.55,6.77-.84,10.16-.44,5.16-.91,10.32-1.35,15.49-.4,4.75-.75,9.5-1.16,14.25-.43,5-.89,10.09-1.35,15.13,0,.18,0,.36-.06.54-.34,4-.4,4.49-3.23,5.36,0,0-23.77,6.86-27.22,7.89-1.7.51-1.91,0-1.88-1.51,0-.59,0-1.17,0-1.75v-9.2c-1-.12-2-.21-2.93-.29l-1-.09A25.61,25.61,0,0,1,42,79.21a9.38,9.38,0,0,1-7.37-10.38c.09-.91.41-1.45,1.41-1.45,1.85,0,3.71,0,5.56,0,.85,0,1.36.35,1.39,1.25,0,.06,0,.12,0,.18.13.8.26,1.48.4,2.08.06.24.12.46.18.67.52,1.66,1.28,2.39,2.81,2.62a8.37,8.37,0,0,0,1.3.09c.36,0,.76,0,1.19,0l.44,0,.47,0V64q0-3.72,0-7.44c0-.11,0-.22,0-.33v-.78a1.63,1.63,0,0,0-.46-1.08c-3.06,3-6.17,6-9.15,9.07-1.08,1.12-1.77,1.23-2.88.06-3-3.16-6.09-6.25-9.19-9.3-1-.95-1.2-1.72,0-2.59a7.71,7.71,0,0,0,.74-.77c1.54-1.48,1.95-1.44,3.61-.07.73.61,1.16,2.13,2.25,1.64s.39-1.85.4-2.81c.07-6.21,0-12.42.08-18.63a25.66,25.66,0,0,1,.26-3.39c.62-4.4,3.55-7,8.44-7.57,1.83-.2,3.68-.28,5.53-.42,0-3.23,0-6.46,0-9.69a1.75,1.75,0,0,1,.4-1.35,2.37,2.37,0,0,1,.33-.22,1.73,1.73,0,0,1,.49-.15c.12,0,1.32-.05,1.8-.05H86.54C88,8.11,88.32,8.74,88.2,10Z"/><path class="a8ad3dfe-7b33-4316-b722-04f222c708d9" d="M49.82,74.17l-.47,0-.44,0c-.43,0-.83,0-1.19,0a8.37,8.37,0,0,1-1.3-.09c-1.53-.23-2.29-1-2.81-2.62-.06-.21-.12-.43-.18-.67-.14-.6-.27-1.28-.4-2.08,0-.06,0-.12,0-.18,0-.9-.54-1.26-1.39-1.25-1.85,0-3.71,0-5.56,0-1,0-1.32.54-1.41,1.45A9.38,9.38,0,0,0,42,79.21a25.61,25.61,0,0,0,3.89.62l1,.09c1,.08,2,.17,2.93.29Z"/><path class="a8ad3dfe-7b33-4316-b722-04f222c708d9" d="M49.82,53.85v-2l-.06-.08c-2.5-2.53-2.89-2.54-5.54-.2-.42.37-.77,1.16-1.39.93s-.29-1-.29-1.6c0-6.56,0-13.12,0-19.68,0-4.4,1.12-5.63,5.46-6,.59,0,1.18,0,1.78,0h0V19.6l-.36,0c-1.85.14-3.7.22-5.53.42-4.89.53-7.82,3.17-8.44,7.57A25.66,25.66,0,0,0,35.23,31c0,6.21,0,12.42-.08,18.63,0,1,.65,2.34-.4,2.81s-1.52-1-2.25-1.64c-1.66-1.37-2.07-1.41-3.61.07a7.71,7.71,0,0,1-.74.77c-1.21.87-1,1.64,0,2.59,3.1,3.05,6.19,6.14,9.19,9.3,1.11,1.17,1.8,1.06,2.88-.06,3-3.09,6.09-6.06,9.15-9.07A5.29,5.29,0,0,0,49.82,53.85Z"/><path class="af352ad4-f291-4f69-a361-f96c6a4173dd" d="M72.38,46.05c0-.14-.23-.26-.37-.37-3.45-2.77-6.21-6.25-9.41-9.28-1.17-1.11-1.84-1.31-3-.1-3.18,3.23-6.49,6.34-9.74,9.49h0a1.17,1.17,0,0,0,0,1.7l0,0a4.23,4.23,0,0,1,.4.34c2.55,2.93,2.54,2.92,5.25.27.43-.42.83-1.24,1.6-.82.61.33.31,1.08.31,1.64q0,9.15,0,18.29c0,5.88-1.7,7.42-7.6,6.92h0v6h0c1.49-.11,3-.25,4.46-.35,7.44-.49,10.13-3.14,10.37-10.62.16-4.95,0-9.91,0-14.87,0-1.86,0-3.71,0-5.56,0-.59-.12-1.29.59-1.54s1,.44,1.42.86.92.94,1.36,1.42c.62.7,1.3.92,2,.12C70.86,48.54,72.63,48,72.38,46.05Z"/><path class="af352ad4-f291-4f69-a361-f96c6a4173dd" d="M52.44,25.27c2.92.26,4.4,1.89,4.23,4.83-.08,1.46.63,2,1.89,2,1.61,0,3.23-.13,4.84-.07,1.29,0,1.63-.58,1.66-1.74a9,9,0,0,0-6.42-9.46,28.66,28.66,0,0,0-8.82-1.22v5.58C50.69,25.2,51.57,25.19,52.44,25.27Z"/></svg>