<svg id="b53bbae7-6bc5-40de-b531-749d057ac50a" data-name="Capa 1" xmlns="http://www.w3.org/2000/svg" viewBox="0 0 100 100"><defs><style>.ac72bd22-49c6-4c49-ab45-93000b3e2830{fill:#fff;}</style></defs><title>_</title><path class="ac72bd22-49c6-4c49-ab45-93000b3e2830" d="M65,41.11h1.39V43a5.32,5.32,0,0,0-.16.57c-.44,2.64-.86,5.29-1.29,7.94L62,69.21c-.34,2.05-.65,4.1-1,6.14s-1,2.23-2.77,1.51c-2.77-1.13-5.56-2.24-8.31-3.43a1.07,1.07,0,0,0-1.55.43C47.59,74.93,46.73,76,45.88,77s-1.71,2.4-3.12,3h-.69a4.74,4.74,0,0,1-.67-1.57c-.07-2.14,0-4.28,0-6.42A2.4,2.4,0,0,1,42,70.29q8.56-10.47,17.11-21a4.45,4.45,0,0,0,.33-.51,1,1,0,0,0-.5.25Q48.17,58.32,37.43,67.59a1.06,1.06,0,0,1-1.29.24c-2.49-1.06-5-2-7.51-3.12a7,7,0,0,1-1.32-1v-.34a10.07,10.07,0,0,1,1.77-1.69q14.4-8.4,28.84-16.71C60.24,43.61,62.63,42.39,65,41.11Z"/><path class="ac72bd22-49c6-4c49-ab45-93000b3e2830" d="M87.57,100H12.43c-4.79-1.74-6.29-5.29-6.27-10.19q.16-39.81,0-79.62c0-4.9,1.48-8.45,6.27-10.19H62.67c6.58,1.18,11.53,5,15.9,9.78,2.73,3,5.71,5.79,8.6,8.65a21.55,21.55,0,0,1,6.62,15.91c0,18.49-.08,37,0,55.46C93.88,94.71,92.36,98.26,87.57,100Zm-25-93.57c-.87-.09-1.44-.2-2-.2-15.19,0-30.37,0-45.56,0-1.95,0-2.6.84-2.58,2.69.06,5.19,0,10.37,0,15.56q0,33.09,0,66.2c0,1.84.18,3.16,2.56,3.15q35-.06,70,0c1.76,0,2.58-.62,2.58-2.46q0-29.1,0-58.2c0-1.55-.53-2-2.06-2-6.82.07-13.63,0-20.45,0H62.58ZM83.92,24.92l-15-15.2v15.2Z"/></svg>