<svg id="f692b64d-df99-4cbc-af43-51864fe3c7a3" data-name="Capa 1" xmlns="http://www.w3.org/2000/svg" viewBox="0 0 100 100"><defs><style>.eae142cb-0475-45a5-8306-d44afcfce1ef{fill:#1572b6;}.b3c05123-1c0b-4279-8d51-941994a570a6{fill:#34a8db;}.e35a6252-0ea5-4288-b975-b8a2545baffe{fill:#e7e8e9;}.e8b905bd-4eb0-4a1d-b768-b9e81695468a{fill:#e4e7e9;}.a6942b83-c268-4da7-b902-dcf374356968{fill:#fdfdfe;}</style></defs><title>_</title><path class="eae142cb-0475-45a5-8306-d44afcfce1ef" d="M50,.06C63.91.06,77.8.11,91.69,0,93.83,0,94.14.69,94,2.57Q90.6,39.73,87.31,76.89c-.34,3.79-.74,7.58-1,11.37a2.26,2.26,0,0,1-2,2.4q-16.64,4.5-33.2,9.19a4.21,4.21,0,0,1-2.44-.07c-10.9-3-21.79-6.11-32.72-9A2.6,2.6,0,0,1,13.68,88q-3-34-6.06-68C7.09,14.09,6.62,8.19,6,2.3,5.85.58,6.23,0,8.1,0,22.08.09,36.05.06,50,.06Zm-.75,40c-3.54,0-7.08.07-10.61.06-1.07,0-1.79.1-1.65,1.49.29,2.76.47,5.53.66,8.31.09,1.34,1,1.32,2,1.32l10.11.09V68.63C47.4,68,45,67.41,42.67,66.77c-4.72-1.29-4.72-1.29-5.28-6A23.6,23.6,0,0,1,37.06,58c0-1.13-.51-1.44-1.55-1.42-2.62,0-5.24.1-7.86,0-1.54-.07-1.86.53-1.72,1.92.45,4.45.89,8.91,1.18,13.37.11,1.73.86,2.42,2.48,2.85,6.75,1.82,13.47,3.78,20.2,5.68v9.14c0,3.17,0,3.15,3,2.31,7.39-2.07,14.77-4.16,22.16-6.19,4.72-1.3,4.62-1.26,4.85-6.09s.68-9.92,1.11-14.87c.6-6.78,1.3-13.55,1.92-20.34.41-4.44.73-8.89,1.13-13.33.63-6.95,1.26-13.9,1.94-20.85.17-1.79-.28-2.56-2.3-2.54q-15.75.13-31.48,0c-1.77,0-2.31.52-2.35,2.3,0,2.58.66,5.23-.46,7.75-8.27,0-16.54.09-24.81,0-1.66,0-2.27.4-2,2.12a48.64,48.64,0,0,1,.67,6.79c0,2,.9,2.28,2.64,2.27,8-.05,16,0,24.05.06,0,1.08,0,2.17,0,3.24C49.56,34.8,50.36,37.48,49.27,40Z"/><path class="b3c05123-1c0b-4279-8d51-941994a570a6" d="M49.27,17.67c1.12-2.52.41-5.17.46-7.75,0-1.78.58-2.31,2.35-2.3q15.74.11,31.48,0c2,0,2.47.75,2.3,2.54-.68,7-1.31,13.9-1.94,20.85-.4,4.44-.72,8.89-1.13,13.33-.62,6.79-1.32,13.56-1.92,20.34-.43,5-.87,9.91-1.11,14.87s-.13,4.79-4.85,6.09c-7.39,2-14.77,4.12-22.16,6.19-3,.84-3,.86-3-2.31V80.37l.52-.24c6.44-1.75,12.84-3.66,19.34-5.17,2.59-.61,3.27-1.88,3.45-4.28.53-7.33,1.26-14.65,1.91-22,.87-9.68,1.72-19.36,2.62-29,.14-1.4-.2-1.94-1.72-1.92-8.54.09-17.09.09-25.64.12Z"/><path class="e35a6252-0ea5-4288-b975-b8a2545baffe" d="M50.31,80.14l-.52.23c-6.73-1.9-13.45-3.86-20.2-5.68-1.62-.43-2.37-1.12-2.48-2.85-.29-4.46-.73-8.92-1.18-13.37-.14-1.39.18-2,1.72-1.92,2.62.12,5.24.06,7.86,0,1,0,1.55.29,1.55,1.42a23.6,23.6,0,0,0,.33,2.76c.56,4.73.56,4.73,5.28,6,2.36.64,4.73,1.24,7.09,1.86l.52.16Z"/><path class="e8b905bd-4eb0-4a1d-b768-b9e81695468a" d="M49.27,17.67l1,.19,0,10.8-.49.29c-8,0-16-.11-24-.06-1.74,0-2.62-.28-2.64-2.27a48.64,48.64,0,0,0-.67-6.79c-.26-1.72.35-2.13,2-2.12C32.73,17.76,41,17.69,49.27,17.67Z"/><path class="b3c05123-1c0b-4279-8d51-941994a570a6" d="M50.28,68.79l-.52-.16q0-8.67,0-17.32c0-.12,0-.23,0-.35,3.95.59,7.93.16,11.89.23,1.39,0,2,.34,1.85,1.85q-.61,5.67-1,11.36c-.09,1.18-.92,1.26-1.71,1.48C57.28,66.86,53.78,67.82,50.28,68.79Z"/><path class="b3c05123-1c0b-4279-8d51-941994a570a6" d="M49.81,29l.49-.29c4.4.07,8.79.21,13.19.16,1.71,0,2.22.52,2,2.18-.3,2.34-.48,4.71-.64,7.07-.1,1.54-.71,2.14-2.36,2.11-4.23-.09-8.46,0-12.7.08L49.27,40c1.09-2.56.29-5.24.51-7.85C49.86,31.12,49.8,30,49.81,29Z"/><path class="e8b905bd-4eb0-4a1d-b768-b9e81695468a" d="M49.27,40l.52.22a25.72,25.72,0,0,1,0,10.7c0,.12,0,.23,0,.35l-10.11-.09c-1,0-1.88,0-2-1.32-.19-2.78-.37-5.55-.66-8.31-.14-1.39.58-1.49,1.65-1.49C42.19,40.11,45.73,40.06,49.27,40Z"/><path class="a6942b83-c268-4da7-b902-dcf374356968" d="M49.77,51a25.72,25.72,0,0,0,0-10.7c4.24,0,8.47-.17,12.7-.08,1.65,0,2.26-.57,2.36-2.11.16-2.36.34-4.73.64-7.07.22-1.66-.29-2.2-2-2.18-4.4.05-8.79-.09-13.19-.16l0-10.8c8.55,0,17.1,0,25.64-.12,1.52,0,1.86.52,1.72,1.92-.9,9.68-1.75,19.36-2.62,29-.65,7.33-1.38,14.65-1.91,22-.18,2.4-.86,3.67-3.45,4.28-6.5,1.51-12.9,3.42-19.34,5.17l0-11.34c3.5-1,7-1.93,10.49-2.91.79-.22,1.62-.3,1.71-1.48q.42-5.69,1-11.36c.16-1.51-.46-1.82-1.85-1.85C57.7,51.12,53.72,51.55,49.77,51Z"/></svg>