<svg id="ba8a538b-a720-4670-b7f8-26f3c43f3377" data-name="Capa 1" xmlns="http://www.w3.org/2000/svg" viewBox="0 0 100 100"><defs><style>.e0aa28df-916a-4b47-8ec9-a304b3ef5e84{fill:#efa001;}.f230226b-9327-46fd-bfcf-343c1a59da16{fill:#f9bd01;}.a79589d7-4392-4da3-81c5-2eaff2ddbc0a{fill:#ebebea;}.ad3e0150-3f6c-447f-b491-f7ac38bcc07e{fill:#fefefd;}</style></defs><title>_</title><path class="e0aa28df-916a-4b47-8ec9-a304b3ef5e84" d="M5.82,2.68V0H92.33a2.83,2.83,0,0,1,1.85.29V2.39c-.3.1-.28.36-.3.6-.48,5.31-1,10.61-1.44,15.92Q91,34.69,89.66,50.48c-1.14,12.73-2.32,25.46-3.42,38.19a1.75,1.75,0,0,1-1.54,1.86q-16.83,4.6-33.63,9.32a4.16,4.16,0,0,1-2.32,0c-3.08-.88-6.17-1.71-9.26-2.57L15.13,90.47c-.66-.18-1.25-.23-1.34-1.22-.53-6.49-1.15-13-1.72-19.47Q10.81,55.7,9.58,41.61C8.62,30.85,7.7,20.08,6.67,9.32,6.46,7.11,6.62,4.83,5.82,2.68ZM50,51.87q0,8.67,0,17.35l-.28.19c-3.6-1-7.2-2-10.81-3a1.63,1.63,0,0,1-1.45-1.8c-.07-2.11-.39-4.22-.52-6.34-.05-.85-.38-1.06-1.17-1.06-3,0-6,.06-9,0-1,0-1.11.41-1,1.23q.72,7.65,1.4,15.32A1,1,0,0,0,28,74.89c7.22,2,14.43,4,21.65,5.94L50,81c0,3.36,0,6.72,0,10.08,0,.87.12,1.26,1.18,1q13.36-3.78,26.76-7.42c.95-.25,1.43-.76,1.39-1.61-.08-1.54.29-3,.36-4.56.11-2.6.38-5.19.62-7.79.36-3.91.77-7.81,1.12-11.72s.6-7.54.94-11.31.8-7.71,1.13-11.58.58-8,.94-12c.44-4.93.94-9.87,1.45-14.8.14-1.29-.22-1.8-1.67-1.79-10.07.06-20.15,0-30.22,0-4,0-4,0-4,4-.54,0-1.08.07-1.62.07-5.73,0-11.46,0-17.19,0-1.37,0-2.07.17-2,1.79A42,42,0,0,1,28.7,18c-1,10.81-1.93,21.62-2.95,32.43-.11,1.16.2,1.42,1.31,1.41,6.23,0,12.45,0,18.67,0a19.71,19.71,0,0,0,4-.11Z"/><path class="f230226b-9327-46fd-bfcf-343c1a59da16" d="M50,11.45c0-4,0-4,4-4,10.07,0,20.15,0,30.22,0,1.45,0,1.81.5,1.67,1.79-.51,4.93-1,9.87-1.45,14.8-.36,4-.59,8-.94,12.05s-.78,7.72-1.13,11.58-.6,7.54-.94,11.31-.76,7.81-1.12,11.72c-.24,2.6-.51,5.19-.62,7.79-.07,1.53-.44,3-.36,4.56,0,.85-.44,1.36-1.39,1.61Q64.54,88.25,51.17,92c-1.06.3-1.18-.09-1.18-1,0-3.36,0-6.72,0-10.08.28-.1.54-.23.83-.31l17.35-4.79c1.37-.39,3.08-.42,4-1.29s.56-2.77.69-4.22c.87-9.38,1.7-18.75,2.59-28.12.13-1.29-.15-1.65-1.51-1.64-8,0-16,0-24,0q0-8.7,0-17.4l0-.11c4,.22,8.07.48,12.1.62,1,0,1.35.39,1.42,1.35.21,3,.53,5.89.75,8.84.06.91.23,1.42,1.35,1.39,3-.08,5.92-.06,8.87,0,.89,0,1.11-.31,1-1.12-.22-2.16-.41-4.32-.6-6.48q-.65-7.44-1.28-14.88c-.06-.71-.09-1.3-1.13-1.29-7.5.06-15,.06-22.49.09Z"/><path class="a79589d7-4392-4da3-81c5-2eaff2ddbc0a" d="M49.72,51.68a19.71,19.71,0,0,1-4,.11c-6.22,0-12.44,0-18.67,0-1.11,0-1.42-.25-1.31-1.41,1-10.81,2-21.62,2.95-32.43a42,42,0,0,0,.47-4.71c0-1.62.66-1.8,2-1.79,5.73.07,11.46,0,17.19,0,.54,0,1.08,0,1.62-.07v.15c0,3.83,0,7.66,0,11.49l0,.11c-3.1.07-6.21.18-9.31.18-1,0-1.32.29-1.4,1.31q-.59,7.38-1.36,14.74c-.11,1,.14,1.24,1.11,1.23,3.55,0,7.11,0,10.66,0Q49.71,46.2,49.72,51.68Z"/><path class="ad3e0150-3f6c-447f-b491-f7ac38bcc07e" d="M49.72,51.68q0-5.49,0-11L50,40.6c8,0,16,.06,24,0,1.36,0,1.64.35,1.51,1.64-.89,9.37-1.72,18.74-2.59,28.12-.13,1.45.34,3.28-.69,4.22s-2.65.9-4,1.29L50.83,80.67c-.29.08-.55.21-.83.31l-.35-.15c0-3.81.05-7.62.08-11.42l.28-.19c3.81-1,7.6-2,11.41-3a.87.87,0,0,0,.78-.88q.55-6.25,1.14-12.5c.07-.72-.08-1.08-.92-1.07-4.14.06-8.28.07-12.42.09Z"/><path class="a79589d7-4392-4da3-81c5-2eaff2ddbc0a" d="M49.73,69.41c0,3.8,0,7.61-.08,11.42-7.22-2-14.43-4-21.65-5.94a1,1,0,0,1-.88-1.11q-.68-7.66-1.4-15.32c-.08-.82,0-1.26,1-1.23,3,.06,6,0,9,0,.79,0,1.12.21,1.17,1.06.13,2.12.45,4.23.52,6.34a1.63,1.63,0,0,0,1.45,1.8C42.53,67.37,46.13,68.4,49.73,69.41Z"/><path class="f230226b-9327-46fd-bfcf-343c1a59da16" d="M50,51.87c4.14,0,8.28,0,12.42-.09.84,0,1,.35.92,1.07q-.59,6.24-1.14,12.5a.87.87,0,0,1-.78.88c-3.81,1-7.6,2-11.41,3Q50,60.55,50,51.87Z"/><path class="ad3e0150-3f6c-447f-b491-f7ac38bcc07e" d="M50,23.09c0-3.83,0-7.66,0-11.49,7.49,0,15,0,22.49-.09,1,0,1.07.58,1.13,1.29q.64,7.44,1.28,14.88c.19,2.16.38,4.32.6,6.48.09.81-.13,1.14-1,1.12-3-.05-5.92-.07-8.87,0-1.12,0-1.29-.48-1.35-1.39C64,31,63.72,28,63.51,25.06c-.07-1-.39-1.31-1.42-1.35C58.06,23.57,54,23.31,50,23.09Z"/><path class="e0aa28df-916a-4b47-8ec9-a304b3ef5e84" d="M50,40.6l-.29.09c-3.55,0-7.11-.06-10.66,0-1,0-1.22-.21-1.11-1.23q.77-7.35,1.36-14.74c.08-1,.39-1.31,1.4-1.31,3.1,0,6.21-.11,9.31-.18Q50,31.9,50,40.6Z"/></svg>