<svg id="bfeb6316-7b32-4636-ad2c-10d6d61362b3" data-name="Capa 1" xmlns="http://www.w3.org/2000/svg" viewBox="0 0 370 440"><defs><style>.a5312a10-8df7-4284-8a98-40cad1b5d318{font-size:20.07px;font-family:MyriadPro-Semibold, Myriad Pro;font-weight:600;}.a927149d-3722-43cd-bf86-bb2c22665fb1{letter-spacing:0em;}.f20b0300-ada6-4e11-a142-678c3128e29c{letter-spacing:0.01em;}.bbf4fb8f-2ec0-4d70-8a1d-113009138729{letter-spacing:0em;}.bcb127b5-7d21-4eb9-91b5-628c6d9b05a8{letter-spacing:-0.01em;}.bae83624-6673-4bfa-9a0b-577996d1568b,.fd0a886f-063a-441c-aba8-9243c1889ca1{stroke:#000;stroke-linecap:round;stroke-linejoin:round;}.bae83624-6673-4bfa-9a0b-577996d1568b{stroke-width:4px;}.fd0a886f-063a-441c-aba8-9243c1889ca1{fill:none;stroke-width:5px;}.a2cd9f05-fae3-4f66-b751-ffaf8f93218a{font-size:18px;font-family:MyriadPro-Regular, Myriad Pro;}.fc7c9bd3-73d5-42cc-80c2-58cd88b7e198{letter-spacing:0em;}.e6484037-50ca-4523-bbf8-77fd320ff5fa{letter-spacing:-0.01em;}.a4b303b7-9266-4167-84ba-cefdb43426be{font-size:24px;fill:#fff;font-family:MyriadPro-Bold, Myriad Pro;font-weight:700;}.ba4c1e87-9e36-4899-afc9-fc2cf6a614b0{fill:#e34f27;}.bbca7927-8bc7-4a94-b00e-d58a4bcd563e{fill:#f0662a;}.bb421e8d-7918-463b-9c62-63d1b974b33f{fill:#ebe8e7;}.a30e985a-581a-43c2-9fe4-4891997b92d7{fill:#ef590c;}.f034e055-fd91-4fe7-a8ab-2786ae0ec9cf{fill:#fefdfc;}.fe55b504-4f31-4e26-bf73-fce50818c088{fill:#fefdfd;}.e6adb279-d10c-41f4-a6b2-7989ccfda4c1{fill:#1572b6;}.bf9e1ed8-e5f1-4744-80b8-b52fbe0c146a{fill:#34a8db;}.ac9cc841-6582-48f8-a82c-70291024ccb4{fill:#e7e8e9;}.e235c7ec-e7d5-4ae0-8beb-ec4590648737{fill:#e4e7e9;}.b8e507d5-a867-463c-add7-6b087d06adae{fill:#fdfdfe;}.a1b7cb71-3ef2-42e2-b9bf-c5757561436d{letter-spacing:-0.01em;}.ee464ce7-6969-49b1-b232-3cc45531b819{fill:#8692c1;}.bb189f51-aa66-4048-9eb5-be5ff51d484c{fill:#232633;}</style></defs><title>_</title><text class="a5312a10-8df7-4284-8a98-40cad1b5d318" transform="translate(13.48 24.54)"><tspan class="a927149d-3722-43cd-bf86-bb2c22665fb1">E</tspan><tspan x="10.4" y="0">stru</tspan><tspan class="f20b0300-ada6-4e11-a142-678c3128e29c" x="44.38" y="0">c</tspan><tspan class="bbf4fb8f-2ec0-4d70-8a1d-113009138729" x="53.69" y="0">tu</tspan><tspan class="bcb127b5-7d21-4eb9-91b5-628c6d9b05a8" x="72.15" y="0">r</tspan><tspan x="79.12" y="0">a</tspan></text><polygon class="bae83624-6673-4bfa-9a0b-577996d1568b" points="192.5 286.79 154.19 286.79 150.29 280 136.5 280 136.5 323 192.5 323 192.5 286.79"/><line class="fd0a886f-063a-441c-aba8-9243c1889ca1" x1="117.5" y1="78.5" x2="117.5" y2="304"/><line class="fd0a886f-063a-441c-aba8-9243c1889ca1" x1="134" y1="193.5" x2="117.5" y2="193.5"/><line class="fd0a886f-063a-441c-aba8-9243c1889ca1" x1="134" y1="78.5" x2="117.5" y2="78.5"/><line class="fd0a886f-063a-441c-aba8-9243c1889ca1" x1="134" y1="303.5" x2="117.5" y2="303.5"/><line class="fd0a886f-063a-441c-aba8-9243c1889ca1" x1="163.5" y1="324" x2="163.5" y2="366"/><line class="fd0a886f-063a-441c-aba8-9243c1889ca1" x1="219" y1="366" x2="163.5" y2="366"/><text class="a2cd9f05-fae3-4f66-b751-ffaf8f93218a" transform="translate(131.98 127.99)">ind<tspan class="fc7c9bd3-73d5-42cc-80c2-58cd88b7e198" x="24.35" y="0">e</tspan><tspan x="33.32" y="0">x.php</tspan></text><text class="a2cd9f05-fae3-4f66-b751-ffaf8f93218a" transform="translate(217.38 421.27)">bas<tspan class="e6484037-50ca-4523-bbf8-77fd320ff5fa" x="26.05" y="0">e</tspan><tspan x="34.85" y="0">.css</tspan></text><text class="a4b303b7-9266-4167-84ba-cefdb43426be" transform="translate(147.37 311.27)">css</text><path class="ba4c1e87-9e36-4899-afc9-fc2cf6a614b0" d="M162.73,65.54h14.41c1.09,0,1.13.06,1,1.09l-1.59,17.8c-.36,4-.73,8-1.07,12,0,.5-.24.69-.72.82q-5.78,1.56-11.54,3.19a1.59,1.59,0,0,1-.94,0c-3.85-1.08-7.69-2.16-11.55-3.2a.78.78,0,0,1-.68-.84q-.81-9.45-1.65-18.87c-.32-3.64-.66-7.27-1-10.9-.11-1.14-.12-1.14,1.05-1.14Zm0,18.36,0,5.92c-.94-.11-1.81-.53-2.74-.69s-1.79-.49-1.58-1.77a9.12,9.12,0,0,0-.11-1.15c0-.43-.18-.56-.59-.55-.89,0-1.78,0-2.67,0-.57,0-.71.16-.66.7.16,1.54.3,3.07.41,4.61,0,.6.29.84.88,1,2.37.62,4.72,1.32,7.09,2,0,1,0,2,0,2.94s.25,1.05,1.09.81l2.81-.79c1.79-.49,3.6-.94,5.38-1.48.37-.11,1-.11,1-.68.15-1.2.27-2.4.37-3.61.14-1.61.24-3.23.38-4.85.22-2.52.46-5,.69-7.57.14-1.56.26-3.11.41-4.67s.31-3.34.48-5c.07-.61-.14-.83-.78-.83q-5.47,0-11,0c-.67,0-.91.29-.91.9,0,.89,0,1.78,0,2.67-2.91,0-5.82,0-8.72,0-.3,0-.67-.15-.89.21l1,11.71c.26.3.61.18.92.18Z"/><path class="bbca7927-8bc7-4a94-b00e-d58a4bcd563e" d="M162.73,71.77c0-.89,0-1.78,0-2.67,0-.61.24-.9.91-.9q5.48,0,11,0c.64,0,.85.22.78.83q-.26,2.5-.48,5c-.15,1.56-.27,3.11-.41,4.67-.23,2.53-.47,5.05-.69,7.57-.14,1.62-.24,3.24-.38,4.85-.1,1.21-.22,2.41-.37,3.61-.07.57-.66.57-1,.68-1.78.54-3.59,1-5.38,1.48l-2.81.79c-.84.24-1.08.07-1.09-.81s0-2,0-2.94l0-.08a2.13,2.13,0,0,0,.44,0c2.36-.64,4.72-1.31,7.09-1.94.45-.12.51-.39.54-.77.28-3.19.59-6.36.83-9.55,0-.59.4-1.19,0-1.79-.27-.28-.61-.17-.92-.17h-8v-3.7l0-.07,8.9,0c.43,0,.56-.14.58-.55,0-.86.12-1.72.19-2.57l.06-.26c.05-.2.12-.4-.11-.55s-.61-.17-.92-.17Z"/><path class="bb421e8d-7918-463b-9c62-63d1b974b33f" d="M154.17,83.71l-1-11.71,9.61,0,0,3.82,0,.07c-1.59,0-3.19,0-4.78,0-.45,0-.64.1-.57.59.14,1.05.23,2.11.35,3.16.18.37.51.19.77.19,1.41,0,2.82,0,4.22,0v3.83Z"/><path class="bb421e8d-7918-463b-9c62-63d1b974b33f" d="M162.73,93.94c-2.37-.66-4.72-1.36-7.09-2-.59-.15-.84-.39-.88-1-.11-1.54-.25-3.07-.41-4.61,0-.54.09-.73.66-.7.89,0,1.78,0,2.67,0,.41,0,.59.12.59.55a9.12,9.12,0,0,1,.11,1.15c-.21,1.28.55,1.6,1.58,1.77s1.8.58,2.74.69a.5.5,0,0,1,0,.12c0,1.31,0,2.61,0,3.92Z"/><path class="bbca7927-8bc7-4a94-b00e-d58a4bcd563e" d="M162.72,89.94a.5.5,0,0,0,0-.12l0-5.92h4.77c-.11,1.47-.24,2.93-.34,4.4,0,.42-.29.51-.62.6Z"/><path class="a30e985a-581a-43c2-9fe4-4891997b92d7" d="M162.73,72l-9.61,0c.22-.36.59-.21.89-.21,2.9,0,5.81,0,8.72,0h8.68c.31,0,.66-.11.92.17Z"/><path class="a30e985a-581a-43c2-9fe4-4891997b92d7" d="M167.5,83.89H155.09c-.31,0-.66.12-.92-.18l8.55,0c1.28,0,2.55,0,3.82,0C166.86,83.73,167.24,83.54,167.5,83.89Z"/><path class="f034e055-fd91-4fe7-a8ab-2786ae0ec9cf" d="M167.5,83.89c-.26-.35-.64-.16-1-.17-1.27,0-2.54,0-3.82,0V79.86l8.9-.07c.39.6,0,1.2,0,1.79-.24,3.19-.55,6.36-.83,9.55,0,.38-.09.65-.54.77-2.37.63-4.73,1.3-7.09,1.94a2.13,2.13,0,0,1-.44,0c0-1.31,0-2.61,0-3.92l3.82-1c.33-.09.59-.18.62-.6C167.26,86.82,167.39,85.36,167.5,83.89Z"/><path class="fe55b504-4f31-4e26-bf73-fce50818c088" d="M162.73,72l9.6-.07c.23.15.16.35.11.55l-.06.26c-.07.85-.15,1.71-.19,2.57,0,.41-.15.56-.58.55l-8.9,0C162.72,74.57,162.72,73.29,162.73,72Z"/><path class="ba4c1e87-9e36-4899-afc9-fc2cf6a614b0" d="M157.73,79.62c-.12-1.05-.21-2.11-.35-3.16-.07-.49.12-.6.57-.59,1.59,0,3.19,0,4.78,0v3.7Z"/><path class="a30e985a-581a-43c2-9fe4-4891997b92d7" d="M157.73,79.62h13c.31,0,.65-.11.92.17l-8.9.07c-1.4,0-2.81,0-4.22,0C158.24,79.81,157.91,80,157.73,79.62Z"/><path class="bb421e8d-7918-463b-9c62-63d1b974b33f" d="M172.38,72.76l.06-.26Z"/><path class="ba4c1e87-9e36-4899-afc9-fc2cf6a614b0" d="M189.21,110.29H136.39c-3.37-1.22-4.42-3.72-4.41-7.16q.12-28,0-56c0-3.45,1-6,4.41-7.17h35.32c4.62.83,8.1,3.48,11.17,6.87,1.92,2.12,4,4.07,6.05,6.08a15.13,15.13,0,0,1,4.65,11.19c0,13-.06,26,0,39C193.64,106.57,192.58,109.07,189.21,110.29ZM171.64,44.52c-.61-.06-1-.14-1.42-.14-10.67,0-21.35,0-32,0-1.37,0-1.83.59-1.81,1.89,0,3.65,0,7.29,0,10.93q0,23.26,0,46.54c0,1.29.13,2.22,1.8,2.22q24.6-.06,49.21,0c1.23,0,1.81-.44,1.81-1.73q0-20.46,0-40.91c0-1.09-.37-1.42-1.45-1.41-4.79,0-9.58,0-14.37,0h-1.75Zm15,13c-3.52-3.57-7.07-7.15-10.57-10.69V57.52Z"/><path class="e6adb279-d10c-41f4-a6b2-7989ccfda4c1" d="M248.21,355.75c4.86,0,9.72,0,14.58,0,.76,0,.86.24.8.9-.79,8.68-1.55,17.35-2.33,26-.12,1.32-.26,2.65-.35,4a.8.8,0,0,1-.7.84q-5.82,1.57-11.63,3.22a1.53,1.53,0,0,1-.85,0c-3.82-1.07-7.63-2.14-11.46-3.17a.91.91,0,0,1-.79-.95q-1-11.91-2.12-23.82c-.19-2.06-.35-4.13-.56-6.19-.06-.6.07-.81.73-.8C238.42,355.77,243.31,355.75,248.21,355.75Zm-.27,14c-1.24,0-2.47,0-3.71,0-.38,0-.63,0-.58.53.1,1,.17,1.93.23,2.9,0,.47.35.47.69.47l3.54,0v6.06l-2.48-.65c-1.65-.45-1.65-.45-1.85-2.1a8.23,8.23,0,0,1-.11-1c0-.4-.18-.51-.55-.5-.91,0-1.83,0-2.75,0-.54,0-.65.19-.6.68.16,1.56.31,3.12.41,4.68a1,1,0,0,0,.87,1c2.37.63,4.72,1.32,7.07,2v3.2c0,1.12,0,1.11,1,.81,2.59-.72,5.17-1.45,7.76-2.16,1.65-.46,1.62-.44,1.7-2.14s.23-3.47.39-5.2c.21-2.38.45-4.75.67-7.12.14-1.56.26-3.12.4-4.67.21-2.44.44-4.87.67-7.3.06-.63-.09-.9-.8-.89q-5.52,0-11,0c-.62,0-.81.18-.83.81a6.7,6.7,0,0,1-.16,2.71c-2.89,0-5.79,0-8.69,0-.58,0-.79.15-.7.75a17.29,17.29,0,0,1,.24,2.38c0,.69.31.79.92.79,2.81,0,5.61,0,8.42,0,0,.38,0,.76,0,1.13C248,367.92,248.33,368.86,247.94,369.75Z"/><path class="bf9e1ed8-e5f1-4744-80b8-b52fbe0c146a" d="M247.94,361.92a6.7,6.7,0,0,0,.16-2.71c0-.63.21-.81.83-.81q5.5,0,11,0c.71,0,.86.26.8.89-.23,2.43-.46,4.86-.67,7.3-.14,1.55-.26,3.11-.4,4.67-.22,2.37-.46,4.74-.67,7.12-.16,1.73-.31,3.47-.39,5.2s-.05,1.68-1.7,2.14c-2.59.71-5.17,1.44-7.76,2.16-1,.3-1,.31-1-.81v-3.2l.19-.08c2.25-.61,4.49-1.28,6.77-1.81.91-.21,1.14-.66,1.2-1.5.19-2.57.45-5.13.68-7.69q.45-5.09.91-10.17c.05-.49-.07-.68-.6-.68-3,0-6,0-9,.05Z"/><path class="ac9cc841-6582-48f8-a82c-70291024ccb4" d="M248.31,383.79l-.19.08c-2.35-.66-4.7-1.35-7.07-2a1,1,0,0,1-.87-1c-.1-1.56-.25-3.12-.41-4.68-.05-.49.06-.7.6-.68.92,0,1.84,0,2.75,0,.37,0,.55.1.55.5a8.23,8.23,0,0,0,.11,1c.2,1.65.2,1.65,1.85,2.1l2.48.65.19.06Z"/><path class="e235c7ec-e7d5-4ae0-8beb-ec4590648737" d="M247.94,361.92l.35.07c0,1.26,0,2.52,0,3.78l-.17.1c-2.81,0-5.61,0-8.42,0-.61,0-.92-.1-.92-.79a17.29,17.29,0,0,0-.24-2.38c-.09-.6.12-.75.7-.75C242.15,362,245.05,361.93,247.94,361.92Z"/><path class="bf9e1ed8-e5f1-4744-80b8-b52fbe0c146a" d="M248.3,379.82l-.19-.06V373.7s0-.08,0-.12a33.94,33.94,0,0,0,4.16.08c.49,0,.7.12.65.65-.14,1.32-.26,2.64-.36,4,0,.42-.32.44-.6.52Z"/><path class="bf9e1ed8-e5f1-4744-80b8-b52fbe0c146a" d="M248.13,365.87l.17-.1c1.54,0,3.08.07,4.62.05.6,0,.78.19.7.77-.1.82-.17,1.65-.22,2.47,0,.54-.25.75-.83.74-1.48,0-3,0-4.44,0l-.19-.08c.39-.89.1-1.83.18-2.75C248.15,366.63,248.13,366.25,248.13,365.87Z"/><path class="e235c7ec-e7d5-4ae0-8beb-ec4590648737" d="M247.94,369.75l.19.08a9.11,9.11,0,0,1,0,3.75s0,.08,0,.12l-3.54,0c-.34,0-.66,0-.69-.47-.06-1-.13-1.94-.23-2.9-.05-.49.2-.53.58-.53C245.47,369.78,246.7,369.76,247.94,369.75Z"/><path class="b8e507d5-a867-463c-add7-6b087d06adae" d="M248.12,373.58a9.11,9.11,0,0,0,0-3.75c1.48,0,3-.06,4.44,0,.58,0,.79-.2.83-.74,0-.82.12-1.65.22-2.47.08-.58-.1-.77-.7-.77-1.54,0-3.08,0-4.62-.05,0-1.26,0-2.52,0-3.78,3,0,6,0,9-.05.53,0,.65.19.6.68q-.47,5.08-.91,10.17c-.23,2.56-.49,5.12-.68,7.69-.06.84-.29,1.29-1.2,1.5-2.28.53-4.52,1.2-6.77,1.81,0-1.32,0-2.65,0-4l3.67-1c.28-.08.57-.1.6-.52.1-1.33.22-2.65.36-4,0-.53-.16-.64-.65-.65A33.94,33.94,0,0,1,248.12,373.58Z"/><path class="e6adb279-d10c-41f4-a6b2-7989ccfda4c1" d="M274.6,399H221.79c-3.37-1.22-4.42-3.72-4.41-7.16q.12-28,0-56c0-3.45,1-6,4.41-7.17H257.1c4.63.83,8.11,3.48,11.18,6.87,1.92,2.12,4,4.07,6.05,6.08A15.17,15.17,0,0,1,279,352.88c0,13-.06,26,0,39C279,395.31,278,397.81,274.6,399ZM257,333.26c-.61-.06-1-.14-1.42-.14-10.67,0-21.35,0-32,0-1.38,0-1.83.59-1.81,1.89,0,3.65,0,7.29,0,10.93q0,23.28,0,46.54c0,1.29.12,2.22,1.8,2.22q24.6,0,49.2,0c1.24,0,1.82-.44,1.82-1.73q0-20.46,0-40.91c0-1.09-.37-1.42-1.45-1.41-4.79.05-9.58,0-14.37,0H257Zm15,13c-3.52-3.57-7.07-7.15-10.57-10.69v10.69Z"/><text class="a2cd9f05-fae3-4f66-b751-ffaf8f93218a" transform="translate(131.98 246.31)">backen<tspan class="a1b7cb71-3ef2-42e2-b9bf-c5757561436d" x="54.43" y="0">d</tspan><tspan x="64.4" y="0">.php</tspan></text><path class="ee464ce7-6969-49b1-b232-3cc45531b819" d="M160.15,190.71h5.3c.13.18.32.11.49.13a33.08,33.08,0,0,1,8.46,1.74,19.82,19.82,0,0,1,5.27,2.72,9.54,9.54,0,0,1,3.68,5.09v2.12c-.17.07-.18.25-.22.38a7.23,7.23,0,0,1-1.64,2.92,15.92,15.92,0,0,1-6.77,4.25,36.21,36.21,0,0,1-19.38,1.25,22.88,22.88,0,0,1-9.47-3.89,9.54,9.54,0,0,1-3.18-3.83c-.15-.36-.13-.79-.43-1.08v-2.26s.11-.08.12-.14A9.52,9.52,0,0,1,147,194.6a27,27,0,0,1,10.33-3.5A21.14,21.14,0,0,0,160.15,190.71ZM172,196.33c-.75,0-1.5,0-2.25,0-.47,0-.68.12-.74.6s-.21,1.12-.32,1.68c-.57,2.86-1.12,5.72-1.7,8.57-.09.45,0,.54.43.53a15.32,15.32,0,0,1,1.66,0c.35,0,.51-.1.56-.45.1-.63.25-1.26.35-1.89.06-.42.2-.66.71-.61s1.32,0,2,0a4.93,4.93,0,0,0,4.93-4.07c.53-2.75-.75-4.31-3.55-4.36C173.37,196.32,172.69,196.33,172,196.33Zm-18.86,0v0c-.78,0-1.55,0-2.32,0-.4,0-.57.12-.65.54q-1,5.16-2,10.31c-.09.44,0,.55.45.53s1.1,0,1.65,0c.34,0,.51-.08.56-.46.09-.67.26-1.34.38-2,.05-.34.18-.49.55-.48.67,0,1.33,0,2,0a4.94,4.94,0,0,0,5.09-4.27c.42-2.43-.69-3.92-3.14-4.12C154.82,196.3,154,196.36,153.14,196.36Zm12.45,8.4a7.19,7.19,0,0,1,.94,0c.43.06.57-.16.63-.54.27-1.65.48-3.32.85-4.95s-.59-2.64-2.17-2.88a17.08,17.08,0,0,0-2.58-.07c-.39,0-.58-.09-.46-.53s.14-.77.22-1.16c.26-1.27.26-1.27-1-1.27-.31,0-.62,0-.93,0s-.52.1-.59.49c-.3,1.61-.63,3.2-.95,4.8-.37,1.84-.72,3.68-1.11,5.51-.1.48,0,.63.51.6a11.16,11.16,0,0,1,1.53,0c.4,0,.56-.11.64-.53.32-1.76.7-3.51,1-5.26.08-.43.25-.6.69-.57s1,0,1.46,0c.9,0,1.1.26.93,1.14l-.72,3.83c-.08.43-.35,1-.16,1.26S165.21,204.71,165.59,204.76Z"/><path class="bb189f51-aa66-4048-9eb5-be5ff51d484c" d="M172,196.33c.69,0,1.37,0,2.06,0,2.8,0,4.08,1.61,3.55,4.36a4.93,4.93,0,0,1-4.93,4.07c-.66,0-1.33,0-2,0s-.65.19-.71.61c-.1.63-.25,1.26-.35,1.89,0,.35-.21.47-.56.45a15.32,15.32,0,0,0-1.66,0c-.41,0-.52-.08-.43-.53.58-2.85,1.13-5.71,1.7-8.57.11-.56.25-1.12.32-1.68s.27-.62.74-.6C170.5,196.35,171.25,196.33,172,196.33Zm.62,2.09c-.29,0-.58,0-.86,0s-.39.05-.43.3c-.19,1.19-.39,2.38-.58,3.57,0,.21,0,.35.25.35a5.87,5.87,0,0,0,2.53-.28,2.91,2.91,0,0,0,1.34-2.93c-.14-.7-.77-1-2.06-1Z"/><path class="bb189f51-aa66-4048-9eb5-be5ff51d484c" d="M153.14,196.36c.84,0,1.68-.06,2.51,0,2.45.2,3.56,1.69,3.14,4.12a4.94,4.94,0,0,1-5.09,4.27c-.66,0-1.32,0-2,0-.37,0-.5.14-.55.48-.12.67-.29,1.34-.38,2-.05.38-.22.47-.56.46-.55,0-1.1,0-1.65,0s-.54-.09-.45-.53q1-5.14,2-10.31c.08-.42.25-.55.65-.54.77,0,1.54,0,2.32,0Zm.61,2.06a3.68,3.68,0,0,1-.47,0c-.54-.08-.85.08-.89.7s-.23,1.18-.27,1.77-.54,1.36-.08,1.67,1.25.12,1.87,0a2.6,2.6,0,0,0,2.13-3C156,198.75,155.35,198.42,153.75,198.42Z"/><path class="bb189f51-aa66-4048-9eb5-be5ff51d484c" d="M165.59,204.76c-.38,0-1,.21-1.24-.11s.08-.83.16-1.26l.72-3.83c.17-.88,0-1.12-.93-1.14-.49,0-1,0-1.46,0s-.61.14-.69.57c-.33,1.75-.71,3.5-1,5.26-.08.42-.24.55-.64.53a11.16,11.16,0,0,0-1.53,0c-.48,0-.61-.12-.51-.6.39-1.83.74-3.67,1.11-5.51.32-1.6.65-3.19.95-4.8.07-.39.21-.53.59-.49s.62,0,.93,0c1.26,0,1.26,0,1,1.27-.08.39-.13.78-.22,1.16s.07.53.46.53a17.08,17.08,0,0,1,2.58.07c1.58.24,2.55,1.2,2.17,2.88s-.58,3.3-.85,4.95c-.06.38-.2.6-.63.54A7.19,7.19,0,0,0,165.59,204.76Z"/><path class="ee464ce7-6969-49b1-b232-3cc45531b819" d="M172.62,198.42h.19c1.29,0,1.92.31,2.06,1a2.91,2.91,0,0,1-1.34,2.93,5.87,5.87,0,0,1-2.53.28c-.25,0-.29-.14-.25-.35.19-1.19.39-2.38.58-3.57,0-.25.2-.31.43-.3S172.33,198.42,172.62,198.42Z"/><path class="ee464ce7-6969-49b1-b232-3cc45531b819" d="M153.75,198.42c1.6,0,2.22.33,2.29,1.2a2.6,2.6,0,0,1-2.13,3c-.62.09-1.43.26-1.87,0s0-1.1.08-1.67.24-1.18.27-1.77.35-.78.89-.7A3.68,3.68,0,0,0,153.75,198.42Z"/><path class="ee464ce7-6969-49b1-b232-3cc45531b819" d="M189.21,230.62H136.39C133,229.4,132,226.9,132,223.45q.12-28,0-56c0-3.44,1-5.94,4.41-7.16h35.32c4.62.83,8.1,3.48,11.17,6.87,1.92,2.12,4,4.07,6.05,6.08a15.12,15.12,0,0,1,4.65,11.18c0,13-.06,26,0,39C193.64,226.9,192.58,229.4,189.21,230.62Zm-17.57-65.77c-.61-.06-1-.14-1.42-.14q-16,0-32,0c-1.37,0-1.83.59-1.81,1.89,0,3.64,0,7.29,0,10.93q0,23.27,0,46.54c0,1.29.13,2.22,1.8,2.21q24.6,0,49.21,0c1.23,0,1.81-.45,1.81-1.73q0-20.46,0-40.92c0-1.09-.37-1.41-1.45-1.4-4.79,0-9.58,0-14.37,0h-1.75Zm15,13-10.57-10.68v10.68Z"/></svg>