<svg id="a28f32df-4b7a-4dc7-afbc-665768fe8822" data-name="Capa 1" xmlns="http://www.w3.org/2000/svg" viewBox="0 0 370 680"><defs><style>.b8c4fef9-fe20-45e5-a4d4-9d425883c71c{font-size:20.07px;font-family:MyriadPro-Semibold, Myriad Pro;font-weight:600;}.a8bf8196-5095-494a-8aa7-47a893c1fd9d{letter-spacing:0em;}.f72f2ca8-9bef-4a99-b719-b29064da5cd1{letter-spacing:0.01em;}.b6db1ec1-ec98-4b4f-a6c7-5b4a9e893561{letter-spacing:0em;}.b754a0fd-a5c6-4d07-86cc-4afd5bd5bebf{letter-spacing:-0.01em;}.ba59854d-e9dc-48b2-9736-52b3b158dbc0{fill:none;stroke-width:5px;}.a49ac156-1404-4364-88d2-09c34a163d0a,.ba59854d-e9dc-48b2-9736-52b3b158dbc0{stroke:#000;stroke-linecap:round;stroke-linejoin:round;}.a49ac156-1404-4364-88d2-09c34a163d0a{stroke-width:4px;}.f6cf5cbb-e5b2-4486-8f4b-a6f3234cb01b{font-size:18px;font-family:MyriadPro-Regular, Myriad Pro;}.b6c90235-abfa-41a2-90dc-b0998bf5ab6a{letter-spacing:0em;}.bc55898d-b828-4d54-8f30-c4b5d76e77eb{letter-spacing:-0.01em;}.b8ffad61-7740-4944-bc92-5c189f07bdf7{font-size:24px;fill:#fff;font-family:MyriadPro-Bold, Myriad Pro;font-weight:700;}.e9dcbcfa-12f3-4a09-bbfd-4f3d421575b9{fill:#e34f27;}.ac0a8cef-a544-480c-b88f-807d9e342d24{fill:#f0662a;}.b9ed6676-1a5c-40bb-a653-5e06dbfaf881{fill:#ebe8e7;}.e0ca43c0-34a3-4937-9071-2fcf6de46f26{fill:#ef590c;}.e04cd1ab-cfcd-4559-b628-f64380ff0dce{fill:#fefdfc;}.a491d67c-381d-499d-b8d8-7b8e3a757be2{fill:#fefdfd;}.e4218914-ef3f-4d7c-9c00-f050b3fdf321{fill:#1572b6;}.a13f3455-49ab-4ac3-bec0-0bd1257d3eca{fill:#34a8db;}.b1171241-3bc4-425c-b1d9-ed0ac6f5a91e{fill:#e7e8e9;}.a7c4eec8-91fd-406a-8e07-56a239a7df1a{fill:#e4e7e9;}.a77c54d9-bc42-477a-ac8e-4e26c5ecca0a{fill:#fdfdfe;}.aca078f9-b4e3-4aa1-aa04-fb15936d2ce2{letter-spacing:0em;}.ea2bfcb1-1d43-4248-89f6-f37fe35751d4{letter-spacing:-0.01em;}.f126c7cd-04df-46cd-9179-3abf8b1bd983{letter-spacing:-0.03em;}.e325e70c-90df-4990-94ac-d930fa6bf822{letter-spacing:0em;}.b440be1b-b112-4eb9-8767-eb246c3165d1{letter-spacing:-0.01em;}.b88a2e0d-b532-47be-bc21-5a69c89dda2b{fill:#8692c1;}.a2ec3079-f15b-425e-8d76-7879b4e5ab6f{fill:#232633;}.ec122f4f-9db8-4ae6-a977-e1a857b885be{fill:#efa001;}.bd503301-e3ac-466f-b635-cb4ae7d5ddb5{fill:#f9bd01;}.be8e04ec-8224-41fc-9e79-41b35bc78f23{fill:#ebebea;}.f290b15d-6f0d-4e4e-b437-8721d6bbd156{fill:#fefefd;}.a7431fa4-dda8-41dc-972e-bfb375da389d{letter-spacing:-0.01em;}</style></defs><title>_</title><text class="b8c4fef9-fe20-45e5-a4d4-9d425883c71c" transform="translate(13.48 24.54)"><tspan class="a8bf8196-5095-494a-8aa7-47a893c1fd9d">E</tspan><tspan x="10.4" y="0">stru</tspan><tspan class="f72f2ca8-9bef-4a99-b719-b29064da5cd1" x="44.38" y="0">c</tspan><tspan class="b6db1ec1-ec98-4b4f-a6c7-5b4a9e893561" x="53.69" y="0">tu</tspan><tspan class="b754a0fd-a5c6-4d07-86cc-4afd5bd5bebf" x="72.15" y="0">r</tspan><tspan x="79.12" y="0">a</tspan></text><line class="ba59854d-e9dc-48b2-9736-52b3b158dbc0" x1="41.5" y1="76.5" x2="41.5" y2="527"/><polygon class="a49ac156-1404-4364-88d2-09c34a163d0a" points="116.5 286.79 78.19 286.79 74.29 280 60.5 280 60.5 323 116.5 323 116.5 286.79"/><line class="ba59854d-e9dc-48b2-9736-52b3b158dbc0" x1="58" y1="193.5" x2="41.5" y2="193.5"/><line class="ba59854d-e9dc-48b2-9736-52b3b158dbc0" x1="58" y1="78.5" x2="41.5" y2="78.5"/><line class="ba59854d-e9dc-48b2-9736-52b3b158dbc0" x1="58" y1="303.5" x2="41.5" y2="303.5"/><line class="ba59854d-e9dc-48b2-9736-52b3b158dbc0" x1="58" y1="418.5" x2="41.5" y2="418.5"/><line class="ba59854d-e9dc-48b2-9736-52b3b158dbc0" x1="141" y1="304" x2="115.5" y2="304"/><text class="f6cf5cbb-e5b2-4486-8f4b-a6f3234cb01b" transform="translate(55.98 127.99)">ind<tspan class="b6c90235-abfa-41a2-90dc-b0998bf5ab6a" x="24.35" y="0">e</tspan><tspan x="33.32" y="0">x.php</tspan></text><text class="f6cf5cbb-e5b2-4486-8f4b-a6f3234cb01b" transform="translate(141.38 363.27)">bas<tspan class="bc55898d-b828-4d54-8f30-c4b5d76e77eb" x="26.05" y="0">e</tspan><tspan x="34.85" y="0">.css</tspan></text><text class="b8ffad61-7740-4944-bc92-5c189f07bdf7" transform="translate(71.37 311.27)">css</text><path class="e9dcbcfa-12f3-4a09-bbfd-4f3d421575b9" d="M86.73,65.54h14.41c1.09,0,1.13.06,1,1.09l-1.59,17.8c-.36,4-.73,8-1.07,12,0,.5-.24.69-.72.82Q93,98.86,87.26,100.49a1.59,1.59,0,0,1-.94,0c-3.85-1.08-7.69-2.16-11.55-3.2a.78.78,0,0,1-.68-.84Q73.28,87,72.44,77.58c-.32-3.64-.66-7.27-1-10.9-.11-1.14-.12-1.14,1-1.14Zm0,18.36,0,5.92c-.94-.11-1.81-.53-2.74-.69s-1.79-.49-1.58-1.77a9.12,9.12,0,0,0-.11-1.15c0-.43-.18-.56-.59-.55-.89,0-1.78,0-2.67,0-.57,0-.71.16-.66.7.16,1.54.3,3.07.41,4.61,0,.6.29.84.88,1,2.37.62,4.72,1.32,7.09,2,0,1,0,2,0,2.94s.25,1.05,1.09.81l2.81-.79c1.79-.49,3.6-.94,5.38-1.48.37-.11,1-.11,1-.68.15-1.2.27-2.4.37-3.61.14-1.61.24-3.23.38-4.85.22-2.52.46-5,.69-7.57.14-1.56.26-3.11.41-4.67s.31-3.34.48-5c.07-.61-.14-.83-.78-.83q-5.47,0-11,0c-.67,0-.91.29-.91.9,0,.89,0,1.78,0,2.67-2.91,0-5.82,0-8.72,0-.3,0-.67-.15-.89.21l1,11.71c.26.3.61.18.92.18Z"/><path class="ac0a8cef-a544-480c-b88f-807d9e342d24" d="M86.73,71.77c0-.89,0-1.78,0-2.67,0-.61.24-.9.91-.9q5.48,0,11,0c.64,0,.85.22.78.83q-.26,2.5-.48,5c-.15,1.56-.27,3.11-.41,4.67-.23,2.53-.47,5.05-.69,7.57-.14,1.62-.24,3.24-.38,4.85-.1,1.21-.22,2.41-.37,3.61-.07.57-.66.57-1,.68-1.78.54-3.59,1-5.38,1.48l-2.81.79c-.84.24-1.08.07-1.09-.81s0-2,0-2.94l0-.08a2.13,2.13,0,0,0,.44,0c2.36-.64,4.72-1.31,7.09-1.94.45-.12.51-.39.54-.77.28-3.19.59-6.36.83-9.55,0-.59.4-1.19,0-1.79-.27-.28-.61-.17-.92-.17h-8v-3.7l0-.07,8.9,0c.43,0,.56-.14.58-.55,0-.86.12-1.72.19-2.57l.06-.26c0-.2.12-.4-.11-.55s-.61-.17-.92-.17Z"/><path class="b9ed6676-1a5c-40bb-a653-5e06dbfaf881" d="M78.17,83.71,77.12,72l9.61,0,0,3.82,0,.07c-1.59,0-3.19,0-4.78,0-.45,0-.64.1-.57.59.14,1.05.23,2.11.35,3.16.18.37.51.19.77.19,1.41,0,2.82,0,4.22,0v3.83Z"/><path class="b9ed6676-1a5c-40bb-a653-5e06dbfaf881" d="M86.73,93.94c-2.37-.66-4.72-1.36-7.09-2-.59-.15-.84-.39-.88-1-.11-1.54-.25-3.07-.41-4.61,0-.54.09-.73.66-.7.89,0,1.78,0,2.67,0,.41,0,.59.12.59.55a9.12,9.12,0,0,1,.11,1.15c-.21,1.28.55,1.6,1.58,1.77s1.8.58,2.74.69a.5.5,0,0,1,0,.12c0,1.31,0,2.61,0,3.92Z"/><path class="ac0a8cef-a544-480c-b88f-807d9e342d24" d="M86.72,89.94a.5.5,0,0,0,0-.12l0-5.92H91.5c-.11,1.47-.24,2.93-.34,4.4,0,.42-.29.51-.62.6Z"/><path class="e0ca43c0-34a3-4937-9071-2fcf6de46f26" d="M86.73,72l-9.61,0c.22-.36.59-.21.89-.21,2.9,0,5.81,0,8.72,0h8.68c.31,0,.66-.11.92.17Z"/><path class="e0ca43c0-34a3-4937-9071-2fcf6de46f26" d="M91.5,83.89H79.09c-.31,0-.66.12-.92-.18l8.55,0c1.28,0,2.55,0,3.82,0C90.86,83.73,91.24,83.54,91.5,83.89Z"/><path class="e04cd1ab-cfcd-4559-b628-f64380ff0dce" d="M91.5,83.89c-.26-.35-.64-.16-1-.17-1.27,0-2.54,0-3.82,0V79.86l8.9-.07c.39.6,0,1.2,0,1.79-.24,3.19-.55,6.36-.83,9.55,0,.38-.09.65-.54.77-2.37.63-4.73,1.3-7.09,1.94a2.13,2.13,0,0,1-.44,0c0-1.31,0-2.61,0-3.92l3.82-1c.33-.09.59-.18.62-.6C91.26,86.82,91.39,85.36,91.5,83.89Z"/><path class="a491d67c-381d-499d-b8d8-7b8e3a757be2" d="M86.73,72l9.6-.07c.23.15.16.35.11.55l-.06.26c-.07.85-.15,1.71-.19,2.57,0,.41-.15.56-.58.55l-8.9,0C86.72,74.57,86.72,73.29,86.73,72Z"/><path class="e9dcbcfa-12f3-4a09-bbfd-4f3d421575b9" d="M81.73,79.62c-.12-1.05-.21-2.11-.35-3.16-.07-.49.12-.6.57-.59,1.59,0,3.19,0,4.78,0v3.7Z"/><path class="e0ca43c0-34a3-4937-9071-2fcf6de46f26" d="M81.73,79.62h13c.31,0,.65-.11.92.17l-8.9.07c-1.4,0-2.81,0-4.22,0C82.24,79.81,81.91,80,81.73,79.62Z"/><path class="b9ed6676-1a5c-40bb-a653-5e06dbfaf881" d="M96.38,72.76l.06-.26Z"/><path class="e9dcbcfa-12f3-4a09-bbfd-4f3d421575b9" d="M113.21,110.29H60.39C57,109.07,56,106.57,56,103.13q.12-28,0-56c0-3.45,1-6,4.41-7.17H95.71c4.62.83,8.1,3.48,11.17,6.87,1.92,2.12,4,4.07,6.05,6.08a15.13,15.13,0,0,1,4.65,11.19c0,13-.06,26,0,39C117.64,106.57,116.58,109.07,113.21,110.29ZM95.64,44.52c-.61-.06-1-.14-1.42-.14-10.67,0-21.35,0-32,0-1.37,0-1.83.59-1.81,1.89,0,3.65,0,7.29,0,10.93q0,23.26,0,46.54c0,1.29.13,2.22,1.8,2.22q24.6-.06,49.21,0c1.23,0,1.81-.44,1.81-1.73q0-20.46,0-40.91c0-1.09-.37-1.42-1.45-1.41-4.79,0-9.58,0-14.37,0H95.64Zm15,13c-3.52-3.57-7.07-7.15-10.57-10.69V57.52Z"/><path class="e4218914-ef3f-4d7c-9c00-f050b3fdf321" d="M172.21,297.75c4.86,0,9.72,0,14.58,0,.76,0,.86.24.8.9-.79,8.68-1.55,17.35-2.33,26-.12,1.32-.26,2.65-.35,4a.8.8,0,0,1-.7.84q-5.82,1.57-11.63,3.22a1.53,1.53,0,0,1-.85,0c-3.82-1.07-7.63-2.14-11.46-3.17a.91.91,0,0,1-.79-.95q-1-11.91-2.12-23.82c-.19-2.06-.35-4.13-.56-6.19-.06-.6.07-.81.73-.8C162.42,297.77,167.31,297.75,172.21,297.75Zm-.27,14c-1.24,0-2.47,0-3.71,0-.38,0-.63,0-.58.53.1,1,.17,1.93.23,2.9,0,.47.35.47.69.47l3.54,0v6.06l-2.48-.65c-1.65-.45-1.65-.45-1.85-2.1a8.23,8.23,0,0,1-.11-1c0-.4-.18-.51-.55-.5-.91,0-1.83,0-2.75,0-.54,0-.65.19-.6.68.16,1.56.31,3.12.41,4.68a1,1,0,0,0,.87,1c2.37.63,4.72,1.32,7.07,2v3.2c0,1.12,0,1.11,1,.81,2.59-.72,5.17-1.45,7.76-2.16,1.65-.46,1.62-.44,1.7-2.14s.23-3.47.39-5.2c.21-2.38.45-4.75.67-7.12.14-1.56.26-3.12.4-4.67.21-2.44.44-4.87.67-7.3.06-.63-.09-.9-.8-.89q-5.52,0-11,0c-.62,0-.81.18-.83.81a6.7,6.7,0,0,1-.16,2.71c-2.89,0-5.79,0-8.69,0-.58,0-.79.15-.7.75a17.29,17.29,0,0,1,.24,2.38c0,.69.31.79.92.79,2.81,0,5.61,0,8.42,0,0,.38,0,.76,0,1.13C172,309.92,172.33,310.86,171.94,311.75Z"/><path class="a13f3455-49ab-4ac3-bec0-0bd1257d3eca" d="M171.94,303.92a6.7,6.7,0,0,0,.16-2.71c0-.63.21-.81.83-.81q5.5,0,11,0c.71,0,.86.26.8.89-.23,2.43-.46,4.86-.67,7.3-.14,1.55-.26,3.11-.4,4.67-.22,2.37-.46,4.74-.67,7.12-.16,1.73-.31,3.47-.39,5.2s-.05,1.68-1.7,2.14c-2.59.71-5.17,1.44-7.76,2.16-1,.3-1,.31-1-.81v-3.2l.19-.08c2.25-.61,4.49-1.28,6.77-1.81.91-.21,1.14-.66,1.2-1.5.19-2.57.45-5.13.68-7.69q.45-5.09.91-10.17c0-.49-.07-.68-.6-.68-3,0-6,0-9,.05Z"/><path class="b1171241-3bc4-425c-b1d9-ed0ac6f5a91e" d="M172.31,325.79l-.19.08c-2.35-.66-4.7-1.35-7.07-2a1,1,0,0,1-.87-1c-.1-1.56-.25-3.12-.41-4.68-.05-.49.06-.7.6-.68.92,0,1.84,0,2.75,0,.37,0,.55.1.55.5a8.23,8.23,0,0,0,.11,1c.2,1.65.2,1.65,1.85,2.1l2.48.65.19.06Z"/><path class="a7c4eec8-91fd-406a-8e07-56a239a7df1a" d="M171.94,303.92l.35.07c0,1.26,0,2.52,0,3.78l-.17.1c-2.81,0-5.61,0-8.42,0-.61,0-.92-.1-.92-.79a17.29,17.29,0,0,0-.24-2.38c-.09-.6.12-.75.7-.75C166.15,304,169.05,303.93,171.94,303.92Z"/><path class="a13f3455-49ab-4ac3-bec0-0bd1257d3eca" d="M172.3,321.82l-.19-.06V315.7s0-.08,0-.12a33.94,33.94,0,0,0,4.16.08c.49,0,.7.12.65.65-.14,1.32-.26,2.64-.36,4,0,.42-.32.44-.6.52Z"/><path class="a13f3455-49ab-4ac3-bec0-0bd1257d3eca" d="M172.13,307.87l.17-.1c1.54,0,3.08.07,4.62.05.6,0,.78.19.7.77-.1.82-.17,1.65-.22,2.47,0,.54-.25.75-.83.74-1.48,0-3,0-4.44,0l-.19-.08c.39-.89.1-1.83.18-2.75C172.15,308.63,172.13,308.25,172.13,307.87Z"/><path class="a7c4eec8-91fd-406a-8e07-56a239a7df1a" d="M171.94,311.75l.19.08a9.11,9.11,0,0,1,0,3.75s0,.08,0,.12l-3.54,0c-.34,0-.66,0-.69-.47-.06-1-.13-1.94-.23-2.9-.05-.49.2-.53.58-.53C169.47,311.78,170.7,311.76,171.94,311.75Z"/><path class="a77c54d9-bc42-477a-ac8e-4e26c5ecca0a" d="M172.12,315.58a9.11,9.11,0,0,0,0-3.75c1.48,0,3-.06,4.44,0,.58,0,.79-.2.83-.74,0-.82.12-1.65.22-2.47.08-.58-.1-.77-.7-.77-1.54,0-3.08,0-4.62-.05,0-1.26,0-2.52,0-3.78,3,0,6,0,9-.05.53,0,.65.19.6.68q-.47,5.08-.91,10.17c-.23,2.56-.49,5.12-.68,7.69-.06.84-.29,1.29-1.2,1.5-2.28.53-4.52,1.2-6.77,1.81,0-1.32,0-2.65,0-4l3.67-1c.28-.08.57-.1.6-.52.1-1.33.22-2.65.36-4,0-.53-.16-.64-.65-.65A33.94,33.94,0,0,1,172.12,315.58Z"/><path class="e4218914-ef3f-4d7c-9c00-f050b3fdf321" d="M198.6,341H145.79c-3.37-1.22-4.42-3.72-4.41-7.16q.12-28,0-56c0-3.45,1-6,4.41-7.17H181.1c4.63.83,8.11,3.48,11.18,6.87,1.92,2.12,4,4.07,6.05,6.08A15.17,15.17,0,0,1,203,294.88c0,13-.06,26,0,39C203,337.31,202,339.81,198.6,341ZM181,275.26c-.61-.06-1-.14-1.42-.14-10.67,0-21.35,0-32,0-1.38,0-1.83.59-1.81,1.89,0,3.65,0,7.29,0,10.93q0,23.28,0,46.54c0,1.29.12,2.22,1.8,2.22q24.6,0,49.2,0c1.24,0,1.82-.44,1.82-1.73q0-20.46,0-40.91c0-1.09-.37-1.42-1.45-1.41-4.79.05-9.58,0-14.37,0H181Zm15,13c-3.52-3.57-7.07-7.15-10.57-10.69v10.69Z"/><polygon class="a49ac156-1404-4364-88d2-09c34a163d0a" points="116.5 401.79 78.19 401.79 74.29 395 60.5 395 60.5 438 116.5 438 116.5 401.79"/><line class="ba59854d-e9dc-48b2-9736-52b3b158dbc0" x1="141" y1="419" x2="115.5" y2="419"/><text class="f6cf5cbb-e5b2-4486-8f4b-a6f3234cb01b" transform="translate(142.01 478.27)"><tspan class="aca078f9-b4e3-4aa1-aa04-fb15936d2ce2">v</tspan><tspan x="8.59" y="0">alid</tspan><tspan class="aca078f9-b4e3-4aa1-aa04-fb15936d2ce2" x="35.87" y="0">a</tspan><tspan class="ea2bfcb1-1d43-4248-89f6-f37fe35751d4" x="44.48" y="0">t</tspan><tspan x="50.33" y="0">e</tspan><tspan class="f126c7cd-04df-46cd-9179-3abf8b1bd983" x="59.35" y="0">F</tspan><tspan x="67.55" y="0">o</tspan><tspan class="e325e70c-90df-4990-94ac-d930fa6bf822" x="77.44" y="0">r</tspan><tspan x="83.39" y="0">m.js</tspan></text><text class="b8ffad61-7740-4944-bc92-5c189f07bdf7" transform="translate(78.5 426.27)">js</text><text class="f6cf5cbb-e5b2-4486-8f4b-a6f3234cb01b" transform="translate(55.98 246.31)">backen<tspan class="b440be1b-b112-4eb9-8767-eb246c3165d1" x="54.43" y="0">d</tspan><tspan x="64.4" y="0">.php</tspan></text><path class="b88a2e0d-b532-47be-bc21-5a69c89dda2b" d="M84.15,190.71h5.3c.13.18.32.11.49.13a33.08,33.08,0,0,1,8.46,1.74,19.82,19.82,0,0,1,5.27,2.72,9.54,9.54,0,0,1,3.68,5.09v2.12c-.17.07-.18.25-.22.38a7.23,7.23,0,0,1-1.64,2.92,15.92,15.92,0,0,1-6.77,4.25,36.21,36.21,0,0,1-19.38,1.25,22.88,22.88,0,0,1-9.47-3.89,9.54,9.54,0,0,1-3.18-3.83c-.15-.36-.13-.79-.43-1.08v-2.26s.11-.08.12-.14A9.52,9.52,0,0,1,71,194.6a27,27,0,0,1,10.33-3.5A21.14,21.14,0,0,0,84.15,190.71ZM96,196.33c-.75,0-1.5,0-2.25,0-.47,0-.68.12-.74.6s-.21,1.12-.32,1.68c-.57,2.86-1.12,5.72-1.7,8.57-.09.45,0,.54.43.53a15.32,15.32,0,0,1,1.66,0c.35,0,.51-.1.56-.45.1-.63.25-1.26.35-1.89.06-.42.2-.66.71-.61s1.32,0,2,0a4.93,4.93,0,0,0,4.93-4.07c.53-2.75-.75-4.31-3.55-4.36C97.37,196.32,96.69,196.33,96,196.33Zm-18.86,0v0c-.78,0-1.55,0-2.32,0-.4,0-.57.12-.65.54q-1,5.16-2,10.31c-.09.44,0,.55.45.53s1.1,0,1.65,0c.34,0,.51-.08.56-.46.09-.67.26-1.34.38-2,0-.34.18-.49.55-.48.67,0,1.33,0,2,0a4.94,4.94,0,0,0,5.09-4.27c.42-2.43-.69-3.92-3.14-4.12C78.82,196.3,78,196.36,77.14,196.36Zm12.45,8.4a7.19,7.19,0,0,1,.94,0c.43.06.57-.16.63-.54.27-1.65.48-3.32.85-4.95s-.59-2.64-2.17-2.88a17.08,17.08,0,0,0-2.58-.07c-.39,0-.58-.09-.46-.53s.14-.77.22-1.16c.26-1.27.26-1.27-1-1.27-.31,0-.62,0-.93,0s-.52.1-.59.49c-.3,1.61-.63,3.2-1,4.8-.37,1.84-.72,3.68-1.11,5.51-.1.48,0,.63.51.6a11.16,11.16,0,0,1,1.53,0c.4,0,.56-.11.64-.53.32-1.76.7-3.51,1-5.26.08-.43.25-.6.69-.57s1,0,1.46,0c.9,0,1.1.26.93,1.14l-.72,3.83c-.08.43-.35,1-.16,1.26S89.21,204.71,89.59,204.76Z"/><path class="a2ec3079-f15b-425e-8d76-7879b4e5ab6f" d="M96,196.33c.69,0,1.37,0,2.06,0,2.8,0,4.08,1.61,3.55,4.36a4.93,4.93,0,0,1-4.93,4.07c-.66,0-1.33,0-2,0s-.65.19-.71.61c-.1.63-.25,1.26-.35,1.89,0,.35-.21.47-.56.45a15.32,15.32,0,0,0-1.66,0c-.41,0-.52-.08-.43-.53.58-2.85,1.13-5.71,1.7-8.57.11-.56.25-1.12.32-1.68s.27-.62.74-.6C94.5,196.35,95.25,196.33,96,196.33Zm.62,2.09c-.29,0-.58,0-.86,0s-.39.05-.43.3c-.19,1.19-.39,2.38-.58,3.57,0,.21,0,.35.25.35a5.87,5.87,0,0,0,2.53-.28,2.91,2.91,0,0,0,1.34-2.93c-.14-.7-.77-1-2.06-1Z"/><path class="a2ec3079-f15b-425e-8d76-7879b4e5ab6f" d="M77.14,196.36c.84,0,1.68-.06,2.51,0,2.45.2,3.56,1.69,3.14,4.12a4.94,4.94,0,0,1-5.09,4.27c-.66,0-1.32,0-2,0-.37,0-.5.14-.55.48-.12.67-.29,1.34-.38,2,0,.38-.22.47-.56.46-.55,0-1.1,0-1.65,0s-.54-.09-.45-.53q1-5.14,2-10.31c.08-.42.25-.55.65-.54.77,0,1.54,0,2.32,0Zm.61,2.06a3.68,3.68,0,0,1-.47,0c-.54-.08-.85.08-.89.7s-.23,1.18-.27,1.77-.54,1.36-.08,1.67,1.25.12,1.87,0a2.6,2.6,0,0,0,2.13-3C80,198.75,79.35,198.42,77.75,198.42Z"/><path class="a2ec3079-f15b-425e-8d76-7879b4e5ab6f" d="M89.59,204.76c-.38,0-1,.21-1.24-.11s.08-.83.16-1.26l.72-3.83c.17-.88,0-1.12-.93-1.14-.49,0-1,0-1.46,0s-.61.14-.69.57c-.33,1.75-.71,3.5-1,5.26-.08.42-.24.55-.64.53a11.16,11.16,0,0,0-1.53,0c-.48,0-.61-.12-.51-.6.39-1.83.74-3.67,1.11-5.51.32-1.6.65-3.19,1-4.8.07-.39.21-.53.59-.49s.62,0,.93,0c1.26,0,1.26,0,1,1.27-.08.39-.13.78-.22,1.16s.07.53.46.53a17.08,17.08,0,0,1,2.58.07c1.58.24,2.55,1.2,2.17,2.88s-.58,3.3-.85,4.95c-.06.38-.2.6-.63.54A7.19,7.19,0,0,0,89.59,204.76Z"/><path class="b88a2e0d-b532-47be-bc21-5a69c89dda2b" d="M96.62,198.42h.19c1.29,0,1.92.31,2.06,1a2.91,2.91,0,0,1-1.34,2.93,5.87,5.87,0,0,1-2.53.28c-.25,0-.29-.14-.25-.35.19-1.19.39-2.38.58-3.57,0-.25.2-.31.43-.3S96.33,198.42,96.62,198.42Z"/><path class="b88a2e0d-b532-47be-bc21-5a69c89dda2b" d="M77.75,198.42c1.6,0,2.22.33,2.29,1.2a2.6,2.6,0,0,1-2.13,3c-.62.09-1.43.26-1.87,0s0-1.1.08-1.67.24-1.18.27-1.77.35-.78.89-.7A3.68,3.68,0,0,0,77.75,198.42Z"/><path class="b88a2e0d-b532-47be-bc21-5a69c89dda2b" d="M113.21,230.62H60.39C57,229.4,56,226.9,56,223.45q.12-28,0-56c0-3.44,1-5.94,4.41-7.16H95.71c4.62.83,8.1,3.48,11.17,6.87,1.92,2.12,4,4.07,6.05,6.08a15.12,15.12,0,0,1,4.65,11.18c0,13-.06,26,0,39C117.64,226.9,116.58,229.4,113.21,230.62ZM95.64,164.85c-.61-.06-1-.14-1.42-.14q-16,0-32,0c-1.37,0-1.83.59-1.81,1.89,0,3.64,0,7.29,0,10.93q0,23.27,0,46.54c0,1.29.13,2.22,1.8,2.21q24.6,0,49.21,0c1.23,0,1.81-.45,1.81-1.73q0-20.46,0-40.92c0-1.09-.37-1.41-1.45-1.4-4.79,0-9.58,0-14.37,0H95.64Zm15,13-10.57-10.68v10.68Z"/><path class="ec122f4f-9db8-4ae6-a977-e1a857b885be" d="M198.6,456H145.79c-3.37-1.22-4.42-3.72-4.41-7.16q.12-28,0-56c0-3.45,1-6,4.41-7.17H181.1c4.63.83,8.11,3.48,11.18,6.87,1.92,2.12,4,4.07,6.05,6.08A15.17,15.17,0,0,1,203,409.88c0,13-.06,26,0,39C203,452.31,202,454.81,198.6,456ZM181,390.26c-.61-.06-1-.14-1.42-.14-10.67,0-21.35,0-32,0-1.38,0-1.83.59-1.81,1.89,0,3.65,0,7.29,0,10.93q0,23.28,0,46.54c0,1.29.12,2.22,1.8,2.22q24.6,0,49.2,0c1.24,0,1.82-.44,1.82-1.73q0-20.46,0-40.91c0-1.09-.37-1.42-1.45-1.41-4.79.05-9.58,0-14.37,0H181Zm15,13c-3.52-3.57-7.07-7.15-10.57-10.69v10.69Z"/><path class="ec122f4f-9db8-4ae6-a977-e1a857b885be" d="M157.31,413.68v-.93h30.05a1,1,0,0,1,.64.1v.72c-.1,0-.1.12-.1.21-.17,1.84-.34,3.69-.5,5.53-.33,3.65-.64,7.31-1,11q-.6,6.64-1.19,13.27a.61.61,0,0,1-.53.65c-3.9,1.06-7.79,2.15-11.68,3.23a1.4,1.4,0,0,1-.81,0l-3.22-.89-8.46-2.35c-.23-.07-.43-.08-.46-.43-.19-2.25-.4-4.51-.6-6.76l-.87-9.78c-.33-3.74-.65-7.48-1-11.22A8.61,8.61,0,0,0,157.31,413.68Zm15.35,17.09v6l-.1.07c-1.25-.35-2.5-.71-3.76-1a.56.56,0,0,1-.5-.62c0-.73-.14-1.47-.18-2.2,0-.3-.13-.37-.41-.37-1,0-2.09,0-3.13,0-.36,0-.39.14-.36.43.17,1.77.33,3.54.48,5.32a.36.36,0,0,0,.31.38l7.52,2.07.12.05c0,1.17,0,2.33,0,3.5,0,.3,0,.44.41.33q4.63-1.31,9.3-2.57c.32-.09.49-.27.48-.56,0-.54.1-1.06.12-1.59,0-.9.14-1.8.22-2.7.12-1.36.27-2.72.39-4.07s.21-2.62.32-3.93.28-2.68.4-4,.2-2.8.32-4.19c.16-1.71.33-3.43.51-5.14,0-.45-.08-.63-.58-.62-3.5,0-7,0-10.5,0-1.4,0-1.4,0-1.38,1.4l-.57,0c-2,0-4,0-6,0-.47,0-.72.06-.7.62a15.19,15.19,0,0,1-.17,1.64c-.34,3.75-.67,7.51-1,11.27,0,.4.07.49.46.48h6.48a6.47,6.47,0,0,0,1.39,0Z"/><path class="bd503301-e3ac-466f-b635-cb4ae7d5ddb5" d="M172.66,416.73c0-1.4,0-1.4,1.38-1.4,3.5,0,7,0,10.5,0,.5,0,.62.17.58.62-.18,1.71-.35,3.43-.51,5.14-.12,1.39-.2,2.79-.32,4.19s-.27,2.68-.4,4-.2,2.62-.32,3.93-.27,2.71-.39,4.07c-.08.9-.18,1.8-.22,2.7,0,.53-.15,1.05-.12,1.59,0,.29-.16.47-.48.56q-4.67,1.26-9.3,2.57c-.37.11-.41,0-.41-.33,0-1.17,0-2.33,0-3.5l.29-.11,6-1.66c.48-.14,1.07-.15,1.4-.45s.19-1,.24-1.47c.3-3.25.58-6.51.9-9.77,0-.44-.06-.57-.53-.56-2.77,0-5.55,0-8.33,0v-6.08c1.4.08,2.8.17,4.2.22.36,0,.47.13.5.47.07,1,.18,2,.26,3.07,0,.31.08.49.46.48,1,0,2.06,0,3.09,0,.31,0,.38-.11.35-.39-.08-.75-.14-1.5-.21-2.25-.15-1.73-.29-3.45-.44-5.17,0-.25,0-.45-.39-.45l-7.82,0Z"/><path class="be8e04ec-8224-41fc-9e79-41b35bc78f23" d="M172.56,430.7a6.47,6.47,0,0,1-1.39,0h-6.48c-.39,0-.5-.08-.46-.48.35-3.76.68-7.52,1-11.27a15.19,15.19,0,0,0,.17-1.64c0-.56.23-.62.7-.62,2,0,4,0,6,0l.57,0v4.08c-1.08,0-2.16.06-3.24.06-.35,0-.46.1-.48.46-.14,1.71-.3,3.41-.48,5.12,0,.35,0,.43.39.42,1.23,0,2.47,0,3.7,0Z"/><path class="f290b15d-6f0d-4e4e-b437-8721d6bbd156" d="M172.56,430.7c0-1.27,0-2.54,0-3.81l.1,0c2.78,0,5.56,0,8.33,0,.47,0,.57.12.53.56-.32,3.26-.6,6.52-.9,9.77-.05.51.11,1.14-.24,1.47s-.92.31-1.4.45l-6,1.66-.29.11-.12-.05,0-4,.1-.07,4-1c.18-.05.26-.12.27-.31.13-1.45.26-2.9.4-4.34,0-.25,0-.38-.32-.37l-4.31,0Z"/><path class="be8e04ec-8224-41fc-9e79-41b35bc78f23" d="M172.56,436.86l0,4L165,438.76a.36.36,0,0,1-.31-.38c-.15-1.78-.31-3.55-.48-5.32,0-.29,0-.44.36-.43,1,0,2.09,0,3.13,0,.28,0,.39.07.41.37,0,.73.16,1.47.18,2.2a.56.56,0,0,0,.5.62C170.06,436.15,171.31,436.51,172.56,436.86Z"/><path class="bd503301-e3ac-466f-b635-cb4ae7d5ddb5" d="M172.66,430.77l4.31,0c.29,0,.34.12.32.37-.14,1.44-.27,2.89-.4,4.34,0,.19-.09.26-.27.31l-4,1Z"/><path class="f290b15d-6f0d-4e4e-b437-8721d6bbd156" d="M172.65,420.77v-4l7.82,0c.36,0,.37.2.39.45.15,1.72.29,3.44.44,5.17.07.75.13,1.5.21,2.25,0,.28,0,.39-.35.39-1,0-2.06,0-3.09,0-.38,0-.44-.17-.46-.48-.08-1-.19-2-.26-3.07,0-.34-.14-.46-.5-.47C175.45,420.94,174.05,420.85,172.65,420.77Z"/><path class="ec122f4f-9db8-4ae6-a977-e1a857b885be" d="M172.65,426.85l-.1,0c-1.23,0-2.47,0-3.7,0-.34,0-.42-.07-.39-.42.18-1.71.34-3.41.48-5.12,0-.36.13-.46.48-.46,1.08,0,2.16,0,3.24-.06C172.66,422.82,172.65,424.84,172.65,426.85Z"/><line class="ba59854d-e9dc-48b2-9736-52b3b158dbc0" x1="58" y1="526.5" x2="41.5" y2="526.5"/><line class="ba59854d-e9dc-48b2-9736-52b3b158dbc0" x1="137.74" y1="513" x2="137.56" y2="648.98"/><line class="ba59854d-e9dc-48b2-9736-52b3b158dbc0" x1="137" y1="526.5" x2="113" y2="526.5"/><line class="ba59854d-e9dc-48b2-9736-52b3b158dbc0" x1="231.01" y1="513.5" x2="137.51" y2="513.5"/><line class="ba59854d-e9dc-48b2-9736-52b3b158dbc0" x1="231.01" y1="648.5" x2="137.51" y2="648.5"/><polygon class="a49ac156-1404-4364-88d2-09c34a163d0a" points="116.5 509.79 78.19 509.79 74.29 503 60.5 503 60.5 546 116.5 546 116.5 509.79"/><text class="b8ffad61-7740-4944-bc92-5c189f07bdf7" transform="translate(63.07 534.27)">d<tspan class="a7431fa4-dda8-41dc-972e-bfb375da389d" x="14.3" y="0">a</tspan><tspan x="26.78" y="0">ta</tspan></text><path d="M181.64,558H158.33a2.9,2.9,0,0,1-2-3.16q0-12.36,0-24.71a2.9,2.9,0,0,1,2-3.16h15.59a8.76,8.76,0,0,1,4.93,3c.85.94,1.77,1.8,2.67,2.69a6.67,6.67,0,0,1,2,4.94c0,5.73,0,11.47,0,17.21A2.9,2.9,0,0,1,181.64,558Zm-7.75-29c-.27,0-.45-.07-.63-.07-4.71,0-9.42,0-14.14,0-.6,0-.8.27-.8.84,0,1.61,0,3.22,0,4.83v20.54c0,.57,0,1,.79,1h21.72c.55,0,.8-.2.8-.77,0-6,0-12,0-18.06,0-.48-.17-.62-.65-.62-2.11,0-4.23,0-6.34,0h-.77Zm6.62,5.73L175.84,530v4.71Z"/><path d="M181.64,598H158.33a2.9,2.9,0,0,1-2-3.16q0-12.36,0-24.71a2.9,2.9,0,0,1,2-3.16h15.59a8.76,8.76,0,0,1,4.93,3c.85.94,1.77,1.8,2.67,2.69a6.67,6.67,0,0,1,2,4.94c0,5.73,0,11.47,0,17.21A2.9,2.9,0,0,1,181.64,598Zm-7.75-29c-.27,0-.45-.07-.63-.07-4.71,0-9.42,0-14.14,0-.6,0-.8.27-.8.84,0,1.61,0,3.22,0,4.83v20.54c0,.57,0,1,.79,1h21.72c.55,0,.8-.2.8-.77,0-6,0-12,0-18.06,0-.48-.17-.62-.65-.62-2.11,0-4.23,0-6.34,0h-.77Zm6.62,5.73L175.84,570v4.71Z"/><path d="M181.64,638H158.33a2.9,2.9,0,0,1-2-3.16q0-12.36,0-24.71a2.9,2.9,0,0,1,2-3.16h15.59a8.76,8.76,0,0,1,4.93,3c.85.94,1.77,1.8,2.67,2.69a6.67,6.67,0,0,1,2,4.94c0,5.73,0,11.47,0,17.21A2.9,2.9,0,0,1,181.64,638Zm-7.75-29c-.27,0-.45-.07-.63-.07-4.71,0-9.42,0-14.14,0-.6,0-.8.27-.8.84,0,1.61,0,3.22,0,4.83v20.54c0,.57,0,1,.79,1h21.72c.55,0,.8-.2.8-.77,0-6,0-12,0-18.06,0-.48-.17-.62-.65-.62-2.11,0-4.23,0-6.34,0h-.77Zm6.62,5.73L175.84,610v4.71Z"/><path d="M218.64,558H195.33a2.9,2.9,0,0,1-2-3.16q0-12.36,0-24.71a2.9,2.9,0,0,1,2-3.16h15.59a8.76,8.76,0,0,1,4.93,3c.85.94,1.77,1.8,2.67,2.69a6.67,6.67,0,0,1,2,4.94c0,5.73,0,11.47,0,17.21A2.9,2.9,0,0,1,218.64,558Zm-7.75-29c-.27,0-.45-.07-.63-.07-4.71,0-9.42,0-14.14,0-.6,0-.8.27-.8.84,0,1.61,0,3.22,0,4.83v20.54c0,.57,0,1,.79,1h21.72c.55,0,.8-.2.8-.77,0-6,0-12,0-18.06,0-.48-.17-.62-.65-.62-2.11,0-4.23,0-6.34,0h-.77Zm6.62,5.73L212.84,530v4.71Z"/><path d="M218.64,598H195.33a2.9,2.9,0,0,1-2-3.16q0-12.36,0-24.71a2.9,2.9,0,0,1,2-3.16h15.59a8.76,8.76,0,0,1,4.93,3c.85.94,1.77,1.8,2.67,2.69a6.67,6.67,0,0,1,2,4.94c0,5.73,0,11.47,0,17.21A2.9,2.9,0,0,1,218.64,598Zm-7.75-29c-.27,0-.45-.07-.63-.07-4.71,0-9.42,0-14.14,0-.6,0-.8.27-.8.84,0,1.61,0,3.22,0,4.83v20.54c0,.57,0,1,.79,1h21.72c.55,0,.8-.2.8-.77,0-6,0-12,0-18.06,0-.48-.17-.62-.65-.62-2.11,0-4.23,0-6.34,0h-.77Zm6.62,5.73L212.84,570v4.71Z"/><path d="M218.64,638H195.33a2.9,2.9,0,0,1-2-3.16q0-12.36,0-24.71a2.9,2.9,0,0,1,2-3.16h15.59a8.76,8.76,0,0,1,4.93,3c.85.94,1.77,1.8,2.67,2.69a6.67,6.67,0,0,1,2,4.94c0,5.73,0,11.47,0,17.21A2.9,2.9,0,0,1,218.64,638Zm-7.75-29c-.27,0-.45-.07-.63-.07-4.71,0-9.42,0-14.14,0-.6,0-.8.27-.8.84,0,1.61,0,3.22,0,4.83v20.54c0,.57,0,1,.79,1h21.72c.55,0,.8-.2.8-.77,0-6,0-12,0-18.06,0-.48-.17-.62-.65-.62-2.11,0-4.23,0-6.34,0h-.77Zm6.62,5.73L212.84,610v4.71Z"/></svg>