<svg id="a24e705c-4a64-47ac-be7c-2bb40e1756ae" data-name="Capa 1" xmlns="http://www.w3.org/2000/svg" viewBox="0 0 320 581"><defs><style>.b671400a-ac40-4d77-b0e5-4f7c1ada75d9,.bb6b3cec-ce35-47e6-8237-f32c24cb94fa,.f6b6316a-832b-443d-baaa-5d8b023aed3b{stroke:#000;stroke-linejoin:round;}.b671400a-ac40-4d77-b0e5-4f7c1ada75d9,.f6b6316a-832b-443d-baaa-5d8b023aed3b{stroke-linecap:round;}.f6b6316a-832b-443d-baaa-5d8b023aed3b{stroke-width:4px;}.b671400a-ac40-4d77-b0e5-4f7c1ada75d9,.bb6b3cec-ce35-47e6-8237-f32c24cb94fa{fill:none;}.bb6b3cec-ce35-47e6-8237-f32c24cb94fa{stroke-width:5px;}.a02d8fbd-ccc2-41a3-916e-5f532a247fc0{font-size:24px;}.a02d8fbd-ccc2-41a3-916e-5f532a247fc0,.e8264eb7-8a77-464e-a293-37d785e6b6df{fill:#fff;font-family:SourceSansPro-Regular, Source Sans Pro;}.af6c6451-387a-4cf4-9ca8-283015ef8b85,.ba43fe28-eb78-488a-9029-fd009debe890{fill:#e34f27;}.fe8159ae-a066-426c-abd1-2d940d08a5ac{fill:#f0662a;}.a79c7359-7ffa-4ae6-a9a0-fcfeda734c71{fill:#ebe8e7;}.b509fe81-c06b-4617-8fbc-6c0d9b8d9a6b{fill:#ef590c;}.b780f6e8-3d4e-4ed1-81c6-ffc133ae6004{fill:#fefdfc;}.e7868e16-d2ca-4eab-8247-4c23c1d7fbfa{fill:#fefdfd;}.b5a53b79-1100-4050-8da8-57bd2a584760,.ffb71fae-adbf-4279-a31b-4473353be465{fill:#8692c1;}.b5e391ba-af70-4bb3-b9c0-31d7477f244f{fill:#232633;}.b3543900-b24c-49c8-8118-564236acb584,.f5f39cb1-cdad-4e37-b01a-02e18a46944c{fill:#1572b6;}.f0d97ae1-bdab-4ceb-a2f5-0c1bdfb2496f{fill:#34a8db;}.b8ea5487-416e-43c4-b081-27bcfe35d67b{fill:#e7e8e9;}.afe442a0-4f3b-4da9-b0a4-fc989ad0c70b{fill:#e4e7e9;}.a90a3f8d-0728-4944-aecd-5c596eec15ea{fill:#fdfdfe;}.b5a53b79-1100-4050-8da8-57bd2a584760,.ba43fe28-eb78-488a-9029-fd009debe890,.f5f39cb1-cdad-4e37-b01a-02e18a46944c,.fc204021-207c-4ab5-9cb8-7d40eb2b22e6{font-size:18px;font-family:SourceSansPro-Bold, Source Sans Pro;font-weight:700;}.bab14514-c77a-4232-887f-e5e79935e90e{letter-spacing:-0.02em;}.a23c40a5-8874-4d95-ba10-1eb10c419735{letter-spacing:0em;}.a5522d1f-7e7f-47df-847e-3e5f96a3e51c{letter-spacing:-0.01em;}.ea092065-3ccd-4c3f-a25e-16fcf6c99737{letter-spacing:-0.02em;}.e7ef6a21-02cf-4472-b383-22f9c3ce15a4{letter-spacing:-0.09em;}.ec1b108f-0592-4bba-b6b1-5166b7ea1fba,.fc204021-207c-4ab5-9cb8-7d40eb2b22e6{fill:#efa001;}.b2b32114-f9f0-4cb0-ab2e-304fa7af119e{fill:#f9bd01;}.a53a87d3-9a25-48bc-b9df-9a0ef7cce2fd{fill:#ebebea;}.e321c42e-5634-4765-b875-0e7d6d8ece8c{fill:#fefefd;}.e4f4398e-87d6-4c9e-aa1d-5b72c44dec79{letter-spacing:0em;}.b6bcd536-d254-405f-b16e-930ac68affd1{letter-spacing:-0.01em;}.bd30a3b4-85e6-436a-b053-a43eab382c65{letter-spacing:0.04em;}.b671400a-ac40-4d77-b0e5-4f7c1ada75d9{stroke-width:2px;}.e8264eb7-8a77-464e-a293-37d785e6b6df{font-size:12.82px;}.bd67dcb2-d589-4fa5-94e2-497fd1eb1a32{letter-spacing:-0.01em;}.a98a3813-bbf6-4c8a-aa9d-dbf53ffd8562{letter-spacing:-0.02em;}.b594aba5-9438-445d-b416-f94a44395aa9{letter-spacing:-0.02em;}.bed3b3df-0e9b-4d2b-b276-d8e81fc08335{letter-spacing:0em;}</style></defs><title>_</title><path d="M145.94,516.69H125.33a2.59,2.59,0,0,1-1.73-2.8q0-10.92,0-21.84a2.58,2.58,0,0,1,1.73-2.8h13.78a7.71,7.71,0,0,1,4.36,2.68c.75.83,1.57,1.59,2.36,2.38a5.88,5.88,0,0,1,1.81,4.36c0,5.07,0,10.15,0,15.22A2.58,2.58,0,0,1,145.94,516.69ZM139.08,491a4.77,4.77,0,0,0-.55-.06H126c-.54,0-.71.23-.71.74,0,1.42,0,2.85,0,4.27q0,9.07,0,18.16c0,.5.05.87.71.87,6.4,0,12.8,0,19.2,0,.48,0,.71-.17.71-.67q0-8,0-16c0-.43-.15-.55-.57-.55-1.87,0-3.74,0-5.61,0h-.68Zm5.86,5.07-4.13-4.17v4.17Z"/><path d="M145.94,552.05H125.33a2.58,2.58,0,0,1-1.73-2.8q0-10.92,0-21.84a2.58,2.58,0,0,1,1.73-2.8h13.78a7.72,7.72,0,0,1,4.36,2.69c.75.82,1.57,1.58,2.36,2.37a5.88,5.88,0,0,1,1.81,4.36c0,5.08,0,10.15,0,15.22A2.57,2.57,0,0,1,145.94,552.05Zm-6.86-25.67a4.77,4.77,0,0,0-.55-.06c-4.17,0-8.33,0-12.5,0-.54,0-.71.24-.71.74,0,1.43,0,2.85,0,4.27q0,9.07,0,18.16c0,.51.05.87.71.87h19.2c.48,0,.71-.18.71-.68q0-8,0-16c0-.42-.15-.55-.57-.55-1.87,0-3.74,0-5.61,0h-.68Zm5.86,5.07-4.13-4.17v4.17Z"/><path d="M178.65,516.69H158a2.59,2.59,0,0,1-1.73-2.8q0-10.92,0-21.84a2.58,2.58,0,0,1,1.73-2.8h13.78a7.71,7.71,0,0,1,4.36,2.68c.75.83,1.57,1.59,2.36,2.38a5.88,5.88,0,0,1,1.81,4.36c0,5.07,0,10.15,0,15.22A2.58,2.58,0,0,1,178.65,516.69ZM171.79,491a4.55,4.55,0,0,0-.55-.06h-12.5c-.54,0-.71.23-.71.74,0,1.42,0,2.85,0,4.27q0,9.07,0,18.16c0,.5.05.87.71.87,6.4,0,12.8,0,19.2,0,.48,0,.71-.17.71-.67q0-8,0-16c0-.43-.15-.55-.57-.55-1.87,0-3.74,0-5.61,0h-.68Zm5.86,5.07-4.13-4.17v4.17Z"/><path d="M178.65,552.05H158a2.58,2.58,0,0,1-1.73-2.8q0-10.92,0-21.84a2.58,2.58,0,0,1,1.73-2.8h13.78a7.72,7.72,0,0,1,4.36,2.69c.75.82,1.57,1.58,2.36,2.37a5.88,5.88,0,0,1,1.81,4.36c0,5.08,0,10.15,0,15.22A2.57,2.57,0,0,1,178.65,552.05Zm-6.86-25.67a4.55,4.55,0,0,0-.55-.06c-4.17,0-8.33,0-12.5,0-.54,0-.71.24-.71.74,0,1.43,0,2.85,0,4.27q0,9.07,0,18.16c0,.51.05.87.71.87h19.2c.48,0,.71-.18.71-.68q0-8,0-16c0-.42-.15-.55-.57-.55-1.87,0-3.74,0-5.61,0h-.68Zm5.86,5.07-4.13-4.17v4.17Z"/><polygon class="f6b6316a-832b-443d-baaa-5d8b023aed3b" points="92 266.79 53.69 266.79 49.79 260 36 260 36 303 92 303 92 266.79"/><polyline class="bb6b3cec-ce35-47e6-8237-f32c24cb94fa" points="37.95 54 20 54 20 518.5 115.14 518.38"/><line class="bb6b3cec-ce35-47e6-8237-f32c24cb94fa" x1="36.77" y1="167.15" x2="20" y2="167.15"/><line class="bb6b3cec-ce35-47e6-8237-f32c24cb94fa" x1="114" y1="281.5" x2="20" y2="281.5"/><line class="bb6b3cec-ce35-47e6-8237-f32c24cb94fa" x1="114" y1="402.81" x2="20" y2="402.81"/><text class="a02d8fbd-ccc2-41a3-916e-5f532a247fc0" transform="translate(47 291.27)">css</text><path class="af6c6451-387a-4cf4-9ca8-283015ef8b85" d="M65.93,44.86H80c1.05,0,1.1.06,1,1.06q-.78,8.67-1.55,17.33-.53,5.86-1,11.73c0,.49-.23.67-.7.8-3.75,1-7.5,2.06-11.24,3.11a1.57,1.57,0,0,1-.91,0c-3.74-1.06-7.48-2.11-11.24-3.12a.77.77,0,0,1-.67-.82q-.78-9.2-1.6-18.37C51.71,53,51.38,49.51,51,46c-.1-1.11-.11-1.11,1-1.11Zm0,17.88,0,5.76c-.93-.11-1.77-.52-2.68-.67s-1.74-.48-1.54-1.73a7.28,7.28,0,0,0-.1-1.12c0-.42-.18-.54-.58-.53-.86,0-1.73,0-2.59,0-.56,0-.7.16-.64.69.15,1.5.29,3,.39,4.49,0,.59.29.81.85,1,2.31.61,4.61,1.28,6.91,1.93,0,.95,0,1.91,0,2.86s.24,1,1.06.79l2.74-.77c1.74-.47,3.5-.92,5.23-1.44.36-.11.94-.11,1-.66q.21-1.76.36-3.51c.13-1.58.23-3.15.37-4.73.21-2.45.45-4.91.67-7.37.14-1.51.25-3,.39-4.54s.31-3.26.48-4.88c.06-.59-.14-.81-.77-.81q-5.33,0-10.65,0c-.66,0-.89.28-.89.88,0,.86,0,1.73,0,2.6H57.44c-.29,0-.65-.14-.87.21q.52,5.7,1,11.4c.25.29.59.17.9.17Z"/><path class="fe8159ae-a066-426c-abd1-2d940d08a5ac" d="M65.93,50.93c0-.87,0-1.74,0-2.6,0-.6.23-.88.89-.88q5.32,0,10.65,0c.63,0,.83.22.77.81-.17,1.62-.33,3.25-.48,4.88s-.25,3-.39,4.54c-.22,2.46-.46,4.92-.67,7.37-.14,1.58-.24,3.15-.37,4.73q-.15,1.75-.36,3.51c-.07.55-.65.55-1,.66-1.73.52-3.49,1-5.23,1.44L67,76.16c-.82.23-1,.06-1.06-.79s0-1.91,0-2.86v-.08a1.94,1.94,0,0,0,.42,0c2.3-.63,4.59-1.28,6.9-1.89.44-.12.5-.38.53-.75.27-3.1.57-6.19.81-9.29,0-.57.38-1.17,0-1.75-.25-.27-.59-.16-.89-.16H65.93V55l0-.06c2.89,0,5.78,0,8.67,0,.41,0,.54-.14.56-.54,0-.84.12-1.67.18-2.5l.06-.25c.05-.2.12-.4-.1-.54s-.6-.16-.9-.16Z"/><path class="a79c7359-7ffa-4ae6-a9a0-fcfeda734c71" d="M57.6,62.55q-.51-5.7-1-11.4l9.36,0,0,3.72,0,.06c-1.55,0-3.1,0-4.65,0-.44,0-.62.1-.56.57.14,1,.23,2,.34,3.08.18.36.5.18.76.19l4.11,0v3.73Z"/><path class="a79c7359-7ffa-4ae6-a9a0-fcfeda734c71" d="M65.93,72.51c-2.3-.65-4.6-1.32-6.91-1.93-.56-.15-.81-.37-.85-1-.1-1.5-.24-3-.39-4.49-.06-.53.08-.72.64-.69.86,0,1.73,0,2.59,0,.4,0,.58.11.58.53a7.28,7.28,0,0,1,.1,1.12c-.2,1.25.54,1.56,1.54,1.73s1.75.56,2.68.67c0,0,0,.07,0,.11v3.9Z"/><path class="fe8159ae-a066-426c-abd1-2d940d08a5ac" d="M65.92,68.61s0-.07,0-.11c0-1.92,0-3.84,0-5.76h4.65c-.11,1.42-.24,2.85-.33,4.27,0,.42-.29.5-.61.59C68.4,67.92,67.16,68.27,65.92,68.61Z"/><path class="b509fe81-c06b-4617-8fbc-6c0d9b8d9a6b" d="M65.93,51.17l-9.36,0c.22-.35.58-.21.87-.21H74.38c.3,0,.64-.11.9.16Z"/><path class="b509fe81-c06b-4617-8fbc-6c0d9b8d9a6b" d="M70.58,62.73H65.93l-7.43,0c-.31,0-.65.12-.9-.17l8.32,0c1.24,0,2.48,0,3.72,0C70,62.57,70.32,62.39,70.58,62.73Z"/><path class="b780f6e8-3d4e-4ed1-81c6-ffc133ae6004" d="M70.58,62.73c-.26-.34-.63-.16-.94-.17-1.24,0-2.48,0-3.72,0,0-1.25,0-2.49,0-3.73l8.65-.07c.38.58,0,1.18,0,1.75-.24,3.1-.54,6.19-.81,9.29,0,.37-.09.63-.53.75-2.31.61-4.6,1.26-6.9,1.89a1.94,1.94,0,0,1-.42,0V68.61c1.24-.34,2.48-.69,3.72-1,.32-.09.58-.17.61-.59C70.34,65.58,70.47,64.15,70.58,62.73Z"/><path class="e7868e16-d2ca-4eab-8247-4c23c1d7fbfa" d="M65.93,51.17l9.35-.07c.22.14.15.34.1.54l-.06.25c-.06.83-.14,1.66-.18,2.5,0,.4-.15.54-.56.54-2.89,0-5.78,0-8.67,0C65.92,53.65,65.92,52.41,65.93,51.17Z"/><path class="af6c6451-387a-4cf4-9ca8-283015ef8b85" d="M61.06,58.57c-.11-1-.2-2-.34-3.08-.06-.47.12-.58.56-.57,1.55,0,3.1,0,4.65,0v3.61Z"/><path class="b509fe81-c06b-4617-8fbc-6c0d9b8d9a6b" d="M61.06,58.57H73.69c.3,0,.64-.11.89.16l-8.65.07-4.11,0C61.56,58.75,61.24,58.93,61.06,58.57Z"/><path class="a79c7359-7ffa-4ae6-a9a0-fcfeda734c71" d="M75.32,51.89l.06-.25Z"/><path class="af6c6451-387a-4cf4-9ca8-283015ef8b85" d="M91.7,88.42H40.3C37,87.24,36,84.81,36,81.45Q36.12,54.21,36,27c0-3.36,1-5.79,4.3-7H74.67c4.5.81,7.89,3.39,10.88,6.69,1.86,2.06,3.91,4,5.89,5.92A14.75,14.75,0,0,1,96,43.5c0,12.65,0,25.3,0,38C96,84.8,95,87.24,91.7,88.42Zm-17.09-64c-.6-.06-1-.14-1.39-.14q-15.58,0-31.17,0c-1.34,0-1.78.58-1.76,1.85,0,3.54,0,7.09,0,10.64q0,22.65,0,45.3c0,1.25.12,2.16,1.75,2.15q24,0,47.9,0c1.21,0,1.77-.43,1.77-1.68q0-19.92,0-39.83c0-1.06-.36-1.38-1.42-1.37-4.66.05-9.32,0-14,0h-1.7Zm14.6,12.65L78.92,26.65v10.4Z"/><path class="ffb71fae-adbf-4279-a31b-4473353be465" d="M64.17,162.38h5.3c.13.18.32.12.49.13a33.08,33.08,0,0,1,8.46,1.74A20.12,20.12,0,0,1,83.69,167a9.47,9.47,0,0,1,3.67,5.09v2.12c-.16.07-.17.25-.21.39a7.16,7.16,0,0,1-1.65,2.91,15.82,15.82,0,0,1-6.76,4.25A36.14,36.14,0,0,1,59.35,183a22.93,22.93,0,0,1-9.47-3.89,9.39,9.39,0,0,1-3.17-3.83c-.16-.36-.14-.78-.44-1.08v-2.25c0-.05.11-.09.13-.14A9.57,9.57,0,0,1,51,166.27a26.84,26.84,0,0,1,10.33-3.5A21.14,21.14,0,0,0,64.17,162.38ZM76,168c-.75,0-1.5,0-2.25,0-.47,0-.68.12-.74.6s-.22,1.12-.33,1.69c-.56,2.85-1.11,5.71-1.69,8.56-.1.45,0,.55.43.53s1.11,0,1.66,0c.35,0,.51-.1.56-.45.09-.63.24-1.25.34-1.89.07-.42.21-.65.71-.61a18.87,18.87,0,0,0,2,0,4.93,4.93,0,0,0,4.93-4.07c.53-2.74-.75-4.31-3.56-4.36Zm-18.87,0v0c-.77,0-1.54,0-2.31,0-.41,0-.57.12-.65.54q-1,5.16-2,10.32c-.09.43,0,.54.44.52s1.11,0,1.66,0c.34,0,.51-.07.56-.45.09-.68.26-1.35.37-2,.06-.34.19-.49.56-.47.66,0,1.33,0,2,0a4.94,4.94,0,0,0,5.09-4.27c.42-2.43-.69-3.91-3.14-4.12C58.84,168,58,168,57.15,168Zm12.46,8.4a7,7,0,0,1,.93,0c.44.06.58-.15.64-.54.27-1.65.48-3.32.85-5s-.59-2.63-2.17-2.88a15.86,15.86,0,0,0-2.58-.06c-.39,0-.58-.1-.47-.53s.15-.78.23-1.17c.26-1.27.26-1.26-1-1.26-.31,0-.62,0-.93,0s-.53.1-.6.49c-.29,1.61-.62,3.21-.94,4.8-.37,1.84-.73,3.68-1.11,5.52-.1.48,0,.63.51.59a12.85,12.85,0,0,1,1.52,0c.41,0,.57-.11.65-.53.32-1.76.7-3.5,1-5.26.08-.43.25-.6.69-.56s1,0,1.46,0c.9,0,1.1.27.93,1.14l-.72,3.83c-.08.43-.35,1-.17,1.26S69.23,176.38,69.61,176.43Z"/><path class="b5e391ba-af70-4bb3-b9c0-31d7477f244f" d="M76,168h2c2.81.05,4.09,1.62,3.56,4.36a4.93,4.93,0,0,1-4.93,4.07,18.87,18.87,0,0,1-2,0c-.5,0-.64.19-.71.61-.1.64-.25,1.26-.34,1.89,0,.35-.21.47-.56.45-.55,0-1.11,0-1.66,0s-.53-.08-.43-.53c.58-2.85,1.13-5.71,1.69-8.56.11-.57.26-1.12.33-1.69s.27-.62.74-.6C74.52,168,75.27,168,76,168Zm.61,2.09h-.85c-.23,0-.39,0-.43.3-.2,1.19-.39,2.39-.59,3.58,0,.2,0,.35.26.34a5.87,5.87,0,0,0,2.53-.28,2.87,2.87,0,0,0,1.33-2.93c-.14-.7-.76-1-2-1Z"/><path class="b5e391ba-af70-4bb3-b9c0-31d7477f244f" d="M57.15,168c.84,0,1.69-.06,2.52,0,2.45.21,3.56,1.69,3.14,4.12a4.94,4.94,0,0,1-5.09,4.27c-.66,0-1.33,0-2,0-.37,0-.5.13-.56.47-.11.67-.28,1.34-.37,2,0,.38-.22.46-.56.45-.55,0-1.11,0-1.66,0s-.53-.09-.44-.52q1.05-5.16,2-10.32c.08-.42.24-.55.65-.54.77,0,1.54,0,2.31,0Zm.61,2.06a3.53,3.53,0,0,1-.46,0c-.55-.07-.85.08-.89.71s-.23,1.17-.27,1.76-.54,1.36-.08,1.67,1.25.12,1.87,0a2.6,2.6,0,0,0,2.13-3C60,170.42,59.37,170.09,57.76,170.09Z"/><path class="b5e391ba-af70-4bb3-b9c0-31d7477f244f" d="M69.61,176.43c-.38-.05-1,.21-1.25-.11s.09-.83.17-1.26l.72-3.83c.17-.87,0-1.12-.93-1.14-.49,0-1,0-1.46,0s-.61.13-.69.56c-.33,1.76-.71,3.5-1,5.26-.08.42-.24.55-.65.53a12.85,12.85,0,0,0-1.52,0c-.48,0-.61-.11-.51-.59.38-1.84.74-3.68,1.11-5.52.32-1.59.65-3.19.94-4.8.07-.39.22-.52.6-.49s.62,0,.93,0c1.26,0,1.26,0,1,1.26-.08.39-.13.78-.23,1.17s.08.53.47.53a15.86,15.86,0,0,1,2.58.06c1.58.25,2.55,1.2,2.17,2.88s-.58,3.3-.85,5c-.06.39-.2.6-.64.54A7,7,0,0,0,69.61,176.43Z"/><path class="ffb71fae-adbf-4279-a31b-4473353be465" d="M76.63,170.09h.2c1.29,0,1.91.31,2,1A2.87,2.87,0,0,1,77.55,174a5.87,5.87,0,0,1-2.53.28c-.25,0-.29-.14-.26-.34.2-1.19.39-2.39.59-3.58,0-.25.2-.31.43-.3Z"/><path class="ffb71fae-adbf-4279-a31b-4473353be465" d="M57.76,170.09c1.61,0,2.23.33,2.3,1.2a2.6,2.6,0,0,1-2.13,3c-.62.09-1.43.27-1.87,0s0-1.09.08-1.67.24-1.17.27-1.76.34-.78.89-.71A3.53,3.53,0,0,0,57.76,170.09Z"/><path class="ffb71fae-adbf-4279-a31b-4473353be465" d="M93.22,202.29H40.41C37,201.07,36,198.57,36,195.13q.12-28,0-56c0-3.45,1-5.95,4.41-7.17H75.72c4.63.83,8.11,3.48,11.18,6.87,1.92,2.12,4,4.07,6,6.08a15.17,15.17,0,0,1,4.65,11.19c0,13-.06,26,0,39C97.66,198.57,96.6,201.07,93.22,202.29ZM75.66,136.52c-.61-.06-1-.14-1.42-.14-10.67,0-21.35,0-32,0-1.38,0-1.83.59-1.81,1.89,0,3.65,0,7.29,0,10.93q0,23.26,0,46.54c0,1.29.13,2.22,1.8,2.22q24.6-.06,49.2,0c1.24,0,1.82-.44,1.82-1.73q0-20.46,0-40.91c0-1.09-.37-1.42-1.45-1.41-4.79.05-9.58,0-14.37,0H75.66Zm15,13c-3.52-3.57-7.07-7.15-10.57-10.69v10.69Z"/><path class="b3543900-b24c-49c8-8118-564236acb584" d="M144.83,275c4.86,0,9.72,0,14.58,0,.76,0,.86.24.8.9q-1.17,13-2.33,26c-.12,1.33-.26,2.66-.35,4a.8.8,0,0,1-.7.84Q151,308.32,145.2,310a1.53,1.53,0,0,1-.85,0c-3.82-1.07-7.63-2.14-11.46-3.17a.91.91,0,0,1-.79-.95q-1-11.91-2.12-23.82c-.19-2.06-.35-4.13-.56-6.19-.06-.6.07-.81.73-.8C135,275,139.93,275,144.83,275Zm-.27,14c-1.24,0-2.47,0-3.71,0-.38,0-.63,0-.58.52.1,1,.17,1.94.23,2.91,0,.47.35.47.69.47l3.54,0V299l-2.48-.65c-1.65-.45-1.65-.45-1.85-2.1a8.23,8.23,0,0,1-.11-1c0-.4-.18-.51-.55-.5-.91,0-1.83,0-2.75,0-.54,0-.65.19-.6.68.16,1.56.31,3.12.41,4.68a1,1,0,0,0,.87,1c2.37.63,4.72,1.32,7.07,2v3.2c0,1.11,0,1.11,1,.81,2.59-.72,5.17-1.45,7.76-2.16,1.65-.46,1.62-.45,1.7-2.14s.24-3.47.39-5.2c.21-2.38.45-4.75.67-7.12.14-1.56.26-3.12.4-4.67q.33-3.66.67-7.3c.07-.63-.09-.9-.8-.89q-5.52,0-11,0c-.62,0-.81.18-.83.81a6.7,6.7,0,0,1-.16,2.71c-2.89,0-5.79,0-8.68,0-.58,0-.8.15-.71.75a17.15,17.15,0,0,1,.24,2.37c0,.7.31.8.92.8,2.81,0,5.61,0,8.42,0,0,.38,0,.76,0,1.13C144.66,287.18,145,288.12,144.56,289Z"/><path class="f0d97ae1-bdab-4ceb-a2f5-0c1bdfb2496f" d="M144.56,281.18a6.7,6.7,0,0,0,.16-2.71c0-.63.21-.81.83-.81q5.5,0,11,0c.71,0,.87.26.8.89q-.35,3.65-.67,7.3c-.14,1.55-.26,3.11-.4,4.67-.22,2.37-.46,4.74-.67,7.12-.15,1.73-.31,3.46-.39,5.2s-.05,1.68-1.7,2.14c-2.59.71-5.17,1.44-7.76,2.16-1,.3-1,.3-1-.81v-3.2l.19-.08c2.25-.61,4.49-1.28,6.77-1.81.91-.21,1.14-.66,1.2-1.5.19-2.57.45-5.13.68-7.69q.45-5.08.91-10.17c0-.49-.07-.68-.6-.68-3,0-6,0-9,.05Z"/><path class="b8ea5487-416e-43c4-b081-27bcfe35d67b" d="M144.93,303.05l-.19.08c-2.35-.66-4.7-1.35-7.07-2a1,1,0,0,1-.87-1c-.1-1.56-.25-3.12-.41-4.68,0-.49.06-.7.6-.68.92,0,1.84,0,2.75,0,.37,0,.55.1.55.5a8.23,8.23,0,0,0,.11,1c.2,1.65.2,1.65,1.85,2.1l2.48.65.19.06Z"/><path class="afe442a0-4f3b-4da9-b0a4-fc989ad0c70b" d="M144.56,281.18l.35.07c0,1.26,0,2.52,0,3.78l-.17.1c-2.81,0-5.61,0-8.42,0-.61,0-.92-.1-.92-.8a17.15,17.15,0,0,0-.24-2.37c-.09-.6.13-.75.71-.75C138.77,281.21,141.67,281.19,144.56,281.18Z"/><path class="f0d97ae1-bdab-4ceb-a2f5-0c1bdfb2496f" d="M144.92,299.08l-.19-.06V293s0-.08,0-.12a33.94,33.94,0,0,0,4.16.08c.49,0,.7.12.65.65-.14,1.32-.26,2.64-.36,4,0,.42-.32.44-.6.52Z"/><path class="f0d97ae1-bdab-4ceb-a2f5-0c1bdfb2496f" d="M144.75,285.13l.17-.1c1.54,0,3.08.07,4.62.05.6,0,.78.19.7.77-.1.82-.17,1.65-.22,2.47,0,.54-.25.75-.83.74-1.48,0-3,0-4.44,0l-.19-.08c.39-.89.1-1.83.18-2.75C144.77,285.89,144.75,285.51,144.75,285.13Z"/><path class="afe442a0-4f3b-4da9-b0a4-fc989ad0c70b" d="M144.56,289l.19.08a9.11,9.11,0,0,1,0,3.75s0,.08,0,.12l-3.54,0c-.34,0-.66,0-.69-.47-.06-1-.13-1.94-.23-2.91-.05-.48.2-.52.58-.52C142.09,289,143.32,289,144.56,289Z"/><path class="a90a3f8d-0728-4944-aecd-5c596eec15ea" d="M144.74,292.84a9.11,9.11,0,0,0,0-3.75c1.48,0,3-.06,4.44,0,.58,0,.79-.2.83-.74,0-.82.12-1.65.22-2.47.08-.58-.1-.77-.7-.77-1.54,0-3.08,0-4.62-.05,0-1.26,0-2.52,0-3.78,3,0,6,0,9-.05.53,0,.65.19.6.68q-.47,5.08-.91,10.17c-.23,2.56-.49,5.12-.68,7.69-.06.84-.29,1.29-1.2,1.5-2.28.53-4.52,1.2-6.77,1.81,0-1.32,0-2.65,0-4l3.67-1c.28-.08.57-.1.6-.52.1-1.33.22-2.65.36-4,0-.53-.16-.64-.65-.65A33.94,33.94,0,0,1,144.74,292.84Z"/><path class="b3543900-b24c-49c8-8118-564236acb584" d="M171.22,318.29H118.41c-3.37-1.22-4.42-3.72-4.41-7.16q.12-28,0-56c0-3.45,1-5.95,4.41-7.17h35.31c4.63.83,8.11,3.48,11.18,6.87,1.92,2.12,4,4.07,6,6.08a15.17,15.17,0,0,1,4.65,11.19c0,13-.06,26,0,39C175.66,314.57,174.6,317.07,171.22,318.29Zm-17.56-65.77c-.61-.06-1-.14-1.42-.14-10.67,0-21.35,0-32,0-1.38,0-1.83.59-1.81,1.89,0,3.65,0,7.29,0,10.93q0,23.26,0,46.54c0,1.29.13,2.22,1.8,2.22q24.6-.06,49.2,0c1.24,0,1.82-.44,1.82-1.73q0-20.46,0-40.91c0-1.09-.37-1.42-1.45-1.41-4.79.05-9.58,0-14.37,0h-1.75Zm15,13c-3.52-3.57-7.07-7.15-10.57-10.69v10.69Z"/><text class="f5f39cb1-cdad-4e37-b01a-02e18a46944c" transform="translate(114 337.29)"><tspan class="bab14514-c77a-4232-887f-e5e79935e90e">s</tspan><tspan class="a23c40a5-8874-4d95-ba10-1eb10c419735" x="7.61" y="0">tyle</tspan><tspan class="a5522d1f-7e7f-47df-847e-3e5f96a3e51c" x="38.36" y="0">.</tspan><tspan x="43.58" y="0">css</tspan></text><text class="ba43fe28-eb78-488a-9029-fd009debe890" transform="translate(36 106.94)">ind<tspan class="ea092065-3ccd-4c3f-a25e-16fcf6c99737" x="25.58" y="0">ex</tspan><tspan x="43.58" y="0">.php</tspan></text><text class="b5a53b79-1100-4050-8da8-57bd2a584760" transform="translate(36 221.94)">xh<tspan class="e7ef6a21-02cf-4472-b383-22f9c3ce15a4" x="19.53" y="0">r</tspan><tspan x="25.11" y="0">.php</tspan></text><polygon class="f6b6316a-832b-443d-baaa-5d8b023aed3b" points="95 383.79 56.69 383.79 52.79 377 39 377 39 420 95 420 95 383.79"/><text class="a02d8fbd-ccc2-41a3-916e-5f532a247fc0" transform="translate(57.71 408.27)">js</text><path class="ec1b108f-0592-4bba-b6b1-5166b7ea1fba" d="M171.22,438H118.41c-3.37-1.22-4.42-3.72-4.41-7.16q.12-28,0-56c0-3.45,1-6,4.41-7.17h35.31c4.63.83,8.11,3.48,11.18,6.87,1.92,2.12,4,4.07,6,6.08a15.17,15.17,0,0,1,4.65,11.19c0,13-.06,26,0,39C175.66,434.31,174.6,436.81,171.22,438Zm-17.56-65.77c-.61-.06-1-.14-1.42-.14-10.67,0-21.35,0-32,0-1.38,0-1.83.59-1.81,1.89,0,3.65,0,7.29,0,10.93q0,23.28,0,46.54c0,1.29.13,2.22,1.8,2.22q24.6,0,49.2,0c1.24,0,1.82-.44,1.82-1.73q0-20.46,0-40.91c0-1.09-.37-1.42-1.45-1.41-4.79.05-9.58,0-14.37,0h-1.75Zm15,13c-3.52-3.57-7.07-7.15-10.57-10.69v10.69Z"/><path class="ec1b108f-0592-4bba-b6b1-5166b7ea1fba" d="M129.93,395.68v-.93h30a1,1,0,0,1,.64.1v.72c-.1,0-.1.12-.1.21-.17,1.84-.34,3.69-.5,5.53-.33,3.65-.64,7.31-1,11-.39,4.43-.8,8.85-1.19,13.27a.61.61,0,0,1-.53.65c-3.9,1.06-7.79,2.15-11.68,3.23a1.4,1.4,0,0,1-.81,0l-3.22-.89-8.46-2.35c-.23-.07-.43-.08-.46-.43-.19-2.25-.4-4.51-.6-6.76l-.87-9.78c-.33-3.74-.65-7.48-1-11.22A8.61,8.61,0,0,0,129.93,395.68Zm15.35,17.09v6l-.1.07c-1.25-.35-2.5-.71-3.76-1a.56.56,0,0,1-.5-.62c0-.73-.14-1.47-.18-2.2,0-.3-.13-.37-.41-.37-1,0-2.09,0-3.13,0-.36,0-.39.14-.36.43.17,1.77.33,3.54.48,5.32a.36.36,0,0,0,.31.38l7.52,2.07.12.05c0,1.17,0,2.33,0,3.5,0,.3,0,.44.41.33q4.63-1.31,9.3-2.57c.33-.09.49-.27.48-.56,0-.54.1-1.06.12-1.59,0-.9.14-1.8.22-2.7.12-1.36.27-2.72.39-4.07s.21-2.62.33-3.93.27-2.68.39-4,.2-2.8.32-4.19c.16-1.71.33-3.43.51-5.14,0-.45-.08-.63-.58-.62-3.5,0-7,0-10.5,0-1.4,0-1.4,0-1.38,1.4l-.57,0c-2,0-4,0-6,0-.47,0-.72.06-.7.62a15.19,15.19,0,0,1-.17,1.64c-.34,3.75-.67,7.51-1,11.27,0,.4.07.49.46.48h6.48a6.47,6.47,0,0,0,1.39,0Z"/><path class="b2b32114-f9f0-4cb0-ab2e-304fa7af119e" d="M145.28,398.73c0-1.4,0-1.4,1.38-1.4,3.5,0,7,0,10.5,0,.5,0,.62.17.58.62-.18,1.71-.35,3.43-.51,5.14-.12,1.39-.2,2.79-.32,4.19s-.27,2.68-.39,4-.21,2.62-.33,3.93-.27,2.71-.39,4.07c-.08.9-.18,1.8-.22,2.7,0,.53-.15,1.05-.12,1.59,0,.29-.15.47-.48.56q-4.66,1.26-9.3,2.57c-.37.11-.41,0-.41-.33,0-1.17,0-2.33,0-3.5l.29-.11,6-1.66c.48-.14,1.07-.15,1.4-.45s.19-1,.24-1.47c.3-3.25.58-6.51.9-9.77,0-.44-.06-.57-.53-.56-2.77,0-5.55,0-8.33,0v-6.08c1.4.08,2.8.17,4.2.22.36,0,.47.13.5.47.07,1,.18,2,.26,3.07,0,.31.08.49.47.48,1,0,2.05,0,3.08,0,.31,0,.38-.11.35-.39-.08-.75-.14-1.5-.2-2.25-.16-1.73-.3-3.45-.45-5.17,0-.25,0-.45-.39-.45l-7.82,0Z"/><path class="a53a87d3-9a25-48bc-b9df-9a0ef7cce2fd" d="M145.18,412.7a6.47,6.47,0,0,1-1.39,0h-6.48c-.39,0-.5-.08-.46-.48.35-3.76.68-7.52,1-11.27a15.19,15.19,0,0,0,.17-1.64c0-.56.23-.62.7-.62,2,0,4,0,6,0l.57,0v4.08c-1.08,0-2.16.06-3.24.06-.35,0-.46.1-.48.46-.14,1.71-.3,3.41-.48,5.12,0,.35,0,.43.39.42,1.23,0,2.47,0,3.7,0Z"/><path class="e321c42e-5634-4765-b875-0e7d6d8ece8c" d="M145.18,412.7c0-1.27,0-2.54,0-3.81l.1,0c2.78,0,5.56,0,8.33,0,.47,0,.57.12.53.56-.32,3.26-.6,6.52-.9,9.77,0,.51.11,1.14-.24,1.47s-.92.31-1.4.45l-6,1.66-.29.11-.12-.05,0-4,.1-.07,4-1c.18-.05.26-.12.27-.31.13-1.45.26-2.9.4-4.34,0-.25,0-.38-.32-.37l-4.31,0Z"/><path class="a53a87d3-9a25-48bc-b9df-9a0ef7cce2fd" d="M145.18,418.86l0,4-7.52-2.07a.36.36,0,0,1-.31-.38c-.15-1.78-.31-3.55-.48-5.32,0-.29,0-.44.36-.43,1,0,2.09,0,3.13,0,.28,0,.39.07.41.37,0,.73.16,1.47.18,2.2a.56.56,0,0,0,.5.62C142.68,418.15,143.93,418.51,145.18,418.86Z"/><path class="b2b32114-f9f0-4cb0-ab2e-304fa7af119e" d="M145.28,412.77l4.31,0c.29,0,.34.12.32.37-.14,1.44-.27,2.89-.4,4.34,0,.19-.09.26-.27.31l-4,1Z"/><path class="e321c42e-5634-4765-b875-0e7d6d8ece8c" d="M145.27,402.77v-4l7.82,0c.36,0,.37.2.39.45.15,1.72.29,3.44.45,5.17.06.75.12,1.5.2,2.25,0,.28,0,.39-.35.39-1,0-2.06,0-3.08,0-.39,0-.45-.17-.47-.48-.08-1-.19-2-.26-3.07,0-.34-.14-.46-.5-.47C148.07,402.94,146.67,402.85,145.27,402.77Z"/><path class="ec1b108f-0592-4bba-b6b1-5166b7ea1fba" d="M145.27,408.85l-.1,0c-1.23,0-2.47,0-3.7,0-.34,0-.42-.07-.39-.42.18-1.71.34-3.41.48-5.12,0-.36.13-.46.48-.46,1.08,0,2.16,0,3.24-.06C145.28,404.82,145.27,406.84,145.27,408.85Z"/><text class="fc204021-207c-4ab5-9cb8-7d40eb2b22e6" transform="translate(114 457.03)">ajax_p<tspan class="e4f4398e-87d6-4c9e-aa1d-5b72c44dec79" x="52.54" y="0">o</tspan><tspan class="bab14514-c77a-4232-887f-e5e79935e90e" x="62.44" y="0">s</tspan><tspan class="b6bcd536-d254-405f-b16e-930ac68affd1" x="70.06" y="0">t</tspan><tspan class="bd30a3b4-85e6-436a-b053-a43eab382c65" x="76.72" y="0">.</tspan><tspan x="82.76" y="0">js</tspan></text><path class="b671400a-ac40-4d77-b0e5-4f7c1ada75d9" d="M119,478.75a5,5,0,0,0-5,5v70a5,5,0,0,0,5,5"/><polygon class="f6b6316a-832b-443d-baaa-5d8b023aed3b" points="95 502.04 56.69 502.04 52.8 495.25 39 495.25 39 538.25 95 538.25 95 502.04"/><text class="e8264eb7-8a77-464e-a293-37d785e6b6df" transform="translate(40.92 522.37)">d<tspan class="bd67dcb2-d589-4fa5-94e2-497fd1eb1a32" x="7.11" y="0">a</tspan><tspan class="a98a3813-bbf6-4c8a-aa9d-dbf53ffd8562" x="13.4" y="0">t</tspan><tspan x="17.46" y="0">a-po</tspan><tspan class="b594aba5-9438-445d-b416-f94a44395aa9" x="41.97" y="0">s</tspan><tspan class="bed3b3df-0e9b-4d2b-b276-d8e81fc08335" x="47.09" y="0">t</tspan></text></svg>