<svg id="ab16018b-b934-4fc8-9646-d6fc7710cefe" data-name="Capa 1" xmlns="http://www.w3.org/2000/svg" viewBox="0 0 520 480"><defs><style>.a5affde0-ecf7-42f2-97b0-984ac05bffac,.e5a71cca-14c8-4fd0-af85-a99c181837d8{stroke:#000;stroke-linejoin:round;}.a5affde0-ecf7-42f2-97b0-984ac05bffac{stroke-linecap:round;stroke-width:4px;}.e5a71cca-14c8-4fd0-af85-a99c181837d8{fill:none;stroke-width:5px;}.b5dcc7e9-574f-47da-8937-9480da3b56cb{fill:#fff;}.b556adcc-9f04-40b3-b337-c2e98ba08d9b{fill:#e34f27;}.b21e2a05-e461-41e7-91ce-79ed82a3fff4{fill:#f0662a;}.a1b64fa0-c0d3-48e2-8e67-b7fa63e33985{fill:#ebe8e7;}.bdb27755-54af-4b89-9aab-268a1cbfa196{fill:#ef590c;}.e826a56f-c4ae-429d-845c-ad942fb02190{fill:#fefdfc;}.bb1e4924-8ab4-4721-b877-16f4f86b68fd{fill:#fefdfd;}.e4b03595-82f5-4c31-b5a7-307d646c54e1{fill:#8692c1;}.a9b89032-5da2-4d59-9d95-05e152d567e1{fill:#232633;}.b992ce56-bc43-4f98-9e64-a80bbdc9bd60{fill:#1572b6;}.fde8e7de-18f0-48c7-9825-590e025479ac{fill:#34a8db;}.f3dfd3c0-a3a6-402b-a2a2-493f309a37e4{fill:#e7e8e9;}.ace6f001-5412-4f44-a0e5-7918f8d3e1db{fill:#e4e7e9;}.f9446da9-23e2-49f4-91ab-88dabbc1d0c3{fill:#fdfdfe;}.ec225216-e419-4ae0-a497-8a591d314ce3{fill:#efa001;}.bee579c2-b7ba-4d67-a77a-2c39c5a1ba30{fill:#f9bd01;}.fbdc89a9-2d3a-4f05-a49e-334825e17a97{fill:#ebebea;}.b03a555e-4592-47ad-90c5-fee7d6442a32{fill:#fefefd;}</style></defs><title>_</title><polygon class="a5affde0-ecf7-42f2-97b0-984ac05bffac" points="92 266.79 53.69 266.79 49.79 260 36 260 36 303 92 303 92 266.79"/><polyline class="e5a71cca-14c8-4fd0-af85-a99c181837d8" points="37.95 54 20 54 20 394.81 115.14 394.72"/><line class="e5a71cca-14c8-4fd0-af85-a99c181837d8" x1="36.77" y1="167.15" x2="20" y2="167.15"/><line class="e5a71cca-14c8-4fd0-af85-a99c181837d8" x1="114" y1="281.5" x2="20" y2="281.5"/><path class="b5dcc7e9-574f-47da-8937-9480da3b56cb" d="M53.58,291.56a5.73,5.73,0,0,1-2.16-.41A4.87,4.87,0,0,1,49.68,290,5.55,5.55,0,0,1,48.53,288a7.43,7.43,0,0,1-.42-2.58,7,7,0,0,1,.45-2.6,6.07,6.07,0,0,1,1.23-1.94,5.22,5.22,0,0,1,1.79-1.2,5.73,5.73,0,0,1,2.14-.4,4.38,4.38,0,0,1,2,.4,7.22,7.22,0,0,1,1.44,1l-1,1.3a4.77,4.77,0,0,0-1.07-.74,2.6,2.6,0,0,0-1.26-.29,3.42,3.42,0,0,0-1.46.32,3.33,3.33,0,0,0-1.15.93,4.69,4.69,0,0,0-.76,1.42,6,6,0,0,0-.27,1.84,6.06,6.06,0,0,0,.26,1.82,4.47,4.47,0,0,0,.73,1.41,3.45,3.45,0,0,0,1.14.91,3.51,3.51,0,0,0,3,0,6.31,6.31,0,0,0,1.23-.83l.87,1.32a6.26,6.26,0,0,1-1.75,1.09A5.35,5.35,0,0,1,53.58,291.56Z"/><path class="b5dcc7e9-574f-47da-8937-9480da3b56cb" d="M63,291.56a6.33,6.33,0,0,1-2.37-.46,7.3,7.3,0,0,1-2-1.15l1-1.32a8.57,8.57,0,0,0,1.58,1A4.32,4.32,0,0,0,63,290a2.48,2.48,0,0,0,1.72-.53,1.66,1.66,0,0,0,.58-1.29,1.35,1.35,0,0,0-.24-.8,2.26,2.26,0,0,0-.61-.58,4.34,4.34,0,0,0-.86-.45l-1-.38c-.42-.15-.84-.31-1.25-.49a5,5,0,0,1-1.12-.68,3.18,3.18,0,0,1-.8-.92,2.44,2.44,0,0,1-.31-1.27,3.23,3.23,0,0,1,.27-1.31,3,3,0,0,1,.79-1.06,4,4,0,0,1,1.26-.69,5.2,5.2,0,0,1,1.68-.25,5.14,5.14,0,0,1,2,.38,6.37,6.37,0,0,1,1.6.94l-.94,1.24a6.14,6.14,0,0,0-1.25-.74,3.45,3.45,0,0,0-1.41-.29,2.22,2.22,0,0,0-1.62.51,1.55,1.55,0,0,0-.52,1.17,1.15,1.15,0,0,0,.22.71,2,2,0,0,0,.57.53,4.94,4.94,0,0,0,.83.41l1,.37,1.26.5a4.87,4.87,0,0,1,1.14.66,3.22,3.22,0,0,1,.83,1,2.79,2.79,0,0,1,.33,1.4,3.35,3.35,0,0,1-.28,1.34,3,3,0,0,1-.82,1.1,3.88,3.88,0,0,1-1.34.76A5.78,5.78,0,0,1,63,291.56Z"/><path class="b5dcc7e9-574f-47da-8937-9480da3b56cb" d="M73,291.56a6.38,6.38,0,0,1-2.38-.46,7.45,7.45,0,0,1-2-1.15l1-1.32a8.5,8.5,0,0,0,1.57,1,4.38,4.38,0,0,0,1.86.38,2.49,2.49,0,0,0,1.73-.53,1.69,1.69,0,0,0,.57-1.29,1.35,1.35,0,0,0-.24-.8,2.26,2.26,0,0,0-.61-.58,4.54,4.54,0,0,0-.85-.45l-1-.38c-.42-.15-.83-.31-1.25-.49a5.15,5.15,0,0,1-1.11-.68,3.38,3.38,0,0,1-.81-.92,2.54,2.54,0,0,1-.31-1.27,3.08,3.08,0,0,1,.28-1.31,2.92,2.92,0,0,1,.79-1.06,3.8,3.8,0,0,1,1.26-.69,5.12,5.12,0,0,1,1.68-.25,5.2,5.2,0,0,1,2,.38,6.48,6.48,0,0,1,1.59.94L76,281.88a6.42,6.42,0,0,0-1.25-.74,3.5,3.5,0,0,0-1.42-.29,2.25,2.25,0,0,0-1.62.51,1.58,1.58,0,0,0-.51,1.17,1.21,1.21,0,0,0,.21.71,2.12,2.12,0,0,0,.58.53,4.94,4.94,0,0,0,.83.41l1,.37,1.26.5a5.31,5.31,0,0,1,1.14.66,3.53,3.53,0,0,1,.83,1,2.9,2.9,0,0,1,.32,1.4,3.34,3.34,0,0,1-.27,1.34,3.14,3.14,0,0,1-.82,1.1,3.88,3.88,0,0,1-1.34.76A5.78,5.78,0,0,1,73,291.56Z"/><path class="b556adcc-9f04-40b3-b337-c2e98ba08d9b" d="M65.93,44.86H80c1.05,0,1.1.06,1,1.06q-.78,8.67-1.55,17.33-.53,5.86-1,11.73c0,.49-.23.67-.7.8-3.75,1-7.5,2.06-11.24,3.11a1.57,1.57,0,0,1-.91,0c-3.74-1.06-7.48-2.11-11.24-3.12a.77.77,0,0,1-.67-.82q-.78-9.2-1.6-18.37C51.71,53,51.38,49.51,51,46c-.1-1.11-.11-1.11,1-1.11Zm0,17.88,0,5.76c-.93-.11-1.77-.52-2.68-.67s-1.74-.48-1.54-1.73a7.28,7.28,0,0,0-.1-1.12c0-.42-.18-.54-.58-.53-.86,0-1.73,0-2.59,0-.56,0-.7.16-.64.69.15,1.5.29,3,.39,4.49,0,.59.29.81.85,1,2.31.61,4.61,1.28,6.91,1.93,0,.95,0,1.91,0,2.86s.24,1,1.06.79l2.74-.77c1.74-.47,3.5-.92,5.23-1.44.36-.11.94-.11,1-.66q.21-1.76.36-3.51c.13-1.58.23-3.15.37-4.73.21-2.45.45-4.91.67-7.37.14-1.51.25-3,.39-4.54s.31-3.26.48-4.88c.06-.59-.14-.81-.77-.81q-5.33,0-10.65,0c-.66,0-.89.28-.89.88,0,.86,0,1.73,0,2.6H57.44c-.29,0-.65-.14-.87.21q.52,5.7,1,11.4c.25.29.59.17.9.17Z"/><path class="b21e2a05-e461-41e7-91ce-79ed82a3fff4" d="M65.93,50.93c0-.87,0-1.74,0-2.6,0-.6.23-.88.89-.88q5.32,0,10.65,0c.63,0,.83.22.77.81-.17,1.62-.33,3.25-.48,4.88s-.25,3-.39,4.54c-.22,2.46-.46,4.92-.67,7.37-.14,1.58-.24,3.15-.37,4.73q-.15,1.75-.36,3.51c-.07.55-.65.55-1,.66-1.73.52-3.49,1-5.23,1.44L67,76.16c-.82.23-1,.06-1.06-.79s0-1.91,0-2.86v-.08a1.94,1.94,0,0,0,.42,0c2.3-.63,4.59-1.28,6.9-1.89.44-.12.5-.38.53-.75.27-3.1.57-6.19.81-9.29,0-.57.38-1.17,0-1.75-.25-.27-.59-.16-.89-.16H65.93V55l0-.06c2.89,0,5.78,0,8.67,0,.41,0,.54-.14.56-.54,0-.84.12-1.67.18-2.5l.06-.25c.05-.2.12-.4-.1-.54s-.6-.16-.9-.16Z"/><path class="a1b64fa0-c0d3-48e2-8e67-b7fa63e33985" d="M57.6,62.55q-.51-5.7-1-11.4l9.36,0,0,3.72,0,.06c-1.55,0-3.1,0-4.65,0-.44,0-.62.1-.56.57.14,1,.23,2,.34,3.08.18.36.5.18.76.19l4.11,0v3.73Z"/><path class="a1b64fa0-c0d3-48e2-8e67-b7fa63e33985" d="M65.93,72.51c-2.3-.65-4.6-1.32-6.91-1.93-.56-.15-.81-.37-.85-1-.1-1.5-.24-3-.39-4.49-.06-.53.08-.72.64-.69.86,0,1.73,0,2.59,0,.4,0,.58.11.58.53a7.28,7.28,0,0,1,.1,1.12c-.2,1.25.54,1.56,1.54,1.73s1.75.56,2.68.67c0,0,0,.07,0,.11v3.9Z"/><path class="b21e2a05-e461-41e7-91ce-79ed82a3fff4" d="M65.92,68.61s0-.07,0-.11c0-1.92,0-3.84,0-5.76h4.65c-.11,1.42-.24,2.85-.33,4.27,0,.42-.29.5-.61.59C68.4,67.92,67.16,68.27,65.92,68.61Z"/><path class="bdb27755-54af-4b89-9aab-268a1cbfa196" d="M65.93,51.17l-9.36,0c.22-.35.58-.21.87-.21H74.38c.3,0,.64-.11.9.16Z"/><path class="bdb27755-54af-4b89-9aab-268a1cbfa196" d="M70.58,62.73H65.93l-7.43,0c-.31,0-.65.12-.9-.17l8.32,0c1.24,0,2.48,0,3.72,0C70,62.57,70.32,62.39,70.58,62.73Z"/><path class="e826a56f-c4ae-429d-845c-ad942fb02190" d="M70.58,62.73c-.26-.34-.63-.16-.94-.17-1.24,0-2.48,0-3.72,0,0-1.25,0-2.49,0-3.73l8.65-.07c.38.58,0,1.18,0,1.75-.24,3.1-.54,6.19-.81,9.29,0,.37-.09.63-.53.75-2.31.61-4.6,1.26-6.9,1.89a1.94,1.94,0,0,1-.42,0V68.61c1.24-.34,2.48-.69,3.72-1,.32-.09.58-.17.61-.59C70.34,65.58,70.47,64.15,70.58,62.73Z"/><path class="bb1e4924-8ab4-4721-b877-16f4f86b68fd" d="M65.93,51.17l9.35-.07c.22.14.15.34.1.54l-.06.25c-.06.83-.14,1.66-.18,2.5,0,.4-.15.54-.56.54-2.89,0-5.78,0-8.67,0C65.92,53.65,65.92,52.41,65.93,51.17Z"/><path class="b556adcc-9f04-40b3-b337-c2e98ba08d9b" d="M61.06,58.57c-.11-1-.2-2-.34-3.08-.06-.47.12-.58.56-.57,1.55,0,3.1,0,4.65,0v3.61Z"/><path class="bdb27755-54af-4b89-9aab-268a1cbfa196" d="M61.06,58.57H73.69c.3,0,.64-.11.89.16l-8.65.07-4.11,0C61.56,58.75,61.24,58.93,61.06,58.57Z"/><path class="a1b64fa0-c0d3-48e2-8e67-b7fa63e33985" d="M75.32,51.89l.06-.25Z"/><path class="b556adcc-9f04-40b3-b337-c2e98ba08d9b" d="M91.7,88.42H40.3C37,87.24,36,84.81,36,81.45Q36.12,54.21,36,27c0-3.36,1-5.79,4.3-7H74.67c4.5.81,7.89,3.39,10.88,6.69,1.86,2.06,3.91,4,5.89,5.92A14.75,14.75,0,0,1,96,43.5c0,12.65,0,25.3,0,38C96,84.8,95,87.24,91.7,88.42Zm-17.09-64c-.6-.06-1-.14-1.39-.14q-15.58,0-31.17,0c-1.34,0-1.78.58-1.76,1.85,0,3.54,0,7.09,0,10.64q0,22.65,0,45.3c0,1.25.12,2.16,1.75,2.15q24,0,47.9,0c1.21,0,1.77-.43,1.77-1.68q0-19.92,0-39.83c0-1.06-.36-1.38-1.42-1.37-4.66.05-9.32,0-14,0h-1.7Zm14.6,12.65L78.92,26.65v10.4Z"/><path class="e4b03595-82f5-4c31-b5a7-307d646c54e1" d="M64.17,162.38h5.3c.13.18.32.12.49.13a33.08,33.08,0,0,1,8.46,1.74A20.12,20.12,0,0,1,83.69,167a9.47,9.47,0,0,1,3.67,5.09v2.12c-.16.07-.17.25-.21.39a7.16,7.16,0,0,1-1.65,2.91,15.82,15.82,0,0,1-6.76,4.25A36.14,36.14,0,0,1,59.35,183a22.93,22.93,0,0,1-9.47-3.89,9.39,9.39,0,0,1-3.17-3.83c-.16-.36-.14-.78-.44-1.08v-2.25c0-.05.11-.09.13-.14A9.57,9.57,0,0,1,51,166.27a26.84,26.84,0,0,1,10.33-3.5A21.14,21.14,0,0,0,64.17,162.38ZM76,168c-.75,0-1.5,0-2.25,0-.47,0-.68.12-.74.6s-.22,1.12-.33,1.69c-.56,2.85-1.11,5.71-1.69,8.56-.1.45,0,.55.43.53s1.11,0,1.66,0c.35,0,.51-.1.56-.45.09-.63.24-1.25.34-1.89.07-.42.21-.65.71-.61a18.87,18.87,0,0,0,2,0,4.93,4.93,0,0,0,4.93-4.07c.53-2.74-.75-4.31-3.56-4.36Zm-18.87,0v0c-.77,0-1.54,0-2.31,0-.41,0-.57.12-.65.54q-1,5.16-2,10.32c-.09.43,0,.54.44.52s1.11,0,1.66,0c.34,0,.51-.07.56-.45.09-.68.26-1.35.37-2,.06-.34.19-.49.56-.47.66,0,1.33,0,2,0a4.94,4.94,0,0,0,5.09-4.27c.42-2.43-.69-3.91-3.14-4.12C58.84,168,58,168,57.15,168Zm12.46,8.4a7,7,0,0,1,.93,0c.44.06.58-.15.64-.54.27-1.65.48-3.32.85-5s-.59-2.63-2.17-2.88a15.86,15.86,0,0,0-2.58-.06c-.39,0-.58-.1-.47-.53s.15-.78.23-1.17c.26-1.27.26-1.26-1-1.26-.31,0-.62,0-.93,0s-.53.1-.6.49c-.29,1.61-.62,3.21-.94,4.8-.37,1.84-.73,3.68-1.11,5.52-.1.48,0,.63.51.59a12.85,12.85,0,0,1,1.52,0c.41,0,.57-.11.65-.53.32-1.76.7-3.5,1-5.26.08-.43.25-.6.69-.56s1,0,1.46,0c.9,0,1.1.27.93,1.14l-.72,3.83c-.08.43-.35,1-.17,1.26S69.23,176.38,69.61,176.43Z"/><path class="a9b89032-5da2-4d59-9d95-05e152d567e1" d="M76,168h2c2.81.05,4.09,1.62,3.56,4.36a4.93,4.93,0,0,1-4.93,4.07,18.87,18.87,0,0,1-2,0c-.5,0-.64.19-.71.61-.1.64-.25,1.26-.34,1.89,0,.35-.21.47-.56.45-.55,0-1.11,0-1.66,0s-.53-.08-.43-.53c.58-2.85,1.13-5.71,1.69-8.56.11-.57.26-1.12.33-1.69s.27-.62.74-.6C74.52,168,75.27,168,76,168Zm.61,2.09h-.85c-.23,0-.39,0-.43.3-.2,1.19-.39,2.39-.59,3.58,0,.2,0,.35.26.34a5.87,5.87,0,0,0,2.53-.28,2.87,2.87,0,0,0,1.33-2.93c-.14-.7-.76-1-2-1Z"/><path class="a9b89032-5da2-4d59-9d95-05e152d567e1" d="M57.15,168c.84,0,1.69-.06,2.52,0,2.45.21,3.56,1.69,3.14,4.12a4.94,4.94,0,0,1-5.09,4.27c-.66,0-1.33,0-2,0-.37,0-.5.13-.56.47-.11.67-.28,1.34-.37,2,0,.38-.22.46-.56.45-.55,0-1.11,0-1.66,0s-.53-.09-.44-.52q1.05-5.16,2-10.32c.08-.42.24-.55.65-.54.77,0,1.54,0,2.31,0Zm.61,2.06a3.53,3.53,0,0,1-.46,0c-.55-.07-.85.08-.89.71s-.23,1.17-.27,1.76-.54,1.36-.08,1.67,1.25.12,1.87,0a2.6,2.6,0,0,0,2.13-3C60,170.42,59.37,170.09,57.76,170.09Z"/><path class="a9b89032-5da2-4d59-9d95-05e152d567e1" d="M69.61,176.43c-.38-.05-1,.21-1.25-.11s.09-.83.17-1.26l.72-3.83c.17-.87,0-1.12-.93-1.14-.49,0-1,0-1.46,0s-.61.13-.69.56c-.33,1.76-.71,3.5-1,5.26-.08.42-.24.55-.65.53a12.85,12.85,0,0,0-1.52,0c-.48,0-.61-.11-.51-.59.38-1.84.74-3.68,1.11-5.52.32-1.59.65-3.19.94-4.8.07-.39.22-.52.6-.49s.62,0,.93,0c1.26,0,1.26,0,1,1.26-.08.39-.13.78-.23,1.17s.08.53.47.53a15.86,15.86,0,0,1,2.58.06c1.58.25,2.55,1.2,2.17,2.88s-.58,3.3-.85,5c-.06.39-.2.6-.64.54A7,7,0,0,0,69.61,176.43Z"/><path class="e4b03595-82f5-4c31-b5a7-307d646c54e1" d="M76.63,170.09h.2c1.29,0,1.91.31,2,1A2.87,2.87,0,0,1,77.55,174a5.87,5.87,0,0,1-2.53.28c-.25,0-.29-.14-.26-.34.2-1.19.39-2.39.59-3.58,0-.25.2-.31.43-.3Z"/><path class="e4b03595-82f5-4c31-b5a7-307d646c54e1" d="M57.76,170.09c1.61,0,2.23.33,2.3,1.2a2.6,2.6,0,0,1-2.13,3c-.62.09-1.43.27-1.87,0s0-1.09.08-1.67.24-1.17.27-1.76.34-.78.89-.71A3.53,3.53,0,0,0,57.76,170.09Z"/><path class="e4b03595-82f5-4c31-b5a7-307d646c54e1" d="M93.22,202.29H40.41C37,201.07,36,198.57,36,195.13q.12-28,0-56c0-3.45,1-5.95,4.41-7.17H75.72c4.63.83,8.11,3.48,11.18,6.87,1.92,2.12,4,4.07,6,6.08a15.17,15.17,0,0,1,4.65,11.19c0,13-.06,26,0,39C97.66,198.57,96.6,201.07,93.22,202.29ZM75.66,136.52c-.61-.06-1-.14-1.42-.14-10.67,0-21.35,0-32,0-1.38,0-1.83.59-1.81,1.89,0,3.65,0,7.29,0,10.93q0,23.26,0,46.54c0,1.29.13,2.22,1.8,2.22q24.6-.06,49.2,0c1.24,0,1.82-.44,1.82-1.73q0-20.46,0-40.91c0-1.09-.37-1.42-1.45-1.41-4.79.05-9.58,0-14.37,0H75.66Zm15,13c-3.52-3.57-7.07-7.15-10.57-10.69v10.69Z"/><path class="b992ce56-bc43-4f98-9e64-a80bbdc9bd60" d="M144.83,275c4.86,0,9.72,0,14.58,0,.76,0,.86.24.8.9q-1.17,13-2.33,26c-.12,1.33-.26,2.66-.35,4a.8.8,0,0,1-.7.84Q151,308.32,145.2,310a1.53,1.53,0,0,1-.85,0c-3.82-1.07-7.63-2.14-11.46-3.17a.91.91,0,0,1-.79-.95q-1-11.91-2.12-23.82c-.19-2.06-.35-4.13-.56-6.19-.06-.6.07-.81.73-.8C135,275,139.93,275,144.83,275Zm-.27,14c-1.24,0-2.47,0-3.71,0-.38,0-.63,0-.58.52.1,1,.17,1.94.23,2.91,0,.47.35.47.69.47l3.54,0V299l-2.48-.65c-1.65-.45-1.65-.45-1.85-2.1a8.23,8.23,0,0,1-.11-1c0-.4-.18-.51-.55-.5-.91,0-1.83,0-2.75,0-.54,0-.65.19-.6.68.16,1.56.31,3.12.41,4.68a1,1,0,0,0,.87,1c2.37.63,4.72,1.32,7.07,2v3.2c0,1.11,0,1.11,1,.81,2.59-.72,5.17-1.45,7.76-2.16,1.65-.46,1.62-.45,1.7-2.14s.24-3.47.39-5.2c.21-2.38.45-4.75.67-7.12.14-1.56.26-3.12.4-4.67q.33-3.66.67-7.3c.07-.63-.09-.9-.8-.89q-5.52,0-11,0c-.62,0-.81.18-.83.81a6.7,6.7,0,0,1-.16,2.71c-2.89,0-5.79,0-8.68,0-.58,0-.8.15-.71.75a17.15,17.15,0,0,1,.24,2.37c0,.7.31.8.92.8,2.81,0,5.61,0,8.42,0,0,.38,0,.76,0,1.13C144.66,287.18,145,288.12,144.56,289Z"/><path class="fde8e7de-18f0-48c7-9825-590e025479ac" d="M144.56,281.18a6.7,6.7,0,0,0,.16-2.71c0-.63.21-.81.83-.81q5.5,0,11,0c.71,0,.87.26.8.89q-.35,3.65-.67,7.3c-.14,1.55-.26,3.11-.4,4.67-.22,2.37-.46,4.74-.67,7.12-.15,1.73-.31,3.46-.39,5.2s-.05,1.68-1.7,2.14c-2.59.71-5.17,1.44-7.76,2.16-1,.3-1,.3-1-.81v-3.2l.19-.08c2.25-.61,4.49-1.28,6.77-1.81.91-.21,1.14-.66,1.2-1.5.19-2.57.45-5.13.68-7.69q.45-5.08.91-10.17c0-.49-.07-.68-.6-.68-3,0-6,0-9,.05Z"/><path class="f3dfd3c0-a3a6-402b-a2a2-493f309a37e4" d="M144.93,303.05l-.19.08c-2.35-.66-4.7-1.35-7.07-2a1,1,0,0,1-.87-1c-.1-1.56-.25-3.12-.41-4.68,0-.49.06-.7.6-.68.92,0,1.84,0,2.75,0,.37,0,.55.1.55.5a8.23,8.23,0,0,0,.11,1c.2,1.65.2,1.65,1.85,2.1l2.48.65.19.06Z"/><path class="ace6f001-5412-4f44-a0e5-7918f8d3e1db" d="M144.56,281.18l.35.07c0,1.26,0,2.52,0,3.78l-.17.1c-2.81,0-5.61,0-8.42,0-.61,0-.92-.1-.92-.8a17.15,17.15,0,0,0-.24-2.37c-.09-.6.13-.75.71-.75C138.77,281.21,141.67,281.19,144.56,281.18Z"/><path class="fde8e7de-18f0-48c7-9825-590e025479ac" d="M144.92,299.08l-.19-.06V293s0-.08,0-.12a33.94,33.94,0,0,0,4.16.08c.49,0,.7.12.65.65-.14,1.32-.26,2.64-.36,4,0,.42-.32.44-.6.52Z"/><path class="fde8e7de-18f0-48c7-9825-590e025479ac" d="M144.75,285.13l.17-.1c1.54,0,3.08.07,4.62.05.6,0,.78.19.7.77-.1.82-.17,1.65-.22,2.47,0,.54-.25.75-.83.74-1.48,0-3,0-4.44,0l-.19-.08c.39-.89.1-1.83.18-2.75C144.77,285.89,144.75,285.51,144.75,285.13Z"/><path class="ace6f001-5412-4f44-a0e5-7918f8d3e1db" d="M144.56,289l.19.08a9.11,9.11,0,0,1,0,3.75s0,.08,0,.12l-3.54,0c-.34,0-.66,0-.69-.47-.06-1-.13-1.94-.23-2.91-.05-.48.2-.52.58-.52C142.09,289,143.32,289,144.56,289Z"/><path class="f9446da9-23e2-49f4-91ab-88dabbc1d0c3" d="M144.74,292.84a9.11,9.11,0,0,0,0-3.75c1.48,0,3-.06,4.44,0,.58,0,.79-.2.83-.74,0-.82.12-1.65.22-2.47.08-.58-.1-.77-.7-.77-1.54,0-3.08,0-4.62-.05,0-1.26,0-2.52,0-3.78,3,0,6,0,9-.05.53,0,.65.19.6.68q-.47,5.08-.91,10.17c-.23,2.56-.49,5.12-.68,7.69-.06.84-.29,1.29-1.2,1.5-2.28.53-4.52,1.2-6.77,1.81,0-1.32,0-2.65,0-4l3.67-1c.28-.08.57-.1.6-.52.1-1.33.22-2.65.36-4,0-.53-.16-.64-.65-.65A33.94,33.94,0,0,1,144.74,292.84Z"/><path class="b992ce56-bc43-4f98-9e64-a80bbdc9bd60" d="M171.22,318.29H118.41c-3.37-1.22-4.42-3.72-4.41-7.16q.12-28,0-56c0-3.45,1-5.95,4.41-7.17h35.31c4.63.83,8.11,3.48,11.18,6.87,1.92,2.12,4,4.07,6,6.08a15.17,15.17,0,0,1,4.65,11.19c0,13-.06,26,0,39C175.66,314.57,174.6,317.07,171.22,318.29Zm-17.56-65.77c-.61-.06-1-.14-1.42-.14-10.67,0-21.35,0-32,0-1.38,0-1.83.59-1.81,1.89,0,3.65,0,7.29,0,10.93q0,23.26,0,46.54c0,1.29.13,2.22,1.8,2.22q24.6-.06,49.2,0c1.24,0,1.82-.44,1.82-1.73q0-20.46,0-40.91c0-1.09-.37-1.42-1.45-1.41-4.79.05-9.58,0-14.37,0h-1.75Zm15,13c-3.52-3.57-7.07-7.15-10.57-10.69v10.69Z"/><path class="b992ce56-bc43-4f98-9e64-a80bbdc9bd60" d="M117.8,337.51a5.4,5.4,0,0,1-1.81-.34,5.48,5.48,0,0,1-1.61-.91l1.19-1.65a5.31,5.31,0,0,0,1.17.7,2.82,2.82,0,0,0,1.13.23,1.52,1.52,0,0,0,.87-.19.67.67,0,0,0,.27-.56.54.54,0,0,0-.16-.39,1.52,1.52,0,0,0-.41-.31,3.08,3.08,0,0,0-.58-.26l-.67-.26c-.28-.11-.55-.24-.83-.38a3.38,3.38,0,0,1-.75-.53,2.54,2.54,0,0,1-.56-.74,2.05,2.05,0,0,1-.22-1,2.71,2.71,0,0,1,.24-1.14,2.6,2.6,0,0,1,.7-.88,3.46,3.46,0,0,1,1.08-.57,4.69,4.69,0,0,1,1.4-.2,4.19,4.19,0,0,1,1.8.35,6.65,6.65,0,0,1,1.35.78l-1.19,1.59a4.13,4.13,0,0,0-.95-.56,2.27,2.27,0,0,0-.94-.2c-.67,0-1,.23-1,.7a.5.5,0,0,0,.15.37,1.22,1.22,0,0,0,.39.28,6,6,0,0,0,.55.24l.66.25c.29.1.57.23.86.36a3.36,3.36,0,0,1,.77.52,2.21,2.21,0,0,1,.78,1.8,2.82,2.82,0,0,1-.23,1.13,2.56,2.56,0,0,1-.7.91,3.55,3.55,0,0,1-1.16.61A5,5,0,0,1,117.8,337.51Z"/><path class="b992ce56-bc43-4f98-9e64-a80bbdc9bd60" d="M126.22,337.51a3.51,3.51,0,0,1-1.41-.26,2.34,2.34,0,0,1-1-.7,2.72,2.72,0,0,1-.54-1.09,5.14,5.14,0,0,1-.17-1.41v-3.62h-1.23v-2l1.37-.11.31-2.37h2.19v2.37h2.15v2.07h-2.15V334a1.54,1.54,0,0,0,.32,1.09,1.08,1.08,0,0,0,.84.34,1.72,1.72,0,0,0,.44-.06,3.19,3.19,0,0,0,.4-.12l.42,1.92c-.25.07-.53.15-.85.22A5.37,5.37,0,0,1,126.22,337.51Z"/><path class="b992ce56-bc43-4f98-9e64-a80bbdc9bd60" d="M130.67,340.78a4.64,4.64,0,0,1-.7,0,3.53,3.53,0,0,1-.56-.14l.47-2,.29.07a1.77,1.77,0,0,0,.3,0,1.47,1.47,0,0,0,1-.33,2,2,0,0,0,.54-.84l.12-.47-3.43-8.7h2.66l1.28,3.84c.13.41.25.82.36,1.24l.34,1.3h.07l.3-1.27c.1-.43.21-.85.31-1.27l1.08-3.84h2.54l-3.09,9a11.7,11.7,0,0,1-.68,1.49,4,4,0,0,1-.81,1.06,3.18,3.18,0,0,1-1,.64A4.09,4.09,0,0,1,130.67,340.78Z"/><path class="b992ce56-bc43-4f98-9e64-a80bbdc9bd60" d="M141.49,337.51a2.77,2.77,0,0,1-1.15-.22,1.79,1.79,0,0,1-.75-.6,2.6,2.6,0,0,1-.41-.94,5.7,5.7,0,0,1-.12-1.23v-9.85h2.65v10a.85.85,0,0,0,.15.57.43.43,0,0,0,.31.17h.16l.17,0,.32,2a2.67,2.67,0,0,1-.55.15A3.58,3.58,0,0,1,141.49,337.51Z"/><path class="b992ce56-bc43-4f98-9e64-a80bbdc9bd60" d="M148.2,337.51a5,5,0,0,1-1.78-.32,4.09,4.09,0,0,1-2.39-2.38,5.34,5.34,0,0,1-.35-2,5.14,5.14,0,0,1,.36-2,4.78,4.78,0,0,1,1-1.47,4.25,4.25,0,0,1,1.34-.93,4.23,4.23,0,0,1,3.23,0,3.35,3.35,0,0,1,1.19.9,3.83,3.83,0,0,1,.71,1.36,5.77,5.77,0,0,1,.24,1.7c0,.24,0,.47,0,.69s0,.37-.07.48h-5.35A2.18,2.18,0,0,0,147,335a2.47,2.47,0,0,0,1.52.46,3.73,3.73,0,0,0,1.93-.59l.88,1.6a6,6,0,0,1-1.52.74A5.37,5.37,0,0,1,148.2,337.51Zm-2-5.65h3.23a2,2,0,0,0-.35-1.23,1.32,1.32,0,0,0-1.15-.47,1.64,1.64,0,0,0-1.11.42A2.12,2.12,0,0,0,146.22,331.86Z"/><path class="b992ce56-bc43-4f98-9e64-a80bbdc9bd60" d="M155.06,337.51a1.5,1.5,0,0,1-1.14-.48,1.62,1.62,0,0,1-.46-1.18,1.65,1.65,0,0,1,.46-1.2,1.62,1.62,0,0,1,2.28,0,1.65,1.65,0,0,1,.46,1.2,1.62,1.62,0,0,1-.46,1.18A1.5,1.5,0,0,1,155.06,337.51Z"/><path class="b992ce56-bc43-4f98-9e64-a80bbdc9bd60" d="M162.64,337.51a4.72,4.72,0,0,1-1.74-.32,4,4,0,0,1-1.39-.91,4.13,4.13,0,0,1-.94-1.46,5.43,5.43,0,0,1-.34-2,4.81,4.81,0,0,1,.38-2,4.42,4.42,0,0,1,1-1.47,4.37,4.37,0,0,1,1.49-.91,5,5,0,0,1,1.76-.31,3.78,3.78,0,0,1,1.47.27,4.59,4.59,0,0,1,1.14.68l-1.24,1.71a1.87,1.87,0,0,0-2.74.16,2.88,2.88,0,0,0-.55,1.86,2.84,2.84,0,0,0,.56,1.85,1.78,1.78,0,0,0,1.43.69,2.06,2.06,0,0,0,.84-.19,4.61,4.61,0,0,0,.77-.46l1,1.73a4,4,0,0,1-1.44.81A4.82,4.82,0,0,1,162.64,337.51Z"/><path class="b992ce56-bc43-4f98-9e64-a80bbdc9bd60" d="M169.78,337.51a5.45,5.45,0,0,1-1.81-.34,5.61,5.61,0,0,1-1.61-.91l1.19-1.65a5.31,5.31,0,0,0,1.17.7,2.83,2.83,0,0,0,1.14.23,1.5,1.5,0,0,0,.86-.19.67.67,0,0,0,.27-.56.58.58,0,0,0-.15-.39,1.43,1.43,0,0,0-.42-.31,3.08,3.08,0,0,0-.58-.26l-.67-.26c-.27-.11-.55-.24-.83-.38a3.91,3.91,0,0,1-.75-.53,2.54,2.54,0,0,1-.56-.74,2.18,2.18,0,0,1-.22-1,2.72,2.72,0,0,1,.25-1.14,2.46,2.46,0,0,1,.69-.88,3.46,3.46,0,0,1,1.08-.57,4.73,4.73,0,0,1,1.4-.2,4.19,4.19,0,0,1,1.8.35,6.65,6.65,0,0,1,1.35.78l-1.18,1.59a4.41,4.41,0,0,0-1-.56,2.23,2.23,0,0,0-.93-.2c-.68,0-1,.23-1,.7a.53.53,0,0,0,.14.37,1.5,1.5,0,0,0,.39.28c.16.08.35.16.56.24l.65.25a9.19,9.19,0,0,1,.86.36,3.36,3.36,0,0,1,.77.52,2.19,2.19,0,0,1,.57.74,2.47,2.47,0,0,1,.22,1.06,2.66,2.66,0,0,1-.24,1.13,2.45,2.45,0,0,1-.7.91,3.49,3.49,0,0,1-1.15.61A5.12,5.12,0,0,1,169.78,337.51Z"/><path class="b992ce56-bc43-4f98-9e64-a80bbdc9bd60" d="M177.76,337.51a5.64,5.64,0,0,1-3.42-1.25l1.19-1.65a4.89,4.89,0,0,0,1.17.7,2.82,2.82,0,0,0,1.13.23,1.48,1.48,0,0,0,.86-.19.64.64,0,0,0,.27-.56.58.58,0,0,0-.15-.39,1.52,1.52,0,0,0-.41-.31,3.18,3.18,0,0,0-.59-.26l-.66-.26a8.84,8.84,0,0,1-.83-.38,3.69,3.69,0,0,1-.76-.53,2.73,2.73,0,0,1-.56-.74,2.17,2.17,0,0,1-.21-1,2.71,2.71,0,0,1,.24-1.14,2.46,2.46,0,0,1,.69-.88,3.46,3.46,0,0,1,1.08-.57,4.75,4.75,0,0,1,1.41-.2,4.25,4.25,0,0,1,1.8.35,7.25,7.25,0,0,1,1.35.78l-1.19,1.59a4.13,4.13,0,0,0-.95-.56,2.31,2.31,0,0,0-.94-.2c-.67,0-1,.23-1,.7a.5.5,0,0,0,.15.37,1.29,1.29,0,0,0,.38.28c.16.08.35.16.56.24l.66.25a9,9,0,0,1,.85.36,3.42,3.42,0,0,1,.78.52,2.3,2.3,0,0,1,.56.74,2.33,2.33,0,0,1,.22,1.06,2.82,2.82,0,0,1-.23,1.13,2.48,2.48,0,0,1-.71.91,3.4,3.4,0,0,1-1.15.61A5,5,0,0,1,177.76,337.51Z"/><path class="b556adcc-9f04-40b3-b337-c2e98ba08d9b" d="M38.49,96.7a1.57,1.57,0,0,1-1.1-.39,1.27,1.27,0,0,1-.43-1,1.24,1.24,0,0,1,.43-1,1.62,1.62,0,0,1,1.1-.38,1.6,1.6,0,0,1,1.1.38,1.24,1.24,0,0,1,.43,1,1.27,1.27,0,0,1-.43,1A1.56,1.56,0,0,1,38.49,96.7Zm-1.32,10.24V98h2.65v8.93Z"/><path class="b556adcc-9f04-40b3-b337-c2e98ba08d9b" d="M42.14,106.94V98H44.3l.18,1.14h.07a7.71,7.71,0,0,1,1.26-1,3.09,3.09,0,0,1,1.6-.4,2.38,2.38,0,0,1,2.12,1,4.62,4.62,0,0,1,.66,2.65v5.54H47.54v-5.2a2.44,2.44,0,0,0-.26-1.33,1,1,0,0,0-.84-.36,1.6,1.6,0,0,0-.86.22,4.53,4.53,0,0,0-.79.64v6Z"/><path class="b556adcc-9f04-40b3-b337-c2e98ba08d9b" d="M55.62,107.16a3.37,3.37,0,0,1-1.5-.33,3.19,3.19,0,0,1-1.15-.92,4.42,4.42,0,0,1-.74-1.47,6.6,6.6,0,0,1-.26-2,5.74,5.74,0,0,1,.31-2,4.8,4.8,0,0,1,.83-1.46,3.67,3.67,0,0,1,1.19-.93,3.1,3.1,0,0,1,1.38-.32,2.69,2.69,0,0,1,1.24.25,4.41,4.41,0,0,1,.95.68l-.11-1.37v-3h2.65v12.62H58.25l-.18-.88H58a4.2,4.2,0,0,1-1.1.78A2.85,2.85,0,0,1,55.62,107.16Zm.69-2.16a1.69,1.69,0,0,0,.78-.18,2,2,0,0,0,.67-.63v-3.66a2.3,2.3,0,0,0-.73-.45,2.48,2.48,0,0,0-.74-.12,1.43,1.43,0,0,0-1.12.6,3,3,0,0,0-.48,1.88,3.47,3.47,0,0,0,.42,1.94A1.37,1.37,0,0,0,56.31,105Z"/><path class="b556adcc-9f04-40b3-b337-c2e98ba08d9b" d="M66.75,107.16a5,5,0,0,1-1.79-.32,4,4,0,0,1-1.44-.92,4.34,4.34,0,0,1-1-1.46,5.34,5.34,0,0,1-.34-2,5.14,5.14,0,0,1,.36-2,4.58,4.58,0,0,1,.94-1.47,4.25,4.25,0,0,1,1.34-.93,3.9,3.9,0,0,1,1.57-.32,4,4,0,0,1,1.67.32,3.41,3.41,0,0,1,1.18.9,3.68,3.68,0,0,1,.71,1.36,5.77,5.77,0,0,1,.24,1.7,4.88,4.88,0,0,1,0,.68c0,.22,0,.38-.07.49H64.78a2.18,2.18,0,0,0,.8,1.43,2.5,2.5,0,0,0,1.53.46,3.73,3.73,0,0,0,1.92-.59l.88,1.6a5.8,5.8,0,0,1-1.52.74A5.31,5.31,0,0,1,66.75,107.16Zm-2-5.66H68a2.07,2.07,0,0,0-.34-1.22,1.36,1.36,0,0,0-1.16-.47,1.61,1.61,0,0,0-1.1.42A2,2,0,0,0,64.77,101.5Z"/><path class="b556adcc-9f04-40b3-b337-c2e98ba08d9b" d="M70.87,106.94l2.73-4.64L71,98h2.84l.8,1.44c.12.25.24.51.37.77s.25.51.38.76h.07l.31-.76c.11-.26.21-.52.31-.77L76.72,98h2.73l-2.59,4.59,2.76,4.34H76.77l-.86-1.48c-.15-.25-.29-.51-.43-.77s-.27-.52-.42-.77H75l-.34.76c-.12.26-.24.52-.34.78l-.71,1.48Z"/><path class="b556adcc-9f04-40b3-b337-c2e98ba08d9b" d="M82.28,107.16a1.5,1.5,0,0,1-1.14-.48,1.62,1.62,0,0,1-.46-1.18,1.65,1.65,0,0,1,.46-1.2,1.62,1.62,0,0,1,2.28,0,1.65,1.65,0,0,1,.46,1.2,1.62,1.62,0,0,1-.46,1.18A1.5,1.5,0,0,1,82.28,107.16Z"/><path class="b556adcc-9f04-40b3-b337-c2e98ba08d9b" d="M86.15,110.25V98h2.16l.18.88h.07a5,5,0,0,1,1.18-.78,3.11,3.11,0,0,1,1.36-.31A3.08,3.08,0,0,1,93.66,99a4.23,4.23,0,0,1,.69,1.43,6.76,6.76,0,0,1,.24,1.86,6.18,6.18,0,0,1-.31,2,4.71,4.71,0,0,1-.85,1.51,3.61,3.61,0,0,1-1.21.94,3.09,3.09,0,0,1-1.39.33,2.61,2.61,0,0,1-1.12-.25,3.45,3.45,0,0,1-1-.69l.09,1.42v2.61ZM90.22,105a1.47,1.47,0,0,0,1.17-.62,3.34,3.34,0,0,0,.48-2c0-1.61-.51-2.41-1.54-2.41a2.12,2.12,0,0,0-1.53.81v3.65a2,2,0,0,0,.72.45A2.21,2.21,0,0,0,90.22,105Z"/><path class="b556adcc-9f04-40b3-b337-c2e98ba08d9b" d="M96.46,106.94V94.32h2.65v3.1L99,99a7.62,7.62,0,0,1,1.17-.84,3.22,3.22,0,0,1,1.59-.38,2.37,2.37,0,0,1,2.11,1,4.62,4.62,0,0,1,.66,2.65v5.54h-2.65v-5.2a2.35,2.35,0,0,0-.26-1.33,1,1,0,0,0-.83-.36,1.61,1.61,0,0,0-.87.22,4.93,4.93,0,0,0-.79.64v6Z"/><path class="b556adcc-9f04-40b3-b337-c2e98ba08d9b" d="M106.74,110.25V98h2.16l.18.88h.07a5,5,0,0,1,1.18-.78,3.11,3.11,0,0,1,1.36-.31A3.08,3.08,0,0,1,114.25,99a4.23,4.23,0,0,1,.69,1.43,6.76,6.76,0,0,1,.24,1.86,6.18,6.18,0,0,1-.31,2,4.71,4.71,0,0,1-.85,1.51,3.57,3.57,0,0,1-1.2.94,3.16,3.16,0,0,1-1.4.33,2.57,2.57,0,0,1-1.11-.25,3.49,3.49,0,0,1-1-.69l.09,1.42v2.61Zm4.07-5.25a1.44,1.44,0,0,0,1.17-.62,3.33,3.33,0,0,0,.49-2c0-1.61-.52-2.41-1.55-2.41a2.12,2.12,0,0,0-1.53.81v3.65a2,2,0,0,0,.72.45A2.21,2.21,0,0,0,110.81,105Z"/><path class="e4b03595-82f5-4c31-b5a7-307d646c54e1" d="M41.85,222.16a2.65,2.65,0,0,1-1.19-.3,3.81,3.81,0,0,1-1.13-.87h-.07l-.22.95H37.17V209.32h2.65v3.1l-.07,1.37a3.79,3.79,0,0,1,1.12-.73,3,3,0,0,1,1.23-.26,3.16,3.16,0,0,1,1.46.32,3.35,3.35,0,0,1,1.11.91,4,4,0,0,1,.7,1.42,6.76,6.76,0,0,1,.24,1.86,6.24,6.24,0,0,1-.31,2.06,4.66,4.66,0,0,1-.85,1.52,3.57,3.57,0,0,1-1.2.94A3.16,3.16,0,0,1,41.85,222.16ZM41.24,220a1.44,1.44,0,0,0,1.17-.62,3.33,3.33,0,0,0,.49-2c0-1.61-.52-2.41-1.55-2.41a2.09,2.09,0,0,0-1.53.81v3.65a2,2,0,0,0,.72.45A2.21,2.21,0,0,0,41.24,220Z"/><path class="e4b03595-82f5-4c31-b5a7-307d646c54e1" d="M49.54,222.16a2.82,2.82,0,0,1-1.11-.21,2.38,2.38,0,0,1-.84-.58,2.84,2.84,0,0,1-.53-.85,3.06,3.06,0,0,1-.18-1.06,2.5,2.5,0,0,1,1.18-2.2,8.73,8.73,0,0,1,3.84-1.06,1.51,1.51,0,0,0-.36-.95,1.35,1.35,0,0,0-1-.35,3.08,3.08,0,0,0-1.14.22,8.38,8.38,0,0,0-1.22.59l-1-1.74a9.62,9.62,0,0,1,1.81-.85,6,6,0,0,1,2-.32,3.37,3.37,0,0,1,2.63,1,4.35,4.35,0,0,1,.91,3.05v5.11H52.38L52.2,221h-.07a5.5,5.5,0,0,1-1.21.82A3,3,0,0,1,49.54,222.16Zm.9-2.06a1.44,1.44,0,0,0,.77-.19,4,4,0,0,0,.69-.56v-1.57a5,5,0,0,0-1.95.58,1.08,1.08,0,0,0-.54.9.76.76,0,0,0,.28.64A1.23,1.23,0,0,0,50.44,220.1Z"/><path class="e4b03595-82f5-4c31-b5a7-307d646c54e1" d="M60.66,222.16a4.67,4.67,0,0,1-1.73-.32,4,4,0,0,1-1.4-.91,4.13,4.13,0,0,1-.94-1.46,5.65,5.65,0,0,1-.34-2,5,5,0,0,1,.38-2,4.3,4.3,0,0,1,2.5-2.38,5.08,5.08,0,0,1,1.77-.31,3.69,3.69,0,0,1,1.46.27,4.53,4.53,0,0,1,1.15.68l-1.25,1.71a1.91,1.91,0,0,0-1.2-.52,1.88,1.88,0,0,0-1.53.68,2.88,2.88,0,0,0-.56,1.86,2.78,2.78,0,0,0,.57,1.85A1.76,1.76,0,0,0,61,220a2,2,0,0,0,.84-.18,4.52,4.52,0,0,0,.76-.46l1,1.72a3.87,3.87,0,0,1-1.44.82A4.78,4.78,0,0,1,60.66,222.16Z"/><path class="e4b03595-82f5-4c31-b5a7-307d646c54e1" d="M65.18,221.94V209.32h2.57v7.24h.08L70.65,213h2.88l-3.13,3.67,3.37,5.26H70.9l-2-3.47-1.14,1.27v2.2Z"/><path class="e4b03595-82f5-4c31-b5a7-307d646c54e1" d="M78.54,222.16a5,5,0,0,1-1.79-.32,4,4,0,0,1-1.44-.92,4.34,4.34,0,0,1-1-1.46,5.34,5.34,0,0,1-.34-2,5.14,5.14,0,0,1,.36-2,4.58,4.58,0,0,1,.94-1.47,4.25,4.25,0,0,1,1.34-.93,4.23,4.23,0,0,1,3.23,0,3.27,3.27,0,0,1,1.19.9,3.68,3.68,0,0,1,.71,1.36,5.77,5.77,0,0,1,.24,1.7,4.88,4.88,0,0,1,0,.68c0,.22,0,.38-.07.49H76.57a2.15,2.15,0,0,0,.81,1.43,2.45,2.45,0,0,0,1.52.46,3.73,3.73,0,0,0,1.92-.59l.88,1.6a5.8,5.8,0,0,1-1.52.74A5.31,5.31,0,0,1,78.54,222.16Zm-2-5.66h3.22a2.07,2.07,0,0,0-.34-1.22,1.36,1.36,0,0,0-1.16-.47,1.61,1.61,0,0,0-1.1.42A2,2,0,0,0,76.56,216.5Z"/><path class="e4b03595-82f5-4c31-b5a7-307d646c54e1" d="M83.86,221.94V213H86l.18,1.14h.08a6.94,6.94,0,0,1,1.26-1,3.07,3.07,0,0,1,1.6-.4,2.37,2.37,0,0,1,2.11.95,4.62,4.62,0,0,1,.66,2.65v5.54H89.26v-5.2a2.35,2.35,0,0,0-.26-1.33,1,1,0,0,0-.83-.36,1.61,1.61,0,0,0-.87.22,4.93,4.93,0,0,0-.79.64v6Z"/><path class="e4b03595-82f5-4c31-b5a7-307d646c54e1" d="M97.35,222.16a3.38,3.38,0,0,1-1.51-.33,3.19,3.19,0,0,1-1.15-.92,4.61,4.61,0,0,1-.74-1.47,6.94,6.94,0,0,1-.26-2,5.73,5.73,0,0,1,.32-2,4.78,4.78,0,0,1,.82-1.46,3.78,3.78,0,0,1,1.19-.93,3.1,3.1,0,0,1,1.38-.32,2.66,2.66,0,0,1,1.24.25,4.46,4.46,0,0,1,1,.68l-.11-1.37v-3h2.64v12.62H100l-.18-.88h-.07a4.2,4.2,0,0,1-1.1.78A2.81,2.81,0,0,1,97.35,222.16ZM98,220a1.66,1.66,0,0,0,.78-.18,2,2,0,0,0,.68-.63v-3.66a2.34,2.34,0,0,0-.74-.45A2.43,2.43,0,0,0,98,215a1.4,1.4,0,0,0-1.11.6,2.94,2.94,0,0,0-.49,1.88,3.47,3.47,0,0,0,.42,1.94A1.38,1.38,0,0,0,98,220Z"/><path class="e4b03595-82f5-4c31-b5a7-307d646c54e1" d="M106,222.16a1.53,1.53,0,0,1-1.14-.48,1.62,1.62,0,0,1-.46-1.18,1.65,1.65,0,0,1,.46-1.2,1.63,1.63,0,0,1,2.29,0,1.69,1.69,0,0,1,.46,1.2,1.66,1.66,0,0,1-.46,1.18A1.53,1.53,0,0,1,106,222.16Z"/><path class="e4b03595-82f5-4c31-b5a7-307d646c54e1" d="M109.87,225.25V213H112l.18.88h.08a5,5,0,0,1,1.17-.78,3.15,3.15,0,0,1,3.92.93,4.23,4.23,0,0,1,.69,1.43,6.75,6.75,0,0,1,.25,1.86,6.17,6.17,0,0,1-.32,2,4.71,4.71,0,0,1-.85,1.51,3.57,3.57,0,0,1-1.2.94,3.16,3.16,0,0,1-1.4.33,2.57,2.57,0,0,1-1.11-.25,3.49,3.49,0,0,1-1-.69l.09,1.42v2.61Zm4.07-5.25a1.44,1.44,0,0,0,1.17-.62,3.26,3.26,0,0,0,.49-2c0-1.61-.52-2.41-1.55-2.41a2.12,2.12,0,0,0-1.53.81v3.65a2,2,0,0,0,.72.45A2.21,2.21,0,0,0,113.94,220Z"/><path class="e4b03595-82f5-4c31-b5a7-307d646c54e1" d="M120.19,221.94V209.32h2.64v3.1l-.12,1.6a6.76,6.76,0,0,1,1.17-.84,3.16,3.16,0,0,1,1.58-.38,2.39,2.39,0,0,1,2.12.95,4.7,4.7,0,0,1,.65,2.65v5.54h-2.64v-5.2a2.44,2.44,0,0,0-.26-1.33,1,1,0,0,0-.84-.36,1.63,1.63,0,0,0-.87.22,4.93,4.93,0,0,0-.79.64v6Z"/><path class="e4b03595-82f5-4c31-b5a7-307d646c54e1" d="M130.46,225.25V213h2.16l.18.88h.08a4.84,4.84,0,0,1,1.18-.78,3.08,3.08,0,0,1,1.36-.31A3.07,3.07,0,0,1,138,214a4.23,4.23,0,0,1,.69,1.43,6.39,6.39,0,0,1,.25,1.86,6.17,6.17,0,0,1-.32,2,4.89,4.89,0,0,1-.84,1.51,3.71,3.71,0,0,1-1.21.94,3.15,3.15,0,0,1-1.39.33,2.58,2.58,0,0,1-1.12-.25,3.49,3.49,0,0,1-1-.69l.09,1.42v2.61Zm4.07-5.25a1.44,1.44,0,0,0,1.17-.62,3.26,3.26,0,0,0,.49-2c0-1.61-.52-2.41-1.55-2.41a2.14,2.14,0,0,0-1.53.81v3.65a2,2,0,0,0,.72.45A2.21,2.21,0,0,0,134.53,220Z"/><polygon class="a5affde0-ecf7-42f2-97b0-984ac05bffac" points="95 375.79 56.69 375.79 52.79 369 39 369 39 412 95 412 95 375.79"/><path class="b5dcc7e9-574f-47da-8937-9480da3b56cb" d="M58.48,405.48a4.87,4.87,0,0,1-1-.1,6.84,6.84,0,0,1-.74-.21l.41-1.49.5.13a2.91,2.91,0,0,0,.6.06,1.14,1.14,0,0,0,1.15-.6,3.84,3.84,0,0,0,.29-1.68v-13h2v13a4.94,4.94,0,0,1-.72,2.83A2.78,2.78,0,0,1,58.48,405.48Zm2.23-19.28a1.39,1.39,0,0,1-1-.36,1.25,1.25,0,0,1,0-1.83,1.43,1.43,0,0,1,1-.35,1.41,1.41,0,0,1,.95.35,1.27,1.27,0,0,1,0,1.83A1.37,1.37,0,0,1,60.71,386.2Z"/><path class="b5dcc7e9-574f-47da-8937-9480da3b56cb" d="M68.65,400.56a6.33,6.33,0,0,1-2.37-.46,7.45,7.45,0,0,1-2-1.15l1-1.32a8.57,8.57,0,0,0,1.58,1,4.32,4.32,0,0,0,1.86.38,2.48,2.48,0,0,0,1.72-.53A1.66,1.66,0,0,0,71,397.2a1.35,1.35,0,0,0-.24-.8,2.26,2.26,0,0,0-.61-.58,4.54,4.54,0,0,0-.85-.45l-1-.38c-.42-.15-.84-.31-1.25-.49a5,5,0,0,1-1.12-.68,3.34,3.34,0,0,1-.8-.92,2.44,2.44,0,0,1-.31-1.27,3.23,3.23,0,0,1,.27-1.31,3.17,3.17,0,0,1,.79-1.06,4,4,0,0,1,1.26-.69,5.2,5.2,0,0,1,1.68-.25,5.14,5.14,0,0,1,2,.38,6.37,6.37,0,0,1,1.6.94l-.94,1.24a6.14,6.14,0,0,0-1.25-.74,3.45,3.45,0,0,0-1.41-.29,2.22,2.22,0,0,0-1.62.51,1.55,1.55,0,0,0-.52,1.17,1.15,1.15,0,0,0,.22.71,2,2,0,0,0,.57.53,4.94,4.94,0,0,0,.83.41l1,.37,1.26.5a4.87,4.87,0,0,1,1.14.66,3.22,3.22,0,0,1,.83,1,2.79,2.79,0,0,1,.33,1.4,3.35,3.35,0,0,1-.28,1.34,3,3,0,0,1-.82,1.1,3.79,3.79,0,0,1-1.34.76A5.78,5.78,0,0,1,68.65,400.56Z"/><path class="ec225216-e419-4ae0-a497-8a591d314ce3" d="M171.22,430H118.41c-3.37-1.22-4.42-3.72-4.41-7.16q.12-28,0-56c0-3.45,1-6,4.41-7.17h35.31c4.63.83,8.11,3.48,11.18,6.87,1.92,2.12,4,4.07,6,6.08a15.17,15.17,0,0,1,4.65,11.19c0,13-.06,26,0,39C175.66,426.31,174.6,428.81,171.22,430Zm-17.56-65.77c-.61-.06-1-.14-1.42-.14-10.67,0-21.35,0-32,0-1.38,0-1.83.59-1.81,1.89,0,3.65,0,7.29,0,10.93q0,23.28,0,46.54c0,1.29.13,2.22,1.8,2.22q24.6,0,49.2,0c1.24,0,1.82-.44,1.82-1.73q0-20.46,0-40.91c0-1.09-.37-1.42-1.45-1.41-4.79.05-9.58,0-14.37,0h-1.75Zm15,13c-3.52-3.57-7.07-7.15-10.57-10.69v10.69Z"/><path class="ec225216-e419-4ae0-a497-8a591d314ce3" d="M129.93,387.68v-.93h30a1,1,0,0,1,.64.1v.72c-.1,0-.1.12-.1.21-.17,1.84-.34,3.69-.5,5.53-.33,3.65-.64,7.31-1,11-.39,4.43-.8,8.85-1.19,13.27a.61.61,0,0,1-.53.65c-3.9,1.06-7.79,2.15-11.68,3.23a1.4,1.4,0,0,1-.81,0l-3.22-.89-8.46-2.35c-.23-.07-.43-.08-.46-.43-.19-2.25-.4-4.51-.6-6.76l-.87-9.78c-.33-3.74-.65-7.48-1-11.22A8.61,8.61,0,0,0,129.93,387.68Zm15.35,17.09v6l-.1.07c-1.25-.35-2.5-.71-3.76-1a.56.56,0,0,1-.5-.62c0-.73-.14-1.47-.18-2.2,0-.3-.13-.37-.41-.37-1,0-2.09,0-3.13,0-.36,0-.39.14-.36.43.17,1.77.33,3.54.48,5.32a.36.36,0,0,0,.31.38l7.52,2.07.12.05c0,1.17,0,2.33,0,3.5,0,.3,0,.44.41.33q4.63-1.31,9.3-2.57c.33-.09.49-.27.48-.56,0-.54.1-1.06.12-1.59,0-.9.14-1.8.22-2.7.12-1.36.27-2.72.39-4.07s.21-2.62.33-3.93.27-2.68.39-4,.2-2.8.32-4.19c.16-1.71.33-3.43.51-5.14,0-.45-.08-.63-.58-.62-3.5,0-7,0-10.5,0-1.4,0-1.4,0-1.38,1.4l-.57,0c-2,0-4,0-6,0-.47,0-.72.06-.7.62a15.19,15.19,0,0,1-.17,1.64c-.34,3.75-.67,7.51-1,11.27,0,.4.07.49.46.48h6.48a6.47,6.47,0,0,0,1.39,0Z"/><path class="bee579c2-b7ba-4d67-a77a-2c39c5a1ba30" d="M145.28,390.73c0-1.4,0-1.4,1.38-1.4,3.5,0,7,0,10.5,0,.5,0,.62.17.58.62-.18,1.71-.35,3.43-.51,5.14-.12,1.39-.2,2.79-.32,4.19s-.27,2.68-.39,4-.21,2.62-.33,3.93-.27,2.71-.39,4.07c-.08.9-.18,1.8-.22,2.7,0,.53-.15,1.05-.12,1.59,0,.29-.15.47-.48.56q-4.66,1.26-9.3,2.57c-.37.11-.41,0-.41-.33,0-1.17,0-2.33,0-3.5l.29-.11,6-1.66c.48-.14,1.07-.15,1.4-.45s.19-1,.24-1.47c.3-3.25.58-6.51.9-9.77,0-.44-.06-.57-.53-.56-2.77,0-5.55,0-8.33,0v-6.08c1.4.08,2.8.17,4.2.22.36,0,.47.13.5.47.07,1,.18,2,.26,3.07,0,.31.08.49.47.48,1,0,2.05,0,3.08,0,.31,0,.38-.11.35-.39-.08-.75-.14-1.5-.2-2.25-.16-1.73-.3-3.45-.45-5.17,0-.25,0-.45-.39-.45l-7.82,0Z"/><path class="fbdc89a9-2d3a-4f05-a49e-334825e17a97" d="M145.18,404.7a6.47,6.47,0,0,1-1.39,0h-6.48c-.39,0-.5-.08-.46-.48.35-3.76.68-7.52,1-11.27a15.19,15.19,0,0,0,.17-1.64c0-.56.23-.62.7-.62,2,0,4,0,6,0l.57,0v4.08c-1.08,0-2.16.06-3.24.06-.35,0-.46.1-.48.46-.14,1.71-.3,3.41-.48,5.12,0,.35,0,.43.39.42,1.23,0,2.47,0,3.7,0Z"/><path class="b03a555e-4592-47ad-90c5-fee7d6442a32" d="M145.18,404.7c0-1.27,0-2.54,0-3.81l.1,0c2.78,0,5.56,0,8.33,0,.47,0,.57.12.53.56-.32,3.26-.6,6.52-.9,9.77,0,.51.11,1.14-.24,1.47s-.92.31-1.4.45l-6,1.66-.29.11-.12-.05,0-4,.1-.07,4-1c.18-.05.26-.12.27-.31.13-1.45.26-2.9.4-4.34,0-.25,0-.38-.32-.37l-4.31,0Z"/><path class="fbdc89a9-2d3a-4f05-a49e-334825e17a97" d="M145.18,410.86l0,4-7.52-2.07a.36.36,0,0,1-.31-.38c-.15-1.78-.31-3.55-.48-5.32,0-.29,0-.44.36-.43,1,0,2.09,0,3.13,0,.28,0,.39.07.41.37,0,.73.16,1.47.18,2.2a.56.56,0,0,0,.5.62C142.68,410.15,143.93,410.51,145.18,410.86Z"/><path class="bee579c2-b7ba-4d67-a77a-2c39c5a1ba30" d="M145.28,404.77l4.31,0c.29,0,.34.12.32.37-.14,1.44-.27,2.89-.4,4.34,0,.19-.09.26-.27.31l-4,1Z"/><path class="b03a555e-4592-47ad-90c5-fee7d6442a32" d="M145.27,394.77v-4l7.82,0c.36,0,.37.2.39.45.15,1.72.29,3.44.45,5.17.06.75.12,1.5.2,2.25,0,.28,0,.39-.35.39-1,0-2.06,0-3.08,0-.39,0-.45-.17-.47-.48-.08-1-.19-2-.26-3.07,0-.34-.14-.46-.5-.47C148.07,394.94,146.67,394.85,145.27,394.77Z"/><path class="ec225216-e419-4ae0-a497-8a591d314ce3" d="M145.27,400.85l-.1,0c-1.23,0-2.47,0-3.7,0-.34,0-.42-.07-.39-.42.18-1.71.34-3.41.48-5.12,0-.36.13-.46.48-.46,1.08,0,2.16,0,3.24-.06C145.28,396.82,145.27,398.84,145.27,400.85Z"/><path class="ec225216-e419-4ae0-a497-8a591d314ce3" d="M117.22,449l-3-8.93h2.66l1.16,4.22c.11.44.23.89.35,1.35s.23.93.35,1.4h.07l.33-1.4c.12-.46.23-.91.35-1.35l1.17-4.22h2.54L120.29,449Z"/><path class="ec225216-e419-4ae0-a497-8a591d314ce3" d="M126.48,449.25a2.82,2.82,0,0,1-1.11-.21,2.38,2.38,0,0,1-.84-.58,2.65,2.65,0,0,1-.53-.85,3,3,0,0,1-.19-1.06,2.51,2.51,0,0,1,1.19-2.2,8.73,8.73,0,0,1,3.83-1.06,1.45,1.45,0,0,0-.35-.94,1.33,1.33,0,0,0-1-.36,3.29,3.29,0,0,0-1.14.22,8.38,8.38,0,0,0-1.22.59l-.95-1.74a9.62,9.62,0,0,1,1.81-.85,6.32,6.32,0,0,1,2-.32,3.37,3.37,0,0,1,2.63,1,4.35,4.35,0,0,1,.91,3.05V449h-2.16l-.18-.92h-.07a5.5,5.5,0,0,1-1.21.82A3,3,0,0,1,126.48,449.25Zm.9-2.05a1.45,1.45,0,0,0,.77-.2,3.58,3.58,0,0,0,.68-.56v-1.57a5,5,0,0,0-1.94.58,1.08,1.08,0,0,0-.54.9.74.74,0,0,0,.28.64A1.21,1.21,0,0,0,127.38,447.2Z"/><path class="ec225216-e419-4ae0-a497-8a591d314ce3" d="M136.14,449.25A2.65,2.65,0,0,1,135,449a1.85,1.85,0,0,1-.75-.6,2.6,2.6,0,0,1-.4-.94,5.1,5.1,0,0,1-.13-1.23v-9.85h2.65v10a.83.83,0,0,0,.15.57.45.45,0,0,0,.32.17H137l.17,0,.32,2a3.25,3.25,0,0,1-.54.16A4.62,4.62,0,0,1,136.14,449.25Z"/><path class="ec225216-e419-4ae0-a497-8a591d314ce3" d="M140.17,438.79a1.57,1.57,0,0,1-1.09-.39,1.35,1.35,0,0,1,0-2,1.82,1.82,0,0,1,2.2,0,1.37,1.37,0,0,1,0,2A1.57,1.57,0,0,1,140.17,438.79ZM138.86,449V440.1h2.65V449Z"/><path class="ec225216-e419-4ae0-a497-8a591d314ce3" d="M147,449.25a3.37,3.37,0,0,1-1.5-.33,3.19,3.19,0,0,1-1.15-.92,4.23,4.23,0,0,1-.74-1.47,6.94,6.94,0,0,1-.26-2,5.67,5.67,0,0,1,.32-2,4.72,4.72,0,0,1,.82-1.47,3.78,3.78,0,0,1,1.19-.93,3.24,3.24,0,0,1,1.38-.32,2.66,2.66,0,0,1,1.24.25,4.79,4.79,0,0,1,.95.68l-.1-1.36v-3h2.64V449h-2.16l-.18-.88h-.07a4.2,4.2,0,0,1-1.1.78A2.82,2.82,0,0,1,147,449.25Zm.69-2.16a1.66,1.66,0,0,0,.78-.18,2,2,0,0,0,.68-.63v-3.66a2.34,2.34,0,0,0-.74-.45,2.43,2.43,0,0,0-.74-.12,1.43,1.43,0,0,0-1.12.6,3,3,0,0,0-.48,1.88,3.53,3.53,0,0,0,.42,2A1.38,1.38,0,0,0,147.7,447.09Z"/><path class="ec225216-e419-4ae0-a497-8a591d314ce3" d="M156.39,449.25a2.77,2.77,0,0,1-1.1-.21,2.38,2.38,0,0,1-.84-.58,2.49,2.49,0,0,1-.53-.85,2.81,2.81,0,0,1-.19-1.06,2.49,2.49,0,0,1,1.19-2.2,8.73,8.73,0,0,1,3.83-1.06,1.45,1.45,0,0,0-.35-.94,1.33,1.33,0,0,0-1.05-.36,3.3,3.3,0,0,0-1.15.22,8.31,8.31,0,0,0-1.21.59l-1-1.74a9.25,9.25,0,0,1,1.8-.85,6.32,6.32,0,0,1,2-.32,3.41,3.41,0,0,1,2.64,1,4.39,4.39,0,0,1,.91,3.05V449h-2.16l-.18-.92H159a5.44,5.44,0,0,1-1.2.82A3.06,3.06,0,0,1,156.39,449.25Zm.9-2.05a1.51,1.51,0,0,0,.78-.2,3.92,3.92,0,0,0,.68-.56v-1.57a4.9,4.9,0,0,0-1.94.58,1.08,1.08,0,0,0-.54.9.74.74,0,0,0,.28.64A1.18,1.18,0,0,0,157.29,447.2Z"/><path class="ec225216-e419-4ae0-a497-8a591d314ce3" d="M166.74,449.25a3.7,3.7,0,0,1-1.41-.25,2.45,2.45,0,0,1-1-.71,2.75,2.75,0,0,1-.54-1.08,5.26,5.26,0,0,1-.18-1.42v-3.62h-1.22v-2l1.37-.11.31-2.37h2.19v2.37h2.14v2.07h-2.14v3.59a1.58,1.58,0,0,0,.32,1.09,1.1,1.1,0,0,0,.83.33,1.67,1.67,0,0,0,.44-.06,2.2,2.2,0,0,0,.41-.12l.41,1.92a8.36,8.36,0,0,1-.84.22A5.51,5.51,0,0,1,166.74,449.25Z"/><path class="ec225216-e419-4ae0-a497-8a591d314ce3" d="M173.87,449.25a4.94,4.94,0,0,1-1.78-.32,4,4,0,0,1-2.39-2.38,5.34,5.34,0,0,1-.35-2,5.06,5.06,0,0,1,.36-1.95,4.54,4.54,0,0,1,.95-1.48,4.14,4.14,0,0,1,1.34-.93,4,4,0,0,1,1.56-.32,4.08,4.08,0,0,1,1.67.32,3.44,3.44,0,0,1,1.19.9,3.92,3.92,0,0,1,.71,1.36,6.13,6.13,0,0,1,.23,1.7q0,.36,0,.69a4.69,4.69,0,0,1-.08.48h-5.34a2.14,2.14,0,0,0,.8,1.43,2.45,2.45,0,0,0,1.52.46,3.73,3.73,0,0,0,1.93-.59l.88,1.6a6,6,0,0,1-1.52.74A5.37,5.37,0,0,1,173.87,449.25Zm-2-5.65h3.22a2,2,0,0,0-.34-1.23,1.34,1.34,0,0,0-1.15-.47,1.64,1.64,0,0,0-1.11.42A2.07,2.07,0,0,0,171.89,443.6Z"/><path class="ec225216-e419-4ae0-a497-8a591d314ce3" d="M179.41,449V437.3h7.4v2.23h-4.75v2.72h4.07v2.23h-4.07V449Z"/><path class="ec225216-e419-4ae0-a497-8a591d314ce3" d="M192.14,449.25a4.43,4.43,0,0,1-1.64-.32,4,4,0,0,1-1.39-.91,4.34,4.34,0,0,1-1-1.46,5.68,5.68,0,0,1,0-4,4.48,4.48,0,0,1,1-1.47,4.19,4.19,0,0,1,1.39-.91,4.42,4.42,0,0,1,1.64-.31,4.33,4.33,0,0,1,1.63.31,4.4,4.4,0,0,1,1.39.91,4.46,4.46,0,0,1,1,1.47,5.68,5.68,0,0,1,0,4,4.32,4.32,0,0,1-1,1.46,4.24,4.24,0,0,1-1.39.91A4.34,4.34,0,0,1,192.14,449.25Zm0-2.14a1.33,1.33,0,0,0,1.22-.69,3.5,3.5,0,0,0,.42-1.85,3.56,3.56,0,0,0-.42-1.86,1.44,1.44,0,0,0-2.45,0,3.66,3.66,0,0,0-.41,1.86,3.6,3.6,0,0,0,.41,1.85A1.33,1.33,0,0,0,192.14,447.11Z"/><path class="ec225216-e419-4ae0-a497-8a591d314ce3" d="M198.3,449V440.1h2.16l.18,1.57h.07a3.42,3.42,0,0,1,1.17-1.35,2.51,2.51,0,0,1,1.37-.43,3.57,3.57,0,0,1,.62,0,1.89,1.89,0,0,1,.44.14l-.43,2.28-.47-.1a2.57,2.57,0,0,0-.51,0,2,2,0,0,0-1.05.36,2.66,2.66,0,0,0-.91,1.28V449Z"/><path class="ec225216-e419-4ae0-a497-8a591d314ce3" d="M205.46,449V440.1h2.16l.18,1.16h.07a6.74,6.74,0,0,1,1.19-1,3.14,3.14,0,0,1,3.05,0,2.6,2.6,0,0,1,.93,1.1,7.18,7.18,0,0,1,1.25-1.05,2.77,2.77,0,0,1,1.56-.44,2.4,2.4,0,0,1,2.11,1,4.52,4.52,0,0,1,.68,2.64V449H216v-5.2a2.44,2.44,0,0,0-.26-1.33,1,1,0,0,0-.84-.36,2.41,2.41,0,0,0-1.53.86v6h-2.64v-5.2a2.44,2.44,0,0,0-.26-1.33,1,1,0,0,0-.84-.36,2.27,2.27,0,0,0-1.51.86v6Z"/><path class="ec225216-e419-4ae0-a497-8a591d314ce3" d="M222.42,449.25a1.53,1.53,0,0,1-1.15-.48,1.76,1.76,0,0,1,0-2.37,1.61,1.61,0,0,1,2.29,0,1.76,1.76,0,0,1,0,2.37A1.53,1.53,0,0,1,222.42,449.25Z"/><path class="ec225216-e419-4ae0-a497-8a591d314ce3" d="M226.29,452.34V440.1h2.16l.17.89h.08a4.6,4.6,0,0,1,1.18-.79,3.08,3.08,0,0,1,1.36-.31,3.25,3.25,0,0,1,1.45.32,3.14,3.14,0,0,1,1.1.92,4.33,4.33,0,0,1,.69,1.43,6.39,6.39,0,0,1,.25,1.86,6.17,6.17,0,0,1-.32,2.05,4.77,4.77,0,0,1-.84,1.51,3.71,3.71,0,0,1-1.21.94,3.12,3.12,0,0,1-1.39.33,2.58,2.58,0,0,1-1.12-.25,3.49,3.49,0,0,1-1-.69l.09,1.42v2.61Zm4.06-5.25a1.44,1.44,0,0,0,1.17-.62,3.26,3.26,0,0,0,.49-2c0-1.61-.52-2.41-1.55-2.41a2.16,2.16,0,0,0-1.53.81v3.65a2,2,0,0,0,.72.45A2,2,0,0,0,230.35,447.09Z"/><path class="ec225216-e419-4ae0-a497-8a591d314ce3" d="M236.6,449V436.41h2.65v3.1l-.13,1.6a7,7,0,0,1,1.17-.83,3.06,3.06,0,0,1,1.58-.39,2.4,2.4,0,0,1,2.12.95,4.62,4.62,0,0,1,.66,2.65V449H242v-5.2a2.44,2.44,0,0,0-.26-1.33,1,1,0,0,0-.84-.36,1.6,1.6,0,0,0-.86.22,5,5,0,0,0-.79.64v6Z"/><path class="ec225216-e419-4ae0-a497-8a591d314ce3" d="M246.88,452.34V440.1H249l.18.89h.07a4.78,4.78,0,0,1,1.18-.79,3.11,3.11,0,0,1,1.36-.31,3.33,3.33,0,0,1,1.46.32,3.1,3.1,0,0,1,1.09.92,4.34,4.34,0,0,1,.7,1.43,6.76,6.76,0,0,1,.24,1.86,6.17,6.17,0,0,1-.32,2.05,4.77,4.77,0,0,1-.84,1.51,3.71,3.71,0,0,1-1.21.94,3.12,3.12,0,0,1-1.39.33,2.58,2.58,0,0,1-1.12-.25,3.63,3.63,0,0,1-1-.69l.09,1.42v2.61Zm4.07-5.25a1.47,1.47,0,0,0,1.17-.62,3.34,3.34,0,0,0,.48-2c0-1.61-.51-2.41-1.55-2.41a2.16,2.16,0,0,0-1.53.81v3.65a2,2,0,0,0,.72.45A2,2,0,0,0,251,447.09Z"/></svg>