<svg id="fe0550cc-c240-49c4-be76-49927b88d890" data-name="Capa 1" xmlns="http://www.w3.org/2000/svg" viewBox="0 0 520 420"><defs><style>.be6b2c3b-46e1-4230-aa0a-be93901e21f2,.e5c686a0-0c56-4492-8090-5580b435c0c5{stroke:#000;stroke-linejoin:round;}.be6b2c3b-46e1-4230-aa0a-be93901e21f2{stroke-linecap:round;stroke-width:4px;}.e5c686a0-0c56-4492-8090-5580b435c0c5{fill:none;stroke-width:5px;}.a4271c8e-56ed-4ec6-a878-73455fd3e314{fill:#fff;}.af06f3ef-fd8d-4a96-b22f-9a06af44df8e{fill:#e34f27;}.b2fc7dc7-fcd6-4480-a57f-9b0f2fbb8485{fill:#f0662a;}.e9e641b8-a9bf-4b79-859d-06a97766487b{fill:#ebe8e7;}.ad2a3841-13fd-4880-98f1-69ac34a4fe98{fill:#ef590c;}.e27b45f7-f4a4-4fd3-b683-3a0e2f565951{fill:#fefdfc;}.a76c97aa-cfe0-4e93-a75d-4378661d7aff{fill:#fefdfd;}.a1a1090a-0b4e-413d-b9ae-b5f1579b83bc{fill:#8692c1;}.b436648e-c14f-4e68-85c4-3ce5d0c86c9f{fill:#232633;}.b76d01e4-9117-42f5-9538-571acea689ac{fill:#1572b6;}.f4e60187-d2e4-44a6-b7ab-451ac758b719{fill:#34a8db;}.e0386fb4-997b-4f66-91e9-6b4c94379507{fill:#e7e8e9;}.a39424ac-a553-4036-acaf-8f90543de1ab{fill:#e4e7e9;}.eceebd06-3785-4a97-9fbe-9faee821ab04{fill:#fdfdfe;}</style></defs><title>_</title><polygon class="be6b2c3b-46e1-4230-aa0a-be93901e21f2" points="92 266.79 53.69 266.79 49.79 260 36 260 36 303 92 303 92 266.79"/><polyline class="e5c686a0-0c56-4492-8090-5580b435c0c5" points="37.95 54 20 54 20 284 115.14 283.94"/><line class="e5c686a0-0c56-4492-8090-5580b435c0c5" x1="36.77" y1="167.15" x2="20" y2="167.15"/><path class="a4271c8e-56ed-4ec6-a878-73455fd3e314" d="M53.57,291.56a5.73,5.73,0,0,1-2.16-.41A4.87,4.87,0,0,1,49.67,290,5.55,5.55,0,0,1,48.52,288a7.43,7.43,0,0,1-.42-2.58,6.81,6.81,0,0,1,.46-2.6,5.88,5.88,0,0,1,1.22-1.94,5.32,5.32,0,0,1,1.79-1.2,5.74,5.74,0,0,1,2.15-.4,4.37,4.37,0,0,1,2,.4,6.94,6.94,0,0,1,1.44,1l-1,1.3a5.26,5.26,0,0,0-1.07-.74,2.66,2.66,0,0,0-1.26-.29,3.23,3.23,0,0,0-2.62,1.25,4.47,4.47,0,0,0-.75,1.42,5.68,5.68,0,0,0-.28,1.84,6.06,6.06,0,0,0,.26,1.82,4.29,4.29,0,0,0,.74,1.41,3.26,3.26,0,0,0,1.14.91,3.22,3.22,0,0,0,1.46.32,3.3,3.3,0,0,0,1.5-.34,6.39,6.39,0,0,0,1.24-.83l.86,1.32a6.26,6.26,0,0,1-1.75,1.09A5.31,5.31,0,0,1,53.57,291.56Z"/><path class="a4271c8e-56ed-4ec6-a878-73455fd3e314" d="M63,291.56a6.34,6.34,0,0,1-2.38-.46,7.45,7.45,0,0,1-2-1.15l1-1.32a8.18,8.18,0,0,0,1.57,1A4.32,4.32,0,0,0,63,290a2.5,2.5,0,0,0,1.73-.53,1.69,1.69,0,0,0,.57-1.29,1.35,1.35,0,0,0-.24-.8,2.26,2.26,0,0,0-.61-.58,4.54,4.54,0,0,0-.85-.45l-1-.38c-.42-.15-.83-.31-1.25-.49a5,5,0,0,1-1.12-.68,3.51,3.51,0,0,1-.8-.92,2.44,2.44,0,0,1-.31-1.27,3.23,3.23,0,0,1,.27-1.31,3.07,3.07,0,0,1,.8-1.06,3.8,3.8,0,0,1,1.26-.69,5.65,5.65,0,0,1,3.7.13,6.37,6.37,0,0,1,1.6.94l-.94,1.24a6.35,6.35,0,0,0-1.24-.74,3.53,3.53,0,0,0-1.42-.29,2.22,2.22,0,0,0-1.62.51,1.59,1.59,0,0,0-.52,1.17,1.22,1.22,0,0,0,.22.71,2,2,0,0,0,.58.53,4.82,4.82,0,0,0,.82.41l1,.37,1.26.5a5.31,5.31,0,0,1,1.14.66,3.34,3.34,0,0,1,.82,1,2.79,2.79,0,0,1,.33,1.4,3.19,3.19,0,0,1-.28,1.34,3,3,0,0,1-.81,1.1,3.84,3.84,0,0,1-1.35.76A5.72,5.72,0,0,1,63,291.56Z"/><path class="a4271c8e-56ed-4ec6-a878-73455fd3e314" d="M73,291.56a6.33,6.33,0,0,1-2.37-.46,7.3,7.3,0,0,1-2-1.15l1-1.32a8.5,8.5,0,0,0,1.57,1,4.38,4.38,0,0,0,1.86.38,2.49,2.49,0,0,0,1.73-.53,1.66,1.66,0,0,0,.58-1.29,1.35,1.35,0,0,0-.24-.8,2.41,2.41,0,0,0-.61-.58,4.63,4.63,0,0,0-.86-.45l-1-.38c-.41-.15-.83-.31-1.24-.49a5,5,0,0,1-1.12-.68,3.18,3.18,0,0,1-.8-.92,2.44,2.44,0,0,1-.32-1.27,3.24,3.24,0,0,1,.28-1.31,3,3,0,0,1,.79-1.06,4,4,0,0,1,1.26-.69,5.68,5.68,0,0,1,3.71.13,6.37,6.37,0,0,1,1.6.94l-.94,1.24a6.42,6.42,0,0,0-1.25-.74,3.45,3.45,0,0,0-1.41-.29,2.22,2.22,0,0,0-1.62.51,1.55,1.55,0,0,0-.52,1.17,1.15,1.15,0,0,0,.22.71,2,2,0,0,0,.57.53,4.94,4.94,0,0,0,.83.41l1,.37,1.26.5a5.08,5.08,0,0,1,1.14.66,3.37,3.37,0,0,1,.83,1,2.79,2.79,0,0,1,.32,1.4,3.34,3.34,0,0,1-.27,1.34,3.14,3.14,0,0,1-.82,1.1,3.88,3.88,0,0,1-1.34.76A5.78,5.78,0,0,1,73,291.56Z"/><path class="af06f3ef-fd8d-4a96-b22f-9a06af44df8e" d="M65.93,44.86H80c1.05,0,1.1.06,1,1.06q-.78,8.67-1.55,17.33-.53,5.86-1,11.73c0,.49-.23.67-.7.8-3.75,1-7.5,2.06-11.24,3.11a1.57,1.57,0,0,1-.91,0c-3.74-1.06-7.48-2.11-11.24-3.12a.77.77,0,0,1-.67-.82q-.78-9.2-1.6-18.37C51.71,53,51.38,49.51,51,46c-.1-1.11-.11-1.11,1-1.11Zm0,17.88,0,5.76c-.93-.11-1.77-.52-2.68-.67s-1.74-.48-1.54-1.73a7.28,7.28,0,0,0-.1-1.12c0-.42-.18-.54-.58-.53-.86,0-1.73,0-2.59,0-.56,0-.7.16-.64.69.15,1.5.29,3,.39,4.49,0,.59.29.81.85,1,2.31.61,4.61,1.28,6.91,1.93,0,.95,0,1.91,0,2.86s.24,1,1.06.79l2.74-.77c1.74-.47,3.5-.92,5.23-1.44.36-.11.94-.11,1-.66q.21-1.76.36-3.51c.13-1.58.23-3.15.37-4.73.21-2.45.45-4.91.67-7.37.14-1.51.25-3,.39-4.54s.31-3.26.48-4.88c.06-.59-.14-.81-.77-.81q-5.33,0-10.65,0c-.66,0-.89.28-.89.88,0,.86,0,1.73,0,2.6H57.44c-.29,0-.65-.14-.87.21q.52,5.7,1,11.4c.25.29.59.17.9.17Z"/><path class="b2fc7dc7-fcd6-4480-a57f-9b0f2fbb8485" d="M65.93,50.93c0-.87,0-1.74,0-2.6,0-.6.23-.88.89-.88q5.32,0,10.65,0c.63,0,.83.22.77.81-.17,1.62-.33,3.25-.48,4.88s-.25,3-.39,4.54c-.22,2.46-.46,4.92-.67,7.37-.14,1.58-.24,3.15-.37,4.73q-.15,1.75-.36,3.51c-.07.55-.65.55-1,.66-1.73.52-3.49,1-5.23,1.44L67,76.16c-.82.23-1,.06-1.06-.79s0-1.91,0-2.86v-.08a1.94,1.94,0,0,0,.42,0c2.3-.63,4.59-1.28,6.9-1.89.44-.12.5-.38.53-.75.27-3.1.57-6.19.81-9.29,0-.57.38-1.17,0-1.75-.25-.27-.59-.16-.89-.16H65.93V55l0-.06c2.89,0,5.78,0,8.67,0,.41,0,.54-.14.56-.54,0-.84.12-1.67.18-2.5l.06-.25c.05-.2.12-.4-.1-.54s-.6-.16-.9-.16Z"/><path class="e9e641b8-a9bf-4b79-859d-06a97766487b" d="M57.6,62.55q-.51-5.7-1-11.4l9.36,0,0,3.72,0,.06c-1.55,0-3.1,0-4.65,0-.44,0-.62.1-.56.57.14,1,.23,2,.34,3.08.18.36.5.18.76.19l4.11,0v3.73Z"/><path class="e9e641b8-a9bf-4b79-859d-06a97766487b" d="M65.93,72.51c-2.3-.65-4.6-1.32-6.91-1.93-.56-.15-.81-.37-.85-1-.1-1.5-.24-3-.39-4.49-.06-.53.08-.72.64-.69.86,0,1.73,0,2.59,0,.4,0,.58.11.58.53a7.28,7.28,0,0,1,.1,1.12c-.2,1.25.54,1.56,1.54,1.73s1.75.56,2.68.67c0,0,0,.07,0,.11v3.9Z"/><path class="b2fc7dc7-fcd6-4480-a57f-9b0f2fbb8485" d="M65.92,68.61s0-.07,0-.11c0-1.92,0-3.84,0-5.76h4.65c-.11,1.42-.24,2.85-.33,4.27,0,.42-.29.5-.61.59C68.4,67.92,67.16,68.27,65.92,68.61Z"/><path class="ad2a3841-13fd-4880-98f1-69ac34a4fe98" d="M65.93,51.17l-9.36,0c.22-.35.58-.21.87-.21H74.38c.3,0,.64-.11.9.16Z"/><path class="ad2a3841-13fd-4880-98f1-69ac34a4fe98" d="M70.58,62.73H65.93l-7.43,0c-.31,0-.65.12-.9-.17l8.32,0c1.24,0,2.48,0,3.72,0C70,62.57,70.32,62.39,70.58,62.73Z"/><path class="e27b45f7-f4a4-4fd3-b683-3a0e2f565951" d="M70.58,62.73c-.26-.34-.63-.16-.94-.17-1.24,0-2.48,0-3.72,0,0-1.25,0-2.49,0-3.73l8.65-.07c.38.58,0,1.18,0,1.75-.24,3.1-.54,6.19-.81,9.29,0,.37-.09.63-.53.75-2.31.61-4.6,1.26-6.9,1.89a1.94,1.94,0,0,1-.42,0V68.61c1.24-.34,2.48-.69,3.72-1,.32-.09.58-.17.61-.59C70.34,65.58,70.47,64.15,70.58,62.73Z"/><path class="a76c97aa-cfe0-4e93-a75d-4378661d7aff" d="M65.93,51.17l9.35-.07c.22.14.15.34.1.54l-.06.25c-.06.83-.14,1.66-.18,2.5,0,.4-.15.54-.56.54-2.89,0-5.78,0-8.67,0C65.92,53.65,65.92,52.41,65.93,51.17Z"/><path class="af06f3ef-fd8d-4a96-b22f-9a06af44df8e" d="M61.06,58.57c-.11-1-.2-2-.34-3.08-.06-.47.12-.58.56-.57,1.55,0,3.1,0,4.65,0v3.61Z"/><path class="ad2a3841-13fd-4880-98f1-69ac34a4fe98" d="M61.06,58.57H73.69c.3,0,.64-.11.89.16l-8.65.07-4.11,0C61.56,58.75,61.24,58.93,61.06,58.57Z"/><path class="e9e641b8-a9bf-4b79-859d-06a97766487b" d="M75.32,51.89l.06-.25Z"/><path class="af06f3ef-fd8d-4a96-b22f-9a06af44df8e" d="M91.7,88.42H40.3C37,87.24,36,84.81,36,81.45Q36.12,54.21,36,27c0-3.36,1-5.79,4.3-7H74.67c4.5.81,7.89,3.39,10.88,6.69,1.86,2.06,3.91,4,5.89,5.92A14.75,14.75,0,0,1,96,43.5c0,12.65,0,25.3,0,38C96,84.8,95,87.24,91.7,88.42Zm-17.09-64c-.6-.06-1-.14-1.39-.14q-15.58,0-31.17,0c-1.34,0-1.78.58-1.76,1.85,0,3.54,0,7.09,0,10.64q0,22.65,0,45.3c0,1.25.12,2.16,1.75,2.15q24,0,47.9,0c1.21,0,1.77-.43,1.77-1.68q0-19.92,0-39.83c0-1.06-.36-1.38-1.42-1.37-4.66.05-9.32,0-14,0h-1.7Zm14.6,12.65L78.92,26.65v10.4Z"/><path class="a1a1090a-0b4e-413d-b9ae-b5f1579b83bc" d="M64.17,162.38h5.3c.13.18.32.12.49.13a33.08,33.08,0,0,1,8.46,1.74A20.12,20.12,0,0,1,83.69,167a9.47,9.47,0,0,1,3.67,5.09v2.12c-.16.07-.17.25-.21.39a7.16,7.16,0,0,1-1.65,2.91,15.82,15.82,0,0,1-6.76,4.25A36.14,36.14,0,0,1,59.35,183a22.93,22.93,0,0,1-9.47-3.89,9.39,9.39,0,0,1-3.17-3.83c-.16-.36-.14-.78-.44-1.08v-2.25c0-.05.11-.09.13-.14A9.57,9.57,0,0,1,51,166.27a26.84,26.84,0,0,1,10.33-3.5A21.14,21.14,0,0,0,64.17,162.38ZM76,168c-.75,0-1.5,0-2.25,0-.47,0-.68.12-.74.6s-.22,1.12-.33,1.69c-.56,2.85-1.11,5.71-1.69,8.56-.1.45,0,.55.43.53s1.11,0,1.66,0c.35,0,.51-.1.56-.45.09-.63.24-1.25.34-1.89.07-.42.21-.65.71-.61a18.87,18.87,0,0,0,2,0,4.93,4.93,0,0,0,4.93-4.07c.53-2.74-.75-4.31-3.56-4.36Zm-18.87,0v0c-.77,0-1.54,0-2.31,0-.41,0-.57.12-.65.54q-1,5.16-2,10.32c-.09.43,0,.54.44.52s1.11,0,1.66,0c.34,0,.51-.07.56-.45.09-.68.26-1.35.37-2,.06-.34.19-.49.56-.47.66,0,1.33,0,2,0a4.94,4.94,0,0,0,5.09-4.27c.42-2.43-.69-3.91-3.14-4.12C58.84,168,58,168,57.15,168Zm12.46,8.4a7,7,0,0,1,.93,0c.44.06.58-.15.64-.54.27-1.65.48-3.32.85-5s-.59-2.63-2.17-2.88a15.86,15.86,0,0,0-2.58-.06c-.39,0-.58-.1-.47-.53s.15-.78.23-1.17c.26-1.27.26-1.26-1-1.26-.31,0-.62,0-.93,0s-.53.1-.6.49c-.29,1.61-.62,3.21-.94,4.8-.37,1.84-.73,3.68-1.11,5.52-.1.48,0,.63.51.59a12.85,12.85,0,0,1,1.52,0c.41,0,.57-.11.65-.53.32-1.76.7-3.5,1-5.26.08-.43.25-.6.69-.56s1,0,1.46,0c.9,0,1.1.27.93,1.14l-.72,3.83c-.08.43-.35,1-.17,1.26S69.23,176.38,69.61,176.43Z"/><path class="b436648e-c14f-4e68-85c4-3ce5d0c86c9f" d="M76,168h2c2.81.05,4.09,1.62,3.56,4.36a4.93,4.93,0,0,1-4.93,4.07,18.87,18.87,0,0,1-2,0c-.5,0-.64.19-.71.61-.1.64-.25,1.26-.34,1.89,0,.35-.21.47-.56.45-.55,0-1.11,0-1.66,0s-.53-.08-.43-.53c.58-2.85,1.13-5.71,1.69-8.56.11-.57.26-1.12.33-1.69s.27-.62.74-.6C74.52,168,75.27,168,76,168Zm.61,2.09h-.85c-.23,0-.39,0-.43.3-.2,1.19-.39,2.39-.59,3.58,0,.2,0,.35.26.34a5.87,5.87,0,0,0,2.53-.28,2.87,2.87,0,0,0,1.33-2.93c-.14-.7-.76-1-2-1Z"/><path class="b436648e-c14f-4e68-85c4-3ce5d0c86c9f" d="M57.15,168c.84,0,1.69-.06,2.52,0,2.45.21,3.56,1.69,3.14,4.12a4.94,4.94,0,0,1-5.09,4.27c-.66,0-1.33,0-2,0-.37,0-.5.13-.56.47-.11.67-.28,1.34-.37,2,0,.38-.22.46-.56.45-.55,0-1.11,0-1.66,0s-.53-.09-.44-.52q1.05-5.16,2-10.32c.08-.42.24-.55.65-.54.77,0,1.54,0,2.31,0Zm.61,2.06a3.53,3.53,0,0,1-.46,0c-.55-.07-.85.08-.89.71s-.23,1.17-.27,1.76-.54,1.36-.08,1.67,1.25.12,1.87,0a2.6,2.6,0,0,0,2.13-3C60,170.42,59.37,170.09,57.76,170.09Z"/><path class="b436648e-c14f-4e68-85c4-3ce5d0c86c9f" d="M69.61,176.43c-.38-.05-1,.21-1.25-.11s.09-.83.17-1.26l.72-3.83c.17-.87,0-1.12-.93-1.14-.49,0-1,0-1.46,0s-.61.13-.69.56c-.33,1.76-.71,3.5-1,5.26-.08.42-.24.55-.65.53a12.85,12.85,0,0,0-1.52,0c-.48,0-.61-.11-.51-.59.38-1.84.74-3.68,1.11-5.52.32-1.59.65-3.19.94-4.8.07-.39.22-.52.6-.49s.62,0,.93,0c1.26,0,1.26,0,1,1.26-.08.39-.13.78-.23,1.17s.08.53.47.53a15.86,15.86,0,0,1,2.58.06c1.58.25,2.55,1.2,2.17,2.88s-.58,3.3-.85,5c-.06.39-.2.6-.64.54A7,7,0,0,0,69.61,176.43Z"/><path class="a1a1090a-0b4e-413d-b9ae-b5f1579b83bc" d="M76.63,170.09h.2c1.29,0,1.91.31,2,1A2.87,2.87,0,0,1,77.55,174a5.87,5.87,0,0,1-2.53.28c-.25,0-.29-.14-.26-.34.2-1.19.39-2.39.59-3.58,0-.25.2-.31.43-.3Z"/><path class="a1a1090a-0b4e-413d-b9ae-b5f1579b83bc" d="M57.76,170.09c1.61,0,2.23.33,2.3,1.2a2.6,2.6,0,0,1-2.13,3c-.62.09-1.43.27-1.87,0s0-1.09.08-1.67.24-1.17.27-1.76.34-.78.89-.71A3.53,3.53,0,0,0,57.76,170.09Z"/><path class="a1a1090a-0b4e-413d-b9ae-b5f1579b83bc" d="M93.22,202.29H40.41C37,201.07,36,198.57,36,195.13q.12-28,0-56c0-3.45,1-5.95,4.41-7.17H75.72c4.63.83,8.11,3.48,11.18,6.87,1.92,2.12,4,4.07,6,6.08a15.17,15.17,0,0,1,4.65,11.19c0,13-.06,26,0,39C97.66,198.57,96.6,201.07,93.22,202.29ZM75.66,136.52c-.61-.06-1-.14-1.42-.14-10.67,0-21.35,0-32,0-1.38,0-1.83.59-1.81,1.89,0,3.65,0,7.29,0,10.93q0,23.26,0,46.54c0,1.29.13,2.22,1.8,2.22q24.6-.06,49.2,0c1.24,0,1.82-.44,1.82-1.73q0-20.46,0-40.91c0-1.09-.37-1.42-1.45-1.41-4.79.05-9.58,0-14.37,0H75.66Zm15,13c-3.52-3.57-7.07-7.15-10.57-10.69v10.69Z"/><path class="b76d01e4-9117-42f5-9538-571acea689ac" d="M144.83,275c4.86,0,9.72,0,14.58,0,.76,0,.86.24.8.9q-1.17,13-2.33,26c-.12,1.33-.26,2.66-.35,4a.8.8,0,0,1-.7.84Q151,308.32,145.2,310a1.53,1.53,0,0,1-.85,0c-3.82-1.07-7.63-2.14-11.46-3.17a.91.91,0,0,1-.79-.95q-1-11.91-2.12-23.82c-.19-2.06-.35-4.13-.56-6.19-.06-.6.07-.81.73-.8C135,275,139.93,275,144.83,275Zm-.27,14c-1.24,0-2.47,0-3.71,0-.38,0-.63,0-.58.52.1,1,.17,1.94.23,2.91,0,.47.35.47.69.47l3.54,0V299l-2.48-.65c-1.65-.45-1.65-.45-1.85-2.1a8.23,8.23,0,0,1-.11-1c0-.4-.18-.51-.55-.5-.91,0-1.83,0-2.75,0-.54,0-.65.19-.6.68.16,1.56.31,3.12.41,4.68a1,1,0,0,0,.87,1c2.37.63,4.72,1.32,7.07,2v3.2c0,1.11,0,1.11,1,.81,2.59-.72,5.17-1.45,7.76-2.16,1.65-.46,1.62-.45,1.7-2.14s.24-3.47.39-5.2c.21-2.38.45-4.75.67-7.12.14-1.56.26-3.12.4-4.67q.33-3.66.67-7.3c.07-.63-.09-.9-.8-.89q-5.52,0-11,0c-.62,0-.81.18-.83.81a6.7,6.7,0,0,1-.16,2.71c-2.89,0-5.79,0-8.68,0-.58,0-.8.15-.71.75a17.15,17.15,0,0,1,.24,2.37c0,.7.31.8.92.8,2.81,0,5.61,0,8.42,0,0,.38,0,.76,0,1.13C144.66,287.18,145,288.12,144.56,289Z"/><path class="f4e60187-d2e4-44a6-b7ab-451ac758b719" d="M144.56,281.18a6.7,6.7,0,0,0,.16-2.71c0-.63.21-.81.83-.81q5.5,0,11,0c.71,0,.87.26.8.89q-.35,3.65-.67,7.3c-.14,1.55-.26,3.11-.4,4.67-.22,2.37-.46,4.74-.67,7.12-.15,1.73-.31,3.46-.39,5.2s-.05,1.68-1.7,2.14c-2.59.71-5.17,1.44-7.76,2.16-1,.3-1,.3-1-.81v-3.2l.19-.08c2.25-.61,4.49-1.28,6.77-1.81.91-.21,1.14-.66,1.2-1.5.19-2.57.45-5.13.68-7.69q.45-5.08.91-10.17c0-.49-.07-.68-.6-.68-3,0-6,0-9,.05Z"/><path class="e0386fb4-997b-4f66-91e9-6b4c94379507" d="M144.93,303.05l-.19.08c-2.35-.66-4.7-1.35-7.07-2a1,1,0,0,1-.87-1c-.1-1.56-.25-3.12-.41-4.68,0-.49.06-.7.6-.68.92,0,1.84,0,2.75,0,.37,0,.55.1.55.5a8.23,8.23,0,0,0,.11,1c.2,1.65.2,1.65,1.85,2.1l2.48.65.19.06Z"/><path class="a39424ac-a553-4036-acaf-8f90543de1ab" d="M144.56,281.18l.35.07c0,1.26,0,2.52,0,3.78l-.17.1c-2.81,0-5.61,0-8.42,0-.61,0-.92-.1-.92-.8a17.15,17.15,0,0,0-.24-2.37c-.09-.6.13-.75.71-.75C138.77,281.21,141.67,281.19,144.56,281.18Z"/><path class="f4e60187-d2e4-44a6-b7ab-451ac758b719" d="M144.92,299.08l-.19-.06V293s0-.08,0-.12a33.94,33.94,0,0,0,4.16.08c.49,0,.7.12.65.65-.14,1.32-.26,2.64-.36,4,0,.42-.32.44-.6.52Z"/><path class="f4e60187-d2e4-44a6-b7ab-451ac758b719" d="M144.75,285.13l.17-.1c1.54,0,3.08.07,4.62.05.6,0,.78.19.7.77-.1.82-.17,1.65-.22,2.47,0,.54-.25.75-.83.74-1.48,0-3,0-4.44,0l-.19-.08c.39-.89.1-1.83.18-2.75C144.77,285.89,144.75,285.51,144.75,285.13Z"/><path class="a39424ac-a553-4036-acaf-8f90543de1ab" d="M144.56,289l.19.08a9.11,9.11,0,0,1,0,3.75s0,.08,0,.12l-3.54,0c-.34,0-.66,0-.69-.47-.06-1-.13-1.94-.23-2.91-.05-.48.2-.52.58-.52C142.09,289,143.32,289,144.56,289Z"/><path class="eceebd06-3785-4a97-9fbe-9faee821ab04" d="M144.74,292.84a9.11,9.11,0,0,0,0-3.75c1.48,0,3-.06,4.44,0,.58,0,.79-.2.83-.74,0-.82.12-1.65.22-2.47.08-.58-.1-.77-.7-.77-1.54,0-3.08,0-4.62-.05,0-1.26,0-2.52,0-3.78,3,0,6,0,9-.05.53,0,.65.19.6.68q-.47,5.08-.91,10.17c-.23,2.56-.49,5.12-.68,7.69-.06.84-.29,1.29-1.2,1.5-2.28.53-4.52,1.2-6.77,1.81,0-1.32,0-2.65,0-4l3.67-1c.28-.08.57-.1.6-.52.1-1.33.22-2.65.36-4,0-.53-.16-.64-.65-.65A33.94,33.94,0,0,1,144.74,292.84Z"/><path class="b76d01e4-9117-42f5-9538-571acea689ac" d="M171.22,318.29H118.41c-3.37-1.22-4.42-3.72-4.41-7.16q.12-28,0-56c0-3.45,1-5.95,4.41-7.17h35.31c4.63.83,8.11,3.48,11.18,6.87,1.92,2.12,4,4.07,6,6.08a15.17,15.17,0,0,1,4.65,11.19c0,13-.06,26,0,39C175.66,314.57,174.6,317.07,171.22,318.29Zm-17.56-65.77c-.61-.06-1-.14-1.42-.14-10.67,0-21.35,0-32,0-1.38,0-1.83.59-1.81,1.89,0,3.65,0,7.29,0,10.93q0,23.26,0,46.54c0,1.29.13,2.22,1.8,2.22q24.6-.06,49.2,0c1.24,0,1.82-.44,1.82-1.73q0-20.46,0-40.91c0-1.09-.37-1.42-1.45-1.41-4.79.05-9.58,0-14.37,0h-1.75Zm15,13c-3.52-3.57-7.07-7.15-10.57-10.69v10.69Z"/><path class="b76d01e4-9117-42f5-9538-571acea689ac" d="M117.79,337.51a5.64,5.64,0,0,1-3.41-1.25l1.18-1.65a5.31,5.31,0,0,0,1.17.7,2.87,2.87,0,0,0,1.14.23,1.5,1.5,0,0,0,.86-.19.67.67,0,0,0,.27-.56.58.58,0,0,0-.15-.39,1.43,1.43,0,0,0-.42-.31,2.82,2.82,0,0,0-.58-.26l-.67-.26c-.27-.11-.55-.24-.82-.38a3.69,3.69,0,0,1-.76-.53,2.73,2.73,0,0,1-.56-.74,2.17,2.17,0,0,1-.21-1,2.71,2.71,0,0,1,.24-1.14,2.46,2.46,0,0,1,.69-.88,3.46,3.46,0,0,1,1.08-.57,4.75,4.75,0,0,1,1.41-.2,4.18,4.18,0,0,1,1.79.35,7,7,0,0,1,1.36.78l-1.19,1.59a4.18,4.18,0,0,0-1-.56,2.23,2.23,0,0,0-.93-.2c-.67,0-1,.23-1,.7a.53.53,0,0,0,.14.37,1.5,1.5,0,0,0,.39.28c.16.08.35.16.56.24l.66.25c.28.1.57.23.85.36a3.36,3.36,0,0,1,.77.52,2.19,2.19,0,0,1,.57.74,2.33,2.33,0,0,1,.22,1.06,2.66,2.66,0,0,1-.24,1.13,2.45,2.45,0,0,1-.7.91,3.4,3.4,0,0,1-1.15.61A5.08,5.08,0,0,1,117.79,337.51Z"/><path class="b76d01e4-9117-42f5-9538-571acea689ac" d="M126.22,337.51a3.51,3.51,0,0,1-1.41-.26,2.44,2.44,0,0,1-1-.7,3,3,0,0,1-.54-1.09,5.56,5.56,0,0,1-.17-1.41v-3.62h-1.22v-2l1.37-.11.3-2.37h2.2v2.37h2.14v2.07h-2.14V334a1.54,1.54,0,0,0,.31,1.09,1.08,1.08,0,0,0,.84.34,1.72,1.72,0,0,0,.44-.06,3.37,3.37,0,0,0,.41-.12l.41,1.92c-.24.07-.52.15-.85.22A5.34,5.34,0,0,1,126.22,337.51Z"/><path class="b76d01e4-9117-42f5-9538-571acea689ac" d="M130.67,340.78a4.87,4.87,0,0,1-.71,0,3.41,3.41,0,0,1-.55-.14l.46-2,.29.07a1.76,1.76,0,0,0,.31,0,1.46,1.46,0,0,0,1-.33,2,2,0,0,0,.54-.84l.13-.47-3.44-8.7h2.66l1.28,3.84c.13.41.26.82.36,1.24s.23.85.35,1.3h.07c.09-.42.19-.85.29-1.27s.21-.85.32-1.27l1.08-3.84h2.54l-3.1,9a11.74,11.74,0,0,1-.67,1.49,4.49,4.49,0,0,1-.81,1.06,3.33,3.33,0,0,1-1.05.64A4.07,4.07,0,0,1,130.67,340.78Z"/><path class="b76d01e4-9117-42f5-9538-571acea689ac" d="M141.48,337.51a2.81,2.81,0,0,1-1.15-.22,1.85,1.85,0,0,1-.75-.6,2.6,2.6,0,0,1-.4-.94,5.66,5.66,0,0,1-.13-1.23v-9.85h2.65v10a.85.85,0,0,0,.15.57.45.45,0,0,0,.32.17h.15l.17,0,.33,2a2.86,2.86,0,0,1-.55.15A3.74,3.74,0,0,1,141.48,337.51Z"/><path class="b76d01e4-9117-42f5-9538-571acea689ac" d="M148.2,337.51a4.94,4.94,0,0,1-1.78-.32,4,4,0,0,1-1.45-.92,4.34,4.34,0,0,1-.95-1.46,5.34,5.34,0,0,1-.34-2,5.14,5.14,0,0,1,.36-2,4.58,4.58,0,0,1,.94-1.47,4.18,4.18,0,0,1,1.35-.93,3.82,3.82,0,0,1,1.56-.32,4,4,0,0,1,1.67.32,3.32,3.32,0,0,1,1.18.9,3.85,3.85,0,0,1,.72,1.36,6.13,6.13,0,0,1,.23,1.7,5.12,5.12,0,0,1,0,.69,3.16,3.16,0,0,1-.07.48h-5.34A2.14,2.14,0,0,0,147,335a2.45,2.45,0,0,0,1.52.46,3.7,3.7,0,0,0,1.92-.59l.89,1.6a6,6,0,0,1-1.53.74A5.26,5.26,0,0,1,148.2,337.51Zm-2-5.65h3.22a2,2,0,0,0-.34-1.23,1.34,1.34,0,0,0-1.15-.47,1.64,1.64,0,0,0-1.11.42A2,2,0,0,0,146.22,331.86Z"/><path class="b76d01e4-9117-42f5-9538-571acea689ac" d="M155.05,337.51a1.53,1.53,0,0,1-1.14-.48,1.66,1.66,0,0,1-.46-1.18,1.69,1.69,0,0,1,.46-1.2,1.63,1.63,0,0,1,2.29,0,1.69,1.69,0,0,1,.46,1.2,1.66,1.66,0,0,1-.46,1.18A1.53,1.53,0,0,1,155.05,337.51Z"/><path class="b76d01e4-9117-42f5-9538-571acea689ac" d="M162.63,337.51a4.67,4.67,0,0,1-1.73-.32,4,4,0,0,1-1.4-.91,4.11,4.11,0,0,1-.93-1.46,5.43,5.43,0,0,1-.35-2,5,5,0,0,1,.38-2,4.3,4.3,0,0,1,2.5-2.38,5.08,5.08,0,0,1,1.77-.31,3.69,3.69,0,0,1,1.46.27,4.85,4.85,0,0,1,1.15.68l-1.24,1.71a2,2,0,0,0-1.21-.52,1.88,1.88,0,0,0-1.53.68,2.88,2.88,0,0,0-.56,1.86,2.78,2.78,0,0,0,.57,1.85,1.77,1.77,0,0,0,1.43.69,2.06,2.06,0,0,0,.84-.19,4.52,4.52,0,0,0,.76-.46l1,1.73a4,4,0,0,1-1.44.81A4.78,4.78,0,0,1,162.63,337.51Z"/><path class="b76d01e4-9117-42f5-9538-571acea689ac" d="M169.78,337.51a5.64,5.64,0,0,1-3.42-1.25l1.19-1.65a5.09,5.09,0,0,0,1.17.7,2.82,2.82,0,0,0,1.13.23,1.46,1.46,0,0,0,.86-.19.67.67,0,0,0,.27-.56.58.58,0,0,0-.15-.39,1.52,1.52,0,0,0-.41-.31,3.18,3.18,0,0,0-.59-.26l-.66-.26c-.28-.11-.55-.24-.83-.38a3.69,3.69,0,0,1-.76-.53,2.69,2.69,0,0,1-.55-.74,2.05,2.05,0,0,1-.22-1,2.71,2.71,0,0,1,.24-1.14,2.49,2.49,0,0,1,.7-.88,3.25,3.25,0,0,1,1.08-.57,4.64,4.64,0,0,1,1.4-.2,4.25,4.25,0,0,1,1.8.35,7.25,7.25,0,0,1,1.35.78l-1.19,1.59a4.13,4.13,0,0,0-.95-.56,2.31,2.31,0,0,0-.94-.2c-.67,0-1,.23-1,.7a.5.5,0,0,0,.15.37,1.29,1.29,0,0,0,.38.28c.17.08.35.16.56.24l.66.25a9,9,0,0,1,.85.36,3.42,3.42,0,0,1,.78.52,2.3,2.3,0,0,1,.56.74,2.33,2.33,0,0,1,.22,1.06,2.82,2.82,0,0,1-.23,1.13,2.56,2.56,0,0,1-.7.91,3.55,3.55,0,0,1-1.16.61A5,5,0,0,1,169.78,337.51Z"/><path class="b76d01e4-9117-42f5-9538-571acea689ac" d="M177.75,337.51a5.45,5.45,0,0,1-1.81-.34,5.61,5.61,0,0,1-1.61-.91l1.19-1.65a5.31,5.31,0,0,0,1.17.7,2.83,2.83,0,0,0,1.14.23,1.5,1.5,0,0,0,.86-.19.67.67,0,0,0,.27-.56.58.58,0,0,0-.15-.39,1.58,1.58,0,0,0-.42-.31,3.08,3.08,0,0,0-.58-.26l-.67-.26c-.27-.11-.55-.24-.83-.38a3.91,3.91,0,0,1-.75-.53,2.54,2.54,0,0,1-.56-.74,2.18,2.18,0,0,1-.22-1,2.57,2.57,0,0,1,.25-1.14,2.46,2.46,0,0,1,.69-.88,3.46,3.46,0,0,1,1.08-.57,4.73,4.73,0,0,1,1.4-.2,4.19,4.19,0,0,1,1.8.35,6.65,6.65,0,0,1,1.35.78l-1.18,1.59a4.41,4.41,0,0,0-1-.56,2.23,2.23,0,0,0-.93-.2c-.68,0-1,.23-1,.7a.49.49,0,0,0,.14.37,1.5,1.5,0,0,0,.39.28c.16.08.35.16.56.24l.65.25a9.19,9.19,0,0,1,.86.36,3.36,3.36,0,0,1,.77.52,2.33,2.33,0,0,1,.57.74,2.47,2.47,0,0,1,.22,1.06,2.66,2.66,0,0,1-.24,1.13,2.45,2.45,0,0,1-.7.91,3.49,3.49,0,0,1-1.15.61A5.12,5.12,0,0,1,177.75,337.51Z"/><path class="af06f3ef-fd8d-4a96-b22f-9a06af44df8e" d="M38.48,96.7a1.59,1.59,0,0,1-1.1-.39,1.27,1.27,0,0,1-.43-1,1.24,1.24,0,0,1,.43-1,1.8,1.8,0,0,1,2.21,0,1.26,1.26,0,0,1,.42,1,1.3,1.3,0,0,1-.42,1A1.58,1.58,0,0,1,38.48,96.7Zm-1.31,10.24V98h2.64v8.93Z"/><path class="af06f3ef-fd8d-4a96-b22f-9a06af44df8e" d="M42.13,106.94V98h2.16l.18,1.14h.07a7.71,7.71,0,0,1,1.26-1,3.1,3.1,0,0,1,1.61-.4,2.37,2.37,0,0,1,2.11,1,4.62,4.62,0,0,1,.66,2.65v5.54H47.53v-5.2a2.35,2.35,0,0,0-.26-1.33,1,1,0,0,0-.83-.36,1.61,1.61,0,0,0-.87.22,4.93,4.93,0,0,0-.79.64v6Z"/><path class="af06f3ef-fd8d-4a96-b22f-9a06af44df8e" d="M55.62,107.16a3.38,3.38,0,0,1-1.51-.33,3.19,3.19,0,0,1-1.15-.92,4.61,4.61,0,0,1-.74-1.47,6.94,6.94,0,0,1-.26-2,5.73,5.73,0,0,1,.32-2,4.78,4.78,0,0,1,.82-1.46,3.78,3.78,0,0,1,1.19-.93,3.1,3.1,0,0,1,1.38-.32,2.66,2.66,0,0,1,1.24.25,4.46,4.46,0,0,1,1,.68l-.11-1.37v-3H60.4v12.62H58.24l-.18-.88H58a4.2,4.2,0,0,1-1.1.78A2.81,2.81,0,0,1,55.62,107.16ZM56.3,105a1.66,1.66,0,0,0,.78-.18,2,2,0,0,0,.68-.63v-3.66a2.34,2.34,0,0,0-.74-.45,2.43,2.43,0,0,0-.74-.12,1.4,1.4,0,0,0-1.11.6,2.94,2.94,0,0,0-.49,1.88,3.47,3.47,0,0,0,.42,1.94A1.37,1.37,0,0,0,56.3,105Z"/><path class="af06f3ef-fd8d-4a96-b22f-9a06af44df8e" d="M66.74,107.16a4.94,4.94,0,0,1-1.78-.32,4,4,0,0,1-1.44-.92,4.22,4.22,0,0,1-1-1.46,5.34,5.34,0,0,1-.34-2,5.14,5.14,0,0,1,.36-2,4.6,4.6,0,0,1,1-1.47,4.14,4.14,0,0,1,1.34-.93,3.82,3.82,0,0,1,1.56-.32,4,4,0,0,1,1.67.32,3.44,3.44,0,0,1,1.19.9,4,4,0,0,1,.71,1.36,6.13,6.13,0,0,1,.23,1.7c0,.24,0,.47,0,.68a4.51,4.51,0,0,1-.08.49H64.78a2.14,2.14,0,0,0,.8,1.43,2.45,2.45,0,0,0,1.52.46,3.73,3.73,0,0,0,1.93-.59l.88,1.6a6.12,6.12,0,0,1-1.52.74A5.37,5.37,0,0,1,66.74,107.16Zm-2-5.66H68a2,2,0,0,0-.34-1.22,1.34,1.34,0,0,0-1.15-.47,1.64,1.64,0,0,0-1.11.42A2.07,2.07,0,0,0,64.76,101.5Z"/><path class="af06f3ef-fd8d-4a96-b22f-9a06af44df8e" d="M70.86,106.94l2.74-4.64L71,98h2.85l.79,1.44c.12.25.24.51.37.77s.25.51.39.76h.07c.09-.25.2-.5.3-.76s.21-.52.31-.77L76.71,98h2.74l-2.59,4.59,2.75,4.34H76.76l-.86-1.48-.42-.77c-.14-.26-.28-.52-.43-.77H75c-.1.25-.22.5-.34.76s-.23.52-.34.78l-.7,1.48Z"/><path class="af06f3ef-fd8d-4a96-b22f-9a06af44df8e" d="M82.27,107.16a1.53,1.53,0,0,1-1.14-.48,1.62,1.62,0,0,1-.46-1.18,1.65,1.65,0,0,1,.46-1.2,1.63,1.63,0,0,1,2.29,0,1.69,1.69,0,0,1,.46,1.2,1.66,1.66,0,0,1-.46,1.18A1.53,1.53,0,0,1,82.27,107.16Z"/><path class="af06f3ef-fd8d-4a96-b22f-9a06af44df8e" d="M86.14,110.25V98H88.3l.18.88h.07a5.25,5.25,0,0,1,1.18-.78,3.11,3.11,0,0,1,1.36-.31A3.08,3.08,0,0,1,93.65,99a4.23,4.23,0,0,1,.69,1.43,6.76,6.76,0,0,1,.24,1.86,6.18,6.18,0,0,1-.31,2,4.71,4.71,0,0,1-.85,1.51,3.57,3.57,0,0,1-1.2.94,3.16,3.16,0,0,1-1.4.33,2.57,2.57,0,0,1-1.11-.25,3.49,3.49,0,0,1-1-.69l.09,1.42v2.61ZM90.21,105a1.44,1.44,0,0,0,1.17-.62,3.26,3.26,0,0,0,.49-2c0-1.61-.52-2.41-1.55-2.41a2.12,2.12,0,0,0-1.53.81v3.65a2,2,0,0,0,.72.45A2.21,2.21,0,0,0,90.21,105Z"/><path class="af06f3ef-fd8d-4a96-b22f-9a06af44df8e" d="M96.46,106.94V94.32H99.1v3.1L99,99a6.76,6.76,0,0,1,1.17-.84,3.16,3.16,0,0,1,1.58-.38,2.39,2.39,0,0,1,2.12,1,4.7,4.7,0,0,1,.65,2.65v5.54h-2.64v-5.2a2.44,2.44,0,0,0-.26-1.33,1,1,0,0,0-.84-.36,1.61,1.61,0,0,0-.87.22,4.93,4.93,0,0,0-.79.64v6Z"/><path class="af06f3ef-fd8d-4a96-b22f-9a06af44df8e" d="M106.73,110.25V98h2.16l.18.88h.08a4.84,4.84,0,0,1,1.18-.78,3.08,3.08,0,0,1,1.36-.31A3.07,3.07,0,0,1,114.24,99a4.23,4.23,0,0,1,.69,1.43,6.39,6.39,0,0,1,.25,1.86,6.17,6.17,0,0,1-.32,2,4.89,4.89,0,0,1-.84,1.51,3.71,3.71,0,0,1-1.21.94,3.15,3.15,0,0,1-1.39.33,2.58,2.58,0,0,1-1.12-.25,3.49,3.49,0,0,1-1-.69l.09,1.42v2.61ZM110.8,105a1.44,1.44,0,0,0,1.17-.62,3.26,3.26,0,0,0,.49-2c0-1.61-.52-2.41-1.55-2.41a2.12,2.12,0,0,0-1.53.81v3.65a2,2,0,0,0,.72.45A2.21,2.21,0,0,0,110.8,105Z"/><path class="a1a1090a-0b4e-413d-b9ae-b5f1579b83bc" d="M41.85,222.16a2.66,2.66,0,0,1-1.2-.3,3.94,3.94,0,0,1-1.13-.87h-.07l-.21.95H37.17V209.32h2.64v3.1l-.07,1.37a3.83,3.83,0,0,1,1.13-.73,3,3,0,0,1,1.23-.26A3.1,3.1,0,0,1,44.66,214a4.21,4.21,0,0,1,.71,1.42,6.76,6.76,0,0,1,.24,1.86,6.23,6.23,0,0,1-.32,2.06,4.83,4.83,0,0,1-.84,1.52,3.71,3.71,0,0,1-1.21.94A3.12,3.12,0,0,1,41.85,222.16ZM41.23,220a1.44,1.44,0,0,0,1.17-.62,3.26,3.26,0,0,0,.49-2c0-1.61-.51-2.41-1.55-2.41a2.09,2.09,0,0,0-1.53.81v3.65a2,2,0,0,0,.72.45A2.26,2.26,0,0,0,41.23,220Z"/><path class="a1a1090a-0b4e-413d-b9ae-b5f1579b83bc" d="M49.53,222.16a2.77,2.77,0,0,1-1.1-.21,2.38,2.38,0,0,1-.84-.58,2.49,2.49,0,0,1-.53-.85,2.85,2.85,0,0,1-.19-1.06,2.49,2.49,0,0,1,1.19-2.2,8.73,8.73,0,0,1,3.83-1.06,1.5,1.5,0,0,0-.35-.95,1.37,1.37,0,0,0-1-.35,3.09,3.09,0,0,0-1.15.22,8.31,8.31,0,0,0-1.21.59l-1-1.74a9.62,9.62,0,0,1,1.81-.85,6,6,0,0,1,2-.32,3.41,3.41,0,0,1,2.64,1,4.39,4.39,0,0,1,.91,3.05v5.11H52.38L52.2,221h-.08a5.44,5.44,0,0,1-1.2.82A3.06,3.06,0,0,1,49.53,222.16Zm.9-2.06a1.5,1.5,0,0,0,.78-.19,4.44,4.44,0,0,0,.68-.56v-1.57a5,5,0,0,0-1.94.58,1.08,1.08,0,0,0-.54.9.74.74,0,0,0,.28.64A1.18,1.18,0,0,0,50.43,220.1Z"/><path class="a1a1090a-0b4e-413d-b9ae-b5f1579b83bc" d="M60.66,222.16a4.68,4.68,0,0,1-1.74-.32,4.08,4.08,0,0,1-1.4-.91,4.25,4.25,0,0,1-.93-1.46,5.43,5.43,0,0,1-.34-2,5,5,0,0,1,.37-2,4.45,4.45,0,0,1,1-1.47,4.37,4.37,0,0,1,1.49-.91,5,5,0,0,1,1.76-.31,3.78,3.78,0,0,1,1.47.27,4.65,4.65,0,0,1,1.14.68l-1.24,1.71a1.91,1.91,0,0,0-1.21-.52,1.88,1.88,0,0,0-1.53.68,2.88,2.88,0,0,0-.56,1.86,2.78,2.78,0,0,0,.57,1.85A1.77,1.77,0,0,0,61,220a2,2,0,0,0,.84-.18,4.52,4.52,0,0,0,.76-.46l1,1.72a4,4,0,0,1-1.44.82A4.82,4.82,0,0,1,60.66,222.16Z"/><path class="a1a1090a-0b4e-413d-b9ae-b5f1579b83bc" d="M65.17,221.94V209.32h2.58v7.24h.07L70.65,213h2.88l-3.14,3.67,3.37,5.26H70.9l-2-3.47-1.13,1.27v2.2Z"/><path class="a1a1090a-0b4e-413d-b9ae-b5f1579b83bc" d="M78.53,222.16a4.94,4.94,0,0,1-1.78-.32,4,4,0,0,1-1.44-.92,4.22,4.22,0,0,1-1-1.46,5.55,5.55,0,0,1-.34-2,5.14,5.14,0,0,1,.36-2,4.6,4.6,0,0,1,.95-1.47,4.14,4.14,0,0,1,1.34-.93,3.82,3.82,0,0,1,1.56-.32,3.92,3.92,0,0,1,1.67.32,3.44,3.44,0,0,1,1.19.9,4,4,0,0,1,.71,1.36,6.13,6.13,0,0,1,.23,1.7c0,.24,0,.47,0,.68a4.51,4.51,0,0,1-.08.49H76.57a2.18,2.18,0,0,0,.8,1.43,2.45,2.45,0,0,0,1.52.46,3.73,3.73,0,0,0,1.93-.59l.88,1.6a6,6,0,0,1-1.52.74A5.37,5.37,0,0,1,78.53,222.16Zm-2-5.66h3.22a2,2,0,0,0-.34-1.22,1.34,1.34,0,0,0-1.15-.47,1.64,1.64,0,0,0-1.11.42A2.07,2.07,0,0,0,76.55,216.5Z"/><path class="a1a1090a-0b4e-413d-b9ae-b5f1579b83bc" d="M83.86,221.94V213H86l.18,1.14h.07a6.94,6.94,0,0,1,1.26-1,3.09,3.09,0,0,1,1.6-.4,2.39,2.39,0,0,1,2.12.95,4.62,4.62,0,0,1,.65,2.65v5.54H89.26v-5.2a2.44,2.44,0,0,0-.26-1.33,1,1,0,0,0-.84-.36,1.57,1.57,0,0,0-.86.22,5,5,0,0,0-.8.64v6Z"/><path class="a1a1090a-0b4e-413d-b9ae-b5f1579b83bc" d="M97.34,222.16a3.37,3.37,0,0,1-1.5-.33,3.11,3.11,0,0,1-1.15-.92,4.42,4.42,0,0,1-.74-1.47,6.6,6.6,0,0,1-.26-2,5.74,5.74,0,0,1,.31-2,4.8,4.8,0,0,1,.83-1.46,3.67,3.67,0,0,1,1.19-.93,3.09,3.09,0,0,1,1.37-.32,2.7,2.7,0,0,1,1.25.25,4.41,4.41,0,0,1,1,.68l-.11-1.37v-3h2.65v12.62H100l-.18-.88h-.07a4.37,4.37,0,0,1-1.1.78A2.85,2.85,0,0,1,97.34,222.16ZM98,220a1.73,1.73,0,0,0,.79-.18,2,2,0,0,0,.67-.63v-3.66a2.23,2.23,0,0,0-.74-.45A2.37,2.37,0,0,0,98,215a1.42,1.42,0,0,0-1.12.6,3,3,0,0,0-.49,1.88,3.38,3.38,0,0,0,.43,1.94A1.37,1.37,0,0,0,98,220Z"/><path class="a1a1090a-0b4e-413d-b9ae-b5f1579b83bc" d="M106,222.16a1.5,1.5,0,0,1-1.14-.48,1.62,1.62,0,0,1-.46-1.18,1.65,1.65,0,0,1,.46-1.2,1.52,1.52,0,0,1,1.14-.47,1.55,1.55,0,0,1,1.14.47,1.65,1.65,0,0,1,.46,1.2,1.62,1.62,0,0,1-.46,1.18A1.53,1.53,0,0,1,106,222.16Z"/><path class="a1a1090a-0b4e-413d-b9ae-b5f1579b83bc" d="M109.87,225.25V213H112l.18.88h.07a5,5,0,0,1,1.18-.78,3.11,3.11,0,0,1,1.36-.31,3.19,3.19,0,0,1,1.46.32,3.1,3.1,0,0,1,1.09.92,4.44,4.44,0,0,1,.7,1.43,6.76,6.76,0,0,1,.24,1.86,5.92,5.92,0,0,1-.32,2,4.69,4.69,0,0,1-.84,1.51,3.71,3.71,0,0,1-1.21.94,3.12,3.12,0,0,1-1.39.33,2.58,2.58,0,0,1-1.12-.25,3.63,3.63,0,0,1-1-.69l.09,1.42v2.61Zm4.07-5.25a1.47,1.47,0,0,0,1.17-.62,3.34,3.34,0,0,0,.48-2c0-1.61-.51-2.41-1.55-2.41a2.16,2.16,0,0,0-1.53.81v3.65a2,2,0,0,0,.72.45A2.27,2.27,0,0,0,113.94,220Z"/><path class="a1a1090a-0b4e-413d-b9ae-b5f1579b83bc" d="M120.18,221.94V209.32h2.65v3.1l-.13,1.6a7.62,7.62,0,0,1,1.17-.84,3.2,3.2,0,0,1,1.59-.38,2.37,2.37,0,0,1,2.11.95,4.62,4.62,0,0,1,.66,2.65v5.54h-2.65v-5.2a2.44,2.44,0,0,0-.26-1.33,1,1,0,0,0-.84-.36,1.6,1.6,0,0,0-.86.22,4.93,4.93,0,0,0-.79.64v6Z"/><path class="a1a1090a-0b4e-413d-b9ae-b5f1579b83bc" d="M130.46,225.25V213h2.16l.18.88h.07a5,5,0,0,1,1.18-.78,3.11,3.11,0,0,1,1.36-.31,3.16,3.16,0,0,1,1.46.32A3,3,0,0,1,138,214a4.07,4.07,0,0,1,.7,1.43,6.76,6.76,0,0,1,.24,1.86,6.18,6.18,0,0,1-.31,2,4.91,4.91,0,0,1-.85,1.51,3.67,3.67,0,0,1-1.2.94,3.19,3.19,0,0,1-1.4.33,2.61,2.61,0,0,1-1.12-.25,3.45,3.45,0,0,1-1-.69l.09,1.42v2.61Zm4.07-5.25a1.47,1.47,0,0,0,1.17-.62,3.34,3.34,0,0,0,.48-2c0-1.61-.51-2.41-1.54-2.41a2.12,2.12,0,0,0-1.53.81v3.65a2,2,0,0,0,.72.45A2.21,2.21,0,0,0,134.53,220Z"/></svg>