<svg id="a04faa5f-e1cd-4904-b171-dde281231b3d" data-name="Capa 1" xmlns="http://www.w3.org/2000/svg" viewBox="0 0 320 420"><defs><style>.a8a53b8d-1fb0-4574-b223-6d97b5b1d6fd,.b8307374-6799-4bf0-a8d5-657e83d12113{stroke:#000;stroke-linejoin:round;}.b8307374-6799-4bf0-a8d5-657e83d12113{stroke-linecap:round;stroke-width:4px;}.a8a53b8d-1fb0-4574-b223-6d97b5b1d6fd{fill:none;stroke-width:5px;}.bf6bfa33-5261-4090-b2fb-7348cfd9b181{font-size:24px;fill:#fff;font-family:SourceSansPro-Regular, Source Sans Pro;}.b970f913-ee29-4124-b5dc-68d27f2ecb4f,.bb1b2e5a-fbdc-496d-a076-ef6b0f729569{fill:#e34f27;}.b20557e2-fb9c-4be6-87ca-155758dea8d1{fill:#f0662a;}.f18a4d5c-3dee-4e7a-838c-7b58ab4fdaaa{fill:#ebe8e7;}.ac34c5d4-5668-44e4-8a1d-7918a19b7da4{fill:#ef590c;}.e8361cbd-0c09-421f-8399-d90fc19b0396{fill:#fefdfc;}.a26c0d6f-de3f-4755-8bc8-7cab7ed5eced{fill:#fefdfd;}.ea36145d-d63a-435c-9403-c3d602be9b24,.eaf8b41e-7d9f-4306-b434-704989a4ccfe{fill:#8692c1;}.fb47f862-99e5-4392-b781-8686d163c13d{fill:#232633;}.b0729d71-2834-4961-9c00-7670b0e87f62,.f6bd8b86-0668-4e69-9599-4b4999b3fb1c{fill:#1572b6;}.ff3d7d66-0c5e-4274-8951-5806d8b1cd9f{fill:#34a8db;}.b2dfed2e-f6bf-44fd-b9e9-36fa6dc613aa{fill:#e7e8e9;}.bda10584-240d-4f63-9b7f-9806c7dc6dfe{fill:#e4e7e9;}.b6593ffe-92da-442c-ab15-4c69864637c0{fill:#fdfdfe;}.b970f913-ee29-4124-b5dc-68d27f2ecb4f,.ea36145d-d63a-435c-9403-c3d602be9b24,.f6bd8b86-0668-4e69-9599-4b4999b3fb1c{font-size:18px;font-family:SourceSansPro-Bold, Source Sans Pro;font-weight:700;}.adaf6f10-52cb-4ec8-a4d3-7140127937db{letter-spacing:-0.02em;}.b3c400eb-c245-41fc-89da-6ad6a50360b8{letter-spacing:0em;}.f61b1d4c-7178-435f-8909-94bbcf15eb60{letter-spacing:-0.01em;}.a3f3d2aa-cad9-4e03-8db6-003cb90741e0{letter-spacing:-0.02em;}.e958fb83-9b09-433b-aca5-f07a19280d07{letter-spacing:-0.01em;}.a5dca30f-fd68-4bcc-98e5-98a80dd886ca{letter-spacing:-0.03em;}</style></defs><title>_</title><polygon class="b8307374-6799-4bf0-a8d5-657e83d12113" points="92 266.79 53.69 266.79 49.79 260 36 260 36 303 92 303 92 266.79"/><polyline class="a8a53b8d-1fb0-4574-b223-6d97b5b1d6fd" points="37.95 54 20 54 20 284 115.14 283.94"/><line class="a8a53b8d-1fb0-4574-b223-6d97b5b1d6fd" x1="36.77" y1="167.15" x2="20" y2="167.15"/><text class="bf6bfa33-5261-4090-b2fb-7348cfd9b181" transform="translate(47 291.27)">css</text><path class="bb1b2e5a-fbdc-496d-a076-ef6b0f729569" d="M65.93,44.86H80c1.05,0,1.1.06,1,1.06q-.78,8.67-1.55,17.33-.53,5.86-1,11.73c0,.49-.23.67-.7.8-3.75,1-7.5,2.06-11.24,3.11a1.57,1.57,0,0,1-.91,0c-3.74-1.06-7.48-2.11-11.24-3.12a.77.77,0,0,1-.67-.82q-.78-9.2-1.6-18.37C51.71,53,51.38,49.51,51,46c-.1-1.11-.11-1.11,1-1.11Zm0,17.88,0,5.76c-.93-.11-1.77-.52-2.68-.67s-1.74-.48-1.54-1.73a7.28,7.28,0,0,0-.1-1.12c0-.42-.18-.54-.58-.53-.86,0-1.73,0-2.59,0-.56,0-.7.16-.64.69.15,1.5.29,3,.39,4.49,0,.59.29.81.85,1,2.31.61,4.61,1.28,6.91,1.93,0,.95,0,1.91,0,2.86s.24,1,1.06.79l2.74-.77c1.74-.47,3.5-.92,5.23-1.44.36-.11.94-.11,1-.66q.21-1.76.36-3.51c.13-1.58.23-3.15.37-4.73.21-2.45.45-4.91.67-7.37.14-1.51.25-3,.39-4.54s.31-3.26.48-4.88c.06-.59-.14-.81-.77-.81q-5.33,0-10.65,0c-.66,0-.89.28-.89.88,0,.86,0,1.73,0,2.6H57.44c-.29,0-.65-.14-.87.21q.52,5.7,1,11.4c.25.29.59.17.9.17Z"/><path class="b20557e2-fb9c-4be6-87ca-155758dea8d1" d="M65.93,50.93c0-.87,0-1.74,0-2.6,0-.6.23-.88.89-.88q5.32,0,10.65,0c.63,0,.83.22.77.81-.17,1.62-.33,3.25-.48,4.88s-.25,3-.39,4.54c-.22,2.46-.46,4.92-.67,7.37-.14,1.58-.24,3.15-.37,4.73q-.15,1.75-.36,3.51c-.07.55-.65.55-1,.66-1.73.52-3.49,1-5.23,1.44L67,76.16c-.82.23-1,.06-1.06-.79s0-1.91,0-2.86v-.08a1.94,1.94,0,0,0,.42,0c2.3-.63,4.59-1.28,6.9-1.89.44-.12.5-.38.53-.75.27-3.1.57-6.19.81-9.29,0-.57.38-1.17,0-1.75-.25-.27-.59-.16-.89-.16H65.93V55l0-.06c2.89,0,5.78,0,8.67,0,.41,0,.54-.14.56-.54,0-.84.12-1.67.18-2.5l.06-.25c.05-.2.12-.4-.1-.54s-.6-.16-.9-.16Z"/><path class="f18a4d5c-3dee-4e7a-838c-7b58ab4fdaaa" d="M57.6,62.55q-.51-5.7-1-11.4l9.36,0,0,3.72,0,.06c-1.55,0-3.1,0-4.65,0-.44,0-.62.1-.56.57.14,1,.23,2,.34,3.08.18.36.5.18.76.19l4.11,0v3.73Z"/><path class="f18a4d5c-3dee-4e7a-838c-7b58ab4fdaaa" d="M65.93,72.51c-2.3-.65-4.6-1.32-6.91-1.93-.56-.15-.81-.37-.85-1-.1-1.5-.24-3-.39-4.49-.06-.53.08-.72.64-.69.86,0,1.73,0,2.59,0,.4,0,.58.11.58.53a7.28,7.28,0,0,1,.1,1.12c-.2,1.25.54,1.56,1.54,1.73s1.75.56,2.68.67c0,0,0,.07,0,.11v3.9Z"/><path class="b20557e2-fb9c-4be6-87ca-155758dea8d1" d="M65.92,68.61s0-.07,0-.11c0-1.92,0-3.84,0-5.76h4.65c-.11,1.42-.24,2.85-.33,4.27,0,.42-.29.5-.61.59C68.4,67.92,67.16,68.27,65.92,68.61Z"/><path class="ac34c5d4-5668-44e4-8a1d-7918a19b7da4" d="M65.93,51.17l-9.36,0c.22-.35.58-.21.87-.21H74.38c.3,0,.64-.11.9.16Z"/><path class="ac34c5d4-5668-44e4-8a1d-7918a19b7da4" d="M70.58,62.73H65.93l-7.43,0c-.31,0-.65.12-.9-.17l8.32,0c1.24,0,2.48,0,3.72,0C70,62.57,70.32,62.39,70.58,62.73Z"/><path class="e8361cbd-0c09-421f-8399-d90fc19b0396" d="M70.58,62.73c-.26-.34-.63-.16-.94-.17-1.24,0-2.48,0-3.72,0,0-1.25,0-2.49,0-3.73l8.65-.07c.38.58,0,1.18,0,1.75-.24,3.1-.54,6.19-.81,9.29,0,.37-.09.63-.53.75-2.31.61-4.6,1.26-6.9,1.89a1.94,1.94,0,0,1-.42,0V68.61c1.24-.34,2.48-.69,3.72-1,.32-.09.58-.17.61-.59C70.34,65.58,70.47,64.15,70.58,62.73Z"/><path class="a26c0d6f-de3f-4755-8bc8-7cab7ed5eced" d="M65.93,51.17l9.35-.07c.22.14.15.34.1.54l-.06.25c-.06.83-.14,1.66-.18,2.5,0,.4-.15.54-.56.54-2.89,0-5.78,0-8.67,0C65.92,53.65,65.92,52.41,65.93,51.17Z"/><path class="bb1b2e5a-fbdc-496d-a076-ef6b0f729569" d="M61.06,58.57c-.11-1-.2-2-.34-3.08-.06-.47.12-.58.56-.57,1.55,0,3.1,0,4.65,0v3.61Z"/><path class="ac34c5d4-5668-44e4-8a1d-7918a19b7da4" d="M61.06,58.57H73.69c.3,0,.64-.11.89.16l-8.65.07-4.11,0C61.56,58.75,61.24,58.93,61.06,58.57Z"/><path class="f18a4d5c-3dee-4e7a-838c-7b58ab4fdaaa" d="M75.32,51.89l.06-.25Z"/><path class="bb1b2e5a-fbdc-496d-a076-ef6b0f729569" d="M91.7,88.42H40.3C37,87.24,36,84.81,36,81.45Q36.12,54.21,36,27c0-3.36,1-5.79,4.3-7H74.67c4.5.81,7.89,3.39,10.88,6.69,1.86,2.06,3.91,4,5.89,5.92A14.75,14.75,0,0,1,96,43.5c0,12.65,0,25.3,0,38C96,84.8,95,87.24,91.7,88.42Zm-17.09-64c-.6-.06-1-.14-1.39-.14q-15.58,0-31.17,0c-1.34,0-1.78.58-1.76,1.85,0,3.54,0,7.09,0,10.64q0,22.65,0,45.3c0,1.25.12,2.16,1.75,2.15q24,0,47.9,0c1.21,0,1.77-.43,1.77-1.68q0-19.92,0-39.83c0-1.06-.36-1.38-1.42-1.37-4.66.05-9.32,0-14,0h-1.7Zm14.6,12.65L78.92,26.65v10.4Z"/><path class="eaf8b41e-7d9f-4306-b434-704989a4ccfe" d="M64.17,162.38h5.3c.13.18.32.12.49.13a33.08,33.08,0,0,1,8.46,1.74A20.12,20.12,0,0,1,83.69,167a9.47,9.47,0,0,1,3.67,5.09v2.12c-.16.07-.17.25-.21.39a7.16,7.16,0,0,1-1.65,2.91,15.82,15.82,0,0,1-6.76,4.25A36.14,36.14,0,0,1,59.35,183a22.93,22.93,0,0,1-9.47-3.89,9.39,9.39,0,0,1-3.17-3.83c-.16-.36-.14-.78-.44-1.08v-2.25c0-.05.11-.09.13-.14A9.57,9.57,0,0,1,51,166.27a26.84,26.84,0,0,1,10.33-3.5A21.14,21.14,0,0,0,64.17,162.38ZM76,168c-.75,0-1.5,0-2.25,0-.47,0-.68.12-.74.6s-.22,1.12-.33,1.69c-.56,2.85-1.11,5.71-1.69,8.56-.1.45,0,.55.43.53s1.11,0,1.66,0c.35,0,.51-.1.56-.45.09-.63.24-1.25.34-1.89.07-.42.21-.65.71-.61a18.87,18.87,0,0,0,2,0,4.93,4.93,0,0,0,4.93-4.07c.53-2.74-.75-4.31-3.56-4.36Zm-18.87,0v0c-.77,0-1.54,0-2.31,0-.41,0-.57.12-.65.54q-1,5.16-2,10.32c-.09.43,0,.54.44.52s1.11,0,1.66,0c.34,0,.51-.07.56-.45.09-.68.26-1.35.37-2,.06-.34.19-.49.56-.47.66,0,1.33,0,2,0a4.94,4.94,0,0,0,5.09-4.27c.42-2.43-.69-3.91-3.14-4.12C58.84,168,58,168,57.15,168Zm12.46,8.4a7,7,0,0,1,.93,0c.44.06.58-.15.64-.54.27-1.65.48-3.32.85-5s-.59-2.63-2.17-2.88a15.86,15.86,0,0,0-2.58-.06c-.39,0-.58-.1-.47-.53s.15-.78.23-1.17c.26-1.27.26-1.26-1-1.26-.31,0-.62,0-.93,0s-.53.1-.6.49c-.29,1.61-.62,3.21-.94,4.8-.37,1.84-.73,3.68-1.11,5.52-.1.48,0,.63.51.59a12.85,12.85,0,0,1,1.52,0c.41,0,.57-.11.65-.53.32-1.76.7-3.5,1-5.26.08-.43.25-.6.69-.56s1,0,1.46,0c.9,0,1.1.27.93,1.14l-.72,3.83c-.08.43-.35,1-.17,1.26S69.23,176.38,69.61,176.43Z"/><path class="fb47f862-99e5-4392-b781-8686d163c13d" d="M76,168h2c2.81.05,4.09,1.62,3.56,4.36a4.93,4.93,0,0,1-4.93,4.07,18.87,18.87,0,0,1-2,0c-.5,0-.64.19-.71.61-.1.64-.25,1.26-.34,1.89,0,.35-.21.47-.56.45-.55,0-1.11,0-1.66,0s-.53-.08-.43-.53c.58-2.85,1.13-5.71,1.69-8.56.11-.57.26-1.12.33-1.69s.27-.62.74-.6C74.52,168,75.27,168,76,168Zm.61,2.09h-.85c-.23,0-.39,0-.43.3-.2,1.19-.39,2.39-.59,3.58,0,.2,0,.35.26.34a5.87,5.87,0,0,0,2.53-.28,2.87,2.87,0,0,0,1.33-2.93c-.14-.7-.76-1-2-1Z"/><path class="fb47f862-99e5-4392-b781-8686d163c13d" d="M57.15,168c.84,0,1.69-.06,2.52,0,2.45.21,3.56,1.69,3.14,4.12a4.94,4.94,0,0,1-5.09,4.27c-.66,0-1.33,0-2,0-.37,0-.5.13-.56.47-.11.67-.28,1.34-.37,2,0,.38-.22.46-.56.45-.55,0-1.11,0-1.66,0s-.53-.09-.44-.52q1.05-5.16,2-10.32c.08-.42.24-.55.65-.54.77,0,1.54,0,2.31,0Zm.61,2.06a3.53,3.53,0,0,1-.46,0c-.55-.07-.85.08-.89.71s-.23,1.17-.27,1.76-.54,1.36-.08,1.67,1.25.12,1.87,0a2.6,2.6,0,0,0,2.13-3C60,170.42,59.37,170.09,57.76,170.09Z"/><path class="fb47f862-99e5-4392-b781-8686d163c13d" d="M69.61,176.43c-.38-.05-1,.21-1.25-.11s.09-.83.17-1.26l.72-3.83c.17-.87,0-1.12-.93-1.14-.49,0-1,0-1.46,0s-.61.13-.69.56c-.33,1.76-.71,3.5-1,5.26-.08.42-.24.55-.65.53a12.85,12.85,0,0,0-1.52,0c-.48,0-.61-.11-.51-.59.38-1.84.74-3.68,1.11-5.52.32-1.59.65-3.19.94-4.8.07-.39.22-.52.6-.49s.62,0,.93,0c1.26,0,1.26,0,1,1.26-.08.39-.13.78-.23,1.17s.08.53.47.53a15.86,15.86,0,0,1,2.58.06c1.58.25,2.55,1.2,2.17,2.88s-.58,3.3-.85,5c-.06.39-.2.6-.64.54A7,7,0,0,0,69.61,176.43Z"/><path class="eaf8b41e-7d9f-4306-b434-704989a4ccfe" d="M76.63,170.09h.2c1.29,0,1.91.31,2,1A2.87,2.87,0,0,1,77.55,174a5.87,5.87,0,0,1-2.53.28c-.25,0-.29-.14-.26-.34.2-1.19.39-2.39.59-3.58,0-.25.2-.31.43-.3Z"/><path class="eaf8b41e-7d9f-4306-b434-704989a4ccfe" d="M57.76,170.09c1.61,0,2.23.33,2.3,1.2a2.6,2.6,0,0,1-2.13,3c-.62.09-1.43.27-1.87,0s0-1.09.08-1.67.24-1.17.27-1.76.34-.78.89-.71A3.53,3.53,0,0,0,57.76,170.09Z"/><path class="eaf8b41e-7d9f-4306-b434-704989a4ccfe" d="M93.22,202.29H40.41C37,201.07,36,198.57,36,195.13q.12-28,0-56c0-3.45,1-5.95,4.41-7.17H75.72c4.63.83,8.11,3.48,11.18,6.87,1.92,2.12,4,4.07,6,6.08a15.17,15.17,0,0,1,4.65,11.19c0,13-.06,26,0,39C97.66,198.57,96.6,201.07,93.22,202.29ZM75.66,136.52c-.61-.06-1-.14-1.42-.14-10.67,0-21.35,0-32,0-1.38,0-1.83.59-1.81,1.89,0,3.65,0,7.29,0,10.93q0,23.26,0,46.54c0,1.29.13,2.22,1.8,2.22q24.6-.06,49.2,0c1.24,0,1.82-.44,1.82-1.73q0-20.46,0-40.91c0-1.09-.37-1.42-1.45-1.41-4.79.05-9.58,0-14.37,0H75.66Zm15,13c-3.52-3.57-7.07-7.15-10.57-10.69v10.69Z"/><path class="b0729d71-2834-4961-9c00-7670b0e87f62" d="M144.83,275c4.86,0,9.72,0,14.58,0,.76,0,.86.24.8.9q-1.17,13-2.33,26c-.12,1.33-.26,2.66-.35,4a.8.8,0,0,1-.7.84Q151,308.32,145.2,310a1.53,1.53,0,0,1-.85,0c-3.82-1.07-7.63-2.14-11.46-3.17a.91.91,0,0,1-.79-.95q-1-11.91-2.12-23.82c-.19-2.06-.35-4.13-.56-6.19-.06-.6.07-.81.73-.8C135,275,139.93,275,144.83,275Zm-.27,14c-1.24,0-2.47,0-3.71,0-.38,0-.63,0-.58.52.1,1,.17,1.94.23,2.91,0,.47.35.47.69.47l3.54,0V299l-2.48-.65c-1.65-.45-1.65-.45-1.85-2.1a8.23,8.23,0,0,1-.11-1c0-.4-.18-.51-.55-.5-.91,0-1.83,0-2.75,0-.54,0-.65.19-.6.68.16,1.56.31,3.12.41,4.68a1,1,0,0,0,.87,1c2.37.63,4.72,1.32,7.07,2v3.2c0,1.11,0,1.11,1,.81,2.59-.72,5.17-1.45,7.76-2.16,1.65-.46,1.62-.45,1.7-2.14s.24-3.47.39-5.2c.21-2.38.45-4.75.67-7.12.14-1.56.26-3.12.4-4.67q.33-3.66.67-7.3c.07-.63-.09-.9-.8-.89q-5.52,0-11,0c-.62,0-.81.18-.83.81a6.7,6.7,0,0,1-.16,2.71c-2.89,0-5.79,0-8.68,0-.58,0-.8.15-.71.75a17.15,17.15,0,0,1,.24,2.37c0,.7.31.8.92.8,2.81,0,5.61,0,8.42,0,0,.38,0,.76,0,1.13C144.66,287.18,145,288.12,144.56,289Z"/><path class="ff3d7d66-0c5e-4274-8951-5806d8b1cd9f" d="M144.56,281.18a6.7,6.7,0,0,0,.16-2.71c0-.63.21-.81.83-.81q5.5,0,11,0c.71,0,.87.26.8.89q-.35,3.65-.67,7.3c-.14,1.55-.26,3.11-.4,4.67-.22,2.37-.46,4.74-.67,7.12-.15,1.73-.31,3.46-.39,5.2s-.05,1.68-1.7,2.14c-2.59.71-5.17,1.44-7.76,2.16-1,.3-1,.3-1-.81v-3.2l.19-.08c2.25-.61,4.49-1.28,6.77-1.81.91-.21,1.14-.66,1.2-1.5.19-2.57.45-5.13.68-7.69q.45-5.08.91-10.17c0-.49-.07-.68-.6-.68-3,0-6,0-9,.05Z"/><path class="b2dfed2e-f6bf-44fd-b9e9-36fa6dc613aa" d="M144.93,303.05l-.19.08c-2.35-.66-4.7-1.35-7.07-2a1,1,0,0,1-.87-1c-.1-1.56-.25-3.12-.41-4.68,0-.49.06-.7.6-.68.92,0,1.84,0,2.75,0,.37,0,.55.1.55.5a8.23,8.23,0,0,0,.11,1c.2,1.65.2,1.65,1.85,2.1l2.48.65.19.06Z"/><path class="bda10584-240d-4f63-9b7f-9806c7dc6dfe" d="M144.56,281.18l.35.07c0,1.26,0,2.52,0,3.78l-.17.1c-2.81,0-5.61,0-8.42,0-.61,0-.92-.1-.92-.8a17.15,17.15,0,0,0-.24-2.37c-.09-.6.13-.75.71-.75C138.77,281.21,141.67,281.19,144.56,281.18Z"/><path class="ff3d7d66-0c5e-4274-8951-5806d8b1cd9f" d="M144.92,299.08l-.19-.06V293s0-.08,0-.12a33.94,33.94,0,0,0,4.16.08c.49,0,.7.12.65.65-.14,1.32-.26,2.64-.36,4,0,.42-.32.44-.6.52Z"/><path class="ff3d7d66-0c5e-4274-8951-5806d8b1cd9f" d="M144.75,285.13l.17-.1c1.54,0,3.08.07,4.62.05.6,0,.78.19.7.77-.1.82-.17,1.65-.22,2.47,0,.54-.25.75-.83.74-1.48,0-3,0-4.44,0l-.19-.08c.39-.89.1-1.83.18-2.75C144.77,285.89,144.75,285.51,144.75,285.13Z"/><path class="bda10584-240d-4f63-9b7f-9806c7dc6dfe" d="M144.56,289l.19.08a9.11,9.11,0,0,1,0,3.75s0,.08,0,.12l-3.54,0c-.34,0-.66,0-.69-.47-.06-1-.13-1.94-.23-2.91-.05-.48.2-.52.58-.52C142.09,289,143.32,289,144.56,289Z"/><path class="b6593ffe-92da-442c-ab15-4c69864637c0" d="M144.74,292.84a9.11,9.11,0,0,0,0-3.75c1.48,0,3-.06,4.44,0,.58,0,.79-.2.83-.74,0-.82.12-1.65.22-2.47.08-.58-.1-.77-.7-.77-1.54,0-3.08,0-4.62-.05,0-1.26,0-2.52,0-3.78,3,0,6,0,9-.05.53,0,.65.19.6.68q-.47,5.08-.91,10.17c-.23,2.56-.49,5.12-.68,7.69-.06.84-.29,1.29-1.2,1.5-2.28.53-4.52,1.2-6.77,1.81,0-1.32,0-2.65,0-4l3.67-1c.28-.08.57-.1.6-.52.1-1.33.22-2.65.36-4,0-.53-.16-.64-.65-.65A33.94,33.94,0,0,1,144.74,292.84Z"/><path class="b0729d71-2834-4961-9c00-7670b0e87f62" d="M171.22,318.29H118.41c-3.37-1.22-4.42-3.72-4.41-7.16q.12-28,0-56c0-3.45,1-5.95,4.41-7.17h35.31c4.63.83,8.11,3.48,11.18,6.87,1.92,2.12,4,4.07,6,6.08a15.17,15.17,0,0,1,4.65,11.19c0,13-.06,26,0,39C175.66,314.57,174.6,317.07,171.22,318.29Zm-17.56-65.77c-.61-.06-1-.14-1.42-.14-10.67,0-21.35,0-32,0-1.38,0-1.83.59-1.81,1.89,0,3.65,0,7.29,0,10.93q0,23.26,0,46.54c0,1.29.13,2.22,1.8,2.22q24.6-.06,49.2,0c1.24,0,1.82-.44,1.82-1.73q0-20.46,0-40.91c0-1.09-.37-1.42-1.45-1.41-4.79.05-9.58,0-14.37,0h-1.75Zm15,13c-3.52-3.57-7.07-7.15-10.57-10.69v10.69Z"/><text class="f6bd8b86-0668-4e69-9599-4b4999b3fb1c" transform="translate(114 337.29)"><tspan class="adaf6f10-52cb-4ec8-a4d3-7140127937db">s</tspan><tspan class="b3c400eb-c245-41fc-89da-6ad6a50360b8" x="7.61" y="0">tyle</tspan><tspan class="f61b1d4c-7178-435f-8909-94bbcf15eb60" x="38.36" y="0">.</tspan><tspan x="43.58" y="0">css</tspan></text><text class="b970f913-ee29-4124-b5dc-68d27f2ecb4f" transform="translate(36 106.94)">ind<tspan class="a3f3d2aa-cad9-4e03-8db6-003cb90741e0" x="25.58" y="0">ex</tspan><tspan x="43.58" y="0">.php</tspan></text><text class="ea36145d-d63a-435c-9403-c3d602be9b24" transform="translate(36 221.94)"><tspan class="e958fb83-9b09-433b-aca5-f07a19280d07">b</tspan><tspan x="10.12" y="0">ac</tspan><tspan class="a5dca30f-fd68-4bcc-98e5-98a80dd886ca" x="28.01" y="0">k</tspan><tspan x="37.37" y="0">end.php</tspan></text></svg>